%TF.GenerationSoftware,KiCad,Pcbnew,7.0.9*%
%TF.CreationDate,2023-12-08T15:58:01+01:00*%
%TF.ProjectId,2023_PiezoPreamp,32303233-5f50-4696-957a-6f507265616d,rev?*%
%TF.SameCoordinates,PX2625a00PY1c22260*%
%TF.FileFunction,Drillmap*%
%TF.FilePolarity,Positive*%
%FSLAX45Y45*%
G04 Gerber Fmt 4.5, Leading zero omitted, Abs format (unit mm)*
G04 Created by KiCad (PCBNEW 7.0.9) date 2023-12-08 15:58:01*
%MOMM*%
%LPD*%
G01*
G04 APERTURE LIST*
%ADD10C,0.100000*%
%ADD11C,0.200000*%
%ADD12C,0.110000*%
%ADD13C,0.120000*%
%ADD14C,0.220000*%
%ADD15C,0.320000*%
G04 APERTURE END LIST*
D10*
X0Y-3450000D02*
X700000Y-3450000D01*
X700000Y-100000D02*
G75*
G03*
X800000Y0I0J100000D01*
G01*
X800000Y0D02*
X6000000Y0D01*
X0Y-100000D02*
X0Y-3450000D01*
X800000Y-3550000D02*
X6000000Y-3550000D01*
X6000000Y0D02*
G75*
G03*
X6100000Y-100000I100000J0D01*
G01*
X800000Y-3550000D02*
G75*
G03*
X700000Y-3450000I-100000J0D01*
G01*
X0Y-100000D02*
X700000Y-100000D01*
X6100000Y-3450000D02*
G75*
G03*
X6000000Y-3550000I0J-100000D01*
G01*
X6800000Y-100000D02*
X6100000Y-100000D01*
X6100000Y-3450000D02*
X6800000Y-3450000D01*
X6800000Y-3450000D02*
X6800000Y-100000D01*
D11*
D10*
X145000Y-1619820D02*
X175000Y-1649820D01*
X175000Y-1619820D02*
X145000Y-1649820D01*
X309950Y-1589303D02*
X339950Y-1619303D01*
X339950Y-1589303D02*
X309950Y-1619303D01*
X470050Y-1855000D02*
X500050Y-1885000D01*
X500050Y-1855000D02*
X470050Y-1885000D01*
X1740000Y-1790000D02*
X1770000Y-1820000D01*
X1770000Y-1790000D02*
X1740000Y-1820000D01*
X1782191Y-1504797D02*
X1812191Y-1534797D01*
X1812191Y-1504797D02*
X1782191Y-1534797D01*
X1795528Y-1410788D02*
X1825528Y-1440788D01*
X1825528Y-1410788D02*
X1795528Y-1440788D01*
X1905000Y-2405000D02*
X1935000Y-2435000D01*
X1935000Y-2405000D02*
X1905000Y-2435000D01*
X1945000Y-2115000D02*
X1975000Y-2145000D01*
X1975000Y-2115000D02*
X1945000Y-2145000D01*
X1945000Y-2209950D02*
X1975000Y-2239950D01*
X1975000Y-2209950D02*
X1945000Y-2239950D01*
X2010000Y-1940000D02*
X2040000Y-1970000D01*
X2040000Y-1940000D02*
X2010000Y-1970000D01*
X2108000Y-1333000D02*
X2138000Y-1363000D01*
X2138000Y-1333000D02*
X2108000Y-1363000D01*
X2165000Y-1440000D02*
X2195000Y-1470000D01*
X2195000Y-1440000D02*
X2165000Y-1470000D01*
X2172500Y-1026450D02*
X2202500Y-1056450D01*
X2202500Y-1026450D02*
X2172500Y-1056450D01*
X2267319Y-1031437D02*
X2297319Y-1061437D01*
X2297319Y-1031437D02*
X2267319Y-1061437D01*
X2390000Y-500000D02*
X2420000Y-530000D01*
X2420000Y-500000D02*
X2390000Y-530000D01*
X2390000Y-1970000D02*
X2420000Y-2000000D01*
X2420000Y-1970000D02*
X2390000Y-2000000D01*
X2395000Y-1800000D02*
X2425000Y-1830000D01*
X2425000Y-1800000D02*
X2395000Y-1830000D01*
X2440000Y-1540000D02*
X2470000Y-1570000D01*
X2470000Y-1540000D02*
X2440000Y-1570000D01*
X2486683Y-487201D02*
X2516683Y-517201D01*
X2516683Y-487201D02*
X2486683Y-517201D01*
X2635000Y-1105000D02*
X2665000Y-1135000D01*
X2665000Y-1105000D02*
X2635000Y-1135000D01*
X2707943Y-1027585D02*
X2737943Y-1057585D01*
X2737943Y-1027585D02*
X2707943Y-1057585D01*
X2925153Y-2121042D02*
X2955153Y-2151042D01*
X2955153Y-2121042D02*
X2925153Y-2151042D01*
X2946494Y-2028521D02*
X2976494Y-2058521D01*
X2976494Y-2028521D02*
X2946494Y-2058521D01*
X2955821Y-533956D02*
X2985821Y-563956D01*
X2985821Y-533956D02*
X2955821Y-563956D01*
X3029000Y-614950D02*
X3059000Y-644950D01*
X3059000Y-614950D02*
X3029000Y-644950D01*
X3145000Y-3055000D02*
X3175000Y-3085000D01*
X3175000Y-3055000D02*
X3145000Y-3085000D01*
X3264214Y-2547585D02*
X3294214Y-2577585D01*
X3294214Y-2547585D02*
X3264214Y-2577585D01*
X3325000Y-2625000D02*
X3355000Y-2655000D01*
X3355000Y-2625000D02*
X3325000Y-2655000D01*
X3935000Y-1155000D02*
X3965000Y-1185000D01*
X3965000Y-1155000D02*
X3935000Y-1185000D01*
X4012412Y-1232408D02*
X4042412Y-1262408D01*
X4042412Y-1232408D02*
X4012412Y-1262408D01*
X4225000Y-1825000D02*
X4255000Y-1855000D01*
X4255000Y-1825000D02*
X4225000Y-1855000D01*
X4245598Y-1732311D02*
X4275598Y-1762311D01*
X4275598Y-1732311D02*
X4245598Y-1762311D01*
X4655000Y-1015000D02*
X4685000Y-1045000D01*
X4685000Y-1015000D02*
X4655000Y-1045000D01*
X4655000Y-1225000D02*
X4685000Y-1255000D01*
X4685000Y-1225000D02*
X4655000Y-1255000D01*
X4709477Y-885473D02*
X4739477Y-915473D01*
X4739477Y-885473D02*
X4709477Y-915473D01*
X4715000Y-785000D02*
X4745000Y-815000D01*
X4745000Y-785000D02*
X4715000Y-815000D01*
X4728488Y-1164874D02*
X4758488Y-1194874D01*
X4758488Y-1164874D02*
X4728488Y-1194874D01*
X4785000Y-512585D02*
X4815000Y-542585D01*
X4815000Y-512585D02*
X4785000Y-542585D01*
X4989475Y-1041043D02*
X5019475Y-1071043D01*
X5019475Y-1041043D02*
X4989475Y-1071043D01*
X5085000Y-1055000D02*
X5115000Y-1085000D01*
X5115000Y-1055000D02*
X5085000Y-1085000D01*
X5267759Y-1082241D02*
X5297759Y-1112241D01*
X5297759Y-1082241D02*
X5267759Y-1112241D01*
X5357759Y-1172241D02*
X5387759Y-1202241D01*
X5387759Y-1172241D02*
X5357759Y-1202241D01*
X5567860Y-2182140D02*
X5597860Y-2212140D01*
X5597860Y-2182140D02*
X5567860Y-2212140D01*
X5635000Y-2115000D02*
X5665000Y-2145000D01*
X5665000Y-2115000D02*
X5635000Y-2145000D01*
X5742500Y-2195000D02*
X5772500Y-2225000D01*
X5772500Y-2195000D02*
X5742500Y-2225000D01*
X5838141Y-2198288D02*
X5868141Y-2228288D01*
X5868141Y-2198288D02*
X5838141Y-2228288D01*
X6002585Y-2170599D02*
X6032585Y-2200599D01*
X6032585Y-2170599D02*
X6002585Y-2200599D01*
X6080000Y-2227390D02*
X6110000Y-2257390D01*
X6110000Y-2227390D02*
X6080000Y-2257390D01*
X110000Y-3322000D02*
G75*
G03*
X110000Y-3322000I-20000J0D01*
G01*
X120000Y-200000D02*
G75*
G03*
X120000Y-200000I-20000J0D01*
G01*
X120000Y-650000D02*
G75*
G03*
X120000Y-650000I-20000J0D01*
G01*
X120000Y-2770000D02*
G75*
G03*
X120000Y-2770000I-20000J0D01*
G01*
X190000Y-2520000D02*
G75*
G03*
X190000Y-2520000I-20000J0D01*
G01*
X210000Y-2330000D02*
G75*
G03*
X210000Y-2330000I-20000J0D01*
G01*
X450000Y-2410000D02*
G75*
G03*
X450000Y-2410000I-20000J0D01*
G01*
X580000Y-3150000D02*
G75*
G03*
X580000Y-3150000I-20000J0D01*
G01*
X588873Y-2517521D02*
G75*
G03*
X588873Y-2517521I-20000J0D01*
G01*
X620000Y-750000D02*
G75*
G03*
X620000Y-750000I-20000J0D01*
G01*
X692000Y-2537000D02*
G75*
G03*
X692000Y-2537000I-20000J0D01*
G01*
X750000Y-3350000D02*
G75*
G03*
X750000Y-3350000I-20000J0D01*
G01*
X770000Y-1000000D02*
G75*
G03*
X770000Y-1000000I-20000J0D01*
G01*
X770000Y-1700000D02*
G75*
G03*
X770000Y-1700000I-20000J0D01*
G01*
X800000Y-400000D02*
G75*
G03*
X800000Y-400000I-20000J0D01*
G01*
X810000Y-3010000D02*
G75*
G03*
X810000Y-3010000I-20000J0D01*
G01*
X910000Y-3130000D02*
G75*
G03*
X910000Y-3130000I-20000J0D01*
G01*
X920000Y-550000D02*
G75*
G03*
X920000Y-550000I-20000J0D01*
G01*
X990000Y-2160000D02*
G75*
G03*
X990000Y-2160000I-20000J0D01*
G01*
X1020000Y-250000D02*
G75*
G03*
X1020000Y-250000I-20000J0D01*
G01*
X1020000Y-1000000D02*
G75*
G03*
X1020000Y-1000000I-20000J0D01*
G01*
X1020000Y-1250000D02*
G75*
G03*
X1020000Y-1250000I-20000J0D01*
G01*
X1020000Y-1650000D02*
G75*
G03*
X1020000Y-1650000I-20000J0D01*
G01*
X1020000Y-1900000D02*
G75*
G03*
X1020000Y-1900000I-20000J0D01*
G01*
X1020000Y-3050000D02*
G75*
G03*
X1020000Y-3050000I-20000J0D01*
G01*
X1020000Y-3300000D02*
G75*
G03*
X1020000Y-3300000I-20000J0D01*
G01*
X1092354Y-2587646D02*
G75*
G03*
X1092354Y-2587646I-20000J0D01*
G01*
X1270000Y-1000000D02*
G75*
G03*
X1270000Y-1000000I-20000J0D01*
G01*
X1270000Y-1250000D02*
G75*
G03*
X1270000Y-1250000I-20000J0D01*
G01*
X1270000Y-1850000D02*
G75*
G03*
X1270000Y-1850000I-20000J0D01*
G01*
X1270000Y-2700000D02*
G75*
G03*
X1270000Y-2700000I-20000J0D01*
G01*
X1270000Y-3200000D02*
G75*
G03*
X1270000Y-3200000I-20000J0D01*
G01*
X1286724Y-2233276D02*
G75*
G03*
X1286724Y-2233276I-20000J0D01*
G01*
X1340000Y-2800000D02*
G75*
G03*
X1340000Y-2800000I-20000J0D01*
G01*
X1350000Y-2520000D02*
G75*
G03*
X1350000Y-2520000I-20000J0D01*
G01*
X1470000Y-1950000D02*
G75*
G03*
X1470000Y-1950000I-20000J0D01*
G01*
X1511724Y-2658276D02*
G75*
G03*
X1511724Y-2658276I-20000J0D01*
G01*
X1520000Y-1000000D02*
G75*
G03*
X1520000Y-1000000I-20000J0D01*
G01*
X1520000Y-1750000D02*
G75*
G03*
X1520000Y-1750000I-20000J0D01*
G01*
X1720000Y-150000D02*
G75*
G03*
X1720000Y-150000I-20000J0D01*
G01*
X1720000Y-1200000D02*
G75*
G03*
X1720000Y-1200000I-20000J0D01*
G01*
X1720000Y-1950000D02*
G75*
G03*
X1720000Y-1950000I-20000J0D01*
G01*
X1770000Y-409950D02*
G75*
G03*
X1770000Y-409950I-20000J0D01*
G01*
X1823276Y-2736724D02*
G75*
G03*
X1823276Y-2736724I-20000J0D01*
G01*
X1902415Y-785000D02*
G75*
G03*
X1902415Y-785000I-20000J0D01*
G01*
X1905000Y-2514950D02*
G75*
G03*
X1905000Y-2514950I-20000J0D01*
G01*
X1920000Y-3100000D02*
G75*
G03*
X1920000Y-3100000I-20000J0D01*
G01*
X2030000Y-2770000D02*
G75*
G03*
X2030000Y-2770000I-20000J0D01*
G01*
X2042550Y-1627415D02*
G75*
G03*
X2042550Y-1627415I-20000J0D01*
G01*
X2063000Y-3270000D02*
G75*
G03*
X2063000Y-3270000I-20000J0D01*
G01*
X2120000Y-3150000D02*
G75*
G03*
X2120000Y-3150000I-20000J0D01*
G01*
X2245000Y-2252585D02*
G75*
G03*
X2245000Y-2252585I-20000J0D01*
G01*
X2320000Y-150000D02*
G75*
G03*
X2320000Y-150000I-20000J0D01*
G01*
X2340000Y-800000D02*
G75*
G03*
X2340000Y-800000I-20000J0D01*
G01*
X2420000Y-350000D02*
G75*
G03*
X2420000Y-350000I-20000J0D01*
G01*
X2470000Y-3150000D02*
G75*
G03*
X2470000Y-3150000I-20000J0D01*
G01*
X2480000Y-2750000D02*
G75*
G03*
X2480000Y-2750000I-20000J0D01*
G01*
X2524950Y-1985000D02*
G75*
G03*
X2524950Y-1985000I-20000J0D01*
G01*
X2549567Y-2339258D02*
G75*
G03*
X2549567Y-2339258I-20000J0D01*
G01*
X2620000Y-1750000D02*
G75*
G03*
X2620000Y-1750000I-20000J0D01*
G01*
X2620000Y-2896642D02*
G75*
G03*
X2620000Y-2896642I-20000J0D01*
G01*
X2629901Y-1985000D02*
G75*
G03*
X2629901Y-1985000I-20000J0D01*
G01*
X2645000Y-805000D02*
G75*
G03*
X2645000Y-805000I-20000J0D01*
G01*
X2646735Y-2299597D02*
G75*
G03*
X2646735Y-2299597I-20000J0D01*
G01*
X2667594Y-2474088D02*
G75*
G03*
X2667594Y-2474088I-20000J0D01*
G01*
X2670000Y-500000D02*
G75*
G03*
X2670000Y-500000I-20000J0D01*
G01*
X2770000Y-250000D02*
G75*
G03*
X2770000Y-250000I-20000J0D01*
G01*
X2771396Y-2458604D02*
G75*
G03*
X2771396Y-2458604I-20000J0D01*
G01*
X2840000Y-2821642D02*
G75*
G03*
X2840000Y-2821642I-20000J0D01*
G01*
X2870000Y-1700000D02*
G75*
G03*
X2870000Y-1700000I-20000J0D01*
G01*
X3015000Y-845585D02*
G75*
G03*
X3015000Y-845585I-20000J0D01*
G01*
X3170000Y-1650000D02*
G75*
G03*
X3170000Y-1650000I-20000J0D01*
G01*
X3170000Y-1950000D02*
G75*
G03*
X3170000Y-1950000I-20000J0D01*
G01*
X3214245Y-2180050D02*
G75*
G03*
X3214245Y-2180050I-20000J0D01*
G01*
X3220000Y-1100000D02*
G75*
G03*
X3220000Y-1100000I-20000J0D01*
G01*
X3261333Y-3011905D02*
G75*
G03*
X3261333Y-3011905I-20000J0D01*
G01*
X3420000Y-1300000D02*
G75*
G03*
X3420000Y-1300000I-20000J0D01*
G01*
X3420000Y-2821642D02*
G75*
G03*
X3420000Y-2821642I-20000J0D01*
G01*
X3461031Y-3288677D02*
G75*
G03*
X3461031Y-3288677I-20000J0D01*
G01*
X3470000Y-1650000D02*
G75*
G03*
X3470000Y-1650000I-20000J0D01*
G01*
X3470000Y-1950000D02*
G75*
G03*
X3470000Y-1950000I-20000J0D01*
G01*
X3520000Y-200000D02*
G75*
G03*
X3520000Y-200000I-20000J0D01*
G01*
X3520000Y-450000D02*
G75*
G03*
X3520000Y-450000I-20000J0D01*
G01*
X3520000Y-1050000D02*
G75*
G03*
X3520000Y-1050000I-20000J0D01*
G01*
X3570000Y-2200000D02*
G75*
G03*
X3570000Y-2200000I-20000J0D01*
G01*
X3670000Y-3450000D02*
G75*
G03*
X3670000Y-3450000I-20000J0D01*
G01*
X3700000Y-3140000D02*
G75*
G03*
X3700000Y-3140000I-20000J0D01*
G01*
X3720000Y-900000D02*
G75*
G03*
X3720000Y-900000I-20000J0D01*
G01*
X3770000Y-1700000D02*
G75*
G03*
X3770000Y-1700000I-20000J0D01*
G01*
X3770000Y-1950000D02*
G75*
G03*
X3770000Y-1950000I-20000J0D01*
G01*
X3799831Y-1117648D02*
G75*
G03*
X3799831Y-1117648I-20000J0D01*
G01*
X3815000Y-2875000D02*
G75*
G03*
X3815000Y-2875000I-20000J0D01*
G01*
X3820000Y-2300000D02*
G75*
G03*
X3820000Y-2300000I-20000J0D01*
G01*
X3820000Y-2520000D02*
G75*
G03*
X3820000Y-2520000I-20000J0D01*
G01*
X3830000Y-2132415D02*
G75*
G03*
X3830000Y-2132415I-20000J0D01*
G01*
X4070000Y-200000D02*
G75*
G03*
X4070000Y-200000I-20000J0D01*
G01*
X4070000Y-2150000D02*
G75*
G03*
X4070000Y-2150000I-20000J0D01*
G01*
X4070000Y-2950000D02*
G75*
G03*
X4070000Y-2950000I-20000J0D01*
G01*
X4120000Y-1900000D02*
G75*
G03*
X4120000Y-1900000I-20000J0D01*
G01*
X4170000Y-1000000D02*
G75*
G03*
X4170000Y-1000000I-20000J0D01*
G01*
X4218065Y-2823870D02*
G75*
G03*
X4218065Y-2823870I-20000J0D01*
G01*
X4220000Y-450000D02*
G75*
G03*
X4220000Y-450000I-20000J0D01*
G01*
X4220000Y-2300000D02*
G75*
G03*
X4220000Y-2300000I-20000J0D01*
G01*
X4265000Y-2730000D02*
G75*
G03*
X4265000Y-2730000I-20000J0D01*
G01*
X4266978Y-3097438D02*
G75*
G03*
X4266978Y-3097438I-20000J0D01*
G01*
X4270000Y-100000D02*
G75*
G03*
X4270000Y-100000I-20000J0D01*
G01*
X4370000Y-1200000D02*
G75*
G03*
X4370000Y-1200000I-20000J0D01*
G01*
X4370000Y-1700000D02*
G75*
G03*
X4370000Y-1700000I-20000J0D01*
G01*
X4370000Y-3400000D02*
G75*
G03*
X4370000Y-3400000I-20000J0D01*
G01*
X4560000Y-1985000D02*
G75*
G03*
X4560000Y-1985000I-20000J0D01*
G01*
X4570000Y-300000D02*
G75*
G03*
X4570000Y-300000I-20000J0D01*
G01*
X4623871Y-2741079D02*
G75*
G03*
X4623871Y-2741079I-20000J0D01*
G01*
X4680000Y-1490000D02*
G75*
G03*
X4680000Y-1490000I-20000J0D01*
G01*
X4745000Y-2355000D02*
G75*
G03*
X4745000Y-2355000I-20000J0D01*
G01*
X4770000Y-3200000D02*
G75*
G03*
X4770000Y-3200000I-20000J0D01*
G01*
X4780000Y-2555000D02*
G75*
G03*
X4780000Y-2555000I-20000J0D01*
G01*
X4837741Y-2642639D02*
G75*
G03*
X4837741Y-2642639I-20000J0D01*
G01*
X4927415Y-1970000D02*
G75*
G03*
X4927415Y-1970000I-20000J0D01*
G01*
X4970000Y-2855000D02*
G75*
G03*
X4970000Y-2855000I-20000J0D01*
G01*
X4970000Y-3400000D02*
G75*
G03*
X4970000Y-3400000I-20000J0D01*
G01*
X5000000Y-1700000D02*
G75*
G03*
X5000000Y-1700000I-20000J0D01*
G01*
X5033642Y-1506363D02*
G75*
G03*
X5033642Y-1506363I-20000J0D01*
G01*
X5104346Y-2562119D02*
G75*
G03*
X5104346Y-2562119I-20000J0D01*
G01*
X5160050Y-2370050D02*
G75*
G03*
X5160050Y-2370050I-20000J0D01*
G01*
X5169996Y-1970618D02*
G75*
G03*
X5169996Y-1970618I-20000J0D01*
G01*
X5195000Y-2615000D02*
G75*
G03*
X5195000Y-2615000I-20000J0D01*
G01*
X5225000Y-2060000D02*
G75*
G03*
X5225000Y-2060000I-20000J0D01*
G01*
X5250000Y-2275000D02*
G75*
G03*
X5250000Y-2275000I-20000J0D01*
G01*
X5295000Y-2965000D02*
G75*
G03*
X5295000Y-2965000I-20000J0D01*
G01*
X5320000Y-200000D02*
G75*
G03*
X5320000Y-200000I-20000J0D01*
G01*
X5420000Y-1800000D02*
G75*
G03*
X5420000Y-1800000I-20000J0D01*
G01*
X5420000Y-2700000D02*
G75*
G03*
X5420000Y-2700000I-20000J0D01*
G01*
X5620000Y-300000D02*
G75*
G03*
X5620000Y-300000I-20000J0D01*
G01*
X5620000Y-1300000D02*
G75*
G03*
X5620000Y-1300000I-20000J0D01*
G01*
X5620000Y-1600000D02*
G75*
G03*
X5620000Y-1600000I-20000J0D01*
G01*
X5620000Y-1950000D02*
G75*
G03*
X5620000Y-1950000I-20000J0D01*
G01*
X5620000Y-2900000D02*
G75*
G03*
X5620000Y-2900000I-20000J0D01*
G01*
X5710000Y-2680000D02*
G75*
G03*
X5710000Y-2680000I-20000J0D01*
G01*
X5720000Y-1000000D02*
G75*
G03*
X5720000Y-1000000I-20000J0D01*
G01*
X5720000Y-3350000D02*
G75*
G03*
X5720000Y-3350000I-20000J0D01*
G01*
X5820000Y-600000D02*
G75*
G03*
X5820000Y-600000I-20000J0D01*
G01*
X5870000Y-1900000D02*
G75*
G03*
X5870000Y-1900000I-20000J0D01*
G01*
X5970000Y-950000D02*
G75*
G03*
X5970000Y-950000I-20000J0D01*
G01*
X6020000Y-250000D02*
G75*
G03*
X6020000Y-250000I-20000J0D01*
G01*
X6070000Y-1150000D02*
G75*
G03*
X6070000Y-1150000I-20000J0D01*
G01*
X6120000Y-3350000D02*
G75*
G03*
X6120000Y-3350000I-20000J0D01*
G01*
X6300000Y-2900000D02*
G75*
G03*
X6300000Y-2900000I-20000J0D01*
G01*
X6370000Y-1000000D02*
G75*
G03*
X6370000Y-1000000I-20000J0D01*
G01*
X6370000Y-1800000D02*
G75*
G03*
X6370000Y-1800000I-20000J0D01*
G01*
X6370000Y-2200000D02*
G75*
G03*
X6370000Y-2200000I-20000J0D01*
G01*
X6520000Y-3300000D02*
G75*
G03*
X6520000Y-3300000I-20000J0D01*
G01*
X6570000Y-2750000D02*
G75*
G03*
X6570000Y-2750000I-20000J0D01*
G01*
X6620000Y-2350000D02*
G75*
G03*
X6620000Y-2350000I-20000J0D01*
G01*
X6710000Y-750000D02*
G75*
G03*
X6710000Y-750000I-20000J0D01*
G01*
X6720000Y-1000000D02*
G75*
G03*
X6720000Y-1000000I-20000J0D01*
G01*
X6740000Y-1870000D02*
G75*
G03*
X6740000Y-1870000I-20000J0D01*
G01*
X3885000Y-3142500D02*
X3885000Y-3197500D01*
X3857500Y-3170000D02*
X3912500Y-3170000D01*
X4010000Y-3142500D02*
X4010000Y-3197500D01*
X3982500Y-3170000D02*
X4037500Y-3170000D01*
X1131820Y-141820D02*
X1131820Y-78180D01*
X1068180Y-78180D01*
X1068180Y-141820D01*
X1131820Y-141820D01*
X1131820Y-471820D02*
X1131820Y-408180D01*
X1068180Y-408180D01*
X1068180Y-471820D01*
X1131820Y-471820D01*
X1331820Y-141820D02*
X1331820Y-78180D01*
X1268180Y-78180D01*
X1268180Y-141820D01*
X1331820Y-141820D01*
X1331820Y-471820D02*
X1331820Y-408180D01*
X1268180Y-408180D01*
X1268180Y-471820D01*
X1331820Y-471820D01*
X1531820Y-141820D02*
X1531820Y-78180D01*
X1468180Y-78180D01*
X1468180Y-141820D01*
X1531820Y-141820D01*
X1531820Y-471820D02*
X1531820Y-408180D01*
X1468180Y-408180D01*
X1468180Y-471820D01*
X1531820Y-471820D01*
X1931820Y-141820D02*
X1931820Y-78180D01*
X1868180Y-78180D01*
X1868180Y-141820D01*
X1931820Y-141820D01*
X1931820Y-471820D02*
X1931820Y-408180D01*
X1868180Y-408180D01*
X1868180Y-471820D01*
X1931820Y-471820D01*
X2131820Y-141820D02*
X2131820Y-78180D01*
X2068180Y-78180D01*
X2068180Y-141820D01*
X2131820Y-141820D01*
X2131820Y-471820D02*
X2131820Y-408180D01*
X2068180Y-408180D01*
X2068180Y-471820D01*
X2131820Y-471820D01*
X2931820Y-141820D02*
X2931820Y-78180D01*
X2868180Y-78180D01*
X2868180Y-141820D01*
X2931820Y-141820D01*
X2931820Y-471820D02*
X2931820Y-408180D01*
X2868180Y-408180D01*
X2868180Y-471820D01*
X2931820Y-471820D01*
X3131820Y-141820D02*
X3131820Y-78180D01*
X3068180Y-78180D01*
X3068180Y-141820D01*
X3131820Y-141820D01*
X3131820Y-471820D02*
X3131820Y-408180D01*
X3068180Y-408180D01*
X3068180Y-471820D01*
X3131820Y-471820D01*
X3331820Y-141820D02*
X3331820Y-78180D01*
X3268180Y-78180D01*
X3268180Y-141820D01*
X3331820Y-141820D01*
X3331820Y-471820D02*
X3331820Y-408180D01*
X3268180Y-408180D01*
X3268180Y-471820D01*
X3331820Y-471820D01*
X3731820Y-141820D02*
X3731820Y-78180D01*
X3668180Y-78180D01*
X3668180Y-141820D01*
X3731820Y-141820D01*
X3731820Y-471820D02*
X3731820Y-408180D01*
X3668180Y-408180D01*
X3668180Y-471820D01*
X3731820Y-471820D01*
X3931820Y-141820D02*
X3931820Y-78180D01*
X3868180Y-78180D01*
X3868180Y-141820D01*
X3931820Y-141820D01*
X3931820Y-471820D02*
X3931820Y-408180D01*
X3868180Y-408180D01*
X3868180Y-471820D01*
X3931820Y-471820D01*
X4731820Y-141820D02*
X4731820Y-78180D01*
X4668180Y-78180D01*
X4668180Y-141820D01*
X4731820Y-141820D01*
X4731820Y-471820D02*
X4731820Y-408180D01*
X4668180Y-408180D01*
X4668180Y-471820D01*
X4731820Y-471820D01*
X4931820Y-141820D02*
X4931820Y-78180D01*
X4868180Y-78180D01*
X4868180Y-141820D01*
X4931820Y-141820D01*
X4931820Y-471820D02*
X4931820Y-408180D01*
X4868180Y-408180D01*
X4868180Y-471820D01*
X4931820Y-471820D01*
X5131820Y-141820D02*
X5131820Y-78180D01*
X5068180Y-78180D01*
X5068180Y-141820D01*
X5131820Y-141820D01*
X5131820Y-471820D02*
X5131820Y-408180D01*
X5068180Y-408180D01*
X5068180Y-471820D01*
X5131820Y-471820D01*
X5531820Y-141820D02*
X5531820Y-78180D01*
X5468180Y-78180D01*
X5468180Y-141820D01*
X5531820Y-141820D01*
X5531820Y-471820D02*
X5531820Y-408180D01*
X5468180Y-408180D01*
X5468180Y-471820D01*
X5531820Y-471820D01*
X5731820Y-141820D02*
X5731820Y-78180D01*
X5668180Y-78180D01*
X5668180Y-141820D01*
X5731820Y-141820D01*
X5731820Y-471820D02*
X5731820Y-408180D01*
X5668180Y-408180D01*
X5668180Y-471820D01*
X5731820Y-471820D01*
X770000Y-2780000D02*
X820000Y-2730000D01*
X770000Y-2680000D01*
X720000Y-2730000D01*
X770000Y-2780000D01*
X710000Y-2780000D02*
X830000Y-2780000D01*
X830000Y-2780000D02*
G75*
G03*
X830000Y-2680000I0J50000D01*
G01*
X830000Y-2680000D02*
X710000Y-2680000D01*
X710000Y-2680000D02*
G75*
G03*
X710000Y-2780000I0J-50000D01*
G01*
X2260000Y-2530000D02*
X2310000Y-2480000D01*
X2260000Y-2430000D01*
X2210000Y-2480000D01*
X2260000Y-2530000D01*
X2200000Y-2530000D02*
X2320000Y-2530000D01*
X2320000Y-2530000D02*
G75*
G03*
X2320000Y-2430000I0J50000D01*
G01*
X2320000Y-2430000D02*
X2200000Y-2430000D01*
X2200000Y-2430000D02*
G75*
G03*
X2200000Y-2530000I0J-50000D01*
G01*
X2260000Y-3030000D02*
X2310000Y-2980000D01*
X2260000Y-2930000D01*
X2210000Y-2980000D01*
X2260000Y-3030000D01*
X2200000Y-3030000D02*
X2320000Y-3030000D01*
X2320000Y-3030000D02*
G75*
G03*
X2320000Y-2930000I0J50000D01*
G01*
X2320000Y-2930000D02*
X2200000Y-2930000D01*
X2200000Y-2930000D02*
G75*
G03*
X2200000Y-3030000I0J-50000D01*
G01*
X4540000Y-2530000D02*
X4590000Y-2480000D01*
X4540000Y-2430000D01*
X4490000Y-2480000D01*
X4540000Y-2530000D01*
X4600000Y-2430000D02*
X4480000Y-2430000D01*
X4480000Y-2430000D02*
G75*
G03*
X4480000Y-2530000I0J-50000D01*
G01*
X4480000Y-2530000D02*
X4600000Y-2530000D01*
X4600000Y-2530000D02*
G75*
G03*
X4600000Y-2430000I0J50000D01*
G01*
X4540000Y-3030000D02*
X4590000Y-2980000D01*
X4540000Y-2930000D01*
X4490000Y-2980000D01*
X4540000Y-3030000D01*
X4600000Y-2930000D02*
X4480000Y-2930000D01*
X4480000Y-2930000D02*
G75*
G03*
X4480000Y-3030000I0J-50000D01*
G01*
X4480000Y-3030000D02*
X4600000Y-3030000D01*
X4600000Y-3030000D02*
G75*
G03*
X4600000Y-2930000I0J50000D01*
G01*
X6030000Y-2780000D02*
X6080000Y-2730000D01*
X6030000Y-2680000D01*
X5980000Y-2730000D01*
X6030000Y-2780000D01*
X6090000Y-2680000D02*
X5970000Y-2680000D01*
X5970000Y-2680000D02*
G75*
G03*
X5970000Y-2780000I0J-50000D01*
G01*
X5970000Y-2780000D02*
X6090000Y-2780000D01*
X6090000Y-2780000D02*
G75*
G03*
X6090000Y-2680000I0J50000D01*
G01*
D12*
X118000Y-845000D02*
X228000Y-955000D01*
X228000Y-845000D02*
X118000Y-955000D01*
X228000Y-900000D02*
G75*
G03*
X228000Y-900000I-55000J0D01*
G01*
X372000Y-845000D02*
X482000Y-955000D01*
X482000Y-845000D02*
X372000Y-955000D01*
X482000Y-900000D02*
G75*
G03*
X482000Y-900000I-55000J0D01*
G01*
D13*
X800000Y-680000D02*
X920000Y-800000D01*
X920000Y-680000D02*
X800000Y-800000D01*
X860000Y-680000D02*
X860000Y-800000D01*
X800000Y-740000D02*
X920000Y-740000D01*
X1050000Y-680000D02*
X1170000Y-800000D01*
X1170000Y-680000D02*
X1050000Y-800000D01*
X1110000Y-680000D02*
X1110000Y-800000D01*
X1050000Y-740000D02*
X1170000Y-740000D01*
X1300000Y-680000D02*
X1420000Y-800000D01*
X1420000Y-680000D02*
X1300000Y-800000D01*
X1360000Y-680000D02*
X1360000Y-800000D01*
X1300000Y-740000D02*
X1420000Y-740000D01*
X3090000Y-680000D02*
X3210000Y-800000D01*
X3210000Y-680000D02*
X3090000Y-800000D01*
X3150000Y-680000D02*
X3150000Y-800000D01*
X3090000Y-740000D02*
X3210000Y-740000D01*
X3340000Y-680000D02*
X3460000Y-800000D01*
X3460000Y-680000D02*
X3340000Y-800000D01*
X3400000Y-680000D02*
X3400000Y-800000D01*
X3340000Y-740000D02*
X3460000Y-740000D01*
X3590000Y-680000D02*
X3710000Y-800000D01*
X3710000Y-680000D02*
X3590000Y-800000D01*
X3650000Y-680000D02*
X3650000Y-800000D01*
X3590000Y-740000D02*
X3710000Y-740000D01*
X5380000Y-680000D02*
X5500000Y-800000D01*
X5500000Y-680000D02*
X5380000Y-800000D01*
X5440000Y-680000D02*
X5440000Y-800000D01*
X5380000Y-740000D02*
X5500000Y-740000D01*
X5630000Y-680000D02*
X5750000Y-800000D01*
X5750000Y-680000D02*
X5630000Y-800000D01*
X5690000Y-680000D02*
X5690000Y-800000D01*
X5630000Y-740000D02*
X5750000Y-740000D01*
X5880000Y-680000D02*
X6000000Y-800000D01*
X6000000Y-680000D02*
X5880000Y-800000D01*
X5940000Y-680000D02*
X5940000Y-800000D01*
X5880000Y-740000D02*
X6000000Y-740000D01*
X6460000Y-1270000D02*
X6580000Y-1390000D01*
X6580000Y-1270000D02*
X6460000Y-1390000D01*
X6520000Y-1270000D02*
X6520000Y-1390000D01*
X6460000Y-1330000D02*
X6580000Y-1330000D01*
D10*
X6580000Y-1430000D02*
X6580000Y-1230000D01*
X6580000Y-1230000D02*
G75*
G03*
X6460000Y-1230000I-60000J0D01*
G01*
X6460000Y-1230000D02*
X6460000Y-1430000D01*
X6460000Y-1430000D02*
G75*
G03*
X6580000Y-1430000I60000J0D01*
G01*
D14*
X560000Y-1330000D02*
X780000Y-1550000D01*
X780000Y-1330000D02*
X560000Y-1550000D01*
X747782Y-1517782D02*
X747782Y-1362218D01*
X592218Y-1362218D01*
X592218Y-1517782D01*
X747782Y-1517782D01*
D10*
X780000Y-1460000D02*
X780000Y-1420000D01*
X780000Y-1420000D02*
G75*
G03*
X560000Y-1420000I-110000J0D01*
G01*
X560000Y-1420000D02*
X560000Y-1460000D01*
X560000Y-1460000D02*
G75*
G03*
X780000Y-1460000I110000J0D01*
G01*
D14*
X1440000Y-1330000D02*
X1660000Y-1550000D01*
X1660000Y-1330000D02*
X1440000Y-1550000D01*
X1627782Y-1517782D02*
X1627782Y-1362218D01*
X1472217Y-1362218D01*
X1472217Y-1517782D01*
X1627782Y-1517782D01*
D10*
X1660000Y-1460000D02*
X1660000Y-1420000D01*
X1660000Y-1420000D02*
G75*
G03*
X1440000Y-1420000I-110000J0D01*
G01*
X1440000Y-1420000D02*
X1440000Y-1460000D01*
X1440000Y-1460000D02*
G75*
G03*
X1660000Y-1460000I110000J0D01*
G01*
D14*
X2850000Y-1330000D02*
X3070000Y-1550000D01*
X3070000Y-1330000D02*
X2850000Y-1550000D01*
X3037782Y-1517782D02*
X3037782Y-1362218D01*
X2882217Y-1362218D01*
X2882217Y-1517782D01*
X3037782Y-1517782D01*
D10*
X3070000Y-1460000D02*
X3070000Y-1420000D01*
X3070000Y-1420000D02*
G75*
G03*
X2850000Y-1420000I-110000J0D01*
G01*
X2850000Y-1420000D02*
X2850000Y-1460000D01*
X2850000Y-1460000D02*
G75*
G03*
X3070000Y-1460000I110000J0D01*
G01*
D14*
X3730000Y-1330000D02*
X3950000Y-1550000D01*
X3950000Y-1330000D02*
X3730000Y-1550000D01*
X3917782Y-1517782D02*
X3917782Y-1362218D01*
X3762217Y-1362218D01*
X3762217Y-1517782D01*
X3917782Y-1517782D01*
D10*
X3950000Y-1460000D02*
X3950000Y-1420000D01*
X3950000Y-1420000D02*
G75*
G03*
X3730000Y-1420000I-110000J0D01*
G01*
X3730000Y-1420000D02*
X3730000Y-1460000D01*
X3730000Y-1460000D02*
G75*
G03*
X3950000Y-1460000I110000J0D01*
G01*
D14*
X5140000Y-1330000D02*
X5360000Y-1550000D01*
X5360000Y-1330000D02*
X5140000Y-1550000D01*
X5327783Y-1517782D02*
X5327783Y-1362218D01*
X5172218Y-1362218D01*
X5172218Y-1517782D01*
X5327783Y-1517782D01*
D10*
X5360000Y-1460000D02*
X5360000Y-1420000D01*
X5360000Y-1420000D02*
G75*
G03*
X5140000Y-1420000I-110000J0D01*
G01*
X5140000Y-1420000D02*
X5140000Y-1460000D01*
X5140000Y-1460000D02*
G75*
G03*
X5360000Y-1460000I110000J0D01*
G01*
D14*
X6020000Y-1330000D02*
X6240000Y-1550000D01*
X6240000Y-1330000D02*
X6020000Y-1550000D01*
X6207782Y-1517782D02*
X6207782Y-1362218D01*
X6052217Y-1362218D01*
X6052217Y-1517782D01*
X6207782Y-1517782D01*
D10*
X6240000Y-1460000D02*
X6240000Y-1420000D01*
X6240000Y-1420000D02*
G75*
G03*
X6020000Y-1420000I-110000J0D01*
G01*
X6020000Y-1420000D02*
X6020000Y-1460000D01*
X6020000Y-1460000D02*
G75*
G03*
X6240000Y-1460000I110000J0D01*
G01*
D15*
X6240000Y-290000D02*
X6560000Y-610000D01*
X6560000Y-290000D02*
X6240000Y-610000D01*
X6400000Y-610000D02*
X6560000Y-450000D01*
X6400000Y-290000D01*
X6240000Y-450000D01*
X6400000Y-610000D01*
D11*
X255777Y-3866484D02*
X255777Y-3666484D01*
X255777Y-3666484D02*
X303396Y-3666484D01*
X303396Y-3666484D02*
X331967Y-3676008D01*
X331967Y-3676008D02*
X351015Y-3695055D01*
X351015Y-3695055D02*
X360539Y-3714103D01*
X360539Y-3714103D02*
X370062Y-3752198D01*
X370062Y-3752198D02*
X370062Y-3780769D01*
X370062Y-3780769D02*
X360539Y-3818865D01*
X360539Y-3818865D02*
X351015Y-3837912D01*
X351015Y-3837912D02*
X331967Y-3856960D01*
X331967Y-3856960D02*
X303396Y-3866484D01*
X303396Y-3866484D02*
X255777Y-3866484D01*
X455777Y-3866484D02*
X455777Y-3733150D01*
X455777Y-3771246D02*
X465301Y-3752198D01*
X465301Y-3752198D02*
X474824Y-3742674D01*
X474824Y-3742674D02*
X493872Y-3733150D01*
X493872Y-3733150D02*
X512920Y-3733150D01*
X579586Y-3866484D02*
X579586Y-3733150D01*
X579586Y-3666484D02*
X570063Y-3676008D01*
X570063Y-3676008D02*
X579586Y-3685531D01*
X579586Y-3685531D02*
X589110Y-3676008D01*
X589110Y-3676008D02*
X579586Y-3666484D01*
X579586Y-3666484D02*
X579586Y-3685531D01*
X703396Y-3866484D02*
X684348Y-3856960D01*
X684348Y-3856960D02*
X674824Y-3837912D01*
X674824Y-3837912D02*
X674824Y-3666484D01*
X808158Y-3866484D02*
X789110Y-3856960D01*
X789110Y-3856960D02*
X779586Y-3837912D01*
X779586Y-3837912D02*
X779586Y-3666484D01*
X1036729Y-3866484D02*
X1036729Y-3666484D01*
X1036729Y-3666484D02*
X1103396Y-3809341D01*
X1103396Y-3809341D02*
X1170063Y-3666484D01*
X1170063Y-3666484D02*
X1170063Y-3866484D01*
X1351015Y-3866484D02*
X1351015Y-3761722D01*
X1351015Y-3761722D02*
X1341491Y-3742674D01*
X1341491Y-3742674D02*
X1322444Y-3733150D01*
X1322444Y-3733150D02*
X1284348Y-3733150D01*
X1284348Y-3733150D02*
X1265301Y-3742674D01*
X1351015Y-3856960D02*
X1331967Y-3866484D01*
X1331967Y-3866484D02*
X1284348Y-3866484D01*
X1284348Y-3866484D02*
X1265301Y-3856960D01*
X1265301Y-3856960D02*
X1255777Y-3837912D01*
X1255777Y-3837912D02*
X1255777Y-3818865D01*
X1255777Y-3818865D02*
X1265301Y-3799817D01*
X1265301Y-3799817D02*
X1284348Y-3790293D01*
X1284348Y-3790293D02*
X1331967Y-3790293D01*
X1331967Y-3790293D02*
X1351015Y-3780769D01*
X1446253Y-3733150D02*
X1446253Y-3933150D01*
X1446253Y-3742674D02*
X1465301Y-3733150D01*
X1465301Y-3733150D02*
X1503396Y-3733150D01*
X1503396Y-3733150D02*
X1522443Y-3742674D01*
X1522443Y-3742674D02*
X1531967Y-3752198D01*
X1531967Y-3752198D02*
X1541491Y-3771246D01*
X1541491Y-3771246D02*
X1541491Y-3828388D01*
X1541491Y-3828388D02*
X1531967Y-3847436D01*
X1531967Y-3847436D02*
X1522443Y-3856960D01*
X1522443Y-3856960D02*
X1503396Y-3866484D01*
X1503396Y-3866484D02*
X1465301Y-3866484D01*
X1465301Y-3866484D02*
X1446253Y-3856960D01*
X1627205Y-3847436D02*
X1636729Y-3856960D01*
X1636729Y-3856960D02*
X1627205Y-3866484D01*
X1627205Y-3866484D02*
X1617682Y-3856960D01*
X1617682Y-3856960D02*
X1627205Y-3847436D01*
X1627205Y-3847436D02*
X1627205Y-3866484D01*
X1627205Y-3742674D02*
X1636729Y-3752198D01*
X1636729Y-3752198D02*
X1627205Y-3761722D01*
X1627205Y-3761722D02*
X1617682Y-3752198D01*
X1617682Y-3752198D02*
X1627205Y-3742674D01*
X1627205Y-3742674D02*
X1627205Y-3761722D01*
D10*
X-35000Y-4180000D02*
X-5000Y-4210000D01*
X-5000Y-4180000D02*
X-35000Y-4210000D01*
D11*
X293872Y-4086484D02*
X312920Y-4086484D01*
X312920Y-4086484D02*
X331967Y-4096008D01*
X331967Y-4096008D02*
X341491Y-4105531D01*
X341491Y-4105531D02*
X351015Y-4124579D01*
X351015Y-4124579D02*
X360539Y-4162674D01*
X360539Y-4162674D02*
X360539Y-4210293D01*
X360539Y-4210293D02*
X351015Y-4248389D01*
X351015Y-4248389D02*
X341491Y-4267436D01*
X341491Y-4267436D02*
X331967Y-4276960D01*
X331967Y-4276960D02*
X312920Y-4286484D01*
X312920Y-4286484D02*
X293872Y-4286484D01*
X293872Y-4286484D02*
X274824Y-4276960D01*
X274824Y-4276960D02*
X265301Y-4267436D01*
X265301Y-4267436D02*
X255777Y-4248389D01*
X255777Y-4248389D02*
X246253Y-4210293D01*
X246253Y-4210293D02*
X246253Y-4162674D01*
X246253Y-4162674D02*
X255777Y-4124579D01*
X255777Y-4124579D02*
X265301Y-4105531D01*
X265301Y-4105531D02*
X274824Y-4096008D01*
X274824Y-4096008D02*
X293872Y-4086484D01*
X446253Y-4267436D02*
X455777Y-4276960D01*
X455777Y-4276960D02*
X446253Y-4286484D01*
X446253Y-4286484D02*
X436729Y-4276960D01*
X436729Y-4276960D02*
X446253Y-4267436D01*
X446253Y-4267436D02*
X446253Y-4286484D01*
X522443Y-4086484D02*
X646253Y-4086484D01*
X646253Y-4086484D02*
X579586Y-4162674D01*
X579586Y-4162674D02*
X608158Y-4162674D01*
X608158Y-4162674D02*
X627205Y-4172198D01*
X627205Y-4172198D02*
X636729Y-4181722D01*
X636729Y-4181722D02*
X646253Y-4200770D01*
X646253Y-4200770D02*
X646253Y-4248389D01*
X646253Y-4248389D02*
X636729Y-4267436D01*
X636729Y-4267436D02*
X627205Y-4276960D01*
X627205Y-4276960D02*
X608158Y-4286484D01*
X608158Y-4286484D02*
X551015Y-4286484D01*
X551015Y-4286484D02*
X531967Y-4276960D01*
X531967Y-4276960D02*
X522443Y-4267436D01*
X770062Y-4086484D02*
X789110Y-4086484D01*
X789110Y-4086484D02*
X808158Y-4096008D01*
X808158Y-4096008D02*
X817682Y-4105531D01*
X817682Y-4105531D02*
X827205Y-4124579D01*
X827205Y-4124579D02*
X836729Y-4162674D01*
X836729Y-4162674D02*
X836729Y-4210293D01*
X836729Y-4210293D02*
X827205Y-4248389D01*
X827205Y-4248389D02*
X817682Y-4267436D01*
X817682Y-4267436D02*
X808158Y-4276960D01*
X808158Y-4276960D02*
X789110Y-4286484D01*
X789110Y-4286484D02*
X770062Y-4286484D01*
X770062Y-4286484D02*
X751015Y-4276960D01*
X751015Y-4276960D02*
X741491Y-4267436D01*
X741491Y-4267436D02*
X731967Y-4248389D01*
X731967Y-4248389D02*
X722443Y-4210293D01*
X722443Y-4210293D02*
X722443Y-4162674D01*
X722443Y-4162674D02*
X731967Y-4124579D01*
X731967Y-4124579D02*
X741491Y-4105531D01*
X741491Y-4105531D02*
X751015Y-4096008D01*
X751015Y-4096008D02*
X770062Y-4086484D01*
X960539Y-4086484D02*
X979586Y-4086484D01*
X979586Y-4086484D02*
X998634Y-4096008D01*
X998634Y-4096008D02*
X1008158Y-4105531D01*
X1008158Y-4105531D02*
X1017682Y-4124579D01*
X1017682Y-4124579D02*
X1027205Y-4162674D01*
X1027205Y-4162674D02*
X1027205Y-4210293D01*
X1027205Y-4210293D02*
X1017682Y-4248389D01*
X1017682Y-4248389D02*
X1008158Y-4267436D01*
X1008158Y-4267436D02*
X998634Y-4276960D01*
X998634Y-4276960D02*
X979586Y-4286484D01*
X979586Y-4286484D02*
X960539Y-4286484D01*
X960539Y-4286484D02*
X941491Y-4276960D01*
X941491Y-4276960D02*
X931967Y-4267436D01*
X931967Y-4267436D02*
X922443Y-4248389D01*
X922443Y-4248389D02*
X912920Y-4210293D01*
X912920Y-4210293D02*
X912920Y-4162674D01*
X912920Y-4162674D02*
X922443Y-4124579D01*
X922443Y-4124579D02*
X931967Y-4105531D01*
X931967Y-4105531D02*
X941491Y-4096008D01*
X941491Y-4096008D02*
X960539Y-4086484D01*
X1112920Y-4286484D02*
X1112920Y-4153150D01*
X1112920Y-4172198D02*
X1122444Y-4162674D01*
X1122444Y-4162674D02*
X1141491Y-4153150D01*
X1141491Y-4153150D02*
X1170063Y-4153150D01*
X1170063Y-4153150D02*
X1189110Y-4162674D01*
X1189110Y-4162674D02*
X1198634Y-4181722D01*
X1198634Y-4181722D02*
X1198634Y-4286484D01*
X1198634Y-4181722D02*
X1208158Y-4162674D01*
X1208158Y-4162674D02*
X1227205Y-4153150D01*
X1227205Y-4153150D02*
X1255777Y-4153150D01*
X1255777Y-4153150D02*
X1274825Y-4162674D01*
X1274825Y-4162674D02*
X1284348Y-4181722D01*
X1284348Y-4181722D02*
X1284348Y-4286484D01*
X1379586Y-4286484D02*
X1379586Y-4153150D01*
X1379586Y-4172198D02*
X1389110Y-4162674D01*
X1389110Y-4162674D02*
X1408158Y-4153150D01*
X1408158Y-4153150D02*
X1436729Y-4153150D01*
X1436729Y-4153150D02*
X1455777Y-4162674D01*
X1455777Y-4162674D02*
X1465301Y-4181722D01*
X1465301Y-4181722D02*
X1465301Y-4286484D01*
X1465301Y-4181722D02*
X1474824Y-4162674D01*
X1474824Y-4162674D02*
X1493872Y-4153150D01*
X1493872Y-4153150D02*
X1522443Y-4153150D01*
X1522443Y-4153150D02*
X1541491Y-4162674D01*
X1541491Y-4162674D02*
X1551015Y-4181722D01*
X1551015Y-4181722D02*
X1551015Y-4286484D01*
X1941491Y-4076960D02*
X1770063Y-4334103D01*
X2198634Y-4086484D02*
X2217682Y-4086484D01*
X2217682Y-4086484D02*
X2236729Y-4096008D01*
X2236729Y-4096008D02*
X2246253Y-4105531D01*
X2246253Y-4105531D02*
X2255777Y-4124579D01*
X2255777Y-4124579D02*
X2265301Y-4162674D01*
X2265301Y-4162674D02*
X2265301Y-4210293D01*
X2265301Y-4210293D02*
X2255777Y-4248389D01*
X2255777Y-4248389D02*
X2246253Y-4267436D01*
X2246253Y-4267436D02*
X2236729Y-4276960D01*
X2236729Y-4276960D02*
X2217682Y-4286484D01*
X2217682Y-4286484D02*
X2198634Y-4286484D01*
X2198634Y-4286484D02*
X2179587Y-4276960D01*
X2179587Y-4276960D02*
X2170063Y-4267436D01*
X2170063Y-4267436D02*
X2160539Y-4248389D01*
X2160539Y-4248389D02*
X2151015Y-4210293D01*
X2151015Y-4210293D02*
X2151015Y-4162674D01*
X2151015Y-4162674D02*
X2160539Y-4124579D01*
X2160539Y-4124579D02*
X2170063Y-4105531D01*
X2170063Y-4105531D02*
X2179587Y-4096008D01*
X2179587Y-4096008D02*
X2198634Y-4086484D01*
X2351015Y-4267436D02*
X2360539Y-4276960D01*
X2360539Y-4276960D02*
X2351015Y-4286484D01*
X2351015Y-4286484D02*
X2341491Y-4276960D01*
X2341491Y-4276960D02*
X2351015Y-4267436D01*
X2351015Y-4267436D02*
X2351015Y-4286484D01*
X2484348Y-4086484D02*
X2503396Y-4086484D01*
X2503396Y-4086484D02*
X2522444Y-4096008D01*
X2522444Y-4096008D02*
X2531968Y-4105531D01*
X2531968Y-4105531D02*
X2541491Y-4124579D01*
X2541491Y-4124579D02*
X2551015Y-4162674D01*
X2551015Y-4162674D02*
X2551015Y-4210293D01*
X2551015Y-4210293D02*
X2541491Y-4248389D01*
X2541491Y-4248389D02*
X2531968Y-4267436D01*
X2531968Y-4267436D02*
X2522444Y-4276960D01*
X2522444Y-4276960D02*
X2503396Y-4286484D01*
X2503396Y-4286484D02*
X2484348Y-4286484D01*
X2484348Y-4286484D02*
X2465301Y-4276960D01*
X2465301Y-4276960D02*
X2455777Y-4267436D01*
X2455777Y-4267436D02*
X2446253Y-4248389D01*
X2446253Y-4248389D02*
X2436729Y-4210293D01*
X2436729Y-4210293D02*
X2436729Y-4162674D01*
X2436729Y-4162674D02*
X2446253Y-4124579D01*
X2446253Y-4124579D02*
X2455777Y-4105531D01*
X2455777Y-4105531D02*
X2465301Y-4096008D01*
X2465301Y-4096008D02*
X2484348Y-4086484D01*
X2741491Y-4286484D02*
X2627206Y-4286484D01*
X2684348Y-4286484D02*
X2684348Y-4086484D01*
X2684348Y-4086484D02*
X2665301Y-4115055D01*
X2665301Y-4115055D02*
X2646253Y-4134103D01*
X2646253Y-4134103D02*
X2627206Y-4143627D01*
X2931967Y-4286484D02*
X2817682Y-4286484D01*
X2874825Y-4286484D02*
X2874825Y-4086484D01*
X2874825Y-4086484D02*
X2855777Y-4115055D01*
X2855777Y-4115055D02*
X2836729Y-4134103D01*
X2836729Y-4134103D02*
X2817682Y-4143627D01*
X3046253Y-4172198D02*
X3027206Y-4162674D01*
X3027206Y-4162674D02*
X3017682Y-4153150D01*
X3017682Y-4153150D02*
X3008158Y-4134103D01*
X3008158Y-4134103D02*
X3008158Y-4124579D01*
X3008158Y-4124579D02*
X3017682Y-4105531D01*
X3017682Y-4105531D02*
X3027206Y-4096008D01*
X3027206Y-4096008D02*
X3046253Y-4086484D01*
X3046253Y-4086484D02*
X3084348Y-4086484D01*
X3084348Y-4086484D02*
X3103396Y-4096008D01*
X3103396Y-4096008D02*
X3112920Y-4105531D01*
X3112920Y-4105531D02*
X3122444Y-4124579D01*
X3122444Y-4124579D02*
X3122444Y-4134103D01*
X3122444Y-4134103D02*
X3112920Y-4153150D01*
X3112920Y-4153150D02*
X3103396Y-4162674D01*
X3103396Y-4162674D02*
X3084348Y-4172198D01*
X3084348Y-4172198D02*
X3046253Y-4172198D01*
X3046253Y-4172198D02*
X3027206Y-4181722D01*
X3027206Y-4181722D02*
X3017682Y-4191246D01*
X3017682Y-4191246D02*
X3008158Y-4210293D01*
X3008158Y-4210293D02*
X3008158Y-4248389D01*
X3008158Y-4248389D02*
X3017682Y-4267436D01*
X3017682Y-4267436D02*
X3027206Y-4276960D01*
X3027206Y-4276960D02*
X3046253Y-4286484D01*
X3046253Y-4286484D02*
X3084348Y-4286484D01*
X3084348Y-4286484D02*
X3103396Y-4276960D01*
X3103396Y-4276960D02*
X3112920Y-4267436D01*
X3112920Y-4267436D02*
X3122444Y-4248389D01*
X3122444Y-4248389D02*
X3122444Y-4210293D01*
X3122444Y-4210293D02*
X3112920Y-4191246D01*
X3112920Y-4191246D02*
X3103396Y-4181722D01*
X3103396Y-4181722D02*
X3084348Y-4172198D01*
X3198634Y-4086484D02*
X3198634Y-4124579D01*
X3274825Y-4086484D02*
X3274825Y-4124579D01*
X3570063Y-4362674D02*
X3560539Y-4353150D01*
X3560539Y-4353150D02*
X3541491Y-4324579D01*
X3541491Y-4324579D02*
X3531968Y-4305531D01*
X3531968Y-4305531D02*
X3522444Y-4276960D01*
X3522444Y-4276960D02*
X3512920Y-4229341D01*
X3512920Y-4229341D02*
X3512920Y-4191246D01*
X3512920Y-4191246D02*
X3522444Y-4143627D01*
X3522444Y-4143627D02*
X3531968Y-4115055D01*
X3531968Y-4115055D02*
X3541491Y-4096008D01*
X3541491Y-4096008D02*
X3560539Y-4067436D01*
X3560539Y-4067436D02*
X3570063Y-4057912D01*
X3731968Y-4153150D02*
X3731968Y-4286484D01*
X3684348Y-4076960D02*
X3636729Y-4219817D01*
X3636729Y-4219817D02*
X3760539Y-4219817D01*
X3865301Y-4172198D02*
X3846253Y-4162674D01*
X3846253Y-4162674D02*
X3836729Y-4153150D01*
X3836729Y-4153150D02*
X3827206Y-4134103D01*
X3827206Y-4134103D02*
X3827206Y-4124579D01*
X3827206Y-4124579D02*
X3836729Y-4105531D01*
X3836729Y-4105531D02*
X3846253Y-4096008D01*
X3846253Y-4096008D02*
X3865301Y-4086484D01*
X3865301Y-4086484D02*
X3903396Y-4086484D01*
X3903396Y-4086484D02*
X3922444Y-4096008D01*
X3922444Y-4096008D02*
X3931968Y-4105531D01*
X3931968Y-4105531D02*
X3941491Y-4124579D01*
X3941491Y-4124579D02*
X3941491Y-4134103D01*
X3941491Y-4134103D02*
X3931968Y-4153150D01*
X3931968Y-4153150D02*
X3922444Y-4162674D01*
X3922444Y-4162674D02*
X3903396Y-4172198D01*
X3903396Y-4172198D02*
X3865301Y-4172198D01*
X3865301Y-4172198D02*
X3846253Y-4181722D01*
X3846253Y-4181722D02*
X3836729Y-4191246D01*
X3836729Y-4191246D02*
X3827206Y-4210293D01*
X3827206Y-4210293D02*
X3827206Y-4248389D01*
X3827206Y-4248389D02*
X3836729Y-4267436D01*
X3836729Y-4267436D02*
X3846253Y-4276960D01*
X3846253Y-4276960D02*
X3865301Y-4286484D01*
X3865301Y-4286484D02*
X3903396Y-4286484D01*
X3903396Y-4286484D02*
X3922444Y-4276960D01*
X3922444Y-4276960D02*
X3931968Y-4267436D01*
X3931968Y-4267436D02*
X3941491Y-4248389D01*
X3941491Y-4248389D02*
X3941491Y-4210293D01*
X3941491Y-4210293D02*
X3931968Y-4191246D01*
X3931968Y-4191246D02*
X3922444Y-4181722D01*
X3922444Y-4181722D02*
X3903396Y-4172198D01*
X4179587Y-4286484D02*
X4179587Y-4086484D01*
X4265301Y-4286484D02*
X4265301Y-4181722D01*
X4265301Y-4181722D02*
X4255777Y-4162674D01*
X4255777Y-4162674D02*
X4236730Y-4153150D01*
X4236730Y-4153150D02*
X4208158Y-4153150D01*
X4208158Y-4153150D02*
X4189110Y-4162674D01*
X4189110Y-4162674D02*
X4179587Y-4172198D01*
X4389111Y-4286484D02*
X4370063Y-4276960D01*
X4370063Y-4276960D02*
X4360539Y-4267436D01*
X4360539Y-4267436D02*
X4351015Y-4248389D01*
X4351015Y-4248389D02*
X4351015Y-4191246D01*
X4351015Y-4191246D02*
X4360539Y-4172198D01*
X4360539Y-4172198D02*
X4370063Y-4162674D01*
X4370063Y-4162674D02*
X4389111Y-4153150D01*
X4389111Y-4153150D02*
X4417682Y-4153150D01*
X4417682Y-4153150D02*
X4436730Y-4162674D01*
X4436730Y-4162674D02*
X4446253Y-4172198D01*
X4446253Y-4172198D02*
X4455777Y-4191246D01*
X4455777Y-4191246D02*
X4455777Y-4248389D01*
X4455777Y-4248389D02*
X4446253Y-4267436D01*
X4446253Y-4267436D02*
X4436730Y-4276960D01*
X4436730Y-4276960D02*
X4417682Y-4286484D01*
X4417682Y-4286484D02*
X4389111Y-4286484D01*
X4570063Y-4286484D02*
X4551015Y-4276960D01*
X4551015Y-4276960D02*
X4541492Y-4257912D01*
X4541492Y-4257912D02*
X4541492Y-4086484D01*
X4722444Y-4276960D02*
X4703396Y-4286484D01*
X4703396Y-4286484D02*
X4665301Y-4286484D01*
X4665301Y-4286484D02*
X4646253Y-4276960D01*
X4646253Y-4276960D02*
X4636730Y-4257912D01*
X4636730Y-4257912D02*
X4636730Y-4181722D01*
X4636730Y-4181722D02*
X4646253Y-4162674D01*
X4646253Y-4162674D02*
X4665301Y-4153150D01*
X4665301Y-4153150D02*
X4703396Y-4153150D01*
X4703396Y-4153150D02*
X4722444Y-4162674D01*
X4722444Y-4162674D02*
X4731968Y-4181722D01*
X4731968Y-4181722D02*
X4731968Y-4200770D01*
X4731968Y-4200770D02*
X4636730Y-4219817D01*
X4808158Y-4276960D02*
X4827206Y-4286484D01*
X4827206Y-4286484D02*
X4865301Y-4286484D01*
X4865301Y-4286484D02*
X4884349Y-4276960D01*
X4884349Y-4276960D02*
X4893873Y-4257912D01*
X4893873Y-4257912D02*
X4893873Y-4248389D01*
X4893873Y-4248389D02*
X4884349Y-4229341D01*
X4884349Y-4229341D02*
X4865301Y-4219817D01*
X4865301Y-4219817D02*
X4836730Y-4219817D01*
X4836730Y-4219817D02*
X4817682Y-4210293D01*
X4817682Y-4210293D02*
X4808158Y-4191246D01*
X4808158Y-4191246D02*
X4808158Y-4181722D01*
X4808158Y-4181722D02*
X4817682Y-4162674D01*
X4817682Y-4162674D02*
X4836730Y-4153150D01*
X4836730Y-4153150D02*
X4865301Y-4153150D01*
X4865301Y-4153150D02*
X4884349Y-4162674D01*
X4960539Y-4362674D02*
X4970063Y-4353150D01*
X4970063Y-4353150D02*
X4989111Y-4324579D01*
X4989111Y-4324579D02*
X4998634Y-4305531D01*
X4998634Y-4305531D02*
X5008158Y-4276960D01*
X5008158Y-4276960D02*
X5017682Y-4229341D01*
X5017682Y-4229341D02*
X5017682Y-4191246D01*
X5017682Y-4191246D02*
X5008158Y-4143627D01*
X5008158Y-4143627D02*
X4998634Y-4115055D01*
X4998634Y-4115055D02*
X4989111Y-4096008D01*
X4989111Y-4096008D02*
X4970063Y-4067436D01*
X4970063Y-4067436D02*
X4960539Y-4057912D01*
D10*
X-5000Y-4459000D02*
G75*
G03*
X-5000Y-4459000I-20000J0D01*
G01*
D11*
X293872Y-4350484D02*
X312920Y-4350484D01*
X312920Y-4350484D02*
X331967Y-4360008D01*
X331967Y-4360008D02*
X341491Y-4369531D01*
X341491Y-4369531D02*
X351015Y-4388579D01*
X351015Y-4388579D02*
X360539Y-4426674D01*
X360539Y-4426674D02*
X360539Y-4474293D01*
X360539Y-4474293D02*
X351015Y-4512389D01*
X351015Y-4512389D02*
X341491Y-4531436D01*
X341491Y-4531436D02*
X331967Y-4540960D01*
X331967Y-4540960D02*
X312920Y-4550484D01*
X312920Y-4550484D02*
X293872Y-4550484D01*
X293872Y-4550484D02*
X274824Y-4540960D01*
X274824Y-4540960D02*
X265301Y-4531436D01*
X265301Y-4531436D02*
X255777Y-4512389D01*
X255777Y-4512389D02*
X246253Y-4474293D01*
X246253Y-4474293D02*
X246253Y-4426674D01*
X246253Y-4426674D02*
X255777Y-4388579D01*
X255777Y-4388579D02*
X265301Y-4369531D01*
X265301Y-4369531D02*
X274824Y-4360008D01*
X274824Y-4360008D02*
X293872Y-4350484D01*
X446253Y-4531436D02*
X455777Y-4540960D01*
X455777Y-4540960D02*
X446253Y-4550484D01*
X446253Y-4550484D02*
X436729Y-4540960D01*
X436729Y-4540960D02*
X446253Y-4531436D01*
X446253Y-4531436D02*
X446253Y-4550484D01*
X627205Y-4417150D02*
X627205Y-4550484D01*
X579586Y-4340960D02*
X531967Y-4483817D01*
X531967Y-4483817D02*
X655777Y-4483817D01*
X770062Y-4350484D02*
X789110Y-4350484D01*
X789110Y-4350484D02*
X808158Y-4360008D01*
X808158Y-4360008D02*
X817682Y-4369531D01*
X817682Y-4369531D02*
X827205Y-4388579D01*
X827205Y-4388579D02*
X836729Y-4426674D01*
X836729Y-4426674D02*
X836729Y-4474293D01*
X836729Y-4474293D02*
X827205Y-4512389D01*
X827205Y-4512389D02*
X817682Y-4531436D01*
X817682Y-4531436D02*
X808158Y-4540960D01*
X808158Y-4540960D02*
X789110Y-4550484D01*
X789110Y-4550484D02*
X770062Y-4550484D01*
X770062Y-4550484D02*
X751015Y-4540960D01*
X751015Y-4540960D02*
X741491Y-4531436D01*
X741491Y-4531436D02*
X731967Y-4512389D01*
X731967Y-4512389D02*
X722443Y-4474293D01*
X722443Y-4474293D02*
X722443Y-4426674D01*
X722443Y-4426674D02*
X731967Y-4388579D01*
X731967Y-4388579D02*
X741491Y-4369531D01*
X741491Y-4369531D02*
X751015Y-4360008D01*
X751015Y-4360008D02*
X770062Y-4350484D01*
X960539Y-4350484D02*
X979586Y-4350484D01*
X979586Y-4350484D02*
X998634Y-4360008D01*
X998634Y-4360008D02*
X1008158Y-4369531D01*
X1008158Y-4369531D02*
X1017682Y-4388579D01*
X1017682Y-4388579D02*
X1027205Y-4426674D01*
X1027205Y-4426674D02*
X1027205Y-4474293D01*
X1027205Y-4474293D02*
X1017682Y-4512389D01*
X1017682Y-4512389D02*
X1008158Y-4531436D01*
X1008158Y-4531436D02*
X998634Y-4540960D01*
X998634Y-4540960D02*
X979586Y-4550484D01*
X979586Y-4550484D02*
X960539Y-4550484D01*
X960539Y-4550484D02*
X941491Y-4540960D01*
X941491Y-4540960D02*
X931967Y-4531436D01*
X931967Y-4531436D02*
X922443Y-4512389D01*
X922443Y-4512389D02*
X912920Y-4474293D01*
X912920Y-4474293D02*
X912920Y-4426674D01*
X912920Y-4426674D02*
X922443Y-4388579D01*
X922443Y-4388579D02*
X931967Y-4369531D01*
X931967Y-4369531D02*
X941491Y-4360008D01*
X941491Y-4360008D02*
X960539Y-4350484D01*
X1112920Y-4550484D02*
X1112920Y-4417150D01*
X1112920Y-4436198D02*
X1122444Y-4426674D01*
X1122444Y-4426674D02*
X1141491Y-4417150D01*
X1141491Y-4417150D02*
X1170063Y-4417150D01*
X1170063Y-4417150D02*
X1189110Y-4426674D01*
X1189110Y-4426674D02*
X1198634Y-4445722D01*
X1198634Y-4445722D02*
X1198634Y-4550484D01*
X1198634Y-4445722D02*
X1208158Y-4426674D01*
X1208158Y-4426674D02*
X1227205Y-4417150D01*
X1227205Y-4417150D02*
X1255777Y-4417150D01*
X1255777Y-4417150D02*
X1274825Y-4426674D01*
X1274825Y-4426674D02*
X1284348Y-4445722D01*
X1284348Y-4445722D02*
X1284348Y-4550484D01*
X1379586Y-4550484D02*
X1379586Y-4417150D01*
X1379586Y-4436198D02*
X1389110Y-4426674D01*
X1389110Y-4426674D02*
X1408158Y-4417150D01*
X1408158Y-4417150D02*
X1436729Y-4417150D01*
X1436729Y-4417150D02*
X1455777Y-4426674D01*
X1455777Y-4426674D02*
X1465301Y-4445722D01*
X1465301Y-4445722D02*
X1465301Y-4550484D01*
X1465301Y-4445722D02*
X1474824Y-4426674D01*
X1474824Y-4426674D02*
X1493872Y-4417150D01*
X1493872Y-4417150D02*
X1522443Y-4417150D01*
X1522443Y-4417150D02*
X1541491Y-4426674D01*
X1541491Y-4426674D02*
X1551015Y-4445722D01*
X1551015Y-4445722D02*
X1551015Y-4550484D01*
X1941491Y-4340960D02*
X1770063Y-4598103D01*
X2198634Y-4350484D02*
X2217682Y-4350484D01*
X2217682Y-4350484D02*
X2236729Y-4360008D01*
X2236729Y-4360008D02*
X2246253Y-4369531D01*
X2246253Y-4369531D02*
X2255777Y-4388579D01*
X2255777Y-4388579D02*
X2265301Y-4426674D01*
X2265301Y-4426674D02*
X2265301Y-4474293D01*
X2265301Y-4474293D02*
X2255777Y-4512389D01*
X2255777Y-4512389D02*
X2246253Y-4531436D01*
X2246253Y-4531436D02*
X2236729Y-4540960D01*
X2236729Y-4540960D02*
X2217682Y-4550484D01*
X2217682Y-4550484D02*
X2198634Y-4550484D01*
X2198634Y-4550484D02*
X2179587Y-4540960D01*
X2179587Y-4540960D02*
X2170063Y-4531436D01*
X2170063Y-4531436D02*
X2160539Y-4512389D01*
X2160539Y-4512389D02*
X2151015Y-4474293D01*
X2151015Y-4474293D02*
X2151015Y-4426674D01*
X2151015Y-4426674D02*
X2160539Y-4388579D01*
X2160539Y-4388579D02*
X2170063Y-4369531D01*
X2170063Y-4369531D02*
X2179587Y-4360008D01*
X2179587Y-4360008D02*
X2198634Y-4350484D01*
X2351015Y-4531436D02*
X2360539Y-4540960D01*
X2360539Y-4540960D02*
X2351015Y-4550484D01*
X2351015Y-4550484D02*
X2341491Y-4540960D01*
X2341491Y-4540960D02*
X2351015Y-4531436D01*
X2351015Y-4531436D02*
X2351015Y-4550484D01*
X2484348Y-4350484D02*
X2503396Y-4350484D01*
X2503396Y-4350484D02*
X2522444Y-4360008D01*
X2522444Y-4360008D02*
X2531968Y-4369531D01*
X2531968Y-4369531D02*
X2541491Y-4388579D01*
X2541491Y-4388579D02*
X2551015Y-4426674D01*
X2551015Y-4426674D02*
X2551015Y-4474293D01*
X2551015Y-4474293D02*
X2541491Y-4512389D01*
X2541491Y-4512389D02*
X2531968Y-4531436D01*
X2531968Y-4531436D02*
X2522444Y-4540960D01*
X2522444Y-4540960D02*
X2503396Y-4550484D01*
X2503396Y-4550484D02*
X2484348Y-4550484D01*
X2484348Y-4550484D02*
X2465301Y-4540960D01*
X2465301Y-4540960D02*
X2455777Y-4531436D01*
X2455777Y-4531436D02*
X2446253Y-4512389D01*
X2446253Y-4512389D02*
X2436729Y-4474293D01*
X2436729Y-4474293D02*
X2436729Y-4426674D01*
X2436729Y-4426674D02*
X2446253Y-4388579D01*
X2446253Y-4388579D02*
X2455777Y-4369531D01*
X2455777Y-4369531D02*
X2465301Y-4360008D01*
X2465301Y-4360008D02*
X2484348Y-4350484D01*
X2741491Y-4550484D02*
X2627206Y-4550484D01*
X2684348Y-4550484D02*
X2684348Y-4350484D01*
X2684348Y-4350484D02*
X2665301Y-4379055D01*
X2665301Y-4379055D02*
X2646253Y-4398103D01*
X2646253Y-4398103D02*
X2627206Y-4407627D01*
X2922444Y-4350484D02*
X2827206Y-4350484D01*
X2827206Y-4350484D02*
X2817682Y-4445722D01*
X2817682Y-4445722D02*
X2827206Y-4436198D01*
X2827206Y-4436198D02*
X2846253Y-4426674D01*
X2846253Y-4426674D02*
X2893872Y-4426674D01*
X2893872Y-4426674D02*
X2912920Y-4436198D01*
X2912920Y-4436198D02*
X2922444Y-4445722D01*
X2922444Y-4445722D02*
X2931967Y-4464770D01*
X2931967Y-4464770D02*
X2931967Y-4512389D01*
X2931967Y-4512389D02*
X2922444Y-4531436D01*
X2922444Y-4531436D02*
X2912920Y-4540960D01*
X2912920Y-4540960D02*
X2893872Y-4550484D01*
X2893872Y-4550484D02*
X2846253Y-4550484D01*
X2846253Y-4550484D02*
X2827206Y-4540960D01*
X2827206Y-4540960D02*
X2817682Y-4531436D01*
X2998634Y-4350484D02*
X3131967Y-4350484D01*
X3131967Y-4350484D02*
X3046253Y-4550484D01*
X3198634Y-4350484D02*
X3198634Y-4388579D01*
X3274825Y-4350484D02*
X3274825Y-4388579D01*
X3570063Y-4626674D02*
X3560539Y-4617150D01*
X3560539Y-4617150D02*
X3541491Y-4588579D01*
X3541491Y-4588579D02*
X3531968Y-4569531D01*
X3531968Y-4569531D02*
X3522444Y-4540960D01*
X3522444Y-4540960D02*
X3512920Y-4493341D01*
X3512920Y-4493341D02*
X3512920Y-4455246D01*
X3512920Y-4455246D02*
X3522444Y-4407627D01*
X3522444Y-4407627D02*
X3531968Y-4379055D01*
X3531968Y-4379055D02*
X3541491Y-4360008D01*
X3541491Y-4360008D02*
X3560539Y-4331436D01*
X3560539Y-4331436D02*
X3570063Y-4321912D01*
X3751015Y-4550484D02*
X3636729Y-4550484D01*
X3693872Y-4550484D02*
X3693872Y-4350484D01*
X3693872Y-4350484D02*
X3674825Y-4379055D01*
X3674825Y-4379055D02*
X3655777Y-4398103D01*
X3655777Y-4398103D02*
X3636729Y-4407627D01*
X3931968Y-4350484D02*
X3836729Y-4350484D01*
X3836729Y-4350484D02*
X3827206Y-4445722D01*
X3827206Y-4445722D02*
X3836729Y-4436198D01*
X3836729Y-4436198D02*
X3855777Y-4426674D01*
X3855777Y-4426674D02*
X3903396Y-4426674D01*
X3903396Y-4426674D02*
X3922444Y-4436198D01*
X3922444Y-4436198D02*
X3931968Y-4445722D01*
X3931968Y-4445722D02*
X3941491Y-4464770D01*
X3941491Y-4464770D02*
X3941491Y-4512389D01*
X3941491Y-4512389D02*
X3931968Y-4531436D01*
X3931968Y-4531436D02*
X3922444Y-4540960D01*
X3922444Y-4540960D02*
X3903396Y-4550484D01*
X3903396Y-4550484D02*
X3855777Y-4550484D01*
X3855777Y-4550484D02*
X3836729Y-4540960D01*
X3836729Y-4540960D02*
X3827206Y-4531436D01*
X4112920Y-4350484D02*
X4074825Y-4350484D01*
X4074825Y-4350484D02*
X4055777Y-4360008D01*
X4055777Y-4360008D02*
X4046253Y-4369531D01*
X4046253Y-4369531D02*
X4027206Y-4398103D01*
X4027206Y-4398103D02*
X4017682Y-4436198D01*
X4017682Y-4436198D02*
X4017682Y-4512389D01*
X4017682Y-4512389D02*
X4027206Y-4531436D01*
X4027206Y-4531436D02*
X4036729Y-4540960D01*
X4036729Y-4540960D02*
X4055777Y-4550484D01*
X4055777Y-4550484D02*
X4093872Y-4550484D01*
X4093872Y-4550484D02*
X4112920Y-4540960D01*
X4112920Y-4540960D02*
X4122444Y-4531436D01*
X4122444Y-4531436D02*
X4131968Y-4512389D01*
X4131968Y-4512389D02*
X4131968Y-4464770D01*
X4131968Y-4464770D02*
X4122444Y-4445722D01*
X4122444Y-4445722D02*
X4112920Y-4436198D01*
X4112920Y-4436198D02*
X4093872Y-4426674D01*
X4093872Y-4426674D02*
X4055777Y-4426674D01*
X4055777Y-4426674D02*
X4036729Y-4436198D01*
X4036729Y-4436198D02*
X4027206Y-4445722D01*
X4027206Y-4445722D02*
X4017682Y-4464770D01*
X4370063Y-4550484D02*
X4370063Y-4350484D01*
X4455777Y-4550484D02*
X4455777Y-4445722D01*
X4455777Y-4445722D02*
X4446253Y-4426674D01*
X4446253Y-4426674D02*
X4427206Y-4417150D01*
X4427206Y-4417150D02*
X4398634Y-4417150D01*
X4398634Y-4417150D02*
X4379587Y-4426674D01*
X4379587Y-4426674D02*
X4370063Y-4436198D01*
X4579587Y-4550484D02*
X4560539Y-4540960D01*
X4560539Y-4540960D02*
X4551015Y-4531436D01*
X4551015Y-4531436D02*
X4541492Y-4512389D01*
X4541492Y-4512389D02*
X4541492Y-4455246D01*
X4541492Y-4455246D02*
X4551015Y-4436198D01*
X4551015Y-4436198D02*
X4560539Y-4426674D01*
X4560539Y-4426674D02*
X4579587Y-4417150D01*
X4579587Y-4417150D02*
X4608158Y-4417150D01*
X4608158Y-4417150D02*
X4627206Y-4426674D01*
X4627206Y-4426674D02*
X4636730Y-4436198D01*
X4636730Y-4436198D02*
X4646253Y-4455246D01*
X4646253Y-4455246D02*
X4646253Y-4512389D01*
X4646253Y-4512389D02*
X4636730Y-4531436D01*
X4636730Y-4531436D02*
X4627206Y-4540960D01*
X4627206Y-4540960D02*
X4608158Y-4550484D01*
X4608158Y-4550484D02*
X4579587Y-4550484D01*
X4760539Y-4550484D02*
X4741492Y-4540960D01*
X4741492Y-4540960D02*
X4731968Y-4521912D01*
X4731968Y-4521912D02*
X4731968Y-4350484D01*
X4912920Y-4540960D02*
X4893873Y-4550484D01*
X4893873Y-4550484D02*
X4855777Y-4550484D01*
X4855777Y-4550484D02*
X4836730Y-4540960D01*
X4836730Y-4540960D02*
X4827206Y-4521912D01*
X4827206Y-4521912D02*
X4827206Y-4445722D01*
X4827206Y-4445722D02*
X4836730Y-4426674D01*
X4836730Y-4426674D02*
X4855777Y-4417150D01*
X4855777Y-4417150D02*
X4893873Y-4417150D01*
X4893873Y-4417150D02*
X4912920Y-4426674D01*
X4912920Y-4426674D02*
X4922444Y-4445722D01*
X4922444Y-4445722D02*
X4922444Y-4464770D01*
X4922444Y-4464770D02*
X4827206Y-4483817D01*
X4998634Y-4540960D02*
X5017682Y-4550484D01*
X5017682Y-4550484D02*
X5055777Y-4550484D01*
X5055777Y-4550484D02*
X5074825Y-4540960D01*
X5074825Y-4540960D02*
X5084349Y-4521912D01*
X5084349Y-4521912D02*
X5084349Y-4512389D01*
X5084349Y-4512389D02*
X5074825Y-4493341D01*
X5074825Y-4493341D02*
X5055777Y-4483817D01*
X5055777Y-4483817D02*
X5027206Y-4483817D01*
X5027206Y-4483817D02*
X5008158Y-4474293D01*
X5008158Y-4474293D02*
X4998634Y-4455246D01*
X4998634Y-4455246D02*
X4998634Y-4445722D01*
X4998634Y-4445722D02*
X5008158Y-4426674D01*
X5008158Y-4426674D02*
X5027206Y-4417150D01*
X5027206Y-4417150D02*
X5055777Y-4417150D01*
X5055777Y-4417150D02*
X5074825Y-4426674D01*
X5151015Y-4626674D02*
X5160539Y-4617150D01*
X5160539Y-4617150D02*
X5179587Y-4588579D01*
X5179587Y-4588579D02*
X5189111Y-4569531D01*
X5189111Y-4569531D02*
X5198634Y-4540960D01*
X5198634Y-4540960D02*
X5208158Y-4493341D01*
X5208158Y-4493341D02*
X5208158Y-4455246D01*
X5208158Y-4455246D02*
X5198634Y-4407627D01*
X5198634Y-4407627D02*
X5189111Y-4379055D01*
X5189111Y-4379055D02*
X5179587Y-4360008D01*
X5179587Y-4360008D02*
X5160539Y-4331436D01*
X5160539Y-4331436D02*
X5151015Y-4321912D01*
D10*
X-32500Y-4695500D02*
X-32500Y-4750500D01*
X-60000Y-4723000D02*
X-5000Y-4723000D01*
D11*
X293872Y-4614484D02*
X312920Y-4614484D01*
X312920Y-4614484D02*
X331967Y-4624008D01*
X331967Y-4624008D02*
X341491Y-4633531D01*
X341491Y-4633531D02*
X351015Y-4652579D01*
X351015Y-4652579D02*
X360539Y-4690674D01*
X360539Y-4690674D02*
X360539Y-4738293D01*
X360539Y-4738293D02*
X351015Y-4776389D01*
X351015Y-4776389D02*
X341491Y-4795436D01*
X341491Y-4795436D02*
X331967Y-4804960D01*
X331967Y-4804960D02*
X312920Y-4814484D01*
X312920Y-4814484D02*
X293872Y-4814484D01*
X293872Y-4814484D02*
X274824Y-4804960D01*
X274824Y-4804960D02*
X265301Y-4795436D01*
X265301Y-4795436D02*
X255777Y-4776389D01*
X255777Y-4776389D02*
X246253Y-4738293D01*
X246253Y-4738293D02*
X246253Y-4690674D01*
X246253Y-4690674D02*
X255777Y-4652579D01*
X255777Y-4652579D02*
X265301Y-4633531D01*
X265301Y-4633531D02*
X274824Y-4624008D01*
X274824Y-4624008D02*
X293872Y-4614484D01*
X446253Y-4795436D02*
X455777Y-4804960D01*
X455777Y-4804960D02*
X446253Y-4814484D01*
X446253Y-4814484D02*
X436729Y-4804960D01*
X436729Y-4804960D02*
X446253Y-4795436D01*
X446253Y-4795436D02*
X446253Y-4814484D01*
X636729Y-4614484D02*
X541491Y-4614484D01*
X541491Y-4614484D02*
X531967Y-4709722D01*
X531967Y-4709722D02*
X541491Y-4700198D01*
X541491Y-4700198D02*
X560539Y-4690674D01*
X560539Y-4690674D02*
X608158Y-4690674D01*
X608158Y-4690674D02*
X627205Y-4700198D01*
X627205Y-4700198D02*
X636729Y-4709722D01*
X636729Y-4709722D02*
X646253Y-4728770D01*
X646253Y-4728770D02*
X646253Y-4776389D01*
X646253Y-4776389D02*
X636729Y-4795436D01*
X636729Y-4795436D02*
X627205Y-4804960D01*
X627205Y-4804960D02*
X608158Y-4814484D01*
X608158Y-4814484D02*
X560539Y-4814484D01*
X560539Y-4814484D02*
X541491Y-4804960D01*
X541491Y-4804960D02*
X531967Y-4795436D01*
X827205Y-4614484D02*
X731967Y-4614484D01*
X731967Y-4614484D02*
X722443Y-4709722D01*
X722443Y-4709722D02*
X731967Y-4700198D01*
X731967Y-4700198D02*
X751015Y-4690674D01*
X751015Y-4690674D02*
X798634Y-4690674D01*
X798634Y-4690674D02*
X817682Y-4700198D01*
X817682Y-4700198D02*
X827205Y-4709722D01*
X827205Y-4709722D02*
X836729Y-4728770D01*
X836729Y-4728770D02*
X836729Y-4776389D01*
X836729Y-4776389D02*
X827205Y-4795436D01*
X827205Y-4795436D02*
X817682Y-4804960D01*
X817682Y-4804960D02*
X798634Y-4814484D01*
X798634Y-4814484D02*
X751015Y-4814484D01*
X751015Y-4814484D02*
X731967Y-4804960D01*
X731967Y-4804960D02*
X722443Y-4795436D01*
X960539Y-4614484D02*
X979586Y-4614484D01*
X979586Y-4614484D02*
X998634Y-4624008D01*
X998634Y-4624008D02*
X1008158Y-4633531D01*
X1008158Y-4633531D02*
X1017682Y-4652579D01*
X1017682Y-4652579D02*
X1027205Y-4690674D01*
X1027205Y-4690674D02*
X1027205Y-4738293D01*
X1027205Y-4738293D02*
X1017682Y-4776389D01*
X1017682Y-4776389D02*
X1008158Y-4795436D01*
X1008158Y-4795436D02*
X998634Y-4804960D01*
X998634Y-4804960D02*
X979586Y-4814484D01*
X979586Y-4814484D02*
X960539Y-4814484D01*
X960539Y-4814484D02*
X941491Y-4804960D01*
X941491Y-4804960D02*
X931967Y-4795436D01*
X931967Y-4795436D02*
X922443Y-4776389D01*
X922443Y-4776389D02*
X912920Y-4738293D01*
X912920Y-4738293D02*
X912920Y-4690674D01*
X912920Y-4690674D02*
X922443Y-4652579D01*
X922443Y-4652579D02*
X931967Y-4633531D01*
X931967Y-4633531D02*
X941491Y-4624008D01*
X941491Y-4624008D02*
X960539Y-4614484D01*
X1112920Y-4814484D02*
X1112920Y-4681150D01*
X1112920Y-4700198D02*
X1122444Y-4690674D01*
X1122444Y-4690674D02*
X1141491Y-4681150D01*
X1141491Y-4681150D02*
X1170063Y-4681150D01*
X1170063Y-4681150D02*
X1189110Y-4690674D01*
X1189110Y-4690674D02*
X1198634Y-4709722D01*
X1198634Y-4709722D02*
X1198634Y-4814484D01*
X1198634Y-4709722D02*
X1208158Y-4690674D01*
X1208158Y-4690674D02*
X1227205Y-4681150D01*
X1227205Y-4681150D02*
X1255777Y-4681150D01*
X1255777Y-4681150D02*
X1274825Y-4690674D01*
X1274825Y-4690674D02*
X1284348Y-4709722D01*
X1284348Y-4709722D02*
X1284348Y-4814484D01*
X1379586Y-4814484D02*
X1379586Y-4681150D01*
X1379586Y-4700198D02*
X1389110Y-4690674D01*
X1389110Y-4690674D02*
X1408158Y-4681150D01*
X1408158Y-4681150D02*
X1436729Y-4681150D01*
X1436729Y-4681150D02*
X1455777Y-4690674D01*
X1455777Y-4690674D02*
X1465301Y-4709722D01*
X1465301Y-4709722D02*
X1465301Y-4814484D01*
X1465301Y-4709722D02*
X1474824Y-4690674D01*
X1474824Y-4690674D02*
X1493872Y-4681150D01*
X1493872Y-4681150D02*
X1522443Y-4681150D01*
X1522443Y-4681150D02*
X1541491Y-4690674D01*
X1541491Y-4690674D02*
X1551015Y-4709722D01*
X1551015Y-4709722D02*
X1551015Y-4814484D01*
X1941491Y-4604960D02*
X1770063Y-4862103D01*
X2198634Y-4614484D02*
X2217682Y-4614484D01*
X2217682Y-4614484D02*
X2236729Y-4624008D01*
X2236729Y-4624008D02*
X2246253Y-4633531D01*
X2246253Y-4633531D02*
X2255777Y-4652579D01*
X2255777Y-4652579D02*
X2265301Y-4690674D01*
X2265301Y-4690674D02*
X2265301Y-4738293D01*
X2265301Y-4738293D02*
X2255777Y-4776389D01*
X2255777Y-4776389D02*
X2246253Y-4795436D01*
X2246253Y-4795436D02*
X2236729Y-4804960D01*
X2236729Y-4804960D02*
X2217682Y-4814484D01*
X2217682Y-4814484D02*
X2198634Y-4814484D01*
X2198634Y-4814484D02*
X2179587Y-4804960D01*
X2179587Y-4804960D02*
X2170063Y-4795436D01*
X2170063Y-4795436D02*
X2160539Y-4776389D01*
X2160539Y-4776389D02*
X2151015Y-4738293D01*
X2151015Y-4738293D02*
X2151015Y-4690674D01*
X2151015Y-4690674D02*
X2160539Y-4652579D01*
X2160539Y-4652579D02*
X2170063Y-4633531D01*
X2170063Y-4633531D02*
X2179587Y-4624008D01*
X2179587Y-4624008D02*
X2198634Y-4614484D01*
X2351015Y-4795436D02*
X2360539Y-4804960D01*
X2360539Y-4804960D02*
X2351015Y-4814484D01*
X2351015Y-4814484D02*
X2341491Y-4804960D01*
X2341491Y-4804960D02*
X2351015Y-4795436D01*
X2351015Y-4795436D02*
X2351015Y-4814484D01*
X2484348Y-4614484D02*
X2503396Y-4614484D01*
X2503396Y-4614484D02*
X2522444Y-4624008D01*
X2522444Y-4624008D02*
X2531968Y-4633531D01*
X2531968Y-4633531D02*
X2541491Y-4652579D01*
X2541491Y-4652579D02*
X2551015Y-4690674D01*
X2551015Y-4690674D02*
X2551015Y-4738293D01*
X2551015Y-4738293D02*
X2541491Y-4776389D01*
X2541491Y-4776389D02*
X2531968Y-4795436D01*
X2531968Y-4795436D02*
X2522444Y-4804960D01*
X2522444Y-4804960D02*
X2503396Y-4814484D01*
X2503396Y-4814484D02*
X2484348Y-4814484D01*
X2484348Y-4814484D02*
X2465301Y-4804960D01*
X2465301Y-4804960D02*
X2455777Y-4795436D01*
X2455777Y-4795436D02*
X2446253Y-4776389D01*
X2446253Y-4776389D02*
X2436729Y-4738293D01*
X2436729Y-4738293D02*
X2436729Y-4690674D01*
X2436729Y-4690674D02*
X2446253Y-4652579D01*
X2446253Y-4652579D02*
X2455777Y-4633531D01*
X2455777Y-4633531D02*
X2465301Y-4624008D01*
X2465301Y-4624008D02*
X2484348Y-4614484D01*
X2627206Y-4633531D02*
X2636729Y-4624008D01*
X2636729Y-4624008D02*
X2655777Y-4614484D01*
X2655777Y-4614484D02*
X2703396Y-4614484D01*
X2703396Y-4614484D02*
X2722444Y-4624008D01*
X2722444Y-4624008D02*
X2731968Y-4633531D01*
X2731968Y-4633531D02*
X2741491Y-4652579D01*
X2741491Y-4652579D02*
X2741491Y-4671627D01*
X2741491Y-4671627D02*
X2731968Y-4700198D01*
X2731968Y-4700198D02*
X2617682Y-4814484D01*
X2617682Y-4814484D02*
X2741491Y-4814484D01*
X2931967Y-4814484D02*
X2817682Y-4814484D01*
X2874825Y-4814484D02*
X2874825Y-4614484D01*
X2874825Y-4614484D02*
X2855777Y-4643055D01*
X2855777Y-4643055D02*
X2836729Y-4662103D01*
X2836729Y-4662103D02*
X2817682Y-4671627D01*
X2998634Y-4614484D02*
X3131967Y-4614484D01*
X3131967Y-4614484D02*
X3046253Y-4814484D01*
X3198634Y-4614484D02*
X3198634Y-4652579D01*
X3274825Y-4614484D02*
X3274825Y-4652579D01*
X3570063Y-4890674D02*
X3560539Y-4881150D01*
X3560539Y-4881150D02*
X3541491Y-4852579D01*
X3541491Y-4852579D02*
X3531968Y-4833531D01*
X3531968Y-4833531D02*
X3522444Y-4804960D01*
X3522444Y-4804960D02*
X3512920Y-4757341D01*
X3512920Y-4757341D02*
X3512920Y-4719246D01*
X3512920Y-4719246D02*
X3522444Y-4671627D01*
X3522444Y-4671627D02*
X3531968Y-4643055D01*
X3531968Y-4643055D02*
X3541491Y-4624008D01*
X3541491Y-4624008D02*
X3560539Y-4595436D01*
X3560539Y-4595436D02*
X3570063Y-4585912D01*
X3636729Y-4633531D02*
X3646253Y-4624008D01*
X3646253Y-4624008D02*
X3665301Y-4614484D01*
X3665301Y-4614484D02*
X3712920Y-4614484D01*
X3712920Y-4614484D02*
X3731968Y-4624008D01*
X3731968Y-4624008D02*
X3741491Y-4633531D01*
X3741491Y-4633531D02*
X3751015Y-4652579D01*
X3751015Y-4652579D02*
X3751015Y-4671627D01*
X3751015Y-4671627D02*
X3741491Y-4700198D01*
X3741491Y-4700198D02*
X3627206Y-4814484D01*
X3627206Y-4814484D02*
X3751015Y-4814484D01*
X3989110Y-4814484D02*
X3989110Y-4614484D01*
X4074825Y-4814484D02*
X4074825Y-4709722D01*
X4074825Y-4709722D02*
X4065301Y-4690674D01*
X4065301Y-4690674D02*
X4046253Y-4681150D01*
X4046253Y-4681150D02*
X4017682Y-4681150D01*
X4017682Y-4681150D02*
X3998634Y-4690674D01*
X3998634Y-4690674D02*
X3989110Y-4700198D01*
X4198634Y-4814484D02*
X4179587Y-4804960D01*
X4179587Y-4804960D02*
X4170063Y-4795436D01*
X4170063Y-4795436D02*
X4160539Y-4776389D01*
X4160539Y-4776389D02*
X4160539Y-4719246D01*
X4160539Y-4719246D02*
X4170063Y-4700198D01*
X4170063Y-4700198D02*
X4179587Y-4690674D01*
X4179587Y-4690674D02*
X4198634Y-4681150D01*
X4198634Y-4681150D02*
X4227206Y-4681150D01*
X4227206Y-4681150D02*
X4246253Y-4690674D01*
X4246253Y-4690674D02*
X4255777Y-4700198D01*
X4255777Y-4700198D02*
X4265301Y-4719246D01*
X4265301Y-4719246D02*
X4265301Y-4776389D01*
X4265301Y-4776389D02*
X4255777Y-4795436D01*
X4255777Y-4795436D02*
X4246253Y-4804960D01*
X4246253Y-4804960D02*
X4227206Y-4814484D01*
X4227206Y-4814484D02*
X4198634Y-4814484D01*
X4379587Y-4814484D02*
X4360539Y-4804960D01*
X4360539Y-4804960D02*
X4351015Y-4785912D01*
X4351015Y-4785912D02*
X4351015Y-4614484D01*
X4531968Y-4804960D02*
X4512920Y-4814484D01*
X4512920Y-4814484D02*
X4474825Y-4814484D01*
X4474825Y-4814484D02*
X4455777Y-4804960D01*
X4455777Y-4804960D02*
X4446253Y-4785912D01*
X4446253Y-4785912D02*
X4446253Y-4709722D01*
X4446253Y-4709722D02*
X4455777Y-4690674D01*
X4455777Y-4690674D02*
X4474825Y-4681150D01*
X4474825Y-4681150D02*
X4512920Y-4681150D01*
X4512920Y-4681150D02*
X4531968Y-4690674D01*
X4531968Y-4690674D02*
X4541492Y-4709722D01*
X4541492Y-4709722D02*
X4541492Y-4728770D01*
X4541492Y-4728770D02*
X4446253Y-4747817D01*
X4617682Y-4804960D02*
X4636730Y-4814484D01*
X4636730Y-4814484D02*
X4674825Y-4814484D01*
X4674825Y-4814484D02*
X4693873Y-4804960D01*
X4693873Y-4804960D02*
X4703396Y-4785912D01*
X4703396Y-4785912D02*
X4703396Y-4776389D01*
X4703396Y-4776389D02*
X4693873Y-4757341D01*
X4693873Y-4757341D02*
X4674825Y-4747817D01*
X4674825Y-4747817D02*
X4646253Y-4747817D01*
X4646253Y-4747817D02*
X4627206Y-4738293D01*
X4627206Y-4738293D02*
X4617682Y-4719246D01*
X4617682Y-4719246D02*
X4617682Y-4709722D01*
X4617682Y-4709722D02*
X4627206Y-4690674D01*
X4627206Y-4690674D02*
X4646253Y-4681150D01*
X4646253Y-4681150D02*
X4674825Y-4681150D01*
X4674825Y-4681150D02*
X4693873Y-4690674D01*
X4770063Y-4890674D02*
X4779587Y-4881150D01*
X4779587Y-4881150D02*
X4798634Y-4852579D01*
X4798634Y-4852579D02*
X4808158Y-4833531D01*
X4808158Y-4833531D02*
X4817682Y-4804960D01*
X4817682Y-4804960D02*
X4827206Y-4757341D01*
X4827206Y-4757341D02*
X4827206Y-4719246D01*
X4827206Y-4719246D02*
X4817682Y-4671627D01*
X4817682Y-4671627D02*
X4808158Y-4643055D01*
X4808158Y-4643055D02*
X4798634Y-4624008D01*
X4798634Y-4624008D02*
X4779587Y-4595436D01*
X4779587Y-4595436D02*
X4770063Y-4585912D01*
D10*
X-18180Y-5018820D02*
X-18180Y-4955180D01*
X-81820Y-4955180D01*
X-81820Y-5018820D01*
X-18180Y-5018820D01*
D11*
X293872Y-4878484D02*
X312920Y-4878484D01*
X312920Y-4878484D02*
X331967Y-4888008D01*
X331967Y-4888008D02*
X341491Y-4897531D01*
X341491Y-4897531D02*
X351015Y-4916579D01*
X351015Y-4916579D02*
X360539Y-4954674D01*
X360539Y-4954674D02*
X360539Y-5002293D01*
X360539Y-5002293D02*
X351015Y-5040389D01*
X351015Y-5040389D02*
X341491Y-5059436D01*
X341491Y-5059436D02*
X331967Y-5068960D01*
X331967Y-5068960D02*
X312920Y-5078484D01*
X312920Y-5078484D02*
X293872Y-5078484D01*
X293872Y-5078484D02*
X274824Y-5068960D01*
X274824Y-5068960D02*
X265301Y-5059436D01*
X265301Y-5059436D02*
X255777Y-5040389D01*
X255777Y-5040389D02*
X246253Y-5002293D01*
X246253Y-5002293D02*
X246253Y-4954674D01*
X246253Y-4954674D02*
X255777Y-4916579D01*
X255777Y-4916579D02*
X265301Y-4897531D01*
X265301Y-4897531D02*
X274824Y-4888008D01*
X274824Y-4888008D02*
X293872Y-4878484D01*
X446253Y-5059436D02*
X455777Y-5068960D01*
X455777Y-5068960D02*
X446253Y-5078484D01*
X446253Y-5078484D02*
X436729Y-5068960D01*
X436729Y-5068960D02*
X446253Y-5059436D01*
X446253Y-5059436D02*
X446253Y-5078484D01*
X551015Y-5078484D02*
X589110Y-5078484D01*
X589110Y-5078484D02*
X608158Y-5068960D01*
X608158Y-5068960D02*
X617682Y-5059436D01*
X617682Y-5059436D02*
X636729Y-5030865D01*
X636729Y-5030865D02*
X646253Y-4992770D01*
X646253Y-4992770D02*
X646253Y-4916579D01*
X646253Y-4916579D02*
X636729Y-4897531D01*
X636729Y-4897531D02*
X627205Y-4888008D01*
X627205Y-4888008D02*
X608158Y-4878484D01*
X608158Y-4878484D02*
X570063Y-4878484D01*
X570063Y-4878484D02*
X551015Y-4888008D01*
X551015Y-4888008D02*
X541491Y-4897531D01*
X541491Y-4897531D02*
X531967Y-4916579D01*
X531967Y-4916579D02*
X531967Y-4964198D01*
X531967Y-4964198D02*
X541491Y-4983246D01*
X541491Y-4983246D02*
X551015Y-4992770D01*
X551015Y-4992770D02*
X570063Y-5002293D01*
X570063Y-5002293D02*
X608158Y-5002293D01*
X608158Y-5002293D02*
X627205Y-4992770D01*
X627205Y-4992770D02*
X636729Y-4983246D01*
X636729Y-4983246D02*
X646253Y-4964198D01*
X770062Y-4878484D02*
X789110Y-4878484D01*
X789110Y-4878484D02*
X808158Y-4888008D01*
X808158Y-4888008D02*
X817682Y-4897531D01*
X817682Y-4897531D02*
X827205Y-4916579D01*
X827205Y-4916579D02*
X836729Y-4954674D01*
X836729Y-4954674D02*
X836729Y-5002293D01*
X836729Y-5002293D02*
X827205Y-5040389D01*
X827205Y-5040389D02*
X817682Y-5059436D01*
X817682Y-5059436D02*
X808158Y-5068960D01*
X808158Y-5068960D02*
X789110Y-5078484D01*
X789110Y-5078484D02*
X770062Y-5078484D01*
X770062Y-5078484D02*
X751015Y-5068960D01*
X751015Y-5068960D02*
X741491Y-5059436D01*
X741491Y-5059436D02*
X731967Y-5040389D01*
X731967Y-5040389D02*
X722443Y-5002293D01*
X722443Y-5002293D02*
X722443Y-4954674D01*
X722443Y-4954674D02*
X731967Y-4916579D01*
X731967Y-4916579D02*
X741491Y-4897531D01*
X741491Y-4897531D02*
X751015Y-4888008D01*
X751015Y-4888008D02*
X770062Y-4878484D01*
X960539Y-4878484D02*
X979586Y-4878484D01*
X979586Y-4878484D02*
X998634Y-4888008D01*
X998634Y-4888008D02*
X1008158Y-4897531D01*
X1008158Y-4897531D02*
X1017682Y-4916579D01*
X1017682Y-4916579D02*
X1027205Y-4954674D01*
X1027205Y-4954674D02*
X1027205Y-5002293D01*
X1027205Y-5002293D02*
X1017682Y-5040389D01*
X1017682Y-5040389D02*
X1008158Y-5059436D01*
X1008158Y-5059436D02*
X998634Y-5068960D01*
X998634Y-5068960D02*
X979586Y-5078484D01*
X979586Y-5078484D02*
X960539Y-5078484D01*
X960539Y-5078484D02*
X941491Y-5068960D01*
X941491Y-5068960D02*
X931967Y-5059436D01*
X931967Y-5059436D02*
X922443Y-5040389D01*
X922443Y-5040389D02*
X912920Y-5002293D01*
X912920Y-5002293D02*
X912920Y-4954674D01*
X912920Y-4954674D02*
X922443Y-4916579D01*
X922443Y-4916579D02*
X931967Y-4897531D01*
X931967Y-4897531D02*
X941491Y-4888008D01*
X941491Y-4888008D02*
X960539Y-4878484D01*
X1112920Y-5078484D02*
X1112920Y-4945150D01*
X1112920Y-4964198D02*
X1122444Y-4954674D01*
X1122444Y-4954674D02*
X1141491Y-4945150D01*
X1141491Y-4945150D02*
X1170063Y-4945150D01*
X1170063Y-4945150D02*
X1189110Y-4954674D01*
X1189110Y-4954674D02*
X1198634Y-4973722D01*
X1198634Y-4973722D02*
X1198634Y-5078484D01*
X1198634Y-4973722D02*
X1208158Y-4954674D01*
X1208158Y-4954674D02*
X1227205Y-4945150D01*
X1227205Y-4945150D02*
X1255777Y-4945150D01*
X1255777Y-4945150D02*
X1274825Y-4954674D01*
X1274825Y-4954674D02*
X1284348Y-4973722D01*
X1284348Y-4973722D02*
X1284348Y-5078484D01*
X1379586Y-5078484D02*
X1379586Y-4945150D01*
X1379586Y-4964198D02*
X1389110Y-4954674D01*
X1389110Y-4954674D02*
X1408158Y-4945150D01*
X1408158Y-4945150D02*
X1436729Y-4945150D01*
X1436729Y-4945150D02*
X1455777Y-4954674D01*
X1455777Y-4954674D02*
X1465301Y-4973722D01*
X1465301Y-4973722D02*
X1465301Y-5078484D01*
X1465301Y-4973722D02*
X1474824Y-4954674D01*
X1474824Y-4954674D02*
X1493872Y-4945150D01*
X1493872Y-4945150D02*
X1522443Y-4945150D01*
X1522443Y-4945150D02*
X1541491Y-4954674D01*
X1541491Y-4954674D02*
X1551015Y-4973722D01*
X1551015Y-4973722D02*
X1551015Y-5078484D01*
X1941491Y-4868960D02*
X1770063Y-5126103D01*
X2198634Y-4878484D02*
X2217682Y-4878484D01*
X2217682Y-4878484D02*
X2236729Y-4888008D01*
X2236729Y-4888008D02*
X2246253Y-4897531D01*
X2246253Y-4897531D02*
X2255777Y-4916579D01*
X2255777Y-4916579D02*
X2265301Y-4954674D01*
X2265301Y-4954674D02*
X2265301Y-5002293D01*
X2265301Y-5002293D02*
X2255777Y-5040389D01*
X2255777Y-5040389D02*
X2246253Y-5059436D01*
X2246253Y-5059436D02*
X2236729Y-5068960D01*
X2236729Y-5068960D02*
X2217682Y-5078484D01*
X2217682Y-5078484D02*
X2198634Y-5078484D01*
X2198634Y-5078484D02*
X2179587Y-5068960D01*
X2179587Y-5068960D02*
X2170063Y-5059436D01*
X2170063Y-5059436D02*
X2160539Y-5040389D01*
X2160539Y-5040389D02*
X2151015Y-5002293D01*
X2151015Y-5002293D02*
X2151015Y-4954674D01*
X2151015Y-4954674D02*
X2160539Y-4916579D01*
X2160539Y-4916579D02*
X2170063Y-4897531D01*
X2170063Y-4897531D02*
X2179587Y-4888008D01*
X2179587Y-4888008D02*
X2198634Y-4878484D01*
X2351015Y-5059436D02*
X2360539Y-5068960D01*
X2360539Y-5068960D02*
X2351015Y-5078484D01*
X2351015Y-5078484D02*
X2341491Y-5068960D01*
X2341491Y-5068960D02*
X2351015Y-5059436D01*
X2351015Y-5059436D02*
X2351015Y-5078484D01*
X2484348Y-4878484D02*
X2503396Y-4878484D01*
X2503396Y-4878484D02*
X2522444Y-4888008D01*
X2522444Y-4888008D02*
X2531968Y-4897531D01*
X2531968Y-4897531D02*
X2541491Y-4916579D01*
X2541491Y-4916579D02*
X2551015Y-4954674D01*
X2551015Y-4954674D02*
X2551015Y-5002293D01*
X2551015Y-5002293D02*
X2541491Y-5040389D01*
X2541491Y-5040389D02*
X2531968Y-5059436D01*
X2531968Y-5059436D02*
X2522444Y-5068960D01*
X2522444Y-5068960D02*
X2503396Y-5078484D01*
X2503396Y-5078484D02*
X2484348Y-5078484D01*
X2484348Y-5078484D02*
X2465301Y-5068960D01*
X2465301Y-5068960D02*
X2455777Y-5059436D01*
X2455777Y-5059436D02*
X2446253Y-5040389D01*
X2446253Y-5040389D02*
X2436729Y-5002293D01*
X2436729Y-5002293D02*
X2436729Y-4954674D01*
X2436729Y-4954674D02*
X2446253Y-4916579D01*
X2446253Y-4916579D02*
X2455777Y-4897531D01*
X2455777Y-4897531D02*
X2465301Y-4888008D01*
X2465301Y-4888008D02*
X2484348Y-4878484D01*
X2617682Y-4878484D02*
X2741491Y-4878484D01*
X2741491Y-4878484D02*
X2674825Y-4954674D01*
X2674825Y-4954674D02*
X2703396Y-4954674D01*
X2703396Y-4954674D02*
X2722444Y-4964198D01*
X2722444Y-4964198D02*
X2731968Y-4973722D01*
X2731968Y-4973722D02*
X2741491Y-4992770D01*
X2741491Y-4992770D02*
X2741491Y-5040389D01*
X2741491Y-5040389D02*
X2731968Y-5059436D01*
X2731968Y-5059436D02*
X2722444Y-5068960D01*
X2722444Y-5068960D02*
X2703396Y-5078484D01*
X2703396Y-5078484D02*
X2646253Y-5078484D01*
X2646253Y-5078484D02*
X2627206Y-5068960D01*
X2627206Y-5068960D02*
X2617682Y-5059436D01*
X2922444Y-4878484D02*
X2827206Y-4878484D01*
X2827206Y-4878484D02*
X2817682Y-4973722D01*
X2817682Y-4973722D02*
X2827206Y-4964198D01*
X2827206Y-4964198D02*
X2846253Y-4954674D01*
X2846253Y-4954674D02*
X2893872Y-4954674D01*
X2893872Y-4954674D02*
X2912920Y-4964198D01*
X2912920Y-4964198D02*
X2922444Y-4973722D01*
X2922444Y-4973722D02*
X2931967Y-4992770D01*
X2931967Y-4992770D02*
X2931967Y-5040389D01*
X2931967Y-5040389D02*
X2922444Y-5059436D01*
X2922444Y-5059436D02*
X2912920Y-5068960D01*
X2912920Y-5068960D02*
X2893872Y-5078484D01*
X2893872Y-5078484D02*
X2846253Y-5078484D01*
X2846253Y-5078484D02*
X2827206Y-5068960D01*
X2827206Y-5068960D02*
X2817682Y-5059436D01*
X3103396Y-4945150D02*
X3103396Y-5078484D01*
X3055777Y-4868960D02*
X3008158Y-5011817D01*
X3008158Y-5011817D02*
X3131967Y-5011817D01*
X3198634Y-4878484D02*
X3198634Y-4916579D01*
X3274825Y-4878484D02*
X3274825Y-4916579D01*
X3570063Y-5154674D02*
X3560539Y-5145150D01*
X3560539Y-5145150D02*
X3541491Y-5116579D01*
X3541491Y-5116579D02*
X3531968Y-5097531D01*
X3531968Y-5097531D02*
X3522444Y-5068960D01*
X3522444Y-5068960D02*
X3512920Y-5021341D01*
X3512920Y-5021341D02*
X3512920Y-4983246D01*
X3512920Y-4983246D02*
X3522444Y-4935627D01*
X3522444Y-4935627D02*
X3531968Y-4907055D01*
X3531968Y-4907055D02*
X3541491Y-4888008D01*
X3541491Y-4888008D02*
X3560539Y-4859436D01*
X3560539Y-4859436D02*
X3570063Y-4849912D01*
X3627206Y-4878484D02*
X3751015Y-4878484D01*
X3751015Y-4878484D02*
X3684348Y-4954674D01*
X3684348Y-4954674D02*
X3712920Y-4954674D01*
X3712920Y-4954674D02*
X3731968Y-4964198D01*
X3731968Y-4964198D02*
X3741491Y-4973722D01*
X3741491Y-4973722D02*
X3751015Y-4992770D01*
X3751015Y-4992770D02*
X3751015Y-5040389D01*
X3751015Y-5040389D02*
X3741491Y-5059436D01*
X3741491Y-5059436D02*
X3731968Y-5068960D01*
X3731968Y-5068960D02*
X3712920Y-5078484D01*
X3712920Y-5078484D02*
X3655777Y-5078484D01*
X3655777Y-5078484D02*
X3636729Y-5068960D01*
X3636729Y-5068960D02*
X3627206Y-5059436D01*
X3874825Y-4878484D02*
X3893872Y-4878484D01*
X3893872Y-4878484D02*
X3912920Y-4888008D01*
X3912920Y-4888008D02*
X3922444Y-4897531D01*
X3922444Y-4897531D02*
X3931968Y-4916579D01*
X3931968Y-4916579D02*
X3941491Y-4954674D01*
X3941491Y-4954674D02*
X3941491Y-5002293D01*
X3941491Y-5002293D02*
X3931968Y-5040389D01*
X3931968Y-5040389D02*
X3922444Y-5059436D01*
X3922444Y-5059436D02*
X3912920Y-5068960D01*
X3912920Y-5068960D02*
X3893872Y-5078484D01*
X3893872Y-5078484D02*
X3874825Y-5078484D01*
X3874825Y-5078484D02*
X3855777Y-5068960D01*
X3855777Y-5068960D02*
X3846253Y-5059436D01*
X3846253Y-5059436D02*
X3836729Y-5040389D01*
X3836729Y-5040389D02*
X3827206Y-5002293D01*
X3827206Y-5002293D02*
X3827206Y-4954674D01*
X3827206Y-4954674D02*
X3836729Y-4916579D01*
X3836729Y-4916579D02*
X3846253Y-4897531D01*
X3846253Y-4897531D02*
X3855777Y-4888008D01*
X3855777Y-4888008D02*
X3874825Y-4878484D01*
X4179587Y-5078484D02*
X4179587Y-4878484D01*
X4265301Y-5078484D02*
X4265301Y-4973722D01*
X4265301Y-4973722D02*
X4255777Y-4954674D01*
X4255777Y-4954674D02*
X4236730Y-4945150D01*
X4236730Y-4945150D02*
X4208158Y-4945150D01*
X4208158Y-4945150D02*
X4189110Y-4954674D01*
X4189110Y-4954674D02*
X4179587Y-4964198D01*
X4389111Y-5078484D02*
X4370063Y-5068960D01*
X4370063Y-5068960D02*
X4360539Y-5059436D01*
X4360539Y-5059436D02*
X4351015Y-5040389D01*
X4351015Y-5040389D02*
X4351015Y-4983246D01*
X4351015Y-4983246D02*
X4360539Y-4964198D01*
X4360539Y-4964198D02*
X4370063Y-4954674D01*
X4370063Y-4954674D02*
X4389111Y-4945150D01*
X4389111Y-4945150D02*
X4417682Y-4945150D01*
X4417682Y-4945150D02*
X4436730Y-4954674D01*
X4436730Y-4954674D02*
X4446253Y-4964198D01*
X4446253Y-4964198D02*
X4455777Y-4983246D01*
X4455777Y-4983246D02*
X4455777Y-5040389D01*
X4455777Y-5040389D02*
X4446253Y-5059436D01*
X4446253Y-5059436D02*
X4436730Y-5068960D01*
X4436730Y-5068960D02*
X4417682Y-5078484D01*
X4417682Y-5078484D02*
X4389111Y-5078484D01*
X4570063Y-5078484D02*
X4551015Y-5068960D01*
X4551015Y-5068960D02*
X4541492Y-5049912D01*
X4541492Y-5049912D02*
X4541492Y-4878484D01*
X4722444Y-5068960D02*
X4703396Y-5078484D01*
X4703396Y-5078484D02*
X4665301Y-5078484D01*
X4665301Y-5078484D02*
X4646253Y-5068960D01*
X4646253Y-5068960D02*
X4636730Y-5049912D01*
X4636730Y-5049912D02*
X4636730Y-4973722D01*
X4636730Y-4973722D02*
X4646253Y-4954674D01*
X4646253Y-4954674D02*
X4665301Y-4945150D01*
X4665301Y-4945150D02*
X4703396Y-4945150D01*
X4703396Y-4945150D02*
X4722444Y-4954674D01*
X4722444Y-4954674D02*
X4731968Y-4973722D01*
X4731968Y-4973722D02*
X4731968Y-4992770D01*
X4731968Y-4992770D02*
X4636730Y-5011817D01*
X4808158Y-5068960D02*
X4827206Y-5078484D01*
X4827206Y-5078484D02*
X4865301Y-5078484D01*
X4865301Y-5078484D02*
X4884349Y-5068960D01*
X4884349Y-5068960D02*
X4893873Y-5049912D01*
X4893873Y-5049912D02*
X4893873Y-5040389D01*
X4893873Y-5040389D02*
X4884349Y-5021341D01*
X4884349Y-5021341D02*
X4865301Y-5011817D01*
X4865301Y-5011817D02*
X4836730Y-5011817D01*
X4836730Y-5011817D02*
X4817682Y-5002293D01*
X4817682Y-5002293D02*
X4808158Y-4983246D01*
X4808158Y-4983246D02*
X4808158Y-4973722D01*
X4808158Y-4973722D02*
X4817682Y-4954674D01*
X4817682Y-4954674D02*
X4836730Y-4945150D01*
X4836730Y-4945150D02*
X4865301Y-4945150D01*
X4865301Y-4945150D02*
X4884349Y-4954674D01*
X4960539Y-5154674D02*
X4970063Y-5145150D01*
X4970063Y-5145150D02*
X4989111Y-5116579D01*
X4989111Y-5116579D02*
X4998634Y-5097531D01*
X4998634Y-5097531D02*
X5008158Y-5068960D01*
X5008158Y-5068960D02*
X5017682Y-5021341D01*
X5017682Y-5021341D02*
X5017682Y-4983246D01*
X5017682Y-4983246D02*
X5008158Y-4935627D01*
X5008158Y-4935627D02*
X4998634Y-4907055D01*
X4998634Y-4907055D02*
X4989111Y-4888008D01*
X4989111Y-4888008D02*
X4970063Y-4859436D01*
X4970063Y-4859436D02*
X4960539Y-4849912D01*
D10*
X-55000Y-5301000D02*
X-5000Y-5251000D01*
X-55000Y-5201000D01*
X-105000Y-5251000D01*
X-55000Y-5301000D01*
D11*
X360539Y-5342484D02*
X246253Y-5342484D01*
X303396Y-5342484D02*
X303396Y-5142484D01*
X303396Y-5142484D02*
X284348Y-5171055D01*
X284348Y-5171055D02*
X265301Y-5190103D01*
X265301Y-5190103D02*
X246253Y-5199627D01*
X446253Y-5323436D02*
X455777Y-5332960D01*
X455777Y-5332960D02*
X446253Y-5342484D01*
X446253Y-5342484D02*
X436729Y-5332960D01*
X436729Y-5332960D02*
X446253Y-5323436D01*
X446253Y-5323436D02*
X446253Y-5342484D01*
X579586Y-5142484D02*
X598634Y-5142484D01*
X598634Y-5142484D02*
X617682Y-5152008D01*
X617682Y-5152008D02*
X627205Y-5161531D01*
X627205Y-5161531D02*
X636729Y-5180579D01*
X636729Y-5180579D02*
X646253Y-5218674D01*
X646253Y-5218674D02*
X646253Y-5266293D01*
X646253Y-5266293D02*
X636729Y-5304389D01*
X636729Y-5304389D02*
X627205Y-5323436D01*
X627205Y-5323436D02*
X617682Y-5332960D01*
X617682Y-5332960D02*
X598634Y-5342484D01*
X598634Y-5342484D02*
X579586Y-5342484D01*
X579586Y-5342484D02*
X560539Y-5332960D01*
X560539Y-5332960D02*
X551015Y-5323436D01*
X551015Y-5323436D02*
X541491Y-5304389D01*
X541491Y-5304389D02*
X531967Y-5266293D01*
X531967Y-5266293D02*
X531967Y-5218674D01*
X531967Y-5218674D02*
X541491Y-5180579D01*
X541491Y-5180579D02*
X551015Y-5161531D01*
X551015Y-5161531D02*
X560539Y-5152008D01*
X560539Y-5152008D02*
X579586Y-5142484D01*
X770062Y-5142484D02*
X789110Y-5142484D01*
X789110Y-5142484D02*
X808158Y-5152008D01*
X808158Y-5152008D02*
X817682Y-5161531D01*
X817682Y-5161531D02*
X827205Y-5180579D01*
X827205Y-5180579D02*
X836729Y-5218674D01*
X836729Y-5218674D02*
X836729Y-5266293D01*
X836729Y-5266293D02*
X827205Y-5304389D01*
X827205Y-5304389D02*
X817682Y-5323436D01*
X817682Y-5323436D02*
X808158Y-5332960D01*
X808158Y-5332960D02*
X789110Y-5342484D01*
X789110Y-5342484D02*
X770062Y-5342484D01*
X770062Y-5342484D02*
X751015Y-5332960D01*
X751015Y-5332960D02*
X741491Y-5323436D01*
X741491Y-5323436D02*
X731967Y-5304389D01*
X731967Y-5304389D02*
X722443Y-5266293D01*
X722443Y-5266293D02*
X722443Y-5218674D01*
X722443Y-5218674D02*
X731967Y-5180579D01*
X731967Y-5180579D02*
X741491Y-5161531D01*
X741491Y-5161531D02*
X751015Y-5152008D01*
X751015Y-5152008D02*
X770062Y-5142484D01*
X960539Y-5142484D02*
X979586Y-5142484D01*
X979586Y-5142484D02*
X998634Y-5152008D01*
X998634Y-5152008D02*
X1008158Y-5161531D01*
X1008158Y-5161531D02*
X1017682Y-5180579D01*
X1017682Y-5180579D02*
X1027205Y-5218674D01*
X1027205Y-5218674D02*
X1027205Y-5266293D01*
X1027205Y-5266293D02*
X1017682Y-5304389D01*
X1017682Y-5304389D02*
X1008158Y-5323436D01*
X1008158Y-5323436D02*
X998634Y-5332960D01*
X998634Y-5332960D02*
X979586Y-5342484D01*
X979586Y-5342484D02*
X960539Y-5342484D01*
X960539Y-5342484D02*
X941491Y-5332960D01*
X941491Y-5332960D02*
X931967Y-5323436D01*
X931967Y-5323436D02*
X922443Y-5304389D01*
X922443Y-5304389D02*
X912920Y-5266293D01*
X912920Y-5266293D02*
X912920Y-5218674D01*
X912920Y-5218674D02*
X922443Y-5180579D01*
X922443Y-5180579D02*
X931967Y-5161531D01*
X931967Y-5161531D02*
X941491Y-5152008D01*
X941491Y-5152008D02*
X960539Y-5142484D01*
X1112920Y-5342484D02*
X1112920Y-5209150D01*
X1112920Y-5228198D02*
X1122444Y-5218674D01*
X1122444Y-5218674D02*
X1141491Y-5209150D01*
X1141491Y-5209150D02*
X1170063Y-5209150D01*
X1170063Y-5209150D02*
X1189110Y-5218674D01*
X1189110Y-5218674D02*
X1198634Y-5237722D01*
X1198634Y-5237722D02*
X1198634Y-5342484D01*
X1198634Y-5237722D02*
X1208158Y-5218674D01*
X1208158Y-5218674D02*
X1227205Y-5209150D01*
X1227205Y-5209150D02*
X1255777Y-5209150D01*
X1255777Y-5209150D02*
X1274825Y-5218674D01*
X1274825Y-5218674D02*
X1284348Y-5237722D01*
X1284348Y-5237722D02*
X1284348Y-5342484D01*
X1379586Y-5342484D02*
X1379586Y-5209150D01*
X1379586Y-5228198D02*
X1389110Y-5218674D01*
X1389110Y-5218674D02*
X1408158Y-5209150D01*
X1408158Y-5209150D02*
X1436729Y-5209150D01*
X1436729Y-5209150D02*
X1455777Y-5218674D01*
X1455777Y-5218674D02*
X1465301Y-5237722D01*
X1465301Y-5237722D02*
X1465301Y-5342484D01*
X1465301Y-5237722D02*
X1474824Y-5218674D01*
X1474824Y-5218674D02*
X1493872Y-5209150D01*
X1493872Y-5209150D02*
X1522443Y-5209150D01*
X1522443Y-5209150D02*
X1541491Y-5218674D01*
X1541491Y-5218674D02*
X1551015Y-5237722D01*
X1551015Y-5237722D02*
X1551015Y-5342484D01*
X1941491Y-5132960D02*
X1770063Y-5390103D01*
X2198634Y-5142484D02*
X2217682Y-5142484D01*
X2217682Y-5142484D02*
X2236729Y-5152008D01*
X2236729Y-5152008D02*
X2246253Y-5161531D01*
X2246253Y-5161531D02*
X2255777Y-5180579D01*
X2255777Y-5180579D02*
X2265301Y-5218674D01*
X2265301Y-5218674D02*
X2265301Y-5266293D01*
X2265301Y-5266293D02*
X2255777Y-5304389D01*
X2255777Y-5304389D02*
X2246253Y-5323436D01*
X2246253Y-5323436D02*
X2236729Y-5332960D01*
X2236729Y-5332960D02*
X2217682Y-5342484D01*
X2217682Y-5342484D02*
X2198634Y-5342484D01*
X2198634Y-5342484D02*
X2179587Y-5332960D01*
X2179587Y-5332960D02*
X2170063Y-5323436D01*
X2170063Y-5323436D02*
X2160539Y-5304389D01*
X2160539Y-5304389D02*
X2151015Y-5266293D01*
X2151015Y-5266293D02*
X2151015Y-5218674D01*
X2151015Y-5218674D02*
X2160539Y-5180579D01*
X2160539Y-5180579D02*
X2170063Y-5161531D01*
X2170063Y-5161531D02*
X2179587Y-5152008D01*
X2179587Y-5152008D02*
X2198634Y-5142484D01*
X2351015Y-5323436D02*
X2360539Y-5332960D01*
X2360539Y-5332960D02*
X2351015Y-5342484D01*
X2351015Y-5342484D02*
X2341491Y-5332960D01*
X2341491Y-5332960D02*
X2351015Y-5323436D01*
X2351015Y-5323436D02*
X2351015Y-5342484D01*
X2484348Y-5142484D02*
X2503396Y-5142484D01*
X2503396Y-5142484D02*
X2522444Y-5152008D01*
X2522444Y-5152008D02*
X2531968Y-5161531D01*
X2531968Y-5161531D02*
X2541491Y-5180579D01*
X2541491Y-5180579D02*
X2551015Y-5218674D01*
X2551015Y-5218674D02*
X2551015Y-5266293D01*
X2551015Y-5266293D02*
X2541491Y-5304389D01*
X2541491Y-5304389D02*
X2531968Y-5323436D01*
X2531968Y-5323436D02*
X2522444Y-5332960D01*
X2522444Y-5332960D02*
X2503396Y-5342484D01*
X2503396Y-5342484D02*
X2484348Y-5342484D01*
X2484348Y-5342484D02*
X2465301Y-5332960D01*
X2465301Y-5332960D02*
X2455777Y-5323436D01*
X2455777Y-5323436D02*
X2446253Y-5304389D01*
X2446253Y-5304389D02*
X2436729Y-5266293D01*
X2436729Y-5266293D02*
X2436729Y-5218674D01*
X2436729Y-5218674D02*
X2446253Y-5180579D01*
X2446253Y-5180579D02*
X2455777Y-5161531D01*
X2455777Y-5161531D02*
X2465301Y-5152008D01*
X2465301Y-5152008D02*
X2484348Y-5142484D01*
X2617682Y-5142484D02*
X2741491Y-5142484D01*
X2741491Y-5142484D02*
X2674825Y-5218674D01*
X2674825Y-5218674D02*
X2703396Y-5218674D01*
X2703396Y-5218674D02*
X2722444Y-5228198D01*
X2722444Y-5228198D02*
X2731968Y-5237722D01*
X2731968Y-5237722D02*
X2741491Y-5256770D01*
X2741491Y-5256770D02*
X2741491Y-5304389D01*
X2741491Y-5304389D02*
X2731968Y-5323436D01*
X2731968Y-5323436D02*
X2722444Y-5332960D01*
X2722444Y-5332960D02*
X2703396Y-5342484D01*
X2703396Y-5342484D02*
X2646253Y-5342484D01*
X2646253Y-5342484D02*
X2627206Y-5332960D01*
X2627206Y-5332960D02*
X2617682Y-5323436D01*
X2836729Y-5342484D02*
X2874825Y-5342484D01*
X2874825Y-5342484D02*
X2893872Y-5332960D01*
X2893872Y-5332960D02*
X2903396Y-5323436D01*
X2903396Y-5323436D02*
X2922444Y-5294865D01*
X2922444Y-5294865D02*
X2931967Y-5256770D01*
X2931967Y-5256770D02*
X2931967Y-5180579D01*
X2931967Y-5180579D02*
X2922444Y-5161531D01*
X2922444Y-5161531D02*
X2912920Y-5152008D01*
X2912920Y-5152008D02*
X2893872Y-5142484D01*
X2893872Y-5142484D02*
X2855777Y-5142484D01*
X2855777Y-5142484D02*
X2836729Y-5152008D01*
X2836729Y-5152008D02*
X2827206Y-5161531D01*
X2827206Y-5161531D02*
X2817682Y-5180579D01*
X2817682Y-5180579D02*
X2817682Y-5228198D01*
X2817682Y-5228198D02*
X2827206Y-5247246D01*
X2827206Y-5247246D02*
X2836729Y-5256770D01*
X2836729Y-5256770D02*
X2855777Y-5266293D01*
X2855777Y-5266293D02*
X2893872Y-5266293D01*
X2893872Y-5266293D02*
X2912920Y-5256770D01*
X2912920Y-5256770D02*
X2922444Y-5247246D01*
X2922444Y-5247246D02*
X2931967Y-5228198D01*
X3103396Y-5209150D02*
X3103396Y-5342484D01*
X3055777Y-5132960D02*
X3008158Y-5275817D01*
X3008158Y-5275817D02*
X3131967Y-5275817D01*
X3198634Y-5142484D02*
X3198634Y-5180579D01*
X3274825Y-5142484D02*
X3274825Y-5180579D01*
X3570063Y-5418674D02*
X3560539Y-5409150D01*
X3560539Y-5409150D02*
X3541491Y-5380579D01*
X3541491Y-5380579D02*
X3531968Y-5361531D01*
X3531968Y-5361531D02*
X3522444Y-5332960D01*
X3522444Y-5332960D02*
X3512920Y-5285341D01*
X3512920Y-5285341D02*
X3512920Y-5247246D01*
X3512920Y-5247246D02*
X3522444Y-5199627D01*
X3522444Y-5199627D02*
X3531968Y-5171055D01*
X3531968Y-5171055D02*
X3541491Y-5152008D01*
X3541491Y-5152008D02*
X3560539Y-5123436D01*
X3560539Y-5123436D02*
X3570063Y-5113912D01*
X3684348Y-5142484D02*
X3703396Y-5142484D01*
X3703396Y-5142484D02*
X3722444Y-5152008D01*
X3722444Y-5152008D02*
X3731968Y-5161531D01*
X3731968Y-5161531D02*
X3741491Y-5180579D01*
X3741491Y-5180579D02*
X3751015Y-5218674D01*
X3751015Y-5218674D02*
X3751015Y-5266293D01*
X3751015Y-5266293D02*
X3741491Y-5304389D01*
X3741491Y-5304389D02*
X3731968Y-5323436D01*
X3731968Y-5323436D02*
X3722444Y-5332960D01*
X3722444Y-5332960D02*
X3703396Y-5342484D01*
X3703396Y-5342484D02*
X3684348Y-5342484D01*
X3684348Y-5342484D02*
X3665301Y-5332960D01*
X3665301Y-5332960D02*
X3655777Y-5323436D01*
X3655777Y-5323436D02*
X3646253Y-5304389D01*
X3646253Y-5304389D02*
X3636729Y-5266293D01*
X3636729Y-5266293D02*
X3636729Y-5218674D01*
X3636729Y-5218674D02*
X3646253Y-5180579D01*
X3646253Y-5180579D02*
X3655777Y-5161531D01*
X3655777Y-5161531D02*
X3665301Y-5152008D01*
X3665301Y-5152008D02*
X3684348Y-5142484D01*
X3989110Y-5342484D02*
X3989110Y-5142484D01*
X4074825Y-5342484D02*
X4074825Y-5237722D01*
X4074825Y-5237722D02*
X4065301Y-5218674D01*
X4065301Y-5218674D02*
X4046253Y-5209150D01*
X4046253Y-5209150D02*
X4017682Y-5209150D01*
X4017682Y-5209150D02*
X3998634Y-5218674D01*
X3998634Y-5218674D02*
X3989110Y-5228198D01*
X4198634Y-5342484D02*
X4179587Y-5332960D01*
X4179587Y-5332960D02*
X4170063Y-5323436D01*
X4170063Y-5323436D02*
X4160539Y-5304389D01*
X4160539Y-5304389D02*
X4160539Y-5247246D01*
X4160539Y-5247246D02*
X4170063Y-5228198D01*
X4170063Y-5228198D02*
X4179587Y-5218674D01*
X4179587Y-5218674D02*
X4198634Y-5209150D01*
X4198634Y-5209150D02*
X4227206Y-5209150D01*
X4227206Y-5209150D02*
X4246253Y-5218674D01*
X4246253Y-5218674D02*
X4255777Y-5228198D01*
X4255777Y-5228198D02*
X4265301Y-5247246D01*
X4265301Y-5247246D02*
X4265301Y-5304389D01*
X4265301Y-5304389D02*
X4255777Y-5323436D01*
X4255777Y-5323436D02*
X4246253Y-5332960D01*
X4246253Y-5332960D02*
X4227206Y-5342484D01*
X4227206Y-5342484D02*
X4198634Y-5342484D01*
X4379587Y-5342484D02*
X4360539Y-5332960D01*
X4360539Y-5332960D02*
X4351015Y-5313912D01*
X4351015Y-5313912D02*
X4351015Y-5142484D01*
X4531968Y-5332960D02*
X4512920Y-5342484D01*
X4512920Y-5342484D02*
X4474825Y-5342484D01*
X4474825Y-5342484D02*
X4455777Y-5332960D01*
X4455777Y-5332960D02*
X4446253Y-5313912D01*
X4446253Y-5313912D02*
X4446253Y-5237722D01*
X4446253Y-5237722D02*
X4455777Y-5218674D01*
X4455777Y-5218674D02*
X4474825Y-5209150D01*
X4474825Y-5209150D02*
X4512920Y-5209150D01*
X4512920Y-5209150D02*
X4531968Y-5218674D01*
X4531968Y-5218674D02*
X4541492Y-5237722D01*
X4541492Y-5237722D02*
X4541492Y-5256770D01*
X4541492Y-5256770D02*
X4446253Y-5275817D01*
X4617682Y-5332960D02*
X4636730Y-5342484D01*
X4636730Y-5342484D02*
X4674825Y-5342484D01*
X4674825Y-5342484D02*
X4693873Y-5332960D01*
X4693873Y-5332960D02*
X4703396Y-5313912D01*
X4703396Y-5313912D02*
X4703396Y-5304389D01*
X4703396Y-5304389D02*
X4693873Y-5285341D01*
X4693873Y-5285341D02*
X4674825Y-5275817D01*
X4674825Y-5275817D02*
X4646253Y-5275817D01*
X4646253Y-5275817D02*
X4627206Y-5266293D01*
X4627206Y-5266293D02*
X4617682Y-5247246D01*
X4617682Y-5247246D02*
X4617682Y-5237722D01*
X4617682Y-5237722D02*
X4627206Y-5218674D01*
X4627206Y-5218674D02*
X4646253Y-5209150D01*
X4646253Y-5209150D02*
X4674825Y-5209150D01*
X4674825Y-5209150D02*
X4693873Y-5218674D01*
X4941492Y-5266293D02*
X5093873Y-5266293D01*
X5017682Y-5342484D02*
X5017682Y-5190103D01*
X5427206Y-5142484D02*
X5389111Y-5142484D01*
X5389111Y-5142484D02*
X5370063Y-5152008D01*
X5370063Y-5152008D02*
X5360539Y-5161531D01*
X5360539Y-5161531D02*
X5341492Y-5190103D01*
X5341492Y-5190103D02*
X5331968Y-5228198D01*
X5331968Y-5228198D02*
X5331968Y-5304389D01*
X5331968Y-5304389D02*
X5341492Y-5323436D01*
X5341492Y-5323436D02*
X5351015Y-5332960D01*
X5351015Y-5332960D02*
X5370063Y-5342484D01*
X5370063Y-5342484D02*
X5408158Y-5342484D01*
X5408158Y-5342484D02*
X5427206Y-5332960D01*
X5427206Y-5332960D02*
X5436730Y-5323436D01*
X5436730Y-5323436D02*
X5446254Y-5304389D01*
X5446254Y-5304389D02*
X5446254Y-5256770D01*
X5446254Y-5256770D02*
X5436730Y-5237722D01*
X5436730Y-5237722D02*
X5427206Y-5228198D01*
X5427206Y-5228198D02*
X5408158Y-5218674D01*
X5408158Y-5218674D02*
X5370063Y-5218674D01*
X5370063Y-5218674D02*
X5351015Y-5228198D01*
X5351015Y-5228198D02*
X5341492Y-5237722D01*
X5341492Y-5237722D02*
X5331968Y-5256770D01*
X5674825Y-5332960D02*
X5693873Y-5342484D01*
X5693873Y-5342484D02*
X5731968Y-5342484D01*
X5731968Y-5342484D02*
X5751015Y-5332960D01*
X5751015Y-5332960D02*
X5760539Y-5313912D01*
X5760539Y-5313912D02*
X5760539Y-5304389D01*
X5760539Y-5304389D02*
X5751015Y-5285341D01*
X5751015Y-5285341D02*
X5731968Y-5275817D01*
X5731968Y-5275817D02*
X5703396Y-5275817D01*
X5703396Y-5275817D02*
X5684349Y-5266293D01*
X5684349Y-5266293D02*
X5674825Y-5247246D01*
X5674825Y-5247246D02*
X5674825Y-5237722D01*
X5674825Y-5237722D02*
X5684349Y-5218674D01*
X5684349Y-5218674D02*
X5703396Y-5209150D01*
X5703396Y-5209150D02*
X5731968Y-5209150D01*
X5731968Y-5209150D02*
X5751015Y-5218674D01*
X5874825Y-5342484D02*
X5855777Y-5332960D01*
X5855777Y-5332960D02*
X5846254Y-5313912D01*
X5846254Y-5313912D02*
X5846254Y-5142484D01*
X5979587Y-5342484D02*
X5960539Y-5332960D01*
X5960539Y-5332960D02*
X5951015Y-5323436D01*
X5951015Y-5323436D02*
X5941492Y-5304389D01*
X5941492Y-5304389D02*
X5941492Y-5247246D01*
X5941492Y-5247246D02*
X5951015Y-5228198D01*
X5951015Y-5228198D02*
X5960539Y-5218674D01*
X5960539Y-5218674D02*
X5979587Y-5209150D01*
X5979587Y-5209150D02*
X6008158Y-5209150D01*
X6008158Y-5209150D02*
X6027206Y-5218674D01*
X6027206Y-5218674D02*
X6036730Y-5228198D01*
X6036730Y-5228198D02*
X6046254Y-5247246D01*
X6046254Y-5247246D02*
X6046254Y-5304389D01*
X6046254Y-5304389D02*
X6036730Y-5323436D01*
X6036730Y-5323436D02*
X6027206Y-5332960D01*
X6027206Y-5332960D02*
X6008158Y-5342484D01*
X6008158Y-5342484D02*
X5979587Y-5342484D01*
X6103396Y-5209150D02*
X6179587Y-5209150D01*
X6131968Y-5142484D02*
X6131968Y-5313912D01*
X6131968Y-5313912D02*
X6141492Y-5332960D01*
X6141492Y-5332960D02*
X6160539Y-5342484D01*
X6160539Y-5342484D02*
X6179587Y-5342484D01*
X6236730Y-5332960D02*
X6255777Y-5342484D01*
X6255777Y-5342484D02*
X6293873Y-5342484D01*
X6293873Y-5342484D02*
X6312920Y-5332960D01*
X6312920Y-5332960D02*
X6322444Y-5313912D01*
X6322444Y-5313912D02*
X6322444Y-5304389D01*
X6322444Y-5304389D02*
X6312920Y-5285341D01*
X6312920Y-5285341D02*
X6293873Y-5275817D01*
X6293873Y-5275817D02*
X6265301Y-5275817D01*
X6265301Y-5275817D02*
X6246254Y-5266293D01*
X6246254Y-5266293D02*
X6236730Y-5247246D01*
X6236730Y-5247246D02*
X6236730Y-5237722D01*
X6236730Y-5237722D02*
X6246254Y-5218674D01*
X6246254Y-5218674D02*
X6265301Y-5209150D01*
X6265301Y-5209150D02*
X6293873Y-5209150D01*
X6293873Y-5209150D02*
X6312920Y-5218674D01*
X6389111Y-5418674D02*
X6398635Y-5409150D01*
X6398635Y-5409150D02*
X6417682Y-5380579D01*
X6417682Y-5380579D02*
X6427206Y-5361531D01*
X6427206Y-5361531D02*
X6436730Y-5332960D01*
X6436730Y-5332960D02*
X6446254Y-5285341D01*
X6446254Y-5285341D02*
X6446254Y-5247246D01*
X6446254Y-5247246D02*
X6436730Y-5199627D01*
X6436730Y-5199627D02*
X6427206Y-5171055D01*
X6427206Y-5171055D02*
X6417682Y-5152008D01*
X6417682Y-5152008D02*
X6398635Y-5123436D01*
X6398635Y-5123436D02*
X6389111Y-5113912D01*
D12*
X-115000Y-5460000D02*
X-5000Y-5570000D01*
X-5000Y-5460000D02*
X-115000Y-5570000D01*
X-5000Y-5515000D02*
G75*
G03*
X-5000Y-5515000I-55000J0D01*
G01*
D11*
X360539Y-5606484D02*
X246253Y-5606484D01*
X303396Y-5606484D02*
X303396Y-5406484D01*
X303396Y-5406484D02*
X284348Y-5435055D01*
X284348Y-5435055D02*
X265301Y-5454103D01*
X265301Y-5454103D02*
X246253Y-5463627D01*
X446253Y-5587436D02*
X455777Y-5596960D01*
X455777Y-5596960D02*
X446253Y-5606484D01*
X446253Y-5606484D02*
X436729Y-5596960D01*
X436729Y-5596960D02*
X446253Y-5587436D01*
X446253Y-5587436D02*
X446253Y-5606484D01*
X646253Y-5606484D02*
X531967Y-5606484D01*
X589110Y-5606484D02*
X589110Y-5406484D01*
X589110Y-5406484D02*
X570063Y-5435055D01*
X570063Y-5435055D02*
X551015Y-5454103D01*
X551015Y-5454103D02*
X531967Y-5463627D01*
X770062Y-5406484D02*
X789110Y-5406484D01*
X789110Y-5406484D02*
X808158Y-5416008D01*
X808158Y-5416008D02*
X817682Y-5425531D01*
X817682Y-5425531D02*
X827205Y-5444579D01*
X827205Y-5444579D02*
X836729Y-5482674D01*
X836729Y-5482674D02*
X836729Y-5530293D01*
X836729Y-5530293D02*
X827205Y-5568389D01*
X827205Y-5568389D02*
X817682Y-5587436D01*
X817682Y-5587436D02*
X808158Y-5596960D01*
X808158Y-5596960D02*
X789110Y-5606484D01*
X789110Y-5606484D02*
X770062Y-5606484D01*
X770062Y-5606484D02*
X751015Y-5596960D01*
X751015Y-5596960D02*
X741491Y-5587436D01*
X741491Y-5587436D02*
X731967Y-5568389D01*
X731967Y-5568389D02*
X722443Y-5530293D01*
X722443Y-5530293D02*
X722443Y-5482674D01*
X722443Y-5482674D02*
X731967Y-5444579D01*
X731967Y-5444579D02*
X741491Y-5425531D01*
X741491Y-5425531D02*
X751015Y-5416008D01*
X751015Y-5416008D02*
X770062Y-5406484D01*
X960539Y-5406484D02*
X979586Y-5406484D01*
X979586Y-5406484D02*
X998634Y-5416008D01*
X998634Y-5416008D02*
X1008158Y-5425531D01*
X1008158Y-5425531D02*
X1017682Y-5444579D01*
X1017682Y-5444579D02*
X1027205Y-5482674D01*
X1027205Y-5482674D02*
X1027205Y-5530293D01*
X1027205Y-5530293D02*
X1017682Y-5568389D01*
X1017682Y-5568389D02*
X1008158Y-5587436D01*
X1008158Y-5587436D02*
X998634Y-5596960D01*
X998634Y-5596960D02*
X979586Y-5606484D01*
X979586Y-5606484D02*
X960539Y-5606484D01*
X960539Y-5606484D02*
X941491Y-5596960D01*
X941491Y-5596960D02*
X931967Y-5587436D01*
X931967Y-5587436D02*
X922443Y-5568389D01*
X922443Y-5568389D02*
X912920Y-5530293D01*
X912920Y-5530293D02*
X912920Y-5482674D01*
X912920Y-5482674D02*
X922443Y-5444579D01*
X922443Y-5444579D02*
X931967Y-5425531D01*
X931967Y-5425531D02*
X941491Y-5416008D01*
X941491Y-5416008D02*
X960539Y-5406484D01*
X1112920Y-5606484D02*
X1112920Y-5473150D01*
X1112920Y-5492198D02*
X1122444Y-5482674D01*
X1122444Y-5482674D02*
X1141491Y-5473150D01*
X1141491Y-5473150D02*
X1170063Y-5473150D01*
X1170063Y-5473150D02*
X1189110Y-5482674D01*
X1189110Y-5482674D02*
X1198634Y-5501722D01*
X1198634Y-5501722D02*
X1198634Y-5606484D01*
X1198634Y-5501722D02*
X1208158Y-5482674D01*
X1208158Y-5482674D02*
X1227205Y-5473150D01*
X1227205Y-5473150D02*
X1255777Y-5473150D01*
X1255777Y-5473150D02*
X1274825Y-5482674D01*
X1274825Y-5482674D02*
X1284348Y-5501722D01*
X1284348Y-5501722D02*
X1284348Y-5606484D01*
X1379586Y-5606484D02*
X1379586Y-5473150D01*
X1379586Y-5492198D02*
X1389110Y-5482674D01*
X1389110Y-5482674D02*
X1408158Y-5473150D01*
X1408158Y-5473150D02*
X1436729Y-5473150D01*
X1436729Y-5473150D02*
X1455777Y-5482674D01*
X1455777Y-5482674D02*
X1465301Y-5501722D01*
X1465301Y-5501722D02*
X1465301Y-5606484D01*
X1465301Y-5501722D02*
X1474824Y-5482674D01*
X1474824Y-5482674D02*
X1493872Y-5473150D01*
X1493872Y-5473150D02*
X1522443Y-5473150D01*
X1522443Y-5473150D02*
X1541491Y-5482674D01*
X1541491Y-5482674D02*
X1551015Y-5501722D01*
X1551015Y-5501722D02*
X1551015Y-5606484D01*
X1941491Y-5396960D02*
X1770063Y-5654103D01*
X2198634Y-5406484D02*
X2217682Y-5406484D01*
X2217682Y-5406484D02*
X2236729Y-5416008D01*
X2236729Y-5416008D02*
X2246253Y-5425531D01*
X2246253Y-5425531D02*
X2255777Y-5444579D01*
X2255777Y-5444579D02*
X2265301Y-5482674D01*
X2265301Y-5482674D02*
X2265301Y-5530293D01*
X2265301Y-5530293D02*
X2255777Y-5568389D01*
X2255777Y-5568389D02*
X2246253Y-5587436D01*
X2246253Y-5587436D02*
X2236729Y-5596960D01*
X2236729Y-5596960D02*
X2217682Y-5606484D01*
X2217682Y-5606484D02*
X2198634Y-5606484D01*
X2198634Y-5606484D02*
X2179587Y-5596960D01*
X2179587Y-5596960D02*
X2170063Y-5587436D01*
X2170063Y-5587436D02*
X2160539Y-5568389D01*
X2160539Y-5568389D02*
X2151015Y-5530293D01*
X2151015Y-5530293D02*
X2151015Y-5482674D01*
X2151015Y-5482674D02*
X2160539Y-5444579D01*
X2160539Y-5444579D02*
X2170063Y-5425531D01*
X2170063Y-5425531D02*
X2179587Y-5416008D01*
X2179587Y-5416008D02*
X2198634Y-5406484D01*
X2351015Y-5587436D02*
X2360539Y-5596960D01*
X2360539Y-5596960D02*
X2351015Y-5606484D01*
X2351015Y-5606484D02*
X2341491Y-5596960D01*
X2341491Y-5596960D02*
X2351015Y-5587436D01*
X2351015Y-5587436D02*
X2351015Y-5606484D01*
X2484348Y-5406484D02*
X2503396Y-5406484D01*
X2503396Y-5406484D02*
X2522444Y-5416008D01*
X2522444Y-5416008D02*
X2531968Y-5425531D01*
X2531968Y-5425531D02*
X2541491Y-5444579D01*
X2541491Y-5444579D02*
X2551015Y-5482674D01*
X2551015Y-5482674D02*
X2551015Y-5530293D01*
X2551015Y-5530293D02*
X2541491Y-5568389D01*
X2541491Y-5568389D02*
X2531968Y-5587436D01*
X2531968Y-5587436D02*
X2522444Y-5596960D01*
X2522444Y-5596960D02*
X2503396Y-5606484D01*
X2503396Y-5606484D02*
X2484348Y-5606484D01*
X2484348Y-5606484D02*
X2465301Y-5596960D01*
X2465301Y-5596960D02*
X2455777Y-5587436D01*
X2455777Y-5587436D02*
X2446253Y-5568389D01*
X2446253Y-5568389D02*
X2436729Y-5530293D01*
X2436729Y-5530293D02*
X2436729Y-5482674D01*
X2436729Y-5482674D02*
X2446253Y-5444579D01*
X2446253Y-5444579D02*
X2455777Y-5425531D01*
X2455777Y-5425531D02*
X2465301Y-5416008D01*
X2465301Y-5416008D02*
X2484348Y-5406484D01*
X2722444Y-5473150D02*
X2722444Y-5606484D01*
X2674825Y-5396960D02*
X2627206Y-5539817D01*
X2627206Y-5539817D02*
X2751015Y-5539817D01*
X2808158Y-5406484D02*
X2931967Y-5406484D01*
X2931967Y-5406484D02*
X2865301Y-5482674D01*
X2865301Y-5482674D02*
X2893872Y-5482674D01*
X2893872Y-5482674D02*
X2912920Y-5492198D01*
X2912920Y-5492198D02*
X2922444Y-5501722D01*
X2922444Y-5501722D02*
X2931967Y-5520770D01*
X2931967Y-5520770D02*
X2931967Y-5568389D01*
X2931967Y-5568389D02*
X2922444Y-5587436D01*
X2922444Y-5587436D02*
X2912920Y-5596960D01*
X2912920Y-5596960D02*
X2893872Y-5606484D01*
X2893872Y-5606484D02*
X2836729Y-5606484D01*
X2836729Y-5606484D02*
X2817682Y-5596960D01*
X2817682Y-5596960D02*
X2808158Y-5587436D01*
X2998634Y-5406484D02*
X3122444Y-5406484D01*
X3122444Y-5406484D02*
X3055777Y-5482674D01*
X3055777Y-5482674D02*
X3084348Y-5482674D01*
X3084348Y-5482674D02*
X3103396Y-5492198D01*
X3103396Y-5492198D02*
X3112920Y-5501722D01*
X3112920Y-5501722D02*
X3122444Y-5520770D01*
X3122444Y-5520770D02*
X3122444Y-5568389D01*
X3122444Y-5568389D02*
X3112920Y-5587436D01*
X3112920Y-5587436D02*
X3103396Y-5596960D01*
X3103396Y-5596960D02*
X3084348Y-5606484D01*
X3084348Y-5606484D02*
X3027206Y-5606484D01*
X3027206Y-5606484D02*
X3008158Y-5596960D01*
X3008158Y-5596960D02*
X2998634Y-5587436D01*
X3198634Y-5406484D02*
X3198634Y-5444579D01*
X3274825Y-5406484D02*
X3274825Y-5444579D01*
X3570063Y-5682674D02*
X3560539Y-5673150D01*
X3560539Y-5673150D02*
X3541491Y-5644579D01*
X3541491Y-5644579D02*
X3531968Y-5625531D01*
X3531968Y-5625531D02*
X3522444Y-5596960D01*
X3522444Y-5596960D02*
X3512920Y-5549341D01*
X3512920Y-5549341D02*
X3512920Y-5511246D01*
X3512920Y-5511246D02*
X3522444Y-5463627D01*
X3522444Y-5463627D02*
X3531968Y-5435055D01*
X3531968Y-5435055D02*
X3541491Y-5416008D01*
X3541491Y-5416008D02*
X3560539Y-5387436D01*
X3560539Y-5387436D02*
X3570063Y-5377912D01*
X3636729Y-5425531D02*
X3646253Y-5416008D01*
X3646253Y-5416008D02*
X3665301Y-5406484D01*
X3665301Y-5406484D02*
X3712920Y-5406484D01*
X3712920Y-5406484D02*
X3731968Y-5416008D01*
X3731968Y-5416008D02*
X3741491Y-5425531D01*
X3741491Y-5425531D02*
X3751015Y-5444579D01*
X3751015Y-5444579D02*
X3751015Y-5463627D01*
X3751015Y-5463627D02*
X3741491Y-5492198D01*
X3741491Y-5492198D02*
X3627206Y-5606484D01*
X3627206Y-5606484D02*
X3751015Y-5606484D01*
X3989110Y-5606484D02*
X3989110Y-5406484D01*
X4074825Y-5606484D02*
X4074825Y-5501722D01*
X4074825Y-5501722D02*
X4065301Y-5482674D01*
X4065301Y-5482674D02*
X4046253Y-5473150D01*
X4046253Y-5473150D02*
X4017682Y-5473150D01*
X4017682Y-5473150D02*
X3998634Y-5482674D01*
X3998634Y-5482674D02*
X3989110Y-5492198D01*
X4198634Y-5606484D02*
X4179587Y-5596960D01*
X4179587Y-5596960D02*
X4170063Y-5587436D01*
X4170063Y-5587436D02*
X4160539Y-5568389D01*
X4160539Y-5568389D02*
X4160539Y-5511246D01*
X4160539Y-5511246D02*
X4170063Y-5492198D01*
X4170063Y-5492198D02*
X4179587Y-5482674D01*
X4179587Y-5482674D02*
X4198634Y-5473150D01*
X4198634Y-5473150D02*
X4227206Y-5473150D01*
X4227206Y-5473150D02*
X4246253Y-5482674D01*
X4246253Y-5482674D02*
X4255777Y-5492198D01*
X4255777Y-5492198D02*
X4265301Y-5511246D01*
X4265301Y-5511246D02*
X4265301Y-5568389D01*
X4265301Y-5568389D02*
X4255777Y-5587436D01*
X4255777Y-5587436D02*
X4246253Y-5596960D01*
X4246253Y-5596960D02*
X4227206Y-5606484D01*
X4227206Y-5606484D02*
X4198634Y-5606484D01*
X4379587Y-5606484D02*
X4360539Y-5596960D01*
X4360539Y-5596960D02*
X4351015Y-5577912D01*
X4351015Y-5577912D02*
X4351015Y-5406484D01*
X4531968Y-5596960D02*
X4512920Y-5606484D01*
X4512920Y-5606484D02*
X4474825Y-5606484D01*
X4474825Y-5606484D02*
X4455777Y-5596960D01*
X4455777Y-5596960D02*
X4446253Y-5577912D01*
X4446253Y-5577912D02*
X4446253Y-5501722D01*
X4446253Y-5501722D02*
X4455777Y-5482674D01*
X4455777Y-5482674D02*
X4474825Y-5473150D01*
X4474825Y-5473150D02*
X4512920Y-5473150D01*
X4512920Y-5473150D02*
X4531968Y-5482674D01*
X4531968Y-5482674D02*
X4541492Y-5501722D01*
X4541492Y-5501722D02*
X4541492Y-5520770D01*
X4541492Y-5520770D02*
X4446253Y-5539817D01*
X4617682Y-5596960D02*
X4636730Y-5606484D01*
X4636730Y-5606484D02*
X4674825Y-5606484D01*
X4674825Y-5606484D02*
X4693873Y-5596960D01*
X4693873Y-5596960D02*
X4703396Y-5577912D01*
X4703396Y-5577912D02*
X4703396Y-5568389D01*
X4703396Y-5568389D02*
X4693873Y-5549341D01*
X4693873Y-5549341D02*
X4674825Y-5539817D01*
X4674825Y-5539817D02*
X4646253Y-5539817D01*
X4646253Y-5539817D02*
X4627206Y-5530293D01*
X4627206Y-5530293D02*
X4617682Y-5511246D01*
X4617682Y-5511246D02*
X4617682Y-5501722D01*
X4617682Y-5501722D02*
X4627206Y-5482674D01*
X4627206Y-5482674D02*
X4646253Y-5473150D01*
X4646253Y-5473150D02*
X4674825Y-5473150D01*
X4674825Y-5473150D02*
X4693873Y-5482674D01*
X4770063Y-5682674D02*
X4779587Y-5673150D01*
X4779587Y-5673150D02*
X4798634Y-5644579D01*
X4798634Y-5644579D02*
X4808158Y-5625531D01*
X4808158Y-5625531D02*
X4817682Y-5596960D01*
X4817682Y-5596960D02*
X4827206Y-5549341D01*
X4827206Y-5549341D02*
X4827206Y-5511246D01*
X4827206Y-5511246D02*
X4817682Y-5463627D01*
X4817682Y-5463627D02*
X4808158Y-5435055D01*
X4808158Y-5435055D02*
X4798634Y-5416008D01*
X4798634Y-5416008D02*
X4779587Y-5387436D01*
X4779587Y-5387436D02*
X4770063Y-5377912D01*
D13*
X-125000Y-5719000D02*
X-5000Y-5839000D01*
X-5000Y-5719000D02*
X-125000Y-5839000D01*
X-65000Y-5719000D02*
X-65000Y-5839000D01*
X-125000Y-5779000D02*
X-5000Y-5779000D01*
D11*
X360539Y-5870484D02*
X246253Y-5870484D01*
X303396Y-5870484D02*
X303396Y-5670484D01*
X303396Y-5670484D02*
X284348Y-5699055D01*
X284348Y-5699055D02*
X265301Y-5718103D01*
X265301Y-5718103D02*
X246253Y-5727627D01*
X446253Y-5851436D02*
X455777Y-5860960D01*
X455777Y-5860960D02*
X446253Y-5870484D01*
X446253Y-5870484D02*
X436729Y-5860960D01*
X436729Y-5860960D02*
X446253Y-5851436D01*
X446253Y-5851436D02*
X446253Y-5870484D01*
X531967Y-5689531D02*
X541491Y-5680008D01*
X541491Y-5680008D02*
X560539Y-5670484D01*
X560539Y-5670484D02*
X608158Y-5670484D01*
X608158Y-5670484D02*
X627205Y-5680008D01*
X627205Y-5680008D02*
X636729Y-5689531D01*
X636729Y-5689531D02*
X646253Y-5708579D01*
X646253Y-5708579D02*
X646253Y-5727627D01*
X646253Y-5727627D02*
X636729Y-5756198D01*
X636729Y-5756198D02*
X522443Y-5870484D01*
X522443Y-5870484D02*
X646253Y-5870484D01*
X770062Y-5670484D02*
X789110Y-5670484D01*
X789110Y-5670484D02*
X808158Y-5680008D01*
X808158Y-5680008D02*
X817682Y-5689531D01*
X817682Y-5689531D02*
X827205Y-5708579D01*
X827205Y-5708579D02*
X836729Y-5746674D01*
X836729Y-5746674D02*
X836729Y-5794293D01*
X836729Y-5794293D02*
X827205Y-5832388D01*
X827205Y-5832388D02*
X817682Y-5851436D01*
X817682Y-5851436D02*
X808158Y-5860960D01*
X808158Y-5860960D02*
X789110Y-5870484D01*
X789110Y-5870484D02*
X770062Y-5870484D01*
X770062Y-5870484D02*
X751015Y-5860960D01*
X751015Y-5860960D02*
X741491Y-5851436D01*
X741491Y-5851436D02*
X731967Y-5832388D01*
X731967Y-5832388D02*
X722443Y-5794293D01*
X722443Y-5794293D02*
X722443Y-5746674D01*
X722443Y-5746674D02*
X731967Y-5708579D01*
X731967Y-5708579D02*
X741491Y-5689531D01*
X741491Y-5689531D02*
X751015Y-5680008D01*
X751015Y-5680008D02*
X770062Y-5670484D01*
X960539Y-5670484D02*
X979586Y-5670484D01*
X979586Y-5670484D02*
X998634Y-5680008D01*
X998634Y-5680008D02*
X1008158Y-5689531D01*
X1008158Y-5689531D02*
X1017682Y-5708579D01*
X1017682Y-5708579D02*
X1027205Y-5746674D01*
X1027205Y-5746674D02*
X1027205Y-5794293D01*
X1027205Y-5794293D02*
X1017682Y-5832388D01*
X1017682Y-5832388D02*
X1008158Y-5851436D01*
X1008158Y-5851436D02*
X998634Y-5860960D01*
X998634Y-5860960D02*
X979586Y-5870484D01*
X979586Y-5870484D02*
X960539Y-5870484D01*
X960539Y-5870484D02*
X941491Y-5860960D01*
X941491Y-5860960D02*
X931967Y-5851436D01*
X931967Y-5851436D02*
X922443Y-5832388D01*
X922443Y-5832388D02*
X912920Y-5794293D01*
X912920Y-5794293D02*
X912920Y-5746674D01*
X912920Y-5746674D02*
X922443Y-5708579D01*
X922443Y-5708579D02*
X931967Y-5689531D01*
X931967Y-5689531D02*
X941491Y-5680008D01*
X941491Y-5680008D02*
X960539Y-5670484D01*
X1112920Y-5870484D02*
X1112920Y-5737150D01*
X1112920Y-5756198D02*
X1122444Y-5746674D01*
X1122444Y-5746674D02*
X1141491Y-5737150D01*
X1141491Y-5737150D02*
X1170063Y-5737150D01*
X1170063Y-5737150D02*
X1189110Y-5746674D01*
X1189110Y-5746674D02*
X1198634Y-5765722D01*
X1198634Y-5765722D02*
X1198634Y-5870484D01*
X1198634Y-5765722D02*
X1208158Y-5746674D01*
X1208158Y-5746674D02*
X1227205Y-5737150D01*
X1227205Y-5737150D02*
X1255777Y-5737150D01*
X1255777Y-5737150D02*
X1274825Y-5746674D01*
X1274825Y-5746674D02*
X1284348Y-5765722D01*
X1284348Y-5765722D02*
X1284348Y-5870484D01*
X1379586Y-5870484D02*
X1379586Y-5737150D01*
X1379586Y-5756198D02*
X1389110Y-5746674D01*
X1389110Y-5746674D02*
X1408158Y-5737150D01*
X1408158Y-5737150D02*
X1436729Y-5737150D01*
X1436729Y-5737150D02*
X1455777Y-5746674D01*
X1455777Y-5746674D02*
X1465301Y-5765722D01*
X1465301Y-5765722D02*
X1465301Y-5870484D01*
X1465301Y-5765722D02*
X1474824Y-5746674D01*
X1474824Y-5746674D02*
X1493872Y-5737150D01*
X1493872Y-5737150D02*
X1522443Y-5737150D01*
X1522443Y-5737150D02*
X1541491Y-5746674D01*
X1541491Y-5746674D02*
X1551015Y-5765722D01*
X1551015Y-5765722D02*
X1551015Y-5870484D01*
X1941491Y-5660960D02*
X1770063Y-5918103D01*
X2198634Y-5670484D02*
X2217682Y-5670484D01*
X2217682Y-5670484D02*
X2236729Y-5680008D01*
X2236729Y-5680008D02*
X2246253Y-5689531D01*
X2246253Y-5689531D02*
X2255777Y-5708579D01*
X2255777Y-5708579D02*
X2265301Y-5746674D01*
X2265301Y-5746674D02*
X2265301Y-5794293D01*
X2265301Y-5794293D02*
X2255777Y-5832388D01*
X2255777Y-5832388D02*
X2246253Y-5851436D01*
X2246253Y-5851436D02*
X2236729Y-5860960D01*
X2236729Y-5860960D02*
X2217682Y-5870484D01*
X2217682Y-5870484D02*
X2198634Y-5870484D01*
X2198634Y-5870484D02*
X2179587Y-5860960D01*
X2179587Y-5860960D02*
X2170063Y-5851436D01*
X2170063Y-5851436D02*
X2160539Y-5832388D01*
X2160539Y-5832388D02*
X2151015Y-5794293D01*
X2151015Y-5794293D02*
X2151015Y-5746674D01*
X2151015Y-5746674D02*
X2160539Y-5708579D01*
X2160539Y-5708579D02*
X2170063Y-5689531D01*
X2170063Y-5689531D02*
X2179587Y-5680008D01*
X2179587Y-5680008D02*
X2198634Y-5670484D01*
X2351015Y-5851436D02*
X2360539Y-5860960D01*
X2360539Y-5860960D02*
X2351015Y-5870484D01*
X2351015Y-5870484D02*
X2341491Y-5860960D01*
X2341491Y-5860960D02*
X2351015Y-5851436D01*
X2351015Y-5851436D02*
X2351015Y-5870484D01*
X2484348Y-5670484D02*
X2503396Y-5670484D01*
X2503396Y-5670484D02*
X2522444Y-5680008D01*
X2522444Y-5680008D02*
X2531968Y-5689531D01*
X2531968Y-5689531D02*
X2541491Y-5708579D01*
X2541491Y-5708579D02*
X2551015Y-5746674D01*
X2551015Y-5746674D02*
X2551015Y-5794293D01*
X2551015Y-5794293D02*
X2541491Y-5832388D01*
X2541491Y-5832388D02*
X2531968Y-5851436D01*
X2531968Y-5851436D02*
X2522444Y-5860960D01*
X2522444Y-5860960D02*
X2503396Y-5870484D01*
X2503396Y-5870484D02*
X2484348Y-5870484D01*
X2484348Y-5870484D02*
X2465301Y-5860960D01*
X2465301Y-5860960D02*
X2455777Y-5851436D01*
X2455777Y-5851436D02*
X2446253Y-5832388D01*
X2446253Y-5832388D02*
X2436729Y-5794293D01*
X2436729Y-5794293D02*
X2436729Y-5746674D01*
X2436729Y-5746674D02*
X2446253Y-5708579D01*
X2446253Y-5708579D02*
X2455777Y-5689531D01*
X2455777Y-5689531D02*
X2465301Y-5680008D01*
X2465301Y-5680008D02*
X2484348Y-5670484D01*
X2722444Y-5737150D02*
X2722444Y-5870484D01*
X2674825Y-5660960D02*
X2627206Y-5803817D01*
X2627206Y-5803817D02*
X2751015Y-5803817D01*
X2808158Y-5670484D02*
X2941491Y-5670484D01*
X2941491Y-5670484D02*
X2855777Y-5870484D01*
X3008158Y-5689531D02*
X3017682Y-5680008D01*
X3017682Y-5680008D02*
X3036729Y-5670484D01*
X3036729Y-5670484D02*
X3084348Y-5670484D01*
X3084348Y-5670484D02*
X3103396Y-5680008D01*
X3103396Y-5680008D02*
X3112920Y-5689531D01*
X3112920Y-5689531D02*
X3122444Y-5708579D01*
X3122444Y-5708579D02*
X3122444Y-5727627D01*
X3122444Y-5727627D02*
X3112920Y-5756198D01*
X3112920Y-5756198D02*
X2998634Y-5870484D01*
X2998634Y-5870484D02*
X3122444Y-5870484D01*
X3198634Y-5670484D02*
X3198634Y-5708579D01*
X3274825Y-5670484D02*
X3274825Y-5708579D01*
X3570063Y-5946674D02*
X3560539Y-5937150D01*
X3560539Y-5937150D02*
X3541491Y-5908579D01*
X3541491Y-5908579D02*
X3531968Y-5889531D01*
X3531968Y-5889531D02*
X3522444Y-5860960D01*
X3522444Y-5860960D02*
X3512920Y-5813341D01*
X3512920Y-5813341D02*
X3512920Y-5775246D01*
X3512920Y-5775246D02*
X3522444Y-5727627D01*
X3522444Y-5727627D02*
X3531968Y-5699055D01*
X3531968Y-5699055D02*
X3541491Y-5680008D01*
X3541491Y-5680008D02*
X3560539Y-5651436D01*
X3560539Y-5651436D02*
X3570063Y-5641912D01*
X3655777Y-5870484D02*
X3693872Y-5870484D01*
X3693872Y-5870484D02*
X3712920Y-5860960D01*
X3712920Y-5860960D02*
X3722444Y-5851436D01*
X3722444Y-5851436D02*
X3741491Y-5822865D01*
X3741491Y-5822865D02*
X3751015Y-5784769D01*
X3751015Y-5784769D02*
X3751015Y-5708579D01*
X3751015Y-5708579D02*
X3741491Y-5689531D01*
X3741491Y-5689531D02*
X3731968Y-5680008D01*
X3731968Y-5680008D02*
X3712920Y-5670484D01*
X3712920Y-5670484D02*
X3674825Y-5670484D01*
X3674825Y-5670484D02*
X3655777Y-5680008D01*
X3655777Y-5680008D02*
X3646253Y-5689531D01*
X3646253Y-5689531D02*
X3636729Y-5708579D01*
X3636729Y-5708579D02*
X3636729Y-5756198D01*
X3636729Y-5756198D02*
X3646253Y-5775246D01*
X3646253Y-5775246D02*
X3655777Y-5784769D01*
X3655777Y-5784769D02*
X3674825Y-5794293D01*
X3674825Y-5794293D02*
X3712920Y-5794293D01*
X3712920Y-5794293D02*
X3731968Y-5784769D01*
X3731968Y-5784769D02*
X3741491Y-5775246D01*
X3741491Y-5775246D02*
X3751015Y-5756198D01*
X3989110Y-5870484D02*
X3989110Y-5670484D01*
X4074825Y-5870484D02*
X4074825Y-5765722D01*
X4074825Y-5765722D02*
X4065301Y-5746674D01*
X4065301Y-5746674D02*
X4046253Y-5737150D01*
X4046253Y-5737150D02*
X4017682Y-5737150D01*
X4017682Y-5737150D02*
X3998634Y-5746674D01*
X3998634Y-5746674D02*
X3989110Y-5756198D01*
X4198634Y-5870484D02*
X4179587Y-5860960D01*
X4179587Y-5860960D02*
X4170063Y-5851436D01*
X4170063Y-5851436D02*
X4160539Y-5832388D01*
X4160539Y-5832388D02*
X4160539Y-5775246D01*
X4160539Y-5775246D02*
X4170063Y-5756198D01*
X4170063Y-5756198D02*
X4179587Y-5746674D01*
X4179587Y-5746674D02*
X4198634Y-5737150D01*
X4198634Y-5737150D02*
X4227206Y-5737150D01*
X4227206Y-5737150D02*
X4246253Y-5746674D01*
X4246253Y-5746674D02*
X4255777Y-5756198D01*
X4255777Y-5756198D02*
X4265301Y-5775246D01*
X4265301Y-5775246D02*
X4265301Y-5832388D01*
X4265301Y-5832388D02*
X4255777Y-5851436D01*
X4255777Y-5851436D02*
X4246253Y-5860960D01*
X4246253Y-5860960D02*
X4227206Y-5870484D01*
X4227206Y-5870484D02*
X4198634Y-5870484D01*
X4379587Y-5870484D02*
X4360539Y-5860960D01*
X4360539Y-5860960D02*
X4351015Y-5841912D01*
X4351015Y-5841912D02*
X4351015Y-5670484D01*
X4531968Y-5860960D02*
X4512920Y-5870484D01*
X4512920Y-5870484D02*
X4474825Y-5870484D01*
X4474825Y-5870484D02*
X4455777Y-5860960D01*
X4455777Y-5860960D02*
X4446253Y-5841912D01*
X4446253Y-5841912D02*
X4446253Y-5765722D01*
X4446253Y-5765722D02*
X4455777Y-5746674D01*
X4455777Y-5746674D02*
X4474825Y-5737150D01*
X4474825Y-5737150D02*
X4512920Y-5737150D01*
X4512920Y-5737150D02*
X4531968Y-5746674D01*
X4531968Y-5746674D02*
X4541492Y-5765722D01*
X4541492Y-5765722D02*
X4541492Y-5784769D01*
X4541492Y-5784769D02*
X4446253Y-5803817D01*
X4617682Y-5860960D02*
X4636730Y-5870484D01*
X4636730Y-5870484D02*
X4674825Y-5870484D01*
X4674825Y-5870484D02*
X4693873Y-5860960D01*
X4693873Y-5860960D02*
X4703396Y-5841912D01*
X4703396Y-5841912D02*
X4703396Y-5832388D01*
X4703396Y-5832388D02*
X4693873Y-5813341D01*
X4693873Y-5813341D02*
X4674825Y-5803817D01*
X4674825Y-5803817D02*
X4646253Y-5803817D01*
X4646253Y-5803817D02*
X4627206Y-5794293D01*
X4627206Y-5794293D02*
X4617682Y-5775246D01*
X4617682Y-5775246D02*
X4617682Y-5765722D01*
X4617682Y-5765722D02*
X4627206Y-5746674D01*
X4627206Y-5746674D02*
X4646253Y-5737150D01*
X4646253Y-5737150D02*
X4674825Y-5737150D01*
X4674825Y-5737150D02*
X4693873Y-5746674D01*
X4941492Y-5794293D02*
X5093873Y-5794293D01*
X5017682Y-5870484D02*
X5017682Y-5718103D01*
X5446254Y-5870484D02*
X5331968Y-5870484D01*
X5389111Y-5870484D02*
X5389111Y-5670484D01*
X5389111Y-5670484D02*
X5370063Y-5699055D01*
X5370063Y-5699055D02*
X5351015Y-5718103D01*
X5351015Y-5718103D02*
X5331968Y-5727627D01*
X5674825Y-5860960D02*
X5693873Y-5870484D01*
X5693873Y-5870484D02*
X5731968Y-5870484D01*
X5731968Y-5870484D02*
X5751015Y-5860960D01*
X5751015Y-5860960D02*
X5760539Y-5841912D01*
X5760539Y-5841912D02*
X5760539Y-5832388D01*
X5760539Y-5832388D02*
X5751015Y-5813341D01*
X5751015Y-5813341D02*
X5731968Y-5803817D01*
X5731968Y-5803817D02*
X5703396Y-5803817D01*
X5703396Y-5803817D02*
X5684349Y-5794293D01*
X5684349Y-5794293D02*
X5674825Y-5775246D01*
X5674825Y-5775246D02*
X5674825Y-5765722D01*
X5674825Y-5765722D02*
X5684349Y-5746674D01*
X5684349Y-5746674D02*
X5703396Y-5737150D01*
X5703396Y-5737150D02*
X5731968Y-5737150D01*
X5731968Y-5737150D02*
X5751015Y-5746674D01*
X5874825Y-5870484D02*
X5855777Y-5860960D01*
X5855777Y-5860960D02*
X5846254Y-5841912D01*
X5846254Y-5841912D02*
X5846254Y-5670484D01*
X5979587Y-5870484D02*
X5960539Y-5860960D01*
X5960539Y-5860960D02*
X5951015Y-5851436D01*
X5951015Y-5851436D02*
X5941492Y-5832388D01*
X5941492Y-5832388D02*
X5941492Y-5775246D01*
X5941492Y-5775246D02*
X5951015Y-5756198D01*
X5951015Y-5756198D02*
X5960539Y-5746674D01*
X5960539Y-5746674D02*
X5979587Y-5737150D01*
X5979587Y-5737150D02*
X6008158Y-5737150D01*
X6008158Y-5737150D02*
X6027206Y-5746674D01*
X6027206Y-5746674D02*
X6036730Y-5756198D01*
X6036730Y-5756198D02*
X6046254Y-5775246D01*
X6046254Y-5775246D02*
X6046254Y-5832388D01*
X6046254Y-5832388D02*
X6036730Y-5851436D01*
X6036730Y-5851436D02*
X6027206Y-5860960D01*
X6027206Y-5860960D02*
X6008158Y-5870484D01*
X6008158Y-5870484D02*
X5979587Y-5870484D01*
X6103396Y-5737150D02*
X6179587Y-5737150D01*
X6131968Y-5670484D02*
X6131968Y-5841912D01*
X6131968Y-5841912D02*
X6141492Y-5860960D01*
X6141492Y-5860960D02*
X6160539Y-5870484D01*
X6160539Y-5870484D02*
X6179587Y-5870484D01*
X6227206Y-5946674D02*
X6236730Y-5937150D01*
X6236730Y-5937150D02*
X6255777Y-5908579D01*
X6255777Y-5908579D02*
X6265301Y-5889531D01*
X6265301Y-5889531D02*
X6274825Y-5860960D01*
X6274825Y-5860960D02*
X6284349Y-5813341D01*
X6284349Y-5813341D02*
X6284349Y-5775246D01*
X6284349Y-5775246D02*
X6274825Y-5727627D01*
X6274825Y-5727627D02*
X6265301Y-5699055D01*
X6265301Y-5699055D02*
X6255777Y-5680008D01*
X6255777Y-5680008D02*
X6236730Y-5651436D01*
X6236730Y-5651436D02*
X6227206Y-5641912D01*
X-205000Y-5943000D02*
X-5000Y-6143000D01*
X-5000Y-5943000D02*
X-205000Y-6143000D01*
X-34289Y-6113711D02*
X-34289Y-5972289D01*
X-175711Y-5972289D01*
X-175711Y-6113711D01*
X-34289Y-6113711D01*
X246253Y-5953531D02*
X255777Y-5944008D01*
X255777Y-5944008D02*
X274824Y-5934484D01*
X274824Y-5934484D02*
X322444Y-5934484D01*
X322444Y-5934484D02*
X341491Y-5944008D01*
X341491Y-5944008D02*
X351015Y-5953531D01*
X351015Y-5953531D02*
X360539Y-5972579D01*
X360539Y-5972579D02*
X360539Y-5991627D01*
X360539Y-5991627D02*
X351015Y-6020198D01*
X351015Y-6020198D02*
X236729Y-6134484D01*
X236729Y-6134484D02*
X360539Y-6134484D01*
X446253Y-6115436D02*
X455777Y-6124960D01*
X455777Y-6124960D02*
X446253Y-6134484D01*
X446253Y-6134484D02*
X436729Y-6124960D01*
X436729Y-6124960D02*
X446253Y-6115436D01*
X446253Y-6115436D02*
X446253Y-6134484D01*
X531967Y-5953531D02*
X541491Y-5944008D01*
X541491Y-5944008D02*
X560539Y-5934484D01*
X560539Y-5934484D02*
X608158Y-5934484D01*
X608158Y-5934484D02*
X627205Y-5944008D01*
X627205Y-5944008D02*
X636729Y-5953531D01*
X636729Y-5953531D02*
X646253Y-5972579D01*
X646253Y-5972579D02*
X646253Y-5991627D01*
X646253Y-5991627D02*
X636729Y-6020198D01*
X636729Y-6020198D02*
X522443Y-6134484D01*
X522443Y-6134484D02*
X646253Y-6134484D01*
X770062Y-5934484D02*
X789110Y-5934484D01*
X789110Y-5934484D02*
X808158Y-5944008D01*
X808158Y-5944008D02*
X817682Y-5953531D01*
X817682Y-5953531D02*
X827205Y-5972579D01*
X827205Y-5972579D02*
X836729Y-6010674D01*
X836729Y-6010674D02*
X836729Y-6058293D01*
X836729Y-6058293D02*
X827205Y-6096388D01*
X827205Y-6096388D02*
X817682Y-6115436D01*
X817682Y-6115436D02*
X808158Y-6124960D01*
X808158Y-6124960D02*
X789110Y-6134484D01*
X789110Y-6134484D02*
X770062Y-6134484D01*
X770062Y-6134484D02*
X751015Y-6124960D01*
X751015Y-6124960D02*
X741491Y-6115436D01*
X741491Y-6115436D02*
X731967Y-6096388D01*
X731967Y-6096388D02*
X722443Y-6058293D01*
X722443Y-6058293D02*
X722443Y-6010674D01*
X722443Y-6010674D02*
X731967Y-5972579D01*
X731967Y-5972579D02*
X741491Y-5953531D01*
X741491Y-5953531D02*
X751015Y-5944008D01*
X751015Y-5944008D02*
X770062Y-5934484D01*
X960539Y-5934484D02*
X979586Y-5934484D01*
X979586Y-5934484D02*
X998634Y-5944008D01*
X998634Y-5944008D02*
X1008158Y-5953531D01*
X1008158Y-5953531D02*
X1017682Y-5972579D01*
X1017682Y-5972579D02*
X1027205Y-6010674D01*
X1027205Y-6010674D02*
X1027205Y-6058293D01*
X1027205Y-6058293D02*
X1017682Y-6096388D01*
X1017682Y-6096388D02*
X1008158Y-6115436D01*
X1008158Y-6115436D02*
X998634Y-6124960D01*
X998634Y-6124960D02*
X979586Y-6134484D01*
X979586Y-6134484D02*
X960539Y-6134484D01*
X960539Y-6134484D02*
X941491Y-6124960D01*
X941491Y-6124960D02*
X931967Y-6115436D01*
X931967Y-6115436D02*
X922443Y-6096388D01*
X922443Y-6096388D02*
X912920Y-6058293D01*
X912920Y-6058293D02*
X912920Y-6010674D01*
X912920Y-6010674D02*
X922443Y-5972579D01*
X922443Y-5972579D02*
X931967Y-5953531D01*
X931967Y-5953531D02*
X941491Y-5944008D01*
X941491Y-5944008D02*
X960539Y-5934484D01*
X1112920Y-6134484D02*
X1112920Y-6001150D01*
X1112920Y-6020198D02*
X1122444Y-6010674D01*
X1122444Y-6010674D02*
X1141491Y-6001150D01*
X1141491Y-6001150D02*
X1170063Y-6001150D01*
X1170063Y-6001150D02*
X1189110Y-6010674D01*
X1189110Y-6010674D02*
X1198634Y-6029722D01*
X1198634Y-6029722D02*
X1198634Y-6134484D01*
X1198634Y-6029722D02*
X1208158Y-6010674D01*
X1208158Y-6010674D02*
X1227205Y-6001150D01*
X1227205Y-6001150D02*
X1255777Y-6001150D01*
X1255777Y-6001150D02*
X1274825Y-6010674D01*
X1274825Y-6010674D02*
X1284348Y-6029722D01*
X1284348Y-6029722D02*
X1284348Y-6134484D01*
X1379586Y-6134484D02*
X1379586Y-6001150D01*
X1379586Y-6020198D02*
X1389110Y-6010674D01*
X1389110Y-6010674D02*
X1408158Y-6001150D01*
X1408158Y-6001150D02*
X1436729Y-6001150D01*
X1436729Y-6001150D02*
X1455777Y-6010674D01*
X1455777Y-6010674D02*
X1465301Y-6029722D01*
X1465301Y-6029722D02*
X1465301Y-6134484D01*
X1465301Y-6029722D02*
X1474824Y-6010674D01*
X1474824Y-6010674D02*
X1493872Y-6001150D01*
X1493872Y-6001150D02*
X1522443Y-6001150D01*
X1522443Y-6001150D02*
X1541491Y-6010674D01*
X1541491Y-6010674D02*
X1551015Y-6029722D01*
X1551015Y-6029722D02*
X1551015Y-6134484D01*
X1941491Y-5924960D02*
X1770063Y-6182103D01*
X2198634Y-5934484D02*
X2217682Y-5934484D01*
X2217682Y-5934484D02*
X2236729Y-5944008D01*
X2236729Y-5944008D02*
X2246253Y-5953531D01*
X2246253Y-5953531D02*
X2255777Y-5972579D01*
X2255777Y-5972579D02*
X2265301Y-6010674D01*
X2265301Y-6010674D02*
X2265301Y-6058293D01*
X2265301Y-6058293D02*
X2255777Y-6096388D01*
X2255777Y-6096388D02*
X2246253Y-6115436D01*
X2246253Y-6115436D02*
X2236729Y-6124960D01*
X2236729Y-6124960D02*
X2217682Y-6134484D01*
X2217682Y-6134484D02*
X2198634Y-6134484D01*
X2198634Y-6134484D02*
X2179587Y-6124960D01*
X2179587Y-6124960D02*
X2170063Y-6115436D01*
X2170063Y-6115436D02*
X2160539Y-6096388D01*
X2160539Y-6096388D02*
X2151015Y-6058293D01*
X2151015Y-6058293D02*
X2151015Y-6010674D01*
X2151015Y-6010674D02*
X2160539Y-5972579D01*
X2160539Y-5972579D02*
X2170063Y-5953531D01*
X2170063Y-5953531D02*
X2179587Y-5944008D01*
X2179587Y-5944008D02*
X2198634Y-5934484D01*
X2351015Y-6115436D02*
X2360539Y-6124960D01*
X2360539Y-6124960D02*
X2351015Y-6134484D01*
X2351015Y-6134484D02*
X2341491Y-6124960D01*
X2341491Y-6124960D02*
X2351015Y-6115436D01*
X2351015Y-6115436D02*
X2351015Y-6134484D01*
X2484348Y-5934484D02*
X2503396Y-5934484D01*
X2503396Y-5934484D02*
X2522444Y-5944008D01*
X2522444Y-5944008D02*
X2531968Y-5953531D01*
X2531968Y-5953531D02*
X2541491Y-5972579D01*
X2541491Y-5972579D02*
X2551015Y-6010674D01*
X2551015Y-6010674D02*
X2551015Y-6058293D01*
X2551015Y-6058293D02*
X2541491Y-6096388D01*
X2541491Y-6096388D02*
X2531968Y-6115436D01*
X2531968Y-6115436D02*
X2522444Y-6124960D01*
X2522444Y-6124960D02*
X2503396Y-6134484D01*
X2503396Y-6134484D02*
X2484348Y-6134484D01*
X2484348Y-6134484D02*
X2465301Y-6124960D01*
X2465301Y-6124960D02*
X2455777Y-6115436D01*
X2455777Y-6115436D02*
X2446253Y-6096388D01*
X2446253Y-6096388D02*
X2436729Y-6058293D01*
X2436729Y-6058293D02*
X2436729Y-6010674D01*
X2436729Y-6010674D02*
X2446253Y-5972579D01*
X2446253Y-5972579D02*
X2455777Y-5953531D01*
X2455777Y-5953531D02*
X2465301Y-5944008D01*
X2465301Y-5944008D02*
X2484348Y-5934484D01*
X2665301Y-6020198D02*
X2646253Y-6010674D01*
X2646253Y-6010674D02*
X2636729Y-6001150D01*
X2636729Y-6001150D02*
X2627206Y-5982103D01*
X2627206Y-5982103D02*
X2627206Y-5972579D01*
X2627206Y-5972579D02*
X2636729Y-5953531D01*
X2636729Y-5953531D02*
X2646253Y-5944008D01*
X2646253Y-5944008D02*
X2665301Y-5934484D01*
X2665301Y-5934484D02*
X2703396Y-5934484D01*
X2703396Y-5934484D02*
X2722444Y-5944008D01*
X2722444Y-5944008D02*
X2731968Y-5953531D01*
X2731968Y-5953531D02*
X2741491Y-5972579D01*
X2741491Y-5972579D02*
X2741491Y-5982103D01*
X2741491Y-5982103D02*
X2731968Y-6001150D01*
X2731968Y-6001150D02*
X2722444Y-6010674D01*
X2722444Y-6010674D02*
X2703396Y-6020198D01*
X2703396Y-6020198D02*
X2665301Y-6020198D01*
X2665301Y-6020198D02*
X2646253Y-6029722D01*
X2646253Y-6029722D02*
X2636729Y-6039246D01*
X2636729Y-6039246D02*
X2627206Y-6058293D01*
X2627206Y-6058293D02*
X2627206Y-6096388D01*
X2627206Y-6096388D02*
X2636729Y-6115436D01*
X2636729Y-6115436D02*
X2646253Y-6124960D01*
X2646253Y-6124960D02*
X2665301Y-6134484D01*
X2665301Y-6134484D02*
X2703396Y-6134484D01*
X2703396Y-6134484D02*
X2722444Y-6124960D01*
X2722444Y-6124960D02*
X2731968Y-6115436D01*
X2731968Y-6115436D02*
X2741491Y-6096388D01*
X2741491Y-6096388D02*
X2741491Y-6058293D01*
X2741491Y-6058293D02*
X2731968Y-6039246D01*
X2731968Y-6039246D02*
X2722444Y-6029722D01*
X2722444Y-6029722D02*
X2703396Y-6020198D01*
X2912920Y-5934484D02*
X2874825Y-5934484D01*
X2874825Y-5934484D02*
X2855777Y-5944008D01*
X2855777Y-5944008D02*
X2846253Y-5953531D01*
X2846253Y-5953531D02*
X2827206Y-5982103D01*
X2827206Y-5982103D02*
X2817682Y-6020198D01*
X2817682Y-6020198D02*
X2817682Y-6096388D01*
X2817682Y-6096388D02*
X2827206Y-6115436D01*
X2827206Y-6115436D02*
X2836729Y-6124960D01*
X2836729Y-6124960D02*
X2855777Y-6134484D01*
X2855777Y-6134484D02*
X2893872Y-6134484D01*
X2893872Y-6134484D02*
X2912920Y-6124960D01*
X2912920Y-6124960D02*
X2922444Y-6115436D01*
X2922444Y-6115436D02*
X2931967Y-6096388D01*
X2931967Y-6096388D02*
X2931967Y-6048769D01*
X2931967Y-6048769D02*
X2922444Y-6029722D01*
X2922444Y-6029722D02*
X2912920Y-6020198D01*
X2912920Y-6020198D02*
X2893872Y-6010674D01*
X2893872Y-6010674D02*
X2855777Y-6010674D01*
X2855777Y-6010674D02*
X2836729Y-6020198D01*
X2836729Y-6020198D02*
X2827206Y-6029722D01*
X2827206Y-6029722D02*
X2817682Y-6048769D01*
X3103396Y-5934484D02*
X3065301Y-5934484D01*
X3065301Y-5934484D02*
X3046253Y-5944008D01*
X3046253Y-5944008D02*
X3036729Y-5953531D01*
X3036729Y-5953531D02*
X3017682Y-5982103D01*
X3017682Y-5982103D02*
X3008158Y-6020198D01*
X3008158Y-6020198D02*
X3008158Y-6096388D01*
X3008158Y-6096388D02*
X3017682Y-6115436D01*
X3017682Y-6115436D02*
X3027206Y-6124960D01*
X3027206Y-6124960D02*
X3046253Y-6134484D01*
X3046253Y-6134484D02*
X3084348Y-6134484D01*
X3084348Y-6134484D02*
X3103396Y-6124960D01*
X3103396Y-6124960D02*
X3112920Y-6115436D01*
X3112920Y-6115436D02*
X3122444Y-6096388D01*
X3122444Y-6096388D02*
X3122444Y-6048769D01*
X3122444Y-6048769D02*
X3112920Y-6029722D01*
X3112920Y-6029722D02*
X3103396Y-6020198D01*
X3103396Y-6020198D02*
X3084348Y-6010674D01*
X3084348Y-6010674D02*
X3046253Y-6010674D01*
X3046253Y-6010674D02*
X3027206Y-6020198D01*
X3027206Y-6020198D02*
X3017682Y-6029722D01*
X3017682Y-6029722D02*
X3008158Y-6048769D01*
X3198634Y-5934484D02*
X3198634Y-5972579D01*
X3274825Y-5934484D02*
X3274825Y-5972579D01*
X3570063Y-6210674D02*
X3560539Y-6201150D01*
X3560539Y-6201150D02*
X3541491Y-6172579D01*
X3541491Y-6172579D02*
X3531968Y-6153531D01*
X3531968Y-6153531D02*
X3522444Y-6124960D01*
X3522444Y-6124960D02*
X3512920Y-6077341D01*
X3512920Y-6077341D02*
X3512920Y-6039246D01*
X3512920Y-6039246D02*
X3522444Y-5991627D01*
X3522444Y-5991627D02*
X3531968Y-5963055D01*
X3531968Y-5963055D02*
X3541491Y-5944008D01*
X3541491Y-5944008D02*
X3560539Y-5915436D01*
X3560539Y-5915436D02*
X3570063Y-5905912D01*
X3684348Y-5934484D02*
X3703396Y-5934484D01*
X3703396Y-5934484D02*
X3722444Y-5944008D01*
X3722444Y-5944008D02*
X3731968Y-5953531D01*
X3731968Y-5953531D02*
X3741491Y-5972579D01*
X3741491Y-5972579D02*
X3751015Y-6010674D01*
X3751015Y-6010674D02*
X3751015Y-6058293D01*
X3751015Y-6058293D02*
X3741491Y-6096388D01*
X3741491Y-6096388D02*
X3731968Y-6115436D01*
X3731968Y-6115436D02*
X3722444Y-6124960D01*
X3722444Y-6124960D02*
X3703396Y-6134484D01*
X3703396Y-6134484D02*
X3684348Y-6134484D01*
X3684348Y-6134484D02*
X3665301Y-6124960D01*
X3665301Y-6124960D02*
X3655777Y-6115436D01*
X3655777Y-6115436D02*
X3646253Y-6096388D01*
X3646253Y-6096388D02*
X3636729Y-6058293D01*
X3636729Y-6058293D02*
X3636729Y-6010674D01*
X3636729Y-6010674D02*
X3646253Y-5972579D01*
X3646253Y-5972579D02*
X3655777Y-5953531D01*
X3655777Y-5953531D02*
X3665301Y-5944008D01*
X3665301Y-5944008D02*
X3684348Y-5934484D01*
X3989110Y-6134484D02*
X3989110Y-5934484D01*
X4074825Y-6134484D02*
X4074825Y-6029722D01*
X4074825Y-6029722D02*
X4065301Y-6010674D01*
X4065301Y-6010674D02*
X4046253Y-6001150D01*
X4046253Y-6001150D02*
X4017682Y-6001150D01*
X4017682Y-6001150D02*
X3998634Y-6010674D01*
X3998634Y-6010674D02*
X3989110Y-6020198D01*
X4198634Y-6134484D02*
X4179587Y-6124960D01*
X4179587Y-6124960D02*
X4170063Y-6115436D01*
X4170063Y-6115436D02*
X4160539Y-6096388D01*
X4160539Y-6096388D02*
X4160539Y-6039246D01*
X4160539Y-6039246D02*
X4170063Y-6020198D01*
X4170063Y-6020198D02*
X4179587Y-6010674D01*
X4179587Y-6010674D02*
X4198634Y-6001150D01*
X4198634Y-6001150D02*
X4227206Y-6001150D01*
X4227206Y-6001150D02*
X4246253Y-6010674D01*
X4246253Y-6010674D02*
X4255777Y-6020198D01*
X4255777Y-6020198D02*
X4265301Y-6039246D01*
X4265301Y-6039246D02*
X4265301Y-6096388D01*
X4265301Y-6096388D02*
X4255777Y-6115436D01*
X4255777Y-6115436D02*
X4246253Y-6124960D01*
X4246253Y-6124960D02*
X4227206Y-6134484D01*
X4227206Y-6134484D02*
X4198634Y-6134484D01*
X4379587Y-6134484D02*
X4360539Y-6124960D01*
X4360539Y-6124960D02*
X4351015Y-6105912D01*
X4351015Y-6105912D02*
X4351015Y-5934484D01*
X4531968Y-6124960D02*
X4512920Y-6134484D01*
X4512920Y-6134484D02*
X4474825Y-6134484D01*
X4474825Y-6134484D02*
X4455777Y-6124960D01*
X4455777Y-6124960D02*
X4446253Y-6105912D01*
X4446253Y-6105912D02*
X4446253Y-6029722D01*
X4446253Y-6029722D02*
X4455777Y-6010674D01*
X4455777Y-6010674D02*
X4474825Y-6001150D01*
X4474825Y-6001150D02*
X4512920Y-6001150D01*
X4512920Y-6001150D02*
X4531968Y-6010674D01*
X4531968Y-6010674D02*
X4541492Y-6029722D01*
X4541492Y-6029722D02*
X4541492Y-6048769D01*
X4541492Y-6048769D02*
X4446253Y-6067817D01*
X4617682Y-6124960D02*
X4636730Y-6134484D01*
X4636730Y-6134484D02*
X4674825Y-6134484D01*
X4674825Y-6134484D02*
X4693873Y-6124960D01*
X4693873Y-6124960D02*
X4703396Y-6105912D01*
X4703396Y-6105912D02*
X4703396Y-6096388D01*
X4703396Y-6096388D02*
X4693873Y-6077341D01*
X4693873Y-6077341D02*
X4674825Y-6067817D01*
X4674825Y-6067817D02*
X4646253Y-6067817D01*
X4646253Y-6067817D02*
X4627206Y-6058293D01*
X4627206Y-6058293D02*
X4617682Y-6039246D01*
X4617682Y-6039246D02*
X4617682Y-6029722D01*
X4617682Y-6029722D02*
X4627206Y-6010674D01*
X4627206Y-6010674D02*
X4646253Y-6001150D01*
X4646253Y-6001150D02*
X4674825Y-6001150D01*
X4674825Y-6001150D02*
X4693873Y-6010674D01*
X4941492Y-6058293D02*
X5093873Y-6058293D01*
X5017682Y-6134484D02*
X5017682Y-5982103D01*
X5427206Y-5934484D02*
X5389111Y-5934484D01*
X5389111Y-5934484D02*
X5370063Y-5944008D01*
X5370063Y-5944008D02*
X5360539Y-5953531D01*
X5360539Y-5953531D02*
X5341492Y-5982103D01*
X5341492Y-5982103D02*
X5331968Y-6020198D01*
X5331968Y-6020198D02*
X5331968Y-6096388D01*
X5331968Y-6096388D02*
X5341492Y-6115436D01*
X5341492Y-6115436D02*
X5351015Y-6124960D01*
X5351015Y-6124960D02*
X5370063Y-6134484D01*
X5370063Y-6134484D02*
X5408158Y-6134484D01*
X5408158Y-6134484D02*
X5427206Y-6124960D01*
X5427206Y-6124960D02*
X5436730Y-6115436D01*
X5436730Y-6115436D02*
X5446254Y-6096388D01*
X5446254Y-6096388D02*
X5446254Y-6048769D01*
X5446254Y-6048769D02*
X5436730Y-6029722D01*
X5436730Y-6029722D02*
X5427206Y-6020198D01*
X5427206Y-6020198D02*
X5408158Y-6010674D01*
X5408158Y-6010674D02*
X5370063Y-6010674D01*
X5370063Y-6010674D02*
X5351015Y-6020198D01*
X5351015Y-6020198D02*
X5341492Y-6029722D01*
X5341492Y-6029722D02*
X5331968Y-6048769D01*
X5674825Y-6124960D02*
X5693873Y-6134484D01*
X5693873Y-6134484D02*
X5731968Y-6134484D01*
X5731968Y-6134484D02*
X5751015Y-6124960D01*
X5751015Y-6124960D02*
X5760539Y-6105912D01*
X5760539Y-6105912D02*
X5760539Y-6096388D01*
X5760539Y-6096388D02*
X5751015Y-6077341D01*
X5751015Y-6077341D02*
X5731968Y-6067817D01*
X5731968Y-6067817D02*
X5703396Y-6067817D01*
X5703396Y-6067817D02*
X5684349Y-6058293D01*
X5684349Y-6058293D02*
X5674825Y-6039246D01*
X5674825Y-6039246D02*
X5674825Y-6029722D01*
X5674825Y-6029722D02*
X5684349Y-6010674D01*
X5684349Y-6010674D02*
X5703396Y-6001150D01*
X5703396Y-6001150D02*
X5731968Y-6001150D01*
X5731968Y-6001150D02*
X5751015Y-6010674D01*
X5874825Y-6134484D02*
X5855777Y-6124960D01*
X5855777Y-6124960D02*
X5846254Y-6105912D01*
X5846254Y-6105912D02*
X5846254Y-5934484D01*
X5979587Y-6134484D02*
X5960539Y-6124960D01*
X5960539Y-6124960D02*
X5951015Y-6115436D01*
X5951015Y-6115436D02*
X5941492Y-6096388D01*
X5941492Y-6096388D02*
X5941492Y-6039246D01*
X5941492Y-6039246D02*
X5951015Y-6020198D01*
X5951015Y-6020198D02*
X5960539Y-6010674D01*
X5960539Y-6010674D02*
X5979587Y-6001150D01*
X5979587Y-6001150D02*
X6008158Y-6001150D01*
X6008158Y-6001150D02*
X6027206Y-6010674D01*
X6027206Y-6010674D02*
X6036730Y-6020198D01*
X6036730Y-6020198D02*
X6046254Y-6039246D01*
X6046254Y-6039246D02*
X6046254Y-6096388D01*
X6046254Y-6096388D02*
X6036730Y-6115436D01*
X6036730Y-6115436D02*
X6027206Y-6124960D01*
X6027206Y-6124960D02*
X6008158Y-6134484D01*
X6008158Y-6134484D02*
X5979587Y-6134484D01*
X6103396Y-6001150D02*
X6179587Y-6001150D01*
X6131968Y-5934484D02*
X6131968Y-6105912D01*
X6131968Y-6105912D02*
X6141492Y-6124960D01*
X6141492Y-6124960D02*
X6160539Y-6134484D01*
X6160539Y-6134484D02*
X6179587Y-6134484D01*
X6236730Y-6124960D02*
X6255777Y-6134484D01*
X6255777Y-6134484D02*
X6293873Y-6134484D01*
X6293873Y-6134484D02*
X6312920Y-6124960D01*
X6312920Y-6124960D02*
X6322444Y-6105912D01*
X6322444Y-6105912D02*
X6322444Y-6096388D01*
X6322444Y-6096388D02*
X6312920Y-6077341D01*
X6312920Y-6077341D02*
X6293873Y-6067817D01*
X6293873Y-6067817D02*
X6265301Y-6067817D01*
X6265301Y-6067817D02*
X6246254Y-6058293D01*
X6246254Y-6058293D02*
X6236730Y-6039246D01*
X6236730Y-6039246D02*
X6236730Y-6029722D01*
X6236730Y-6029722D02*
X6246254Y-6010674D01*
X6246254Y-6010674D02*
X6265301Y-6001150D01*
X6265301Y-6001150D02*
X6293873Y-6001150D01*
X6293873Y-6001150D02*
X6312920Y-6010674D01*
X6389111Y-6210674D02*
X6398635Y-6201150D01*
X6398635Y-6201150D02*
X6417682Y-6172579D01*
X6417682Y-6172579D02*
X6427206Y-6153531D01*
X6427206Y-6153531D02*
X6436730Y-6124960D01*
X6436730Y-6124960D02*
X6446254Y-6077341D01*
X6446254Y-6077341D02*
X6446254Y-6039246D01*
X6446254Y-6039246D02*
X6436730Y-5991627D01*
X6436730Y-5991627D02*
X6427206Y-5963055D01*
X6427206Y-5963055D02*
X6417682Y-5944008D01*
X6417682Y-5944008D02*
X6398635Y-5915436D01*
X6398635Y-5915436D02*
X6389111Y-5905912D01*
X-205000Y-6263000D02*
X-5000Y-6463000D01*
X-5000Y-6263000D02*
X-205000Y-6463000D01*
X-105000Y-6463000D02*
X-5000Y-6363000D01*
X-105000Y-6263000D01*
X-205000Y-6363000D01*
X-105000Y-6463000D01*
X236729Y-6254484D02*
X360539Y-6254484D01*
X360539Y-6254484D02*
X293872Y-6330674D01*
X293872Y-6330674D02*
X322444Y-6330674D01*
X322444Y-6330674D02*
X341491Y-6340198D01*
X341491Y-6340198D02*
X351015Y-6349722D01*
X351015Y-6349722D02*
X360539Y-6368769D01*
X360539Y-6368769D02*
X360539Y-6416388D01*
X360539Y-6416388D02*
X351015Y-6435436D01*
X351015Y-6435436D02*
X341491Y-6444960D01*
X341491Y-6444960D02*
X322444Y-6454484D01*
X322444Y-6454484D02*
X265301Y-6454484D01*
X265301Y-6454484D02*
X246253Y-6444960D01*
X246253Y-6444960D02*
X236729Y-6435436D01*
X446253Y-6435436D02*
X455777Y-6444960D01*
X455777Y-6444960D02*
X446253Y-6454484D01*
X446253Y-6454484D02*
X436729Y-6444960D01*
X436729Y-6444960D02*
X446253Y-6435436D01*
X446253Y-6435436D02*
X446253Y-6454484D01*
X531967Y-6273531D02*
X541491Y-6264008D01*
X541491Y-6264008D02*
X560539Y-6254484D01*
X560539Y-6254484D02*
X608158Y-6254484D01*
X608158Y-6254484D02*
X627205Y-6264008D01*
X627205Y-6264008D02*
X636729Y-6273531D01*
X636729Y-6273531D02*
X646253Y-6292579D01*
X646253Y-6292579D02*
X646253Y-6311627D01*
X646253Y-6311627D02*
X636729Y-6340198D01*
X636729Y-6340198D02*
X522443Y-6454484D01*
X522443Y-6454484D02*
X646253Y-6454484D01*
X770062Y-6254484D02*
X789110Y-6254484D01*
X789110Y-6254484D02*
X808158Y-6264008D01*
X808158Y-6264008D02*
X817682Y-6273531D01*
X817682Y-6273531D02*
X827205Y-6292579D01*
X827205Y-6292579D02*
X836729Y-6330674D01*
X836729Y-6330674D02*
X836729Y-6378293D01*
X836729Y-6378293D02*
X827205Y-6416388D01*
X827205Y-6416388D02*
X817682Y-6435436D01*
X817682Y-6435436D02*
X808158Y-6444960D01*
X808158Y-6444960D02*
X789110Y-6454484D01*
X789110Y-6454484D02*
X770062Y-6454484D01*
X770062Y-6454484D02*
X751015Y-6444960D01*
X751015Y-6444960D02*
X741491Y-6435436D01*
X741491Y-6435436D02*
X731967Y-6416388D01*
X731967Y-6416388D02*
X722443Y-6378293D01*
X722443Y-6378293D02*
X722443Y-6330674D01*
X722443Y-6330674D02*
X731967Y-6292579D01*
X731967Y-6292579D02*
X741491Y-6273531D01*
X741491Y-6273531D02*
X751015Y-6264008D01*
X751015Y-6264008D02*
X770062Y-6254484D01*
X960539Y-6254484D02*
X979586Y-6254484D01*
X979586Y-6254484D02*
X998634Y-6264008D01*
X998634Y-6264008D02*
X1008158Y-6273531D01*
X1008158Y-6273531D02*
X1017682Y-6292579D01*
X1017682Y-6292579D02*
X1027205Y-6330674D01*
X1027205Y-6330674D02*
X1027205Y-6378293D01*
X1027205Y-6378293D02*
X1017682Y-6416388D01*
X1017682Y-6416388D02*
X1008158Y-6435436D01*
X1008158Y-6435436D02*
X998634Y-6444960D01*
X998634Y-6444960D02*
X979586Y-6454484D01*
X979586Y-6454484D02*
X960539Y-6454484D01*
X960539Y-6454484D02*
X941491Y-6444960D01*
X941491Y-6444960D02*
X931967Y-6435436D01*
X931967Y-6435436D02*
X922443Y-6416388D01*
X922443Y-6416388D02*
X912920Y-6378293D01*
X912920Y-6378293D02*
X912920Y-6330674D01*
X912920Y-6330674D02*
X922443Y-6292579D01*
X922443Y-6292579D02*
X931967Y-6273531D01*
X931967Y-6273531D02*
X941491Y-6264008D01*
X941491Y-6264008D02*
X960539Y-6254484D01*
X1112920Y-6454484D02*
X1112920Y-6321150D01*
X1112920Y-6340198D02*
X1122444Y-6330674D01*
X1122444Y-6330674D02*
X1141491Y-6321150D01*
X1141491Y-6321150D02*
X1170063Y-6321150D01*
X1170063Y-6321150D02*
X1189110Y-6330674D01*
X1189110Y-6330674D02*
X1198634Y-6349722D01*
X1198634Y-6349722D02*
X1198634Y-6454484D01*
X1198634Y-6349722D02*
X1208158Y-6330674D01*
X1208158Y-6330674D02*
X1227205Y-6321150D01*
X1227205Y-6321150D02*
X1255777Y-6321150D01*
X1255777Y-6321150D02*
X1274825Y-6330674D01*
X1274825Y-6330674D02*
X1284348Y-6349722D01*
X1284348Y-6349722D02*
X1284348Y-6454484D01*
X1379586Y-6454484D02*
X1379586Y-6321150D01*
X1379586Y-6340198D02*
X1389110Y-6330674D01*
X1389110Y-6330674D02*
X1408158Y-6321150D01*
X1408158Y-6321150D02*
X1436729Y-6321150D01*
X1436729Y-6321150D02*
X1455777Y-6330674D01*
X1455777Y-6330674D02*
X1465301Y-6349722D01*
X1465301Y-6349722D02*
X1465301Y-6454484D01*
X1465301Y-6349722D02*
X1474824Y-6330674D01*
X1474824Y-6330674D02*
X1493872Y-6321150D01*
X1493872Y-6321150D02*
X1522443Y-6321150D01*
X1522443Y-6321150D02*
X1541491Y-6330674D01*
X1541491Y-6330674D02*
X1551015Y-6349722D01*
X1551015Y-6349722D02*
X1551015Y-6454484D01*
X1941491Y-6244960D02*
X1770063Y-6502103D01*
X2198634Y-6254484D02*
X2217682Y-6254484D01*
X2217682Y-6254484D02*
X2236729Y-6264008D01*
X2236729Y-6264008D02*
X2246253Y-6273531D01*
X2246253Y-6273531D02*
X2255777Y-6292579D01*
X2255777Y-6292579D02*
X2265301Y-6330674D01*
X2265301Y-6330674D02*
X2265301Y-6378293D01*
X2265301Y-6378293D02*
X2255777Y-6416388D01*
X2255777Y-6416388D02*
X2246253Y-6435436D01*
X2246253Y-6435436D02*
X2236729Y-6444960D01*
X2236729Y-6444960D02*
X2217682Y-6454484D01*
X2217682Y-6454484D02*
X2198634Y-6454484D01*
X2198634Y-6454484D02*
X2179587Y-6444960D01*
X2179587Y-6444960D02*
X2170063Y-6435436D01*
X2170063Y-6435436D02*
X2160539Y-6416388D01*
X2160539Y-6416388D02*
X2151015Y-6378293D01*
X2151015Y-6378293D02*
X2151015Y-6330674D01*
X2151015Y-6330674D02*
X2160539Y-6292579D01*
X2160539Y-6292579D02*
X2170063Y-6273531D01*
X2170063Y-6273531D02*
X2179587Y-6264008D01*
X2179587Y-6264008D02*
X2198634Y-6254484D01*
X2351015Y-6435436D02*
X2360539Y-6444960D01*
X2360539Y-6444960D02*
X2351015Y-6454484D01*
X2351015Y-6454484D02*
X2341491Y-6444960D01*
X2341491Y-6444960D02*
X2351015Y-6435436D01*
X2351015Y-6435436D02*
X2351015Y-6454484D01*
X2551015Y-6454484D02*
X2436729Y-6454484D01*
X2493872Y-6454484D02*
X2493872Y-6254484D01*
X2493872Y-6254484D02*
X2474825Y-6283055D01*
X2474825Y-6283055D02*
X2455777Y-6302103D01*
X2455777Y-6302103D02*
X2436729Y-6311627D01*
X2627206Y-6273531D02*
X2636729Y-6264008D01*
X2636729Y-6264008D02*
X2655777Y-6254484D01*
X2655777Y-6254484D02*
X2703396Y-6254484D01*
X2703396Y-6254484D02*
X2722444Y-6264008D01*
X2722444Y-6264008D02*
X2731968Y-6273531D01*
X2731968Y-6273531D02*
X2741491Y-6292579D01*
X2741491Y-6292579D02*
X2741491Y-6311627D01*
X2741491Y-6311627D02*
X2731968Y-6340198D01*
X2731968Y-6340198D02*
X2617682Y-6454484D01*
X2617682Y-6454484D02*
X2741491Y-6454484D01*
X2912920Y-6254484D02*
X2874825Y-6254484D01*
X2874825Y-6254484D02*
X2855777Y-6264008D01*
X2855777Y-6264008D02*
X2846253Y-6273531D01*
X2846253Y-6273531D02*
X2827206Y-6302103D01*
X2827206Y-6302103D02*
X2817682Y-6340198D01*
X2817682Y-6340198D02*
X2817682Y-6416388D01*
X2817682Y-6416388D02*
X2827206Y-6435436D01*
X2827206Y-6435436D02*
X2836729Y-6444960D01*
X2836729Y-6444960D02*
X2855777Y-6454484D01*
X2855777Y-6454484D02*
X2893872Y-6454484D01*
X2893872Y-6454484D02*
X2912920Y-6444960D01*
X2912920Y-6444960D02*
X2922444Y-6435436D01*
X2922444Y-6435436D02*
X2931967Y-6416388D01*
X2931967Y-6416388D02*
X2931967Y-6368769D01*
X2931967Y-6368769D02*
X2922444Y-6349722D01*
X2922444Y-6349722D02*
X2912920Y-6340198D01*
X2912920Y-6340198D02*
X2893872Y-6330674D01*
X2893872Y-6330674D02*
X2855777Y-6330674D01*
X2855777Y-6330674D02*
X2836729Y-6340198D01*
X2836729Y-6340198D02*
X2827206Y-6349722D01*
X2827206Y-6349722D02*
X2817682Y-6368769D01*
X3055777Y-6254484D02*
X3074825Y-6254484D01*
X3074825Y-6254484D02*
X3093872Y-6264008D01*
X3093872Y-6264008D02*
X3103396Y-6273531D01*
X3103396Y-6273531D02*
X3112920Y-6292579D01*
X3112920Y-6292579D02*
X3122444Y-6330674D01*
X3122444Y-6330674D02*
X3122444Y-6378293D01*
X3122444Y-6378293D02*
X3112920Y-6416388D01*
X3112920Y-6416388D02*
X3103396Y-6435436D01*
X3103396Y-6435436D02*
X3093872Y-6444960D01*
X3093872Y-6444960D02*
X3074825Y-6454484D01*
X3074825Y-6454484D02*
X3055777Y-6454484D01*
X3055777Y-6454484D02*
X3036729Y-6444960D01*
X3036729Y-6444960D02*
X3027206Y-6435436D01*
X3027206Y-6435436D02*
X3017682Y-6416388D01*
X3017682Y-6416388D02*
X3008158Y-6378293D01*
X3008158Y-6378293D02*
X3008158Y-6330674D01*
X3008158Y-6330674D02*
X3017682Y-6292579D01*
X3017682Y-6292579D02*
X3027206Y-6273531D01*
X3027206Y-6273531D02*
X3036729Y-6264008D01*
X3036729Y-6264008D02*
X3055777Y-6254484D01*
X3198634Y-6254484D02*
X3198634Y-6292579D01*
X3274825Y-6254484D02*
X3274825Y-6292579D01*
X3570063Y-6530674D02*
X3560539Y-6521150D01*
X3560539Y-6521150D02*
X3541491Y-6492579D01*
X3541491Y-6492579D02*
X3531968Y-6473531D01*
X3531968Y-6473531D02*
X3522444Y-6444960D01*
X3522444Y-6444960D02*
X3512920Y-6397341D01*
X3512920Y-6397341D02*
X3512920Y-6359246D01*
X3512920Y-6359246D02*
X3522444Y-6311627D01*
X3522444Y-6311627D02*
X3531968Y-6283055D01*
X3531968Y-6283055D02*
X3541491Y-6264008D01*
X3541491Y-6264008D02*
X3560539Y-6235436D01*
X3560539Y-6235436D02*
X3570063Y-6225912D01*
X3751015Y-6454484D02*
X3636729Y-6454484D01*
X3693872Y-6454484D02*
X3693872Y-6254484D01*
X3693872Y-6254484D02*
X3674825Y-6283055D01*
X3674825Y-6283055D02*
X3655777Y-6302103D01*
X3655777Y-6302103D02*
X3636729Y-6311627D01*
X3989110Y-6454484D02*
X3989110Y-6254484D01*
X4074825Y-6454484D02*
X4074825Y-6349722D01*
X4074825Y-6349722D02*
X4065301Y-6330674D01*
X4065301Y-6330674D02*
X4046253Y-6321150D01*
X4046253Y-6321150D02*
X4017682Y-6321150D01*
X4017682Y-6321150D02*
X3998634Y-6330674D01*
X3998634Y-6330674D02*
X3989110Y-6340198D01*
X4198634Y-6454484D02*
X4179587Y-6444960D01*
X4179587Y-6444960D02*
X4170063Y-6435436D01*
X4170063Y-6435436D02*
X4160539Y-6416388D01*
X4160539Y-6416388D02*
X4160539Y-6359246D01*
X4160539Y-6359246D02*
X4170063Y-6340198D01*
X4170063Y-6340198D02*
X4179587Y-6330674D01*
X4179587Y-6330674D02*
X4198634Y-6321150D01*
X4198634Y-6321150D02*
X4227206Y-6321150D01*
X4227206Y-6321150D02*
X4246253Y-6330674D01*
X4246253Y-6330674D02*
X4255777Y-6340198D01*
X4255777Y-6340198D02*
X4265301Y-6359246D01*
X4265301Y-6359246D02*
X4265301Y-6416388D01*
X4265301Y-6416388D02*
X4255777Y-6435436D01*
X4255777Y-6435436D02*
X4246253Y-6444960D01*
X4246253Y-6444960D02*
X4227206Y-6454484D01*
X4227206Y-6454484D02*
X4198634Y-6454484D01*
X4379587Y-6454484D02*
X4360539Y-6444960D01*
X4360539Y-6444960D02*
X4351015Y-6425912D01*
X4351015Y-6425912D02*
X4351015Y-6254484D01*
X4531968Y-6444960D02*
X4512920Y-6454484D01*
X4512920Y-6454484D02*
X4474825Y-6454484D01*
X4474825Y-6454484D02*
X4455777Y-6444960D01*
X4455777Y-6444960D02*
X4446253Y-6425912D01*
X4446253Y-6425912D02*
X4446253Y-6349722D01*
X4446253Y-6349722D02*
X4455777Y-6330674D01*
X4455777Y-6330674D02*
X4474825Y-6321150D01*
X4474825Y-6321150D02*
X4512920Y-6321150D01*
X4512920Y-6321150D02*
X4531968Y-6330674D01*
X4531968Y-6330674D02*
X4541492Y-6349722D01*
X4541492Y-6349722D02*
X4541492Y-6368769D01*
X4541492Y-6368769D02*
X4446253Y-6387817D01*
X4608158Y-6530674D02*
X4617682Y-6521150D01*
X4617682Y-6521150D02*
X4636730Y-6492579D01*
X4636730Y-6492579D02*
X4646253Y-6473531D01*
X4646253Y-6473531D02*
X4655777Y-6444960D01*
X4655777Y-6444960D02*
X4665301Y-6397341D01*
X4665301Y-6397341D02*
X4665301Y-6359246D01*
X4665301Y-6359246D02*
X4655777Y-6311627D01*
X4655777Y-6311627D02*
X4646253Y-6283055D01*
X4646253Y-6283055D02*
X4636730Y-6264008D01*
X4636730Y-6264008D02*
X4617682Y-6235436D01*
X4617682Y-6235436D02*
X4608158Y-6225912D01*
M02*
