%TF.GenerationSoftware,KiCad,Pcbnew,7.0.9*%
%TF.CreationDate,2023-12-08T15:58:01+01:00*%
%TF.ProjectId,2023_PiezoPreamp,32303233-5f50-4696-957a-6f507265616d,rev?*%
%TF.SameCoordinates,PX2625a00PY1c22260*%
%TF.FileFunction,Drillmap*%
%TF.FilePolarity,Positive*%
%FSLAX45Y45*%
G04 Gerber Fmt 4.5, Leading zero omitted, Abs format (unit mm)*
G04 Created by KiCad (PCBNEW 7.0.9) date 2023-12-08 15:58:01*
%MOMM*%
%LPD*%
G01*
G04 APERTURE LIST*
%ADD10C,0.100000*%
%ADD11C,0.200000*%
%ADD12C,0.320000*%
G04 APERTURE END LIST*
D10*
X0Y-3450000D02*
X700000Y-3450000D01*
X700000Y-100000D02*
G75*
G03*
X800000Y0I0J100000D01*
G01*
X800000Y0D02*
X6000000Y0D01*
X0Y-100000D02*
X0Y-3450000D01*
X800000Y-3550000D02*
X6000000Y-3550000D01*
X6000000Y0D02*
G75*
G03*
X6100000Y-100000I100000J0D01*
G01*
X800000Y-3550000D02*
G75*
G03*
X700000Y-3450000I-100000J0D01*
G01*
X0Y-100000D02*
X700000Y-100000D01*
X6100000Y-3450000D02*
G75*
G03*
X6000000Y-3550000I0J-100000D01*
G01*
X6800000Y-100000D02*
X6100000Y-100000D01*
X6100000Y-3450000D02*
X6800000Y-3450000D01*
X6800000Y-3450000D02*
X6800000Y-100000D01*
D11*
D12*
X240000Y-290000D02*
X560000Y-610000D01*
X560000Y-290000D02*
X240000Y-610000D01*
X2670000Y-3030000D02*
X2990000Y-3350000D01*
X2990000Y-3030000D02*
X2670000Y-3350000D01*
D11*
X255777Y-3866484D02*
X255777Y-3666484D01*
X255777Y-3666484D02*
X303396Y-3666484D01*
X303396Y-3666484D02*
X331967Y-3676008D01*
X331967Y-3676008D02*
X351015Y-3695055D01*
X351015Y-3695055D02*
X360539Y-3714103D01*
X360539Y-3714103D02*
X370062Y-3752198D01*
X370062Y-3752198D02*
X370062Y-3780769D01*
X370062Y-3780769D02*
X360539Y-3818865D01*
X360539Y-3818865D02*
X351015Y-3837912D01*
X351015Y-3837912D02*
X331967Y-3856960D01*
X331967Y-3856960D02*
X303396Y-3866484D01*
X303396Y-3866484D02*
X255777Y-3866484D01*
X455777Y-3866484D02*
X455777Y-3733150D01*
X455777Y-3771246D02*
X465301Y-3752198D01*
X465301Y-3752198D02*
X474824Y-3742674D01*
X474824Y-3742674D02*
X493872Y-3733150D01*
X493872Y-3733150D02*
X512920Y-3733150D01*
X579586Y-3866484D02*
X579586Y-3733150D01*
X579586Y-3666484D02*
X570063Y-3676008D01*
X570063Y-3676008D02*
X579586Y-3685531D01*
X579586Y-3685531D02*
X589110Y-3676008D01*
X589110Y-3676008D02*
X579586Y-3666484D01*
X579586Y-3666484D02*
X579586Y-3685531D01*
X703396Y-3866484D02*
X684348Y-3856960D01*
X684348Y-3856960D02*
X674824Y-3837912D01*
X674824Y-3837912D02*
X674824Y-3666484D01*
X808158Y-3866484D02*
X789110Y-3856960D01*
X789110Y-3856960D02*
X779586Y-3837912D01*
X779586Y-3837912D02*
X779586Y-3666484D01*
X1036729Y-3866484D02*
X1036729Y-3666484D01*
X1036729Y-3666484D02*
X1103396Y-3809341D01*
X1103396Y-3809341D02*
X1170063Y-3666484D01*
X1170063Y-3666484D02*
X1170063Y-3866484D01*
X1351015Y-3866484D02*
X1351015Y-3761722D01*
X1351015Y-3761722D02*
X1341491Y-3742674D01*
X1341491Y-3742674D02*
X1322444Y-3733150D01*
X1322444Y-3733150D02*
X1284348Y-3733150D01*
X1284348Y-3733150D02*
X1265301Y-3742674D01*
X1351015Y-3856960D02*
X1331967Y-3866484D01*
X1331967Y-3866484D02*
X1284348Y-3866484D01*
X1284348Y-3866484D02*
X1265301Y-3856960D01*
X1265301Y-3856960D02*
X1255777Y-3837912D01*
X1255777Y-3837912D02*
X1255777Y-3818865D01*
X1255777Y-3818865D02*
X1265301Y-3799817D01*
X1265301Y-3799817D02*
X1284348Y-3790293D01*
X1284348Y-3790293D02*
X1331967Y-3790293D01*
X1331967Y-3790293D02*
X1351015Y-3780769D01*
X1446253Y-3733150D02*
X1446253Y-3933150D01*
X1446253Y-3742674D02*
X1465301Y-3733150D01*
X1465301Y-3733150D02*
X1503396Y-3733150D01*
X1503396Y-3733150D02*
X1522443Y-3742674D01*
X1522443Y-3742674D02*
X1531967Y-3752198D01*
X1531967Y-3752198D02*
X1541491Y-3771246D01*
X1541491Y-3771246D02*
X1541491Y-3828388D01*
X1541491Y-3828388D02*
X1531967Y-3847436D01*
X1531967Y-3847436D02*
X1522443Y-3856960D01*
X1522443Y-3856960D02*
X1503396Y-3866484D01*
X1503396Y-3866484D02*
X1465301Y-3866484D01*
X1465301Y-3866484D02*
X1446253Y-3856960D01*
X1627205Y-3847436D02*
X1636729Y-3856960D01*
X1636729Y-3856960D02*
X1627205Y-3866484D01*
X1627205Y-3866484D02*
X1617682Y-3856960D01*
X1617682Y-3856960D02*
X1627205Y-3847436D01*
X1627205Y-3847436D02*
X1627205Y-3866484D01*
X1627205Y-3742674D02*
X1636729Y-3752198D01*
X1636729Y-3752198D02*
X1627205Y-3761722D01*
X1627205Y-3761722D02*
X1617682Y-3752198D01*
X1617682Y-3752198D02*
X1627205Y-3742674D01*
X1627205Y-3742674D02*
X1627205Y-3761722D01*
X-205000Y-4095000D02*
X-5000Y-4295000D01*
X-5000Y-4095000D02*
X-205000Y-4295000D01*
X236729Y-4086484D02*
X360539Y-4086484D01*
X360539Y-4086484D02*
X293872Y-4162674D01*
X293872Y-4162674D02*
X322444Y-4162674D01*
X322444Y-4162674D02*
X341491Y-4172198D01*
X341491Y-4172198D02*
X351015Y-4181722D01*
X351015Y-4181722D02*
X360539Y-4200770D01*
X360539Y-4200770D02*
X360539Y-4248389D01*
X360539Y-4248389D02*
X351015Y-4267436D01*
X351015Y-4267436D02*
X341491Y-4276960D01*
X341491Y-4276960D02*
X322444Y-4286484D01*
X322444Y-4286484D02*
X265301Y-4286484D01*
X265301Y-4286484D02*
X246253Y-4276960D01*
X246253Y-4276960D02*
X236729Y-4267436D01*
X446253Y-4267436D02*
X455777Y-4276960D01*
X455777Y-4276960D02*
X446253Y-4286484D01*
X446253Y-4286484D02*
X436729Y-4276960D01*
X436729Y-4276960D02*
X446253Y-4267436D01*
X446253Y-4267436D02*
X446253Y-4286484D01*
X531967Y-4105531D02*
X541491Y-4096008D01*
X541491Y-4096008D02*
X560539Y-4086484D01*
X560539Y-4086484D02*
X608158Y-4086484D01*
X608158Y-4086484D02*
X627205Y-4096008D01*
X627205Y-4096008D02*
X636729Y-4105531D01*
X636729Y-4105531D02*
X646253Y-4124579D01*
X646253Y-4124579D02*
X646253Y-4143627D01*
X646253Y-4143627D02*
X636729Y-4172198D01*
X636729Y-4172198D02*
X522443Y-4286484D01*
X522443Y-4286484D02*
X646253Y-4286484D01*
X770062Y-4086484D02*
X789110Y-4086484D01*
X789110Y-4086484D02*
X808158Y-4096008D01*
X808158Y-4096008D02*
X817682Y-4105531D01*
X817682Y-4105531D02*
X827205Y-4124579D01*
X827205Y-4124579D02*
X836729Y-4162674D01*
X836729Y-4162674D02*
X836729Y-4210293D01*
X836729Y-4210293D02*
X827205Y-4248389D01*
X827205Y-4248389D02*
X817682Y-4267436D01*
X817682Y-4267436D02*
X808158Y-4276960D01*
X808158Y-4276960D02*
X789110Y-4286484D01*
X789110Y-4286484D02*
X770062Y-4286484D01*
X770062Y-4286484D02*
X751015Y-4276960D01*
X751015Y-4276960D02*
X741491Y-4267436D01*
X741491Y-4267436D02*
X731967Y-4248389D01*
X731967Y-4248389D02*
X722443Y-4210293D01*
X722443Y-4210293D02*
X722443Y-4162674D01*
X722443Y-4162674D02*
X731967Y-4124579D01*
X731967Y-4124579D02*
X741491Y-4105531D01*
X741491Y-4105531D02*
X751015Y-4096008D01*
X751015Y-4096008D02*
X770062Y-4086484D01*
X960539Y-4086484D02*
X979586Y-4086484D01*
X979586Y-4086484D02*
X998634Y-4096008D01*
X998634Y-4096008D02*
X1008158Y-4105531D01*
X1008158Y-4105531D02*
X1017682Y-4124579D01*
X1017682Y-4124579D02*
X1027205Y-4162674D01*
X1027205Y-4162674D02*
X1027205Y-4210293D01*
X1027205Y-4210293D02*
X1017682Y-4248389D01*
X1017682Y-4248389D02*
X1008158Y-4267436D01*
X1008158Y-4267436D02*
X998634Y-4276960D01*
X998634Y-4276960D02*
X979586Y-4286484D01*
X979586Y-4286484D02*
X960539Y-4286484D01*
X960539Y-4286484D02*
X941491Y-4276960D01*
X941491Y-4276960D02*
X931967Y-4267436D01*
X931967Y-4267436D02*
X922443Y-4248389D01*
X922443Y-4248389D02*
X912920Y-4210293D01*
X912920Y-4210293D02*
X912920Y-4162674D01*
X912920Y-4162674D02*
X922443Y-4124579D01*
X922443Y-4124579D02*
X931967Y-4105531D01*
X931967Y-4105531D02*
X941491Y-4096008D01*
X941491Y-4096008D02*
X960539Y-4086484D01*
X1112920Y-4286484D02*
X1112920Y-4153150D01*
X1112920Y-4172198D02*
X1122444Y-4162674D01*
X1122444Y-4162674D02*
X1141491Y-4153150D01*
X1141491Y-4153150D02*
X1170063Y-4153150D01*
X1170063Y-4153150D02*
X1189110Y-4162674D01*
X1189110Y-4162674D02*
X1198634Y-4181722D01*
X1198634Y-4181722D02*
X1198634Y-4286484D01*
X1198634Y-4181722D02*
X1208158Y-4162674D01*
X1208158Y-4162674D02*
X1227205Y-4153150D01*
X1227205Y-4153150D02*
X1255777Y-4153150D01*
X1255777Y-4153150D02*
X1274825Y-4162674D01*
X1274825Y-4162674D02*
X1284348Y-4181722D01*
X1284348Y-4181722D02*
X1284348Y-4286484D01*
X1379586Y-4286484D02*
X1379586Y-4153150D01*
X1379586Y-4172198D02*
X1389110Y-4162674D01*
X1389110Y-4162674D02*
X1408158Y-4153150D01*
X1408158Y-4153150D02*
X1436729Y-4153150D01*
X1436729Y-4153150D02*
X1455777Y-4162674D01*
X1455777Y-4162674D02*
X1465301Y-4181722D01*
X1465301Y-4181722D02*
X1465301Y-4286484D01*
X1465301Y-4181722D02*
X1474824Y-4162674D01*
X1474824Y-4162674D02*
X1493872Y-4153150D01*
X1493872Y-4153150D02*
X1522443Y-4153150D01*
X1522443Y-4153150D02*
X1541491Y-4162674D01*
X1541491Y-4162674D02*
X1551015Y-4181722D01*
X1551015Y-4181722D02*
X1551015Y-4286484D01*
X1941491Y-4076960D02*
X1770063Y-4334103D01*
X2198634Y-4086484D02*
X2217682Y-4086484D01*
X2217682Y-4086484D02*
X2236729Y-4096008D01*
X2236729Y-4096008D02*
X2246253Y-4105531D01*
X2246253Y-4105531D02*
X2255777Y-4124579D01*
X2255777Y-4124579D02*
X2265301Y-4162674D01*
X2265301Y-4162674D02*
X2265301Y-4210293D01*
X2265301Y-4210293D02*
X2255777Y-4248389D01*
X2255777Y-4248389D02*
X2246253Y-4267436D01*
X2246253Y-4267436D02*
X2236729Y-4276960D01*
X2236729Y-4276960D02*
X2217682Y-4286484D01*
X2217682Y-4286484D02*
X2198634Y-4286484D01*
X2198634Y-4286484D02*
X2179587Y-4276960D01*
X2179587Y-4276960D02*
X2170063Y-4267436D01*
X2170063Y-4267436D02*
X2160539Y-4248389D01*
X2160539Y-4248389D02*
X2151015Y-4210293D01*
X2151015Y-4210293D02*
X2151015Y-4162674D01*
X2151015Y-4162674D02*
X2160539Y-4124579D01*
X2160539Y-4124579D02*
X2170063Y-4105531D01*
X2170063Y-4105531D02*
X2179587Y-4096008D01*
X2179587Y-4096008D02*
X2198634Y-4086484D01*
X2351015Y-4267436D02*
X2360539Y-4276960D01*
X2360539Y-4276960D02*
X2351015Y-4286484D01*
X2351015Y-4286484D02*
X2341491Y-4276960D01*
X2341491Y-4276960D02*
X2351015Y-4267436D01*
X2351015Y-4267436D02*
X2351015Y-4286484D01*
X2551015Y-4286484D02*
X2436729Y-4286484D01*
X2493872Y-4286484D02*
X2493872Y-4086484D01*
X2493872Y-4086484D02*
X2474825Y-4115055D01*
X2474825Y-4115055D02*
X2455777Y-4134103D01*
X2455777Y-4134103D02*
X2436729Y-4143627D01*
X2627206Y-4105531D02*
X2636729Y-4096008D01*
X2636729Y-4096008D02*
X2655777Y-4086484D01*
X2655777Y-4086484D02*
X2703396Y-4086484D01*
X2703396Y-4086484D02*
X2722444Y-4096008D01*
X2722444Y-4096008D02*
X2731968Y-4105531D01*
X2731968Y-4105531D02*
X2741491Y-4124579D01*
X2741491Y-4124579D02*
X2741491Y-4143627D01*
X2741491Y-4143627D02*
X2731968Y-4172198D01*
X2731968Y-4172198D02*
X2617682Y-4286484D01*
X2617682Y-4286484D02*
X2741491Y-4286484D01*
X2912920Y-4086484D02*
X2874825Y-4086484D01*
X2874825Y-4086484D02*
X2855777Y-4096008D01*
X2855777Y-4096008D02*
X2846253Y-4105531D01*
X2846253Y-4105531D02*
X2827206Y-4134103D01*
X2827206Y-4134103D02*
X2817682Y-4172198D01*
X2817682Y-4172198D02*
X2817682Y-4248389D01*
X2817682Y-4248389D02*
X2827206Y-4267436D01*
X2827206Y-4267436D02*
X2836729Y-4276960D01*
X2836729Y-4276960D02*
X2855777Y-4286484D01*
X2855777Y-4286484D02*
X2893872Y-4286484D01*
X2893872Y-4286484D02*
X2912920Y-4276960D01*
X2912920Y-4276960D02*
X2922444Y-4267436D01*
X2922444Y-4267436D02*
X2931967Y-4248389D01*
X2931967Y-4248389D02*
X2931967Y-4200770D01*
X2931967Y-4200770D02*
X2922444Y-4181722D01*
X2922444Y-4181722D02*
X2912920Y-4172198D01*
X2912920Y-4172198D02*
X2893872Y-4162674D01*
X2893872Y-4162674D02*
X2855777Y-4162674D01*
X2855777Y-4162674D02*
X2836729Y-4172198D01*
X2836729Y-4172198D02*
X2827206Y-4181722D01*
X2827206Y-4181722D02*
X2817682Y-4200770D01*
X3055777Y-4086484D02*
X3074825Y-4086484D01*
X3074825Y-4086484D02*
X3093872Y-4096008D01*
X3093872Y-4096008D02*
X3103396Y-4105531D01*
X3103396Y-4105531D02*
X3112920Y-4124579D01*
X3112920Y-4124579D02*
X3122444Y-4162674D01*
X3122444Y-4162674D02*
X3122444Y-4210293D01*
X3122444Y-4210293D02*
X3112920Y-4248389D01*
X3112920Y-4248389D02*
X3103396Y-4267436D01*
X3103396Y-4267436D02*
X3093872Y-4276960D01*
X3093872Y-4276960D02*
X3074825Y-4286484D01*
X3074825Y-4286484D02*
X3055777Y-4286484D01*
X3055777Y-4286484D02*
X3036729Y-4276960D01*
X3036729Y-4276960D02*
X3027206Y-4267436D01*
X3027206Y-4267436D02*
X3017682Y-4248389D01*
X3017682Y-4248389D02*
X3008158Y-4210293D01*
X3008158Y-4210293D02*
X3008158Y-4162674D01*
X3008158Y-4162674D02*
X3017682Y-4124579D01*
X3017682Y-4124579D02*
X3027206Y-4105531D01*
X3027206Y-4105531D02*
X3036729Y-4096008D01*
X3036729Y-4096008D02*
X3055777Y-4086484D01*
X3198634Y-4086484D02*
X3198634Y-4124579D01*
X3274825Y-4086484D02*
X3274825Y-4124579D01*
X3570063Y-4362674D02*
X3560539Y-4353150D01*
X3560539Y-4353150D02*
X3541491Y-4324579D01*
X3541491Y-4324579D02*
X3531968Y-4305531D01*
X3531968Y-4305531D02*
X3522444Y-4276960D01*
X3522444Y-4276960D02*
X3512920Y-4229341D01*
X3512920Y-4229341D02*
X3512920Y-4191246D01*
X3512920Y-4191246D02*
X3522444Y-4143627D01*
X3522444Y-4143627D02*
X3531968Y-4115055D01*
X3531968Y-4115055D02*
X3541491Y-4096008D01*
X3541491Y-4096008D02*
X3560539Y-4067436D01*
X3560539Y-4067436D02*
X3570063Y-4057912D01*
X3636729Y-4105531D02*
X3646253Y-4096008D01*
X3646253Y-4096008D02*
X3665301Y-4086484D01*
X3665301Y-4086484D02*
X3712920Y-4086484D01*
X3712920Y-4086484D02*
X3731968Y-4096008D01*
X3731968Y-4096008D02*
X3741491Y-4105531D01*
X3741491Y-4105531D02*
X3751015Y-4124579D01*
X3751015Y-4124579D02*
X3751015Y-4143627D01*
X3751015Y-4143627D02*
X3741491Y-4172198D01*
X3741491Y-4172198D02*
X3627206Y-4286484D01*
X3627206Y-4286484D02*
X3751015Y-4286484D01*
X3989110Y-4286484D02*
X3989110Y-4086484D01*
X4074825Y-4286484D02*
X4074825Y-4181722D01*
X4074825Y-4181722D02*
X4065301Y-4162674D01*
X4065301Y-4162674D02*
X4046253Y-4153150D01*
X4046253Y-4153150D02*
X4017682Y-4153150D01*
X4017682Y-4153150D02*
X3998634Y-4162674D01*
X3998634Y-4162674D02*
X3989110Y-4172198D01*
X4198634Y-4286484D02*
X4179587Y-4276960D01*
X4179587Y-4276960D02*
X4170063Y-4267436D01*
X4170063Y-4267436D02*
X4160539Y-4248389D01*
X4160539Y-4248389D02*
X4160539Y-4191246D01*
X4160539Y-4191246D02*
X4170063Y-4172198D01*
X4170063Y-4172198D02*
X4179587Y-4162674D01*
X4179587Y-4162674D02*
X4198634Y-4153150D01*
X4198634Y-4153150D02*
X4227206Y-4153150D01*
X4227206Y-4153150D02*
X4246253Y-4162674D01*
X4246253Y-4162674D02*
X4255777Y-4172198D01*
X4255777Y-4172198D02*
X4265301Y-4191246D01*
X4265301Y-4191246D02*
X4265301Y-4248389D01*
X4265301Y-4248389D02*
X4255777Y-4267436D01*
X4255777Y-4267436D02*
X4246253Y-4276960D01*
X4246253Y-4276960D02*
X4227206Y-4286484D01*
X4227206Y-4286484D02*
X4198634Y-4286484D01*
X4379587Y-4286484D02*
X4360539Y-4276960D01*
X4360539Y-4276960D02*
X4351015Y-4257912D01*
X4351015Y-4257912D02*
X4351015Y-4086484D01*
X4531968Y-4276960D02*
X4512920Y-4286484D01*
X4512920Y-4286484D02*
X4474825Y-4286484D01*
X4474825Y-4286484D02*
X4455777Y-4276960D01*
X4455777Y-4276960D02*
X4446253Y-4257912D01*
X4446253Y-4257912D02*
X4446253Y-4181722D01*
X4446253Y-4181722D02*
X4455777Y-4162674D01*
X4455777Y-4162674D02*
X4474825Y-4153150D01*
X4474825Y-4153150D02*
X4512920Y-4153150D01*
X4512920Y-4153150D02*
X4531968Y-4162674D01*
X4531968Y-4162674D02*
X4541492Y-4181722D01*
X4541492Y-4181722D02*
X4541492Y-4200770D01*
X4541492Y-4200770D02*
X4446253Y-4219817D01*
X4617682Y-4276960D02*
X4636730Y-4286484D01*
X4636730Y-4286484D02*
X4674825Y-4286484D01*
X4674825Y-4286484D02*
X4693873Y-4276960D01*
X4693873Y-4276960D02*
X4703396Y-4257912D01*
X4703396Y-4257912D02*
X4703396Y-4248389D01*
X4703396Y-4248389D02*
X4693873Y-4229341D01*
X4693873Y-4229341D02*
X4674825Y-4219817D01*
X4674825Y-4219817D02*
X4646253Y-4219817D01*
X4646253Y-4219817D02*
X4627206Y-4210293D01*
X4627206Y-4210293D02*
X4617682Y-4191246D01*
X4617682Y-4191246D02*
X4617682Y-4181722D01*
X4617682Y-4181722D02*
X4627206Y-4162674D01*
X4627206Y-4162674D02*
X4646253Y-4153150D01*
X4646253Y-4153150D02*
X4674825Y-4153150D01*
X4674825Y-4153150D02*
X4693873Y-4162674D01*
X4770063Y-4362674D02*
X4779587Y-4353150D01*
X4779587Y-4353150D02*
X4798634Y-4324579D01*
X4798634Y-4324579D02*
X4808158Y-4305531D01*
X4808158Y-4305531D02*
X4817682Y-4276960D01*
X4817682Y-4276960D02*
X4827206Y-4229341D01*
X4827206Y-4229341D02*
X4827206Y-4191246D01*
X4827206Y-4191246D02*
X4817682Y-4143627D01*
X4817682Y-4143627D02*
X4808158Y-4115055D01*
X4808158Y-4115055D02*
X4798634Y-4096008D01*
X4798634Y-4096008D02*
X4779587Y-4067436D01*
X4779587Y-4067436D02*
X4770063Y-4057912D01*
X5131968Y-4362674D02*
X5122444Y-4353150D01*
X5122444Y-4353150D02*
X5103396Y-4324579D01*
X5103396Y-4324579D02*
X5093873Y-4305531D01*
X5093873Y-4305531D02*
X5084349Y-4276960D01*
X5084349Y-4276960D02*
X5074825Y-4229341D01*
X5074825Y-4229341D02*
X5074825Y-4191246D01*
X5074825Y-4191246D02*
X5084349Y-4143627D01*
X5084349Y-4143627D02*
X5093873Y-4115055D01*
X5093873Y-4115055D02*
X5103396Y-4096008D01*
X5103396Y-4096008D02*
X5122444Y-4067436D01*
X5122444Y-4067436D02*
X5131968Y-4057912D01*
X5208158Y-4153150D02*
X5208158Y-4286484D01*
X5208158Y-4172198D02*
X5217682Y-4162674D01*
X5217682Y-4162674D02*
X5236730Y-4153150D01*
X5236730Y-4153150D02*
X5265301Y-4153150D01*
X5265301Y-4153150D02*
X5284349Y-4162674D01*
X5284349Y-4162674D02*
X5293873Y-4181722D01*
X5293873Y-4181722D02*
X5293873Y-4286484D01*
X5417682Y-4286484D02*
X5398634Y-4276960D01*
X5398634Y-4276960D02*
X5389111Y-4267436D01*
X5389111Y-4267436D02*
X5379587Y-4248389D01*
X5379587Y-4248389D02*
X5379587Y-4191246D01*
X5379587Y-4191246D02*
X5389111Y-4172198D01*
X5389111Y-4172198D02*
X5398634Y-4162674D01*
X5398634Y-4162674D02*
X5417682Y-4153150D01*
X5417682Y-4153150D02*
X5446254Y-4153150D01*
X5446254Y-4153150D02*
X5465301Y-4162674D01*
X5465301Y-4162674D02*
X5474825Y-4172198D01*
X5474825Y-4172198D02*
X5484349Y-4191246D01*
X5484349Y-4191246D02*
X5484349Y-4248389D01*
X5484349Y-4248389D02*
X5474825Y-4267436D01*
X5474825Y-4267436D02*
X5465301Y-4276960D01*
X5465301Y-4276960D02*
X5446254Y-4286484D01*
X5446254Y-4286484D02*
X5417682Y-4286484D01*
X5541492Y-4153150D02*
X5617682Y-4153150D01*
X5570063Y-4086484D02*
X5570063Y-4257912D01*
X5570063Y-4257912D02*
X5579587Y-4276960D01*
X5579587Y-4276960D02*
X5598634Y-4286484D01*
X5598634Y-4286484D02*
X5617682Y-4286484D01*
X5836730Y-4153150D02*
X5836730Y-4353150D01*
X5836730Y-4162674D02*
X5855777Y-4153150D01*
X5855777Y-4153150D02*
X5893873Y-4153150D01*
X5893873Y-4153150D02*
X5912920Y-4162674D01*
X5912920Y-4162674D02*
X5922444Y-4172198D01*
X5922444Y-4172198D02*
X5931968Y-4191246D01*
X5931968Y-4191246D02*
X5931968Y-4248389D01*
X5931968Y-4248389D02*
X5922444Y-4267436D01*
X5922444Y-4267436D02*
X5912920Y-4276960D01*
X5912920Y-4276960D02*
X5893873Y-4286484D01*
X5893873Y-4286484D02*
X5855777Y-4286484D01*
X5855777Y-4286484D02*
X5836730Y-4276960D01*
X6046253Y-4286484D02*
X6027206Y-4276960D01*
X6027206Y-4276960D02*
X6017682Y-4257912D01*
X6017682Y-4257912D02*
X6017682Y-4086484D01*
X6208158Y-4286484D02*
X6208158Y-4181722D01*
X6208158Y-4181722D02*
X6198634Y-4162674D01*
X6198634Y-4162674D02*
X6179587Y-4153150D01*
X6179587Y-4153150D02*
X6141492Y-4153150D01*
X6141492Y-4153150D02*
X6122444Y-4162674D01*
X6208158Y-4276960D02*
X6189111Y-4286484D01*
X6189111Y-4286484D02*
X6141492Y-4286484D01*
X6141492Y-4286484D02*
X6122444Y-4276960D01*
X6122444Y-4276960D02*
X6112920Y-4257912D01*
X6112920Y-4257912D02*
X6112920Y-4238865D01*
X6112920Y-4238865D02*
X6122444Y-4219817D01*
X6122444Y-4219817D02*
X6141492Y-4210293D01*
X6141492Y-4210293D02*
X6189111Y-4210293D01*
X6189111Y-4210293D02*
X6208158Y-4200770D01*
X6274825Y-4153150D02*
X6351015Y-4153150D01*
X6303396Y-4086484D02*
X6303396Y-4257912D01*
X6303396Y-4257912D02*
X6312920Y-4276960D01*
X6312920Y-4276960D02*
X6331968Y-4286484D01*
X6331968Y-4286484D02*
X6351015Y-4286484D01*
X6493873Y-4276960D02*
X6474825Y-4286484D01*
X6474825Y-4286484D02*
X6436730Y-4286484D01*
X6436730Y-4286484D02*
X6417682Y-4276960D01*
X6417682Y-4276960D02*
X6408158Y-4257912D01*
X6408158Y-4257912D02*
X6408158Y-4181722D01*
X6408158Y-4181722D02*
X6417682Y-4162674D01*
X6417682Y-4162674D02*
X6436730Y-4153150D01*
X6436730Y-4153150D02*
X6474825Y-4153150D01*
X6474825Y-4153150D02*
X6493873Y-4162674D01*
X6493873Y-4162674D02*
X6503396Y-4181722D01*
X6503396Y-4181722D02*
X6503396Y-4200770D01*
X6503396Y-4200770D02*
X6408158Y-4219817D01*
X6674825Y-4286484D02*
X6674825Y-4086484D01*
X6674825Y-4276960D02*
X6655777Y-4286484D01*
X6655777Y-4286484D02*
X6617682Y-4286484D01*
X6617682Y-4286484D02*
X6598634Y-4276960D01*
X6598634Y-4276960D02*
X6589111Y-4267436D01*
X6589111Y-4267436D02*
X6579587Y-4248389D01*
X6579587Y-4248389D02*
X6579587Y-4191246D01*
X6579587Y-4191246D02*
X6589111Y-4172198D01*
X6589111Y-4172198D02*
X6598634Y-4162674D01*
X6598634Y-4162674D02*
X6617682Y-4153150D01*
X6617682Y-4153150D02*
X6655777Y-4153150D01*
X6655777Y-4153150D02*
X6674825Y-4162674D01*
X6751015Y-4362674D02*
X6760539Y-4353150D01*
X6760539Y-4353150D02*
X6779587Y-4324579D01*
X6779587Y-4324579D02*
X6789111Y-4305531D01*
X6789111Y-4305531D02*
X6798634Y-4276960D01*
X6798634Y-4276960D02*
X6808158Y-4229341D01*
X6808158Y-4229341D02*
X6808158Y-4191246D01*
X6808158Y-4191246D02*
X6798634Y-4143627D01*
X6798634Y-4143627D02*
X6789111Y-4115055D01*
X6789111Y-4115055D02*
X6779587Y-4096008D01*
X6779587Y-4096008D02*
X6760539Y-4067436D01*
X6760539Y-4067436D02*
X6751015Y-4057912D01*
M02*
