G04 #@! TF.GenerationSoftware,KiCad,Pcbnew,7.0.10*
G04 #@! TF.CreationDate,2024-02-22T18:00:35+01:00*
G04 #@! TF.ProjectId,2023_PiezoPreamp,32303233-5f50-4696-957a-6f507265616d,2.3*
G04 #@! TF.SameCoordinates,PX25317c0PY1c22260*
G04 #@! TF.FileFunction,Legend,Top*
G04 #@! TF.FilePolarity,Positive*
%FSLAX46Y46*%
G04 Gerber Fmt 4.6, Leading zero omitted, Abs format (unit mm)*
G04 Created by KiCad (PCBNEW 7.0.10) date 2024-02-22 18:00:35*
%MOMM*%
%LPD*%
G01*
G04 APERTURE LIST*
%ADD10C,0.200000*%
%ADD11C,0.160000*%
%ADD12C,0.170000*%
%ADD13C,0.120000*%
%ADD14C,0.100000*%
%ADD15C,0.350000*%
%ADD16C,5.500000*%
%ADD17R,1.325000X1.800000*%
%ADD18R,3.200000X1.600000*%
%ADD19R,0.750000X0.940000*%
%ADD20R,0.940000X0.750000*%
%ADD21R,1.075000X0.500000*%
%ADD22C,1.000000*%
%ADD23R,1.070000X1.820000*%
%ADD24R,0.950000X0.800000*%
%ADD25R,0.800000X0.950000*%
%ADD26R,1.470000X0.970000*%
%ADD27C,1.800000*%
%ADD28O,3.600000X4.000000*%
%ADD29O,3.500000X4.000000*%
%ADD30R,1.400000X0.600000*%
%ADD31C,1.400000*%
%ADD32R,0.800000X0.800000*%
%ADD33R,0.970000X1.470000*%
%ADD34C,3.200000*%
%ADD35R,2.800000X1.600000*%
%ADD36R,0.750000X1.200000*%
%ADD37R,1.150000X1.150000*%
%ADD38R,1.820000X1.070000*%
%ADD39R,1.800000X2.400000*%
%ADD40R,2.400000X2.400000*%
%ADD41R,1.820000X1.150000*%
%ADD42R,1.650000X1.650000*%
%ADD43C,1.650000*%
%ADD44R,1.150000X1.820000*%
%ADD45R,0.600000X1.400000*%
%ADD46R,0.900000X0.650000*%
%ADD47R,2.400000X1.800000*%
%ADD48R,1.800000X1.325000*%
%ADD49R,0.650000X0.900000*%
%ADD50R,0.863600X0.965200*%
%ADD51R,1.470000X1.000000*%
%ADD52R,1.150000X0.600000*%
%ADD53R,1.000000X0.400000*%
%ADD54O,2.800000X4.800000*%
%ADD55O,3.204000X2.004000*%
G04 APERTURE END LIST*
D10*
X8000000Y-4500000D02*
G75*
G03*
X2000000Y-4500000I-3000000J0D01*
G01*
X2000000Y-4500000D02*
G75*
G03*
X8000000Y-4500000I3000000J0D01*
G01*
X32300000Y-31900000D02*
G75*
G03*
X26300000Y-31900000I-3000000J0D01*
G01*
X26300000Y-31900000D02*
G75*
G03*
X32300000Y-31900000I3000000J0D01*
G01*
X68000000Y-4500000D02*
G75*
G03*
X62000000Y-4500000I-3000000J0D01*
G01*
X62000000Y-4500000D02*
G75*
G03*
X68000000Y-4500000I3000000J0D01*
G01*
X33650625Y-6267219D02*
X33650625Y-5505314D01*
X33460149Y-5695790D02*
X33650625Y-5505314D01*
X33650625Y-5505314D02*
X33841101Y-5695790D01*
X34507768Y-6267219D02*
X34507768Y-5267219D01*
X34507768Y-5743409D02*
X35079196Y-5743409D01*
X35079196Y-6267219D02*
X35079196Y-5267219D01*
X35555387Y-6267219D02*
X35555387Y-5267219D01*
X35555387Y-5267219D02*
X35936339Y-5267219D01*
X35936339Y-5267219D02*
X36031577Y-5314838D01*
X36031577Y-5314838D02*
X36079196Y-5362457D01*
X36079196Y-5362457D02*
X36126815Y-5457695D01*
X36126815Y-5457695D02*
X36126815Y-5600552D01*
X36126815Y-5600552D02*
X36079196Y-5695790D01*
X36079196Y-5695790D02*
X36031577Y-5743409D01*
X36031577Y-5743409D02*
X35936339Y-5791028D01*
X35936339Y-5791028D02*
X35555387Y-5791028D01*
X36888720Y-5743409D02*
X36555387Y-5743409D01*
X36555387Y-6267219D02*
X36555387Y-5267219D01*
X36555387Y-5267219D02*
X37031577Y-5267219D01*
X45441101Y-24367219D02*
X45107768Y-23891028D01*
X44869673Y-24367219D02*
X44869673Y-23367219D01*
X44869673Y-23367219D02*
X45250625Y-23367219D01*
X45250625Y-23367219D02*
X45345863Y-23414838D01*
X45345863Y-23414838D02*
X45393482Y-23462457D01*
X45393482Y-23462457D02*
X45441101Y-23557695D01*
X45441101Y-23557695D02*
X45441101Y-23700552D01*
X45441101Y-23700552D02*
X45393482Y-23795790D01*
X45393482Y-23795790D02*
X45345863Y-23843409D01*
X45345863Y-23843409D02*
X45250625Y-23891028D01*
X45250625Y-23891028D02*
X44869673Y-23891028D01*
X4900625Y-11667219D02*
X4900625Y-10905314D01*
X4710149Y-11095790D02*
X4900625Y-10905314D01*
X4900625Y-10905314D02*
X5091101Y-11095790D01*
X6091101Y-11143409D02*
X6233958Y-11191028D01*
X6233958Y-11191028D02*
X6281577Y-11238647D01*
X6281577Y-11238647D02*
X6329196Y-11333885D01*
X6329196Y-11333885D02*
X6329196Y-11476742D01*
X6329196Y-11476742D02*
X6281577Y-11571980D01*
X6281577Y-11571980D02*
X6233958Y-11619600D01*
X6233958Y-11619600D02*
X6138720Y-11667219D01*
X6138720Y-11667219D02*
X5757768Y-11667219D01*
X5757768Y-11667219D02*
X5757768Y-10667219D01*
X5757768Y-10667219D02*
X6091101Y-10667219D01*
X6091101Y-10667219D02*
X6186339Y-10714838D01*
X6186339Y-10714838D02*
X6233958Y-10762457D01*
X6233958Y-10762457D02*
X6281577Y-10857695D01*
X6281577Y-10857695D02*
X6281577Y-10952933D01*
X6281577Y-10952933D02*
X6233958Y-11048171D01*
X6233958Y-11048171D02*
X6186339Y-11095790D01*
X6186339Y-11095790D02*
X6091101Y-11143409D01*
X6091101Y-11143409D02*
X5757768Y-11143409D01*
X6757768Y-11667219D02*
X6757768Y-10667219D01*
X53093482Y-33967219D02*
X52522054Y-33967219D01*
X52807768Y-33967219D02*
X52807768Y-32967219D01*
X52807768Y-32967219D02*
X52712530Y-33110076D01*
X52712530Y-33110076D02*
X52617292Y-33205314D01*
X52617292Y-33205314D02*
X52522054Y-33252933D01*
X53712530Y-32967219D02*
X53807768Y-32967219D01*
X53807768Y-32967219D02*
X53903006Y-33014838D01*
X53903006Y-33014838D02*
X53950625Y-33062457D01*
X53950625Y-33062457D02*
X53998244Y-33157695D01*
X53998244Y-33157695D02*
X54045863Y-33348171D01*
X54045863Y-33348171D02*
X54045863Y-33586266D01*
X54045863Y-33586266D02*
X53998244Y-33776742D01*
X53998244Y-33776742D02*
X53950625Y-33871980D01*
X53950625Y-33871980D02*
X53903006Y-33919600D01*
X53903006Y-33919600D02*
X53807768Y-33967219D01*
X53807768Y-33967219D02*
X53712530Y-33967219D01*
X53712530Y-33967219D02*
X53617292Y-33919600D01*
X53617292Y-33919600D02*
X53569673Y-33871980D01*
X53569673Y-33871980D02*
X53522054Y-33776742D01*
X53522054Y-33776742D02*
X53474435Y-33586266D01*
X53474435Y-33586266D02*
X53474435Y-33348171D01*
X53474435Y-33348171D02*
X53522054Y-33157695D01*
X53522054Y-33157695D02*
X53569673Y-33062457D01*
X53569673Y-33062457D02*
X53617292Y-33014838D01*
X53617292Y-33014838D02*
X53712530Y-32967219D01*
X54903006Y-33300552D02*
X54903006Y-33967219D01*
X54474435Y-33300552D02*
X54474435Y-33824361D01*
X54474435Y-33824361D02*
X54522054Y-33919600D01*
X54522054Y-33919600D02*
X54617292Y-33967219D01*
X54617292Y-33967219D02*
X54760149Y-33967219D01*
X54760149Y-33967219D02*
X54855387Y-33919600D01*
X54855387Y-33919600D02*
X54903006Y-33871980D01*
X44926816Y-28367219D02*
X45498244Y-28367219D01*
X45212530Y-29367219D02*
X45212530Y-28367219D01*
X9722054Y-26719600D02*
X9864911Y-26767219D01*
X9864911Y-26767219D02*
X10103006Y-26767219D01*
X10103006Y-26767219D02*
X10198244Y-26719600D01*
X10198244Y-26719600D02*
X10245863Y-26671980D01*
X10245863Y-26671980D02*
X10293482Y-26576742D01*
X10293482Y-26576742D02*
X10293482Y-26481504D01*
X10293482Y-26481504D02*
X10245863Y-26386266D01*
X10245863Y-26386266D02*
X10198244Y-26338647D01*
X10198244Y-26338647D02*
X10103006Y-26291028D01*
X10103006Y-26291028D02*
X9912530Y-26243409D01*
X9912530Y-26243409D02*
X9817292Y-26195790D01*
X9817292Y-26195790D02*
X9769673Y-26148171D01*
X9769673Y-26148171D02*
X9722054Y-26052933D01*
X9722054Y-26052933D02*
X9722054Y-25957695D01*
X9722054Y-25957695D02*
X9769673Y-25862457D01*
X9769673Y-25862457D02*
X9817292Y-25814838D01*
X9817292Y-25814838D02*
X9912530Y-25767219D01*
X9912530Y-25767219D02*
X10150625Y-25767219D01*
X10150625Y-25767219D02*
X10293482Y-25814838D01*
X34360149Y-28667219D02*
X34550625Y-28667219D01*
X34550625Y-28667219D02*
X34645863Y-28714838D01*
X34645863Y-28714838D02*
X34741101Y-28810076D01*
X34741101Y-28810076D02*
X34788720Y-29000552D01*
X34788720Y-29000552D02*
X34788720Y-29333885D01*
X34788720Y-29333885D02*
X34741101Y-29524361D01*
X34741101Y-29524361D02*
X34645863Y-29619600D01*
X34645863Y-29619600D02*
X34550625Y-29667219D01*
X34550625Y-29667219D02*
X34360149Y-29667219D01*
X34360149Y-29667219D02*
X34264911Y-29619600D01*
X34264911Y-29619600D02*
X34169673Y-29524361D01*
X34169673Y-29524361D02*
X34122054Y-29333885D01*
X34122054Y-29333885D02*
X34122054Y-29000552D01*
X34122054Y-29000552D02*
X34169673Y-28810076D01*
X34169673Y-28810076D02*
X34264911Y-28714838D01*
X34264911Y-28714838D02*
X34360149Y-28667219D01*
X35217292Y-29667219D02*
X35217292Y-28667219D01*
X35217292Y-28667219D02*
X35788720Y-29667219D01*
X35788720Y-29667219D02*
X35788720Y-28667219D01*
X33853006Y-20143409D02*
X33995863Y-20191028D01*
X33995863Y-20191028D02*
X34043482Y-20238647D01*
X34043482Y-20238647D02*
X34091101Y-20333885D01*
X34091101Y-20333885D02*
X34091101Y-20476742D01*
X34091101Y-20476742D02*
X34043482Y-20571980D01*
X34043482Y-20571980D02*
X33995863Y-20619600D01*
X33995863Y-20619600D02*
X33900625Y-20667219D01*
X33900625Y-20667219D02*
X33519673Y-20667219D01*
X33519673Y-20667219D02*
X33519673Y-19667219D01*
X33519673Y-19667219D02*
X33853006Y-19667219D01*
X33853006Y-19667219D02*
X33948244Y-19714838D01*
X33948244Y-19714838D02*
X33995863Y-19762457D01*
X33995863Y-19762457D02*
X34043482Y-19857695D01*
X34043482Y-19857695D02*
X34043482Y-19952933D01*
X34043482Y-19952933D02*
X33995863Y-20048171D01*
X33995863Y-20048171D02*
X33948244Y-20095790D01*
X33948244Y-20095790D02*
X33853006Y-20143409D01*
X33853006Y-20143409D02*
X33519673Y-20143409D01*
X34948244Y-20667219D02*
X34948244Y-20143409D01*
X34948244Y-20143409D02*
X34900625Y-20048171D01*
X34900625Y-20048171D02*
X34805387Y-20000552D01*
X34805387Y-20000552D02*
X34614911Y-20000552D01*
X34614911Y-20000552D02*
X34519673Y-20048171D01*
X34948244Y-20619600D02*
X34853006Y-20667219D01*
X34853006Y-20667219D02*
X34614911Y-20667219D01*
X34614911Y-20667219D02*
X34519673Y-20619600D01*
X34519673Y-20619600D02*
X34472054Y-20524361D01*
X34472054Y-20524361D02*
X34472054Y-20429123D01*
X34472054Y-20429123D02*
X34519673Y-20333885D01*
X34519673Y-20333885D02*
X34614911Y-20286266D01*
X34614911Y-20286266D02*
X34853006Y-20286266D01*
X34853006Y-20286266D02*
X34948244Y-20238647D01*
X35376816Y-20619600D02*
X35472054Y-20667219D01*
X35472054Y-20667219D02*
X35662530Y-20667219D01*
X35662530Y-20667219D02*
X35757768Y-20619600D01*
X35757768Y-20619600D02*
X35805387Y-20524361D01*
X35805387Y-20524361D02*
X35805387Y-20476742D01*
X35805387Y-20476742D02*
X35757768Y-20381504D01*
X35757768Y-20381504D02*
X35662530Y-20333885D01*
X35662530Y-20333885D02*
X35519673Y-20333885D01*
X35519673Y-20333885D02*
X35424435Y-20286266D01*
X35424435Y-20286266D02*
X35376816Y-20191028D01*
X35376816Y-20191028D02*
X35376816Y-20143409D01*
X35376816Y-20143409D02*
X35424435Y-20048171D01*
X35424435Y-20048171D02*
X35519673Y-20000552D01*
X35519673Y-20000552D02*
X35662530Y-20000552D01*
X35662530Y-20000552D02*
X35757768Y-20048171D01*
X36186340Y-20619600D02*
X36281578Y-20667219D01*
X36281578Y-20667219D02*
X36472054Y-20667219D01*
X36472054Y-20667219D02*
X36567292Y-20619600D01*
X36567292Y-20619600D02*
X36614911Y-20524361D01*
X36614911Y-20524361D02*
X36614911Y-20476742D01*
X36614911Y-20476742D02*
X36567292Y-20381504D01*
X36567292Y-20381504D02*
X36472054Y-20333885D01*
X36472054Y-20333885D02*
X36329197Y-20333885D01*
X36329197Y-20333885D02*
X36233959Y-20286266D01*
X36233959Y-20286266D02*
X36186340Y-20191028D01*
X36186340Y-20191028D02*
X36186340Y-20143409D01*
X36186340Y-20143409D02*
X36233959Y-20048171D01*
X36233959Y-20048171D02*
X36329197Y-20000552D01*
X36329197Y-20000552D02*
X36472054Y-20000552D01*
X36472054Y-20000552D02*
X36567292Y-20048171D01*
X24626816Y-23367219D02*
X25198244Y-23367219D01*
X24912530Y-24367219D02*
X24912530Y-23367219D01*
X67073183Y-19871504D02*
X67549373Y-19871504D01*
X66977945Y-20157219D02*
X67311278Y-19157219D01*
X67311278Y-19157219D02*
X67644611Y-20157219D01*
X67977945Y-20157219D02*
X67977945Y-19490552D01*
X67977945Y-19681028D02*
X68025564Y-19585790D01*
X68025564Y-19585790D02*
X68073183Y-19538171D01*
X68073183Y-19538171D02*
X68168421Y-19490552D01*
X68168421Y-19490552D02*
X68263659Y-19490552D01*
X69025564Y-19490552D02*
X68501755Y-20490552D01*
X68501755Y-19490552D02*
X68596993Y-19538171D01*
X68596993Y-19538171D02*
X68644612Y-19633409D01*
X68644612Y-19633409D02*
X68882707Y-20347695D01*
X68882707Y-20347695D02*
X68930326Y-20442933D01*
X68930326Y-20442933D02*
X69025564Y-20490552D01*
X66168422Y-21100552D02*
X66406517Y-21767219D01*
X66406517Y-21767219D02*
X66644612Y-21100552D01*
X66977946Y-20862457D02*
X67025565Y-20814838D01*
X67025565Y-20814838D02*
X67120803Y-20767219D01*
X67120803Y-20767219D02*
X67358898Y-20767219D01*
X67358898Y-20767219D02*
X67454136Y-20814838D01*
X67454136Y-20814838D02*
X67501755Y-20862457D01*
X67501755Y-20862457D02*
X67549374Y-20957695D01*
X67549374Y-20957695D02*
X67549374Y-21052933D01*
X67549374Y-21052933D02*
X67501755Y-21195790D01*
X67501755Y-21195790D02*
X66930327Y-21767219D01*
X66930327Y-21767219D02*
X67549374Y-21767219D01*
X67977946Y-21671980D02*
X68025565Y-21719600D01*
X68025565Y-21719600D02*
X67977946Y-21767219D01*
X67977946Y-21767219D02*
X67930327Y-21719600D01*
X67930327Y-21719600D02*
X67977946Y-21671980D01*
X67977946Y-21671980D02*
X67977946Y-21767219D01*
X68358898Y-20767219D02*
X68977945Y-20767219D01*
X68977945Y-20767219D02*
X68644612Y-21148171D01*
X68644612Y-21148171D02*
X68787469Y-21148171D01*
X68787469Y-21148171D02*
X68882707Y-21195790D01*
X68882707Y-21195790D02*
X68930326Y-21243409D01*
X68930326Y-21243409D02*
X68977945Y-21338647D01*
X68977945Y-21338647D02*
X68977945Y-21576742D01*
X68977945Y-21576742D02*
X68930326Y-21671980D01*
X68930326Y-21671980D02*
X68882707Y-21719600D01*
X68882707Y-21719600D02*
X68787469Y-21767219D01*
X68787469Y-21767219D02*
X68501755Y-21767219D01*
X68501755Y-21767219D02*
X68406517Y-21719600D01*
X68406517Y-21719600D02*
X68358898Y-21671980D01*
X59822054Y-26819600D02*
X59964911Y-26867219D01*
X59964911Y-26867219D02*
X60203006Y-26867219D01*
X60203006Y-26867219D02*
X60298244Y-26819600D01*
X60298244Y-26819600D02*
X60345863Y-26771980D01*
X60345863Y-26771980D02*
X60393482Y-26676742D01*
X60393482Y-26676742D02*
X60393482Y-26581504D01*
X60393482Y-26581504D02*
X60345863Y-26486266D01*
X60345863Y-26486266D02*
X60298244Y-26438647D01*
X60298244Y-26438647D02*
X60203006Y-26391028D01*
X60203006Y-26391028D02*
X60012530Y-26343409D01*
X60012530Y-26343409D02*
X59917292Y-26295790D01*
X59917292Y-26295790D02*
X59869673Y-26248171D01*
X59869673Y-26248171D02*
X59822054Y-26152933D01*
X59822054Y-26152933D02*
X59822054Y-26057695D01*
X59822054Y-26057695D02*
X59869673Y-25962457D01*
X59869673Y-25962457D02*
X59917292Y-25914838D01*
X59917292Y-25914838D02*
X60012530Y-25867219D01*
X60012530Y-25867219D02*
X60250625Y-25867219D01*
X60250625Y-25867219D02*
X60393482Y-25914838D01*
X45067219Y-3454136D02*
X45067219Y-3930326D01*
X45067219Y-3930326D02*
X44067219Y-3930326D01*
X44067219Y-2930326D02*
X44067219Y-2739850D01*
X44067219Y-2739850D02*
X44114838Y-2644612D01*
X44114838Y-2644612D02*
X44210076Y-2549374D01*
X44210076Y-2549374D02*
X44400552Y-2501755D01*
X44400552Y-2501755D02*
X44733885Y-2501755D01*
X44733885Y-2501755D02*
X44924361Y-2549374D01*
X44924361Y-2549374D02*
X45019600Y-2644612D01*
X45019600Y-2644612D02*
X45067219Y-2739850D01*
X45067219Y-2739850D02*
X45067219Y-2930326D01*
X45067219Y-2930326D02*
X45019600Y-3025564D01*
X45019600Y-3025564D02*
X44924361Y-3120802D01*
X44924361Y-3120802D02*
X44733885Y-3168421D01*
X44733885Y-3168421D02*
X44400552Y-3168421D01*
X44400552Y-3168421D02*
X44210076Y-3120802D01*
X44210076Y-3120802D02*
X44114838Y-3025564D01*
X44114838Y-3025564D02*
X44067219Y-2930326D01*
X44067219Y-2168421D02*
X45067219Y-1930326D01*
X45067219Y-1930326D02*
X44352933Y-1739850D01*
X44352933Y-1739850D02*
X45067219Y-1549374D01*
X45067219Y-1549374D02*
X44067219Y-1311279D01*
X27067219Y-4430326D02*
X26067219Y-4430326D01*
X26067219Y-4430326D02*
X27067219Y-3858898D01*
X27067219Y-3858898D02*
X26067219Y-3858898D01*
X26067219Y-3192231D02*
X26067219Y-3001755D01*
X26067219Y-3001755D02*
X26114838Y-2906517D01*
X26114838Y-2906517D02*
X26210076Y-2811279D01*
X26210076Y-2811279D02*
X26400552Y-2763660D01*
X26400552Y-2763660D02*
X26733885Y-2763660D01*
X26733885Y-2763660D02*
X26924361Y-2811279D01*
X26924361Y-2811279D02*
X27019600Y-2906517D01*
X27019600Y-2906517D02*
X27067219Y-3001755D01*
X27067219Y-3001755D02*
X27067219Y-3192231D01*
X27067219Y-3192231D02*
X27019600Y-3287469D01*
X27019600Y-3287469D02*
X26924361Y-3382707D01*
X26924361Y-3382707D02*
X26733885Y-3430326D01*
X26733885Y-3430326D02*
X26400552Y-3430326D01*
X26400552Y-3430326D02*
X26210076Y-3382707D01*
X26210076Y-3382707D02*
X26114838Y-3287469D01*
X26114838Y-3287469D02*
X26067219Y-3192231D01*
X27067219Y-2335088D02*
X26067219Y-2335088D01*
X26067219Y-2335088D02*
X27067219Y-1763660D01*
X27067219Y-1763660D02*
X26067219Y-1763660D01*
X26543409Y-1287469D02*
X26543409Y-954136D01*
X27067219Y-811279D02*
X27067219Y-1287469D01*
X27067219Y-1287469D02*
X26067219Y-1287469D01*
X26067219Y-1287469D02*
X26067219Y-811279D01*
X6831578Y-24286266D02*
X6069673Y-24286266D01*
X6260149Y-24476742D02*
X6069673Y-24286266D01*
X6069673Y-24286266D02*
X6260149Y-24095790D01*
X7641101Y-24143409D02*
X7783958Y-24191028D01*
X7783958Y-24191028D02*
X7831577Y-24238647D01*
X7831577Y-24238647D02*
X7879196Y-24333885D01*
X7879196Y-24333885D02*
X7879196Y-24476742D01*
X7879196Y-24476742D02*
X7831577Y-24571980D01*
X7831577Y-24571980D02*
X7783958Y-24619600D01*
X7783958Y-24619600D02*
X7688720Y-24667219D01*
X7688720Y-24667219D02*
X7307768Y-24667219D01*
X7307768Y-24667219D02*
X7307768Y-23667219D01*
X7307768Y-23667219D02*
X7641101Y-23667219D01*
X7641101Y-23667219D02*
X7736339Y-23714838D01*
X7736339Y-23714838D02*
X7783958Y-23762457D01*
X7783958Y-23762457D02*
X7831577Y-23857695D01*
X7831577Y-23857695D02*
X7831577Y-23952933D01*
X7831577Y-23952933D02*
X7783958Y-24048171D01*
X7783958Y-24048171D02*
X7736339Y-24095790D01*
X7736339Y-24095790D02*
X7641101Y-24143409D01*
X7641101Y-24143409D02*
X7307768Y-24143409D01*
X8307768Y-24667219D02*
X8307768Y-23667219D01*
X65493482Y-16214838D02*
X65398244Y-16167219D01*
X65398244Y-16167219D02*
X65255387Y-16167219D01*
X65255387Y-16167219D02*
X65112530Y-16214838D01*
X65112530Y-16214838D02*
X65017292Y-16310076D01*
X65017292Y-16310076D02*
X64969673Y-16405314D01*
X64969673Y-16405314D02*
X64922054Y-16595790D01*
X64922054Y-16595790D02*
X64922054Y-16738647D01*
X64922054Y-16738647D02*
X64969673Y-16929123D01*
X64969673Y-16929123D02*
X65017292Y-17024361D01*
X65017292Y-17024361D02*
X65112530Y-17119600D01*
X65112530Y-17119600D02*
X65255387Y-17167219D01*
X65255387Y-17167219D02*
X65350625Y-17167219D01*
X65350625Y-17167219D02*
X65493482Y-17119600D01*
X65493482Y-17119600D02*
X65541101Y-17071980D01*
X65541101Y-17071980D02*
X65541101Y-16738647D01*
X65541101Y-16738647D02*
X65350625Y-16738647D01*
X65969673Y-17167219D02*
X65969673Y-16167219D01*
X65969673Y-16167219D02*
X66541101Y-17167219D01*
X66541101Y-17167219D02*
X66541101Y-16167219D01*
X67017292Y-17167219D02*
X67017292Y-16167219D01*
X67017292Y-16167219D02*
X67255387Y-16167219D01*
X67255387Y-16167219D02*
X67398244Y-16214838D01*
X67398244Y-16214838D02*
X67493482Y-16310076D01*
X67493482Y-16310076D02*
X67541101Y-16405314D01*
X67541101Y-16405314D02*
X67588720Y-16595790D01*
X67588720Y-16595790D02*
X67588720Y-16738647D01*
X67588720Y-16738647D02*
X67541101Y-16929123D01*
X67541101Y-16929123D02*
X67493482Y-17024361D01*
X67493482Y-17024361D02*
X67398244Y-17119600D01*
X67398244Y-17119600D02*
X67255387Y-17167219D01*
X67255387Y-17167219D02*
X67017292Y-17167219D01*
X9676816Y-19667219D02*
X10010149Y-20667219D01*
X10010149Y-20667219D02*
X10343482Y-19667219D01*
X10819673Y-20667219D02*
X10724435Y-20619600D01*
X10724435Y-20619600D02*
X10676816Y-20571980D01*
X10676816Y-20571980D02*
X10629197Y-20476742D01*
X10629197Y-20476742D02*
X10629197Y-20191028D01*
X10629197Y-20191028D02*
X10676816Y-20095790D01*
X10676816Y-20095790D02*
X10724435Y-20048171D01*
X10724435Y-20048171D02*
X10819673Y-20000552D01*
X10819673Y-20000552D02*
X10962530Y-20000552D01*
X10962530Y-20000552D02*
X11057768Y-20048171D01*
X11057768Y-20048171D02*
X11105387Y-20095790D01*
X11105387Y-20095790D02*
X11153006Y-20191028D01*
X11153006Y-20191028D02*
X11153006Y-20476742D01*
X11153006Y-20476742D02*
X11105387Y-20571980D01*
X11105387Y-20571980D02*
X11057768Y-20619600D01*
X11057768Y-20619600D02*
X10962530Y-20667219D01*
X10962530Y-20667219D02*
X10819673Y-20667219D01*
X11724435Y-20667219D02*
X11629197Y-20619600D01*
X11629197Y-20619600D02*
X11581578Y-20524361D01*
X11581578Y-20524361D02*
X11581578Y-19667219D01*
X12533959Y-20000552D02*
X12533959Y-20667219D01*
X12105388Y-20000552D02*
X12105388Y-20524361D01*
X12105388Y-20524361D02*
X12153007Y-20619600D01*
X12153007Y-20619600D02*
X12248245Y-20667219D01*
X12248245Y-20667219D02*
X12391102Y-20667219D01*
X12391102Y-20667219D02*
X12486340Y-20619600D01*
X12486340Y-20619600D02*
X12533959Y-20571980D01*
X13010150Y-20667219D02*
X13010150Y-20000552D01*
X13010150Y-20095790D02*
X13057769Y-20048171D01*
X13057769Y-20048171D02*
X13153007Y-20000552D01*
X13153007Y-20000552D02*
X13295864Y-20000552D01*
X13295864Y-20000552D02*
X13391102Y-20048171D01*
X13391102Y-20048171D02*
X13438721Y-20143409D01*
X13438721Y-20143409D02*
X13438721Y-20667219D01*
X13438721Y-20143409D02*
X13486340Y-20048171D01*
X13486340Y-20048171D02*
X13581578Y-20000552D01*
X13581578Y-20000552D02*
X13724435Y-20000552D01*
X13724435Y-20000552D02*
X13819674Y-20048171D01*
X13819674Y-20048171D02*
X13867293Y-20143409D01*
X13867293Y-20143409D02*
X13867293Y-20667219D01*
X14724435Y-20619600D02*
X14629197Y-20667219D01*
X14629197Y-20667219D02*
X14438721Y-20667219D01*
X14438721Y-20667219D02*
X14343483Y-20619600D01*
X14343483Y-20619600D02*
X14295864Y-20524361D01*
X14295864Y-20524361D02*
X14295864Y-20143409D01*
X14295864Y-20143409D02*
X14343483Y-20048171D01*
X14343483Y-20048171D02*
X14438721Y-20000552D01*
X14438721Y-20000552D02*
X14629197Y-20000552D01*
X14629197Y-20000552D02*
X14724435Y-20048171D01*
X14724435Y-20048171D02*
X14772054Y-20143409D01*
X14772054Y-20143409D02*
X14772054Y-20238647D01*
X14772054Y-20238647D02*
X14295864Y-20333885D01*
X51450625Y-6267219D02*
X51450625Y-5505314D01*
X51260149Y-5695790D02*
X51450625Y-5505314D01*
X51450625Y-5505314D02*
X51641101Y-5695790D01*
X52831577Y-5314838D02*
X52736339Y-5267219D01*
X52736339Y-5267219D02*
X52593482Y-5267219D01*
X52593482Y-5267219D02*
X52450625Y-5314838D01*
X52450625Y-5314838D02*
X52355387Y-5410076D01*
X52355387Y-5410076D02*
X52307768Y-5505314D01*
X52307768Y-5505314D02*
X52260149Y-5695790D01*
X52260149Y-5695790D02*
X52260149Y-5838647D01*
X52260149Y-5838647D02*
X52307768Y-6029123D01*
X52307768Y-6029123D02*
X52355387Y-6124361D01*
X52355387Y-6124361D02*
X52450625Y-6219600D01*
X52450625Y-6219600D02*
X52593482Y-6267219D01*
X52593482Y-6267219D02*
X52688720Y-6267219D01*
X52688720Y-6267219D02*
X52831577Y-6219600D01*
X52831577Y-6219600D02*
X52879196Y-6171980D01*
X52879196Y-6171980D02*
X52879196Y-5838647D01*
X52879196Y-5838647D02*
X52688720Y-5838647D01*
X53260149Y-5981504D02*
X53736339Y-5981504D01*
X53164911Y-6267219D02*
X53498244Y-5267219D01*
X53498244Y-5267219D02*
X53831577Y-6267219D01*
X54164911Y-6267219D02*
X54164911Y-5267219D01*
X54641101Y-6267219D02*
X54641101Y-5267219D01*
X54641101Y-5267219D02*
X55212529Y-6267219D01*
X55212529Y-6267219D02*
X55212529Y-5267219D01*
X18117292Y-26352933D02*
X18783958Y-27019600D01*
X18450625Y-26352933D02*
X18117292Y-26352933D01*
X18117292Y-26352933D02*
X18117292Y-26686266D01*
X19783958Y-27067219D02*
X19307768Y-27067219D01*
X19307768Y-27067219D02*
X19307768Y-26067219D01*
X20117292Y-26543409D02*
X20450625Y-26543409D01*
X20593482Y-27067219D02*
X20117292Y-27067219D01*
X20117292Y-27067219D02*
X20117292Y-26067219D01*
X20117292Y-26067219D02*
X20593482Y-26067219D01*
X21022054Y-27067219D02*
X21022054Y-26067219D01*
X21022054Y-26067219D02*
X21260149Y-26067219D01*
X21260149Y-26067219D02*
X21403006Y-26114838D01*
X21403006Y-26114838D02*
X21498244Y-26210076D01*
X21498244Y-26210076D02*
X21545863Y-26305314D01*
X21545863Y-26305314D02*
X21593482Y-26495790D01*
X21593482Y-26495790D02*
X21593482Y-26638647D01*
X21593482Y-26638647D02*
X21545863Y-26829123D01*
X21545863Y-26829123D02*
X21498244Y-26924361D01*
X21498244Y-26924361D02*
X21403006Y-27019600D01*
X21403006Y-27019600D02*
X21260149Y-27067219D01*
X21260149Y-27067219D02*
X21022054Y-27067219D01*
X40769673Y-34486266D02*
X41531578Y-34486266D01*
X41150625Y-34867219D02*
X41150625Y-34105314D01*
X43517292Y-33667219D02*
X43707768Y-33667219D01*
X43707768Y-33667219D02*
X43803006Y-33619600D01*
X43803006Y-33619600D02*
X43850625Y-33571980D01*
X43850625Y-33571980D02*
X43945863Y-33429123D01*
X43945863Y-33429123D02*
X43993482Y-33238647D01*
X43993482Y-33238647D02*
X43993482Y-32857695D01*
X43993482Y-32857695D02*
X43945863Y-32762457D01*
X43945863Y-32762457D02*
X43898244Y-32714838D01*
X43898244Y-32714838D02*
X43803006Y-32667219D01*
X43803006Y-32667219D02*
X43612530Y-32667219D01*
X43612530Y-32667219D02*
X43517292Y-32714838D01*
X43517292Y-32714838D02*
X43469673Y-32762457D01*
X43469673Y-32762457D02*
X43422054Y-32857695D01*
X43422054Y-32857695D02*
X43422054Y-33095790D01*
X43422054Y-33095790D02*
X43469673Y-33191028D01*
X43469673Y-33191028D02*
X43517292Y-33238647D01*
X43517292Y-33238647D02*
X43612530Y-33286266D01*
X43612530Y-33286266D02*
X43803006Y-33286266D01*
X43803006Y-33286266D02*
X43898244Y-33238647D01*
X43898244Y-33238647D02*
X43945863Y-33191028D01*
X43945863Y-33191028D02*
X43993482Y-33095790D01*
X44422054Y-33286266D02*
X45183959Y-33286266D01*
X46183958Y-33667219D02*
X45612530Y-33667219D01*
X45898244Y-33667219D02*
X45898244Y-32667219D01*
X45898244Y-32667219D02*
X45803006Y-32810076D01*
X45803006Y-32810076D02*
X45707768Y-32905314D01*
X45707768Y-32905314D02*
X45612530Y-32952933D01*
X46755387Y-33095790D02*
X46660149Y-33048171D01*
X46660149Y-33048171D02*
X46612530Y-33000552D01*
X46612530Y-33000552D02*
X46564911Y-32905314D01*
X46564911Y-32905314D02*
X46564911Y-32857695D01*
X46564911Y-32857695D02*
X46612530Y-32762457D01*
X46612530Y-32762457D02*
X46660149Y-32714838D01*
X46660149Y-32714838D02*
X46755387Y-32667219D01*
X46755387Y-32667219D02*
X46945863Y-32667219D01*
X46945863Y-32667219D02*
X47041101Y-32714838D01*
X47041101Y-32714838D02*
X47088720Y-32762457D01*
X47088720Y-32762457D02*
X47136339Y-32857695D01*
X47136339Y-32857695D02*
X47136339Y-32905314D01*
X47136339Y-32905314D02*
X47088720Y-33000552D01*
X47088720Y-33000552D02*
X47041101Y-33048171D01*
X47041101Y-33048171D02*
X46945863Y-33095790D01*
X46945863Y-33095790D02*
X46755387Y-33095790D01*
X46755387Y-33095790D02*
X46660149Y-33143409D01*
X46660149Y-33143409D02*
X46612530Y-33191028D01*
X46612530Y-33191028D02*
X46564911Y-33286266D01*
X46564911Y-33286266D02*
X46564911Y-33476742D01*
X46564911Y-33476742D02*
X46612530Y-33571980D01*
X46612530Y-33571980D02*
X46660149Y-33619600D01*
X46660149Y-33619600D02*
X46755387Y-33667219D01*
X46755387Y-33667219D02*
X46945863Y-33667219D01*
X46945863Y-33667219D02*
X47041101Y-33619600D01*
X47041101Y-33619600D02*
X47088720Y-33571980D01*
X47088720Y-33571980D02*
X47136339Y-33476742D01*
X47136339Y-33476742D02*
X47136339Y-33286266D01*
X47136339Y-33286266D02*
X47088720Y-33191028D01*
X47088720Y-33191028D02*
X47041101Y-33143409D01*
X47041101Y-33143409D02*
X46945863Y-33095790D01*
X47422054Y-32667219D02*
X47755387Y-33667219D01*
X47755387Y-33667219D02*
X48088720Y-32667219D01*
X68368422Y-29166266D02*
X69130327Y-29166266D01*
X68939850Y-29356742D02*
X69130327Y-29166266D01*
X69130327Y-29166266D02*
X68939850Y-28975790D01*
X65225565Y-31157219D02*
X65225565Y-30157219D01*
X65225565Y-30157219D02*
X65606517Y-30157219D01*
X65606517Y-30157219D02*
X65701755Y-30204838D01*
X65701755Y-30204838D02*
X65749374Y-30252457D01*
X65749374Y-30252457D02*
X65796993Y-30347695D01*
X65796993Y-30347695D02*
X65796993Y-30490552D01*
X65796993Y-30490552D02*
X65749374Y-30585790D01*
X65749374Y-30585790D02*
X65701755Y-30633409D01*
X65701755Y-30633409D02*
X65606517Y-30681028D01*
X65606517Y-30681028D02*
X65225565Y-30681028D01*
X66225565Y-31157219D02*
X66225565Y-30157219D01*
X66701755Y-30633409D02*
X67035088Y-30633409D01*
X67177945Y-31157219D02*
X66701755Y-31157219D01*
X66701755Y-31157219D02*
X66701755Y-30157219D01*
X66701755Y-30157219D02*
X67177945Y-30157219D01*
X67511279Y-30157219D02*
X68177945Y-30157219D01*
X68177945Y-30157219D02*
X67511279Y-31157219D01*
X67511279Y-31157219D02*
X68177945Y-31157219D01*
X68749374Y-30157219D02*
X68939850Y-30157219D01*
X68939850Y-30157219D02*
X69035088Y-30204838D01*
X69035088Y-30204838D02*
X69130326Y-30300076D01*
X69130326Y-30300076D02*
X69177945Y-30490552D01*
X69177945Y-30490552D02*
X69177945Y-30823885D01*
X69177945Y-30823885D02*
X69130326Y-31014361D01*
X69130326Y-31014361D02*
X69035088Y-31109600D01*
X69035088Y-31109600D02*
X68939850Y-31157219D01*
X68939850Y-31157219D02*
X68749374Y-31157219D01*
X68749374Y-31157219D02*
X68654136Y-31109600D01*
X68654136Y-31109600D02*
X68558898Y-31014361D01*
X68558898Y-31014361D02*
X68511279Y-30823885D01*
X68511279Y-30823885D02*
X68511279Y-30490552D01*
X68511279Y-30490552D02*
X68558898Y-30300076D01*
X68558898Y-30300076D02*
X68654136Y-30204838D01*
X68654136Y-30204838D02*
X68749374Y-30157219D01*
X68082708Y-32767219D02*
X68082708Y-31767219D01*
X68558898Y-32767219D02*
X68558898Y-31767219D01*
X68558898Y-31767219D02*
X69130326Y-32767219D01*
X69130326Y-32767219D02*
X69130326Y-31767219D01*
X25241101Y-29267219D02*
X24907768Y-28791028D01*
X24669673Y-29267219D02*
X24669673Y-28267219D01*
X24669673Y-28267219D02*
X25050625Y-28267219D01*
X25050625Y-28267219D02*
X25145863Y-28314838D01*
X25145863Y-28314838D02*
X25193482Y-28362457D01*
X25193482Y-28362457D02*
X25241101Y-28457695D01*
X25241101Y-28457695D02*
X25241101Y-28600552D01*
X25241101Y-28600552D02*
X25193482Y-28695790D01*
X25193482Y-28695790D02*
X25145863Y-28743409D01*
X25145863Y-28743409D02*
X25050625Y-28791028D01*
X25050625Y-28791028D02*
X24669673Y-28791028D01*
X47443482Y-10867219D02*
X46872054Y-10867219D01*
X47157768Y-10867219D02*
X47157768Y-9867219D01*
X47157768Y-9867219D02*
X47062530Y-10010076D01*
X47062530Y-10010076D02*
X46967292Y-10105314D01*
X46967292Y-10105314D02*
X46872054Y-10152933D01*
X48062530Y-9867219D02*
X48157768Y-9867219D01*
X48157768Y-9867219D02*
X48253006Y-9914838D01*
X48253006Y-9914838D02*
X48300625Y-9962457D01*
X48300625Y-9962457D02*
X48348244Y-10057695D01*
X48348244Y-10057695D02*
X48395863Y-10248171D01*
X48395863Y-10248171D02*
X48395863Y-10486266D01*
X48395863Y-10486266D02*
X48348244Y-10676742D01*
X48348244Y-10676742D02*
X48300625Y-10771980D01*
X48300625Y-10771980D02*
X48253006Y-10819600D01*
X48253006Y-10819600D02*
X48157768Y-10867219D01*
X48157768Y-10867219D02*
X48062530Y-10867219D01*
X48062530Y-10867219D02*
X47967292Y-10819600D01*
X47967292Y-10819600D02*
X47919673Y-10771980D01*
X47919673Y-10771980D02*
X47872054Y-10676742D01*
X47872054Y-10676742D02*
X47824435Y-10486266D01*
X47824435Y-10486266D02*
X47824435Y-10248171D01*
X47824435Y-10248171D02*
X47872054Y-10057695D01*
X47872054Y-10057695D02*
X47919673Y-9962457D01*
X47919673Y-9962457D02*
X47967292Y-9914838D01*
X47967292Y-9914838D02*
X48062530Y-9867219D01*
X49253006Y-10200552D02*
X49253006Y-10867219D01*
X48824435Y-10200552D02*
X48824435Y-10724361D01*
X48824435Y-10724361D02*
X48872054Y-10819600D01*
X48872054Y-10819600D02*
X48967292Y-10867219D01*
X48967292Y-10867219D02*
X49110149Y-10867219D01*
X49110149Y-10867219D02*
X49205387Y-10819600D01*
X49205387Y-10819600D02*
X49253006Y-10771980D01*
D11*
X65106224Y-22495739D02*
X65906224Y-22495739D01*
X65906224Y-22495739D02*
X65906224Y-22686215D01*
X65906224Y-22686215D02*
X65868129Y-22800501D01*
X65868129Y-22800501D02*
X65791939Y-22876691D01*
X65791939Y-22876691D02*
X65715748Y-22914786D01*
X65715748Y-22914786D02*
X65563367Y-22952882D01*
X65563367Y-22952882D02*
X65449081Y-22952882D01*
X65449081Y-22952882D02*
X65296700Y-22914786D01*
X65296700Y-22914786D02*
X65220510Y-22876691D01*
X65220510Y-22876691D02*
X65144320Y-22800501D01*
X65144320Y-22800501D02*
X65106224Y-22686215D01*
X65106224Y-22686215D02*
X65106224Y-22495739D01*
X65106224Y-23295739D02*
X65906224Y-23295739D01*
X65906224Y-23295739D02*
X65106224Y-23752882D01*
X65106224Y-23752882D02*
X65906224Y-23752882D01*
X65106224Y-24133834D02*
X65906224Y-24133834D01*
X65906224Y-24133834D02*
X65906224Y-24438596D01*
X65906224Y-24438596D02*
X65868129Y-24514786D01*
X65868129Y-24514786D02*
X65830034Y-24552881D01*
X65830034Y-24552881D02*
X65753843Y-24590977D01*
X65753843Y-24590977D02*
X65639558Y-24590977D01*
X65639558Y-24590977D02*
X65563367Y-24552881D01*
X65563367Y-24552881D02*
X65525272Y-24514786D01*
X65525272Y-24514786D02*
X65487177Y-24438596D01*
X65487177Y-24438596D02*
X65487177Y-24133834D01*
D10*
X1731578Y-29166266D02*
X969673Y-29166266D01*
X1160149Y-29356742D02*
X969673Y-29166266D01*
X969673Y-29166266D02*
X1160149Y-28975790D01*
X922054Y-30871504D02*
X1398244Y-30871504D01*
X826816Y-31157219D02*
X1160149Y-30157219D01*
X1160149Y-30157219D02*
X1493482Y-31157219D01*
X1826816Y-30157219D02*
X1826816Y-30966742D01*
X1826816Y-30966742D02*
X1874435Y-31061980D01*
X1874435Y-31061980D02*
X1922054Y-31109600D01*
X1922054Y-31109600D02*
X2017292Y-31157219D01*
X2017292Y-31157219D02*
X2207768Y-31157219D01*
X2207768Y-31157219D02*
X2303006Y-31109600D01*
X2303006Y-31109600D02*
X2350625Y-31061980D01*
X2350625Y-31061980D02*
X2398244Y-30966742D01*
X2398244Y-30966742D02*
X2398244Y-30157219D01*
X2874435Y-31157219D02*
X2874435Y-30157219D01*
X2874435Y-30157219D02*
X3112530Y-30157219D01*
X3112530Y-30157219D02*
X3255387Y-30204838D01*
X3255387Y-30204838D02*
X3350625Y-30300076D01*
X3350625Y-30300076D02*
X3398244Y-30395314D01*
X3398244Y-30395314D02*
X3445863Y-30585790D01*
X3445863Y-30585790D02*
X3445863Y-30728647D01*
X3445863Y-30728647D02*
X3398244Y-30919123D01*
X3398244Y-30919123D02*
X3350625Y-31014361D01*
X3350625Y-31014361D02*
X3255387Y-31109600D01*
X3255387Y-31109600D02*
X3112530Y-31157219D01*
X3112530Y-31157219D02*
X2874435Y-31157219D01*
X3874435Y-31157219D02*
X3874435Y-30157219D01*
X4541101Y-30157219D02*
X4731577Y-30157219D01*
X4731577Y-30157219D02*
X4826815Y-30204838D01*
X4826815Y-30204838D02*
X4922053Y-30300076D01*
X4922053Y-30300076D02*
X4969672Y-30490552D01*
X4969672Y-30490552D02*
X4969672Y-30823885D01*
X4969672Y-30823885D02*
X4922053Y-31014361D01*
X4922053Y-31014361D02*
X4826815Y-31109600D01*
X4826815Y-31109600D02*
X4731577Y-31157219D01*
X4731577Y-31157219D02*
X4541101Y-31157219D01*
X4541101Y-31157219D02*
X4445863Y-31109600D01*
X4445863Y-31109600D02*
X4350625Y-31014361D01*
X4350625Y-31014361D02*
X4303006Y-30823885D01*
X4303006Y-30823885D02*
X4303006Y-30490552D01*
X4303006Y-30490552D02*
X4350625Y-30300076D01*
X4350625Y-30300076D02*
X4445863Y-30204838D01*
X4445863Y-30204838D02*
X4541101Y-30157219D01*
X1160149Y-31767219D02*
X1350625Y-31767219D01*
X1350625Y-31767219D02*
X1445863Y-31814838D01*
X1445863Y-31814838D02*
X1541101Y-31910076D01*
X1541101Y-31910076D02*
X1588720Y-32100552D01*
X1588720Y-32100552D02*
X1588720Y-32433885D01*
X1588720Y-32433885D02*
X1541101Y-32624361D01*
X1541101Y-32624361D02*
X1445863Y-32719600D01*
X1445863Y-32719600D02*
X1350625Y-32767219D01*
X1350625Y-32767219D02*
X1160149Y-32767219D01*
X1160149Y-32767219D02*
X1064911Y-32719600D01*
X1064911Y-32719600D02*
X969673Y-32624361D01*
X969673Y-32624361D02*
X922054Y-32433885D01*
X922054Y-32433885D02*
X922054Y-32100552D01*
X922054Y-32100552D02*
X969673Y-31910076D01*
X969673Y-31910076D02*
X1064911Y-31814838D01*
X1064911Y-31814838D02*
X1160149Y-31767219D01*
X2017292Y-31767219D02*
X2017292Y-32576742D01*
X2017292Y-32576742D02*
X2064911Y-32671980D01*
X2064911Y-32671980D02*
X2112530Y-32719600D01*
X2112530Y-32719600D02*
X2207768Y-32767219D01*
X2207768Y-32767219D02*
X2398244Y-32767219D01*
X2398244Y-32767219D02*
X2493482Y-32719600D01*
X2493482Y-32719600D02*
X2541101Y-32671980D01*
X2541101Y-32671980D02*
X2588720Y-32576742D01*
X2588720Y-32576742D02*
X2588720Y-31767219D01*
X2922054Y-31767219D02*
X3493482Y-31767219D01*
X3207768Y-32767219D02*
X3207768Y-31767219D01*
X27631578Y-21386266D02*
X26869673Y-21386266D01*
X27060149Y-21576742D02*
X26869673Y-21386266D01*
X26869673Y-21386266D02*
X27060149Y-21195790D01*
X28441101Y-21243409D02*
X28583958Y-21291028D01*
X28583958Y-21291028D02*
X28631577Y-21338647D01*
X28631577Y-21338647D02*
X28679196Y-21433885D01*
X28679196Y-21433885D02*
X28679196Y-21576742D01*
X28679196Y-21576742D02*
X28631577Y-21671980D01*
X28631577Y-21671980D02*
X28583958Y-21719600D01*
X28583958Y-21719600D02*
X28488720Y-21767219D01*
X28488720Y-21767219D02*
X28107768Y-21767219D01*
X28107768Y-21767219D02*
X28107768Y-20767219D01*
X28107768Y-20767219D02*
X28441101Y-20767219D01*
X28441101Y-20767219D02*
X28536339Y-20814838D01*
X28536339Y-20814838D02*
X28583958Y-20862457D01*
X28583958Y-20862457D02*
X28631577Y-20957695D01*
X28631577Y-20957695D02*
X28631577Y-21052933D01*
X28631577Y-21052933D02*
X28583958Y-21148171D01*
X28583958Y-21148171D02*
X28536339Y-21195790D01*
X28536339Y-21195790D02*
X28441101Y-21243409D01*
X28441101Y-21243409D02*
X28107768Y-21243409D01*
X29060149Y-21481504D02*
X29536339Y-21481504D01*
X28964911Y-21767219D02*
X29298244Y-20767219D01*
X29298244Y-20767219D02*
X29631577Y-21767219D01*
X29869673Y-20767219D02*
X30536339Y-21767219D01*
X30536339Y-20767219D02*
X29869673Y-21767219D01*
X65193482Y-8014838D02*
X65098244Y-7967219D01*
X65098244Y-7967219D02*
X64955387Y-7967219D01*
X64955387Y-7967219D02*
X64812530Y-8014838D01*
X64812530Y-8014838D02*
X64717292Y-8110076D01*
X64717292Y-8110076D02*
X64669673Y-8205314D01*
X64669673Y-8205314D02*
X64622054Y-8395790D01*
X64622054Y-8395790D02*
X64622054Y-8538647D01*
X64622054Y-8538647D02*
X64669673Y-8729123D01*
X64669673Y-8729123D02*
X64717292Y-8824361D01*
X64717292Y-8824361D02*
X64812530Y-8919600D01*
X64812530Y-8919600D02*
X64955387Y-8967219D01*
X64955387Y-8967219D02*
X65050625Y-8967219D01*
X65050625Y-8967219D02*
X65193482Y-8919600D01*
X65193482Y-8919600D02*
X65241101Y-8871980D01*
X65241101Y-8871980D02*
X65241101Y-8538647D01*
X65241101Y-8538647D02*
X65050625Y-8538647D01*
X65669673Y-8967219D02*
X65669673Y-7967219D01*
X65669673Y-7967219D02*
X66241101Y-8967219D01*
X66241101Y-8967219D02*
X66241101Y-7967219D01*
X66717292Y-8967219D02*
X66717292Y-7967219D01*
X66717292Y-7967219D02*
X66955387Y-7967219D01*
X66955387Y-7967219D02*
X67098244Y-8014838D01*
X67098244Y-8014838D02*
X67193482Y-8110076D01*
X67193482Y-8110076D02*
X67241101Y-8205314D01*
X67241101Y-8205314D02*
X67288720Y-8395790D01*
X67288720Y-8395790D02*
X67288720Y-8538647D01*
X67288720Y-8538647D02*
X67241101Y-8729123D01*
X67241101Y-8729123D02*
X67193482Y-8824361D01*
X67193482Y-8824361D02*
X67098244Y-8919600D01*
X67098244Y-8919600D02*
X66955387Y-8967219D01*
X66955387Y-8967219D02*
X66717292Y-8967219D01*
X50774435Y-26257219D02*
X50774435Y-25495314D01*
X50583959Y-25685790D02*
X50774435Y-25495314D01*
X50774435Y-25495314D02*
X50964911Y-25685790D01*
X49441101Y-27771980D02*
X49393482Y-27819600D01*
X49393482Y-27819600D02*
X49250625Y-27867219D01*
X49250625Y-27867219D02*
X49155387Y-27867219D01*
X49155387Y-27867219D02*
X49012530Y-27819600D01*
X49012530Y-27819600D02*
X48917292Y-27724361D01*
X48917292Y-27724361D02*
X48869673Y-27629123D01*
X48869673Y-27629123D02*
X48822054Y-27438647D01*
X48822054Y-27438647D02*
X48822054Y-27295790D01*
X48822054Y-27295790D02*
X48869673Y-27105314D01*
X48869673Y-27105314D02*
X48917292Y-27010076D01*
X48917292Y-27010076D02*
X49012530Y-26914838D01*
X49012530Y-26914838D02*
X49155387Y-26867219D01*
X49155387Y-26867219D02*
X49250625Y-26867219D01*
X49250625Y-26867219D02*
X49393482Y-26914838D01*
X49393482Y-26914838D02*
X49441101Y-26962457D01*
X49869673Y-27867219D02*
X49869673Y-26867219D01*
X49869673Y-27343409D02*
X50441101Y-27343409D01*
X50441101Y-27867219D02*
X50441101Y-26867219D01*
X50869673Y-27581504D02*
X51345863Y-27581504D01*
X50774435Y-27867219D02*
X51107768Y-26867219D01*
X51107768Y-26867219D02*
X51441101Y-27867219D01*
X15350625Y-6267219D02*
X15350625Y-5505314D01*
X15160149Y-5695790D02*
X15350625Y-5505314D01*
X15350625Y-5505314D02*
X15541101Y-5695790D01*
X16779196Y-6171980D02*
X16731577Y-6219600D01*
X16731577Y-6219600D02*
X16588720Y-6267219D01*
X16588720Y-6267219D02*
X16493482Y-6267219D01*
X16493482Y-6267219D02*
X16350625Y-6219600D01*
X16350625Y-6219600D02*
X16255387Y-6124361D01*
X16255387Y-6124361D02*
X16207768Y-6029123D01*
X16207768Y-6029123D02*
X16160149Y-5838647D01*
X16160149Y-5838647D02*
X16160149Y-5695790D01*
X16160149Y-5695790D02*
X16207768Y-5505314D01*
X16207768Y-5505314D02*
X16255387Y-5410076D01*
X16255387Y-5410076D02*
X16350625Y-5314838D01*
X16350625Y-5314838D02*
X16493482Y-5267219D01*
X16493482Y-5267219D02*
X16588720Y-5267219D01*
X16588720Y-5267219D02*
X16731577Y-5314838D01*
X16731577Y-5314838D02*
X16779196Y-5362457D01*
X17207768Y-5743409D02*
X17541101Y-5743409D01*
X17683958Y-6267219D02*
X17207768Y-6267219D01*
X17207768Y-6267219D02*
X17207768Y-5267219D01*
X17207768Y-5267219D02*
X17683958Y-5267219D01*
X18112530Y-6267219D02*
X18112530Y-5267219D01*
X18112530Y-5267219D02*
X18683958Y-6267219D01*
X18683958Y-6267219D02*
X18683958Y-5267219D01*
X19017292Y-5267219D02*
X19588720Y-5267219D01*
X19303006Y-6267219D02*
X19303006Y-5267219D01*
X55876816Y-19667219D02*
X56448244Y-19667219D01*
X56162530Y-20667219D02*
X56162530Y-19667219D01*
X56781578Y-20667219D02*
X56781578Y-20000552D01*
X56781578Y-20191028D02*
X56829197Y-20095790D01*
X56829197Y-20095790D02*
X56876816Y-20048171D01*
X56876816Y-20048171D02*
X56972054Y-20000552D01*
X56972054Y-20000552D02*
X57067292Y-20000552D01*
X57781578Y-20619600D02*
X57686340Y-20667219D01*
X57686340Y-20667219D02*
X57495864Y-20667219D01*
X57495864Y-20667219D02*
X57400626Y-20619600D01*
X57400626Y-20619600D02*
X57353007Y-20524361D01*
X57353007Y-20524361D02*
X57353007Y-20143409D01*
X57353007Y-20143409D02*
X57400626Y-20048171D01*
X57400626Y-20048171D02*
X57495864Y-20000552D01*
X57495864Y-20000552D02*
X57686340Y-20000552D01*
X57686340Y-20000552D02*
X57781578Y-20048171D01*
X57781578Y-20048171D02*
X57829197Y-20143409D01*
X57829197Y-20143409D02*
X57829197Y-20238647D01*
X57829197Y-20238647D02*
X57353007Y-20333885D01*
X58257769Y-20667219D02*
X58257769Y-19667219D01*
X58257769Y-20048171D02*
X58353007Y-20000552D01*
X58353007Y-20000552D02*
X58543483Y-20000552D01*
X58543483Y-20000552D02*
X58638721Y-20048171D01*
X58638721Y-20048171D02*
X58686340Y-20095790D01*
X58686340Y-20095790D02*
X58733959Y-20191028D01*
X58733959Y-20191028D02*
X58733959Y-20476742D01*
X58733959Y-20476742D02*
X58686340Y-20571980D01*
X58686340Y-20571980D02*
X58638721Y-20619600D01*
X58638721Y-20619600D02*
X58543483Y-20667219D01*
X58543483Y-20667219D02*
X58353007Y-20667219D01*
X58353007Y-20667219D02*
X58257769Y-20619600D01*
X59305388Y-20667219D02*
X59210150Y-20619600D01*
X59210150Y-20619600D02*
X59162531Y-20524361D01*
X59162531Y-20524361D02*
X59162531Y-19667219D01*
X60067293Y-20619600D02*
X59972055Y-20667219D01*
X59972055Y-20667219D02*
X59781579Y-20667219D01*
X59781579Y-20667219D02*
X59686341Y-20619600D01*
X59686341Y-20619600D02*
X59638722Y-20524361D01*
X59638722Y-20524361D02*
X59638722Y-20143409D01*
X59638722Y-20143409D02*
X59686341Y-20048171D01*
X59686341Y-20048171D02*
X59781579Y-20000552D01*
X59781579Y-20000552D02*
X59972055Y-20000552D01*
X59972055Y-20000552D02*
X60067293Y-20048171D01*
X60067293Y-20048171D02*
X60114912Y-20143409D01*
X60114912Y-20143409D02*
X60114912Y-20238647D01*
X60114912Y-20238647D02*
X59638722Y-20333885D01*
X9067219Y-2454136D02*
X9067219Y-2930326D01*
X9067219Y-2930326D02*
X8067219Y-2930326D01*
X38643482Y-27767219D02*
X38072054Y-27767219D01*
X38357768Y-27767219D02*
X38357768Y-26767219D01*
X38357768Y-26767219D02*
X38262530Y-26910076D01*
X38262530Y-26910076D02*
X38167292Y-27005314D01*
X38167292Y-27005314D02*
X38072054Y-27052933D01*
X39262530Y-26767219D02*
X39357768Y-26767219D01*
X39357768Y-26767219D02*
X39453006Y-26814838D01*
X39453006Y-26814838D02*
X39500625Y-26862457D01*
X39500625Y-26862457D02*
X39548244Y-26957695D01*
X39548244Y-26957695D02*
X39595863Y-27148171D01*
X39595863Y-27148171D02*
X39595863Y-27386266D01*
X39595863Y-27386266D02*
X39548244Y-27576742D01*
X39548244Y-27576742D02*
X39500625Y-27671980D01*
X39500625Y-27671980D02*
X39453006Y-27719600D01*
X39453006Y-27719600D02*
X39357768Y-27767219D01*
X39357768Y-27767219D02*
X39262530Y-27767219D01*
X39262530Y-27767219D02*
X39167292Y-27719600D01*
X39167292Y-27719600D02*
X39119673Y-27671980D01*
X39119673Y-27671980D02*
X39072054Y-27576742D01*
X39072054Y-27576742D02*
X39024435Y-27386266D01*
X39024435Y-27386266D02*
X39024435Y-27148171D01*
X39024435Y-27148171D02*
X39072054Y-26957695D01*
X39072054Y-26957695D02*
X39119673Y-26862457D01*
X39119673Y-26862457D02*
X39167292Y-26814838D01*
X39167292Y-26814838D02*
X39262530Y-26767219D01*
X40214911Y-26767219D02*
X40310149Y-26767219D01*
X40310149Y-26767219D02*
X40405387Y-26814838D01*
X40405387Y-26814838D02*
X40453006Y-26862457D01*
X40453006Y-26862457D02*
X40500625Y-26957695D01*
X40500625Y-26957695D02*
X40548244Y-27148171D01*
X40548244Y-27148171D02*
X40548244Y-27386266D01*
X40548244Y-27386266D02*
X40500625Y-27576742D01*
X40500625Y-27576742D02*
X40453006Y-27671980D01*
X40453006Y-27671980D02*
X40405387Y-27719600D01*
X40405387Y-27719600D02*
X40310149Y-27767219D01*
X40310149Y-27767219D02*
X40214911Y-27767219D01*
X40214911Y-27767219D02*
X40119673Y-27719600D01*
X40119673Y-27719600D02*
X40072054Y-27671980D01*
X40072054Y-27671980D02*
X40024435Y-27576742D01*
X40024435Y-27576742D02*
X39976816Y-27386266D01*
X39976816Y-27386266D02*
X39976816Y-27148171D01*
X39976816Y-27148171D02*
X40024435Y-26957695D01*
X40024435Y-26957695D02*
X40072054Y-26862457D01*
X40072054Y-26862457D02*
X40119673Y-26814838D01*
X40119673Y-26814838D02*
X40214911Y-26767219D01*
X41405387Y-27100552D02*
X41405387Y-27767219D01*
X40976816Y-27100552D02*
X40976816Y-27624361D01*
X40976816Y-27624361D02*
X41024435Y-27719600D01*
X41024435Y-27719600D02*
X41119673Y-27767219D01*
X41119673Y-27767219D02*
X41262530Y-27767219D01*
X41262530Y-27767219D02*
X41357768Y-27719600D01*
X41357768Y-27719600D02*
X41405387Y-27671980D01*
D12*
X33849937Y-25187826D02*
X34611842Y-25187826D01*
X34230889Y-25568779D02*
X34230889Y-24806874D01*
X52850062Y-8612173D02*
X52088158Y-8612173D01*
X52469110Y-8231220D02*
X52469110Y-8993125D01*
X12912173Y-33749937D02*
X12912173Y-34511842D01*
X12531220Y-34130889D02*
X13293125Y-34130889D01*
X36599937Y-30887826D02*
X37361842Y-30887826D01*
X36980889Y-31268779D02*
X36980889Y-30506874D01*
X58550062Y-31762173D02*
X57788158Y-31762173D01*
X58169110Y-31381220D02*
X58169110Y-32143125D01*
D10*
X25800000Y-16650000D02*
X25800000Y-15250000D01*
X35700000Y-23700000D02*
X37500000Y-21900000D01*
X35700000Y-26700000D02*
X37500000Y-28500000D01*
X37500000Y-21900000D02*
X42300000Y-21900000D01*
X37500000Y-28500000D02*
X42300000Y-28500000D01*
X42300000Y-21900000D02*
X42300000Y-23700000D01*
X42300000Y-28500000D02*
X42300000Y-26700000D01*
D13*
X35061803Y-23550000D02*
G75*
G03*
X34838197Y-23550000I-111803J0D01*
G01*
X34838197Y-23550000D02*
G75*
G03*
X35061803Y-23550000I111803J0D01*
G01*
X35000000Y-23550000D02*
G75*
G03*
X34900000Y-23550000I-50000J0D01*
G01*
X34900000Y-23550000D02*
G75*
G03*
X35000000Y-23550000I50000J0D01*
G01*
D10*
X25400000Y-13700000D02*
X25400000Y-14350000D01*
X60800000Y-23500000D02*
X61600000Y-23500000D01*
X34500000Y-32950000D02*
X36200000Y-32950000D01*
X34500000Y-34250000D02*
X36200000Y-34250000D01*
X62300000Y-23500000D02*
X63100000Y-23500000D01*
X38350000Y-30550000D02*
X42600000Y-30550000D01*
X38350000Y-33750000D02*
X38350000Y-30550000D01*
X42600000Y-30550000D02*
X42600000Y-33750000D01*
X42600000Y-33750000D02*
X38350000Y-33750000D01*
X41200000Y-32750000D02*
G75*
G03*
X41000000Y-32750000I-100000J0D01*
G01*
X41000000Y-32750000D02*
G75*
G03*
X41200000Y-32750000I100000J0D01*
G01*
X44700000Y-14100000D02*
X44700000Y-12700000D01*
X21000000Y-14950000D02*
X21000000Y-14150000D01*
X7200000Y-21700000D02*
X7800000Y-21700000D01*
X29550000Y-25400000D02*
X29550000Y-26000000D01*
X13900000Y-28600000D02*
X15100000Y-28600000D01*
X39850000Y-19900000D02*
X38350000Y-19900000D01*
X39850000Y-16900000D02*
X39850000Y-19900000D01*
X39850000Y-11900000D02*
X39850000Y-7400000D01*
X39850000Y-7400000D02*
X39000000Y-7400000D01*
X31000000Y-7400000D02*
X30150000Y-7400000D01*
X30150000Y-19900000D02*
X31650000Y-19900000D01*
X30150000Y-19900000D02*
X30150000Y-16900000D01*
X30150000Y-7400000D02*
X30150000Y-11900000D01*
X37400000Y-6100000D02*
G75*
G03*
X37600000Y-6100000I100000J0D01*
G01*
X37600000Y-6100000D02*
G75*
G03*
X37400000Y-6100000I-100000J0D01*
G01*
X49950000Y-22200000D02*
X51150000Y-22200000D01*
X51500000Y-22250000D02*
X52100000Y-22250000D01*
X51500000Y-25150000D02*
X51500000Y-22250000D01*
X52100000Y-22250000D02*
X52100000Y-25150000D01*
X52100000Y-25150000D02*
X51500000Y-25150000D01*
X49500000Y-22700000D02*
G75*
G03*
X49400000Y-22700000I-50000J0D01*
G01*
X49400000Y-22700000D02*
G75*
G03*
X49500000Y-22700000I50000J0D01*
G01*
D14*
X42500000Y-4500000D02*
X42500000Y-4500000D01*
D10*
X42500000Y-4500000D02*
X41250000Y-4500000D01*
D14*
X42500000Y-4400000D02*
X42500000Y-4400000D01*
D10*
X42500000Y-4400000D02*
X42500000Y-1000000D01*
D14*
X42500000Y-1000000D02*
X42500000Y-4400000D01*
X42500000Y-1000000D02*
X42500000Y-1000000D01*
X42500000Y-1000000D02*
X42500000Y-1000000D01*
D10*
X42500000Y-1000000D02*
X41250000Y-1000000D01*
D14*
X41250000Y-4500000D02*
X42500000Y-4500000D01*
X41250000Y-4500000D02*
X41250000Y-4500000D01*
X41250000Y-1000000D02*
X42500000Y-1000000D01*
X41250000Y-1000000D02*
X41250000Y-1000000D01*
D10*
X40050000Y-2300000D02*
X40050000Y-2300000D01*
X40050000Y-2300000D02*
X40050000Y-2300000D01*
X39950000Y-2300000D02*
X39950000Y-2300000D01*
X36750000Y-850000D02*
X35250000Y-850000D01*
X36750000Y1000000D02*
X36750000Y-850000D01*
X35250000Y-850000D02*
X35250000Y1000000D01*
X35250000Y1000000D02*
X36750000Y1000000D01*
D14*
X28500000Y-4500000D02*
X28500000Y-4500000D01*
D10*
X28500000Y-4500000D02*
X27500000Y-4500000D01*
D14*
X28500000Y-1000000D02*
X28500000Y-1000000D01*
D10*
X28500000Y-1000000D02*
X27500000Y-1000000D01*
D14*
X27500000Y-4500000D02*
X28500000Y-4500000D01*
X27500000Y-4500000D02*
X27500000Y-4500000D01*
X27500000Y-4500000D02*
X27500000Y-4500000D01*
D10*
X27500000Y-4500000D02*
X27500000Y-1000000D01*
D14*
X27500000Y-1000000D02*
X28500000Y-1000000D01*
X27500000Y-1000000D02*
X27500000Y-4500000D01*
X27500000Y-1000000D02*
X27500000Y-1000000D01*
X27500000Y-1000000D02*
X27500000Y-1000000D01*
D10*
X39950000Y-2300000D02*
G75*
G03*
X40050000Y-2300000I50000J0D01*
G01*
X40050000Y-2300000D02*
G75*
G03*
X39950000Y-2300000I-50000J0D01*
G01*
X40050000Y-2300000D02*
G75*
G03*
X39950000Y-2300000I-50000J0D01*
G01*
X28700000Y-19250000D02*
X29300000Y-19250000D01*
X46400000Y-20150000D02*
X46400000Y-21550000D01*
X25800000Y-25000000D02*
X25800000Y-26850000D01*
X27100000Y-25000000D02*
X27100000Y-26800000D01*
X3000000Y-11500000D02*
X3000000Y-10900000D01*
X21050000Y-18450000D02*
X21050000Y-19850000D01*
X3400000Y-14100000D02*
X3400000Y-15300000D01*
X50900000Y-10100000D02*
X49750000Y-11250000D01*
X50900000Y-7100000D02*
X49750000Y-5950000D01*
X49750000Y-11250000D02*
X45600000Y-11250000D01*
X49750000Y-5950000D02*
X45600000Y-5950000D01*
X45600000Y-11250000D02*
X45600000Y-10100000D01*
X45600000Y-5950000D02*
X45600000Y-7100000D01*
D13*
X51600000Y-10050000D02*
G75*
G03*
X51500000Y-10050000I-50000J0D01*
G01*
X51500000Y-10050000D02*
G75*
G03*
X51600000Y-10050000I50000J0D01*
G01*
X51661803Y-10050000D02*
G75*
G03*
X51438197Y-10050000I-111803J0D01*
G01*
X51438197Y-10050000D02*
G75*
G03*
X51661803Y-10050000I111803J0D01*
G01*
D10*
X12575000Y-30300000D02*
X12400000Y-30300000D01*
X12575000Y-30300000D02*
X12575000Y-33700000D01*
X11200000Y-30350000D02*
X11025000Y-30350000D01*
X11025000Y-30350000D02*
X11025000Y-33700000D01*
D15*
X12500000Y-31250000D02*
X11100000Y-31250000D01*
D10*
X12575000Y-33700000D02*
X12400000Y-33700000D01*
X11200000Y-33700000D02*
X11025000Y-33700000D01*
X18200000Y-29625000D02*
X17800000Y-29625000D01*
X18200000Y-28375000D02*
X17800000Y-28375000D01*
X51500000Y-19550000D02*
X50100000Y-19550000D01*
X5600000Y-26650000D02*
X5600000Y-22150000D01*
X4800000Y-26650000D02*
X5600000Y-26650000D01*
X1450000Y-26650000D02*
X600000Y-26650000D01*
X600000Y-26650000D02*
X600000Y-22150000D01*
X600000Y-21250000D02*
X600000Y-21250000D01*
X600000Y-21250000D02*
X600000Y-21150000D01*
X600000Y-21150000D02*
X600000Y-21150000D01*
X600000Y-21150000D02*
G75*
G03*
X600000Y-21250000I0J-50000D01*
G01*
X600000Y-21250000D02*
G75*
G03*
X600000Y-21150000I0J50000D01*
G01*
D13*
X758114Y-21200000D02*
G75*
G03*
X441886Y-21200000I-158114J0D01*
G01*
X441886Y-21200000D02*
G75*
G03*
X758114Y-21200000I158114J0D01*
G01*
D10*
X31400000Y-26600000D02*
X32800000Y-26600000D01*
X27200000Y-7900000D02*
X28600000Y-7900000D01*
X16950000Y-19900000D02*
X15450000Y-19900000D01*
X16950000Y-16900000D02*
X16950000Y-19900000D01*
X16950000Y-11900000D02*
X16950000Y-7400000D01*
X16950000Y-7400000D02*
X16100000Y-7400000D01*
X8100000Y-7400000D02*
X7250000Y-7400000D01*
X7250000Y-19900000D02*
X8750000Y-19900000D01*
X7250000Y-19900000D02*
X7250000Y-16900000D01*
X7250000Y-7400000D02*
X7250000Y-11900000D01*
X14500000Y-6100000D02*
G75*
G03*
X14700000Y-6100000I100000J0D01*
G01*
X14700000Y-6100000D02*
G75*
G03*
X14500000Y-6100000I-100000J0D01*
G01*
X24200000Y-7900000D02*
X22800000Y-7900000D01*
X9000000Y-31600000D02*
X9600000Y-31600000D01*
X6540000Y-9000000D02*
X6540000Y-7800000D01*
X6540000Y-7800000D02*
X1460000Y-7800000D01*
X1460000Y-10200000D02*
X5270000Y-10200000D01*
X1460000Y-7800000D02*
X1460000Y-10200000D01*
X21000000Y-16100000D02*
X21000000Y-17500000D01*
X23550000Y-21650000D02*
X23550000Y-20450000D01*
X23600000Y-20100000D02*
X23600000Y-19500000D01*
X26500000Y-20100000D02*
X23600000Y-20100000D01*
X23600000Y-19500000D02*
X26500000Y-19500000D01*
X26500000Y-19500000D02*
X26500000Y-20100000D01*
X24100000Y-22150000D02*
G75*
G03*
X24000000Y-22150000I-50000J0D01*
G01*
X24000000Y-22150000D02*
G75*
G03*
X24100000Y-22150000I50000J0D01*
G01*
X8650000Y-21600000D02*
X9350000Y-21600000D01*
X42600000Y-7800000D02*
X43200000Y-7800000D01*
X22700000Y-12100000D02*
X23500000Y-12100000D01*
X62750000Y-19900000D02*
X61250000Y-19900000D01*
X62750000Y-16900000D02*
X62750000Y-19900000D01*
X62750000Y-11900000D02*
X62750000Y-7400000D01*
X62750000Y-7400000D02*
X61900000Y-7400000D01*
X53900000Y-7400000D02*
X53050000Y-7400000D01*
X53050000Y-19900000D02*
X54550000Y-19900000D01*
X53050000Y-19900000D02*
X53050000Y-16900000D01*
X53050000Y-7400000D02*
X53050000Y-11900000D01*
X60300000Y-6100000D02*
G75*
G03*
X60500000Y-6100000I100000J0D01*
G01*
X60500000Y-6100000D02*
G75*
G03*
X60300000Y-6100000I-100000J0D01*
G01*
X12550000Y-26300000D02*
X17050000Y-26300000D01*
X12550000Y-25500000D02*
X12550000Y-26300000D01*
X12550000Y-22150000D02*
X12550000Y-21300000D01*
X12550000Y-21300000D02*
X17050000Y-21300000D01*
X17950000Y-21300000D02*
X17950000Y-21300000D01*
X17950000Y-21300000D02*
X18050000Y-21300000D01*
X18050000Y-21300000D02*
X18050000Y-21300000D01*
X18050000Y-21300000D02*
G75*
G03*
X17950000Y-21300000I-50000J0D01*
G01*
X17950000Y-21300000D02*
G75*
G03*
X18050000Y-21300000I50000J0D01*
G01*
D13*
X18158114Y-21300000D02*
G75*
G03*
X17841886Y-21300000I-158114J0D01*
G01*
X17841886Y-21300000D02*
G75*
G03*
X18158114Y-21300000I158114J0D01*
G01*
D10*
X22200000Y-11900000D02*
X21400000Y-11900000D01*
X44700000Y-16500000D02*
X44700000Y-15100000D01*
X53800000Y-26300000D02*
X53800000Y-27700000D01*
X55100000Y-23100000D02*
X56500000Y-23100000D01*
X46400000Y-17900000D02*
X46400000Y-19300000D01*
X48000000Y-25650000D02*
X46150000Y-25650000D01*
X48000000Y-26950000D02*
X46200000Y-26950000D01*
X26900000Y-12850000D02*
X26900000Y-12150000D01*
D14*
X24500000Y-4500000D02*
X24500000Y-4500000D01*
D10*
X24500000Y-4500000D02*
X23250000Y-4500000D01*
D14*
X24500000Y-4400000D02*
X24500000Y-4400000D01*
D10*
X24500000Y-4400000D02*
X24500000Y-1000000D01*
D14*
X24500000Y-1000000D02*
X24500000Y-4400000D01*
X24500000Y-1000000D02*
X24500000Y-1000000D01*
X24500000Y-1000000D02*
X24500000Y-1000000D01*
D10*
X24500000Y-1000000D02*
X23250000Y-1000000D01*
D14*
X23250000Y-4500000D02*
X24500000Y-4500000D01*
X23250000Y-4500000D02*
X23250000Y-4500000D01*
X23250000Y-1000000D02*
X24500000Y-1000000D01*
X23250000Y-1000000D02*
X23250000Y-1000000D01*
D10*
X22050000Y-2300000D02*
X22050000Y-2300000D01*
X22050000Y-2300000D02*
X22050000Y-2300000D01*
X21950000Y-2300000D02*
X21950000Y-2300000D01*
X18750000Y-850000D02*
X17250000Y-850000D01*
X18750000Y1000000D02*
X18750000Y-850000D01*
X17250000Y-850000D02*
X17250000Y1000000D01*
X17250000Y1000000D02*
X18750000Y1000000D01*
D14*
X10500000Y-4500000D02*
X10500000Y-4500000D01*
D10*
X10500000Y-4500000D02*
X9500000Y-4500000D01*
D14*
X10500000Y-1000000D02*
X10500000Y-1000000D01*
D10*
X10500000Y-1000000D02*
X9500000Y-1000000D01*
D14*
X9500000Y-4500000D02*
X10500000Y-4500000D01*
X9500000Y-4500000D02*
X9500000Y-4500000D01*
X9500000Y-4500000D02*
X9500000Y-4500000D01*
D10*
X9500000Y-4500000D02*
X9500000Y-1000000D01*
D14*
X9500000Y-1000000D02*
X10500000Y-1000000D01*
X9500000Y-1000000D02*
X9500000Y-4500000D01*
X9500000Y-1000000D02*
X9500000Y-1000000D01*
X9500000Y-1000000D02*
X9500000Y-1000000D01*
D10*
X21950000Y-2300000D02*
G75*
G03*
X22050000Y-2300000I50000J0D01*
G01*
X22050000Y-2300000D02*
G75*
G03*
X21950000Y-2300000I-50000J0D01*
G01*
X22050000Y-2300000D02*
G75*
G03*
X21950000Y-2300000I-50000J0D01*
G01*
X61450000Y-30600000D02*
X62000000Y-30600000D01*
X58975000Y-23600000D02*
X60025000Y-23600000D01*
X14025000Y-31100000D02*
X15175000Y-31100000D01*
X15525000Y-31200000D02*
X16275000Y-31200000D01*
X15525000Y-34200000D02*
X15525000Y-31200000D01*
X16275000Y-31200000D02*
X16275000Y-34200000D01*
X16275000Y-34200000D02*
X15525000Y-34200000D01*
X13761803Y-31700000D02*
G75*
G03*
X13538197Y-31700000I-111803J0D01*
G01*
X13538197Y-31700000D02*
G75*
G03*
X13761803Y-31700000I111803J0D01*
G01*
D14*
X60500000Y-4500000D02*
X60500000Y-4500000D01*
D10*
X60500000Y-4500000D02*
X59250000Y-4500000D01*
D14*
X60500000Y-4400000D02*
X60500000Y-4400000D01*
D10*
X60500000Y-4400000D02*
X60500000Y-1000000D01*
D14*
X60500000Y-1000000D02*
X60500000Y-4400000D01*
X60500000Y-1000000D02*
X60500000Y-1000000D01*
X60500000Y-1000000D02*
X60500000Y-1000000D01*
D10*
X60500000Y-1000000D02*
X59250000Y-1000000D01*
D14*
X59250000Y-4500000D02*
X60500000Y-4500000D01*
X59250000Y-4500000D02*
X59250000Y-4500000D01*
X59250000Y-1000000D02*
X60500000Y-1000000D01*
X59250000Y-1000000D02*
X59250000Y-1000000D01*
D10*
X58050000Y-2300000D02*
X58050000Y-2300000D01*
X58050000Y-2300000D02*
X58050000Y-2300000D01*
X57950000Y-2300000D02*
X57950000Y-2300000D01*
X54750000Y-850000D02*
X53250000Y-850000D01*
X54750000Y1000000D02*
X54750000Y-850000D01*
X53250000Y-850000D02*
X53250000Y1000000D01*
X53250000Y1000000D02*
X54750000Y1000000D01*
D14*
X46500000Y-4500000D02*
X46500000Y-4500000D01*
D10*
X46500000Y-4500000D02*
X45500000Y-4500000D01*
D14*
X46500000Y-1000000D02*
X46500000Y-1000000D01*
D10*
X46500000Y-1000000D02*
X45500000Y-1000000D01*
D14*
X45500000Y-4500000D02*
X46500000Y-4500000D01*
X45500000Y-4500000D02*
X45500000Y-4500000D01*
X45500000Y-4500000D02*
X45500000Y-4500000D01*
D10*
X45500000Y-4500000D02*
X45500000Y-1000000D01*
D14*
X45500000Y-1000000D02*
X46500000Y-1000000D01*
X45500000Y-1000000D02*
X45500000Y-4500000D01*
X45500000Y-1000000D02*
X45500000Y-1000000D01*
X45500000Y-1000000D02*
X45500000Y-1000000D01*
D10*
X57950000Y-2300000D02*
G75*
G03*
X58050000Y-2300000I50000J0D01*
G01*
X58050000Y-2300000D02*
G75*
G03*
X57950000Y-2300000I-50000J0D01*
G01*
X58050000Y-2300000D02*
G75*
G03*
X57950000Y-2300000I-50000J0D01*
G01*
X25800000Y-11300000D02*
X25800000Y-10600000D01*
X30850000Y-23225000D02*
X30450000Y-23225000D01*
X30850000Y-21975000D02*
X30450000Y-21975000D01*
X57400000Y-23500000D02*
X58200000Y-23500000D01*
X34200000Y-30100000D02*
X34200000Y-30350000D01*
X34200000Y-30100000D02*
X35850000Y-30100000D01*
X34200000Y-31475000D02*
X34200000Y-31725000D01*
X34200000Y-31725000D02*
X35850000Y-31725000D01*
D15*
X34850000Y-30200000D02*
X34850000Y-31600000D01*
D10*
X35850000Y-30100000D02*
X35850000Y-30350000D01*
X35850000Y-31475000D02*
X35850000Y-31725000D01*
X2900000Y-13150000D02*
X2900000Y-12450000D01*
X63800000Y-23500000D02*
X64600000Y-23500000D01*
X47450000Y-14900000D02*
X48850000Y-14900000D01*
X5100000Y-19000000D02*
X4100000Y-19000000D01*
X3750000Y-18800000D02*
X3450000Y-18800000D01*
X3750000Y-16800000D02*
X3750000Y-18800000D01*
X3450000Y-18800000D02*
X3450000Y-16800000D01*
X3450000Y-16800000D02*
X3750000Y-16800000D01*
X5650000Y-18450000D02*
G75*
G03*
X5450000Y-18450000I-100000J0D01*
G01*
X5450000Y-18450000D02*
G75*
G03*
X5650000Y-18450000I100000J0D01*
G01*
X29550000Y-27500000D02*
X29550000Y-26900000D01*
X40850000Y-7800000D02*
X41550000Y-7800000D01*
X59550000Y-30600000D02*
X60100000Y-30600000D01*
X21800000Y-7800000D02*
X20400000Y-7800000D01*
X56600000Y-33250000D02*
X55450000Y-34400000D01*
X56600000Y-30250000D02*
X55450000Y-29100000D01*
X55450000Y-34400000D02*
X51300000Y-34400000D01*
X55450000Y-29100000D02*
X51300000Y-29100000D01*
X51300000Y-34400000D02*
X51300000Y-33250000D01*
X51300000Y-29100000D02*
X51300000Y-30250000D01*
D13*
X57300000Y-33200000D02*
G75*
G03*
X57200000Y-33200000I-50000J0D01*
G01*
X57200000Y-33200000D02*
G75*
G03*
X57300000Y-33200000I50000J0D01*
G01*
X57361803Y-33200000D02*
G75*
G03*
X57138197Y-33200000I-111803J0D01*
G01*
X57138197Y-33200000D02*
G75*
G03*
X57361803Y-33200000I111803J0D01*
G01*
D10*
X23100000Y-26000000D02*
X23100000Y-27200000D01*
X19575000Y-12100000D02*
X20625000Y-12100000D01*
X26275000Y-8300000D02*
X25225000Y-8300000D01*
%LPC*%
D16*
X65000000Y-4500000D03*
D17*
X27337500Y-15950000D03*
X24262500Y-15950000D03*
D18*
X36500000Y-25200000D03*
X41500000Y-25200000D03*
D19*
X24700000Y-14050000D03*
X26100000Y-14050000D03*
D20*
X61200000Y-24200000D03*
X61200000Y-22800000D03*
D21*
X34188000Y-33600000D03*
X36512000Y-33600000D03*
D20*
X62700000Y-24200000D03*
X62700000Y-22800000D03*
D22*
X41100000Y-31700000D03*
X39850000Y-31700000D03*
D23*
X46080000Y-13400000D03*
X43320000Y-13400000D03*
D19*
X20300000Y-14550000D03*
X21700000Y-14550000D03*
D24*
X7500000Y-22500000D03*
X7500000Y-20900000D03*
D25*
X28750000Y-25700000D03*
X30350000Y-25700000D03*
D26*
X14500000Y-27770000D03*
X14500000Y-29430000D03*
D27*
X37500000Y-7400000D03*
X35000000Y-7400000D03*
X32500000Y-7400000D03*
D28*
X39400000Y-14400000D03*
D29*
X30600000Y-14400000D03*
D30*
X50450000Y-22750000D03*
X50450000Y-23700000D03*
X50450000Y-24650000D03*
X53150000Y-24650000D03*
X53150000Y-22750000D03*
D31*
X40000000Y-1100000D03*
X38000000Y-1100000D03*
X34000000Y-1100000D03*
X32000000Y-1100000D03*
X30000000Y-1100000D03*
X30000000Y-4400000D03*
X32000000Y-4400000D03*
X34000000Y-4400000D03*
X38000000Y-4400000D03*
X40000000Y-4400000D03*
D24*
X29000000Y-20050000D03*
X29000000Y-18450000D03*
D23*
X45020000Y-20850000D03*
X47780000Y-20850000D03*
D32*
X26450000Y-27000000D03*
X26450000Y-24800000D03*
D25*
X3800000Y-11200000D03*
X2200000Y-11200000D03*
D23*
X19670000Y-19150000D03*
X22430000Y-19150000D03*
D33*
X4230000Y-14700000D03*
X2570000Y-14700000D03*
D34*
X29300000Y-31900000D03*
D35*
X50400000Y-8600000D03*
X46100000Y-8600000D03*
D36*
X11800000Y-30300000D03*
X11800000Y-33700000D03*
D37*
X18950000Y-29000000D03*
X17050000Y-29000000D03*
D38*
X50800000Y-18170000D03*
X50800000Y-20930000D03*
D39*
X1925000Y-21400000D03*
D40*
X3100000Y-27400000D03*
D39*
X4275000Y-21400000D03*
D41*
X32100000Y-28050000D03*
X32100000Y-25150000D03*
D38*
X27900000Y-9280000D03*
X27900000Y-6520000D03*
D27*
X14600000Y-7400000D03*
X12100000Y-7400000D03*
X9600000Y-7400000D03*
D28*
X16500000Y-14400000D03*
D29*
X7700000Y-14400000D03*
D38*
X23500000Y-6520000D03*
X23500000Y-9280000D03*
D24*
X9300000Y-32400000D03*
X9300000Y-30800000D03*
D42*
X5270000Y-9000000D03*
D43*
X2730000Y-9000000D03*
D44*
X19550000Y-16800000D03*
X22450000Y-16800000D03*
D45*
X24100000Y-21150000D03*
X25050000Y-21150000D03*
X26000000Y-21150000D03*
X26000000Y-18450000D03*
X24100000Y-18450000D03*
D46*
X9000000Y-22325000D03*
X9000000Y-20875000D03*
D24*
X42900000Y-8600000D03*
X42900000Y-7000000D03*
D20*
X23100000Y-12800000D03*
X23100000Y-11400000D03*
D27*
X60400000Y-7400000D03*
X57900000Y-7400000D03*
X55400000Y-7400000D03*
D28*
X62300000Y-14400000D03*
D29*
X53500000Y-14400000D03*
D47*
X17800000Y-22625000D03*
D40*
X11800000Y-23800000D03*
D47*
X17800000Y-24975000D03*
D20*
X21800000Y-12600000D03*
X21800000Y-11200000D03*
D23*
X46080000Y-15800000D03*
X43320000Y-15800000D03*
D44*
X52350000Y-27000000D03*
X55250000Y-27000000D03*
D48*
X55800000Y-24637500D03*
X55800000Y-21562500D03*
D23*
X45020000Y-18600000D03*
X47780000Y-18600000D03*
D32*
X46000000Y-26300000D03*
X48200000Y-26300000D03*
D49*
X27625000Y-12500000D03*
X26175000Y-12500000D03*
D31*
X22000000Y-1100000D03*
X20000000Y-1100000D03*
X16000000Y-1100000D03*
X14000000Y-1100000D03*
X12000000Y-1100000D03*
X12000000Y-4400000D03*
X14000000Y-4400000D03*
X16000000Y-4400000D03*
X20000000Y-4400000D03*
X22000000Y-4400000D03*
D50*
X61750000Y-31476300D03*
X61750000Y-29723700D03*
D51*
X59500000Y-24600000D03*
X59500000Y-22600000D03*
D52*
X14600000Y-31750000D03*
X14600000Y-32700000D03*
X14600000Y-33650000D03*
X17200000Y-33650000D03*
X17200000Y-32700000D03*
X17200000Y-31750000D03*
D31*
X58000000Y-1100000D03*
X56000000Y-1100000D03*
X52000000Y-1100000D03*
X50000000Y-1100000D03*
X48000000Y-1100000D03*
X48000000Y-4400000D03*
X50000000Y-4400000D03*
X52000000Y-4400000D03*
X56000000Y-4400000D03*
X58000000Y-4400000D03*
D49*
X26525000Y-10950000D03*
X25075000Y-10950000D03*
D37*
X31600000Y-22600000D03*
X29700000Y-22600000D03*
D20*
X57800000Y-24200000D03*
X57800000Y-22800000D03*
D32*
X34175000Y-30900000D03*
X35825000Y-30900000D03*
D49*
X3625000Y-12800000D03*
X2175000Y-12800000D03*
D20*
X64200000Y-24200000D03*
X64200000Y-22800000D03*
D38*
X48150000Y-16280000D03*
X48150000Y-13520000D03*
D53*
X4600000Y-18450000D03*
X4600000Y-17800000D03*
X4600000Y-17150000D03*
X2600000Y-17150000D03*
X2600000Y-17800000D03*
X2600000Y-18450000D03*
D25*
X30350000Y-27200000D03*
X28750000Y-27200000D03*
D46*
X41200000Y-8525000D03*
X41200000Y-7075000D03*
D50*
X59850000Y-31476300D03*
X59850000Y-29723700D03*
D38*
X21100000Y-6420000D03*
X21100000Y-9180000D03*
D35*
X56100000Y-31750000D03*
X51800000Y-31750000D03*
D34*
X5000000Y-4500000D03*
D33*
X23930000Y-26600000D03*
X22270000Y-26600000D03*
D51*
X20100000Y-13100000D03*
X20100000Y-11100000D03*
X25750000Y-7300000D03*
X25750000Y-9300000D03*
D54*
X66200000Y-13300000D03*
D55*
X7700000Y-26300000D03*
X22600000Y-23800000D03*
X22600000Y-28800000D03*
X62300000Y-26300000D03*
X47400000Y-28800000D03*
X47400000Y-23800000D03*
%LPD*%
M02*
