G04 #@! TF.GenerationSoftware,KiCad,Pcbnew,7.0.9*
G04 #@! TF.CreationDate,2023-12-08T16:12:54+01:00*
G04 #@! TF.ProjectId,2023_PiezoPreamp,32303233-5f50-4696-957a-6f507265616d,rev?*
G04 #@! TF.SameCoordinates,PX2625a00PY1c22260*
G04 #@! TF.FileFunction,Copper,L4,Bot*
G04 #@! TF.FilePolarity,Positive*
%FSLAX46Y46*%
G04 Gerber Fmt 4.6, Leading zero omitted, Abs format (unit mm)*
G04 Created by KiCad (PCBNEW 7.0.9) date 2023-12-08 16:12:54*
%MOMM*%
%LPD*%
G01*
G04 APERTURE LIST*
G04 #@! TA.AperFunction,ComponentPad*
%ADD10C,1.800000*%
G04 #@! TD*
G04 #@! TA.AperFunction,ComponentPad*
%ADD11O,3.600000X4.000000*%
G04 #@! TD*
G04 #@! TA.AperFunction,ComponentPad*
%ADD12O,3.500000X4.000000*%
G04 #@! TD*
G04 #@! TA.AperFunction,ComponentPad*
%ADD13C,5.500000*%
G04 #@! TD*
G04 #@! TA.AperFunction,ComponentPad*
%ADD14C,1.000000*%
G04 #@! TD*
G04 #@! TA.AperFunction,ComponentPad*
%ADD15C,1.400000*%
G04 #@! TD*
G04 #@! TA.AperFunction,ComponentPad*
%ADD16R,1.650000X1.650000*%
G04 #@! TD*
G04 #@! TA.AperFunction,ComponentPad*
%ADD17C,1.650000*%
G04 #@! TD*
G04 #@! TA.AperFunction,ComponentPad*
%ADD18O,2.800000X4.800000*%
G04 #@! TD*
G04 #@! TA.AperFunction,ComponentPad*
%ADD19O,3.000000X1.800000*%
G04 #@! TD*
G04 #@! TA.AperFunction,ViaPad*
%ADD20C,0.800000*%
G04 #@! TD*
G04 #@! TA.AperFunction,ViaPad*
%ADD21C,0.700000*%
G04 #@! TD*
G04 #@! TA.AperFunction,Conductor*
%ADD22C,0.500000*%
G04 #@! TD*
G04 #@! TA.AperFunction,Conductor*
%ADD23C,0.349300*%
G04 #@! TD*
G04 #@! TA.AperFunction,Conductor*
%ADD24C,0.300000*%
G04 #@! TD*
G04 APERTURE END LIST*
D10*
X13600000Y-7400000D03*
X11100000Y-7400000D03*
X8600000Y-7400000D03*
D11*
X15500000Y-14400000D03*
D12*
X6700000Y-14400000D03*
D13*
X64000000Y-4500000D03*
D14*
X40100000Y-31700000D03*
X38850000Y-31700000D03*
D10*
X36500000Y-7400000D03*
X34000000Y-7400000D03*
X31500000Y-7400000D03*
D11*
X38400000Y-14400000D03*
D12*
X29600000Y-14400000D03*
D15*
X39000000Y-1100000D03*
X37000000Y-1100000D03*
X33000000Y-1100000D03*
X31000000Y-1100000D03*
X29000000Y-1100000D03*
X29000000Y-4400000D03*
X31000000Y-4400000D03*
X33000000Y-4400000D03*
X37000000Y-4400000D03*
X39000000Y-4400000D03*
D16*
X4270000Y-9000000D03*
D17*
X1730000Y-9000000D03*
D10*
X59400000Y-7400000D03*
X56900000Y-7400000D03*
X54400000Y-7400000D03*
D11*
X61300000Y-14400000D03*
D12*
X52500000Y-14400000D03*
D15*
X21000000Y-1100000D03*
X19000000Y-1100000D03*
X15000000Y-1100000D03*
X13000000Y-1100000D03*
X11000000Y-1100000D03*
X11000000Y-4400000D03*
X13000000Y-4400000D03*
X15000000Y-4400000D03*
X19000000Y-4400000D03*
X21000000Y-4400000D03*
X57000000Y-1100000D03*
X55000000Y-1100000D03*
X51000000Y-1100000D03*
X49000000Y-1100000D03*
X47000000Y-1100000D03*
X47000000Y-4400000D03*
X49000000Y-4400000D03*
X51000000Y-4400000D03*
X55000000Y-4400000D03*
X57000000Y-4400000D03*
D18*
X65200000Y-13300000D03*
D19*
X7700000Y-27300000D03*
X22600000Y-24800000D03*
X22600000Y-29800000D03*
X60300000Y-27300000D03*
X45400000Y-29800000D03*
X45400000Y-24800000D03*
D20*
X900000Y-33220000D03*
D21*
X48000000Y-5275850D03*
X46700000Y-10300000D03*
D20*
X49074150Y-19700000D03*
X46600000Y-14900000D03*
X45400000Y-19850000D03*
X23200000Y-8000000D03*
X26250000Y-8050000D03*
D21*
X24100000Y-18150000D03*
X20250000Y-19550000D03*
X24550000Y-15550000D03*
D20*
X22250000Y-22525850D03*
X52750000Y-29650000D03*
X50843462Y-25621186D03*
X7300000Y-33500000D03*
D21*
X47244774Y-9004729D03*
X1600000Y-16348205D03*
D20*
X15000000Y-17500000D03*
X57000000Y-10000000D03*
X6000000Y-7500000D03*
X65500000Y-27500000D03*
X10000000Y-16500000D03*
X38000000Y-23000000D03*
X12500000Y-12500000D03*
X26099006Y-19850000D03*
X8900000Y-31300000D03*
X12500000Y-32000000D03*
X37500000Y-17000000D03*
D21*
X31600000Y-30700000D03*
D20*
X67200000Y-18700000D03*
X1000000Y-6500000D03*
X34000000Y-28216418D03*
X54000000Y-18000000D03*
D21*
X22823192Y-10464368D03*
D20*
X48177409Y-26426388D03*
X24500000Y-31500000D03*
X20100000Y-27700000D03*
X1700000Y-25200000D03*
X13200000Y-28000000D03*
X10000000Y-10000000D03*
X1000000Y-2000000D03*
X58000000Y-6000000D03*
X35000000Y-4500000D03*
X66900000Y-7500000D03*
X35500000Y-22000000D03*
X26475939Y-24740881D03*
X47500000Y-32000000D03*
X12667237Y-22332763D03*
X1000000Y-27700000D03*
D21*
X3249500Y-16043034D03*
D20*
X28200000Y-28216418D03*
D21*
X25016828Y-5022013D03*
D20*
X35000000Y-10500000D03*
X36800000Y-31400000D03*
X21000000Y-31500000D03*
D21*
X19600000Y-22249503D03*
X17971915Y-15197968D03*
D20*
X27500000Y-2500000D03*
X59500000Y-9500000D03*
D21*
X21800000Y-14550000D03*
D20*
X17000000Y-19500000D03*
X63500000Y-18000000D03*
D21*
X29401531Y-21360423D03*
D20*
X60000000Y-2500000D03*
X56900000Y-26800000D03*
X4300000Y-24100000D03*
X18032763Y-27367237D03*
X25295674Y-23392583D03*
X18824150Y-7850000D03*
X42469782Y-30974384D03*
X10000000Y-33000000D03*
X5688733Y-25175205D03*
X7900000Y-30100000D03*
X51400500Y-23700498D03*
D21*
X17550000Y-18050000D03*
D20*
X14917237Y-26582763D03*
X46038707Y-27410793D03*
D21*
X53727593Y-11872407D03*
D20*
X42500000Y-1000000D03*
X9700000Y-21600000D03*
X38100000Y-21324150D03*
X7500000Y-10000000D03*
X19000000Y-31000000D03*
X23000000Y-1500000D03*
X13300000Y-25200000D03*
X43500000Y-17000000D03*
X20430000Y-32700000D03*
X34500000Y-16500000D03*
X37798315Y-11176475D03*
X56000000Y-13000000D03*
X40500000Y-21500000D03*
X26000000Y-28966418D03*
X10000000Y-30500000D03*
D21*
X58531415Y-22132884D03*
X19200000Y-24200000D03*
D20*
X32000000Y-11000000D03*
D21*
X50044751Y-10560434D03*
D20*
X5600000Y-31500000D03*
X29950000Y-8455850D03*
X34500000Y-19500000D03*
X49500000Y-34000000D03*
X65000000Y-33000000D03*
X17500000Y-4099500D03*
X41500000Y-10000000D03*
X42000000Y-23000000D03*
X50136419Y-15063627D03*
X67000000Y-10000000D03*
X24600000Y-27500000D03*
X31500000Y-16500000D03*
X37000000Y-9000000D03*
D21*
X24050000Y-19850000D03*
D20*
X17000000Y-1500000D03*
X47250000Y-23550000D03*
X10000000Y-19000000D03*
X12500000Y-27000000D03*
D21*
X32792143Y-25625850D03*
X4850500Y-18700000D03*
D20*
X61000000Y-33500000D03*
X34410315Y-32886772D03*
X9000000Y-5500000D03*
X56000000Y-3000000D03*
X24000000Y-3500000D03*
X15000000Y-10000000D03*
D21*
X30440000Y-6299500D03*
X47434875Y-11798739D03*
D20*
X17000000Y-12000000D03*
D21*
X42605976Y-17473108D03*
D20*
X49500000Y-28550000D03*
X56000000Y-29000000D03*
X20225498Y-16274150D03*
X66000000Y-23500000D03*
X57000000Y-33500000D03*
X43500000Y-12000000D03*
D21*
X40274123Y-12474078D03*
D20*
X62800000Y-29000000D03*
X14500000Y-19500000D03*
X49800000Y-17000000D03*
X10000000Y-2500000D03*
X60500000Y-11500000D03*
X26000000Y-17500000D03*
X40500000Y-2000000D03*
X1900000Y-23300000D03*
X26500000Y-5000000D03*
X10000000Y-12500000D03*
X10723543Y-25876457D03*
X12500000Y-18500000D03*
X41980648Y-28238703D03*
X56000000Y-19500000D03*
D21*
X27229428Y-10425850D03*
D20*
X28500000Y-17000000D03*
X63500000Y-22000000D03*
X63500000Y-10000000D03*
X42000000Y-4500000D03*
X34000000Y-13000000D03*
X31942453Y-21800500D03*
X37500000Y-19500000D03*
X38000000Y-25200000D03*
X43500000Y-34000000D03*
X45500000Y-3000000D03*
X41000000Y-19000000D03*
X54000000Y-27000000D03*
X12500000Y-10000000D03*
X37950000Y-28750000D03*
X35000000Y-2000000D03*
X36500000Y-34500000D03*
X40500000Y-29500000D03*
X53000000Y-2000000D03*
D21*
X55828600Y-21971400D03*
D20*
X7800000Y-4000000D03*
X58500000Y-19000000D03*
X56000000Y-16000000D03*
X31500000Y-19500000D03*
X7500000Y-17000000D03*
D21*
X60175850Y-21855987D03*
D20*
X51499958Y-19706182D03*
X6720000Y-25370000D03*
X51750000Y-26150000D03*
X52050000Y-20600000D03*
X27513957Y-24586043D03*
X52300000Y-22750000D03*
X25049503Y-19850000D03*
X42450000Y-27300000D03*
X47600000Y-25550000D03*
X26267350Y-22995972D03*
D21*
X24050000Y-5150000D03*
X42400000Y-18400000D03*
X51000000Y-10700000D03*
X60950000Y-22423898D03*
X56500000Y-21300000D03*
X57575000Y-22100000D03*
X46700000Y-12400000D03*
X39500000Y-11700000D03*
X47300000Y-8000000D03*
X18105283Y-14257879D03*
X21230000Y-13480000D03*
X29708213Y-5489559D03*
X21875000Y-10414502D03*
D20*
X18850000Y-25149503D03*
X32413329Y-30119051D03*
D21*
X26500000Y-11200000D03*
X52827593Y-10972407D03*
X29614944Y-20435215D03*
X19600000Y-21300000D03*
X33400000Y-26400000D03*
D22*
X5700000Y-23400000D02*
X5700000Y-17240000D01*
X6720000Y-25370000D02*
X6720000Y-24420000D01*
X6720000Y-24420000D02*
X5700000Y-23400000D01*
X5700000Y-17240000D02*
X4270000Y-15810000D01*
X4270000Y-15810000D02*
X4270000Y-9000000D01*
D23*
X29708213Y-5489559D02*
X29708213Y-5511787D01*
X27074650Y-8391582D02*
X21986232Y-13480000D01*
X29708213Y-5511787D02*
X27074650Y-8145350D01*
X27074650Y-8145350D02*
X27074650Y-8391582D01*
X21986232Y-13480000D02*
X21230000Y-13480000D01*
D22*
X28100000Y-24000000D02*
X43350000Y-24000000D01*
X27513957Y-24586043D02*
X28100000Y-24000000D01*
X43350000Y-24000000D02*
X44150000Y-23200000D01*
X44150000Y-23200000D02*
X46050000Y-23200000D01*
X46050000Y-23200000D02*
X47350000Y-21900000D01*
X47350000Y-21900000D02*
X51450000Y-21900000D01*
X51450000Y-21900000D02*
X52300000Y-22750000D01*
D23*
X51000000Y-10700000D02*
X51000000Y-4400000D01*
X18105283Y-14257879D02*
X18000000Y-14152596D01*
X18000000Y-14152596D02*
X18000000Y-7400000D01*
X18000000Y-7400000D02*
X15000000Y-4400000D01*
X52723950Y-3223950D02*
X52176050Y-2676050D01*
X57575000Y-22100000D02*
X57575000Y-19625000D01*
X57575000Y-19625000D02*
X56950000Y-19000000D01*
X52476050Y-8196926D02*
X52476050Y-6076412D01*
X56950000Y-12670876D02*
X52476050Y-8196926D01*
X52476050Y-6076412D02*
X52723950Y-5828512D01*
X56950000Y-19000000D02*
X56950000Y-12670876D01*
X52723950Y-5828512D02*
X52723950Y-3223950D01*
X52176050Y-2676050D02*
X48723950Y-2676050D01*
X48723950Y-2676050D02*
X47000000Y-4400000D01*
D22*
X52050000Y-20600000D02*
X52050000Y-22500000D01*
X51750000Y-26150000D02*
X52300000Y-25600000D01*
X52300000Y-25600000D02*
X52300000Y-22750000D01*
X52050000Y-22500000D02*
X52300000Y-22750000D01*
X42450000Y-27300000D02*
X43300000Y-26450000D01*
X25049503Y-21778125D02*
X25049503Y-19850000D01*
X43300000Y-26450000D02*
X46700000Y-26450000D01*
X46700000Y-26450000D02*
X47600000Y-25550000D01*
X26267350Y-22995972D02*
X25049503Y-21778125D01*
D23*
X21600000Y-2700000D02*
X24050000Y-5150000D01*
X19000000Y-1100000D02*
X20600000Y-2700000D01*
X20600000Y-2700000D02*
X21600000Y-2700000D01*
X41200000Y-17200000D02*
X41200000Y-11654479D01*
X37686616Y-5524650D02*
X34124650Y-5524650D01*
X39295521Y-9750000D02*
X39250000Y-9750000D01*
X41200000Y-11654479D02*
X39295521Y-9750000D01*
X34124650Y-5524650D02*
X33000000Y-4400000D01*
X42400000Y-18400000D02*
X41200000Y-17200000D01*
X39250000Y-9750000D02*
X39250000Y-7088034D01*
X39250000Y-7088034D02*
X37686616Y-5524650D01*
X60950000Y-22423898D02*
X60950000Y-20050000D01*
X53075350Y-7948688D02*
X53075350Y-6324650D01*
X53075350Y-6324650D02*
X55000000Y-4400000D01*
X57700000Y-16800000D02*
X57700000Y-12573338D01*
X60950000Y-20050000D02*
X57700000Y-16800000D01*
X57700000Y-12573338D02*
X53075350Y-7948688D01*
X52124650Y-3574650D02*
X51825350Y-3275350D01*
X55000000Y-12050000D02*
X51800000Y-8850000D01*
X51800000Y-8850000D02*
X51800000Y-5900000D01*
X51825350Y-3275350D02*
X50124650Y-3275350D01*
X51800000Y-5900000D02*
X52124650Y-5575350D01*
X56500000Y-21300000D02*
X55000000Y-19800000D01*
X50124650Y-3275350D02*
X49000000Y-4400000D01*
X52124650Y-5575350D02*
X52124650Y-3574650D01*
X55000000Y-19800000D02*
X55000000Y-12050000D01*
X47000000Y-4400000D02*
X47000000Y-4150000D01*
X44000000Y-11200000D02*
X43300000Y-10500000D01*
X45500000Y-11200000D02*
X44000000Y-11200000D01*
X37409504Y-4400000D02*
X37000000Y-4400000D01*
X38609504Y-5600000D02*
X37409504Y-4400000D01*
X43300000Y-6450000D02*
X42450000Y-5600000D01*
X43300000Y-10500000D02*
X43300000Y-6450000D01*
X46700000Y-12400000D02*
X45500000Y-11200000D01*
X42450000Y-5600000D02*
X38609504Y-5600000D01*
D24*
X38400000Y-7461522D02*
X37038478Y-6100000D01*
X38400000Y-10650000D02*
X38400000Y-7461522D01*
X32700000Y-6100000D02*
X31000000Y-4400000D01*
X39500000Y-11700000D02*
X39450000Y-11700000D01*
X37038478Y-6100000D02*
X32700000Y-6100000D01*
X39450000Y-11700000D02*
X38400000Y-10650000D01*
X30500000Y-2900000D02*
X42200000Y-2900000D01*
X42200000Y-2900000D02*
X47300000Y-8000000D01*
X29000000Y-4400000D02*
X30500000Y-2900000D01*
D23*
X21350000Y-6750000D02*
X19000000Y-4400000D01*
X21350000Y-9889502D02*
X21350000Y-6750000D01*
X21875000Y-10414502D02*
X21350000Y-9889502D01*
X11100000Y-7400000D02*
X11100000Y-19600000D01*
X11100000Y-19600000D02*
X14600000Y-23100000D01*
X14600000Y-25100000D02*
X19300000Y-29800000D01*
X19300000Y-29800000D02*
X22600000Y-29800000D01*
X14600000Y-23100000D02*
X14600000Y-25100000D01*
D24*
X21600000Y-26100000D02*
X19800497Y-26100000D01*
X25265918Y-29765918D02*
X21600000Y-26100000D01*
X32413329Y-30119051D02*
X32060196Y-29765918D01*
X19800497Y-26100000D02*
X18850000Y-25149503D01*
X32060196Y-29765918D02*
X25265918Y-29765918D01*
D22*
X27715918Y-29115918D02*
X36265918Y-29115918D01*
X36265918Y-29115918D02*
X38850000Y-31700000D01*
X22600000Y-24800000D02*
X23400000Y-24800000D01*
X23400000Y-24800000D02*
X27715918Y-29115918D01*
D23*
X30200000Y-11200000D02*
X34000000Y-7400000D01*
X26500000Y-11200000D02*
X30200000Y-11200000D01*
X43074580Y-20500000D02*
X52602173Y-10972407D01*
X52602173Y-10972407D02*
X52827593Y-10972407D01*
X29614944Y-20435215D02*
X29679729Y-20500000D01*
X29679729Y-20500000D02*
X43074580Y-20500000D01*
X24566162Y-24166162D02*
X24566162Y-24170554D01*
X21796018Y-23350000D02*
X23750000Y-23350000D01*
X19600000Y-21300000D02*
X19746018Y-21300000D01*
X24566162Y-24170554D02*
X26795608Y-26400000D01*
X26795608Y-26400000D02*
X33400000Y-26400000D01*
X23750000Y-23350000D02*
X24566162Y-24166162D01*
X19746018Y-21300000D02*
X21796018Y-23350000D01*
M02*
