G04 #@! TF.GenerationSoftware,KiCad,Pcbnew,7.0.10*
G04 #@! TF.CreationDate,2024-02-22T18:00:35+01:00*
G04 #@! TF.ProjectId,2023_PiezoPreamp,32303233-5f50-4696-957a-6f507265616d,2.3*
G04 #@! TF.SameCoordinates,PX25317c0PY1c22260*
G04 #@! TF.FileFunction,Copper,L1,Top*
G04 #@! TF.FilePolarity,Positive*
%FSLAX46Y46*%
G04 Gerber Fmt 4.6, Leading zero omitted, Abs format (unit mm)*
G04 Created by KiCad (PCBNEW 7.0.10) date 2024-02-22 18:00:35*
%MOMM*%
%LPD*%
G01*
G04 APERTURE LIST*
G04 #@! TA.AperFunction,ComponentPad*
%ADD10C,5.500000*%
G04 #@! TD*
G04 #@! TA.AperFunction,SMDPad,CuDef*
%ADD11R,1.325000X1.800000*%
G04 #@! TD*
G04 #@! TA.AperFunction,SMDPad,CuDef*
%ADD12R,3.200000X1.600000*%
G04 #@! TD*
G04 #@! TA.AperFunction,SMDPad,CuDef*
%ADD13R,0.750000X0.940000*%
G04 #@! TD*
G04 #@! TA.AperFunction,SMDPad,CuDef*
%ADD14R,0.940000X0.750000*%
G04 #@! TD*
G04 #@! TA.AperFunction,SMDPad,CuDef*
%ADD15R,1.075000X0.500000*%
G04 #@! TD*
G04 #@! TA.AperFunction,ComponentPad*
%ADD16C,1.000000*%
G04 #@! TD*
G04 #@! TA.AperFunction,SMDPad,CuDef*
%ADD17R,1.070000X1.820000*%
G04 #@! TD*
G04 #@! TA.AperFunction,SMDPad,CuDef*
%ADD18R,0.950000X0.800000*%
G04 #@! TD*
G04 #@! TA.AperFunction,SMDPad,CuDef*
%ADD19R,0.800000X0.950000*%
G04 #@! TD*
G04 #@! TA.AperFunction,SMDPad,CuDef*
%ADD20R,1.470000X0.970000*%
G04 #@! TD*
G04 #@! TA.AperFunction,ComponentPad*
%ADD21C,1.800000*%
G04 #@! TD*
G04 #@! TA.AperFunction,ComponentPad*
%ADD22O,3.600000X4.000000*%
G04 #@! TD*
G04 #@! TA.AperFunction,ComponentPad*
%ADD23O,3.500000X4.000000*%
G04 #@! TD*
G04 #@! TA.AperFunction,SMDPad,CuDef*
%ADD24R,1.400000X0.600000*%
G04 #@! TD*
G04 #@! TA.AperFunction,ComponentPad*
%ADD25C,1.400000*%
G04 #@! TD*
G04 #@! TA.AperFunction,SMDPad,CuDef*
%ADD26R,0.800000X0.800000*%
G04 #@! TD*
G04 #@! TA.AperFunction,SMDPad,CuDef*
%ADD27R,0.970000X1.470000*%
G04 #@! TD*
G04 #@! TA.AperFunction,SMDPad,CuDef*
%ADD28R,2.800000X1.600000*%
G04 #@! TD*
G04 #@! TA.AperFunction,SMDPad,CuDef*
%ADD29R,0.750000X1.200000*%
G04 #@! TD*
G04 #@! TA.AperFunction,SMDPad,CuDef*
%ADD30R,1.150000X1.150000*%
G04 #@! TD*
G04 #@! TA.AperFunction,SMDPad,CuDef*
%ADD31R,1.820000X1.070000*%
G04 #@! TD*
G04 #@! TA.AperFunction,SMDPad,CuDef*
%ADD32R,1.800000X2.400000*%
G04 #@! TD*
G04 #@! TA.AperFunction,SMDPad,CuDef*
%ADD33R,2.400000X2.400000*%
G04 #@! TD*
G04 #@! TA.AperFunction,SMDPad,CuDef*
%ADD34R,1.820000X1.150000*%
G04 #@! TD*
G04 #@! TA.AperFunction,ComponentPad*
%ADD35R,1.650000X1.650000*%
G04 #@! TD*
G04 #@! TA.AperFunction,ComponentPad*
%ADD36C,1.650000*%
G04 #@! TD*
G04 #@! TA.AperFunction,SMDPad,CuDef*
%ADD37R,1.150000X1.820000*%
G04 #@! TD*
G04 #@! TA.AperFunction,SMDPad,CuDef*
%ADD38R,0.600000X1.400000*%
G04 #@! TD*
G04 #@! TA.AperFunction,SMDPad,CuDef*
%ADD39R,0.900000X0.650000*%
G04 #@! TD*
G04 #@! TA.AperFunction,SMDPad,CuDef*
%ADD40R,2.400000X1.800000*%
G04 #@! TD*
G04 #@! TA.AperFunction,SMDPad,CuDef*
%ADD41R,1.800000X1.325000*%
G04 #@! TD*
G04 #@! TA.AperFunction,SMDPad,CuDef*
%ADD42R,0.650000X0.900000*%
G04 #@! TD*
G04 #@! TA.AperFunction,SMDPad,CuDef*
%ADD43R,0.863600X0.965200*%
G04 #@! TD*
G04 #@! TA.AperFunction,SMDPad,CuDef*
%ADD44R,1.470000X1.000000*%
G04 #@! TD*
G04 #@! TA.AperFunction,SMDPad,CuDef*
%ADD45R,1.150000X0.600000*%
G04 #@! TD*
G04 #@! TA.AperFunction,SMDPad,CuDef*
%ADD46R,1.000000X0.400000*%
G04 #@! TD*
G04 #@! TA.AperFunction,ComponentPad*
%ADD47O,2.800000X4.800000*%
G04 #@! TD*
G04 #@! TA.AperFunction,ComponentPad*
%ADD48O,3.000000X1.800000*%
G04 #@! TD*
G04 #@! TA.AperFunction,ViaPad*
%ADD49C,0.700000*%
G04 #@! TD*
G04 #@! TA.AperFunction,ViaPad*
%ADD50C,0.800000*%
G04 #@! TD*
G04 #@! TA.AperFunction,Conductor*
%ADD51C,0.500000*%
G04 #@! TD*
G04 #@! TA.AperFunction,Conductor*
%ADD52C,0.300000*%
G04 #@! TD*
G04 #@! TA.AperFunction,Conductor*
%ADD53C,0.349300*%
G04 #@! TD*
G04 APERTURE END LIST*
D10*
X65000000Y-4500000D03*
D11*
X27337500Y-15950000D03*
X24262500Y-15950000D03*
D12*
X36500000Y-25200000D03*
X41500000Y-25200000D03*
D13*
X24700000Y-14050000D03*
X26100000Y-14050000D03*
D14*
X61200000Y-24200000D03*
X61200000Y-22800000D03*
D15*
X34188000Y-33600000D03*
X36512000Y-33600000D03*
D14*
X62700000Y-24200000D03*
X62700000Y-22800000D03*
D16*
X41100000Y-31700000D03*
X39850000Y-31700000D03*
D17*
X46080000Y-13400000D03*
X43320000Y-13400000D03*
D13*
X20300000Y-14550000D03*
X21700000Y-14550000D03*
D18*
X7500000Y-22500000D03*
X7500000Y-20900000D03*
D19*
X28750000Y-25700000D03*
X30350000Y-25700000D03*
D20*
X14500000Y-27770000D03*
X14500000Y-29430000D03*
D21*
X37500000Y-7400000D03*
X35000000Y-7400000D03*
X32500000Y-7400000D03*
D22*
X39400000Y-14400000D03*
D23*
X30600000Y-14400000D03*
D24*
X50450000Y-22750000D03*
X50450000Y-23700000D03*
X50450000Y-24650000D03*
X53150000Y-24650000D03*
X53150000Y-22750000D03*
D25*
X40000000Y-1100000D03*
X38000000Y-1100000D03*
X34000000Y-1100000D03*
X32000000Y-1100000D03*
X30000000Y-1100000D03*
X30000000Y-4400000D03*
X32000000Y-4400000D03*
X34000000Y-4400000D03*
X38000000Y-4400000D03*
X40000000Y-4400000D03*
D18*
X29000000Y-20050000D03*
X29000000Y-18450000D03*
D17*
X45020000Y-20850000D03*
X47780000Y-20850000D03*
D26*
X26450000Y-27000000D03*
X26450000Y-24800000D03*
D19*
X3800000Y-11200000D03*
X2200000Y-11200000D03*
D17*
X19670000Y-19150000D03*
X22430000Y-19150000D03*
D27*
X4230000Y-14700000D03*
X2570000Y-14700000D03*
D28*
X50400000Y-8600000D03*
X46100000Y-8600000D03*
D29*
X11800000Y-30300000D03*
X11800000Y-33700000D03*
D30*
X18950000Y-29000000D03*
X17050000Y-29000000D03*
D31*
X50800000Y-18170000D03*
X50800000Y-20930000D03*
D32*
X1925000Y-21400000D03*
D33*
X3100000Y-27400000D03*
D32*
X4275000Y-21400000D03*
D34*
X32100000Y-28050000D03*
X32100000Y-25150000D03*
D31*
X27900000Y-9280000D03*
X27900000Y-6520000D03*
D21*
X14600000Y-7400000D03*
X12100000Y-7400000D03*
X9600000Y-7400000D03*
D22*
X16500000Y-14400000D03*
D23*
X7700000Y-14400000D03*
D31*
X23500000Y-6520000D03*
X23500000Y-9280000D03*
D18*
X9300000Y-32400000D03*
X9300000Y-30800000D03*
D35*
X5270000Y-9000000D03*
D36*
X2730000Y-9000000D03*
D37*
X19550000Y-16800000D03*
X22450000Y-16800000D03*
D38*
X24100000Y-21150000D03*
X25050000Y-21150000D03*
X26000000Y-21150000D03*
X26000000Y-18450000D03*
X24100000Y-18450000D03*
D39*
X9000000Y-22325000D03*
X9000000Y-20875000D03*
D18*
X42900000Y-8600000D03*
X42900000Y-7000000D03*
D14*
X23100000Y-12800000D03*
X23100000Y-11400000D03*
D21*
X60400000Y-7400000D03*
X57900000Y-7400000D03*
X55400000Y-7400000D03*
D22*
X62300000Y-14400000D03*
D23*
X53500000Y-14400000D03*
D40*
X17800000Y-22625000D03*
D33*
X11800000Y-23800000D03*
D40*
X17800000Y-24975000D03*
D14*
X21800000Y-12600000D03*
X21800000Y-11200000D03*
D17*
X46080000Y-15800000D03*
X43320000Y-15800000D03*
D37*
X52350000Y-27000000D03*
X55250000Y-27000000D03*
D41*
X55800000Y-24637500D03*
X55800000Y-21562500D03*
D17*
X45020000Y-18600000D03*
X47780000Y-18600000D03*
D26*
X46000000Y-26300000D03*
X48200000Y-26300000D03*
D42*
X27625000Y-12500000D03*
X26175000Y-12500000D03*
D25*
X22000000Y-1100000D03*
X20000000Y-1100000D03*
X16000000Y-1100000D03*
X14000000Y-1100000D03*
X12000000Y-1100000D03*
X12000000Y-4400000D03*
X14000000Y-4400000D03*
X16000000Y-4400000D03*
X20000000Y-4400000D03*
X22000000Y-4400000D03*
D43*
X61750000Y-31476300D03*
X61750000Y-29723700D03*
D44*
X59500000Y-24600000D03*
X59500000Y-22600000D03*
D45*
X14600000Y-31750000D03*
X14600000Y-32700000D03*
X14600000Y-33650000D03*
X17200000Y-33650000D03*
X17200000Y-32700000D03*
X17200000Y-31750000D03*
D25*
X58000000Y-1100000D03*
X56000000Y-1100000D03*
X52000000Y-1100000D03*
X50000000Y-1100000D03*
X48000000Y-1100000D03*
X48000000Y-4400000D03*
X50000000Y-4400000D03*
X52000000Y-4400000D03*
X56000000Y-4400000D03*
X58000000Y-4400000D03*
D42*
X26525000Y-10950000D03*
X25075000Y-10950000D03*
D30*
X31600000Y-22600000D03*
X29700000Y-22600000D03*
D14*
X57800000Y-24200000D03*
X57800000Y-22800000D03*
D26*
X34175000Y-30900000D03*
X35825000Y-30900000D03*
D42*
X3625000Y-12800000D03*
X2175000Y-12800000D03*
D14*
X64200000Y-24200000D03*
X64200000Y-22800000D03*
D31*
X48150000Y-16280000D03*
X48150000Y-13520000D03*
D46*
X4600000Y-18450000D03*
X4600000Y-17800000D03*
X4600000Y-17150000D03*
X2600000Y-17150000D03*
X2600000Y-17800000D03*
X2600000Y-18450000D03*
D19*
X30350000Y-27200000D03*
X28750000Y-27200000D03*
D39*
X41200000Y-8525000D03*
X41200000Y-7075000D03*
D43*
X59850000Y-31476300D03*
X59850000Y-29723700D03*
D31*
X21100000Y-6420000D03*
X21100000Y-9180000D03*
D28*
X56100000Y-31750000D03*
X51800000Y-31750000D03*
D27*
X23930000Y-26600000D03*
X22270000Y-26600000D03*
D44*
X20100000Y-13100000D03*
X20100000Y-11100000D03*
X25750000Y-7300000D03*
X25750000Y-9300000D03*
D47*
X66200000Y-13300000D03*
D48*
X7700000Y-26300000D03*
X22600000Y-23800000D03*
X22600000Y-28800000D03*
X62300000Y-26300000D03*
X47400000Y-28800000D03*
X47400000Y-23800000D03*
D49*
X48244774Y-9004729D03*
X2600000Y-16348205D03*
D50*
X47600000Y-14900000D03*
X16000000Y-17500000D03*
X58000000Y-10000000D03*
X7000000Y-7500000D03*
X66500000Y-27500000D03*
X11000000Y-16500000D03*
X46400000Y-19850000D03*
X5100000Y-32500000D03*
X39000000Y-23000000D03*
X13500000Y-12500000D03*
X27099006Y-19850000D03*
X9300000Y-29800000D03*
X13100000Y-32000000D03*
X38500000Y-17000000D03*
D49*
X32400000Y-29950500D03*
D50*
X68200000Y-18700000D03*
X2000000Y-6500000D03*
X35000000Y-28216418D03*
X54100000Y-18000000D03*
D49*
X23823192Y-10464368D03*
D50*
X48400000Y-34300000D03*
X1900000Y-25200000D03*
X13298721Y-27787553D03*
X11000000Y-10000000D03*
X2000000Y-2000000D03*
X59000000Y-6000000D03*
X36000000Y-4500000D03*
X25800000Y-32750500D03*
X67900000Y-7500000D03*
X36500000Y-22000000D03*
X27512363Y-24272572D03*
X47700000Y-30900000D03*
X26500000Y-28100000D03*
X13667237Y-22332763D03*
X900000Y-28000000D03*
D49*
X4249500Y-16043034D03*
D50*
X29577535Y-28207093D03*
D49*
X26016828Y-5022013D03*
D50*
X36000000Y-10500000D03*
X37800000Y-31400000D03*
X22300000Y-32750500D03*
X56500000Y-29400000D03*
D49*
X19800474Y-21925865D03*
X18971915Y-15197968D03*
D50*
X28500000Y-2500000D03*
X60500000Y-9500000D03*
D49*
X22800000Y-14550000D03*
D50*
X18000000Y-19500000D03*
X64500000Y-18000000D03*
D49*
X30989135Y-21307875D03*
D50*
X61000000Y-2500000D03*
X58400000Y-26100000D03*
X5888708Y-22160794D03*
D49*
X49000000Y-5275850D03*
D50*
X19000000Y-27600000D03*
X26295674Y-23392583D03*
X19824150Y-7850000D03*
X43469782Y-30974384D03*
X50074150Y-19700000D03*
X10500000Y-32300000D03*
X5000000Y-24900000D03*
X8100000Y-28700000D03*
X53400500Y-23700000D03*
X32675000Y-33800000D03*
D49*
X18550000Y-18050000D03*
D50*
X16400000Y-26900000D03*
X47000000Y-26300000D03*
D49*
X54727593Y-11872407D03*
D50*
X43500000Y-1000000D03*
X10700000Y-21600000D03*
X39100000Y-21324150D03*
X8500000Y-10000000D03*
X20000000Y-31000000D03*
X24000000Y-1500000D03*
X15300000Y-24500000D03*
X44500000Y-17000000D03*
X35500000Y-16500000D03*
X38798315Y-11176475D03*
X57000000Y-13000000D03*
X25600000Y-30006593D03*
X41500000Y-21500000D03*
X23223291Y-30742626D03*
X10500000Y-30300000D03*
D49*
X58386159Y-21480973D03*
X19623200Y-24608120D03*
D50*
X33000000Y-11000000D03*
D49*
X51044751Y-10560434D03*
D50*
X4800000Y-29300000D03*
X30950000Y-8455850D03*
X35500000Y-19500000D03*
X51900000Y-33800000D03*
X66300000Y-32300000D03*
D49*
X25100000Y-18150000D03*
D50*
X18500000Y-4099500D03*
X42500000Y-10000000D03*
X43000000Y-23000000D03*
X51136419Y-15063627D03*
X68000000Y-10000000D03*
X25000000Y-26700000D03*
X32500000Y-16500000D03*
X49929702Y-26039602D03*
X38000000Y-9000000D03*
D49*
X25050000Y-19850000D03*
D50*
X18000000Y-1500000D03*
X51775000Y-23700000D03*
X11000000Y-19000000D03*
X13400000Y-25600000D03*
D49*
X33792143Y-25625850D03*
X47700000Y-10300000D03*
X5850500Y-18700000D03*
D50*
X61000000Y-32600000D03*
X35410315Y-32886772D03*
X10000000Y-5500000D03*
X27250000Y-8050000D03*
X57000000Y-3000000D03*
X25000000Y-3500000D03*
X16000000Y-10000000D03*
D49*
X31440000Y-6299500D03*
X48434875Y-11798739D03*
D50*
X18000000Y-12000000D03*
D49*
X43605976Y-17473108D03*
D50*
X52300000Y-28600000D03*
X53135538Y-25801064D03*
X21225498Y-16274150D03*
X67000000Y-23500000D03*
X58000000Y-33500000D03*
X44500000Y-12000000D03*
D49*
X41274123Y-12474078D03*
D50*
X63800000Y-29000000D03*
X15700000Y-21000000D03*
X50800000Y-17000000D03*
D49*
X25550000Y-15550000D03*
D50*
X11000000Y-2500000D03*
X61500000Y-11500000D03*
X27000000Y-17500000D03*
X41500000Y-2000000D03*
X1900000Y-23300000D03*
X27500000Y-5000000D03*
X11000000Y-12500000D03*
X11723543Y-25876457D03*
X13400000Y-18700000D03*
D49*
X21250000Y-19550000D03*
D50*
X42980648Y-28238703D03*
X55300000Y-20100000D03*
X24200000Y-8000000D03*
D49*
X28229428Y-10425850D03*
D50*
X29500000Y-17000000D03*
X14900000Y-34700000D03*
X65200000Y-21500000D03*
X64500000Y-10000000D03*
X43000000Y-4500000D03*
X35000000Y-13000000D03*
X32942453Y-21800500D03*
X38500000Y-19500000D03*
X39000000Y-25200000D03*
X44500000Y-34000000D03*
X46500000Y-3000000D03*
X42000000Y-19000000D03*
X60500000Y-28100000D03*
X13500000Y-10000000D03*
X38950000Y-28750000D03*
X36000000Y-2000000D03*
X8100000Y-32600000D03*
X37500000Y-34500000D03*
X41500000Y-29500000D03*
X54000000Y-2000000D03*
D49*
X56500259Y-18700777D03*
D50*
X8800000Y-4000000D03*
X59500000Y-19000000D03*
X57000000Y-16000000D03*
X32500000Y-19500000D03*
X8500000Y-17000000D03*
D49*
X63425850Y-21660848D03*
D50*
X52499958Y-19706182D03*
X6000000Y-21000000D03*
X53957565Y-26462877D03*
X53050000Y-20600000D03*
X28513957Y-24586043D03*
X54377447Y-22760734D03*
X26049503Y-19850000D03*
X43450000Y-27300000D03*
X49192609Y-25292508D03*
X27267350Y-22995972D03*
D49*
X25050000Y-5150000D03*
X43400000Y-18400000D03*
X52000000Y-10700000D03*
X62500000Y-21400000D03*
X56200000Y-17800000D03*
X59500000Y-21500000D03*
X48300000Y-8000000D03*
X40500000Y-11700000D03*
X47700000Y-12400000D03*
X19105283Y-14257879D03*
X22230000Y-13480000D03*
X30708213Y-5489559D03*
X22875000Y-10414502D03*
D50*
X19500000Y-25600000D03*
X22175000Y-30825000D03*
D49*
X27500000Y-11200000D03*
X53827593Y-10972407D03*
X30614944Y-20435215D03*
X20600000Y-21300000D03*
X34400000Y-26400000D03*
D51*
X48200000Y-29100000D02*
X50850000Y-31750000D01*
X48200000Y-26300000D02*
X48200000Y-29100000D01*
X48200000Y-28200000D02*
X47400000Y-29000000D01*
X50850000Y-31750000D02*
X51800000Y-31750000D01*
X48200000Y-26300000D02*
X48200000Y-28200000D01*
X13298721Y-27787553D02*
X13316274Y-27770000D01*
X25050000Y-21050000D02*
X25050000Y-19850000D01*
X18550000Y-18050000D02*
X19650000Y-19150000D01*
X1925000Y-23275000D02*
X1900000Y-23300000D01*
X51775000Y-23700000D02*
X50550000Y-23700000D01*
X24030000Y-26700000D02*
X23930000Y-26600000D01*
X19550000Y-17050000D02*
X18550000Y-18050000D01*
X47000000Y-26300000D02*
X46000000Y-26300000D01*
X52300000Y-27050000D02*
X52350000Y-27000000D01*
X2600000Y-16348205D02*
X2600000Y-17100000D01*
X25000000Y-26700000D02*
X24030000Y-26700000D01*
X29577535Y-28207093D02*
X28750000Y-27379558D01*
X26450000Y-27000000D02*
X26500000Y-27050000D01*
X9300000Y-29800000D02*
X9300000Y-30800000D01*
X28750000Y-27379558D02*
X28750000Y-27200000D01*
X34697087Y-33600000D02*
X34188000Y-33600000D01*
X4230000Y-16023534D02*
X4230000Y-14700000D01*
X29670442Y-28300000D02*
X31850000Y-28300000D01*
X52300000Y-28600000D02*
X52300000Y-27050000D01*
X19650000Y-19150000D02*
X19670000Y-19150000D01*
X29577535Y-28207093D02*
X29670442Y-28300000D01*
X26500000Y-27050000D02*
X26500000Y-28100000D01*
X13316274Y-27770000D02*
X14500000Y-27770000D01*
X4249500Y-16043034D02*
X4230000Y-16023534D01*
X50800000Y-18170000D02*
X50800000Y-17000000D01*
X19550000Y-16800000D02*
X19550000Y-17050000D01*
X1925000Y-21400000D02*
X1925000Y-23275000D01*
X35410315Y-32886772D02*
X34697087Y-33600000D01*
X17200000Y-33650000D02*
X28009441Y-33650000D01*
X16820000Y-29230000D02*
X17050000Y-29000000D01*
X13800000Y-30700000D02*
X12400000Y-29300000D01*
X11800000Y-30300000D02*
X11800000Y-29300000D01*
X17900000Y-30700000D02*
X17050000Y-29850000D01*
X12400000Y-29300000D02*
X12400000Y-28700000D01*
X12400000Y-27825000D02*
X12400000Y-28700000D01*
X17200000Y-33650000D02*
X18000000Y-33650000D01*
X28009441Y-33650000D02*
X28409441Y-34050000D01*
X7500000Y-22925000D02*
X12400000Y-27825000D01*
X34325000Y-32400000D02*
X35825000Y-30900000D01*
X32000000Y-32400000D02*
X34325000Y-32400000D01*
X18000000Y-33650000D02*
X18500000Y-33150000D01*
X11800000Y-29300000D02*
X12400000Y-28700000D01*
X6000000Y-21000000D02*
X7500000Y-22500000D01*
X17900000Y-30700000D02*
X13800000Y-30700000D01*
X14700000Y-29230000D02*
X16820000Y-29230000D01*
X18500000Y-33150000D02*
X18500000Y-31300000D01*
X28409441Y-34050000D02*
X30350000Y-34050000D01*
X17050000Y-29850000D02*
X17050000Y-29000000D01*
X14500000Y-29430000D02*
X14700000Y-29230000D01*
X18500000Y-31300000D02*
X17900000Y-30700000D01*
X30350000Y-34050000D02*
X32000000Y-32400000D01*
X7500000Y-22500000D02*
X7500000Y-22925000D01*
X22800000Y-25300000D02*
X22270000Y-25830000D01*
X28513957Y-24586043D02*
X28750000Y-24822086D01*
X25200000Y-25550000D02*
X25189340Y-25550000D01*
X54712877Y-26462877D02*
X55250000Y-27000000D01*
X22430000Y-19150000D02*
X22430000Y-17020000D01*
X19700000Y-29000000D02*
X22100000Y-26600000D01*
X22430000Y-17020000D02*
X22650000Y-16800000D01*
X54377447Y-22760734D02*
X54366713Y-22750000D01*
X25450000Y-25800000D02*
X25200000Y-25550000D01*
X22100000Y-26600000D02*
X22270000Y-26600000D01*
X28650000Y-25800000D02*
X25450000Y-25800000D01*
X22430000Y-19150000D02*
X23030000Y-18550000D01*
X22270000Y-26070000D02*
X20500000Y-24300000D01*
X25189340Y-25550000D02*
X24939340Y-25300000D01*
X53957565Y-26462877D02*
X54712877Y-26462877D01*
X18950000Y-29000000D02*
X19700000Y-29000000D01*
X20500000Y-24300000D02*
X20500000Y-22700000D01*
X53050000Y-20600000D02*
X52720000Y-20930000D01*
X22430000Y-20770000D02*
X22430000Y-19150000D01*
X20500000Y-22700000D02*
X22430000Y-20770000D01*
X28750000Y-25700000D02*
X28650000Y-25800000D01*
X28750000Y-24822086D02*
X28750000Y-25700000D01*
X52720000Y-20930000D02*
X50800000Y-20930000D01*
X24939340Y-25300000D02*
X22800000Y-25300000D01*
X54366713Y-22750000D02*
X53050000Y-22750000D01*
X23030000Y-18550000D02*
X24100000Y-18550000D01*
X22270000Y-25830000D02*
X22270000Y-26600000D01*
X22270000Y-26600000D02*
X22270000Y-26070000D01*
X28474650Y-23274650D02*
X30350000Y-25150000D01*
X27546028Y-23274650D02*
X28474650Y-23274650D01*
X26000000Y-21050000D02*
X26000000Y-19899503D01*
X49192609Y-25292508D02*
X49835117Y-24650000D01*
X49835117Y-24650000D02*
X50550000Y-24650000D01*
X32100000Y-25150000D02*
X30900000Y-25150000D01*
X34050000Y-27300000D02*
X43450000Y-27300000D01*
X31850000Y-25100000D02*
X34050000Y-27300000D01*
X26000000Y-19899503D02*
X26049503Y-19850000D01*
X30350000Y-25150000D02*
X30350000Y-25700000D01*
X27267350Y-22995972D02*
X27546028Y-23274650D01*
X30350000Y-25700000D02*
X30350000Y-27200000D01*
X30900000Y-25150000D02*
X30350000Y-25700000D01*
D52*
X2200000Y-11375000D02*
X3625000Y-12800000D01*
X3750000Y-17800000D02*
X4600000Y-17800000D01*
X2570000Y-14970000D02*
X3500000Y-15900000D01*
X3500000Y-15900000D02*
X3500000Y-17550000D01*
X2200000Y-11200000D02*
X2200000Y-11375000D01*
X3500000Y-17550000D02*
X3750000Y-17800000D01*
X2570000Y-14700000D02*
X2570000Y-14970000D01*
X2570000Y-13855000D02*
X3625000Y-12800000D01*
X2570000Y-14700000D02*
X2570000Y-13855000D01*
D53*
X21100000Y-9180000D02*
X21200000Y-9280000D01*
X29350000Y-9280000D02*
X29800000Y-9280000D01*
X25750000Y-9300000D02*
X27880000Y-9300000D01*
X29350000Y-9730000D02*
X29800000Y-9280000D01*
X27900000Y-9280000D02*
X29350000Y-9280000D01*
X27625000Y-12500000D02*
X29350000Y-10775000D01*
X29350000Y-10775000D02*
X29350000Y-9750000D01*
X21200000Y-9280000D02*
X23500000Y-9280000D01*
X27880000Y-9300000D02*
X27900000Y-9280000D01*
X23520000Y-9300000D02*
X25750000Y-9300000D01*
X23500000Y-9280000D02*
X23520000Y-9300000D01*
X29350000Y-9750000D02*
X29350000Y-9730000D01*
X29800000Y-9280000D02*
X35620000Y-9280000D01*
X35620000Y-9280000D02*
X37500000Y-7400000D01*
D52*
X31400000Y-7400000D02*
X32500000Y-7400000D01*
X33800000Y-6100000D02*
X40225000Y-6100000D01*
D53*
X29011200Y-7631200D02*
X27900000Y-6520000D01*
X32500000Y-7400000D02*
X32268800Y-7631200D01*
X32268800Y-7631200D02*
X29011200Y-7631200D01*
X17350000Y-2450000D02*
X26450000Y-2450000D01*
X26450000Y-2450000D02*
X31400000Y-7400000D01*
X16000000Y-1100000D02*
X17350000Y-2450000D01*
D52*
X40225000Y-6100000D02*
X41200000Y-7075000D01*
X32500000Y-7400000D02*
X33800000Y-6100000D01*
D53*
X12000000Y-1100000D02*
X14175350Y-3275350D01*
X19620000Y-6420000D02*
X21100000Y-6420000D01*
X16475350Y-3275350D02*
X19620000Y-6420000D01*
X14175350Y-3275350D02*
X16475350Y-3275350D01*
X25750000Y-5850000D02*
X25750000Y-7300000D01*
X25050000Y-5150000D02*
X25750000Y-5850000D01*
X15576050Y-2676050D02*
X16728512Y-2676050D01*
X14000000Y-1100000D02*
X15576050Y-2676050D01*
X16728512Y-2676050D02*
X17327812Y-3275350D01*
X17327812Y-3275350D02*
X22465846Y-3275350D01*
X23500000Y-4309504D02*
X23500000Y-6520000D01*
X22465846Y-3275350D02*
X23500000Y-4309504D01*
X61200000Y-24200000D02*
X60200000Y-24200000D01*
X55700000Y-24650000D02*
X55800000Y-24550000D01*
D51*
X59873700Y-29747400D02*
X59850000Y-29723700D01*
X61726300Y-29747400D02*
X59873700Y-29747400D01*
D53*
X59500000Y-24600000D02*
X59300000Y-24800000D01*
X56065350Y-25665350D02*
X54165350Y-25665350D01*
D51*
X61750000Y-29723700D02*
X61726300Y-29747400D01*
D53*
X55800000Y-24700000D02*
X55800000Y-24550000D01*
X54165350Y-25665350D02*
X53150000Y-24650000D01*
D51*
X59873700Y-29747400D02*
X59997400Y-29747400D01*
D53*
X59100000Y-24200000D02*
X59500000Y-24600000D01*
X55800000Y-24550000D02*
X57450000Y-24550000D01*
X57450000Y-24550000D02*
X57800000Y-24200000D01*
X55900000Y-24800000D02*
X55800000Y-24700000D01*
X59997400Y-29597400D02*
X56065350Y-25665350D01*
X64200000Y-24200000D02*
X61200000Y-24200000D01*
X57800000Y-24200000D02*
X59100000Y-24200000D01*
X59997400Y-29747400D02*
X59997400Y-29597400D01*
X53050000Y-24650000D02*
X55700000Y-24650000D01*
X56650000Y-21650000D02*
X57800000Y-22800000D01*
X55800000Y-21650000D02*
X56650000Y-21650000D01*
X49250000Y-17400000D02*
X49250000Y-22000000D01*
X49975350Y-16658418D02*
X49975350Y-16674650D01*
X50550000Y-22750000D02*
X51350000Y-21950000D01*
X49975350Y-16674650D02*
X49250000Y-17400000D01*
X43600000Y-18600000D02*
X43400000Y-18400000D01*
X51350000Y-21950000D02*
X53783768Y-21950000D01*
X50200000Y-12500000D02*
X50200000Y-16433768D01*
X45020000Y-20850000D02*
X46645350Y-22475350D01*
X53783768Y-21950000D02*
X54083768Y-21650000D01*
X46645350Y-22475350D02*
X49725350Y-22475350D01*
X50000000Y-22750000D02*
X50550000Y-22750000D01*
X52000000Y-10700000D02*
X50200000Y-12500000D01*
X50200000Y-16433768D02*
X49975350Y-16658418D01*
X49725350Y-22475350D02*
X50000000Y-22750000D01*
X45020000Y-18600000D02*
X43600000Y-18600000D01*
X45020000Y-20850000D02*
X45020000Y-18600000D01*
X54083768Y-21650000D02*
X55800000Y-21650000D01*
X49250000Y-22000000D02*
X50000000Y-22750000D01*
X61800000Y-6800000D02*
X61800000Y-9500000D01*
X59600000Y-16250000D02*
X64200000Y-20850000D01*
X59600000Y-11700000D02*
X59600000Y-16250000D01*
X61800000Y-9500000D02*
X59600000Y-11700000D01*
X64200000Y-20850000D02*
X64200000Y-22800000D01*
X58000000Y-4400000D02*
X59400000Y-4400000D01*
X59400000Y-4400000D02*
X61800000Y-6800000D01*
X62500000Y-21400000D02*
X62500000Y-22700000D01*
X62500000Y-22700000D02*
X62700000Y-22900000D01*
X61200000Y-22000000D02*
X61200000Y-22800000D01*
X56200000Y-17800000D02*
X57000000Y-17800000D01*
X57000000Y-17800000D02*
X61200000Y-22000000D01*
X59500000Y-21500000D02*
X59500000Y-22600000D01*
X46080000Y-13400000D02*
X46020000Y-13340000D01*
D52*
X42825000Y-8525000D02*
X42900000Y-8600000D01*
D53*
X46100000Y-8600000D02*
X43000000Y-8600000D01*
X41200000Y-8525000D02*
X42825000Y-8525000D01*
X46080000Y-15800000D02*
X46080000Y-13400000D01*
X47780000Y-19100000D02*
X47780000Y-18725000D01*
X46560000Y-16280000D02*
X46080000Y-15800000D01*
X46020000Y-13340000D02*
X46020000Y-8680000D01*
X47780000Y-16650000D02*
X48150000Y-16280000D01*
D52*
X43000000Y-8600000D02*
X42900000Y-8600000D01*
D53*
X47780000Y-20850000D02*
X47780000Y-18600000D01*
X48150000Y-16280000D02*
X46560000Y-16280000D01*
X47780000Y-18600000D02*
X47780000Y-16650000D01*
D52*
X48900000Y-8600000D02*
X48300000Y-8000000D01*
X50400000Y-8600000D02*
X48900000Y-8600000D01*
D53*
X43320000Y-15800000D02*
X43320000Y-13400000D01*
D52*
X40500000Y-11700000D02*
X41620000Y-11700000D01*
X41620000Y-11700000D02*
X43320000Y-13400000D01*
D53*
X48150000Y-12850000D02*
X48150000Y-13520000D01*
X47700000Y-12400000D02*
X48150000Y-12850000D01*
X24700000Y-14050000D02*
X24700000Y-11325000D01*
X24700000Y-11325000D02*
X25075000Y-10950000D01*
X24150000Y-15950000D02*
X24150000Y-14600000D01*
X24150000Y-15950000D02*
X26000000Y-17800000D01*
X24150000Y-14600000D02*
X24700000Y-14050000D01*
X26000000Y-17800000D02*
X26000000Y-18550000D01*
X19105283Y-14257879D02*
X19397404Y-14550000D01*
X19397404Y-14550000D02*
X20300000Y-14550000D01*
X23650000Y-15450000D02*
X24150000Y-15950000D01*
X20300000Y-14994300D02*
X20755700Y-15450000D01*
X20300000Y-14550000D02*
X20300000Y-14994300D01*
X20755700Y-15450000D02*
X23650000Y-15450000D01*
X40463028Y-5525350D02*
X40987678Y-6050000D01*
X22910000Y-12800000D02*
X23100000Y-12800000D01*
X22230000Y-13030000D02*
X21800000Y-12600000D01*
D52*
X20930000Y-13100000D02*
X21310000Y-13480000D01*
D53*
X22230000Y-13480000D02*
X22910000Y-12800000D01*
X30744004Y-5525350D02*
X40463028Y-5525350D01*
X22230000Y-13480000D02*
X21310000Y-13480000D01*
X40987678Y-6050000D02*
X56550000Y-6050000D01*
X30708213Y-5489559D02*
X30744004Y-5525350D01*
X21700000Y-14010000D02*
X21700000Y-14550000D01*
X22230000Y-13480000D02*
X22230000Y-13030000D01*
X22230000Y-13480000D02*
X21700000Y-14010000D01*
D52*
X20100000Y-13100000D02*
X20930000Y-13100000D01*
D53*
X56550000Y-6050000D02*
X57900000Y-7400000D01*
X14756338Y-5524650D02*
X16825350Y-7593663D01*
X19450000Y-11100000D02*
X20100000Y-11100000D01*
X12000000Y-4400000D02*
X13124650Y-5524650D01*
X16825350Y-8475350D02*
X19450000Y-11100000D01*
X13124650Y-5524650D02*
X14756338Y-5524650D01*
X16825350Y-7593663D02*
X16825350Y-8475350D01*
X23000000Y-10539502D02*
X23000000Y-11300000D01*
D52*
X23000000Y-11300000D02*
X23100000Y-11400000D01*
D53*
X22875000Y-10414502D02*
X23000000Y-10539502D01*
D52*
X21800000Y-10525000D02*
X21800000Y-11200000D01*
X14000000Y-4400000D02*
X14444365Y-4400000D01*
X17400000Y-7950000D02*
X19600000Y-10150000D01*
X17400000Y-7355635D02*
X17400000Y-7950000D01*
X14444365Y-4400000D02*
X17400000Y-7355635D01*
X19600000Y-10150000D02*
X21425000Y-10150000D01*
X21425000Y-10150000D02*
X21800000Y-10525000D01*
D51*
X22600000Y-23800000D02*
X24500000Y-23800000D01*
X25500000Y-24800000D02*
X26400000Y-24800000D01*
X24500000Y-23800000D02*
X25500000Y-24800000D01*
X15900000Y-33100000D02*
X16300000Y-32700000D01*
X15900000Y-33900000D02*
X15900000Y-33100000D01*
X15900000Y-34300000D02*
X16450000Y-34850000D01*
X16300000Y-32700000D02*
X17200000Y-32700000D01*
X15650000Y-31750000D02*
X15900000Y-32000000D01*
X14600000Y-31750000D02*
X15650000Y-31750000D01*
X16450000Y-34850000D02*
X35262000Y-34850000D01*
X36512000Y-33600000D02*
X39364214Y-33600000D01*
X41100000Y-31864214D02*
X41100000Y-31700000D01*
X15900000Y-33100000D02*
X15500000Y-32700000D01*
X15900000Y-34300000D02*
X15900000Y-33900000D01*
X15500000Y-32700000D02*
X14600000Y-32700000D01*
X15900000Y-32000000D02*
X15900000Y-33900000D01*
X16150000Y-31750000D02*
X15900000Y-32000000D01*
X17200000Y-31750000D02*
X16150000Y-31750000D01*
X39364214Y-33600000D02*
X41100000Y-31864214D01*
X35262000Y-34850000D02*
X36512000Y-33600000D01*
X14550000Y-33700000D02*
X14600000Y-33650000D01*
X9300000Y-32400000D02*
X10600000Y-33700000D01*
X11800000Y-33700000D02*
X14550000Y-33700000D01*
X10600000Y-33700000D02*
X11800000Y-33700000D01*
D52*
X22175000Y-30825000D02*
X22950000Y-31600000D01*
X18875000Y-24975000D02*
X17800000Y-24975000D01*
X30099138Y-29800000D02*
X30999138Y-30700000D01*
X30999138Y-30700000D02*
X34175000Y-30700000D01*
X28400000Y-29800000D02*
X30099138Y-29800000D01*
X26600000Y-31600000D02*
X28400000Y-29800000D01*
X22950000Y-31600000D02*
X26600000Y-31600000D01*
X19500000Y-25600000D02*
X18875000Y-24975000D01*
D53*
X27250000Y-10950000D02*
X26525000Y-10950000D01*
X27500000Y-11200000D02*
X27250000Y-10950000D01*
X28137500Y-14462500D02*
X27400000Y-13725000D01*
X27875350Y-15950000D02*
X28425350Y-16500000D01*
X28000000Y-17450000D02*
X28425350Y-17024650D01*
X26100000Y-14050000D02*
X27725000Y-14050000D01*
X28425350Y-14750350D02*
X28137500Y-14462500D01*
X29000000Y-18450000D02*
X28500000Y-18450000D01*
X27050000Y-15950000D02*
X27875350Y-15950000D01*
X28036904Y-22600000D02*
X29700000Y-22600000D01*
X24400000Y-22300000D02*
X26600000Y-22300000D01*
X24100000Y-22000000D02*
X24400000Y-22300000D01*
X28425350Y-17024650D02*
X28425350Y-16274650D01*
X26175000Y-12500000D02*
X27400000Y-13725000D01*
X27168452Y-21731548D02*
X28036904Y-22600000D01*
X27725000Y-14050000D02*
X28137500Y-14462500D01*
X24100000Y-21050000D02*
X24100000Y-22000000D01*
X27168452Y-21731548D02*
X28000000Y-20900000D01*
X28000000Y-17950000D02*
X28000000Y-17450000D01*
X28000000Y-20900000D02*
X28000000Y-17950000D01*
X28425350Y-16274650D02*
X28425350Y-14750350D01*
X28500000Y-18450000D02*
X28000000Y-17950000D01*
X26600000Y-22300000D02*
X27168452Y-21731548D01*
D52*
X2730000Y-9000000D02*
X3800000Y-10070000D01*
X3800000Y-10070000D02*
X3800000Y-11200000D01*
X4275000Y-21075000D02*
X4275000Y-21400000D01*
X3100000Y-23900000D02*
X3100000Y-27400000D01*
X1550000Y-18900000D02*
X2350000Y-19700000D01*
X2350000Y-19700000D02*
X2900000Y-19700000D01*
X4275000Y-22725000D02*
X3100000Y-23900000D01*
X2200000Y-12775000D02*
X2175000Y-12800000D01*
X2175000Y-12800000D02*
X1550000Y-13425000D01*
X2900000Y-19700000D02*
X4275000Y-21075000D01*
X4275000Y-21400000D02*
X4275000Y-22725000D01*
X1550000Y-13425000D02*
X1550000Y-18900000D01*
X2600000Y-17800000D02*
X2600000Y-18450000D01*
X5619339Y-19560000D02*
X6360000Y-19560000D01*
X7500000Y-20700000D02*
X7500000Y-20900000D01*
X6360000Y-19560000D02*
X7500000Y-20700000D01*
X5309339Y-19250000D02*
X5619339Y-19560000D01*
X3400000Y-19250000D02*
X5309339Y-19250000D01*
X2600000Y-18450000D02*
X3400000Y-19250000D01*
X13500000Y-23800000D02*
X14675000Y-22625000D01*
X11800000Y-23800000D02*
X13500000Y-23800000D01*
X10475000Y-23800000D02*
X11800000Y-23800000D01*
X9000000Y-22325000D02*
X10475000Y-23800000D01*
X14675000Y-22625000D02*
X17800000Y-22625000D01*
X6850000Y-17150000D02*
X9000000Y-19300000D01*
X4600000Y-17150000D02*
X6850000Y-17150000D01*
X9000000Y-19300000D02*
X9000000Y-20875000D01*
D53*
X55000000Y-7000000D02*
X55400000Y-7400000D01*
X42900000Y-7000000D02*
X55000000Y-7000000D01*
X30229729Y-20050000D02*
X30614944Y-20435215D01*
X59075350Y-8724650D02*
X60400000Y-7400000D01*
X29000000Y-20050000D02*
X30229729Y-20050000D01*
X53827593Y-10972407D02*
X56075350Y-8724650D01*
X56075350Y-8724650D02*
X59075350Y-8724650D01*
D51*
X59726300Y-31600000D02*
X59850000Y-31476300D01*
X56100000Y-31750000D02*
X56250000Y-31600000D01*
X56250000Y-31600000D02*
X59726300Y-31600000D01*
X59850000Y-31476300D02*
X61750000Y-31476300D01*
D52*
X33300000Y-22600000D02*
X35900000Y-25200000D01*
X35900000Y-25200000D02*
X36500000Y-25200000D01*
X31600000Y-22600000D02*
X33300000Y-22600000D01*
D53*
X20200000Y-20900000D02*
X20600000Y-21300000D01*
X40275350Y-26424650D02*
X41500000Y-25200000D01*
X18200000Y-20900000D02*
X20200000Y-20900000D01*
X34424650Y-26424650D02*
X40275350Y-26424650D01*
X9600000Y-7400000D02*
X9600000Y-12300000D01*
X34400000Y-26400000D02*
X34424650Y-26424650D01*
X9600000Y-12300000D02*
X18200000Y-20900000D01*
G04 #@! TA.AperFunction,Conductor*
G36*
X6143039Y-18269685D02*
G01*
X6188794Y-18322489D01*
X6200000Y-18374000D01*
X6200000Y-18926000D01*
X6180315Y-18993039D01*
X6127511Y-19038794D01*
X6076000Y-19050000D01*
X5797804Y-19050000D01*
X5730765Y-19030315D01*
X5710123Y-19013681D01*
X5650707Y-18954265D01*
X5641441Y-18943897D01*
X5619214Y-18916025D01*
X5617071Y-18914037D01*
X5615426Y-18911276D01*
X5613424Y-18908765D01*
X5613767Y-18908490D01*
X5581317Y-18854009D01*
X5583693Y-18784180D01*
X5585233Y-18779802D01*
X5593597Y-18757377D01*
X5599999Y-18697844D01*
X5600000Y-18697827D01*
X5600000Y-18650000D01*
X4600000Y-18650000D01*
X4600000Y-18300499D01*
X5144864Y-18300499D01*
X5144879Y-18300497D01*
X5144882Y-18300497D01*
X5169987Y-18297586D01*
X5169988Y-18297585D01*
X5169991Y-18297585D01*
X5234872Y-18268937D01*
X5253832Y-18260566D01*
X5303918Y-18250000D01*
X6076000Y-18250000D01*
X6143039Y-18269685D01*
G37*
G04 #@! TD.AperFunction*
M02*
