G04 #@! TF.GenerationSoftware,KiCad,Pcbnew,7.0.9*
G04 #@! TF.CreationDate,2024-01-17T16:43:07+01:00*
G04 #@! TF.ProjectId,2023_PiezoPreamp,32303233-5f50-4696-957a-6f507265616d,2.3*
G04 #@! TF.SameCoordinates,PX25317c0PY1c22260*
G04 #@! TF.FileFunction,Legend,Bot*
G04 #@! TF.FilePolarity,Positive*
%FSLAX46Y46*%
G04 Gerber Fmt 4.6, Leading zero omitted, Abs format (unit mm)*
G04 Created by KiCad (PCBNEW 7.0.9) date 2024-01-17 16:43:07*
%MOMM*%
%LPD*%
G01*
G04 APERTURE LIST*
%ADD10C,0.200000*%
%ADD11C,0.127000*%
%ADD12C,5.500000*%
%ADD13C,1.000000*%
%ADD14C,1.800000*%
%ADD15O,3.600000X4.000000*%
%ADD16O,3.500000X4.000000*%
%ADD17C,1.400000*%
%ADD18C,3.200000*%
%ADD19C,1.650000*%
%ADD20R,1.650000X1.650000*%
%ADD21O,2.800000X4.800000*%
%ADD22O,3.204000X2.004000*%
G04 APERTURE END LIST*
D10*
X22100000Y-2300000D02*
G75*
G03*
X22100000Y-2300000I-100000J0D01*
G01*
X37600000Y-8700000D02*
G75*
G03*
X37600000Y-8700000I-100000J0D01*
G01*
X58100000Y-2300000D02*
G75*
G03*
X58100000Y-2300000I-100000J0D01*
G01*
X60500000Y-8700000D02*
G75*
G03*
X60500000Y-8700000I-100000J0D01*
G01*
X14700000Y-8700000D02*
G75*
G03*
X14700000Y-8700000I-100000J0D01*
G01*
X40100000Y-2300000D02*
G75*
G03*
X40100000Y-2300000I-100000J0D01*
G01*
X12273183Y-13367219D02*
X11939850Y-14367219D01*
X11939850Y-14367219D02*
X11606517Y-13367219D01*
X41568422Y-27486266D02*
X42330326Y-27486266D01*
X42139850Y-27676742D02*
X42330326Y-27486266D01*
X42330326Y-27486266D02*
X42139850Y-27295790D01*
X41092231Y-27867219D02*
X41092231Y-26867219D01*
X40616041Y-27867219D02*
X40616041Y-26867219D01*
X40616041Y-26867219D02*
X40044613Y-27867219D01*
X40044613Y-27867219D02*
X40044613Y-26867219D01*
X42614285Y-19246742D02*
X42614285Y-18046742D01*
X42614285Y-18046742D02*
X42233333Y-18046742D01*
X42233333Y-18046742D02*
X42138095Y-18103885D01*
X42138095Y-18103885D02*
X42090476Y-18161028D01*
X42090476Y-18161028D02*
X42042857Y-18275314D01*
X42042857Y-18275314D02*
X42042857Y-18446742D01*
X42042857Y-18446742D02*
X42090476Y-18561028D01*
X42090476Y-18561028D02*
X42138095Y-18618171D01*
X42138095Y-18618171D02*
X42233333Y-18675314D01*
X42233333Y-18675314D02*
X42614285Y-18675314D01*
X41614285Y-19246742D02*
X41614285Y-18446742D01*
X41614285Y-18046742D02*
X41661904Y-18103885D01*
X41661904Y-18103885D02*
X41614285Y-18161028D01*
X41614285Y-18161028D02*
X41566666Y-18103885D01*
X41566666Y-18103885D02*
X41614285Y-18046742D01*
X41614285Y-18046742D02*
X41614285Y-18161028D01*
X40757143Y-19189600D02*
X40852381Y-19246742D01*
X40852381Y-19246742D02*
X41042857Y-19246742D01*
X41042857Y-19246742D02*
X41138095Y-19189600D01*
X41138095Y-19189600D02*
X41185714Y-19075314D01*
X41185714Y-19075314D02*
X41185714Y-18618171D01*
X41185714Y-18618171D02*
X41138095Y-18503885D01*
X41138095Y-18503885D02*
X41042857Y-18446742D01*
X41042857Y-18446742D02*
X40852381Y-18446742D01*
X40852381Y-18446742D02*
X40757143Y-18503885D01*
X40757143Y-18503885D02*
X40709524Y-18618171D01*
X40709524Y-18618171D02*
X40709524Y-18732457D01*
X40709524Y-18732457D02*
X41185714Y-18846742D01*
X40376190Y-18446742D02*
X39852381Y-18446742D01*
X39852381Y-18446742D02*
X40376190Y-19246742D01*
X40376190Y-19246742D02*
X39852381Y-19246742D01*
X39328571Y-19246742D02*
X39423809Y-19189600D01*
X39423809Y-19189600D02*
X39471428Y-19132457D01*
X39471428Y-19132457D02*
X39519047Y-19018171D01*
X39519047Y-19018171D02*
X39519047Y-18675314D01*
X39519047Y-18675314D02*
X39471428Y-18561028D01*
X39471428Y-18561028D02*
X39423809Y-18503885D01*
X39423809Y-18503885D02*
X39328571Y-18446742D01*
X39328571Y-18446742D02*
X39185714Y-18446742D01*
X39185714Y-18446742D02*
X39090476Y-18503885D01*
X39090476Y-18503885D02*
X39042857Y-18561028D01*
X39042857Y-18561028D02*
X38995238Y-18675314D01*
X38995238Y-18675314D02*
X38995238Y-19018171D01*
X38995238Y-19018171D02*
X39042857Y-19132457D01*
X39042857Y-19132457D02*
X39090476Y-19189600D01*
X39090476Y-19189600D02*
X39185714Y-19246742D01*
X39185714Y-19246742D02*
X39328571Y-19246742D01*
X37804761Y-19246742D02*
X37804761Y-18046742D01*
X37804761Y-18046742D02*
X37423809Y-18046742D01*
X37423809Y-18046742D02*
X37328571Y-18103885D01*
X37328571Y-18103885D02*
X37280952Y-18161028D01*
X37280952Y-18161028D02*
X37233333Y-18275314D01*
X37233333Y-18275314D02*
X37233333Y-18446742D01*
X37233333Y-18446742D02*
X37280952Y-18561028D01*
X37280952Y-18561028D02*
X37328571Y-18618171D01*
X37328571Y-18618171D02*
X37423809Y-18675314D01*
X37423809Y-18675314D02*
X37804761Y-18675314D01*
X36804761Y-19246742D02*
X36804761Y-18446742D01*
X36804761Y-18675314D02*
X36757142Y-18561028D01*
X36757142Y-18561028D02*
X36709523Y-18503885D01*
X36709523Y-18503885D02*
X36614285Y-18446742D01*
X36614285Y-18446742D02*
X36519047Y-18446742D01*
X35804761Y-19189600D02*
X35899999Y-19246742D01*
X35899999Y-19246742D02*
X36090475Y-19246742D01*
X36090475Y-19246742D02*
X36185713Y-19189600D01*
X36185713Y-19189600D02*
X36233332Y-19075314D01*
X36233332Y-19075314D02*
X36233332Y-18618171D01*
X36233332Y-18618171D02*
X36185713Y-18503885D01*
X36185713Y-18503885D02*
X36090475Y-18446742D01*
X36090475Y-18446742D02*
X35899999Y-18446742D01*
X35899999Y-18446742D02*
X35804761Y-18503885D01*
X35804761Y-18503885D02*
X35757142Y-18618171D01*
X35757142Y-18618171D02*
X35757142Y-18732457D01*
X35757142Y-18732457D02*
X36233332Y-18846742D01*
X34899999Y-19246742D02*
X34899999Y-18618171D01*
X34899999Y-18618171D02*
X34947618Y-18503885D01*
X34947618Y-18503885D02*
X35042856Y-18446742D01*
X35042856Y-18446742D02*
X35233332Y-18446742D01*
X35233332Y-18446742D02*
X35328570Y-18503885D01*
X34899999Y-19189600D02*
X34995237Y-19246742D01*
X34995237Y-19246742D02*
X35233332Y-19246742D01*
X35233332Y-19246742D02*
X35328570Y-19189600D01*
X35328570Y-19189600D02*
X35376189Y-19075314D01*
X35376189Y-19075314D02*
X35376189Y-18961028D01*
X35376189Y-18961028D02*
X35328570Y-18846742D01*
X35328570Y-18846742D02*
X35233332Y-18789600D01*
X35233332Y-18789600D02*
X34995237Y-18789600D01*
X34995237Y-18789600D02*
X34899999Y-18732457D01*
X34423808Y-19246742D02*
X34423808Y-18446742D01*
X34423808Y-18561028D02*
X34376189Y-18503885D01*
X34376189Y-18503885D02*
X34280951Y-18446742D01*
X34280951Y-18446742D02*
X34138094Y-18446742D01*
X34138094Y-18446742D02*
X34042856Y-18503885D01*
X34042856Y-18503885D02*
X33995237Y-18618171D01*
X33995237Y-18618171D02*
X33995237Y-19246742D01*
X33995237Y-18618171D02*
X33947618Y-18503885D01*
X33947618Y-18503885D02*
X33852380Y-18446742D01*
X33852380Y-18446742D02*
X33709523Y-18446742D01*
X33709523Y-18446742D02*
X33614284Y-18503885D01*
X33614284Y-18503885D02*
X33566665Y-18618171D01*
X33566665Y-18618171D02*
X33566665Y-19246742D01*
X33090475Y-18446742D02*
X33090475Y-19646742D01*
X33090475Y-18503885D02*
X32995237Y-18446742D01*
X32995237Y-18446742D02*
X32804761Y-18446742D01*
X32804761Y-18446742D02*
X32709523Y-18503885D01*
X32709523Y-18503885D02*
X32661904Y-18561028D01*
X32661904Y-18561028D02*
X32614285Y-18675314D01*
X32614285Y-18675314D02*
X32614285Y-19018171D01*
X32614285Y-19018171D02*
X32661904Y-19132457D01*
X32661904Y-19132457D02*
X32709523Y-19189600D01*
X32709523Y-19189600D02*
X32804761Y-19246742D01*
X32804761Y-19246742D02*
X32995237Y-19246742D01*
X32995237Y-19246742D02*
X33090475Y-19189600D01*
X31423808Y-18789600D02*
X30661904Y-18789600D01*
X31042856Y-19246742D02*
X31042856Y-18332457D01*
X29423808Y-18618171D02*
X29090475Y-18618171D01*
X28947618Y-19246742D02*
X29423808Y-19246742D01*
X29423808Y-19246742D02*
X29423808Y-18046742D01*
X29423808Y-18046742D02*
X28947618Y-18046742D01*
X27852380Y-19361028D02*
X27947618Y-19303885D01*
X27947618Y-19303885D02*
X28042856Y-19189600D01*
X28042856Y-19189600D02*
X28185713Y-19018171D01*
X28185713Y-19018171D02*
X28280951Y-18961028D01*
X28280951Y-18961028D02*
X28376189Y-18961028D01*
X28328570Y-19246742D02*
X28423808Y-19189600D01*
X28423808Y-19189600D02*
X28519046Y-19075314D01*
X28519046Y-19075314D02*
X28566665Y-18846742D01*
X28566665Y-18846742D02*
X28566665Y-18446742D01*
X28566665Y-18446742D02*
X28519046Y-18218171D01*
X28519046Y-18218171D02*
X28423808Y-18103885D01*
X28423808Y-18103885D02*
X28328570Y-18046742D01*
X28328570Y-18046742D02*
X28138094Y-18046742D01*
X28138094Y-18046742D02*
X28042856Y-18103885D01*
X28042856Y-18103885D02*
X27947618Y-18218171D01*
X27947618Y-18218171D02*
X27899999Y-18446742D01*
X27899999Y-18446742D02*
X27899999Y-18846742D01*
X27899999Y-18846742D02*
X27947618Y-19075314D01*
X27947618Y-19075314D02*
X28042856Y-19189600D01*
X28042856Y-19189600D02*
X28138094Y-19246742D01*
X28138094Y-19246742D02*
X28328570Y-19246742D01*
X40090475Y-20378742D02*
X39852380Y-21178742D01*
X39852380Y-21178742D02*
X39614285Y-20378742D01*
X39280951Y-20093028D02*
X39233332Y-20035885D01*
X39233332Y-20035885D02*
X39138094Y-19978742D01*
X39138094Y-19978742D02*
X38899999Y-19978742D01*
X38899999Y-19978742D02*
X38804761Y-20035885D01*
X38804761Y-20035885D02*
X38757142Y-20093028D01*
X38757142Y-20093028D02*
X38709523Y-20207314D01*
X38709523Y-20207314D02*
X38709523Y-20321600D01*
X38709523Y-20321600D02*
X38757142Y-20493028D01*
X38757142Y-20493028D02*
X39328570Y-21178742D01*
X39328570Y-21178742D02*
X38709523Y-21178742D01*
X38280951Y-21064457D02*
X38233332Y-21121600D01*
X38233332Y-21121600D02*
X38280951Y-21178742D01*
X38280951Y-21178742D02*
X38328570Y-21121600D01*
X38328570Y-21121600D02*
X38280951Y-21064457D01*
X38280951Y-21064457D02*
X38280951Y-21178742D01*
X37899999Y-19978742D02*
X37280952Y-19978742D01*
X37280952Y-19978742D02*
X37614285Y-20435885D01*
X37614285Y-20435885D02*
X37471428Y-20435885D01*
X37471428Y-20435885D02*
X37376190Y-20493028D01*
X37376190Y-20493028D02*
X37328571Y-20550171D01*
X37328571Y-20550171D02*
X37280952Y-20664457D01*
X37280952Y-20664457D02*
X37280952Y-20950171D01*
X37280952Y-20950171D02*
X37328571Y-21064457D01*
X37328571Y-21064457D02*
X37376190Y-21121600D01*
X37376190Y-21121600D02*
X37471428Y-21178742D01*
X37471428Y-21178742D02*
X37757142Y-21178742D01*
X37757142Y-21178742D02*
X37852380Y-21121600D01*
X37852380Y-21121600D02*
X37899999Y-21064457D01*
X35899999Y-19978742D02*
X35804761Y-19978742D01*
X35804761Y-19978742D02*
X35709523Y-20035885D01*
X35709523Y-20035885D02*
X35661904Y-20093028D01*
X35661904Y-20093028D02*
X35614285Y-20207314D01*
X35614285Y-20207314D02*
X35566666Y-20435885D01*
X35566666Y-20435885D02*
X35566666Y-20721600D01*
X35566666Y-20721600D02*
X35614285Y-20950171D01*
X35614285Y-20950171D02*
X35661904Y-21064457D01*
X35661904Y-21064457D02*
X35709523Y-21121600D01*
X35709523Y-21121600D02*
X35804761Y-21178742D01*
X35804761Y-21178742D02*
X35899999Y-21178742D01*
X35899999Y-21178742D02*
X35995237Y-21121600D01*
X35995237Y-21121600D02*
X36042856Y-21064457D01*
X36042856Y-21064457D02*
X36090475Y-20950171D01*
X36090475Y-20950171D02*
X36138094Y-20721600D01*
X36138094Y-20721600D02*
X36138094Y-20435885D01*
X36138094Y-20435885D02*
X36090475Y-20207314D01*
X36090475Y-20207314D02*
X36042856Y-20093028D01*
X36042856Y-20093028D02*
X35995237Y-20035885D01*
X35995237Y-20035885D02*
X35899999Y-19978742D01*
X34614285Y-21178742D02*
X35185713Y-21178742D01*
X34899999Y-21178742D02*
X34899999Y-19978742D01*
X34899999Y-19978742D02*
X34995237Y-20150171D01*
X34995237Y-20150171D02*
X35090475Y-20264457D01*
X35090475Y-20264457D02*
X35185713Y-20321600D01*
X33471428Y-19921600D02*
X34328570Y-21464457D01*
X33185713Y-20093028D02*
X33138094Y-20035885D01*
X33138094Y-20035885D02*
X33042856Y-19978742D01*
X33042856Y-19978742D02*
X32804761Y-19978742D01*
X32804761Y-19978742D02*
X32709523Y-20035885D01*
X32709523Y-20035885D02*
X32661904Y-20093028D01*
X32661904Y-20093028D02*
X32614285Y-20207314D01*
X32614285Y-20207314D02*
X32614285Y-20321600D01*
X32614285Y-20321600D02*
X32661904Y-20493028D01*
X32661904Y-20493028D02*
X33233332Y-21178742D01*
X33233332Y-21178742D02*
X32614285Y-21178742D01*
X31995237Y-19978742D02*
X31899999Y-19978742D01*
X31899999Y-19978742D02*
X31804761Y-20035885D01*
X31804761Y-20035885D02*
X31757142Y-20093028D01*
X31757142Y-20093028D02*
X31709523Y-20207314D01*
X31709523Y-20207314D02*
X31661904Y-20435885D01*
X31661904Y-20435885D02*
X31661904Y-20721600D01*
X31661904Y-20721600D02*
X31709523Y-20950171D01*
X31709523Y-20950171D02*
X31757142Y-21064457D01*
X31757142Y-21064457D02*
X31804761Y-21121600D01*
X31804761Y-21121600D02*
X31899999Y-21178742D01*
X31899999Y-21178742D02*
X31995237Y-21178742D01*
X31995237Y-21178742D02*
X32090475Y-21121600D01*
X32090475Y-21121600D02*
X32138094Y-21064457D01*
X32138094Y-21064457D02*
X32185713Y-20950171D01*
X32185713Y-20950171D02*
X32233332Y-20721600D01*
X32233332Y-20721600D02*
X32233332Y-20435885D01*
X32233332Y-20435885D02*
X32185713Y-20207314D01*
X32185713Y-20207314D02*
X32138094Y-20093028D01*
X32138094Y-20093028D02*
X32090475Y-20035885D01*
X32090475Y-20035885D02*
X31995237Y-19978742D01*
X31280951Y-20093028D02*
X31233332Y-20035885D01*
X31233332Y-20035885D02*
X31138094Y-19978742D01*
X31138094Y-19978742D02*
X30899999Y-19978742D01*
X30899999Y-19978742D02*
X30804761Y-20035885D01*
X30804761Y-20035885D02*
X30757142Y-20093028D01*
X30757142Y-20093028D02*
X30709523Y-20207314D01*
X30709523Y-20207314D02*
X30709523Y-20321600D01*
X30709523Y-20321600D02*
X30757142Y-20493028D01*
X30757142Y-20493028D02*
X31328570Y-21178742D01*
X31328570Y-21178742D02*
X30709523Y-21178742D01*
X29852380Y-20378742D02*
X29852380Y-21178742D01*
X30090475Y-19921600D02*
X30328570Y-20778742D01*
X30328570Y-20778742D02*
X29709523Y-20778742D01*
X35852380Y-22767885D02*
X35376190Y-22767885D01*
X35947618Y-23110742D02*
X35614285Y-21910742D01*
X35614285Y-21910742D02*
X35280952Y-23110742D01*
X34947618Y-23110742D02*
X34947618Y-22310742D01*
X34947618Y-22539314D02*
X34899999Y-22425028D01*
X34899999Y-22425028D02*
X34852380Y-22367885D01*
X34852380Y-22367885D02*
X34757142Y-22310742D01*
X34757142Y-22310742D02*
X34661904Y-22310742D01*
X33899999Y-22310742D02*
X34423808Y-23510742D01*
X34423808Y-22310742D02*
X34328570Y-22367885D01*
X34328570Y-22367885D02*
X34280951Y-22482171D01*
X34280951Y-22482171D02*
X34042856Y-23339314D01*
X34042856Y-23339314D02*
X33995237Y-23453600D01*
X33995237Y-23453600D02*
X33899999Y-23510742D01*
X36733333Y-25042742D02*
X36733333Y-24414171D01*
X36733333Y-24414171D02*
X36780952Y-24299885D01*
X36780952Y-24299885D02*
X36876190Y-24242742D01*
X36876190Y-24242742D02*
X37066666Y-24242742D01*
X37066666Y-24242742D02*
X37161904Y-24299885D01*
X36733333Y-24985600D02*
X36828571Y-25042742D01*
X36828571Y-25042742D02*
X37066666Y-25042742D01*
X37066666Y-25042742D02*
X37161904Y-24985600D01*
X37161904Y-24985600D02*
X37209523Y-24871314D01*
X37209523Y-24871314D02*
X37209523Y-24757028D01*
X37209523Y-24757028D02*
X37161904Y-24642742D01*
X37161904Y-24642742D02*
X37066666Y-24585600D01*
X37066666Y-24585600D02*
X36828571Y-24585600D01*
X36828571Y-24585600D02*
X36733333Y-24528457D01*
X36257142Y-25042742D02*
X36257142Y-24242742D01*
X36257142Y-24471314D02*
X36209523Y-24357028D01*
X36209523Y-24357028D02*
X36161904Y-24299885D01*
X36161904Y-24299885D02*
X36066666Y-24242742D01*
X36066666Y-24242742D02*
X35971428Y-24242742D01*
X35733332Y-25042742D02*
X35209523Y-24242742D01*
X35733332Y-24242742D02*
X35209523Y-25042742D01*
X34828570Y-24928457D02*
X34780951Y-24985600D01*
X34780951Y-24985600D02*
X34828570Y-25042742D01*
X34828570Y-25042742D02*
X34876189Y-24985600D01*
X34876189Y-24985600D02*
X34828570Y-24928457D01*
X34828570Y-24928457D02*
X34828570Y-25042742D01*
X34447618Y-24242742D02*
X34257142Y-25042742D01*
X34257142Y-25042742D02*
X34066666Y-24471314D01*
X34066666Y-24471314D02*
X33876190Y-25042742D01*
X33876190Y-25042742D02*
X33685714Y-24242742D01*
X33447618Y-24242742D02*
X33066666Y-24242742D01*
X33304761Y-23842742D02*
X33304761Y-24871314D01*
X33304761Y-24871314D02*
X33257142Y-24985600D01*
X33257142Y-24985600D02*
X33161904Y-25042742D01*
X33161904Y-25042742D02*
X33066666Y-25042742D01*
X32876189Y-24242742D02*
X32495237Y-24242742D01*
X32733332Y-25042742D02*
X32733332Y-24014171D01*
X32733332Y-24014171D02*
X32685713Y-23899885D01*
X32685713Y-23899885D02*
X32590475Y-23842742D01*
X32590475Y-23842742D02*
X32495237Y-23842742D01*
X62244612Y-29867219D02*
X62244612Y-30581504D01*
X62244612Y-30581504D02*
X62292231Y-30724361D01*
X62292231Y-30724361D02*
X62387469Y-30819600D01*
X62387469Y-30819600D02*
X62530326Y-30867219D01*
X62530326Y-30867219D02*
X62625564Y-30867219D01*
X61292231Y-30867219D02*
X61768421Y-30867219D01*
X61768421Y-30867219D02*
X61768421Y-29867219D01*
X60387469Y-30771980D02*
X60435088Y-30819600D01*
X60435088Y-30819600D02*
X60577945Y-30867219D01*
X60577945Y-30867219D02*
X60673183Y-30867219D01*
X60673183Y-30867219D02*
X60816040Y-30819600D01*
X60816040Y-30819600D02*
X60911278Y-30724361D01*
X60911278Y-30724361D02*
X60958897Y-30629123D01*
X60958897Y-30629123D02*
X61006516Y-30438647D01*
X61006516Y-30438647D02*
X61006516Y-30295790D01*
X61006516Y-30295790D02*
X60958897Y-30105314D01*
X60958897Y-30105314D02*
X60911278Y-30010076D01*
X60911278Y-30010076D02*
X60816040Y-29914838D01*
X60816040Y-29914838D02*
X60673183Y-29867219D01*
X60673183Y-29867219D02*
X60577945Y-29867219D01*
X60577945Y-29867219D02*
X60435088Y-29914838D01*
X60435088Y-29914838D02*
X60387469Y-29962457D01*
X59673183Y-29867219D02*
X59673183Y-30581504D01*
X59673183Y-30581504D02*
X59720802Y-30724361D01*
X59720802Y-30724361D02*
X59816040Y-30819600D01*
X59816040Y-30819600D02*
X59958897Y-30867219D01*
X59958897Y-30867219D02*
X60054135Y-30867219D01*
X58720802Y-30867219D02*
X59196992Y-30867219D01*
X59196992Y-30867219D02*
X59196992Y-29867219D01*
X57816040Y-30771980D02*
X57863659Y-30819600D01*
X57863659Y-30819600D02*
X58006516Y-30867219D01*
X58006516Y-30867219D02*
X58101754Y-30867219D01*
X58101754Y-30867219D02*
X58244611Y-30819600D01*
X58244611Y-30819600D02*
X58339849Y-30724361D01*
X58339849Y-30724361D02*
X58387468Y-30629123D01*
X58387468Y-30629123D02*
X58435087Y-30438647D01*
X58435087Y-30438647D02*
X58435087Y-30295790D01*
X58435087Y-30295790D02*
X58387468Y-30105314D01*
X58387468Y-30105314D02*
X58339849Y-30010076D01*
X58339849Y-30010076D02*
X58244611Y-29914838D01*
X58244611Y-29914838D02*
X58101754Y-29867219D01*
X58101754Y-29867219D02*
X58006516Y-29867219D01*
X58006516Y-29867219D02*
X57863659Y-29914838D01*
X57863659Y-29914838D02*
X57816040Y-29962457D01*
X57101754Y-29867219D02*
X57101754Y-30581504D01*
X57101754Y-30581504D02*
X57149373Y-30724361D01*
X57149373Y-30724361D02*
X57244611Y-30819600D01*
X57244611Y-30819600D02*
X57387468Y-30867219D01*
X57387468Y-30867219D02*
X57482706Y-30867219D01*
X56149373Y-30867219D02*
X56625563Y-30867219D01*
X56625563Y-30867219D02*
X56625563Y-29867219D01*
X55244611Y-30771980D02*
X55292230Y-30819600D01*
X55292230Y-30819600D02*
X55435087Y-30867219D01*
X55435087Y-30867219D02*
X55530325Y-30867219D01*
X55530325Y-30867219D02*
X55673182Y-30819600D01*
X55673182Y-30819600D02*
X55768420Y-30724361D01*
X55768420Y-30724361D02*
X55816039Y-30629123D01*
X55816039Y-30629123D02*
X55863658Y-30438647D01*
X55863658Y-30438647D02*
X55863658Y-30295790D01*
X55863658Y-30295790D02*
X55816039Y-30105314D01*
X55816039Y-30105314D02*
X55768420Y-30010076D01*
X55768420Y-30010076D02*
X55673182Y-29914838D01*
X55673182Y-29914838D02*
X55530325Y-29867219D01*
X55530325Y-29867219D02*
X55435087Y-29867219D01*
X55435087Y-29867219D02*
X55292230Y-29914838D01*
X55292230Y-29914838D02*
X55244611Y-29962457D01*
X54530325Y-29867219D02*
X54530325Y-30581504D01*
X54530325Y-30581504D02*
X54577944Y-30724361D01*
X54577944Y-30724361D02*
X54673182Y-30819600D01*
X54673182Y-30819600D02*
X54816039Y-30867219D01*
X54816039Y-30867219D02*
X54911277Y-30867219D01*
X53577944Y-30867219D02*
X54054134Y-30867219D01*
X54054134Y-30867219D02*
X54054134Y-29867219D01*
X52673182Y-30771980D02*
X52720801Y-30819600D01*
X52720801Y-30819600D02*
X52863658Y-30867219D01*
X52863658Y-30867219D02*
X52958896Y-30867219D01*
X52958896Y-30867219D02*
X53101753Y-30819600D01*
X53101753Y-30819600D02*
X53196991Y-30724361D01*
X53196991Y-30724361D02*
X53244610Y-30629123D01*
X53244610Y-30629123D02*
X53292229Y-30438647D01*
X53292229Y-30438647D02*
X53292229Y-30295790D01*
X53292229Y-30295790D02*
X53244610Y-30105314D01*
X53244610Y-30105314D02*
X53196991Y-30010076D01*
X53196991Y-30010076D02*
X53101753Y-29914838D01*
X53101753Y-29914838D02*
X52958896Y-29867219D01*
X52958896Y-29867219D02*
X52863658Y-29867219D01*
X52863658Y-29867219D02*
X52720801Y-29914838D01*
X52720801Y-29914838D02*
X52673182Y-29962457D01*
X46154136Y-567219D02*
X46630326Y-567219D01*
X46630326Y-567219D02*
X46677945Y-1043409D01*
X46677945Y-1043409D02*
X46630326Y-995790D01*
X46630326Y-995790D02*
X46535088Y-948171D01*
X46535088Y-948171D02*
X46296993Y-948171D01*
X46296993Y-948171D02*
X46201755Y-995790D01*
X46201755Y-995790D02*
X46154136Y-1043409D01*
X46154136Y-1043409D02*
X46106517Y-1138647D01*
X46106517Y-1138647D02*
X46106517Y-1376742D01*
X46106517Y-1376742D02*
X46154136Y-1471980D01*
X46154136Y-1471980D02*
X46201755Y-1519600D01*
X46201755Y-1519600D02*
X46296993Y-1567219D01*
X46296993Y-1567219D02*
X46535088Y-1567219D01*
X46535088Y-1567219D02*
X46630326Y-1519600D01*
X46630326Y-1519600D02*
X46677945Y-1471980D01*
X58273183Y-13367219D02*
X57701755Y-13367219D01*
X57987469Y-14367219D02*
X57987469Y-13367219D01*
X60206517Y-4867219D02*
X60777945Y-4867219D01*
X60492231Y-4867219D02*
X60492231Y-3867219D01*
X60492231Y-3867219D02*
X60587469Y-4010076D01*
X60587469Y-4010076D02*
X60682707Y-4105314D01*
X60682707Y-4105314D02*
X60777945Y-4152933D01*
X59587469Y-3867219D02*
X59492231Y-3867219D01*
X59492231Y-3867219D02*
X59396993Y-3914838D01*
X59396993Y-3914838D02*
X59349374Y-3962457D01*
X59349374Y-3962457D02*
X59301755Y-4057695D01*
X59301755Y-4057695D02*
X59254136Y-4248171D01*
X59254136Y-4248171D02*
X59254136Y-4486266D01*
X59254136Y-4486266D02*
X59301755Y-4676742D01*
X59301755Y-4676742D02*
X59349374Y-4771980D01*
X59349374Y-4771980D02*
X59396993Y-4819600D01*
X59396993Y-4819600D02*
X59492231Y-4867219D01*
X59492231Y-4867219D02*
X59587469Y-4867219D01*
X59587469Y-4867219D02*
X59682707Y-4819600D01*
X59682707Y-4819600D02*
X59730326Y-4771980D01*
X59730326Y-4771980D02*
X59777945Y-4676742D01*
X59777945Y-4676742D02*
X59825564Y-4486266D01*
X59825564Y-4486266D02*
X59825564Y-4248171D01*
X59825564Y-4248171D02*
X59777945Y-4057695D01*
X59777945Y-4057695D02*
X59730326Y-3962457D01*
X59730326Y-3962457D02*
X59682707Y-3914838D01*
X59682707Y-3914838D02*
X59587469Y-3867219D01*
X41430326Y-33186266D02*
X40668422Y-33186266D01*
X41049374Y-33567219D02*
X41049374Y-32805314D01*
X30839850Y-26867219D02*
X30649374Y-26867219D01*
X30649374Y-26867219D02*
X30554136Y-26914838D01*
X30554136Y-26914838D02*
X30458898Y-27010076D01*
X30458898Y-27010076D02*
X30411279Y-27200552D01*
X30411279Y-27200552D02*
X30411279Y-27533885D01*
X30411279Y-27533885D02*
X30458898Y-27724361D01*
X30458898Y-27724361D02*
X30554136Y-27819600D01*
X30554136Y-27819600D02*
X30649374Y-27867219D01*
X30649374Y-27867219D02*
X30839850Y-27867219D01*
X30839850Y-27867219D02*
X30935088Y-27819600D01*
X30935088Y-27819600D02*
X31030326Y-27724361D01*
X31030326Y-27724361D02*
X31077945Y-27533885D01*
X31077945Y-27533885D02*
X31077945Y-27200552D01*
X31077945Y-27200552D02*
X31030326Y-27010076D01*
X31030326Y-27010076D02*
X30935088Y-26914838D01*
X30935088Y-26914838D02*
X30839850Y-26867219D01*
X29982707Y-26867219D02*
X29982707Y-27676742D01*
X29982707Y-27676742D02*
X29935088Y-27771980D01*
X29935088Y-27771980D02*
X29887469Y-27819600D01*
X29887469Y-27819600D02*
X29792231Y-27867219D01*
X29792231Y-27867219D02*
X29601755Y-27867219D01*
X29601755Y-27867219D02*
X29506517Y-27819600D01*
X29506517Y-27819600D02*
X29458898Y-27771980D01*
X29458898Y-27771980D02*
X29411279Y-27676742D01*
X29411279Y-27676742D02*
X29411279Y-26867219D01*
X29077945Y-26867219D02*
X28506517Y-26867219D01*
X28792231Y-27867219D02*
X28792231Y-26867219D01*
X28173183Y-27486266D02*
X27411279Y-27486266D01*
X27601755Y-27676742D02*
X27411279Y-27486266D01*
X27411279Y-27486266D02*
X27601755Y-27295790D01*
X34796993Y-13843409D02*
X34654136Y-13891028D01*
X34654136Y-13891028D02*
X34606517Y-13938647D01*
X34606517Y-13938647D02*
X34558898Y-14033885D01*
X34558898Y-14033885D02*
X34558898Y-14176742D01*
X34558898Y-14176742D02*
X34606517Y-14271980D01*
X34606517Y-14271980D02*
X34654136Y-14319600D01*
X34654136Y-14319600D02*
X34749374Y-14367219D01*
X34749374Y-14367219D02*
X35130326Y-14367219D01*
X35130326Y-14367219D02*
X35130326Y-13367219D01*
X35130326Y-13367219D02*
X34796993Y-13367219D01*
X34796993Y-13367219D02*
X34701755Y-13414838D01*
X34701755Y-13414838D02*
X34654136Y-13462457D01*
X34654136Y-13462457D02*
X34606517Y-13557695D01*
X34606517Y-13557695D02*
X34606517Y-13652933D01*
X34606517Y-13652933D02*
X34654136Y-13748171D01*
X34654136Y-13748171D02*
X34701755Y-13795790D01*
X34701755Y-13795790D02*
X34796993Y-13843409D01*
X34796993Y-13843409D02*
X35130326Y-13843409D01*
X46201755Y-3867219D02*
X46392231Y-3867219D01*
X46392231Y-3867219D02*
X46487469Y-3914838D01*
X46487469Y-3914838D02*
X46535088Y-3962457D01*
X46535088Y-3962457D02*
X46630326Y-4105314D01*
X46630326Y-4105314D02*
X46677945Y-4295790D01*
X46677945Y-4295790D02*
X46677945Y-4676742D01*
X46677945Y-4676742D02*
X46630326Y-4771980D01*
X46630326Y-4771980D02*
X46582707Y-4819600D01*
X46582707Y-4819600D02*
X46487469Y-4867219D01*
X46487469Y-4867219D02*
X46296993Y-4867219D01*
X46296993Y-4867219D02*
X46201755Y-4819600D01*
X46201755Y-4819600D02*
X46154136Y-4771980D01*
X46154136Y-4771980D02*
X46106517Y-4676742D01*
X46106517Y-4676742D02*
X46106517Y-4438647D01*
X46106517Y-4438647D02*
X46154136Y-4343409D01*
X46154136Y-4343409D02*
X46201755Y-4295790D01*
X46201755Y-4295790D02*
X46296993Y-4248171D01*
X46296993Y-4248171D02*
X46487469Y-4248171D01*
X46487469Y-4248171D02*
X46582707Y-4295790D01*
X46582707Y-4295790D02*
X46630326Y-4343409D01*
X46630326Y-4343409D02*
X46677945Y-4438647D01*
X66500000Y-19000000D02*
X65900000Y-19000000D01*
X65900000Y-19000000D02*
X65900000Y-7600000D01*
X65900000Y-7600000D02*
X66500000Y-7600000D01*
X66500000Y-7600000D02*
X66500000Y-19000000D01*
X76500000Y-18300000D02*
X66500000Y-18300000D01*
X66500000Y-18300000D02*
X66500000Y-8300000D01*
X66500000Y-8300000D02*
X76500000Y-8300000D01*
X76500000Y-8300000D02*
X76500000Y-18300000D01*
D11*
X-8800000Y-21100000D02*
X200000Y-21100000D01*
X-8800000Y-31500000D02*
X-8800000Y-21100000D01*
X-8800000Y-31500000D02*
X200000Y-31500000D01*
X200000Y-19300000D02*
X200000Y-21100000D01*
X200000Y-31500000D02*
X200000Y-33300000D01*
X200000Y-33300000D02*
X25200000Y-33300000D01*
X25200000Y-19300000D02*
X200000Y-19300000D01*
X25200000Y-33300000D02*
X25200000Y-19300000D01*
D10*
X9850000Y-26300000D02*
G75*
G03*
X9850000Y-26300000I-100000J0D01*
G01*
X60350000Y-26300000D02*
G75*
G03*
X60350000Y-26300000I-100000J0D01*
G01*
D11*
X44800000Y-19300000D02*
X44800000Y-33300000D01*
X44800000Y-33300000D02*
X69800000Y-33300000D01*
X69800000Y-19300000D02*
X44800000Y-19300000D01*
X69800000Y-21100000D02*
X69800000Y-19300000D01*
X69800000Y-33300000D02*
X69800000Y-31500000D01*
X78800000Y-21100000D02*
X69800000Y-21100000D01*
X78800000Y-21100000D02*
X78800000Y-31500000D01*
X78800000Y-31500000D02*
X69800000Y-31500000D01*
%LPC*%
D12*
X65000000Y-4500000D03*
D13*
X39850000Y-31700000D03*
X41100000Y-31700000D03*
D14*
X37500000Y-7400000D03*
X35000000Y-7400000D03*
X32500000Y-7400000D03*
D15*
X39400000Y-14400000D03*
D16*
X30600000Y-14400000D03*
D17*
X40000000Y-1100000D03*
X38000000Y-1100000D03*
X34000000Y-1100000D03*
X32000000Y-1100000D03*
X30000000Y-1100000D03*
X30000000Y-4400000D03*
X32000000Y-4400000D03*
X34000000Y-4400000D03*
X38000000Y-4400000D03*
X40000000Y-4400000D03*
D18*
X29300000Y-31900000D03*
D14*
X14600000Y-7400000D03*
X12100000Y-7400000D03*
X9600000Y-7400000D03*
D15*
X16500000Y-14400000D03*
D16*
X7700000Y-14400000D03*
D19*
X2730000Y-9000000D03*
D20*
X5270000Y-9000000D03*
D14*
X60400000Y-7400000D03*
X57900000Y-7400000D03*
X55400000Y-7400000D03*
D15*
X62300000Y-14400000D03*
D16*
X53500000Y-14400000D03*
D17*
X22000000Y-1100000D03*
X20000000Y-1100000D03*
X16000000Y-1100000D03*
X14000000Y-1100000D03*
X12000000Y-1100000D03*
X12000000Y-4400000D03*
X14000000Y-4400000D03*
X16000000Y-4400000D03*
X20000000Y-4400000D03*
X22000000Y-4400000D03*
X58000000Y-1100000D03*
X56000000Y-1100000D03*
X52000000Y-1100000D03*
X50000000Y-1100000D03*
X48000000Y-1100000D03*
X48000000Y-4400000D03*
X50000000Y-4400000D03*
X52000000Y-4400000D03*
X56000000Y-4400000D03*
X58000000Y-4400000D03*
D18*
X5000000Y-4500000D03*
D21*
X66200000Y-13300000D03*
D22*
X7700000Y-26300000D03*
X22600000Y-23800000D03*
X22600000Y-28800000D03*
X47400000Y-23800000D03*
X47400000Y-28800000D03*
X62300000Y-26300000D03*
%LPD*%
M02*
