G04 #@! TF.GenerationSoftware,KiCad,Pcbnew,7.0.9*
G04 #@! TF.CreationDate,2023-12-27T13:53:45+01:00*
G04 #@! TF.ProjectId,2023_PiezoPreamp,32303233-5f50-4696-957a-6f507265616d,2.2*
G04 #@! TF.SameCoordinates,PX2625a00PY1c22260*
G04 #@! TF.FileFunction,Legend,Bot*
G04 #@! TF.FilePolarity,Positive*
%FSLAX46Y46*%
G04 Gerber Fmt 4.6, Leading zero omitted, Abs format (unit mm)*
G04 Created by KiCad (PCBNEW 7.0.9) date 2023-12-27 13:53:45*
%MOMM*%
%LPD*%
G01*
G04 APERTURE LIST*
%ADD10C,0.200000*%
%ADD11C,0.127000*%
%ADD12C,5.500000*%
%ADD13C,1.000000*%
%ADD14C,1.800000*%
%ADD15O,3.600000X4.000000*%
%ADD16O,3.500000X4.000000*%
%ADD17C,1.400000*%
%ADD18C,3.200000*%
%ADD19R,1.650000X1.650000*%
%ADD20C,1.650000*%
%ADD21O,2.800000X4.800000*%
%ADD22O,3.204000X2.004000*%
G04 APERTURE END LIST*
D10*
X21100000Y-2300000D02*
G75*
G03*
X21100000Y-2300000I-100000J0D01*
G01*
X36600000Y-8700000D02*
G75*
G03*
X36600000Y-8700000I-100000J0D01*
G01*
X57100000Y-2300000D02*
G75*
G03*
X57100000Y-2300000I-100000J0D01*
G01*
X59500000Y-8700000D02*
G75*
G03*
X59500000Y-8700000I-100000J0D01*
G01*
X13700000Y-8700000D02*
G75*
G03*
X13700000Y-8700000I-100000J0D01*
G01*
X39100000Y-2300000D02*
G75*
G03*
X39100000Y-2300000I-100000J0D01*
G01*
X11273183Y-13367219D02*
X10939850Y-14367219D01*
X10939850Y-14367219D02*
X10606517Y-13367219D01*
X40568422Y-27486266D02*
X41330326Y-27486266D01*
X41139850Y-27676742D02*
X41330326Y-27486266D01*
X41330326Y-27486266D02*
X41139850Y-27295790D01*
X40092231Y-27867219D02*
X40092231Y-26867219D01*
X39616041Y-27867219D02*
X39616041Y-26867219D01*
X39616041Y-26867219D02*
X39044613Y-27867219D01*
X39044613Y-27867219D02*
X39044613Y-26867219D01*
X41614285Y-19246742D02*
X41614285Y-18046742D01*
X41614285Y-18046742D02*
X41233333Y-18046742D01*
X41233333Y-18046742D02*
X41138095Y-18103885D01*
X41138095Y-18103885D02*
X41090476Y-18161028D01*
X41090476Y-18161028D02*
X41042857Y-18275314D01*
X41042857Y-18275314D02*
X41042857Y-18446742D01*
X41042857Y-18446742D02*
X41090476Y-18561028D01*
X41090476Y-18561028D02*
X41138095Y-18618171D01*
X41138095Y-18618171D02*
X41233333Y-18675314D01*
X41233333Y-18675314D02*
X41614285Y-18675314D01*
X40614285Y-19246742D02*
X40614285Y-18446742D01*
X40614285Y-18046742D02*
X40661904Y-18103885D01*
X40661904Y-18103885D02*
X40614285Y-18161028D01*
X40614285Y-18161028D02*
X40566666Y-18103885D01*
X40566666Y-18103885D02*
X40614285Y-18046742D01*
X40614285Y-18046742D02*
X40614285Y-18161028D01*
X39757143Y-19189600D02*
X39852381Y-19246742D01*
X39852381Y-19246742D02*
X40042857Y-19246742D01*
X40042857Y-19246742D02*
X40138095Y-19189600D01*
X40138095Y-19189600D02*
X40185714Y-19075314D01*
X40185714Y-19075314D02*
X40185714Y-18618171D01*
X40185714Y-18618171D02*
X40138095Y-18503885D01*
X40138095Y-18503885D02*
X40042857Y-18446742D01*
X40042857Y-18446742D02*
X39852381Y-18446742D01*
X39852381Y-18446742D02*
X39757143Y-18503885D01*
X39757143Y-18503885D02*
X39709524Y-18618171D01*
X39709524Y-18618171D02*
X39709524Y-18732457D01*
X39709524Y-18732457D02*
X40185714Y-18846742D01*
X39376190Y-18446742D02*
X38852381Y-18446742D01*
X38852381Y-18446742D02*
X39376190Y-19246742D01*
X39376190Y-19246742D02*
X38852381Y-19246742D01*
X38328571Y-19246742D02*
X38423809Y-19189600D01*
X38423809Y-19189600D02*
X38471428Y-19132457D01*
X38471428Y-19132457D02*
X38519047Y-19018171D01*
X38519047Y-19018171D02*
X38519047Y-18675314D01*
X38519047Y-18675314D02*
X38471428Y-18561028D01*
X38471428Y-18561028D02*
X38423809Y-18503885D01*
X38423809Y-18503885D02*
X38328571Y-18446742D01*
X38328571Y-18446742D02*
X38185714Y-18446742D01*
X38185714Y-18446742D02*
X38090476Y-18503885D01*
X38090476Y-18503885D02*
X38042857Y-18561028D01*
X38042857Y-18561028D02*
X37995238Y-18675314D01*
X37995238Y-18675314D02*
X37995238Y-19018171D01*
X37995238Y-19018171D02*
X38042857Y-19132457D01*
X38042857Y-19132457D02*
X38090476Y-19189600D01*
X38090476Y-19189600D02*
X38185714Y-19246742D01*
X38185714Y-19246742D02*
X38328571Y-19246742D01*
X36804761Y-19246742D02*
X36804761Y-18046742D01*
X36804761Y-18046742D02*
X36423809Y-18046742D01*
X36423809Y-18046742D02*
X36328571Y-18103885D01*
X36328571Y-18103885D02*
X36280952Y-18161028D01*
X36280952Y-18161028D02*
X36233333Y-18275314D01*
X36233333Y-18275314D02*
X36233333Y-18446742D01*
X36233333Y-18446742D02*
X36280952Y-18561028D01*
X36280952Y-18561028D02*
X36328571Y-18618171D01*
X36328571Y-18618171D02*
X36423809Y-18675314D01*
X36423809Y-18675314D02*
X36804761Y-18675314D01*
X35804761Y-19246742D02*
X35804761Y-18446742D01*
X35804761Y-18675314D02*
X35757142Y-18561028D01*
X35757142Y-18561028D02*
X35709523Y-18503885D01*
X35709523Y-18503885D02*
X35614285Y-18446742D01*
X35614285Y-18446742D02*
X35519047Y-18446742D01*
X34804761Y-19189600D02*
X34899999Y-19246742D01*
X34899999Y-19246742D02*
X35090475Y-19246742D01*
X35090475Y-19246742D02*
X35185713Y-19189600D01*
X35185713Y-19189600D02*
X35233332Y-19075314D01*
X35233332Y-19075314D02*
X35233332Y-18618171D01*
X35233332Y-18618171D02*
X35185713Y-18503885D01*
X35185713Y-18503885D02*
X35090475Y-18446742D01*
X35090475Y-18446742D02*
X34899999Y-18446742D01*
X34899999Y-18446742D02*
X34804761Y-18503885D01*
X34804761Y-18503885D02*
X34757142Y-18618171D01*
X34757142Y-18618171D02*
X34757142Y-18732457D01*
X34757142Y-18732457D02*
X35233332Y-18846742D01*
X33899999Y-19246742D02*
X33899999Y-18618171D01*
X33899999Y-18618171D02*
X33947618Y-18503885D01*
X33947618Y-18503885D02*
X34042856Y-18446742D01*
X34042856Y-18446742D02*
X34233332Y-18446742D01*
X34233332Y-18446742D02*
X34328570Y-18503885D01*
X33899999Y-19189600D02*
X33995237Y-19246742D01*
X33995237Y-19246742D02*
X34233332Y-19246742D01*
X34233332Y-19246742D02*
X34328570Y-19189600D01*
X34328570Y-19189600D02*
X34376189Y-19075314D01*
X34376189Y-19075314D02*
X34376189Y-18961028D01*
X34376189Y-18961028D02*
X34328570Y-18846742D01*
X34328570Y-18846742D02*
X34233332Y-18789600D01*
X34233332Y-18789600D02*
X33995237Y-18789600D01*
X33995237Y-18789600D02*
X33899999Y-18732457D01*
X33423808Y-19246742D02*
X33423808Y-18446742D01*
X33423808Y-18561028D02*
X33376189Y-18503885D01*
X33376189Y-18503885D02*
X33280951Y-18446742D01*
X33280951Y-18446742D02*
X33138094Y-18446742D01*
X33138094Y-18446742D02*
X33042856Y-18503885D01*
X33042856Y-18503885D02*
X32995237Y-18618171D01*
X32995237Y-18618171D02*
X32995237Y-19246742D01*
X32995237Y-18618171D02*
X32947618Y-18503885D01*
X32947618Y-18503885D02*
X32852380Y-18446742D01*
X32852380Y-18446742D02*
X32709523Y-18446742D01*
X32709523Y-18446742D02*
X32614284Y-18503885D01*
X32614284Y-18503885D02*
X32566665Y-18618171D01*
X32566665Y-18618171D02*
X32566665Y-19246742D01*
X32090475Y-18446742D02*
X32090475Y-19646742D01*
X32090475Y-18503885D02*
X31995237Y-18446742D01*
X31995237Y-18446742D02*
X31804761Y-18446742D01*
X31804761Y-18446742D02*
X31709523Y-18503885D01*
X31709523Y-18503885D02*
X31661904Y-18561028D01*
X31661904Y-18561028D02*
X31614285Y-18675314D01*
X31614285Y-18675314D02*
X31614285Y-19018171D01*
X31614285Y-19018171D02*
X31661904Y-19132457D01*
X31661904Y-19132457D02*
X31709523Y-19189600D01*
X31709523Y-19189600D02*
X31804761Y-19246742D01*
X31804761Y-19246742D02*
X31995237Y-19246742D01*
X31995237Y-19246742D02*
X32090475Y-19189600D01*
X30423808Y-18789600D02*
X29661904Y-18789600D01*
X30042856Y-19246742D02*
X30042856Y-18332457D01*
X28423808Y-18618171D02*
X28090475Y-18618171D01*
X27947618Y-19246742D02*
X28423808Y-19246742D01*
X28423808Y-19246742D02*
X28423808Y-18046742D01*
X28423808Y-18046742D02*
X27947618Y-18046742D01*
X26852380Y-19361028D02*
X26947618Y-19303885D01*
X26947618Y-19303885D02*
X27042856Y-19189600D01*
X27042856Y-19189600D02*
X27185713Y-19018171D01*
X27185713Y-19018171D02*
X27280951Y-18961028D01*
X27280951Y-18961028D02*
X27376189Y-18961028D01*
X27328570Y-19246742D02*
X27423808Y-19189600D01*
X27423808Y-19189600D02*
X27519046Y-19075314D01*
X27519046Y-19075314D02*
X27566665Y-18846742D01*
X27566665Y-18846742D02*
X27566665Y-18446742D01*
X27566665Y-18446742D02*
X27519046Y-18218171D01*
X27519046Y-18218171D02*
X27423808Y-18103885D01*
X27423808Y-18103885D02*
X27328570Y-18046742D01*
X27328570Y-18046742D02*
X27138094Y-18046742D01*
X27138094Y-18046742D02*
X27042856Y-18103885D01*
X27042856Y-18103885D02*
X26947618Y-18218171D01*
X26947618Y-18218171D02*
X26899999Y-18446742D01*
X26899999Y-18446742D02*
X26899999Y-18846742D01*
X26899999Y-18846742D02*
X26947618Y-19075314D01*
X26947618Y-19075314D02*
X27042856Y-19189600D01*
X27042856Y-19189600D02*
X27138094Y-19246742D01*
X27138094Y-19246742D02*
X27328570Y-19246742D01*
X39090475Y-20378742D02*
X38852380Y-21178742D01*
X38852380Y-21178742D02*
X38614285Y-20378742D01*
X38280951Y-20093028D02*
X38233332Y-20035885D01*
X38233332Y-20035885D02*
X38138094Y-19978742D01*
X38138094Y-19978742D02*
X37899999Y-19978742D01*
X37899999Y-19978742D02*
X37804761Y-20035885D01*
X37804761Y-20035885D02*
X37757142Y-20093028D01*
X37757142Y-20093028D02*
X37709523Y-20207314D01*
X37709523Y-20207314D02*
X37709523Y-20321600D01*
X37709523Y-20321600D02*
X37757142Y-20493028D01*
X37757142Y-20493028D02*
X38328570Y-21178742D01*
X38328570Y-21178742D02*
X37709523Y-21178742D01*
X37280951Y-21064457D02*
X37233332Y-21121600D01*
X37233332Y-21121600D02*
X37280951Y-21178742D01*
X37280951Y-21178742D02*
X37328570Y-21121600D01*
X37328570Y-21121600D02*
X37280951Y-21064457D01*
X37280951Y-21064457D02*
X37280951Y-21178742D01*
X36852380Y-20093028D02*
X36804761Y-20035885D01*
X36804761Y-20035885D02*
X36709523Y-19978742D01*
X36709523Y-19978742D02*
X36471428Y-19978742D01*
X36471428Y-19978742D02*
X36376190Y-20035885D01*
X36376190Y-20035885D02*
X36328571Y-20093028D01*
X36328571Y-20093028D02*
X36280952Y-20207314D01*
X36280952Y-20207314D02*
X36280952Y-20321600D01*
X36280952Y-20321600D02*
X36328571Y-20493028D01*
X36328571Y-20493028D02*
X36899999Y-21178742D01*
X36899999Y-21178742D02*
X36280952Y-21178742D01*
X34566666Y-21178742D02*
X35138094Y-21178742D01*
X34852380Y-21178742D02*
X34852380Y-19978742D01*
X34852380Y-19978742D02*
X34947618Y-20150171D01*
X34947618Y-20150171D02*
X35042856Y-20264457D01*
X35042856Y-20264457D02*
X35138094Y-20321600D01*
X34185713Y-20093028D02*
X34138094Y-20035885D01*
X34138094Y-20035885D02*
X34042856Y-19978742D01*
X34042856Y-19978742D02*
X33804761Y-19978742D01*
X33804761Y-19978742D02*
X33709523Y-20035885D01*
X33709523Y-20035885D02*
X33661904Y-20093028D01*
X33661904Y-20093028D02*
X33614285Y-20207314D01*
X33614285Y-20207314D02*
X33614285Y-20321600D01*
X33614285Y-20321600D02*
X33661904Y-20493028D01*
X33661904Y-20493028D02*
X34233332Y-21178742D01*
X34233332Y-21178742D02*
X33614285Y-21178742D01*
X32471428Y-19921600D02*
X33328570Y-21464457D01*
X32185713Y-20093028D02*
X32138094Y-20035885D01*
X32138094Y-20035885D02*
X32042856Y-19978742D01*
X32042856Y-19978742D02*
X31804761Y-19978742D01*
X31804761Y-19978742D02*
X31709523Y-20035885D01*
X31709523Y-20035885D02*
X31661904Y-20093028D01*
X31661904Y-20093028D02*
X31614285Y-20207314D01*
X31614285Y-20207314D02*
X31614285Y-20321600D01*
X31614285Y-20321600D02*
X31661904Y-20493028D01*
X31661904Y-20493028D02*
X32233332Y-21178742D01*
X32233332Y-21178742D02*
X31614285Y-21178742D01*
X30995237Y-19978742D02*
X30899999Y-19978742D01*
X30899999Y-19978742D02*
X30804761Y-20035885D01*
X30804761Y-20035885D02*
X30757142Y-20093028D01*
X30757142Y-20093028D02*
X30709523Y-20207314D01*
X30709523Y-20207314D02*
X30661904Y-20435885D01*
X30661904Y-20435885D02*
X30661904Y-20721600D01*
X30661904Y-20721600D02*
X30709523Y-20950171D01*
X30709523Y-20950171D02*
X30757142Y-21064457D01*
X30757142Y-21064457D02*
X30804761Y-21121600D01*
X30804761Y-21121600D02*
X30899999Y-21178742D01*
X30899999Y-21178742D02*
X30995237Y-21178742D01*
X30995237Y-21178742D02*
X31090475Y-21121600D01*
X31090475Y-21121600D02*
X31138094Y-21064457D01*
X31138094Y-21064457D02*
X31185713Y-20950171D01*
X31185713Y-20950171D02*
X31233332Y-20721600D01*
X31233332Y-20721600D02*
X31233332Y-20435885D01*
X31233332Y-20435885D02*
X31185713Y-20207314D01*
X31185713Y-20207314D02*
X31138094Y-20093028D01*
X31138094Y-20093028D02*
X31090475Y-20035885D01*
X31090475Y-20035885D02*
X30995237Y-19978742D01*
X30280951Y-20093028D02*
X30233332Y-20035885D01*
X30233332Y-20035885D02*
X30138094Y-19978742D01*
X30138094Y-19978742D02*
X29899999Y-19978742D01*
X29899999Y-19978742D02*
X29804761Y-20035885D01*
X29804761Y-20035885D02*
X29757142Y-20093028D01*
X29757142Y-20093028D02*
X29709523Y-20207314D01*
X29709523Y-20207314D02*
X29709523Y-20321600D01*
X29709523Y-20321600D02*
X29757142Y-20493028D01*
X29757142Y-20493028D02*
X30328570Y-21178742D01*
X30328570Y-21178742D02*
X29709523Y-21178742D01*
X29376189Y-19978742D02*
X28757142Y-19978742D01*
X28757142Y-19978742D02*
X29090475Y-20435885D01*
X29090475Y-20435885D02*
X28947618Y-20435885D01*
X28947618Y-20435885D02*
X28852380Y-20493028D01*
X28852380Y-20493028D02*
X28804761Y-20550171D01*
X28804761Y-20550171D02*
X28757142Y-20664457D01*
X28757142Y-20664457D02*
X28757142Y-20950171D01*
X28757142Y-20950171D02*
X28804761Y-21064457D01*
X28804761Y-21064457D02*
X28852380Y-21121600D01*
X28852380Y-21121600D02*
X28947618Y-21178742D01*
X28947618Y-21178742D02*
X29233332Y-21178742D01*
X29233332Y-21178742D02*
X29328570Y-21121600D01*
X29328570Y-21121600D02*
X29376189Y-21064457D01*
X34852380Y-22767885D02*
X34376190Y-22767885D01*
X34947618Y-23110742D02*
X34614285Y-21910742D01*
X34614285Y-21910742D02*
X34280952Y-23110742D01*
X33947618Y-23110742D02*
X33947618Y-22310742D01*
X33947618Y-22539314D02*
X33899999Y-22425028D01*
X33899999Y-22425028D02*
X33852380Y-22367885D01*
X33852380Y-22367885D02*
X33757142Y-22310742D01*
X33757142Y-22310742D02*
X33661904Y-22310742D01*
X32899999Y-22310742D02*
X33423808Y-23510742D01*
X33423808Y-22310742D02*
X33328570Y-22367885D01*
X33328570Y-22367885D02*
X33280951Y-22482171D01*
X33280951Y-22482171D02*
X33042856Y-23339314D01*
X33042856Y-23339314D02*
X32995237Y-23453600D01*
X32995237Y-23453600D02*
X32899999Y-23510742D01*
X35733333Y-25042742D02*
X35733333Y-24414171D01*
X35733333Y-24414171D02*
X35780952Y-24299885D01*
X35780952Y-24299885D02*
X35876190Y-24242742D01*
X35876190Y-24242742D02*
X36066666Y-24242742D01*
X36066666Y-24242742D02*
X36161904Y-24299885D01*
X35733333Y-24985600D02*
X35828571Y-25042742D01*
X35828571Y-25042742D02*
X36066666Y-25042742D01*
X36066666Y-25042742D02*
X36161904Y-24985600D01*
X36161904Y-24985600D02*
X36209523Y-24871314D01*
X36209523Y-24871314D02*
X36209523Y-24757028D01*
X36209523Y-24757028D02*
X36161904Y-24642742D01*
X36161904Y-24642742D02*
X36066666Y-24585600D01*
X36066666Y-24585600D02*
X35828571Y-24585600D01*
X35828571Y-24585600D02*
X35733333Y-24528457D01*
X35257142Y-25042742D02*
X35257142Y-24242742D01*
X35257142Y-24471314D02*
X35209523Y-24357028D01*
X35209523Y-24357028D02*
X35161904Y-24299885D01*
X35161904Y-24299885D02*
X35066666Y-24242742D01*
X35066666Y-24242742D02*
X34971428Y-24242742D01*
X34733332Y-25042742D02*
X34209523Y-24242742D01*
X34733332Y-24242742D02*
X34209523Y-25042742D01*
X33828570Y-24928457D02*
X33780951Y-24985600D01*
X33780951Y-24985600D02*
X33828570Y-25042742D01*
X33828570Y-25042742D02*
X33876189Y-24985600D01*
X33876189Y-24985600D02*
X33828570Y-24928457D01*
X33828570Y-24928457D02*
X33828570Y-25042742D01*
X33447618Y-24242742D02*
X33257142Y-25042742D01*
X33257142Y-25042742D02*
X33066666Y-24471314D01*
X33066666Y-24471314D02*
X32876190Y-25042742D01*
X32876190Y-25042742D02*
X32685714Y-24242742D01*
X32447618Y-24242742D02*
X32066666Y-24242742D01*
X32304761Y-23842742D02*
X32304761Y-24871314D01*
X32304761Y-24871314D02*
X32257142Y-24985600D01*
X32257142Y-24985600D02*
X32161904Y-25042742D01*
X32161904Y-25042742D02*
X32066666Y-25042742D01*
X31876189Y-24242742D02*
X31495237Y-24242742D01*
X31733332Y-25042742D02*
X31733332Y-24014171D01*
X31733332Y-24014171D02*
X31685713Y-23899885D01*
X31685713Y-23899885D02*
X31590475Y-23842742D01*
X31590475Y-23842742D02*
X31495237Y-23842742D01*
X61244612Y-30267219D02*
X61244612Y-30981504D01*
X61244612Y-30981504D02*
X61292231Y-31124361D01*
X61292231Y-31124361D02*
X61387469Y-31219600D01*
X61387469Y-31219600D02*
X61530326Y-31267219D01*
X61530326Y-31267219D02*
X61625564Y-31267219D01*
X60292231Y-31267219D02*
X60768421Y-31267219D01*
X60768421Y-31267219D02*
X60768421Y-30267219D01*
X59387469Y-31171980D02*
X59435088Y-31219600D01*
X59435088Y-31219600D02*
X59577945Y-31267219D01*
X59577945Y-31267219D02*
X59673183Y-31267219D01*
X59673183Y-31267219D02*
X59816040Y-31219600D01*
X59816040Y-31219600D02*
X59911278Y-31124361D01*
X59911278Y-31124361D02*
X59958897Y-31029123D01*
X59958897Y-31029123D02*
X60006516Y-30838647D01*
X60006516Y-30838647D02*
X60006516Y-30695790D01*
X60006516Y-30695790D02*
X59958897Y-30505314D01*
X59958897Y-30505314D02*
X59911278Y-30410076D01*
X59911278Y-30410076D02*
X59816040Y-30314838D01*
X59816040Y-30314838D02*
X59673183Y-30267219D01*
X59673183Y-30267219D02*
X59577945Y-30267219D01*
X59577945Y-30267219D02*
X59435088Y-30314838D01*
X59435088Y-30314838D02*
X59387469Y-30362457D01*
X58673183Y-30267219D02*
X58673183Y-30981504D01*
X58673183Y-30981504D02*
X58720802Y-31124361D01*
X58720802Y-31124361D02*
X58816040Y-31219600D01*
X58816040Y-31219600D02*
X58958897Y-31267219D01*
X58958897Y-31267219D02*
X59054135Y-31267219D01*
X57720802Y-31267219D02*
X58196992Y-31267219D01*
X58196992Y-31267219D02*
X58196992Y-30267219D01*
X56816040Y-31171980D02*
X56863659Y-31219600D01*
X56863659Y-31219600D02*
X57006516Y-31267219D01*
X57006516Y-31267219D02*
X57101754Y-31267219D01*
X57101754Y-31267219D02*
X57244611Y-31219600D01*
X57244611Y-31219600D02*
X57339849Y-31124361D01*
X57339849Y-31124361D02*
X57387468Y-31029123D01*
X57387468Y-31029123D02*
X57435087Y-30838647D01*
X57435087Y-30838647D02*
X57435087Y-30695790D01*
X57435087Y-30695790D02*
X57387468Y-30505314D01*
X57387468Y-30505314D02*
X57339849Y-30410076D01*
X57339849Y-30410076D02*
X57244611Y-30314838D01*
X57244611Y-30314838D02*
X57101754Y-30267219D01*
X57101754Y-30267219D02*
X57006516Y-30267219D01*
X57006516Y-30267219D02*
X56863659Y-30314838D01*
X56863659Y-30314838D02*
X56816040Y-30362457D01*
X56101754Y-30267219D02*
X56101754Y-30981504D01*
X56101754Y-30981504D02*
X56149373Y-31124361D01*
X56149373Y-31124361D02*
X56244611Y-31219600D01*
X56244611Y-31219600D02*
X56387468Y-31267219D01*
X56387468Y-31267219D02*
X56482706Y-31267219D01*
X55149373Y-31267219D02*
X55625563Y-31267219D01*
X55625563Y-31267219D02*
X55625563Y-30267219D01*
X54244611Y-31171980D02*
X54292230Y-31219600D01*
X54292230Y-31219600D02*
X54435087Y-31267219D01*
X54435087Y-31267219D02*
X54530325Y-31267219D01*
X54530325Y-31267219D02*
X54673182Y-31219600D01*
X54673182Y-31219600D02*
X54768420Y-31124361D01*
X54768420Y-31124361D02*
X54816039Y-31029123D01*
X54816039Y-31029123D02*
X54863658Y-30838647D01*
X54863658Y-30838647D02*
X54863658Y-30695790D01*
X54863658Y-30695790D02*
X54816039Y-30505314D01*
X54816039Y-30505314D02*
X54768420Y-30410076D01*
X54768420Y-30410076D02*
X54673182Y-30314838D01*
X54673182Y-30314838D02*
X54530325Y-30267219D01*
X54530325Y-30267219D02*
X54435087Y-30267219D01*
X54435087Y-30267219D02*
X54292230Y-30314838D01*
X54292230Y-30314838D02*
X54244611Y-30362457D01*
X53530325Y-30267219D02*
X53530325Y-30981504D01*
X53530325Y-30981504D02*
X53577944Y-31124361D01*
X53577944Y-31124361D02*
X53673182Y-31219600D01*
X53673182Y-31219600D02*
X53816039Y-31267219D01*
X53816039Y-31267219D02*
X53911277Y-31267219D01*
X52577944Y-31267219D02*
X53054134Y-31267219D01*
X53054134Y-31267219D02*
X53054134Y-30267219D01*
X51673182Y-31171980D02*
X51720801Y-31219600D01*
X51720801Y-31219600D02*
X51863658Y-31267219D01*
X51863658Y-31267219D02*
X51958896Y-31267219D01*
X51958896Y-31267219D02*
X52101753Y-31219600D01*
X52101753Y-31219600D02*
X52196991Y-31124361D01*
X52196991Y-31124361D02*
X52244610Y-31029123D01*
X52244610Y-31029123D02*
X52292229Y-30838647D01*
X52292229Y-30838647D02*
X52292229Y-30695790D01*
X52292229Y-30695790D02*
X52244610Y-30505314D01*
X52244610Y-30505314D02*
X52196991Y-30410076D01*
X52196991Y-30410076D02*
X52101753Y-30314838D01*
X52101753Y-30314838D02*
X51958896Y-30267219D01*
X51958896Y-30267219D02*
X51863658Y-30267219D01*
X51863658Y-30267219D02*
X51720801Y-30314838D01*
X51720801Y-30314838D02*
X51673182Y-30362457D01*
X45154136Y-567219D02*
X45630326Y-567219D01*
X45630326Y-567219D02*
X45677945Y-1043409D01*
X45677945Y-1043409D02*
X45630326Y-995790D01*
X45630326Y-995790D02*
X45535088Y-948171D01*
X45535088Y-948171D02*
X45296993Y-948171D01*
X45296993Y-948171D02*
X45201755Y-995790D01*
X45201755Y-995790D02*
X45154136Y-1043409D01*
X45154136Y-1043409D02*
X45106517Y-1138647D01*
X45106517Y-1138647D02*
X45106517Y-1376742D01*
X45106517Y-1376742D02*
X45154136Y-1471980D01*
X45154136Y-1471980D02*
X45201755Y-1519600D01*
X45201755Y-1519600D02*
X45296993Y-1567219D01*
X45296993Y-1567219D02*
X45535088Y-1567219D01*
X45535088Y-1567219D02*
X45630326Y-1519600D01*
X45630326Y-1519600D02*
X45677945Y-1471980D01*
X57273183Y-13367219D02*
X56701755Y-13367219D01*
X56987469Y-14367219D02*
X56987469Y-13367219D01*
X59206517Y-4867219D02*
X59777945Y-4867219D01*
X59492231Y-4867219D02*
X59492231Y-3867219D01*
X59492231Y-3867219D02*
X59587469Y-4010076D01*
X59587469Y-4010076D02*
X59682707Y-4105314D01*
X59682707Y-4105314D02*
X59777945Y-4152933D01*
X58587469Y-3867219D02*
X58492231Y-3867219D01*
X58492231Y-3867219D02*
X58396993Y-3914838D01*
X58396993Y-3914838D02*
X58349374Y-3962457D01*
X58349374Y-3962457D02*
X58301755Y-4057695D01*
X58301755Y-4057695D02*
X58254136Y-4248171D01*
X58254136Y-4248171D02*
X58254136Y-4486266D01*
X58254136Y-4486266D02*
X58301755Y-4676742D01*
X58301755Y-4676742D02*
X58349374Y-4771980D01*
X58349374Y-4771980D02*
X58396993Y-4819600D01*
X58396993Y-4819600D02*
X58492231Y-4867219D01*
X58492231Y-4867219D02*
X58587469Y-4867219D01*
X58587469Y-4867219D02*
X58682707Y-4819600D01*
X58682707Y-4819600D02*
X58730326Y-4771980D01*
X58730326Y-4771980D02*
X58777945Y-4676742D01*
X58777945Y-4676742D02*
X58825564Y-4486266D01*
X58825564Y-4486266D02*
X58825564Y-4248171D01*
X58825564Y-4248171D02*
X58777945Y-4057695D01*
X58777945Y-4057695D02*
X58730326Y-3962457D01*
X58730326Y-3962457D02*
X58682707Y-3914838D01*
X58682707Y-3914838D02*
X58587469Y-3867219D01*
X40430326Y-33186266D02*
X39668422Y-33186266D01*
X40049374Y-33567219D02*
X40049374Y-32805314D01*
X29839850Y-26867219D02*
X29649374Y-26867219D01*
X29649374Y-26867219D02*
X29554136Y-26914838D01*
X29554136Y-26914838D02*
X29458898Y-27010076D01*
X29458898Y-27010076D02*
X29411279Y-27200552D01*
X29411279Y-27200552D02*
X29411279Y-27533885D01*
X29411279Y-27533885D02*
X29458898Y-27724361D01*
X29458898Y-27724361D02*
X29554136Y-27819600D01*
X29554136Y-27819600D02*
X29649374Y-27867219D01*
X29649374Y-27867219D02*
X29839850Y-27867219D01*
X29839850Y-27867219D02*
X29935088Y-27819600D01*
X29935088Y-27819600D02*
X30030326Y-27724361D01*
X30030326Y-27724361D02*
X30077945Y-27533885D01*
X30077945Y-27533885D02*
X30077945Y-27200552D01*
X30077945Y-27200552D02*
X30030326Y-27010076D01*
X30030326Y-27010076D02*
X29935088Y-26914838D01*
X29935088Y-26914838D02*
X29839850Y-26867219D01*
X28982707Y-26867219D02*
X28982707Y-27676742D01*
X28982707Y-27676742D02*
X28935088Y-27771980D01*
X28935088Y-27771980D02*
X28887469Y-27819600D01*
X28887469Y-27819600D02*
X28792231Y-27867219D01*
X28792231Y-27867219D02*
X28601755Y-27867219D01*
X28601755Y-27867219D02*
X28506517Y-27819600D01*
X28506517Y-27819600D02*
X28458898Y-27771980D01*
X28458898Y-27771980D02*
X28411279Y-27676742D01*
X28411279Y-27676742D02*
X28411279Y-26867219D01*
X28077945Y-26867219D02*
X27506517Y-26867219D01*
X27792231Y-27867219D02*
X27792231Y-26867219D01*
X27173183Y-27486266D02*
X26411279Y-27486266D01*
X26601755Y-27676742D02*
X26411279Y-27486266D01*
X26411279Y-27486266D02*
X26601755Y-27295790D01*
X33796993Y-13843409D02*
X33654136Y-13891028D01*
X33654136Y-13891028D02*
X33606517Y-13938647D01*
X33606517Y-13938647D02*
X33558898Y-14033885D01*
X33558898Y-14033885D02*
X33558898Y-14176742D01*
X33558898Y-14176742D02*
X33606517Y-14271980D01*
X33606517Y-14271980D02*
X33654136Y-14319600D01*
X33654136Y-14319600D02*
X33749374Y-14367219D01*
X33749374Y-14367219D02*
X34130326Y-14367219D01*
X34130326Y-14367219D02*
X34130326Y-13367219D01*
X34130326Y-13367219D02*
X33796993Y-13367219D01*
X33796993Y-13367219D02*
X33701755Y-13414838D01*
X33701755Y-13414838D02*
X33654136Y-13462457D01*
X33654136Y-13462457D02*
X33606517Y-13557695D01*
X33606517Y-13557695D02*
X33606517Y-13652933D01*
X33606517Y-13652933D02*
X33654136Y-13748171D01*
X33654136Y-13748171D02*
X33701755Y-13795790D01*
X33701755Y-13795790D02*
X33796993Y-13843409D01*
X33796993Y-13843409D02*
X34130326Y-13843409D01*
X45201755Y-3867219D02*
X45392231Y-3867219D01*
X45392231Y-3867219D02*
X45487469Y-3914838D01*
X45487469Y-3914838D02*
X45535088Y-3962457D01*
X45535088Y-3962457D02*
X45630326Y-4105314D01*
X45630326Y-4105314D02*
X45677945Y-4295790D01*
X45677945Y-4295790D02*
X45677945Y-4676742D01*
X45677945Y-4676742D02*
X45630326Y-4771980D01*
X45630326Y-4771980D02*
X45582707Y-4819600D01*
X45582707Y-4819600D02*
X45487469Y-4867219D01*
X45487469Y-4867219D02*
X45296993Y-4867219D01*
X45296993Y-4867219D02*
X45201755Y-4819600D01*
X45201755Y-4819600D02*
X45154136Y-4771980D01*
X45154136Y-4771980D02*
X45106517Y-4676742D01*
X45106517Y-4676742D02*
X45106517Y-4438647D01*
X45106517Y-4438647D02*
X45154136Y-4343409D01*
X45154136Y-4343409D02*
X45201755Y-4295790D01*
X45201755Y-4295790D02*
X45296993Y-4248171D01*
X45296993Y-4248171D02*
X45487469Y-4248171D01*
X45487469Y-4248171D02*
X45582707Y-4295790D01*
X45582707Y-4295790D02*
X45630326Y-4343409D01*
X45630326Y-4343409D02*
X45677945Y-4438647D01*
X65500000Y-19000000D02*
X64900000Y-19000000D01*
X64900000Y-19000000D02*
X64900000Y-7600000D01*
X64900000Y-7600000D02*
X65500000Y-7600000D01*
X65500000Y-7600000D02*
X65500000Y-19000000D01*
X75500000Y-18300000D02*
X65500000Y-18300000D01*
X65500000Y-18300000D02*
X65500000Y-8300000D01*
X65500000Y-8300000D02*
X75500000Y-8300000D01*
X75500000Y-8300000D02*
X75500000Y-18300000D01*
D11*
X-8800000Y-22100000D02*
X200000Y-22100000D01*
X-8800000Y-32500000D02*
X-8800000Y-22100000D01*
X-8800000Y-32500000D02*
X200000Y-32500000D01*
X200000Y-20300000D02*
X200000Y-22100000D01*
X200000Y-32500000D02*
X200000Y-34300000D01*
X200000Y-34300000D02*
X25200000Y-34300000D01*
X25200000Y-20300000D02*
X200000Y-20300000D01*
X25200000Y-34300000D02*
X25200000Y-20300000D01*
D10*
X9850000Y-27300000D02*
G75*
G03*
X9850000Y-27300000I-100000J0D01*
G01*
D11*
X76800000Y-32500000D02*
X67800000Y-32500000D01*
X76800000Y-22100000D02*
X76800000Y-32500000D01*
X76800000Y-22100000D02*
X67800000Y-22100000D01*
X67800000Y-34300000D02*
X67800000Y-32500000D01*
X67800000Y-22100000D02*
X67800000Y-20300000D01*
X67800000Y-20300000D02*
X42800000Y-20300000D01*
X42800000Y-34300000D02*
X67800000Y-34300000D01*
X42800000Y-20300000D02*
X42800000Y-34300000D01*
D10*
X58350000Y-27300000D02*
G75*
G03*
X58350000Y-27300000I-100000J0D01*
G01*
%LPC*%
D12*
X64000000Y-4500000D03*
D13*
X40100000Y-31700000D03*
X38850000Y-31700000D03*
D14*
X36500000Y-7400000D03*
X34000000Y-7400000D03*
X31500000Y-7400000D03*
D15*
X38400000Y-14400000D03*
D16*
X29600000Y-14400000D03*
D17*
X39000000Y-1100000D03*
X37000000Y-1100000D03*
X33000000Y-1100000D03*
X31000000Y-1100000D03*
X29000000Y-1100000D03*
X29000000Y-4400000D03*
X31000000Y-4400000D03*
X33000000Y-4400000D03*
X37000000Y-4400000D03*
X39000000Y-4400000D03*
D18*
X28300000Y-31900000D03*
D14*
X13600000Y-7400000D03*
X11100000Y-7400000D03*
X8600000Y-7400000D03*
D15*
X15500000Y-14400000D03*
D16*
X6700000Y-14400000D03*
D19*
X4270000Y-9000000D03*
D20*
X1730000Y-9000000D03*
D14*
X59400000Y-7400000D03*
X56900000Y-7400000D03*
X54400000Y-7400000D03*
D15*
X61300000Y-14400000D03*
D16*
X52500000Y-14400000D03*
D17*
X21000000Y-1100000D03*
X19000000Y-1100000D03*
X15000000Y-1100000D03*
X13000000Y-1100000D03*
X11000000Y-1100000D03*
X11000000Y-4400000D03*
X13000000Y-4400000D03*
X15000000Y-4400000D03*
X19000000Y-4400000D03*
X21000000Y-4400000D03*
X57000000Y-1100000D03*
X55000000Y-1100000D03*
X51000000Y-1100000D03*
X49000000Y-1100000D03*
X47000000Y-1100000D03*
X47000000Y-4400000D03*
X49000000Y-4400000D03*
X51000000Y-4400000D03*
X55000000Y-4400000D03*
X57000000Y-4400000D03*
D18*
X4000000Y-4500000D03*
D21*
X65200000Y-13300000D03*
D22*
X7700000Y-27300000D03*
X22600000Y-24800000D03*
X22600000Y-29800000D03*
X60300000Y-27300000D03*
X45400000Y-29800000D03*
X45400000Y-24800000D03*
%LPD*%
M02*
