G04 #@! TF.GenerationSoftware,KiCad,Pcbnew,7.0.10*
G04 #@! TF.CreationDate,2024-02-22T18:00:35+01:00*
G04 #@! TF.ProjectId,2023_PiezoPreamp,32303233-5f50-4696-957a-6f507265616d,2.3*
G04 #@! TF.SameCoordinates,PX25317c0PY1c22260*
G04 #@! TF.FileFunction,Copper,L3,Inr*
G04 #@! TF.FilePolarity,Positive*
%FSLAX46Y46*%
G04 Gerber Fmt 4.6, Leading zero omitted, Abs format (unit mm)*
G04 Created by KiCad (PCBNEW 7.0.10) date 2024-02-22 18:00:35*
%MOMM*%
%LPD*%
G01*
G04 APERTURE LIST*
G04 #@! TA.AperFunction,ComponentPad*
%ADD10C,5.500000*%
G04 #@! TD*
G04 #@! TA.AperFunction,ComponentPad*
%ADD11C,1.000000*%
G04 #@! TD*
G04 #@! TA.AperFunction,ComponentPad*
%ADD12C,1.800000*%
G04 #@! TD*
G04 #@! TA.AperFunction,ComponentPad*
%ADD13O,3.600000X4.000000*%
G04 #@! TD*
G04 #@! TA.AperFunction,ComponentPad*
%ADD14O,3.500000X4.000000*%
G04 #@! TD*
G04 #@! TA.AperFunction,ComponentPad*
%ADD15C,1.400000*%
G04 #@! TD*
G04 #@! TA.AperFunction,ComponentPad*
%ADD16R,1.650000X1.650000*%
G04 #@! TD*
G04 #@! TA.AperFunction,ComponentPad*
%ADD17C,1.650000*%
G04 #@! TD*
G04 #@! TA.AperFunction,ComponentPad*
%ADD18O,2.800000X4.800000*%
G04 #@! TD*
G04 #@! TA.AperFunction,ComponentPad*
%ADD19O,3.000000X1.800000*%
G04 #@! TD*
G04 #@! TA.AperFunction,ViaPad*
%ADD20C,0.700000*%
G04 #@! TD*
G04 #@! TA.AperFunction,ViaPad*
%ADD21C,0.800000*%
G04 #@! TD*
G04 APERTURE END LIST*
D10*
X65000000Y-4500000D03*
D11*
X41100000Y-31700000D03*
X39850000Y-31700000D03*
D12*
X37500000Y-7400000D03*
X35000000Y-7400000D03*
X32500000Y-7400000D03*
D13*
X39400000Y-14400000D03*
D14*
X30600000Y-14400000D03*
D15*
X40000000Y-1100000D03*
X38000000Y-1100000D03*
X34000000Y-1100000D03*
X32000000Y-1100000D03*
X30000000Y-1100000D03*
X30000000Y-4400000D03*
X32000000Y-4400000D03*
X34000000Y-4400000D03*
X38000000Y-4400000D03*
X40000000Y-4400000D03*
D12*
X14600000Y-7400000D03*
X12100000Y-7400000D03*
X9600000Y-7400000D03*
D13*
X16500000Y-14400000D03*
D14*
X7700000Y-14400000D03*
D16*
X5270000Y-9000000D03*
D17*
X2730000Y-9000000D03*
D12*
X60400000Y-7400000D03*
X57900000Y-7400000D03*
X55400000Y-7400000D03*
D13*
X62300000Y-14400000D03*
D14*
X53500000Y-14400000D03*
D15*
X22000000Y-1100000D03*
X20000000Y-1100000D03*
X16000000Y-1100000D03*
X14000000Y-1100000D03*
X12000000Y-1100000D03*
X12000000Y-4400000D03*
X14000000Y-4400000D03*
X16000000Y-4400000D03*
X20000000Y-4400000D03*
X22000000Y-4400000D03*
X58000000Y-1100000D03*
X56000000Y-1100000D03*
X52000000Y-1100000D03*
X50000000Y-1100000D03*
X48000000Y-1100000D03*
X48000000Y-4400000D03*
X50000000Y-4400000D03*
X52000000Y-4400000D03*
X56000000Y-4400000D03*
X58000000Y-4400000D03*
D18*
X66200000Y-13300000D03*
D19*
X7700000Y-26300000D03*
X22600000Y-23800000D03*
X22600000Y-28800000D03*
X62300000Y-26300000D03*
X47400000Y-28800000D03*
X47400000Y-23800000D03*
D20*
X48244774Y-9004729D03*
X2600000Y-16348205D03*
D21*
X47600000Y-14900000D03*
X16000000Y-17500000D03*
X58000000Y-10000000D03*
X7000000Y-7500000D03*
X66500000Y-27500000D03*
X11000000Y-16500000D03*
X46400000Y-19850000D03*
X5100000Y-32500000D03*
X39000000Y-23000000D03*
X13500000Y-12500000D03*
X27099006Y-19850000D03*
X9300000Y-29800000D03*
X13100000Y-32000000D03*
X38500000Y-17000000D03*
D20*
X32400000Y-29950500D03*
D21*
X68200000Y-18700000D03*
X2000000Y-6500000D03*
X35000000Y-28216418D03*
X54100000Y-18000000D03*
D20*
X23823192Y-10464368D03*
D21*
X48400000Y-34300000D03*
X1900000Y-25200000D03*
X13298721Y-27787553D03*
X11000000Y-10000000D03*
X2000000Y-2000000D03*
X59000000Y-6000000D03*
X36000000Y-4500000D03*
X25800000Y-32750500D03*
X67900000Y-7500000D03*
X36500000Y-22000000D03*
X27512363Y-24272572D03*
X47700000Y-30900000D03*
X26500000Y-28100000D03*
X13667237Y-22332763D03*
X900000Y-28000000D03*
D20*
X4249500Y-16043034D03*
D21*
X29577535Y-28207093D03*
D20*
X26016828Y-5022013D03*
D21*
X36000000Y-10500000D03*
X37800000Y-31400000D03*
X22300000Y-32750500D03*
X56500000Y-29400000D03*
D20*
X19800474Y-21925865D03*
X18971915Y-15197968D03*
D21*
X28500000Y-2500000D03*
X60500000Y-9500000D03*
D20*
X22800000Y-14550000D03*
D21*
X18000000Y-19500000D03*
X64500000Y-18000000D03*
D20*
X30989135Y-21307875D03*
D21*
X61000000Y-2500000D03*
X58400000Y-26100000D03*
X5888708Y-22160794D03*
D20*
X49000000Y-5275850D03*
D21*
X19000000Y-27600000D03*
X26295674Y-23392583D03*
X19824150Y-7850000D03*
X43469782Y-30974384D03*
X50074150Y-19700000D03*
X10500000Y-32300000D03*
X5000000Y-24900000D03*
X8100000Y-28700000D03*
X53400500Y-23700000D03*
X32675000Y-33800000D03*
D20*
X18550000Y-18050000D03*
D21*
X16400000Y-26900000D03*
X47000000Y-26300000D03*
D20*
X54727593Y-11872407D03*
D21*
X43500000Y-1000000D03*
X10700000Y-21600000D03*
X39100000Y-21324150D03*
X8500000Y-10000000D03*
X20000000Y-31000000D03*
X24000000Y-1500000D03*
X15300000Y-24500000D03*
X44500000Y-17000000D03*
X35500000Y-16500000D03*
X38798315Y-11176475D03*
X57000000Y-13000000D03*
X25600000Y-30006593D03*
X41500000Y-21500000D03*
X23223291Y-30742626D03*
X10500000Y-30300000D03*
D20*
X58386159Y-21480973D03*
X19623200Y-24608120D03*
D21*
X33000000Y-11000000D03*
D20*
X51044751Y-10560434D03*
D21*
X4800000Y-29300000D03*
X30950000Y-8455850D03*
X35500000Y-19500000D03*
X51900000Y-33800000D03*
X66300000Y-32300000D03*
D20*
X25100000Y-18150000D03*
D21*
X18500000Y-4099500D03*
X42500000Y-10000000D03*
X43000000Y-23000000D03*
X51136419Y-15063627D03*
X68000000Y-10000000D03*
X25000000Y-26700000D03*
X32500000Y-16500000D03*
X49929702Y-26039602D03*
X38000000Y-9000000D03*
D20*
X25050000Y-19850000D03*
D21*
X18000000Y-1500000D03*
X51775000Y-23700000D03*
X11000000Y-19000000D03*
X13400000Y-25600000D03*
D20*
X33792143Y-25625850D03*
X47700000Y-10300000D03*
X5850500Y-18700000D03*
D21*
X61000000Y-32600000D03*
X35410315Y-32886772D03*
X10000000Y-5500000D03*
X27250000Y-8050000D03*
X57000000Y-3000000D03*
X25000000Y-3500000D03*
X16000000Y-10000000D03*
D20*
X31440000Y-6299500D03*
X48434875Y-11798739D03*
D21*
X18000000Y-12000000D03*
D20*
X43605976Y-17473108D03*
D21*
X52300000Y-28600000D03*
X53135538Y-25801064D03*
X21225498Y-16274150D03*
X67000000Y-23500000D03*
X58000000Y-33500000D03*
X44500000Y-12000000D03*
D20*
X41274123Y-12474078D03*
D21*
X63800000Y-29000000D03*
X15700000Y-21000000D03*
X50800000Y-17000000D03*
D20*
X25550000Y-15550000D03*
D21*
X11000000Y-2500000D03*
X61500000Y-11500000D03*
X27000000Y-17500000D03*
X41500000Y-2000000D03*
X1900000Y-23300000D03*
X27500000Y-5000000D03*
X11000000Y-12500000D03*
X11723543Y-25876457D03*
X13400000Y-18700000D03*
D20*
X21250000Y-19550000D03*
D21*
X42980648Y-28238703D03*
X55300000Y-20100000D03*
X24200000Y-8000000D03*
D20*
X28229428Y-10425850D03*
D21*
X29500000Y-17000000D03*
X14900000Y-34700000D03*
X65200000Y-21500000D03*
X64500000Y-10000000D03*
X43000000Y-4500000D03*
X35000000Y-13000000D03*
X32942453Y-21800500D03*
X38500000Y-19500000D03*
X39000000Y-25200000D03*
X44500000Y-34000000D03*
X46500000Y-3000000D03*
X42000000Y-19000000D03*
X60500000Y-28100000D03*
X13500000Y-10000000D03*
X38950000Y-28750000D03*
X36000000Y-2000000D03*
X8100000Y-32600000D03*
X37500000Y-34500000D03*
X41500000Y-29500000D03*
X54000000Y-2000000D03*
D20*
X56500259Y-18700777D03*
D21*
X8800000Y-4000000D03*
X59500000Y-19000000D03*
X57000000Y-16000000D03*
X32500000Y-19500000D03*
X8500000Y-17000000D03*
D20*
X63425850Y-21660848D03*
D21*
X52499958Y-19706182D03*
X6000000Y-21000000D03*
X53957565Y-26462877D03*
X53050000Y-20600000D03*
X28513957Y-24586043D03*
X54377447Y-22760734D03*
X26049503Y-19850000D03*
X43450000Y-27300000D03*
X49192609Y-25292508D03*
X27267350Y-22995972D03*
D20*
X25050000Y-5150000D03*
X43400000Y-18400000D03*
X52000000Y-10700000D03*
X62500000Y-21400000D03*
X56200000Y-17800000D03*
X59500000Y-21500000D03*
X48300000Y-8000000D03*
X40500000Y-11700000D03*
X47700000Y-12400000D03*
X19105283Y-14257879D03*
X22230000Y-13480000D03*
X30708213Y-5489559D03*
X22875000Y-10414502D03*
D21*
X19500000Y-25600000D03*
X22175000Y-30825000D03*
D20*
X27500000Y-11200000D03*
X53827593Y-10972407D03*
X30614944Y-20435215D03*
X20600000Y-21300000D03*
X34400000Y-26400000D03*
G04 #@! TA.AperFunction,Conductor*
G36*
X10952781Y-420462D02*
G01*
X11007319Y-475000D01*
X11027281Y-549500D01*
X11011661Y-615914D01*
X10969417Y-700751D01*
X10969416Y-700753D01*
X10913602Y-896921D01*
X10894785Y-1099995D01*
X10894785Y-1100004D01*
X10913602Y-1303078D01*
X10969416Y-1499245D01*
X10969417Y-1499247D01*
X10969418Y-1499250D01*
X11000000Y-1560667D01*
X11060328Y-1681823D01*
X11075045Y-1701311D01*
X11183236Y-1844579D01*
X11333958Y-1981980D01*
X11333963Y-1981984D01*
X11507356Y-2089344D01*
X11507367Y-2089350D01*
X11623332Y-2134274D01*
X11697544Y-2163024D01*
X11898024Y-2200500D01*
X11898027Y-2200500D01*
X12101973Y-2200500D01*
X12101976Y-2200500D01*
X12302456Y-2163024D01*
X12492637Y-2089348D01*
X12666041Y-1981981D01*
X12816764Y-1844579D01*
X12881096Y-1759388D01*
X12941921Y-1711967D01*
X13018310Y-1701311D01*
X13089792Y-1730277D01*
X13118902Y-1759387D01*
X13183236Y-1844579D01*
X13333958Y-1981980D01*
X13333963Y-1981984D01*
X13507356Y-2089344D01*
X13507367Y-2089350D01*
X13623332Y-2134274D01*
X13697544Y-2163024D01*
X13898024Y-2200500D01*
X13898027Y-2200500D01*
X14101973Y-2200500D01*
X14101976Y-2200500D01*
X14302456Y-2163024D01*
X14492637Y-2089348D01*
X14666041Y-1981981D01*
X14816764Y-1844579D01*
X14881096Y-1759388D01*
X14941921Y-1711967D01*
X15018310Y-1701311D01*
X15089792Y-1730277D01*
X15118902Y-1759387D01*
X15183236Y-1844579D01*
X15333958Y-1981980D01*
X15333963Y-1981984D01*
X15507356Y-2089344D01*
X15507367Y-2089350D01*
X15623332Y-2134274D01*
X15697544Y-2163024D01*
X15898024Y-2200500D01*
X15898027Y-2200500D01*
X16101973Y-2200500D01*
X16101976Y-2200500D01*
X16302456Y-2163024D01*
X16492637Y-2089348D01*
X16666041Y-1981981D01*
X16816764Y-1844579D01*
X16939673Y-1681821D01*
X17030582Y-1499250D01*
X17086397Y-1303083D01*
X17096851Y-1190259D01*
X17105215Y-1100004D01*
X17105215Y-1099995D01*
X17094760Y-987176D01*
X17086397Y-896917D01*
X17030582Y-700750D01*
X16988339Y-615914D01*
X16973002Y-540327D01*
X16997513Y-467197D01*
X17055305Y-416120D01*
X17121719Y-400500D01*
X18878281Y-400500D01*
X18952781Y-420462D01*
X19007319Y-475000D01*
X19027281Y-549500D01*
X19011661Y-615914D01*
X18969417Y-700751D01*
X18969416Y-700753D01*
X18913602Y-896921D01*
X18894785Y-1099995D01*
X18894785Y-1100004D01*
X18913602Y-1303078D01*
X18969416Y-1499245D01*
X18969417Y-1499247D01*
X18969418Y-1499250D01*
X19000000Y-1560667D01*
X19060328Y-1681823D01*
X19075045Y-1701311D01*
X19183236Y-1844579D01*
X19333958Y-1981980D01*
X19333963Y-1981984D01*
X19507356Y-2089344D01*
X19507367Y-2089350D01*
X19623332Y-2134274D01*
X19697544Y-2163024D01*
X19898024Y-2200500D01*
X19898027Y-2200500D01*
X20101973Y-2200500D01*
X20101976Y-2200500D01*
X20302456Y-2163024D01*
X20492637Y-2089348D01*
X20666041Y-1981981D01*
X20816764Y-1844579D01*
X20881096Y-1759388D01*
X20941921Y-1711967D01*
X21018310Y-1701311D01*
X21089792Y-1730277D01*
X21118902Y-1759387D01*
X21183236Y-1844579D01*
X21333958Y-1981980D01*
X21333963Y-1981984D01*
X21507356Y-2089344D01*
X21507367Y-2089350D01*
X21623332Y-2134274D01*
X21697544Y-2163024D01*
X21898024Y-2200500D01*
X21898027Y-2200500D01*
X22101973Y-2200500D01*
X22101976Y-2200500D01*
X22302456Y-2163024D01*
X22492637Y-2089348D01*
X22666041Y-1981981D01*
X22816764Y-1844579D01*
X22939673Y-1681821D01*
X23030582Y-1499250D01*
X23086397Y-1303083D01*
X23096851Y-1190259D01*
X23105215Y-1100004D01*
X23105215Y-1099995D01*
X23094760Y-987176D01*
X23086397Y-896917D01*
X23030582Y-700750D01*
X22988339Y-615914D01*
X22973002Y-540327D01*
X22997513Y-467197D01*
X23055305Y-416120D01*
X23121719Y-400500D01*
X28878281Y-400500D01*
X28952781Y-420462D01*
X29007319Y-475000D01*
X29027281Y-549500D01*
X29011661Y-615914D01*
X28969417Y-700751D01*
X28969416Y-700753D01*
X28913602Y-896921D01*
X28894785Y-1099995D01*
X28894785Y-1100004D01*
X28913602Y-1303078D01*
X28969416Y-1499245D01*
X28969417Y-1499247D01*
X28969418Y-1499250D01*
X29000000Y-1560667D01*
X29060328Y-1681823D01*
X29075045Y-1701311D01*
X29183236Y-1844579D01*
X29333958Y-1981980D01*
X29333963Y-1981984D01*
X29507356Y-2089344D01*
X29507367Y-2089350D01*
X29623332Y-2134274D01*
X29697544Y-2163024D01*
X29898024Y-2200500D01*
X29898027Y-2200500D01*
X30101973Y-2200500D01*
X30101976Y-2200500D01*
X30302456Y-2163024D01*
X30492637Y-2089348D01*
X30666041Y-1981981D01*
X30816764Y-1844579D01*
X30881096Y-1759388D01*
X30941921Y-1711967D01*
X31018310Y-1701311D01*
X31089792Y-1730277D01*
X31118902Y-1759387D01*
X31183236Y-1844579D01*
X31333958Y-1981980D01*
X31333963Y-1981984D01*
X31507356Y-2089344D01*
X31507367Y-2089350D01*
X31623332Y-2134274D01*
X31697544Y-2163024D01*
X31898024Y-2200500D01*
X31898027Y-2200500D01*
X32101973Y-2200500D01*
X32101976Y-2200500D01*
X32302456Y-2163024D01*
X32492637Y-2089348D01*
X32666041Y-1981981D01*
X32816764Y-1844579D01*
X32881096Y-1759388D01*
X32941921Y-1711967D01*
X33018310Y-1701311D01*
X33089792Y-1730277D01*
X33118902Y-1759387D01*
X33183236Y-1844579D01*
X33333958Y-1981980D01*
X33333963Y-1981984D01*
X33507356Y-2089344D01*
X33507367Y-2089350D01*
X33623332Y-2134274D01*
X33697544Y-2163024D01*
X33898024Y-2200500D01*
X33898027Y-2200500D01*
X34101973Y-2200500D01*
X34101976Y-2200500D01*
X34302456Y-2163024D01*
X34492637Y-2089348D01*
X34666041Y-1981981D01*
X34816764Y-1844579D01*
X34939673Y-1681821D01*
X35030582Y-1499250D01*
X35086397Y-1303083D01*
X35096851Y-1190259D01*
X35105215Y-1100004D01*
X35105215Y-1099995D01*
X35094760Y-987176D01*
X35086397Y-896917D01*
X35030582Y-700750D01*
X34988339Y-615914D01*
X34973002Y-540327D01*
X34997513Y-467197D01*
X35055305Y-416120D01*
X35121719Y-400500D01*
X36878281Y-400500D01*
X36952781Y-420462D01*
X37007319Y-475000D01*
X37027281Y-549500D01*
X37011661Y-615914D01*
X36969417Y-700751D01*
X36969416Y-700753D01*
X36913602Y-896921D01*
X36894785Y-1099995D01*
X36894785Y-1100004D01*
X36913602Y-1303078D01*
X36969416Y-1499245D01*
X36969417Y-1499247D01*
X36969418Y-1499250D01*
X37000000Y-1560667D01*
X37060328Y-1681823D01*
X37075045Y-1701311D01*
X37183236Y-1844579D01*
X37333958Y-1981980D01*
X37333963Y-1981984D01*
X37507356Y-2089344D01*
X37507367Y-2089350D01*
X37623332Y-2134274D01*
X37697544Y-2163024D01*
X37898024Y-2200500D01*
X37898027Y-2200500D01*
X38101973Y-2200500D01*
X38101976Y-2200500D01*
X38302456Y-2163024D01*
X38492637Y-2089348D01*
X38666041Y-1981981D01*
X38816764Y-1844579D01*
X38881096Y-1759388D01*
X38941921Y-1711967D01*
X39018310Y-1701311D01*
X39089792Y-1730277D01*
X39118902Y-1759387D01*
X39183236Y-1844579D01*
X39333958Y-1981980D01*
X39333963Y-1981984D01*
X39507356Y-2089344D01*
X39507367Y-2089350D01*
X39623332Y-2134274D01*
X39697544Y-2163024D01*
X39898024Y-2200500D01*
X39898027Y-2200500D01*
X40101973Y-2200500D01*
X40101976Y-2200500D01*
X40302456Y-2163024D01*
X40492637Y-2089348D01*
X40666041Y-1981981D01*
X40816764Y-1844579D01*
X40939673Y-1681821D01*
X41030582Y-1499250D01*
X41086397Y-1303083D01*
X41096851Y-1190259D01*
X41105215Y-1100004D01*
X41105215Y-1099995D01*
X41094760Y-987176D01*
X41086397Y-896917D01*
X41030582Y-700750D01*
X40988339Y-615914D01*
X40973002Y-540327D01*
X40997513Y-467197D01*
X41055305Y-416120D01*
X41121719Y-400500D01*
X46878281Y-400500D01*
X46952781Y-420462D01*
X47007319Y-475000D01*
X47027281Y-549500D01*
X47011661Y-615914D01*
X46969417Y-700751D01*
X46969416Y-700753D01*
X46913602Y-896921D01*
X46894785Y-1099995D01*
X46894785Y-1100004D01*
X46913602Y-1303078D01*
X46969416Y-1499245D01*
X46969417Y-1499247D01*
X46969418Y-1499250D01*
X47000000Y-1560667D01*
X47060328Y-1681823D01*
X47075045Y-1701311D01*
X47183236Y-1844579D01*
X47333958Y-1981980D01*
X47333963Y-1981984D01*
X47507356Y-2089344D01*
X47507367Y-2089350D01*
X47623332Y-2134274D01*
X47697544Y-2163024D01*
X47898024Y-2200500D01*
X47898027Y-2200500D01*
X48101973Y-2200500D01*
X48101976Y-2200500D01*
X48302456Y-2163024D01*
X48492637Y-2089348D01*
X48666041Y-1981981D01*
X48816764Y-1844579D01*
X48881096Y-1759388D01*
X48941921Y-1711967D01*
X49018310Y-1701311D01*
X49089792Y-1730277D01*
X49118902Y-1759387D01*
X49183236Y-1844579D01*
X49333958Y-1981980D01*
X49333963Y-1981984D01*
X49507356Y-2089344D01*
X49507367Y-2089350D01*
X49623332Y-2134274D01*
X49697544Y-2163024D01*
X49898024Y-2200500D01*
X49898027Y-2200500D01*
X50101973Y-2200500D01*
X50101976Y-2200500D01*
X50302456Y-2163024D01*
X50492637Y-2089348D01*
X50666041Y-1981981D01*
X50816764Y-1844579D01*
X50881096Y-1759388D01*
X50941921Y-1711967D01*
X51018310Y-1701311D01*
X51089792Y-1730277D01*
X51118902Y-1759387D01*
X51183236Y-1844579D01*
X51333958Y-1981980D01*
X51333963Y-1981984D01*
X51507356Y-2089344D01*
X51507367Y-2089350D01*
X51623332Y-2134274D01*
X51697544Y-2163024D01*
X51898024Y-2200500D01*
X51898027Y-2200500D01*
X52101973Y-2200500D01*
X52101976Y-2200500D01*
X52302456Y-2163024D01*
X52492637Y-2089348D01*
X52666041Y-1981981D01*
X52816764Y-1844579D01*
X52939673Y-1681821D01*
X53030582Y-1499250D01*
X53086397Y-1303083D01*
X53096851Y-1190259D01*
X53105215Y-1100004D01*
X53105215Y-1099995D01*
X53094760Y-987176D01*
X53086397Y-896917D01*
X53030582Y-700750D01*
X52988339Y-615914D01*
X52973002Y-540327D01*
X52997513Y-467197D01*
X53055305Y-416120D01*
X53121719Y-400500D01*
X54878281Y-400500D01*
X54952781Y-420462D01*
X55007319Y-475000D01*
X55027281Y-549500D01*
X55011661Y-615914D01*
X54969417Y-700751D01*
X54969416Y-700753D01*
X54913602Y-896921D01*
X54894785Y-1099995D01*
X54894785Y-1100004D01*
X54913602Y-1303078D01*
X54969416Y-1499245D01*
X54969417Y-1499247D01*
X54969418Y-1499250D01*
X55000000Y-1560667D01*
X55060328Y-1681823D01*
X55075045Y-1701311D01*
X55183236Y-1844579D01*
X55333958Y-1981980D01*
X55333963Y-1981984D01*
X55507356Y-2089344D01*
X55507367Y-2089350D01*
X55623332Y-2134274D01*
X55697544Y-2163024D01*
X55898024Y-2200500D01*
X55898027Y-2200500D01*
X56101973Y-2200500D01*
X56101976Y-2200500D01*
X56302456Y-2163024D01*
X56492637Y-2089348D01*
X56666041Y-1981981D01*
X56816764Y-1844579D01*
X56881096Y-1759388D01*
X56941921Y-1711967D01*
X57018310Y-1701311D01*
X57089792Y-1730277D01*
X57118902Y-1759387D01*
X57183236Y-1844579D01*
X57333958Y-1981980D01*
X57333963Y-1981984D01*
X57507356Y-2089344D01*
X57507367Y-2089350D01*
X57623332Y-2134274D01*
X57697544Y-2163024D01*
X57898024Y-2200500D01*
X57898027Y-2200500D01*
X58101973Y-2200500D01*
X58101976Y-2200500D01*
X58302456Y-2163024D01*
X58492637Y-2089348D01*
X58666041Y-1981981D01*
X58816764Y-1844579D01*
X58939673Y-1681821D01*
X59030582Y-1499250D01*
X59086397Y-1303083D01*
X59096851Y-1190259D01*
X59105215Y-1100004D01*
X59105215Y-1099995D01*
X59094760Y-987176D01*
X59086397Y-896917D01*
X59030582Y-700750D01*
X58988339Y-615914D01*
X58973002Y-540327D01*
X58997513Y-467197D01*
X59055305Y-416120D01*
X59121719Y-400500D01*
X60549302Y-400500D01*
X60623802Y-420462D01*
X60678340Y-475000D01*
X60691009Y-503456D01*
X60702105Y-537608D01*
X60802185Y-734023D01*
X60802186Y-734024D01*
X60866971Y-823193D01*
X60931758Y-912365D01*
X61087635Y-1068242D01*
X61166175Y-1125304D01*
X61265975Y-1197813D01*
X61265976Y-1197814D01*
X61265978Y-1197815D01*
X61462394Y-1297895D01*
X61549512Y-1326201D01*
X61672043Y-1366014D01*
X61672048Y-1366014D01*
X61672049Y-1366015D01*
X61889778Y-1400500D01*
X61889782Y-1400500D01*
X63310860Y-1400500D01*
X63385360Y-1420462D01*
X63439898Y-1475000D01*
X63459860Y-1549500D01*
X63439898Y-1624000D01*
X63387677Y-1677172D01*
X63173467Y-1806057D01*
X62892904Y-2019336D01*
X62882625Y-2029072D01*
X64055819Y-3202266D01*
X63865130Y-3365130D01*
X63702266Y-3555819D01*
X62531914Y-2385467D01*
X62531913Y-2385467D01*
X62408897Y-2530294D01*
X62211120Y-2821994D01*
X62046052Y-3133347D01*
X62046048Y-3133354D01*
X61915604Y-3460745D01*
X61821321Y-3800321D01*
X61764307Y-4148096D01*
X61764306Y-4148106D01*
X61745227Y-4499991D01*
X61745227Y-4500008D01*
X61764306Y-4851893D01*
X61764307Y-4851903D01*
X61821321Y-5199678D01*
X61915604Y-5539254D01*
X62046048Y-5866645D01*
X62046052Y-5866652D01*
X62211120Y-6178005D01*
X62408893Y-6469699D01*
X62531914Y-6614531D01*
X63702265Y-5444179D01*
X63865130Y-5634870D01*
X64055819Y-5797733D01*
X62882625Y-6970927D01*
X62892894Y-6980654D01*
X62892905Y-6980664D01*
X63173467Y-7193942D01*
X63475431Y-7375628D01*
X63795286Y-7523608D01*
X63795296Y-7523613D01*
X64129253Y-7636135D01*
X64129267Y-7636139D01*
X64473428Y-7711894D01*
X64823789Y-7749999D01*
X64823799Y-7750000D01*
X65176201Y-7750000D01*
X65176210Y-7749999D01*
X65526571Y-7711894D01*
X65870732Y-7636139D01*
X65870746Y-7636135D01*
X66204703Y-7523613D01*
X66204713Y-7523608D01*
X66524568Y-7375628D01*
X66826532Y-7193942D01*
X67107090Y-6980667D01*
X67107091Y-6980666D01*
X67117373Y-6970926D01*
X65944180Y-5797733D01*
X66134870Y-5634870D01*
X66297733Y-5444180D01*
X67468084Y-6614531D01*
X67468085Y-6614531D01*
X67591097Y-6469710D01*
X67591106Y-6469698D01*
X67788874Y-6178014D01*
X67788877Y-6178009D01*
X67953947Y-5866652D01*
X67953951Y-5866645D01*
X68084395Y-5539254D01*
X68178678Y-5199678D01*
X68235692Y-4851903D01*
X68235693Y-4851893D01*
X68254773Y-4500008D01*
X68254773Y-4499991D01*
X68235693Y-4148106D01*
X68235692Y-4148096D01*
X68178678Y-3800321D01*
X68084395Y-3460745D01*
X67953951Y-3133354D01*
X67953947Y-3133347D01*
X67788879Y-2821994D01*
X67591106Y-2530300D01*
X67468084Y-2385467D01*
X66297732Y-3555818D01*
X66134870Y-3365130D01*
X65944179Y-3202265D01*
X67117374Y-2029071D01*
X67107105Y-2019345D01*
X67107094Y-2019335D01*
X66826532Y-1806057D01*
X66612323Y-1677172D01*
X66558778Y-1621658D01*
X66540164Y-1546810D01*
X66561468Y-1472683D01*
X66616982Y-1419138D01*
X66689140Y-1400500D01*
X68851000Y-1400500D01*
X68925500Y-1420462D01*
X68980038Y-1475000D01*
X69000000Y-1549500D01*
X69000000Y-32950500D01*
X68980038Y-33025000D01*
X68925500Y-33079538D01*
X68851000Y-33099500D01*
X62057583Y-33099500D01*
X62000000Y-33099500D01*
X61854796Y-33099500D01*
X61624164Y-33127503D01*
X61566506Y-33134504D01*
X61566497Y-33134506D01*
X61284541Y-33204001D01*
X61284532Y-33204004D01*
X61013017Y-33306976D01*
X61013005Y-33306982D01*
X60755866Y-33441938D01*
X60516854Y-33606916D01*
X60299491Y-33799482D01*
X60299482Y-33799491D01*
X60106916Y-34016854D01*
X59941938Y-34255866D01*
X59806982Y-34513005D01*
X59806976Y-34513017D01*
X59704004Y-34784532D01*
X59704001Y-34784541D01*
X59654308Y-34986158D01*
X59617097Y-35053716D01*
X59551093Y-35093617D01*
X59509638Y-35099500D01*
X10490362Y-35099500D01*
X10415862Y-35079538D01*
X10361324Y-35025000D01*
X10345692Y-34986158D01*
X10295998Y-34784541D01*
X10295995Y-34784532D01*
X10193023Y-34513017D01*
X10193020Y-34513011D01*
X10193017Y-34513003D01*
X10058058Y-34255860D01*
X9893088Y-34016860D01*
X9804426Y-33916781D01*
X9700517Y-33799491D01*
X9700508Y-33799482D01*
X9483145Y-33606916D01*
X9483142Y-33606914D01*
X9483140Y-33606912D01*
X9244140Y-33441942D01*
X9244134Y-33441939D01*
X9244133Y-33441938D01*
X9116013Y-33374696D01*
X8986997Y-33306983D01*
X8986992Y-33306981D01*
X8986982Y-33306976D01*
X8715467Y-33204004D01*
X8715458Y-33204001D01*
X8433502Y-33134506D01*
X8433493Y-33134504D01*
X8145204Y-33099500D01*
X8031519Y-33099500D01*
X1149000Y-33099500D01*
X1074500Y-33079538D01*
X1019962Y-33025000D01*
X1000000Y-32950500D01*
X1000000Y-31969605D01*
X27395687Y-31969605D01*
X27426111Y-32246111D01*
X27426114Y-32246125D01*
X27488342Y-32484151D01*
X27496480Y-32515276D01*
X27605284Y-32771314D01*
X27605286Y-32771318D01*
X27605289Y-32771323D01*
X27750207Y-33008781D01*
X27750210Y-33008785D01*
X27928155Y-33222609D01*
X27928167Y-33222621D01*
X28097894Y-33374696D01*
X28135357Y-33408263D01*
X28367373Y-33561763D01*
X28619267Y-33679846D01*
X28885669Y-33759995D01*
X29160901Y-33800500D01*
X29160908Y-33800500D01*
X29369454Y-33800500D01*
X29369463Y-33800500D01*
X29577455Y-33785277D01*
X29848997Y-33724788D01*
X29849003Y-33724785D01*
X29849009Y-33724784D01*
X30108835Y-33625409D01*
X30108833Y-33625409D01*
X30108838Y-33625408D01*
X30351440Y-33489253D01*
X30571632Y-33319226D01*
X30764722Y-33118951D01*
X30926593Y-32892696D01*
X31053797Y-32645283D01*
X31143621Y-32381986D01*
X31194152Y-32108416D01*
X31204313Y-31830404D01*
X31204312Y-31830394D01*
X31189965Y-31700000D01*
X38944540Y-31700000D01*
X38964325Y-31888254D01*
X38964326Y-31888256D01*
X39022821Y-32068284D01*
X39022822Y-32068285D01*
X39117469Y-32232220D01*
X39244127Y-32372886D01*
X39244129Y-32372888D01*
X39397270Y-32484151D01*
X39570197Y-32561144D01*
X39711315Y-32591139D01*
X39755352Y-32600500D01*
X39755354Y-32600500D01*
X39944648Y-32600500D01*
X39984004Y-32592134D01*
X40129803Y-32561144D01*
X40302730Y-32484151D01*
X40387421Y-32422619D01*
X40459425Y-32394979D01*
X40535603Y-32407044D01*
X40562580Y-32422620D01*
X40647269Y-32484151D01*
X40716660Y-32515046D01*
X40820197Y-32561144D01*
X40961315Y-32591139D01*
X41005352Y-32600500D01*
X41005354Y-32600500D01*
X41194648Y-32600500D01*
X41234004Y-32592134D01*
X41379803Y-32561144D01*
X41552730Y-32484151D01*
X41705871Y-32372888D01*
X41778195Y-32292563D01*
X41832530Y-32232220D01*
X41832531Y-32232218D01*
X41832533Y-32232216D01*
X41927179Y-32068284D01*
X41985674Y-31888256D01*
X42005460Y-31700000D01*
X41985674Y-31511744D01*
X41927179Y-31331716D01*
X41832533Y-31167784D01*
X41832532Y-31167783D01*
X41832530Y-31167779D01*
X41705872Y-31027113D01*
X41675463Y-31005020D01*
X41552730Y-30915849D01*
X41552729Y-30915848D01*
X41552727Y-30915847D01*
X41379805Y-30838857D01*
X41379803Y-30838856D01*
X41273360Y-30816231D01*
X41194648Y-30799500D01*
X41194646Y-30799500D01*
X41005354Y-30799500D01*
X41005352Y-30799500D01*
X40905392Y-30820747D01*
X40820197Y-30838856D01*
X40820195Y-30838856D01*
X40820194Y-30838857D01*
X40647272Y-30915847D01*
X40562580Y-30977380D01*
X40490574Y-31005020D01*
X40414396Y-30992954D01*
X40387420Y-30977380D01*
X40302727Y-30915847D01*
X40129805Y-30838857D01*
X40129803Y-30838856D01*
X40023360Y-30816231D01*
X39944648Y-30799500D01*
X39944646Y-30799500D01*
X39755354Y-30799500D01*
X39755352Y-30799500D01*
X39655392Y-30820747D01*
X39570197Y-30838856D01*
X39570195Y-30838856D01*
X39570194Y-30838857D01*
X39397272Y-30915847D01*
X39244127Y-31027113D01*
X39117469Y-31167779D01*
X39022822Y-31331714D01*
X39022819Y-31331721D01*
X38964325Y-31511745D01*
X38944540Y-31700000D01*
X31189965Y-31700000D01*
X31173888Y-31553888D01*
X31173886Y-31553881D01*
X31173886Y-31553876D01*
X31103520Y-31284724D01*
X30994716Y-31028686D01*
X30993756Y-31027113D01*
X30849792Y-30791218D01*
X30849789Y-30791214D01*
X30671844Y-30577390D01*
X30671832Y-30577378D01*
X30464650Y-30391743D01*
X30464647Y-30391741D01*
X30464643Y-30391737D01*
X30232627Y-30238237D01*
X30108134Y-30179877D01*
X29980732Y-30120153D01*
X29856914Y-30082902D01*
X29714331Y-30040005D01*
X29714325Y-30040004D01*
X29439108Y-29999501D01*
X29439104Y-29999500D01*
X29439099Y-29999500D01*
X29230537Y-29999500D01*
X29022545Y-30014723D01*
X29022537Y-30014724D01*
X28751005Y-30075211D01*
X28750990Y-30075215D01*
X28491164Y-30174590D01*
X28491158Y-30174593D01*
X28248561Y-30310745D01*
X28028369Y-30480772D01*
X28028364Y-30480777D01*
X27835277Y-30681049D01*
X27673407Y-30907302D01*
X27546205Y-31154712D01*
X27456379Y-31418012D01*
X27456377Y-31418021D01*
X27405848Y-31691577D01*
X27395687Y-31969605D01*
X1000000Y-31969605D01*
X1000000Y-28800000D01*
X20694532Y-28800000D01*
X20714365Y-29026692D01*
X20773261Y-29246496D01*
X20869432Y-29452734D01*
X20869435Y-29452738D01*
X20869437Y-29452741D01*
X20999951Y-29639137D01*
X20999953Y-29639139D01*
X21160861Y-29800047D01*
X21347266Y-29930568D01*
X21553504Y-30026739D01*
X21553507Y-30026739D01*
X21556840Y-30028294D01*
X21615923Y-30077872D01*
X21642302Y-30150348D01*
X21628909Y-30226305D01*
X21599229Y-30268692D01*
X21545185Y-30322736D01*
X21545184Y-30322738D01*
X21449211Y-30475477D01*
X21389631Y-30645747D01*
X21369435Y-30824998D01*
X21369435Y-30825001D01*
X21389631Y-31004252D01*
X21389631Y-31004254D01*
X21389632Y-31004255D01*
X21449211Y-31174522D01*
X21545184Y-31327262D01*
X21672738Y-31454816D01*
X21825478Y-31550789D01*
X21995745Y-31610368D01*
X22085372Y-31620466D01*
X22174999Y-31630565D01*
X22175000Y-31630565D01*
X22175001Y-31630565D01*
X22219813Y-31625515D01*
X22354255Y-31610368D01*
X22524522Y-31550789D01*
X22677262Y-31454816D01*
X22804816Y-31327262D01*
X22900789Y-31174522D01*
X22960368Y-31004255D01*
X22980565Y-30825000D01*
X22960368Y-30645745D01*
X22900789Y-30475478D01*
X22808607Y-30328772D01*
X22785874Y-30255072D01*
X22803037Y-30179877D01*
X22855497Y-30123338D01*
X22929198Y-30100604D01*
X22934770Y-30100500D01*
X23256775Y-30100500D01*
X23256784Y-30100500D01*
X23426692Y-30085635D01*
X23646496Y-30026739D01*
X23852734Y-29930568D01*
X24039139Y-29800047D01*
X24200047Y-29639139D01*
X24330568Y-29452734D01*
X24426739Y-29246496D01*
X24485635Y-29026692D01*
X24505468Y-28800000D01*
X45494532Y-28800000D01*
X45514365Y-29026692D01*
X45573261Y-29246496D01*
X45669432Y-29452734D01*
X45669435Y-29452738D01*
X45669437Y-29452741D01*
X45799951Y-29639137D01*
X45799953Y-29639139D01*
X45960861Y-29800047D01*
X46147266Y-29930568D01*
X46353504Y-30026739D01*
X46573308Y-30085635D01*
X46743216Y-30100500D01*
X46743225Y-30100500D01*
X48056775Y-30100500D01*
X48056784Y-30100500D01*
X48226692Y-30085635D01*
X48446496Y-30026739D01*
X48652734Y-29930568D01*
X48839139Y-29800047D01*
X49000047Y-29639139D01*
X49130568Y-29452734D01*
X49226739Y-29246496D01*
X49285635Y-29026692D01*
X49305468Y-28800000D01*
X49285635Y-28573308D01*
X49226739Y-28353504D01*
X49130568Y-28147266D01*
X49000047Y-27960861D01*
X48839139Y-27799953D01*
X48839137Y-27799951D01*
X48652741Y-27669437D01*
X48652738Y-27669435D01*
X48652734Y-27669432D01*
X48446496Y-27573261D01*
X48226692Y-27514365D01*
X48226693Y-27514365D01*
X48056784Y-27499500D01*
X46743216Y-27499500D01*
X46743215Y-27499500D01*
X46573306Y-27514365D01*
X46353507Y-27573260D01*
X46353506Y-27573260D01*
X46353504Y-27573261D01*
X46147266Y-27669432D01*
X46147263Y-27669434D01*
X46147261Y-27669435D01*
X46147258Y-27669437D01*
X45960862Y-27799951D01*
X45799951Y-27960862D01*
X45669437Y-28147258D01*
X45669435Y-28147261D01*
X45669434Y-28147263D01*
X45669432Y-28147266D01*
X45573261Y-28353504D01*
X45573260Y-28353507D01*
X45514365Y-28573306D01*
X45514365Y-28573308D01*
X45494532Y-28800000D01*
X24505468Y-28800000D01*
X24485635Y-28573308D01*
X24426739Y-28353504D01*
X24330568Y-28147266D01*
X24200047Y-27960861D01*
X24039139Y-27799953D01*
X24039137Y-27799951D01*
X23852741Y-27669437D01*
X23852738Y-27669435D01*
X23852734Y-27669432D01*
X23646496Y-27573261D01*
X23426692Y-27514365D01*
X23426693Y-27514365D01*
X23256784Y-27499500D01*
X21943216Y-27499500D01*
X21943215Y-27499500D01*
X21773306Y-27514365D01*
X21553507Y-27573260D01*
X21553506Y-27573260D01*
X21553504Y-27573261D01*
X21347266Y-27669432D01*
X21347263Y-27669434D01*
X21347261Y-27669435D01*
X21347258Y-27669437D01*
X21160862Y-27799951D01*
X20999951Y-27960862D01*
X20869437Y-28147258D01*
X20869435Y-28147261D01*
X20869434Y-28147263D01*
X20869432Y-28147266D01*
X20773261Y-28353504D01*
X20773260Y-28353507D01*
X20714365Y-28573306D01*
X20714365Y-28573308D01*
X20694532Y-28800000D01*
X1000000Y-28800000D01*
X1000000Y-26050000D01*
X5720581Y-26050000D01*
X6666314Y-26050000D01*
X6640507Y-26090156D01*
X6600000Y-26228111D01*
X6600000Y-26371889D01*
X6640507Y-26509844D01*
X6666314Y-26550000D01*
X5721734Y-26550000D01*
X5756527Y-26711437D01*
X5845382Y-26932560D01*
X5970336Y-27135498D01*
X6127781Y-27314390D01*
X6127788Y-27314397D01*
X6313199Y-27464106D01*
X6521250Y-27580331D01*
X6521252Y-27580332D01*
X6745956Y-27659724D01*
X6980843Y-27699999D01*
X6980847Y-27700000D01*
X7450000Y-27700000D01*
X7450000Y-26800000D01*
X7950000Y-26800000D01*
X7950000Y-27700000D01*
X8359470Y-27700000D01*
X8537450Y-27684851D01*
X8537467Y-27684848D01*
X8768079Y-27624801D01*
X8768088Y-27624798D01*
X8985236Y-27526641D01*
X9182689Y-27393185D01*
X9279916Y-27300001D01*
X42644435Y-27300001D01*
X42664631Y-27479252D01*
X42664631Y-27479254D01*
X42664632Y-27479255D01*
X42724211Y-27649522D01*
X42820184Y-27802262D01*
X42947738Y-27929816D01*
X43100478Y-28025789D01*
X43270745Y-28085368D01*
X43360372Y-28095466D01*
X43449999Y-28105565D01*
X43450000Y-28105565D01*
X43450001Y-28105565D01*
X43494813Y-28100515D01*
X43629255Y-28085368D01*
X43799522Y-28025789D01*
X43952262Y-27929816D01*
X44079816Y-27802262D01*
X44175789Y-27649522D01*
X44235368Y-27479255D01*
X44255565Y-27300000D01*
X44235368Y-27120745D01*
X44175789Y-26950478D01*
X44079816Y-26797738D01*
X43952262Y-26670184D01*
X43799522Y-26574211D01*
X43629255Y-26514632D01*
X43629254Y-26514631D01*
X43629253Y-26514631D01*
X43450001Y-26494435D01*
X43449999Y-26494435D01*
X43270747Y-26514631D01*
X43100477Y-26574211D01*
X42947738Y-26670184D01*
X42820184Y-26797738D01*
X42724211Y-26950477D01*
X42664631Y-27120747D01*
X42644435Y-27299998D01*
X42644435Y-27300001D01*
X9279916Y-27300001D01*
X9354742Y-27228286D01*
X9496450Y-27036684D01*
X9603741Y-26823885D01*
X9673526Y-26596014D01*
X9679419Y-26550000D01*
X8733686Y-26550000D01*
X8759493Y-26509844D01*
X8800000Y-26371889D01*
X8800000Y-26228111D01*
X8759493Y-26090156D01*
X8733686Y-26050000D01*
X9678265Y-26050000D01*
X9643472Y-25888562D01*
X9554617Y-25667439D01*
X9513094Y-25600001D01*
X18694435Y-25600001D01*
X18714631Y-25779252D01*
X18714631Y-25779254D01*
X18714632Y-25779255D01*
X18774211Y-25949522D01*
X18870184Y-26102262D01*
X18997738Y-26229816D01*
X19150478Y-26325789D01*
X19320745Y-26385368D01*
X19410372Y-26395466D01*
X19499999Y-26405565D01*
X19500000Y-26405565D01*
X19500001Y-26405565D01*
X19549391Y-26400000D01*
X33644751Y-26400000D01*
X33663686Y-26568056D01*
X33663686Y-26568058D01*
X33663687Y-26568059D01*
X33719544Y-26727690D01*
X33809523Y-26870890D01*
X33929110Y-26990477D01*
X34072310Y-27080456D01*
X34231941Y-27136313D01*
X34343980Y-27148937D01*
X34399999Y-27155249D01*
X34400000Y-27155249D01*
X34400001Y-27155249D01*
X34442014Y-27150515D01*
X34568059Y-27136313D01*
X34727690Y-27080456D01*
X34870890Y-26990477D01*
X34990477Y-26870890D01*
X35080456Y-26727690D01*
X35136313Y-26568059D01*
X35148164Y-26462878D01*
X53152000Y-26462878D01*
X53172196Y-26642129D01*
X53172196Y-26642131D01*
X53172197Y-26642132D01*
X53231776Y-26812399D01*
X53327749Y-26965139D01*
X53455303Y-27092693D01*
X53608043Y-27188666D01*
X53778310Y-27248245D01*
X53867937Y-27258343D01*
X53957564Y-27268442D01*
X53957565Y-27268442D01*
X53957566Y-27268442D01*
X54002378Y-27263392D01*
X54136820Y-27248245D01*
X54307087Y-27188666D01*
X54459827Y-27092693D01*
X54587381Y-26965139D01*
X54683354Y-26812399D01*
X54742933Y-26642132D01*
X54763130Y-26462877D01*
X54742933Y-26283622D01*
X54683354Y-26113355D01*
X54643545Y-26050000D01*
X60320581Y-26050000D01*
X61266314Y-26050000D01*
X61240507Y-26090156D01*
X61200000Y-26228111D01*
X61200000Y-26371889D01*
X61240507Y-26509844D01*
X61266314Y-26550000D01*
X60321734Y-26550000D01*
X60356527Y-26711437D01*
X60445382Y-26932560D01*
X60570336Y-27135498D01*
X60727781Y-27314390D01*
X60727788Y-27314397D01*
X60913199Y-27464106D01*
X61121250Y-27580331D01*
X61121252Y-27580332D01*
X61345956Y-27659724D01*
X61580843Y-27699999D01*
X61580847Y-27700000D01*
X62050000Y-27700000D01*
X62050000Y-26800000D01*
X62550000Y-26800000D01*
X62550000Y-27700000D01*
X62959470Y-27700000D01*
X63137450Y-27684851D01*
X63137467Y-27684848D01*
X63368079Y-27624801D01*
X63368088Y-27624798D01*
X63585236Y-27526641D01*
X63782689Y-27393185D01*
X63954742Y-27228286D01*
X64096450Y-27036684D01*
X64203741Y-26823885D01*
X64273526Y-26596014D01*
X64279419Y-26550000D01*
X63333686Y-26550000D01*
X63359493Y-26509844D01*
X63400000Y-26371889D01*
X63400000Y-26228111D01*
X63359493Y-26090156D01*
X63333686Y-26050000D01*
X64278265Y-26050000D01*
X64243472Y-25888562D01*
X64154617Y-25667439D01*
X64029663Y-25464501D01*
X63872218Y-25285609D01*
X63872211Y-25285602D01*
X63686800Y-25135893D01*
X63478749Y-25019668D01*
X63478747Y-25019667D01*
X63254043Y-24940275D01*
X63019156Y-24900000D01*
X62550000Y-24900000D01*
X62550000Y-25800000D01*
X62050000Y-25800000D01*
X62050000Y-24900000D01*
X61640530Y-24900000D01*
X61462549Y-24915148D01*
X61462532Y-24915151D01*
X61231920Y-24975198D01*
X61231911Y-24975201D01*
X61014763Y-25073358D01*
X60817310Y-25206814D01*
X60645257Y-25371713D01*
X60503549Y-25563315D01*
X60396258Y-25776114D01*
X60326473Y-26003985D01*
X60320581Y-26050000D01*
X54643545Y-26050000D01*
X54587381Y-25960615D01*
X54459827Y-25833061D01*
X54307087Y-25737088D01*
X54136820Y-25677509D01*
X54136819Y-25677508D01*
X54136818Y-25677508D01*
X53957566Y-25657312D01*
X53957564Y-25657312D01*
X53778312Y-25677508D01*
X53608042Y-25737088D01*
X53455303Y-25833061D01*
X53327749Y-25960615D01*
X53231776Y-26113354D01*
X53172196Y-26283624D01*
X53152000Y-26462875D01*
X53152000Y-26462878D01*
X35148164Y-26462878D01*
X35155249Y-26400000D01*
X35136313Y-26231941D01*
X35080456Y-26072310D01*
X34990477Y-25929110D01*
X34870890Y-25809523D01*
X34727690Y-25719544D01*
X34568059Y-25663687D01*
X34568058Y-25663686D01*
X34568056Y-25663686D01*
X34400001Y-25644751D01*
X34399999Y-25644751D01*
X34231943Y-25663686D01*
X34072309Y-25719544D01*
X33929110Y-25809523D01*
X33809523Y-25929110D01*
X33719544Y-26072309D01*
X33663686Y-26231943D01*
X33644751Y-26399999D01*
X33644751Y-26400000D01*
X19549391Y-26400000D01*
X19549400Y-26399999D01*
X19679255Y-26385368D01*
X19849522Y-26325789D01*
X20002262Y-26229816D01*
X20129816Y-26102262D01*
X20225789Y-25949522D01*
X20285368Y-25779255D01*
X20305565Y-25600000D01*
X20285368Y-25420745D01*
X20225789Y-25250478D01*
X20129816Y-25097738D01*
X20002262Y-24970184D01*
X19849522Y-24874211D01*
X19679255Y-24814632D01*
X19679254Y-24814631D01*
X19679253Y-24814631D01*
X19500001Y-24794435D01*
X19499999Y-24794435D01*
X19320747Y-24814631D01*
X19150477Y-24874211D01*
X18997738Y-24970184D01*
X18870184Y-25097738D01*
X18774211Y-25250477D01*
X18714631Y-25420747D01*
X18694435Y-25599998D01*
X18694435Y-25600001D01*
X9513094Y-25600001D01*
X9429663Y-25464501D01*
X9272218Y-25285609D01*
X9272211Y-25285602D01*
X9086800Y-25135893D01*
X8878749Y-25019668D01*
X8878747Y-25019667D01*
X8654043Y-24940275D01*
X8419156Y-24900000D01*
X7950000Y-24900000D01*
X7950000Y-25800000D01*
X7450000Y-25800000D01*
X7450000Y-24900000D01*
X7040530Y-24900000D01*
X6862549Y-24915148D01*
X6862532Y-24915151D01*
X6631920Y-24975198D01*
X6631911Y-24975201D01*
X6414763Y-25073358D01*
X6217310Y-25206814D01*
X6045257Y-25371713D01*
X5903549Y-25563315D01*
X5796258Y-25776114D01*
X5726473Y-26003985D01*
X5720581Y-26050000D01*
X1000000Y-26050000D01*
X1000000Y-23800000D01*
X20694532Y-23800000D01*
X20714365Y-24026693D01*
X20729662Y-24083781D01*
X20773261Y-24246496D01*
X20869432Y-24452734D01*
X20869435Y-24452738D01*
X20869437Y-24452741D01*
X20999951Y-24639137D01*
X21160862Y-24800048D01*
X21240899Y-24856090D01*
X21347266Y-24930568D01*
X21553504Y-25026739D01*
X21773308Y-25085635D01*
X21943216Y-25100500D01*
X21943225Y-25100500D01*
X23256775Y-25100500D01*
X23256784Y-25100500D01*
X23426692Y-25085635D01*
X23646496Y-25026739D01*
X23852734Y-24930568D01*
X24039139Y-24800047D01*
X24200047Y-24639139D01*
X24237224Y-24586044D01*
X27708392Y-24586044D01*
X27728588Y-24765295D01*
X27728588Y-24765297D01*
X27728589Y-24765298D01*
X27788168Y-24935565D01*
X27884141Y-25088305D01*
X28011695Y-25215859D01*
X28164435Y-25311832D01*
X28334702Y-25371411D01*
X28424329Y-25381509D01*
X28513956Y-25391608D01*
X28513957Y-25391608D01*
X28513958Y-25391608D01*
X28558770Y-25386558D01*
X28693212Y-25371411D01*
X28863479Y-25311832D01*
X29016219Y-25215859D01*
X29143773Y-25088305D01*
X29239746Y-24935565D01*
X29299325Y-24765298D01*
X29319522Y-24586043D01*
X29299325Y-24406788D01*
X29239746Y-24236521D01*
X29143773Y-24083781D01*
X29016219Y-23956227D01*
X28863479Y-23860254D01*
X28693212Y-23800675D01*
X28693211Y-23800674D01*
X28693210Y-23800674D01*
X28513958Y-23780478D01*
X28513956Y-23780478D01*
X28334704Y-23800674D01*
X28164434Y-23860254D01*
X28011695Y-23956227D01*
X27884141Y-24083781D01*
X27788168Y-24236520D01*
X27728588Y-24406790D01*
X27708392Y-24586041D01*
X27708392Y-24586044D01*
X24237224Y-24586044D01*
X24330568Y-24452734D01*
X24426739Y-24246496D01*
X24485635Y-24026692D01*
X24505468Y-23800000D01*
X24485635Y-23573308D01*
X24426739Y-23353504D01*
X24330568Y-23147266D01*
X24256090Y-23040899D01*
X24224633Y-22995973D01*
X26461785Y-22995973D01*
X26481981Y-23175224D01*
X26481981Y-23175226D01*
X26481982Y-23175227D01*
X26541561Y-23345494D01*
X26637534Y-23498234D01*
X26765088Y-23625788D01*
X26917828Y-23721761D01*
X27088095Y-23781340D01*
X27177722Y-23791438D01*
X27267349Y-23801537D01*
X27267350Y-23801537D01*
X27267351Y-23801537D01*
X27312163Y-23796487D01*
X27446605Y-23781340D01*
X27616872Y-23721761D01*
X27769612Y-23625788D01*
X27845400Y-23550000D01*
X45420581Y-23550000D01*
X46366314Y-23550000D01*
X46340507Y-23590156D01*
X46300000Y-23728111D01*
X46300000Y-23871889D01*
X46340507Y-24009844D01*
X46366314Y-24050000D01*
X45421734Y-24050000D01*
X45456527Y-24211437D01*
X45545382Y-24432560D01*
X45670336Y-24635498D01*
X45827781Y-24814390D01*
X45827788Y-24814397D01*
X46013199Y-24964106D01*
X46221250Y-25080331D01*
X46221252Y-25080332D01*
X46445956Y-25159724D01*
X46680843Y-25199999D01*
X46680847Y-25200000D01*
X47150000Y-25200000D01*
X47150000Y-24300000D01*
X47650000Y-24300000D01*
X47650000Y-25200000D01*
X48059469Y-25200000D01*
X48229141Y-25185558D01*
X48305066Y-25199130D01*
X48364033Y-25248846D01*
X48389841Y-25317338D01*
X48407240Y-25471760D01*
X48407240Y-25471762D01*
X48407241Y-25471763D01*
X48466820Y-25642030D01*
X48562793Y-25794770D01*
X48690347Y-25922324D01*
X48843087Y-26018297D01*
X49013354Y-26077876D01*
X49102981Y-26087974D01*
X49192608Y-26098073D01*
X49192609Y-26098073D01*
X49192610Y-26098073D01*
X49237422Y-26093023D01*
X49371864Y-26077876D01*
X49542131Y-26018297D01*
X49694871Y-25922324D01*
X49822425Y-25794770D01*
X49918398Y-25642030D01*
X49977977Y-25471763D01*
X49998174Y-25292508D01*
X49993438Y-25250478D01*
X49977977Y-25113255D01*
X49977977Y-25113253D01*
X49918398Y-24942986D01*
X49822425Y-24790246D01*
X49694871Y-24662692D01*
X49572887Y-24586044D01*
X49542129Y-24566717D01*
X49394764Y-24515152D01*
X49331038Y-24471705D01*
X49297574Y-24402214D01*
X49302965Y-24330268D01*
X49301888Y-24329938D01*
X49373526Y-24096014D01*
X49379419Y-24050000D01*
X48433686Y-24050000D01*
X48459493Y-24009844D01*
X48500000Y-23871889D01*
X48500000Y-23728111D01*
X48459493Y-23590156D01*
X48433686Y-23550000D01*
X49378265Y-23550000D01*
X49343472Y-23388562D01*
X49254617Y-23167439D01*
X49129663Y-22964501D01*
X48972218Y-22785609D01*
X48972211Y-22785602D01*
X48941414Y-22760735D01*
X53571882Y-22760735D01*
X53592078Y-22939986D01*
X53592078Y-22939988D01*
X53592079Y-22939989D01*
X53651658Y-23110256D01*
X53747631Y-23262996D01*
X53875185Y-23390550D01*
X54027925Y-23486523D01*
X54198192Y-23546102D01*
X54287819Y-23556200D01*
X54377446Y-23566299D01*
X54377447Y-23566299D01*
X54377448Y-23566299D01*
X54422260Y-23561249D01*
X54556702Y-23546102D01*
X54726969Y-23486523D01*
X54879709Y-23390550D01*
X55007263Y-23262996D01*
X55103236Y-23110256D01*
X55162815Y-22939989D01*
X55183012Y-22760734D01*
X55162815Y-22581479D01*
X55103236Y-22411212D01*
X55007263Y-22258472D01*
X54879709Y-22130918D01*
X54726969Y-22034945D01*
X54556702Y-21975366D01*
X54556701Y-21975365D01*
X54556700Y-21975365D01*
X54377448Y-21955169D01*
X54377446Y-21955169D01*
X54198194Y-21975365D01*
X54027924Y-22034945D01*
X53875185Y-22130918D01*
X53747631Y-22258472D01*
X53651658Y-22411211D01*
X53592078Y-22581481D01*
X53571882Y-22760732D01*
X53571882Y-22760735D01*
X48941414Y-22760735D01*
X48786800Y-22635893D01*
X48578749Y-22519668D01*
X48578747Y-22519667D01*
X48354043Y-22440275D01*
X48119156Y-22400000D01*
X47650000Y-22400000D01*
X47650000Y-23300000D01*
X47150000Y-23300000D01*
X47150000Y-22400000D01*
X46740530Y-22400000D01*
X46562549Y-22415148D01*
X46562532Y-22415151D01*
X46331920Y-22475198D01*
X46331911Y-22475201D01*
X46114763Y-22573358D01*
X45917310Y-22706814D01*
X45745257Y-22871713D01*
X45603549Y-23063315D01*
X45496258Y-23276114D01*
X45426473Y-23503985D01*
X45420581Y-23550000D01*
X27845400Y-23550000D01*
X27897166Y-23498234D01*
X27993139Y-23345494D01*
X28052718Y-23175227D01*
X28072915Y-22995972D01*
X28052718Y-22816717D01*
X27993139Y-22646450D01*
X27897166Y-22493710D01*
X27769612Y-22366156D01*
X27616872Y-22270183D01*
X27446605Y-22210604D01*
X27446604Y-22210603D01*
X27446603Y-22210603D01*
X27267351Y-22190407D01*
X27267349Y-22190407D01*
X27088097Y-22210603D01*
X26917827Y-22270183D01*
X26765088Y-22366156D01*
X26637534Y-22493710D01*
X26541561Y-22646449D01*
X26481981Y-22816719D01*
X26461785Y-22995970D01*
X26461785Y-22995973D01*
X24224633Y-22995973D01*
X24200048Y-22960862D01*
X24039137Y-22799951D01*
X23852741Y-22669437D01*
X23852738Y-22669435D01*
X23852734Y-22669432D01*
X23646496Y-22573261D01*
X23426692Y-22514365D01*
X23426693Y-22514365D01*
X23256784Y-22499500D01*
X21943216Y-22499500D01*
X21943215Y-22499500D01*
X21773306Y-22514365D01*
X21553507Y-22573260D01*
X21553506Y-22573260D01*
X21553504Y-22573261D01*
X21347266Y-22669432D01*
X21347263Y-22669434D01*
X21347261Y-22669435D01*
X21347258Y-22669437D01*
X21160862Y-22799951D01*
X20999951Y-22960862D01*
X20869437Y-23147258D01*
X20869435Y-23147261D01*
X20869434Y-23147263D01*
X20869432Y-23147266D01*
X20773261Y-23353504D01*
X20773260Y-23353507D01*
X20714365Y-23573306D01*
X20694532Y-23800000D01*
X1000000Y-23800000D01*
X1000000Y-21000001D01*
X5194435Y-21000001D01*
X5214631Y-21179252D01*
X5214631Y-21179254D01*
X5214632Y-21179255D01*
X5274211Y-21349522D01*
X5370184Y-21502262D01*
X5497738Y-21629816D01*
X5650478Y-21725789D01*
X5820745Y-21785368D01*
X5910372Y-21795466D01*
X5999999Y-21805565D01*
X6000000Y-21805565D01*
X6000001Y-21805565D01*
X6044813Y-21800515D01*
X6179255Y-21785368D01*
X6349522Y-21725789D01*
X6502262Y-21629816D01*
X6629816Y-21502262D01*
X6725789Y-21349522D01*
X6743117Y-21300000D01*
X19844751Y-21300000D01*
X19863686Y-21468056D01*
X19863686Y-21468058D01*
X19863687Y-21468059D01*
X19919544Y-21627690D01*
X20009523Y-21770890D01*
X20129110Y-21890477D01*
X20272310Y-21980456D01*
X20431941Y-22036313D01*
X20543980Y-22048937D01*
X20599999Y-22055249D01*
X20600000Y-22055249D01*
X20600001Y-22055249D01*
X20642014Y-22050515D01*
X20768059Y-22036313D01*
X20927690Y-21980456D01*
X21070890Y-21890477D01*
X21190477Y-21770890D01*
X21280456Y-21627690D01*
X21325136Y-21500000D01*
X58744751Y-21500000D01*
X58763686Y-21668056D01*
X58763686Y-21668058D01*
X58763687Y-21668059D01*
X58819544Y-21827690D01*
X58909523Y-21970890D01*
X59029110Y-22090477D01*
X59172310Y-22180456D01*
X59331941Y-22236313D01*
X59443980Y-22248937D01*
X59499999Y-22255249D01*
X59500000Y-22255249D01*
X59500001Y-22255249D01*
X59542014Y-22250515D01*
X59668059Y-22236313D01*
X59827690Y-22180456D01*
X59970890Y-22090477D01*
X60090477Y-21970890D01*
X60180456Y-21827690D01*
X60236313Y-21668059D01*
X60255249Y-21500000D01*
X60243982Y-21400000D01*
X61744751Y-21400000D01*
X61763686Y-21568056D01*
X61763686Y-21568058D01*
X61763687Y-21568059D01*
X61819544Y-21727690D01*
X61909523Y-21870890D01*
X62029110Y-21990477D01*
X62172310Y-22080456D01*
X62331941Y-22136313D01*
X62443980Y-22148937D01*
X62499999Y-22155249D01*
X62500000Y-22155249D01*
X62500001Y-22155249D01*
X62542014Y-22150515D01*
X62668059Y-22136313D01*
X62827690Y-22080456D01*
X62970890Y-21990477D01*
X63090477Y-21870890D01*
X63180456Y-21727690D01*
X63236313Y-21568059D01*
X63255249Y-21400000D01*
X63236313Y-21231941D01*
X63180456Y-21072310D01*
X63090477Y-20929110D01*
X62970890Y-20809523D01*
X62827690Y-20719544D01*
X62668059Y-20663687D01*
X62668058Y-20663686D01*
X62668056Y-20663686D01*
X62500001Y-20644751D01*
X62499999Y-20644751D01*
X62331943Y-20663686D01*
X62172309Y-20719544D01*
X62029110Y-20809523D01*
X61909523Y-20929110D01*
X61819544Y-21072309D01*
X61763686Y-21231943D01*
X61744751Y-21399999D01*
X61744751Y-21400000D01*
X60243982Y-21400000D01*
X60236313Y-21331941D01*
X60180456Y-21172310D01*
X60090477Y-21029110D01*
X59970890Y-20909523D01*
X59827690Y-20819544D01*
X59668059Y-20763687D01*
X59668058Y-20763686D01*
X59668056Y-20763686D01*
X59500001Y-20744751D01*
X59499999Y-20744751D01*
X59331943Y-20763686D01*
X59172309Y-20819544D01*
X59029110Y-20909523D01*
X58909523Y-21029110D01*
X58819544Y-21172309D01*
X58763686Y-21331943D01*
X58744751Y-21499999D01*
X58744751Y-21500000D01*
X21325136Y-21500000D01*
X21336313Y-21468059D01*
X21355249Y-21300000D01*
X21336313Y-21131941D01*
X21280456Y-20972310D01*
X21190477Y-20829110D01*
X21070890Y-20709523D01*
X20927690Y-20619544D01*
X20768059Y-20563687D01*
X20768058Y-20563686D01*
X20768056Y-20563686D01*
X20600001Y-20544751D01*
X20599999Y-20544751D01*
X20431943Y-20563686D01*
X20272309Y-20619544D01*
X20129110Y-20709523D01*
X20009523Y-20829110D01*
X19919544Y-20972309D01*
X19863686Y-21131943D01*
X19844751Y-21299999D01*
X19844751Y-21300000D01*
X6743117Y-21300000D01*
X6785368Y-21179255D01*
X6805565Y-21000000D01*
X6785368Y-20820745D01*
X6725789Y-20650478D01*
X6629816Y-20497738D01*
X6502262Y-20370184D01*
X6349522Y-20274211D01*
X6179255Y-20214632D01*
X6179254Y-20214631D01*
X6179253Y-20214631D01*
X6000001Y-20194435D01*
X5999999Y-20194435D01*
X5820747Y-20214631D01*
X5650477Y-20274211D01*
X5497738Y-20370184D01*
X5370184Y-20497738D01*
X5274211Y-20650477D01*
X5214631Y-20820747D01*
X5194435Y-20999998D01*
X5194435Y-21000001D01*
X1000000Y-21000001D01*
X1000000Y-19850001D01*
X25243938Y-19850001D01*
X25264134Y-20029252D01*
X25264134Y-20029254D01*
X25264135Y-20029255D01*
X25323714Y-20199522D01*
X25419687Y-20352262D01*
X25547241Y-20479816D01*
X25699981Y-20575789D01*
X25870248Y-20635368D01*
X25953525Y-20644751D01*
X26049502Y-20655565D01*
X26049503Y-20655565D01*
X26049504Y-20655565D01*
X26094661Y-20650477D01*
X26228758Y-20635368D01*
X26399025Y-20575789D01*
X26551765Y-20479816D01*
X26596366Y-20435215D01*
X29859695Y-20435215D01*
X29878630Y-20603271D01*
X29878630Y-20603273D01*
X29878631Y-20603274D01*
X29934488Y-20762905D01*
X30024467Y-20906105D01*
X30144054Y-21025692D01*
X30287254Y-21115671D01*
X30446885Y-21171528D01*
X30558924Y-21184152D01*
X30614943Y-21190464D01*
X30614944Y-21190464D01*
X30614945Y-21190464D01*
X30656958Y-21185730D01*
X30783003Y-21171528D01*
X30942634Y-21115671D01*
X31085834Y-21025692D01*
X31205421Y-20906105D01*
X31295400Y-20762905D01*
X31351257Y-20603274D01*
X31351626Y-20600001D01*
X52244435Y-20600001D01*
X52264631Y-20779252D01*
X52264631Y-20779254D01*
X52264632Y-20779255D01*
X52324211Y-20949522D01*
X52420184Y-21102262D01*
X52547738Y-21229816D01*
X52700478Y-21325789D01*
X52870745Y-21385368D01*
X52960372Y-21395466D01*
X53049999Y-21405565D01*
X53050000Y-21405565D01*
X53050001Y-21405565D01*
X53099400Y-21399999D01*
X53229255Y-21385368D01*
X53399522Y-21325789D01*
X53552262Y-21229816D01*
X53679816Y-21102262D01*
X53775789Y-20949522D01*
X53835368Y-20779255D01*
X53855196Y-20603274D01*
X53855565Y-20600001D01*
X53855565Y-20599998D01*
X53842024Y-20479816D01*
X53835368Y-20420745D01*
X53775789Y-20250478D01*
X53679816Y-20097738D01*
X53552262Y-19970184D01*
X53399522Y-19874211D01*
X53229255Y-19814632D01*
X53229254Y-19814631D01*
X53229253Y-19814631D01*
X53050001Y-19794435D01*
X53049999Y-19794435D01*
X52870747Y-19814631D01*
X52700477Y-19874211D01*
X52547738Y-19970184D01*
X52420184Y-20097738D01*
X52324211Y-20250477D01*
X52264631Y-20420747D01*
X52244435Y-20599998D01*
X52244435Y-20600001D01*
X31351626Y-20600001D01*
X31370193Y-20435215D01*
X31351257Y-20267156D01*
X31295400Y-20107525D01*
X31205421Y-19964325D01*
X31085834Y-19844738D01*
X30942634Y-19754759D01*
X30783003Y-19698902D01*
X30783002Y-19698901D01*
X30783000Y-19698901D01*
X30614945Y-19679966D01*
X30614943Y-19679966D01*
X30446887Y-19698901D01*
X30287253Y-19754759D01*
X30144054Y-19844738D01*
X30024467Y-19964325D01*
X29934488Y-20107524D01*
X29878630Y-20267158D01*
X29859695Y-20435214D01*
X29859695Y-20435215D01*
X26596366Y-20435215D01*
X26679319Y-20352262D01*
X26775292Y-20199522D01*
X26834871Y-20029255D01*
X26855068Y-19850000D01*
X26834871Y-19670745D01*
X26775292Y-19500478D01*
X26679319Y-19347738D01*
X26551765Y-19220184D01*
X26399025Y-19124211D01*
X26228758Y-19064632D01*
X26228757Y-19064631D01*
X26228756Y-19064631D01*
X26049504Y-19044435D01*
X26049502Y-19044435D01*
X25870250Y-19064631D01*
X25699980Y-19124211D01*
X25547241Y-19220184D01*
X25419687Y-19347738D01*
X25323714Y-19500477D01*
X25264134Y-19670747D01*
X25243938Y-19849998D01*
X25243938Y-19850001D01*
X1000000Y-19850001D01*
X1000000Y-18400000D01*
X42644751Y-18400000D01*
X42663686Y-18568056D01*
X42663686Y-18568058D01*
X42663687Y-18568059D01*
X42719544Y-18727690D01*
X42809523Y-18870890D01*
X42929110Y-18990477D01*
X43072310Y-19080456D01*
X43231941Y-19136313D01*
X43343980Y-19148937D01*
X43399999Y-19155249D01*
X43400000Y-19155249D01*
X43400001Y-19155249D01*
X43442014Y-19150515D01*
X43568059Y-19136313D01*
X43727690Y-19080456D01*
X43870890Y-18990477D01*
X43990477Y-18870890D01*
X44080456Y-18727690D01*
X44136313Y-18568059D01*
X44155249Y-18400000D01*
X44136313Y-18231941D01*
X44080456Y-18072310D01*
X43990477Y-17929110D01*
X43870890Y-17809523D01*
X43855734Y-17800000D01*
X55444751Y-17800000D01*
X55463686Y-17968056D01*
X55463686Y-17968058D01*
X55463687Y-17968059D01*
X55519544Y-18127690D01*
X55609523Y-18270890D01*
X55729110Y-18390477D01*
X55872310Y-18480456D01*
X56031941Y-18536313D01*
X56143980Y-18548937D01*
X56199999Y-18555249D01*
X56200000Y-18555249D01*
X56200001Y-18555249D01*
X56242014Y-18550515D01*
X56368059Y-18536313D01*
X56527690Y-18480456D01*
X56670890Y-18390477D01*
X56790477Y-18270890D01*
X56880456Y-18127690D01*
X56936313Y-17968059D01*
X56955249Y-17800000D01*
X56936313Y-17631941D01*
X56880456Y-17472310D01*
X56790477Y-17329110D01*
X56670890Y-17209523D01*
X56527690Y-17119544D01*
X56368059Y-17063687D01*
X56368058Y-17063686D01*
X56368056Y-17063686D01*
X56200001Y-17044751D01*
X56199999Y-17044751D01*
X56031943Y-17063686D01*
X55872309Y-17119544D01*
X55729110Y-17209523D01*
X55609523Y-17329110D01*
X55519544Y-17472309D01*
X55463686Y-17631943D01*
X55444751Y-17799999D01*
X55444751Y-17800000D01*
X43855734Y-17800000D01*
X43727690Y-17719544D01*
X43568059Y-17663687D01*
X43568058Y-17663686D01*
X43568056Y-17663686D01*
X43400001Y-17644751D01*
X43399999Y-17644751D01*
X43231943Y-17663686D01*
X43072309Y-17719544D01*
X42929110Y-17809523D01*
X42809523Y-17929110D01*
X42719544Y-18072309D01*
X42663686Y-18231943D01*
X42644751Y-18399999D01*
X42644751Y-18400000D01*
X1000000Y-18400000D01*
X1000000Y-14723462D01*
X5549500Y-14723462D01*
X5564552Y-14943511D01*
X5624408Y-15231554D01*
X5707138Y-15464336D01*
X5722930Y-15508769D01*
X5858279Y-15769978D01*
X6027938Y-16010330D01*
X6092413Y-16079365D01*
X6228740Y-16225335D01*
X6228745Y-16225339D01*
X6228748Y-16225342D01*
X6456947Y-16410996D01*
X6456960Y-16411005D01*
X6657025Y-16532667D01*
X6708318Y-16563859D01*
X6978159Y-16681067D01*
X7261445Y-16760440D01*
X7552902Y-16800500D01*
X7552903Y-16800500D01*
X7847097Y-16800500D01*
X7847098Y-16800500D01*
X8138555Y-16760440D01*
X8421841Y-16681067D01*
X8691682Y-16563859D01*
X8943049Y-16410999D01*
X9171260Y-16225335D01*
X9372065Y-16010326D01*
X9541722Y-15769976D01*
X9677072Y-15508764D01*
X9775592Y-15231554D01*
X9835448Y-14943511D01*
X9850500Y-14723462D01*
X9850500Y-14673581D01*
X14299500Y-14673581D01*
X14314252Y-14893953D01*
X14372933Y-15182653D01*
X14372937Y-15182665D01*
X14469576Y-15460975D01*
X14469576Y-15460976D01*
X14602439Y-15723903D01*
X14602449Y-15723921D01*
X14687728Y-15848152D01*
X14769184Y-15966812D01*
X14965580Y-16183958D01*
X14966808Y-16185315D01*
X15191777Y-16375514D01*
X15191781Y-16375517D01*
X15191787Y-16375522D01*
X15191791Y-16375524D01*
X15191793Y-16375526D01*
X15440104Y-16534042D01*
X15440109Y-16534044D01*
X15440113Y-16534047D01*
X15707353Y-16658060D01*
X15918391Y-16723524D01*
X15988737Y-16745346D01*
X15988740Y-16745346D01*
X16078221Y-16760440D01*
X16279238Y-16794348D01*
X16279240Y-16794348D01*
X16279246Y-16794349D01*
X16573694Y-16804193D01*
X16866827Y-16774704D01*
X17153414Y-16706407D01*
X17428340Y-16600521D01*
X17686700Y-16458936D01*
X17923884Y-16284178D01*
X18135658Y-16079365D01*
X18318244Y-15848154D01*
X18468383Y-15594669D01*
X18583397Y-15323434D01*
X18654456Y-15064023D01*
X18693391Y-14997446D01*
X18760400Y-14959255D01*
X18837527Y-14959684D01*
X18847340Y-14962740D01*
X18937224Y-14994192D01*
X19049263Y-15006816D01*
X19105282Y-15013128D01*
X19105283Y-15013128D01*
X19105284Y-15013128D01*
X19147297Y-15008394D01*
X19273342Y-14994192D01*
X19432973Y-14938335D01*
X19576173Y-14848356D01*
X19695760Y-14728769D01*
X19699095Y-14723462D01*
X28449500Y-14723462D01*
X28464552Y-14943511D01*
X28524408Y-15231554D01*
X28607138Y-15464336D01*
X28622930Y-15508769D01*
X28758279Y-15769978D01*
X28927938Y-16010330D01*
X28992413Y-16079365D01*
X29128740Y-16225335D01*
X29128745Y-16225339D01*
X29128748Y-16225342D01*
X29356947Y-16410996D01*
X29356960Y-16411005D01*
X29557025Y-16532667D01*
X29608318Y-16563859D01*
X29878159Y-16681067D01*
X30161445Y-16760440D01*
X30452902Y-16800500D01*
X30452903Y-16800500D01*
X30747097Y-16800500D01*
X30747098Y-16800500D01*
X31038555Y-16760440D01*
X31321841Y-16681067D01*
X31591682Y-16563859D01*
X31843049Y-16410999D01*
X32071260Y-16225335D01*
X32272065Y-16010326D01*
X32441722Y-15769976D01*
X32577072Y-15508764D01*
X32675592Y-15231554D01*
X32735448Y-14943511D01*
X32750500Y-14723462D01*
X32750500Y-14673581D01*
X37199500Y-14673581D01*
X37214252Y-14893953D01*
X37272933Y-15182653D01*
X37272937Y-15182665D01*
X37369576Y-15460975D01*
X37369576Y-15460976D01*
X37502439Y-15723903D01*
X37502449Y-15723921D01*
X37587728Y-15848152D01*
X37669184Y-15966812D01*
X37865580Y-16183958D01*
X37866808Y-16185315D01*
X38091777Y-16375514D01*
X38091781Y-16375517D01*
X38091787Y-16375522D01*
X38091791Y-16375524D01*
X38091793Y-16375526D01*
X38340104Y-16534042D01*
X38340109Y-16534044D01*
X38340113Y-16534047D01*
X38607353Y-16658060D01*
X38818391Y-16723524D01*
X38888737Y-16745346D01*
X38888740Y-16745346D01*
X38978221Y-16760440D01*
X39179238Y-16794348D01*
X39179240Y-16794348D01*
X39179246Y-16794349D01*
X39473694Y-16804193D01*
X39766827Y-16774704D01*
X40053414Y-16706407D01*
X40328340Y-16600521D01*
X40586700Y-16458936D01*
X40823884Y-16284178D01*
X41035658Y-16079365D01*
X41218244Y-15848154D01*
X41368383Y-15594669D01*
X41483397Y-15323434D01*
X41561232Y-15039290D01*
X41600500Y-14747306D01*
X41600500Y-14723462D01*
X51349500Y-14723462D01*
X51364552Y-14943511D01*
X51424408Y-15231554D01*
X51507138Y-15464336D01*
X51522930Y-15508769D01*
X51658279Y-15769978D01*
X51827938Y-16010330D01*
X51892413Y-16079365D01*
X52028740Y-16225335D01*
X52028745Y-16225339D01*
X52028748Y-16225342D01*
X52256947Y-16410996D01*
X52256960Y-16411005D01*
X52457025Y-16532667D01*
X52508318Y-16563859D01*
X52778159Y-16681067D01*
X53061445Y-16760440D01*
X53352902Y-16800500D01*
X53352903Y-16800500D01*
X53647097Y-16800500D01*
X53647098Y-16800500D01*
X53938555Y-16760440D01*
X54221841Y-16681067D01*
X54491682Y-16563859D01*
X54743049Y-16410999D01*
X54971260Y-16225335D01*
X55172065Y-16010326D01*
X55341722Y-15769976D01*
X55477072Y-15508764D01*
X55575592Y-15231554D01*
X55635448Y-14943511D01*
X55650500Y-14723462D01*
X55650500Y-14673581D01*
X60099500Y-14673581D01*
X60114252Y-14893953D01*
X60172933Y-15182653D01*
X60172937Y-15182665D01*
X60269576Y-15460975D01*
X60269576Y-15460976D01*
X60402439Y-15723903D01*
X60402449Y-15723921D01*
X60487728Y-15848152D01*
X60569184Y-15966812D01*
X60765580Y-16183958D01*
X60766808Y-16185315D01*
X60991777Y-16375514D01*
X60991781Y-16375517D01*
X60991787Y-16375522D01*
X60991791Y-16375524D01*
X60991793Y-16375526D01*
X61240104Y-16534042D01*
X61240109Y-16534044D01*
X61240113Y-16534047D01*
X61507353Y-16658060D01*
X61718391Y-16723524D01*
X61788737Y-16745346D01*
X61788740Y-16745346D01*
X61878221Y-16760440D01*
X62079238Y-16794348D01*
X62079240Y-16794348D01*
X62079246Y-16794349D01*
X62373694Y-16804193D01*
X62666827Y-16774704D01*
X62953414Y-16706407D01*
X63228340Y-16600521D01*
X63486700Y-16458936D01*
X63723884Y-16284178D01*
X63935658Y-16079365D01*
X64118244Y-15848154D01*
X64268383Y-15594669D01*
X64357110Y-15385423D01*
X64404572Y-15324630D01*
X64476074Y-15295710D01*
X64552455Y-15306416D01*
X64612220Y-15352528D01*
X64781146Y-15571295D01*
X64781151Y-15571300D01*
X64981370Y-15764336D01*
X65207564Y-15926164D01*
X65454912Y-16053334D01*
X65454916Y-16053336D01*
X65718137Y-16143135D01*
X65950000Y-16185960D01*
X65950000Y-14845881D01*
X66043369Y-14884556D01*
X66200000Y-14905177D01*
X66356631Y-14884556D01*
X66450000Y-14845881D01*
X66450000Y-16183958D01*
X66546018Y-16173394D01*
X66546033Y-16173391D01*
X66815108Y-16103046D01*
X66815111Y-16103045D01*
X67071079Y-15994271D01*
X67071093Y-15994264D01*
X67308487Y-15849385D01*
X67522265Y-15671476D01*
X67707865Y-15464336D01*
X67707867Y-15464334D01*
X67861325Y-15232381D01*
X67861327Y-15232376D01*
X67979378Y-14980549D01*
X67979380Y-14980543D01*
X68059504Y-14714225D01*
X68059504Y-14714221D01*
X68099998Y-14439069D01*
X68100000Y-14439055D01*
X68100000Y-13550000D01*
X66800000Y-13550000D01*
X66800000Y-13050000D01*
X68100000Y-13050000D01*
X68100000Y-12230574D01*
X68084779Y-12022618D01*
X68084778Y-12022610D01*
X68024308Y-11751150D01*
X68024305Y-11751140D01*
X67924954Y-11491379D01*
X67924950Y-11491370D01*
X67788835Y-11248838D01*
X67618853Y-11028704D01*
X67618848Y-11028699D01*
X67418629Y-10835663D01*
X67192435Y-10673835D01*
X66945087Y-10546665D01*
X66945083Y-10546663D01*
X66681877Y-10456869D01*
X66681862Y-10456865D01*
X66450000Y-10414038D01*
X66450000Y-11754118D01*
X66356631Y-11715444D01*
X66200000Y-11694823D01*
X66043369Y-11715444D01*
X65950000Y-11754118D01*
X65950000Y-10416040D01*
X65949999Y-10416040D01*
X65853978Y-10426606D01*
X65853965Y-10426608D01*
X65584891Y-10496953D01*
X65584888Y-10496954D01*
X65328920Y-10605728D01*
X65328906Y-10605735D01*
X65091512Y-10750614D01*
X64877734Y-10928523D01*
X64692134Y-11135663D01*
X64692132Y-11135665D01*
X64538674Y-11367618D01*
X64538672Y-11367623D01*
X64420621Y-11619450D01*
X64420619Y-11619456D01*
X64340495Y-11885774D01*
X64340495Y-11885778D01*
X64300001Y-12160930D01*
X64300000Y-12160944D01*
X64300000Y-12744989D01*
X64280038Y-12819489D01*
X64225500Y-12874027D01*
X64151000Y-12893989D01*
X64076500Y-12874027D01*
X64035322Y-12835982D01*
X64033907Y-12837101D01*
X64030821Y-12833193D01*
X63833191Y-12614684D01*
X63608222Y-12424485D01*
X63608206Y-12424473D01*
X63359895Y-12265957D01*
X63359883Y-12265951D01*
X63321455Y-12248118D01*
X63092647Y-12141940D01*
X63038034Y-12124999D01*
X62811262Y-12054653D01*
X62811254Y-12054652D01*
X62520761Y-12005651D01*
X62226307Y-11995807D01*
X62226306Y-11995807D01*
X61933172Y-12025296D01*
X61933166Y-12025297D01*
X61646592Y-12093591D01*
X61646584Y-12093593D01*
X61371658Y-12199479D01*
X61113295Y-12341066D01*
X61113294Y-12341067D01*
X60876119Y-12515819D01*
X60876103Y-12515833D01*
X60664343Y-12720632D01*
X60664343Y-12720633D01*
X60481755Y-12951847D01*
X60331619Y-13205326D01*
X60216604Y-13476561D01*
X60216602Y-13476568D01*
X60138768Y-13760709D01*
X60138767Y-13760712D01*
X60099500Y-14052693D01*
X60099500Y-14673581D01*
X55650500Y-14673581D01*
X55650500Y-14076538D01*
X55635448Y-13856489D01*
X55575592Y-13568446D01*
X55477072Y-13291236D01*
X55341722Y-13030024D01*
X55172065Y-12789674D01*
X55172063Y-12789671D01*
X55172061Y-12789669D01*
X55100066Y-12712582D01*
X54971260Y-12574665D01*
X54971254Y-12574660D01*
X54971251Y-12574657D01*
X54743052Y-12389003D01*
X54743039Y-12388994D01*
X54491689Y-12236145D01*
X54491686Y-12236143D01*
X54491682Y-12236141D01*
X54221841Y-12118933D01*
X53938555Y-12039560D01*
X53938552Y-12039559D01*
X53822060Y-12023548D01*
X53750972Y-11993627D01*
X53718968Y-11951422D01*
X53710777Y-11963437D01*
X53641288Y-11996902D01*
X53613586Y-11999500D01*
X53352902Y-11999500D01*
X53297656Y-12007093D01*
X53061448Y-12039559D01*
X53057929Y-12040545D01*
X52778159Y-12118933D01*
X52688212Y-12158002D01*
X52508322Y-12236139D01*
X52508310Y-12236145D01*
X52256960Y-12388994D01*
X52256947Y-12389003D01*
X52028748Y-12574657D01*
X52028743Y-12574662D01*
X51827938Y-12789669D01*
X51658279Y-13030021D01*
X51522930Y-13291230D01*
X51424408Y-13568445D01*
X51422135Y-13579384D01*
X51364552Y-13856489D01*
X51349500Y-14076538D01*
X51349500Y-14723462D01*
X41600500Y-14723462D01*
X41600500Y-14126429D01*
X41600500Y-14126418D01*
X41585747Y-13906046D01*
X41527066Y-13617346D01*
X41527065Y-13617344D01*
X41527064Y-13617337D01*
X41430424Y-13339026D01*
X41430423Y-13339024D01*
X41430423Y-13339023D01*
X41297560Y-13076096D01*
X41297550Y-13076078D01*
X41238788Y-12990477D01*
X41130816Y-12833188D01*
X40933195Y-12614688D01*
X40933190Y-12614684D01*
X40884874Y-12573835D01*
X40840870Y-12510492D01*
X40834434Y-12433633D01*
X40850269Y-12400000D01*
X46944751Y-12400000D01*
X46963686Y-12568056D01*
X46963686Y-12568058D01*
X46963687Y-12568059D01*
X47019544Y-12727690D01*
X47109523Y-12870890D01*
X47229110Y-12990477D01*
X47372310Y-13080456D01*
X47531941Y-13136313D01*
X47643980Y-13148937D01*
X47699999Y-13155249D01*
X47700000Y-13155249D01*
X47700001Y-13155249D01*
X47742014Y-13150515D01*
X47868059Y-13136313D01*
X48027690Y-13080456D01*
X48170890Y-12990477D01*
X48290477Y-12870890D01*
X48380456Y-12727690D01*
X48436313Y-12568059D01*
X48455249Y-12400000D01*
X48436313Y-12231941D01*
X48380456Y-12072310D01*
X48290477Y-11929110D01*
X48170890Y-11809523D01*
X48027690Y-11719544D01*
X47868059Y-11663687D01*
X47868058Y-11663686D01*
X47868056Y-11663686D01*
X47700001Y-11644751D01*
X47699999Y-11644751D01*
X47531943Y-11663686D01*
X47372309Y-11719544D01*
X47229110Y-11809523D01*
X47109523Y-11929110D01*
X47019544Y-12072309D01*
X46963686Y-12231943D01*
X46944751Y-12399999D01*
X46944751Y-12400000D01*
X40850269Y-12400000D01*
X40867289Y-12363852D01*
X40901798Y-12333890D01*
X40970890Y-12290477D01*
X41090477Y-12170890D01*
X41180456Y-12027690D01*
X41236313Y-11868059D01*
X41255249Y-11700000D01*
X41236313Y-11531941D01*
X41180456Y-11372310D01*
X41090477Y-11229110D01*
X40970890Y-11109523D01*
X40827690Y-11019544D01*
X40668059Y-10963687D01*
X40668058Y-10963686D01*
X40668056Y-10963686D01*
X40500001Y-10944751D01*
X40499999Y-10944751D01*
X40331943Y-10963686D01*
X40172309Y-11019544D01*
X40029110Y-11109523D01*
X39909523Y-11229110D01*
X39819544Y-11372309D01*
X39763686Y-11531943D01*
X39744751Y-11699999D01*
X39744751Y-11700000D01*
X39760481Y-11839606D01*
X39748986Y-11915873D01*
X39700897Y-11976174D01*
X39629101Y-12004352D01*
X39607441Y-12005205D01*
X39359059Y-11996902D01*
X39326307Y-11995807D01*
X39326306Y-11995807D01*
X39033172Y-12025296D01*
X39033166Y-12025297D01*
X38746592Y-12093591D01*
X38746584Y-12093593D01*
X38471658Y-12199479D01*
X38213295Y-12341066D01*
X38213294Y-12341067D01*
X37976119Y-12515819D01*
X37976103Y-12515833D01*
X37764343Y-12720632D01*
X37764343Y-12720633D01*
X37581755Y-12951847D01*
X37431619Y-13205326D01*
X37316604Y-13476561D01*
X37316602Y-13476568D01*
X37238768Y-13760709D01*
X37238767Y-13760712D01*
X37199500Y-14052693D01*
X37199500Y-14673581D01*
X32750500Y-14673581D01*
X32750500Y-14076538D01*
X32735448Y-13856489D01*
X32675592Y-13568446D01*
X32577072Y-13291236D01*
X32441722Y-13030024D01*
X32272065Y-12789674D01*
X32272063Y-12789671D01*
X32272061Y-12789669D01*
X32200066Y-12712582D01*
X32071260Y-12574665D01*
X32071254Y-12574660D01*
X32071251Y-12574657D01*
X31843052Y-12389003D01*
X31843039Y-12388994D01*
X31591689Y-12236145D01*
X31591686Y-12236143D01*
X31591682Y-12236141D01*
X31321841Y-12118933D01*
X31038555Y-12039560D01*
X31038552Y-12039559D01*
X30802343Y-12007093D01*
X30747098Y-11999500D01*
X30452902Y-11999500D01*
X30397656Y-12007093D01*
X30161448Y-12039559D01*
X30157929Y-12040545D01*
X29878159Y-12118933D01*
X29788212Y-12158002D01*
X29608322Y-12236139D01*
X29608310Y-12236145D01*
X29356960Y-12388994D01*
X29356947Y-12389003D01*
X29128748Y-12574657D01*
X29128743Y-12574662D01*
X28927938Y-12789669D01*
X28758279Y-13030021D01*
X28622930Y-13291230D01*
X28524408Y-13568445D01*
X28522135Y-13579384D01*
X28464552Y-13856489D01*
X28449500Y-14076538D01*
X28449500Y-14723462D01*
X19699095Y-14723462D01*
X19785739Y-14585569D01*
X19841596Y-14425938D01*
X19860532Y-14257879D01*
X19841596Y-14089820D01*
X19785739Y-13930189D01*
X19695760Y-13786989D01*
X19576173Y-13667402D01*
X19432973Y-13577423D01*
X19273342Y-13521566D01*
X19273341Y-13521565D01*
X19273339Y-13521565D01*
X19105284Y-13502630D01*
X19105282Y-13502630D01*
X18937226Y-13521565D01*
X18937225Y-13521565D01*
X18771988Y-13579384D01*
X18695075Y-13585147D01*
X18625585Y-13551682D01*
X18582138Y-13487956D01*
X18582021Y-13487620D01*
X18579375Y-13480000D01*
X21474751Y-13480000D01*
X21493686Y-13648056D01*
X21493686Y-13648058D01*
X21493687Y-13648059D01*
X21549544Y-13807690D01*
X21639523Y-13950890D01*
X21759110Y-14070477D01*
X21902310Y-14160456D01*
X22061941Y-14216313D01*
X22173980Y-14228937D01*
X22229999Y-14235249D01*
X22230000Y-14235249D01*
X22230001Y-14235249D01*
X22272014Y-14230515D01*
X22398059Y-14216313D01*
X22557690Y-14160456D01*
X22700890Y-14070477D01*
X22820477Y-13950890D01*
X22910456Y-13807690D01*
X22966313Y-13648059D01*
X22985249Y-13480000D01*
X22966313Y-13311941D01*
X22910456Y-13152310D01*
X22820477Y-13009110D01*
X22700890Y-12889523D01*
X22557690Y-12799544D01*
X22398059Y-12743687D01*
X22398058Y-12743686D01*
X22398056Y-12743686D01*
X22230001Y-12724751D01*
X22229999Y-12724751D01*
X22061943Y-12743686D01*
X21902309Y-12799544D01*
X21759110Y-12889523D01*
X21639523Y-13009110D01*
X21549544Y-13152309D01*
X21493686Y-13311943D01*
X21474751Y-13479999D01*
X21474751Y-13480000D01*
X18579375Y-13480000D01*
X18578183Y-13476568D01*
X18530424Y-13339026D01*
X18530423Y-13339024D01*
X18530423Y-13339023D01*
X18397560Y-13076096D01*
X18397550Y-13076078D01*
X18338788Y-12990477D01*
X18230816Y-12833188D01*
X18033195Y-12614688D01*
X18033193Y-12614686D01*
X18033191Y-12614684D01*
X17808222Y-12424485D01*
X17808206Y-12424473D01*
X17559895Y-12265957D01*
X17559883Y-12265951D01*
X17521455Y-12248118D01*
X17292647Y-12141940D01*
X17238034Y-12124999D01*
X17011262Y-12054653D01*
X17011254Y-12054652D01*
X16720761Y-12005651D01*
X16426307Y-11995807D01*
X16426306Y-11995807D01*
X16133172Y-12025296D01*
X16133166Y-12025297D01*
X15846592Y-12093591D01*
X15846584Y-12093593D01*
X15571658Y-12199479D01*
X15313295Y-12341066D01*
X15313294Y-12341067D01*
X15076119Y-12515819D01*
X15076103Y-12515833D01*
X14864343Y-12720632D01*
X14864343Y-12720633D01*
X14681755Y-12951847D01*
X14531619Y-13205326D01*
X14416604Y-13476561D01*
X14416602Y-13476568D01*
X14338768Y-13760709D01*
X14338767Y-13760712D01*
X14299500Y-14052693D01*
X14299500Y-14673581D01*
X9850500Y-14673581D01*
X9850500Y-14076538D01*
X9835448Y-13856489D01*
X9775592Y-13568446D01*
X9677072Y-13291236D01*
X9541722Y-13030024D01*
X9372065Y-12789674D01*
X9372063Y-12789671D01*
X9372061Y-12789669D01*
X9300066Y-12712582D01*
X9171260Y-12574665D01*
X9171254Y-12574660D01*
X9171251Y-12574657D01*
X8943052Y-12389003D01*
X8943039Y-12388994D01*
X8691689Y-12236145D01*
X8691686Y-12236143D01*
X8691682Y-12236141D01*
X8421841Y-12118933D01*
X8138555Y-12039560D01*
X8138552Y-12039559D01*
X7902343Y-12007093D01*
X7847098Y-11999500D01*
X7552902Y-11999500D01*
X7497656Y-12007093D01*
X7261448Y-12039559D01*
X7257929Y-12040545D01*
X6978159Y-12118933D01*
X6888212Y-12158002D01*
X6708322Y-12236139D01*
X6708310Y-12236145D01*
X6456960Y-12388994D01*
X6456947Y-12389003D01*
X6228748Y-12574657D01*
X6228743Y-12574662D01*
X6027938Y-12789669D01*
X5858279Y-13030021D01*
X5722930Y-13291230D01*
X5624408Y-13568445D01*
X5622135Y-13579384D01*
X5564552Y-13856489D01*
X5549500Y-14076538D01*
X5549500Y-14723462D01*
X1000000Y-14723462D01*
X1000000Y-11200000D01*
X26744751Y-11200000D01*
X26763686Y-11368056D01*
X26763686Y-11368058D01*
X26763687Y-11368059D01*
X26819544Y-11527690D01*
X26909523Y-11670890D01*
X27029110Y-11790477D01*
X27172310Y-11880456D01*
X27331941Y-11936313D01*
X27443980Y-11948937D01*
X27499999Y-11955249D01*
X27500000Y-11955249D01*
X27500001Y-11955249D01*
X27542014Y-11950515D01*
X27668059Y-11936313D01*
X27827690Y-11880456D01*
X27970890Y-11790477D01*
X28090477Y-11670890D01*
X28180456Y-11527690D01*
X28236313Y-11368059D01*
X28255249Y-11200000D01*
X28236313Y-11031941D01*
X28180456Y-10872310D01*
X28090477Y-10729110D01*
X28061367Y-10700000D01*
X51244751Y-10700000D01*
X51263686Y-10868056D01*
X51263686Y-10868058D01*
X51263687Y-10868059D01*
X51319544Y-11027690D01*
X51409523Y-11170890D01*
X51529110Y-11290477D01*
X51672310Y-11380456D01*
X51831941Y-11436313D01*
X51943980Y-11448937D01*
X51999999Y-11455249D01*
X52000000Y-11455249D01*
X52000001Y-11455249D01*
X52042014Y-11450515D01*
X52168059Y-11436313D01*
X52327690Y-11380456D01*
X52470890Y-11290477D01*
X52590477Y-11170890D01*
X52680456Y-11027690D01*
X52699800Y-10972407D01*
X53072344Y-10972407D01*
X53091279Y-11140463D01*
X53091279Y-11140465D01*
X53091280Y-11140466D01*
X53147137Y-11300097D01*
X53237116Y-11443297D01*
X53356703Y-11562884D01*
X53499903Y-11652863D01*
X53659534Y-11708720D01*
X53659537Y-11708720D01*
X53662797Y-11709861D01*
X53726523Y-11753309D01*
X53737047Y-11775163D01*
X53786114Y-11737956D01*
X53825666Y-11727873D01*
X53827592Y-11727655D01*
X53827593Y-11727656D01*
X53995652Y-11708720D01*
X54155283Y-11652863D01*
X54298483Y-11562884D01*
X54418070Y-11443297D01*
X54508049Y-11300097D01*
X54563906Y-11140466D01*
X54582842Y-10972407D01*
X54581859Y-10963687D01*
X54563906Y-10804350D01*
X54563906Y-10804348D01*
X54508049Y-10644717D01*
X54418070Y-10501517D01*
X54298483Y-10381930D01*
X54155283Y-10291951D01*
X53995652Y-10236094D01*
X53995651Y-10236093D01*
X53995649Y-10236093D01*
X53827594Y-10217158D01*
X53827592Y-10217158D01*
X53659536Y-10236093D01*
X53499902Y-10291951D01*
X53356703Y-10381930D01*
X53237116Y-10501517D01*
X53147137Y-10644716D01*
X53091279Y-10804350D01*
X53072344Y-10972406D01*
X53072344Y-10972407D01*
X52699800Y-10972407D01*
X52736313Y-10868059D01*
X52755249Y-10700000D01*
X52736313Y-10531941D01*
X52680456Y-10372310D01*
X52590477Y-10229110D01*
X52470890Y-10109523D01*
X52327690Y-10019544D01*
X52168059Y-9963687D01*
X52168058Y-9963686D01*
X52168056Y-9963686D01*
X52000001Y-9944751D01*
X51999999Y-9944751D01*
X51831943Y-9963686D01*
X51672309Y-10019544D01*
X51529110Y-10109523D01*
X51409523Y-10229110D01*
X51319544Y-10372309D01*
X51263686Y-10531943D01*
X51244751Y-10699999D01*
X51244751Y-10700000D01*
X28061367Y-10700000D01*
X27970890Y-10609523D01*
X27827690Y-10519544D01*
X27668059Y-10463687D01*
X27668058Y-10463686D01*
X27668056Y-10463686D01*
X27500001Y-10444751D01*
X27499999Y-10444751D01*
X27331943Y-10463686D01*
X27172309Y-10519544D01*
X27029110Y-10609523D01*
X26909523Y-10729110D01*
X26819544Y-10872309D01*
X26763686Y-11031943D01*
X26744751Y-11199999D01*
X26744751Y-11200000D01*
X1000000Y-11200000D01*
X1000000Y-10414502D01*
X22119751Y-10414502D01*
X22138686Y-10582558D01*
X22138686Y-10582560D01*
X22138687Y-10582561D01*
X22194544Y-10742192D01*
X22284523Y-10885392D01*
X22404110Y-11004979D01*
X22547310Y-11094958D01*
X22706941Y-11150815D01*
X22818980Y-11163439D01*
X22874999Y-11169751D01*
X22875000Y-11169751D01*
X22875001Y-11169751D01*
X22917014Y-11165017D01*
X23043059Y-11150815D01*
X23202690Y-11094958D01*
X23345890Y-11004979D01*
X23465477Y-10885392D01*
X23555456Y-10742192D01*
X23611313Y-10582561D01*
X23630249Y-10414502D01*
X23611313Y-10246443D01*
X23555456Y-10086812D01*
X23465477Y-9943612D01*
X23345890Y-9824025D01*
X23202690Y-9734046D01*
X23043059Y-9678189D01*
X23043058Y-9678188D01*
X23043056Y-9678188D01*
X22875001Y-9659253D01*
X22874999Y-9659253D01*
X22706943Y-9678188D01*
X22547309Y-9734046D01*
X22404110Y-9824025D01*
X22284523Y-9943612D01*
X22194544Y-10086811D01*
X22138686Y-10246445D01*
X22119751Y-10414501D01*
X22119751Y-10414502D01*
X1000000Y-10414502D01*
X1000000Y-9000000D01*
X1499819Y-9000000D01*
X1518508Y-9213620D01*
X1574007Y-9420745D01*
X1574008Y-9420747D01*
X1664628Y-9615085D01*
X1664636Y-9615098D01*
X1787625Y-9790743D01*
X1939256Y-9942374D01*
X2114901Y-10065363D01*
X2114914Y-10065371D01*
X2209600Y-10109523D01*
X2309253Y-10155992D01*
X2516381Y-10211492D01*
X2730000Y-10230181D01*
X2943619Y-10211492D01*
X3150747Y-10155992D01*
X3345091Y-10065368D01*
X3520745Y-9942373D01*
X3672373Y-9790745D01*
X3773450Y-9646392D01*
X3832529Y-9596819D01*
X3908486Y-9583426D01*
X3980963Y-9609805D01*
X4030540Y-9668888D01*
X4044500Y-9731858D01*
X4044500Y-9856518D01*
X4059354Y-9950304D01*
X4059355Y-9950306D01*
X4066173Y-9963687D01*
X4116950Y-10063342D01*
X4206658Y-10153050D01*
X4319696Y-10210646D01*
X4413481Y-10225500D01*
X6126518Y-10225499D01*
X6220304Y-10210646D01*
X6333342Y-10153050D01*
X6423050Y-10063342D01*
X6480646Y-9950304D01*
X6495500Y-9856519D01*
X6495499Y-8143482D01*
X6480646Y-8049696D01*
X6423050Y-7936658D01*
X6333342Y-7846950D01*
X6303889Y-7831943D01*
X6220305Y-7789354D01*
X6204673Y-7786878D01*
X6126519Y-7774500D01*
X6126514Y-7774500D01*
X4413481Y-7774500D01*
X4319695Y-7789354D01*
X4319693Y-7789355D01*
X4206657Y-7846950D01*
X4116950Y-7936657D01*
X4059354Y-8049694D01*
X4056360Y-8068600D01*
X4044500Y-8143481D01*
X4044500Y-8143482D01*
X4044500Y-8143485D01*
X4044500Y-8268139D01*
X4024538Y-8342639D01*
X3970000Y-8397177D01*
X3895500Y-8417139D01*
X3821000Y-8397177D01*
X3773447Y-8353602D01*
X3672374Y-8209256D01*
X3520743Y-8057625D01*
X3345098Y-7934636D01*
X3345085Y-7934628D01*
X3150747Y-7844008D01*
X3150745Y-7844007D01*
X2943619Y-7788508D01*
X2943620Y-7788508D01*
X2730000Y-7769819D01*
X2516379Y-7788508D01*
X2309254Y-7844007D01*
X2309253Y-7844008D01*
X2114909Y-7934632D01*
X2114908Y-7934633D01*
X1939253Y-8057628D01*
X1787628Y-8209253D01*
X1664633Y-8384908D01*
X1664632Y-8384909D01*
X1574008Y-8579253D01*
X1574007Y-8579254D01*
X1518508Y-8786379D01*
X1499819Y-9000000D01*
X1000000Y-9000000D01*
X1000000Y-7400000D01*
X8294532Y-7400000D01*
X8314365Y-7626693D01*
X8316895Y-7636135D01*
X8373261Y-7846496D01*
X8469432Y-8052734D01*
X8469435Y-8052738D01*
X8469437Y-8052741D01*
X8599951Y-8239137D01*
X8599953Y-8239139D01*
X8760861Y-8400047D01*
X8947266Y-8530568D01*
X9153504Y-8626739D01*
X9373308Y-8685635D01*
X9600000Y-8705468D01*
X9826692Y-8685635D01*
X10046496Y-8626739D01*
X10252734Y-8530568D01*
X10439139Y-8400047D01*
X10600047Y-8239139D01*
X10712261Y-8078880D01*
X10727946Y-8056479D01*
X10787029Y-8006901D01*
X10862986Y-7993508D01*
X10935462Y-8019887D01*
X10972054Y-8056479D01*
X11099951Y-8239137D01*
X11099953Y-8239139D01*
X11260861Y-8400047D01*
X11447266Y-8530568D01*
X11653504Y-8626739D01*
X11873308Y-8685635D01*
X12100000Y-8705468D01*
X12326692Y-8685635D01*
X12546496Y-8626739D01*
X12752734Y-8530568D01*
X12939139Y-8400047D01*
X13100047Y-8239139D01*
X13168168Y-8141850D01*
X13227251Y-8092274D01*
X13303207Y-8078880D01*
X13375684Y-8105259D01*
X13414960Y-8145818D01*
X13448811Y-8197632D01*
X14037226Y-7609217D01*
X14075901Y-7702588D01*
X14172075Y-7827925D01*
X14297412Y-7924099D01*
X14390779Y-7962772D01*
X13801201Y-8552351D01*
X13831646Y-8576048D01*
X13831647Y-8576049D01*
X14035698Y-8686476D01*
X14255142Y-8761812D01*
X14255146Y-8761813D01*
X14483993Y-8799999D01*
X14483995Y-8800000D01*
X14716005Y-8800000D01*
X14716006Y-8799999D01*
X14944853Y-8761813D01*
X14944857Y-8761812D01*
X15164299Y-8686477D01*
X15368353Y-8576048D01*
X15398797Y-8552352D01*
X14809219Y-7962773D01*
X14902588Y-7924099D01*
X15027925Y-7827925D01*
X15124099Y-7702589D01*
X15162773Y-7609219D01*
X15751187Y-8197632D01*
X15835479Y-8068616D01*
X15835487Y-8068600D01*
X15928680Y-7856142D01*
X15985638Y-7631218D01*
X16004798Y-7400000D01*
X31194532Y-7400000D01*
X31214365Y-7626693D01*
X31216895Y-7636135D01*
X31273261Y-7846496D01*
X31369432Y-8052734D01*
X31369435Y-8052738D01*
X31369437Y-8052741D01*
X31499951Y-8239137D01*
X31499953Y-8239139D01*
X31660861Y-8400047D01*
X31847266Y-8530568D01*
X32053504Y-8626739D01*
X32273308Y-8685635D01*
X32500000Y-8705468D01*
X32726692Y-8685635D01*
X32946496Y-8626739D01*
X33152734Y-8530568D01*
X33339139Y-8400047D01*
X33500047Y-8239139D01*
X33612261Y-8078880D01*
X33627946Y-8056479D01*
X33687029Y-8006901D01*
X33762986Y-7993508D01*
X33835462Y-8019887D01*
X33872054Y-8056479D01*
X33999951Y-8239137D01*
X33999953Y-8239139D01*
X34160861Y-8400047D01*
X34347266Y-8530568D01*
X34553504Y-8626739D01*
X34773308Y-8685635D01*
X35000000Y-8705468D01*
X35226692Y-8685635D01*
X35446496Y-8626739D01*
X35652734Y-8530568D01*
X35839139Y-8400047D01*
X36000047Y-8239139D01*
X36112261Y-8078880D01*
X36127946Y-8056479D01*
X36187029Y-8006901D01*
X36262986Y-7993508D01*
X36335462Y-8019887D01*
X36372054Y-8056479D01*
X36499951Y-8239137D01*
X36499953Y-8239139D01*
X36660861Y-8400047D01*
X36847266Y-8530568D01*
X37053504Y-8626739D01*
X37273308Y-8685635D01*
X37500000Y-8705468D01*
X37726692Y-8685635D01*
X37946496Y-8626739D01*
X38152734Y-8530568D01*
X38339139Y-8400047D01*
X38500047Y-8239139D01*
X38630568Y-8052734D01*
X38655158Y-8000000D01*
X47544751Y-8000000D01*
X47563686Y-8168056D01*
X47563686Y-8168058D01*
X47563687Y-8168059D01*
X47619544Y-8327690D01*
X47709523Y-8470890D01*
X47829110Y-8590477D01*
X47972310Y-8680456D01*
X48131941Y-8736313D01*
X48243980Y-8748937D01*
X48299999Y-8755249D01*
X48300000Y-8755249D01*
X48300001Y-8755249D01*
X48342014Y-8750515D01*
X48468059Y-8736313D01*
X48627690Y-8680456D01*
X48770890Y-8590477D01*
X48890477Y-8470890D01*
X48980456Y-8327690D01*
X49036313Y-8168059D01*
X49055249Y-8000000D01*
X49036313Y-7831941D01*
X48980456Y-7672310D01*
X48890477Y-7529110D01*
X48770890Y-7409523D01*
X48755734Y-7400000D01*
X54094532Y-7400000D01*
X54114365Y-7626693D01*
X54116895Y-7636135D01*
X54173261Y-7846496D01*
X54269432Y-8052734D01*
X54269435Y-8052738D01*
X54269437Y-8052741D01*
X54399951Y-8239137D01*
X54399953Y-8239139D01*
X54560861Y-8400047D01*
X54747266Y-8530568D01*
X54953504Y-8626739D01*
X55173308Y-8685635D01*
X55400000Y-8705468D01*
X55626692Y-8685635D01*
X55846496Y-8626739D01*
X56052734Y-8530568D01*
X56239139Y-8400047D01*
X56400047Y-8239139D01*
X56512261Y-8078880D01*
X56527946Y-8056479D01*
X56587029Y-8006901D01*
X56662986Y-7993508D01*
X56735462Y-8019887D01*
X56772054Y-8056479D01*
X56899951Y-8239137D01*
X56899953Y-8239139D01*
X57060861Y-8400047D01*
X57247266Y-8530568D01*
X57453504Y-8626739D01*
X57673308Y-8685635D01*
X57900000Y-8705468D01*
X58126692Y-8685635D01*
X58346496Y-8626739D01*
X58552734Y-8530568D01*
X58739139Y-8400047D01*
X58900047Y-8239139D01*
X59012261Y-8078880D01*
X59027946Y-8056479D01*
X59087029Y-8006901D01*
X59162986Y-7993508D01*
X59235462Y-8019887D01*
X59272054Y-8056479D01*
X59399951Y-8239137D01*
X59399953Y-8239139D01*
X59560861Y-8400047D01*
X59747266Y-8530568D01*
X59953504Y-8626739D01*
X60173308Y-8685635D01*
X60400000Y-8705468D01*
X60626692Y-8685635D01*
X60846496Y-8626739D01*
X61052734Y-8530568D01*
X61239139Y-8400047D01*
X61400047Y-8239139D01*
X61530568Y-8052734D01*
X61626739Y-7846496D01*
X61685635Y-7626692D01*
X61705468Y-7400000D01*
X61685635Y-7173308D01*
X61626739Y-6953504D01*
X61530568Y-6747266D01*
X61400047Y-6560861D01*
X61239139Y-6399953D01*
X61239137Y-6399951D01*
X61052741Y-6269437D01*
X61052738Y-6269435D01*
X61052734Y-6269432D01*
X60846496Y-6173261D01*
X60626692Y-6114365D01*
X60626693Y-6114365D01*
X60400000Y-6094532D01*
X60173306Y-6114365D01*
X59953507Y-6173260D01*
X59953506Y-6173260D01*
X59953504Y-6173261D01*
X59747266Y-6269432D01*
X59747263Y-6269434D01*
X59747261Y-6269435D01*
X59747258Y-6269437D01*
X59560862Y-6399951D01*
X59399954Y-6560859D01*
X59272054Y-6743521D01*
X59212970Y-6793098D01*
X59137014Y-6806491D01*
X59064537Y-6780112D01*
X59027946Y-6743521D01*
X58965390Y-6654181D01*
X58900047Y-6560861D01*
X58739139Y-6399953D01*
X58739137Y-6399951D01*
X58552741Y-6269437D01*
X58552738Y-6269435D01*
X58552734Y-6269432D01*
X58346496Y-6173261D01*
X58126692Y-6114365D01*
X58126693Y-6114365D01*
X57900000Y-6094532D01*
X57673306Y-6114365D01*
X57453507Y-6173260D01*
X57453506Y-6173260D01*
X57453504Y-6173261D01*
X57247266Y-6269432D01*
X57247263Y-6269434D01*
X57247261Y-6269435D01*
X57247258Y-6269437D01*
X57060862Y-6399951D01*
X56899954Y-6560859D01*
X56772054Y-6743521D01*
X56712970Y-6793098D01*
X56637014Y-6806491D01*
X56564537Y-6780112D01*
X56527946Y-6743521D01*
X56465390Y-6654181D01*
X56400047Y-6560861D01*
X56239139Y-6399953D01*
X56239137Y-6399951D01*
X56052741Y-6269437D01*
X56052738Y-6269435D01*
X56052734Y-6269432D01*
X55846496Y-6173261D01*
X55626692Y-6114365D01*
X55626693Y-6114365D01*
X55400000Y-6094532D01*
X55173306Y-6114365D01*
X54953507Y-6173260D01*
X54953506Y-6173260D01*
X54953504Y-6173261D01*
X54747266Y-6269432D01*
X54747263Y-6269434D01*
X54747261Y-6269435D01*
X54747258Y-6269437D01*
X54560862Y-6399951D01*
X54399951Y-6560862D01*
X54269437Y-6747258D01*
X54269435Y-6747261D01*
X54269434Y-6747263D01*
X54269432Y-6747266D01*
X54173261Y-6953504D01*
X54173260Y-6953507D01*
X54114365Y-7173306D01*
X54094532Y-7400000D01*
X48755734Y-7400000D01*
X48627690Y-7319544D01*
X48468059Y-7263687D01*
X48468058Y-7263686D01*
X48468056Y-7263686D01*
X48300001Y-7244751D01*
X48299999Y-7244751D01*
X48131943Y-7263686D01*
X47972309Y-7319544D01*
X47829110Y-7409523D01*
X47709523Y-7529110D01*
X47619544Y-7672309D01*
X47563686Y-7831943D01*
X47544751Y-7999999D01*
X47544751Y-8000000D01*
X38655158Y-8000000D01*
X38726739Y-7846496D01*
X38785635Y-7626692D01*
X38805468Y-7400000D01*
X38785635Y-7173308D01*
X38726739Y-6953504D01*
X38630568Y-6747266D01*
X38500047Y-6560861D01*
X38339139Y-6399953D01*
X38339137Y-6399951D01*
X38152741Y-6269437D01*
X38152738Y-6269435D01*
X38152734Y-6269432D01*
X37946496Y-6173261D01*
X37726692Y-6114365D01*
X37726693Y-6114365D01*
X37500000Y-6094532D01*
X37273306Y-6114365D01*
X37053507Y-6173260D01*
X37053506Y-6173260D01*
X37053504Y-6173261D01*
X36847266Y-6269432D01*
X36847263Y-6269434D01*
X36847261Y-6269435D01*
X36847258Y-6269437D01*
X36660862Y-6399951D01*
X36499954Y-6560859D01*
X36372054Y-6743521D01*
X36312970Y-6793098D01*
X36237014Y-6806491D01*
X36164537Y-6780112D01*
X36127946Y-6743521D01*
X36065390Y-6654181D01*
X36000047Y-6560861D01*
X35839139Y-6399953D01*
X35839137Y-6399951D01*
X35652741Y-6269437D01*
X35652738Y-6269435D01*
X35652734Y-6269432D01*
X35446496Y-6173261D01*
X35226692Y-6114365D01*
X35226693Y-6114365D01*
X35000000Y-6094532D01*
X34773306Y-6114365D01*
X34553507Y-6173260D01*
X34553506Y-6173260D01*
X34553504Y-6173261D01*
X34347266Y-6269432D01*
X34347263Y-6269434D01*
X34347261Y-6269435D01*
X34347258Y-6269437D01*
X34160862Y-6399951D01*
X33999954Y-6560859D01*
X33872054Y-6743521D01*
X33812970Y-6793098D01*
X33737014Y-6806491D01*
X33664537Y-6780112D01*
X33627946Y-6743521D01*
X33565390Y-6654181D01*
X33500047Y-6560861D01*
X33339139Y-6399953D01*
X33339137Y-6399951D01*
X33152741Y-6269437D01*
X33152738Y-6269435D01*
X33152734Y-6269432D01*
X32946496Y-6173261D01*
X32726692Y-6114365D01*
X32726693Y-6114365D01*
X32500000Y-6094532D01*
X32273306Y-6114365D01*
X32053507Y-6173260D01*
X32053506Y-6173260D01*
X32053504Y-6173261D01*
X31847266Y-6269432D01*
X31847263Y-6269434D01*
X31847261Y-6269435D01*
X31847258Y-6269437D01*
X31660862Y-6399951D01*
X31499951Y-6560862D01*
X31369437Y-6747258D01*
X31369435Y-6747261D01*
X31369434Y-6747263D01*
X31369432Y-6747266D01*
X31273261Y-6953504D01*
X31273260Y-6953507D01*
X31214365Y-7173306D01*
X31194532Y-7400000D01*
X16004798Y-7400000D01*
X16004798Y-7399999D01*
X15985638Y-7168781D01*
X15928680Y-6943857D01*
X15835487Y-6731399D01*
X15835483Y-6731392D01*
X15751187Y-6602366D01*
X15162772Y-7190779D01*
X15124099Y-7097412D01*
X15027925Y-6972075D01*
X14902588Y-6875901D01*
X14809217Y-6837226D01*
X15398797Y-6247647D01*
X15398797Y-6247646D01*
X15368356Y-6223953D01*
X15368350Y-6223949D01*
X15164301Y-6113523D01*
X14944857Y-6038187D01*
X14944853Y-6038186D01*
X14716006Y-6000000D01*
X14483993Y-6000000D01*
X14255146Y-6038186D01*
X14255142Y-6038187D01*
X14035700Y-6113522D01*
X13831650Y-6223948D01*
X13831647Y-6223950D01*
X13801201Y-6247646D01*
X14390780Y-6837226D01*
X14297412Y-6875901D01*
X14172075Y-6972075D01*
X14075901Y-7097411D01*
X14037226Y-7190780D01*
X13448811Y-6602365D01*
X13414959Y-6654181D01*
X13357499Y-6705631D01*
X13282012Y-6721459D01*
X13208725Y-6697423D01*
X13168167Y-6658147D01*
X13100048Y-6560862D01*
X12939137Y-6399951D01*
X12752741Y-6269437D01*
X12752738Y-6269435D01*
X12752734Y-6269432D01*
X12546496Y-6173261D01*
X12326692Y-6114365D01*
X12326693Y-6114365D01*
X12100000Y-6094532D01*
X11873306Y-6114365D01*
X11653507Y-6173260D01*
X11653506Y-6173260D01*
X11653504Y-6173261D01*
X11447266Y-6269432D01*
X11447263Y-6269434D01*
X11447261Y-6269435D01*
X11447258Y-6269437D01*
X11260862Y-6399951D01*
X11099954Y-6560859D01*
X10972054Y-6743521D01*
X10912970Y-6793098D01*
X10837014Y-6806491D01*
X10764537Y-6780112D01*
X10727946Y-6743521D01*
X10665390Y-6654181D01*
X10600047Y-6560861D01*
X10439139Y-6399953D01*
X10439137Y-6399951D01*
X10252741Y-6269437D01*
X10252738Y-6269435D01*
X10252734Y-6269432D01*
X10046496Y-6173261D01*
X9826692Y-6114365D01*
X9826693Y-6114365D01*
X9600000Y-6094532D01*
X9373306Y-6114365D01*
X9153507Y-6173260D01*
X9153506Y-6173260D01*
X9153504Y-6173261D01*
X8947266Y-6269432D01*
X8947263Y-6269434D01*
X8947261Y-6269435D01*
X8947258Y-6269437D01*
X8760862Y-6399951D01*
X8599951Y-6560862D01*
X8469437Y-6747258D01*
X8469435Y-6747261D01*
X8469434Y-6747263D01*
X8469432Y-6747266D01*
X8373261Y-6953504D01*
X8373260Y-6953507D01*
X8314365Y-7173306D01*
X8294532Y-7400000D01*
X1000000Y-7400000D01*
X1000000Y-4569605D01*
X3095687Y-4569605D01*
X3126111Y-4846111D01*
X3126114Y-4846125D01*
X3161590Y-4981823D01*
X3196480Y-5115276D01*
X3305284Y-5371314D01*
X3305286Y-5371318D01*
X3305289Y-5371323D01*
X3450207Y-5608781D01*
X3450210Y-5608785D01*
X3628155Y-5822609D01*
X3628167Y-5822621D01*
X3748031Y-5930019D01*
X3835357Y-6008263D01*
X4067373Y-6161763D01*
X4319267Y-6279846D01*
X4585669Y-6359995D01*
X4860901Y-6400500D01*
X4860908Y-6400500D01*
X5069454Y-6400500D01*
X5069463Y-6400500D01*
X5277455Y-6385277D01*
X5548997Y-6324788D01*
X5549003Y-6324785D01*
X5549009Y-6324784D01*
X5758114Y-6244808D01*
X5808838Y-6225408D01*
X6051440Y-6089253D01*
X6271632Y-5919226D01*
X6464722Y-5718951D01*
X6626593Y-5492696D01*
X6753797Y-5245283D01*
X6843621Y-4981986D01*
X6894152Y-4708416D01*
X6904313Y-4430404D01*
X6902474Y-4413687D01*
X6900968Y-4400004D01*
X10894785Y-4400004D01*
X10913602Y-4603078D01*
X10969416Y-4799245D01*
X10969417Y-4799247D01*
X10969418Y-4799250D01*
X10992759Y-4846125D01*
X11060328Y-4981823D01*
X11060452Y-4981987D01*
X11183236Y-5144579D01*
X11293708Y-5245287D01*
X11333958Y-5281980D01*
X11333963Y-5281984D01*
X11507356Y-5389344D01*
X11507367Y-5389350D01*
X11623332Y-5434274D01*
X11697544Y-5463024D01*
X11898024Y-5500500D01*
X11898027Y-5500500D01*
X12101973Y-5500500D01*
X12101976Y-5500500D01*
X12302456Y-5463024D01*
X12492637Y-5389348D01*
X12666041Y-5281981D01*
X12816764Y-5144579D01*
X12881096Y-5059388D01*
X12941921Y-5011967D01*
X13018310Y-5001311D01*
X13089792Y-5030277D01*
X13118902Y-5059387D01*
X13183236Y-5144579D01*
X13293708Y-5245287D01*
X13333958Y-5281980D01*
X13333963Y-5281984D01*
X13507356Y-5389344D01*
X13507367Y-5389350D01*
X13623332Y-5434274D01*
X13697544Y-5463024D01*
X13898024Y-5500500D01*
X13898027Y-5500500D01*
X14101973Y-5500500D01*
X14101976Y-5500500D01*
X14302456Y-5463024D01*
X14492637Y-5389348D01*
X14666041Y-5281981D01*
X14816764Y-5144579D01*
X14881096Y-5059388D01*
X14941921Y-5011967D01*
X15018310Y-5001311D01*
X15089792Y-5030277D01*
X15118902Y-5059387D01*
X15183236Y-5144579D01*
X15293708Y-5245287D01*
X15333958Y-5281980D01*
X15333963Y-5281984D01*
X15507356Y-5389344D01*
X15507367Y-5389350D01*
X15623332Y-5434274D01*
X15697544Y-5463024D01*
X15898024Y-5500500D01*
X15898027Y-5500500D01*
X16101973Y-5500500D01*
X16101976Y-5500500D01*
X16302456Y-5463024D01*
X16492637Y-5389348D01*
X16666041Y-5281981D01*
X16816764Y-5144579D01*
X16939673Y-4981821D01*
X17030582Y-4799250D01*
X17086397Y-4603083D01*
X17105215Y-4400004D01*
X18894785Y-4400004D01*
X18913602Y-4603078D01*
X18969416Y-4799245D01*
X18969417Y-4799247D01*
X18969418Y-4799250D01*
X18992759Y-4846125D01*
X19060328Y-4981823D01*
X19060452Y-4981987D01*
X19183236Y-5144579D01*
X19293708Y-5245287D01*
X19333958Y-5281980D01*
X19333963Y-5281984D01*
X19507356Y-5389344D01*
X19507367Y-5389350D01*
X19623332Y-5434274D01*
X19697544Y-5463024D01*
X19898024Y-5500500D01*
X19898027Y-5500500D01*
X20101973Y-5500500D01*
X20101976Y-5500500D01*
X20302456Y-5463024D01*
X20492637Y-5389348D01*
X20666041Y-5281981D01*
X20816764Y-5144579D01*
X20881096Y-5059388D01*
X20941921Y-5011967D01*
X21018310Y-5001311D01*
X21089792Y-5030277D01*
X21118902Y-5059387D01*
X21183236Y-5144579D01*
X21293708Y-5245287D01*
X21333958Y-5281980D01*
X21333963Y-5281984D01*
X21507356Y-5389344D01*
X21507367Y-5389350D01*
X21623332Y-5434274D01*
X21697544Y-5463024D01*
X21898024Y-5500500D01*
X21898027Y-5500500D01*
X22101973Y-5500500D01*
X22101976Y-5500500D01*
X22302456Y-5463024D01*
X22492637Y-5389348D01*
X22666041Y-5281981D01*
X22810817Y-5150000D01*
X24294751Y-5150000D01*
X24313686Y-5318056D01*
X24313686Y-5318058D01*
X24313687Y-5318059D01*
X24369544Y-5477690D01*
X24459523Y-5620890D01*
X24579110Y-5740477D01*
X24722310Y-5830456D01*
X24881941Y-5886313D01*
X24993980Y-5898937D01*
X25049999Y-5905249D01*
X25050000Y-5905249D01*
X25050001Y-5905249D01*
X25092014Y-5900515D01*
X25218059Y-5886313D01*
X25377690Y-5830456D01*
X25520890Y-5740477D01*
X25640477Y-5620890D01*
X25730456Y-5477690D01*
X25786313Y-5318059D01*
X25805249Y-5150000D01*
X25801336Y-5115276D01*
X25798937Y-5093980D01*
X25786313Y-4981941D01*
X25730456Y-4822310D01*
X25640477Y-4679110D01*
X25520890Y-4559523D01*
X25377690Y-4469544D01*
X25218059Y-4413687D01*
X25218058Y-4413686D01*
X25218056Y-4413686D01*
X25096623Y-4400004D01*
X28894785Y-4400004D01*
X28913602Y-4603078D01*
X28969416Y-4799245D01*
X28969417Y-4799247D01*
X28969418Y-4799250D01*
X28992759Y-4846125D01*
X29060328Y-4981823D01*
X29060452Y-4981987D01*
X29183236Y-5144579D01*
X29293708Y-5245287D01*
X29333958Y-5281980D01*
X29333963Y-5281984D01*
X29507356Y-5389344D01*
X29507367Y-5389350D01*
X29623332Y-5434274D01*
X29697544Y-5463024D01*
X29847062Y-5490973D01*
X29916625Y-5524284D01*
X29960213Y-5587915D01*
X29967746Y-5620752D01*
X29971899Y-5657616D01*
X29971900Y-5657618D01*
X30027757Y-5817249D01*
X30117736Y-5960449D01*
X30237323Y-6080036D01*
X30380523Y-6170015D01*
X30540154Y-6225872D01*
X30652193Y-6238496D01*
X30708212Y-6244808D01*
X30708213Y-6244808D01*
X30708214Y-6244808D01*
X30750227Y-6240074D01*
X30876272Y-6225872D01*
X31035903Y-6170015D01*
X31179103Y-6080036D01*
X31298690Y-5960449D01*
X31388669Y-5817249D01*
X31444526Y-5657618D01*
X31454474Y-5569323D01*
X31482652Y-5497529D01*
X31542953Y-5449440D01*
X31619220Y-5437945D01*
X31656359Y-5447069D01*
X31697544Y-5463024D01*
X31898024Y-5500500D01*
X31898027Y-5500500D01*
X32101973Y-5500500D01*
X32101976Y-5500500D01*
X32302456Y-5463024D01*
X32492637Y-5389348D01*
X32666041Y-5281981D01*
X32816764Y-5144579D01*
X32881096Y-5059388D01*
X32941921Y-5011967D01*
X33018310Y-5001311D01*
X33089792Y-5030277D01*
X33118902Y-5059387D01*
X33183236Y-5144579D01*
X33293708Y-5245287D01*
X33333958Y-5281980D01*
X33333963Y-5281984D01*
X33507356Y-5389344D01*
X33507367Y-5389350D01*
X33623332Y-5434274D01*
X33697544Y-5463024D01*
X33898024Y-5500500D01*
X33898027Y-5500500D01*
X34101973Y-5500500D01*
X34101976Y-5500500D01*
X34302456Y-5463024D01*
X34492637Y-5389348D01*
X34666041Y-5281981D01*
X34816764Y-5144579D01*
X34939673Y-4981821D01*
X35030582Y-4799250D01*
X35086397Y-4603083D01*
X35105215Y-4400004D01*
X36894785Y-4400004D01*
X36913602Y-4603078D01*
X36969416Y-4799245D01*
X36969417Y-4799247D01*
X36969418Y-4799250D01*
X36992759Y-4846125D01*
X37060328Y-4981823D01*
X37060452Y-4981987D01*
X37183236Y-5144579D01*
X37293708Y-5245287D01*
X37333958Y-5281980D01*
X37333963Y-5281984D01*
X37507356Y-5389344D01*
X37507367Y-5389350D01*
X37623332Y-5434274D01*
X37697544Y-5463024D01*
X37898024Y-5500500D01*
X37898027Y-5500500D01*
X38101973Y-5500500D01*
X38101976Y-5500500D01*
X38302456Y-5463024D01*
X38492637Y-5389348D01*
X38666041Y-5281981D01*
X38816764Y-5144579D01*
X38881096Y-5059388D01*
X38941921Y-5011967D01*
X39018310Y-5001311D01*
X39089792Y-5030277D01*
X39118902Y-5059387D01*
X39183236Y-5144579D01*
X39293708Y-5245287D01*
X39333958Y-5281980D01*
X39333963Y-5281984D01*
X39507356Y-5389344D01*
X39507367Y-5389350D01*
X39623332Y-5434274D01*
X39697544Y-5463024D01*
X39898024Y-5500500D01*
X39898027Y-5500500D01*
X40101973Y-5500500D01*
X40101976Y-5500500D01*
X40302456Y-5463024D01*
X40492637Y-5389348D01*
X40666041Y-5281981D01*
X40816764Y-5144579D01*
X40939673Y-4981821D01*
X41030582Y-4799250D01*
X41086397Y-4603083D01*
X41105215Y-4400004D01*
X46894785Y-4400004D01*
X46913602Y-4603078D01*
X46969416Y-4799245D01*
X46969417Y-4799247D01*
X46969418Y-4799250D01*
X46992759Y-4846125D01*
X47060328Y-4981823D01*
X47060452Y-4981987D01*
X47183236Y-5144579D01*
X47293708Y-5245287D01*
X47333958Y-5281980D01*
X47333963Y-5281984D01*
X47507356Y-5389344D01*
X47507367Y-5389350D01*
X47623332Y-5434274D01*
X47697544Y-5463024D01*
X47898024Y-5500500D01*
X47898027Y-5500500D01*
X48101973Y-5500500D01*
X48101976Y-5500500D01*
X48302456Y-5463024D01*
X48492637Y-5389348D01*
X48666041Y-5281981D01*
X48816764Y-5144579D01*
X48881096Y-5059388D01*
X48941921Y-5011967D01*
X49018310Y-5001311D01*
X49089792Y-5030277D01*
X49118902Y-5059387D01*
X49183236Y-5144579D01*
X49293708Y-5245287D01*
X49333958Y-5281980D01*
X49333963Y-5281984D01*
X49507356Y-5389344D01*
X49507367Y-5389350D01*
X49623332Y-5434274D01*
X49697544Y-5463024D01*
X49898024Y-5500500D01*
X49898027Y-5500500D01*
X50101973Y-5500500D01*
X50101976Y-5500500D01*
X50302456Y-5463024D01*
X50492637Y-5389348D01*
X50666041Y-5281981D01*
X50816764Y-5144579D01*
X50881096Y-5059388D01*
X50941921Y-5011967D01*
X51018310Y-5001311D01*
X51089792Y-5030277D01*
X51118902Y-5059387D01*
X51183236Y-5144579D01*
X51293708Y-5245287D01*
X51333958Y-5281980D01*
X51333963Y-5281984D01*
X51507356Y-5389344D01*
X51507367Y-5389350D01*
X51623332Y-5434274D01*
X51697544Y-5463024D01*
X51898024Y-5500500D01*
X51898027Y-5500500D01*
X52101973Y-5500500D01*
X52101976Y-5500500D01*
X52302456Y-5463024D01*
X52492637Y-5389348D01*
X52666041Y-5281981D01*
X52816764Y-5144579D01*
X52939673Y-4981821D01*
X53030582Y-4799250D01*
X53086397Y-4603083D01*
X53105215Y-4400004D01*
X54894785Y-4400004D01*
X54913602Y-4603078D01*
X54969416Y-4799245D01*
X54969417Y-4799247D01*
X54969418Y-4799250D01*
X54992759Y-4846125D01*
X55060328Y-4981823D01*
X55060452Y-4981987D01*
X55183236Y-5144579D01*
X55293708Y-5245287D01*
X55333958Y-5281980D01*
X55333963Y-5281984D01*
X55507356Y-5389344D01*
X55507367Y-5389350D01*
X55623332Y-5434274D01*
X55697544Y-5463024D01*
X55898024Y-5500500D01*
X55898027Y-5500500D01*
X56101973Y-5500500D01*
X56101976Y-5500500D01*
X56302456Y-5463024D01*
X56492637Y-5389348D01*
X56666041Y-5281981D01*
X56816764Y-5144579D01*
X56881096Y-5059388D01*
X56941921Y-5011967D01*
X57018310Y-5001311D01*
X57089792Y-5030277D01*
X57118902Y-5059387D01*
X57183236Y-5144579D01*
X57293708Y-5245287D01*
X57333958Y-5281980D01*
X57333963Y-5281984D01*
X57507356Y-5389344D01*
X57507367Y-5389350D01*
X57623332Y-5434274D01*
X57697544Y-5463024D01*
X57898024Y-5500500D01*
X57898027Y-5500500D01*
X58101973Y-5500500D01*
X58101976Y-5500500D01*
X58302456Y-5463024D01*
X58492637Y-5389348D01*
X58666041Y-5281981D01*
X58816764Y-5144579D01*
X58939673Y-4981821D01*
X59030582Y-4799250D01*
X59086397Y-4603083D01*
X59105215Y-4400000D01*
X59086397Y-4196917D01*
X59030582Y-4000750D01*
X58939673Y-3818179D01*
X58816764Y-3655421D01*
X58666041Y-3518019D01*
X58666036Y-3518015D01*
X58492643Y-3410655D01*
X58492632Y-3410649D01*
X58302462Y-3336978D01*
X58302458Y-3336977D01*
X58302456Y-3336976D01*
X58262360Y-3329480D01*
X58101980Y-3299500D01*
X58101976Y-3299500D01*
X57898024Y-3299500D01*
X57898019Y-3299500D01*
X57697544Y-3336976D01*
X57697537Y-3336978D01*
X57507367Y-3410649D01*
X57507356Y-3410655D01*
X57333963Y-3518015D01*
X57333958Y-3518019D01*
X57183233Y-3655424D01*
X57118904Y-3740610D01*
X57058078Y-3788032D01*
X56981690Y-3798688D01*
X56910207Y-3769721D01*
X56881096Y-3740610D01*
X56816766Y-3655424D01*
X56816764Y-3655421D01*
X56666041Y-3518019D01*
X56666036Y-3518015D01*
X56492643Y-3410655D01*
X56492632Y-3410649D01*
X56302462Y-3336978D01*
X56302458Y-3336977D01*
X56302456Y-3336976D01*
X56262360Y-3329480D01*
X56101980Y-3299500D01*
X56101976Y-3299500D01*
X55898024Y-3299500D01*
X55898019Y-3299500D01*
X55697544Y-3336976D01*
X55697537Y-3336978D01*
X55507367Y-3410649D01*
X55507356Y-3410655D01*
X55333963Y-3518015D01*
X55333958Y-3518019D01*
X55183234Y-3655423D01*
X55060328Y-3818176D01*
X54969416Y-4000754D01*
X54913602Y-4196921D01*
X54894785Y-4399995D01*
X54894785Y-4400004D01*
X53105215Y-4400004D01*
X53105215Y-4400000D01*
X53086397Y-4196917D01*
X53030582Y-4000750D01*
X52939673Y-3818179D01*
X52816764Y-3655421D01*
X52666041Y-3518019D01*
X52666036Y-3518015D01*
X52492643Y-3410655D01*
X52492632Y-3410649D01*
X52302462Y-3336978D01*
X52302458Y-3336977D01*
X52302456Y-3336976D01*
X52262360Y-3329480D01*
X52101980Y-3299500D01*
X52101976Y-3299500D01*
X51898024Y-3299500D01*
X51898019Y-3299500D01*
X51697544Y-3336976D01*
X51697537Y-3336978D01*
X51507367Y-3410649D01*
X51507356Y-3410655D01*
X51333963Y-3518015D01*
X51333958Y-3518019D01*
X51183233Y-3655424D01*
X51118904Y-3740610D01*
X51058078Y-3788032D01*
X50981690Y-3798688D01*
X50910207Y-3769721D01*
X50881096Y-3740610D01*
X50816766Y-3655424D01*
X50816764Y-3655421D01*
X50666041Y-3518019D01*
X50666036Y-3518015D01*
X50492643Y-3410655D01*
X50492632Y-3410649D01*
X50302462Y-3336978D01*
X50302458Y-3336977D01*
X50302456Y-3336976D01*
X50262360Y-3329480D01*
X50101980Y-3299500D01*
X50101976Y-3299500D01*
X49898024Y-3299500D01*
X49898019Y-3299500D01*
X49697544Y-3336976D01*
X49697537Y-3336978D01*
X49507367Y-3410649D01*
X49507356Y-3410655D01*
X49333963Y-3518015D01*
X49333958Y-3518019D01*
X49183233Y-3655424D01*
X49118904Y-3740610D01*
X49058078Y-3788032D01*
X48981690Y-3798688D01*
X48910207Y-3769721D01*
X48881096Y-3740610D01*
X48816766Y-3655424D01*
X48816764Y-3655421D01*
X48666041Y-3518019D01*
X48666036Y-3518015D01*
X48492643Y-3410655D01*
X48492632Y-3410649D01*
X48302462Y-3336978D01*
X48302458Y-3336977D01*
X48302456Y-3336976D01*
X48262360Y-3329480D01*
X48101980Y-3299500D01*
X48101976Y-3299500D01*
X47898024Y-3299500D01*
X47898019Y-3299500D01*
X47697544Y-3336976D01*
X47697537Y-3336978D01*
X47507367Y-3410649D01*
X47507356Y-3410655D01*
X47333963Y-3518015D01*
X47333958Y-3518019D01*
X47183234Y-3655423D01*
X47060328Y-3818176D01*
X46969416Y-4000754D01*
X46913602Y-4196921D01*
X46894785Y-4399995D01*
X46894785Y-4400004D01*
X41105215Y-4400004D01*
X41105215Y-4400000D01*
X41086397Y-4196917D01*
X41030582Y-4000750D01*
X40939673Y-3818179D01*
X40816764Y-3655421D01*
X40666041Y-3518019D01*
X40666036Y-3518015D01*
X40492643Y-3410655D01*
X40492632Y-3410649D01*
X40302462Y-3336978D01*
X40302458Y-3336977D01*
X40302456Y-3336976D01*
X40262360Y-3329480D01*
X40101980Y-3299500D01*
X40101976Y-3299500D01*
X39898024Y-3299500D01*
X39898019Y-3299500D01*
X39697544Y-3336976D01*
X39697537Y-3336978D01*
X39507367Y-3410649D01*
X39507356Y-3410655D01*
X39333963Y-3518015D01*
X39333958Y-3518019D01*
X39183233Y-3655424D01*
X39118904Y-3740610D01*
X39058078Y-3788032D01*
X38981690Y-3798688D01*
X38910207Y-3769721D01*
X38881096Y-3740610D01*
X38816766Y-3655424D01*
X38816764Y-3655421D01*
X38666041Y-3518019D01*
X38666036Y-3518015D01*
X38492643Y-3410655D01*
X38492632Y-3410649D01*
X38302462Y-3336978D01*
X38302458Y-3336977D01*
X38302456Y-3336976D01*
X38262360Y-3329480D01*
X38101980Y-3299500D01*
X38101976Y-3299500D01*
X37898024Y-3299500D01*
X37898019Y-3299500D01*
X37697544Y-3336976D01*
X37697537Y-3336978D01*
X37507367Y-3410649D01*
X37507356Y-3410655D01*
X37333963Y-3518015D01*
X37333958Y-3518019D01*
X37183234Y-3655423D01*
X37060328Y-3818176D01*
X36969416Y-4000754D01*
X36913602Y-4196921D01*
X36894785Y-4399995D01*
X36894785Y-4400004D01*
X35105215Y-4400004D01*
X35105215Y-4400000D01*
X35086397Y-4196917D01*
X35030582Y-4000750D01*
X34939673Y-3818179D01*
X34816764Y-3655421D01*
X34666041Y-3518019D01*
X34666036Y-3518015D01*
X34492643Y-3410655D01*
X34492632Y-3410649D01*
X34302462Y-3336978D01*
X34302458Y-3336977D01*
X34302456Y-3336976D01*
X34262360Y-3329480D01*
X34101980Y-3299500D01*
X34101976Y-3299500D01*
X33898024Y-3299500D01*
X33898019Y-3299500D01*
X33697544Y-3336976D01*
X33697537Y-3336978D01*
X33507367Y-3410649D01*
X33507356Y-3410655D01*
X33333963Y-3518015D01*
X33333958Y-3518019D01*
X33183233Y-3655424D01*
X33118904Y-3740610D01*
X33058078Y-3788032D01*
X32981690Y-3798688D01*
X32910207Y-3769721D01*
X32881096Y-3740610D01*
X32816766Y-3655424D01*
X32816764Y-3655421D01*
X32666041Y-3518019D01*
X32666036Y-3518015D01*
X32492643Y-3410655D01*
X32492632Y-3410649D01*
X32302462Y-3336978D01*
X32302458Y-3336977D01*
X32302456Y-3336976D01*
X32262360Y-3329480D01*
X32101980Y-3299500D01*
X32101976Y-3299500D01*
X31898024Y-3299500D01*
X31898019Y-3299500D01*
X31697544Y-3336976D01*
X31697537Y-3336978D01*
X31507367Y-3410649D01*
X31507356Y-3410655D01*
X31333963Y-3518015D01*
X31333958Y-3518019D01*
X31183233Y-3655424D01*
X31118904Y-3740610D01*
X31058078Y-3788032D01*
X30981690Y-3798688D01*
X30910207Y-3769721D01*
X30881096Y-3740610D01*
X30816766Y-3655424D01*
X30816764Y-3655421D01*
X30666041Y-3518019D01*
X30666036Y-3518015D01*
X30492643Y-3410655D01*
X30492632Y-3410649D01*
X30302462Y-3336978D01*
X30302458Y-3336977D01*
X30302456Y-3336976D01*
X30262360Y-3329480D01*
X30101980Y-3299500D01*
X30101976Y-3299500D01*
X29898024Y-3299500D01*
X29898019Y-3299500D01*
X29697544Y-3336976D01*
X29697537Y-3336978D01*
X29507367Y-3410649D01*
X29507356Y-3410655D01*
X29333963Y-3518015D01*
X29333958Y-3518019D01*
X29183234Y-3655423D01*
X29060328Y-3818176D01*
X28969416Y-4000754D01*
X28913602Y-4196921D01*
X28894785Y-4399995D01*
X28894785Y-4400004D01*
X25096623Y-4400004D01*
X25050001Y-4394751D01*
X25049999Y-4394751D01*
X24881943Y-4413686D01*
X24722309Y-4469544D01*
X24579110Y-4559523D01*
X24459523Y-4679110D01*
X24369544Y-4822309D01*
X24313686Y-4981943D01*
X24294751Y-5149999D01*
X24294751Y-5150000D01*
X22810817Y-5150000D01*
X22816764Y-5144579D01*
X22939673Y-4981821D01*
X23030582Y-4799250D01*
X23086397Y-4603083D01*
X23105215Y-4400000D01*
X23086397Y-4196917D01*
X23030582Y-4000750D01*
X22939673Y-3818179D01*
X22816764Y-3655421D01*
X22666041Y-3518019D01*
X22666036Y-3518015D01*
X22492643Y-3410655D01*
X22492632Y-3410649D01*
X22302462Y-3336978D01*
X22302458Y-3336977D01*
X22302456Y-3336976D01*
X22262360Y-3329480D01*
X22101980Y-3299500D01*
X22101976Y-3299500D01*
X21898024Y-3299500D01*
X21898019Y-3299500D01*
X21697544Y-3336976D01*
X21697537Y-3336978D01*
X21507367Y-3410649D01*
X21507356Y-3410655D01*
X21333963Y-3518015D01*
X21333958Y-3518019D01*
X21183233Y-3655424D01*
X21118904Y-3740610D01*
X21058078Y-3788032D01*
X20981690Y-3798688D01*
X20910207Y-3769721D01*
X20881096Y-3740610D01*
X20816766Y-3655424D01*
X20816764Y-3655421D01*
X20666041Y-3518019D01*
X20666036Y-3518015D01*
X20492643Y-3410655D01*
X20492632Y-3410649D01*
X20302462Y-3336978D01*
X20302458Y-3336977D01*
X20302456Y-3336976D01*
X20262360Y-3329480D01*
X20101980Y-3299500D01*
X20101976Y-3299500D01*
X19898024Y-3299500D01*
X19898019Y-3299500D01*
X19697544Y-3336976D01*
X19697537Y-3336978D01*
X19507367Y-3410649D01*
X19507356Y-3410655D01*
X19333963Y-3518015D01*
X19333958Y-3518019D01*
X19183234Y-3655423D01*
X19060328Y-3818176D01*
X18969416Y-4000754D01*
X18913602Y-4196921D01*
X18894785Y-4399995D01*
X18894785Y-4400004D01*
X17105215Y-4400004D01*
X17105215Y-4400000D01*
X17086397Y-4196917D01*
X17030582Y-4000750D01*
X16939673Y-3818179D01*
X16816764Y-3655421D01*
X16666041Y-3518019D01*
X16666036Y-3518015D01*
X16492643Y-3410655D01*
X16492632Y-3410649D01*
X16302462Y-3336978D01*
X16302458Y-3336977D01*
X16302456Y-3336976D01*
X16262360Y-3329480D01*
X16101980Y-3299500D01*
X16101976Y-3299500D01*
X15898024Y-3299500D01*
X15898019Y-3299500D01*
X15697544Y-3336976D01*
X15697537Y-3336978D01*
X15507367Y-3410649D01*
X15507356Y-3410655D01*
X15333963Y-3518015D01*
X15333958Y-3518019D01*
X15183233Y-3655424D01*
X15118904Y-3740610D01*
X15058078Y-3788032D01*
X14981690Y-3798688D01*
X14910207Y-3769721D01*
X14881096Y-3740610D01*
X14816766Y-3655424D01*
X14816764Y-3655421D01*
X14666041Y-3518019D01*
X14666036Y-3518015D01*
X14492643Y-3410655D01*
X14492632Y-3410649D01*
X14302462Y-3336978D01*
X14302458Y-3336977D01*
X14302456Y-3336976D01*
X14262360Y-3329480D01*
X14101980Y-3299500D01*
X14101976Y-3299500D01*
X13898024Y-3299500D01*
X13898019Y-3299500D01*
X13697544Y-3336976D01*
X13697537Y-3336978D01*
X13507367Y-3410649D01*
X13507356Y-3410655D01*
X13333963Y-3518015D01*
X13333958Y-3518019D01*
X13183233Y-3655424D01*
X13118904Y-3740610D01*
X13058078Y-3788032D01*
X12981690Y-3798688D01*
X12910207Y-3769721D01*
X12881096Y-3740610D01*
X12816766Y-3655424D01*
X12816764Y-3655421D01*
X12666041Y-3518019D01*
X12666036Y-3518015D01*
X12492643Y-3410655D01*
X12492632Y-3410649D01*
X12302462Y-3336978D01*
X12302458Y-3336977D01*
X12302456Y-3336976D01*
X12262360Y-3329480D01*
X12101980Y-3299500D01*
X12101976Y-3299500D01*
X11898024Y-3299500D01*
X11898019Y-3299500D01*
X11697544Y-3336976D01*
X11697537Y-3336978D01*
X11507367Y-3410649D01*
X11507356Y-3410655D01*
X11333963Y-3518015D01*
X11333958Y-3518019D01*
X11183234Y-3655423D01*
X11060328Y-3818176D01*
X10969416Y-4000754D01*
X10913602Y-4196921D01*
X10894785Y-4399995D01*
X10894785Y-4400004D01*
X6900968Y-4400004D01*
X6873888Y-4153888D01*
X6873886Y-4153881D01*
X6873886Y-4153876D01*
X6803520Y-3884724D01*
X6694716Y-3628686D01*
X6627177Y-3518019D01*
X6549792Y-3391218D01*
X6549789Y-3391214D01*
X6371844Y-3177390D01*
X6371832Y-3177378D01*
X6164650Y-2991743D01*
X6164647Y-2991741D01*
X6164643Y-2991737D01*
X5932627Y-2838237D01*
X5897978Y-2821994D01*
X5680732Y-2720153D01*
X5531353Y-2675212D01*
X5414331Y-2640005D01*
X5414325Y-2640004D01*
X5139108Y-2599501D01*
X5139104Y-2599500D01*
X5139099Y-2599500D01*
X4930537Y-2599500D01*
X4722545Y-2614723D01*
X4722537Y-2614724D01*
X4451005Y-2675211D01*
X4450990Y-2675215D01*
X4191164Y-2774590D01*
X4191158Y-2774593D01*
X3948561Y-2910745D01*
X3728369Y-3080772D01*
X3728364Y-3080777D01*
X3535277Y-3281049D01*
X3373407Y-3507302D01*
X3246205Y-3754712D01*
X3246203Y-3754715D01*
X3246203Y-3754717D01*
X3240522Y-3771369D01*
X3156379Y-4018012D01*
X3156377Y-4018021D01*
X3105848Y-4291577D01*
X3101885Y-4400004D01*
X3098231Y-4500008D01*
X3095687Y-4569605D01*
X1000000Y-4569605D01*
X1000000Y-1549500D01*
X1019962Y-1475000D01*
X1074500Y-1420462D01*
X1149000Y-1400500D01*
X8110218Y-1400500D01*
X8110222Y-1400500D01*
X8327951Y-1366015D01*
X8327952Y-1366014D01*
X8327956Y-1366014D01*
X8408556Y-1339825D01*
X8537606Y-1297895D01*
X8734022Y-1197815D01*
X8912365Y-1068242D01*
X9068242Y-912365D01*
X9197815Y-734022D01*
X9297895Y-537606D01*
X9308991Y-503456D01*
X9350998Y-438771D01*
X9419720Y-403756D01*
X9450698Y-400500D01*
X10878281Y-400500D01*
X10952781Y-420462D01*
G37*
G04 #@! TD.AperFunction*
M02*
