G04 #@! TF.GenerationSoftware,KiCad,Pcbnew,7.0.9*
G04 #@! TF.CreationDate,2023-12-08T16:12:54+01:00*
G04 #@! TF.ProjectId,2023_PiezoPreamp,32303233-5f50-4696-957a-6f507265616d,rev?*
G04 #@! TF.SameCoordinates,PX2625a00PY1c22260*
G04 #@! TF.FileFunction,Copper,L3,Inr*
G04 #@! TF.FilePolarity,Positive*
%FSLAX46Y46*%
G04 Gerber Fmt 4.6, Leading zero omitted, Abs format (unit mm)*
G04 Created by KiCad (PCBNEW 7.0.9) date 2023-12-08 16:12:54*
%MOMM*%
%LPD*%
G01*
G04 APERTURE LIST*
G04 #@! TA.AperFunction,ComponentPad*
%ADD10C,1.800000*%
G04 #@! TD*
G04 #@! TA.AperFunction,ComponentPad*
%ADD11O,3.600000X4.000000*%
G04 #@! TD*
G04 #@! TA.AperFunction,ComponentPad*
%ADD12O,3.500000X4.000000*%
G04 #@! TD*
G04 #@! TA.AperFunction,ComponentPad*
%ADD13C,5.500000*%
G04 #@! TD*
G04 #@! TA.AperFunction,ComponentPad*
%ADD14C,1.000000*%
G04 #@! TD*
G04 #@! TA.AperFunction,ComponentPad*
%ADD15C,1.400000*%
G04 #@! TD*
G04 #@! TA.AperFunction,ComponentPad*
%ADD16R,1.650000X1.650000*%
G04 #@! TD*
G04 #@! TA.AperFunction,ComponentPad*
%ADD17C,1.650000*%
G04 #@! TD*
G04 #@! TA.AperFunction,ComponentPad*
%ADD18O,2.800000X4.800000*%
G04 #@! TD*
G04 #@! TA.AperFunction,ComponentPad*
%ADD19O,3.000000X1.800000*%
G04 #@! TD*
G04 #@! TA.AperFunction,ViaPad*
%ADD20C,0.800000*%
G04 #@! TD*
G04 #@! TA.AperFunction,ViaPad*
%ADD21C,0.700000*%
G04 #@! TD*
G04 APERTURE END LIST*
D10*
X13600000Y-7400000D03*
X11100000Y-7400000D03*
X8600000Y-7400000D03*
D11*
X15500000Y-14400000D03*
D12*
X6700000Y-14400000D03*
D13*
X64000000Y-4500000D03*
D14*
X40100000Y-31700000D03*
X38850000Y-31700000D03*
D10*
X36500000Y-7400000D03*
X34000000Y-7400000D03*
X31500000Y-7400000D03*
D11*
X38400000Y-14400000D03*
D12*
X29600000Y-14400000D03*
D15*
X39000000Y-1100000D03*
X37000000Y-1100000D03*
X33000000Y-1100000D03*
X31000000Y-1100000D03*
X29000000Y-1100000D03*
X29000000Y-4400000D03*
X31000000Y-4400000D03*
X33000000Y-4400000D03*
X37000000Y-4400000D03*
X39000000Y-4400000D03*
D16*
X4270000Y-9000000D03*
D17*
X1730000Y-9000000D03*
D10*
X59400000Y-7400000D03*
X56900000Y-7400000D03*
X54400000Y-7400000D03*
D11*
X61300000Y-14400000D03*
D12*
X52500000Y-14400000D03*
D15*
X21000000Y-1100000D03*
X19000000Y-1100000D03*
X15000000Y-1100000D03*
X13000000Y-1100000D03*
X11000000Y-1100000D03*
X11000000Y-4400000D03*
X13000000Y-4400000D03*
X15000000Y-4400000D03*
X19000000Y-4400000D03*
X21000000Y-4400000D03*
X57000000Y-1100000D03*
X55000000Y-1100000D03*
X51000000Y-1100000D03*
X49000000Y-1100000D03*
X47000000Y-1100000D03*
X47000000Y-4400000D03*
X49000000Y-4400000D03*
X51000000Y-4400000D03*
X55000000Y-4400000D03*
X57000000Y-4400000D03*
D18*
X65200000Y-13300000D03*
D19*
X7700000Y-27300000D03*
X22600000Y-24800000D03*
X22600000Y-29800000D03*
X60300000Y-27300000D03*
X45400000Y-29800000D03*
X45400000Y-24800000D03*
D20*
X900000Y-33220000D03*
D21*
X48000000Y-5275850D03*
X46700000Y-10300000D03*
D20*
X49074150Y-19700000D03*
X46600000Y-14900000D03*
X45400000Y-19850000D03*
X23200000Y-8000000D03*
X26250000Y-8050000D03*
D21*
X24100000Y-18150000D03*
X20250000Y-19550000D03*
X24550000Y-15550000D03*
D20*
X22250000Y-22525850D03*
X52750000Y-29650000D03*
X50843462Y-25621186D03*
X7300000Y-33500000D03*
D21*
X47244774Y-9004729D03*
X1600000Y-16348205D03*
D20*
X15000000Y-17500000D03*
X57000000Y-10000000D03*
X6000000Y-7500000D03*
X65500000Y-27500000D03*
X10000000Y-16500000D03*
X38000000Y-23000000D03*
X12500000Y-12500000D03*
X26099006Y-19850000D03*
X8900000Y-31300000D03*
X12500000Y-32000000D03*
X37500000Y-17000000D03*
D21*
X31600000Y-30700000D03*
D20*
X67200000Y-18700000D03*
X1000000Y-6500000D03*
X34000000Y-28216418D03*
X54000000Y-18000000D03*
D21*
X22823192Y-10464368D03*
D20*
X48177409Y-26426388D03*
X24500000Y-31500000D03*
X20100000Y-27700000D03*
X1700000Y-25200000D03*
X13200000Y-28000000D03*
X10000000Y-10000000D03*
X1000000Y-2000000D03*
X58000000Y-6000000D03*
X35000000Y-4500000D03*
X66900000Y-7500000D03*
X35500000Y-22000000D03*
X26475939Y-24740881D03*
X47500000Y-32000000D03*
X12667237Y-22332763D03*
X1000000Y-27700000D03*
D21*
X3249500Y-16043034D03*
D20*
X28200000Y-28216418D03*
D21*
X25016828Y-5022013D03*
D20*
X35000000Y-10500000D03*
X36800000Y-31400000D03*
X21000000Y-31500000D03*
D21*
X19600000Y-22249503D03*
X17971915Y-15197968D03*
D20*
X27500000Y-2500000D03*
X59500000Y-9500000D03*
D21*
X21800000Y-14550000D03*
D20*
X17000000Y-19500000D03*
X63500000Y-18000000D03*
D21*
X29401531Y-21360423D03*
D20*
X60000000Y-2500000D03*
X56900000Y-26800000D03*
X4300000Y-24100000D03*
X18032763Y-27367237D03*
X25295674Y-23392583D03*
X18824150Y-7850000D03*
X42469782Y-30974384D03*
X10000000Y-33000000D03*
X5688733Y-25175205D03*
X7900000Y-30100000D03*
X51400500Y-23700498D03*
D21*
X17550000Y-18050000D03*
D20*
X14917237Y-26582763D03*
X46038707Y-27410793D03*
D21*
X53727593Y-11872407D03*
D20*
X42500000Y-1000000D03*
X9700000Y-21600000D03*
X38100000Y-21324150D03*
X7500000Y-10000000D03*
X19000000Y-31000000D03*
X23000000Y-1500000D03*
X13300000Y-25200000D03*
X43500000Y-17000000D03*
X20430000Y-32700000D03*
X34500000Y-16500000D03*
X37798315Y-11176475D03*
X56000000Y-13000000D03*
X40500000Y-21500000D03*
X26000000Y-28966418D03*
X10000000Y-30500000D03*
D21*
X58531415Y-22132884D03*
X19200000Y-24200000D03*
D20*
X32000000Y-11000000D03*
D21*
X50044751Y-10560434D03*
D20*
X5600000Y-31500000D03*
X29950000Y-8455850D03*
X34500000Y-19500000D03*
X49500000Y-34000000D03*
X65000000Y-33000000D03*
X17500000Y-4099500D03*
X41500000Y-10000000D03*
X42000000Y-23000000D03*
X50136419Y-15063627D03*
X67000000Y-10000000D03*
X24600000Y-27500000D03*
X31500000Y-16500000D03*
X37000000Y-9000000D03*
D21*
X24050000Y-19850000D03*
D20*
X17000000Y-1500000D03*
X47250000Y-23550000D03*
X10000000Y-19000000D03*
X12500000Y-27000000D03*
D21*
X32792143Y-25625850D03*
X4850500Y-18700000D03*
D20*
X61000000Y-33500000D03*
X34410315Y-32886772D03*
X9000000Y-5500000D03*
X56000000Y-3000000D03*
X24000000Y-3500000D03*
X15000000Y-10000000D03*
D21*
X30440000Y-6299500D03*
X47434875Y-11798739D03*
D20*
X17000000Y-12000000D03*
D21*
X42605976Y-17473108D03*
D20*
X49500000Y-28550000D03*
X56000000Y-29000000D03*
X20225498Y-16274150D03*
X66000000Y-23500000D03*
X57000000Y-33500000D03*
X43500000Y-12000000D03*
D21*
X40274123Y-12474078D03*
D20*
X62800000Y-29000000D03*
X14500000Y-19500000D03*
X49800000Y-17000000D03*
X10000000Y-2500000D03*
X60500000Y-11500000D03*
X26000000Y-17500000D03*
X40500000Y-2000000D03*
X1900000Y-23300000D03*
X26500000Y-5000000D03*
X10000000Y-12500000D03*
X10723543Y-25876457D03*
X12500000Y-18500000D03*
X41980648Y-28238703D03*
X56000000Y-19500000D03*
D21*
X27229428Y-10425850D03*
D20*
X28500000Y-17000000D03*
X63500000Y-22000000D03*
X63500000Y-10000000D03*
X42000000Y-4500000D03*
X34000000Y-13000000D03*
X31942453Y-21800500D03*
X37500000Y-19500000D03*
X38000000Y-25200000D03*
X43500000Y-34000000D03*
X45500000Y-3000000D03*
X41000000Y-19000000D03*
X54000000Y-27000000D03*
X12500000Y-10000000D03*
X37950000Y-28750000D03*
X35000000Y-2000000D03*
X36500000Y-34500000D03*
X40500000Y-29500000D03*
X53000000Y-2000000D03*
D21*
X55828600Y-21971400D03*
D20*
X7800000Y-4000000D03*
X58500000Y-19000000D03*
X56000000Y-16000000D03*
X31500000Y-19500000D03*
X7500000Y-17000000D03*
D21*
X60175850Y-21855987D03*
D20*
X51499958Y-19706182D03*
X6720000Y-25370000D03*
X51750000Y-26150000D03*
X52050000Y-20600000D03*
X27513957Y-24586043D03*
X52300000Y-22750000D03*
X25049503Y-19850000D03*
X42450000Y-27300000D03*
X47600000Y-25550000D03*
X26267350Y-22995972D03*
D21*
X24050000Y-5150000D03*
X42400000Y-18400000D03*
X51000000Y-10700000D03*
X60950000Y-22423898D03*
X56500000Y-21300000D03*
X57575000Y-22100000D03*
X46700000Y-12400000D03*
X39500000Y-11700000D03*
X47300000Y-8000000D03*
X18105283Y-14257879D03*
X21230000Y-13480000D03*
X29708213Y-5489559D03*
X21875000Y-10414502D03*
D20*
X18850000Y-25149503D03*
X32413329Y-30119051D03*
D21*
X26500000Y-11200000D03*
X52827593Y-10972407D03*
X29614944Y-20435215D03*
X19600000Y-21300000D03*
X33400000Y-26400000D03*
G04 #@! TA.AperFunction,Conductor*
G36*
X9952781Y-420462D02*
G01*
X10007319Y-475000D01*
X10027281Y-549500D01*
X10011661Y-615914D01*
X9969417Y-700751D01*
X9969416Y-700753D01*
X9913602Y-896921D01*
X9894785Y-1099995D01*
X9894785Y-1100004D01*
X9913602Y-1303078D01*
X9969416Y-1499245D01*
X9969417Y-1499247D01*
X9969418Y-1499250D01*
X10000000Y-1560667D01*
X10060328Y-1681823D01*
X10075045Y-1701311D01*
X10183236Y-1844579D01*
X10333958Y-1981980D01*
X10333963Y-1981984D01*
X10507356Y-2089344D01*
X10507367Y-2089350D01*
X10623332Y-2134274D01*
X10697544Y-2163024D01*
X10898024Y-2200500D01*
X10898027Y-2200500D01*
X11101973Y-2200500D01*
X11101976Y-2200500D01*
X11302456Y-2163024D01*
X11492637Y-2089348D01*
X11666041Y-1981981D01*
X11816764Y-1844579D01*
X11881096Y-1759388D01*
X11941921Y-1711967D01*
X12018310Y-1701311D01*
X12089792Y-1730277D01*
X12118902Y-1759387D01*
X12183236Y-1844579D01*
X12333958Y-1981980D01*
X12333963Y-1981984D01*
X12507356Y-2089344D01*
X12507367Y-2089350D01*
X12623332Y-2134274D01*
X12697544Y-2163024D01*
X12898024Y-2200500D01*
X12898027Y-2200500D01*
X13101973Y-2200500D01*
X13101976Y-2200500D01*
X13302456Y-2163024D01*
X13492637Y-2089348D01*
X13666041Y-1981981D01*
X13816764Y-1844579D01*
X13881096Y-1759388D01*
X13941921Y-1711967D01*
X14018310Y-1701311D01*
X14089792Y-1730277D01*
X14118902Y-1759387D01*
X14183236Y-1844579D01*
X14333958Y-1981980D01*
X14333963Y-1981984D01*
X14507356Y-2089344D01*
X14507367Y-2089350D01*
X14623332Y-2134274D01*
X14697544Y-2163024D01*
X14898024Y-2200500D01*
X14898027Y-2200500D01*
X15101973Y-2200500D01*
X15101976Y-2200500D01*
X15302456Y-2163024D01*
X15492637Y-2089348D01*
X15666041Y-1981981D01*
X15816764Y-1844579D01*
X15939673Y-1681821D01*
X16030582Y-1499250D01*
X16086397Y-1303083D01*
X16105215Y-1100000D01*
X16102272Y-1068242D01*
X16094760Y-987176D01*
X16086397Y-896917D01*
X16030582Y-700750D01*
X15988339Y-615914D01*
X15973002Y-540327D01*
X15997513Y-467197D01*
X16055305Y-416120D01*
X16121719Y-400500D01*
X17878281Y-400500D01*
X17952781Y-420462D01*
X18007319Y-475000D01*
X18027281Y-549500D01*
X18011661Y-615914D01*
X17969417Y-700751D01*
X17969416Y-700753D01*
X17913602Y-896921D01*
X17894785Y-1099995D01*
X17894785Y-1100004D01*
X17913602Y-1303078D01*
X17969416Y-1499245D01*
X17969417Y-1499247D01*
X17969418Y-1499250D01*
X18000000Y-1560667D01*
X18060328Y-1681823D01*
X18075045Y-1701311D01*
X18183236Y-1844579D01*
X18333958Y-1981980D01*
X18333963Y-1981984D01*
X18507356Y-2089344D01*
X18507367Y-2089350D01*
X18623332Y-2134274D01*
X18697544Y-2163024D01*
X18898024Y-2200500D01*
X18898027Y-2200500D01*
X19101973Y-2200500D01*
X19101976Y-2200500D01*
X19302456Y-2163024D01*
X19492637Y-2089348D01*
X19666041Y-1981981D01*
X19816764Y-1844579D01*
X19881096Y-1759388D01*
X19941921Y-1711967D01*
X20018310Y-1701311D01*
X20089792Y-1730277D01*
X20118902Y-1759387D01*
X20183236Y-1844579D01*
X20333958Y-1981980D01*
X20333963Y-1981984D01*
X20507356Y-2089344D01*
X20507367Y-2089350D01*
X20623332Y-2134274D01*
X20697544Y-2163024D01*
X20898024Y-2200500D01*
X20898027Y-2200500D01*
X21101973Y-2200500D01*
X21101976Y-2200500D01*
X21302456Y-2163024D01*
X21492637Y-2089348D01*
X21666041Y-1981981D01*
X21816764Y-1844579D01*
X21939673Y-1681821D01*
X22030582Y-1499250D01*
X22086397Y-1303083D01*
X22105215Y-1100000D01*
X22102272Y-1068242D01*
X22094760Y-987176D01*
X22086397Y-896917D01*
X22030582Y-700750D01*
X21988339Y-615914D01*
X21973002Y-540327D01*
X21997513Y-467197D01*
X22055305Y-416120D01*
X22121719Y-400500D01*
X27878281Y-400500D01*
X27952781Y-420462D01*
X28007319Y-475000D01*
X28027281Y-549500D01*
X28011661Y-615914D01*
X27969417Y-700751D01*
X27969416Y-700753D01*
X27913602Y-896921D01*
X27894785Y-1099995D01*
X27894785Y-1100004D01*
X27913602Y-1303078D01*
X27969416Y-1499245D01*
X27969417Y-1499247D01*
X27969418Y-1499250D01*
X28000000Y-1560667D01*
X28060328Y-1681823D01*
X28075045Y-1701311D01*
X28183236Y-1844579D01*
X28333958Y-1981980D01*
X28333963Y-1981984D01*
X28507356Y-2089344D01*
X28507367Y-2089350D01*
X28623332Y-2134274D01*
X28697544Y-2163024D01*
X28898024Y-2200500D01*
X28898027Y-2200500D01*
X29101973Y-2200500D01*
X29101976Y-2200500D01*
X29302456Y-2163024D01*
X29492637Y-2089348D01*
X29666041Y-1981981D01*
X29816764Y-1844579D01*
X29881096Y-1759388D01*
X29941921Y-1711967D01*
X30018310Y-1701311D01*
X30089792Y-1730277D01*
X30118902Y-1759387D01*
X30183236Y-1844579D01*
X30333958Y-1981980D01*
X30333963Y-1981984D01*
X30507356Y-2089344D01*
X30507367Y-2089350D01*
X30623332Y-2134274D01*
X30697544Y-2163024D01*
X30898024Y-2200500D01*
X30898027Y-2200500D01*
X31101973Y-2200500D01*
X31101976Y-2200500D01*
X31302456Y-2163024D01*
X31492637Y-2089348D01*
X31666041Y-1981981D01*
X31816764Y-1844579D01*
X31881096Y-1759388D01*
X31941921Y-1711967D01*
X32018310Y-1701311D01*
X32089792Y-1730277D01*
X32118902Y-1759387D01*
X32183236Y-1844579D01*
X32333958Y-1981980D01*
X32333963Y-1981984D01*
X32507356Y-2089344D01*
X32507367Y-2089350D01*
X32623332Y-2134274D01*
X32697544Y-2163024D01*
X32898024Y-2200500D01*
X32898027Y-2200500D01*
X33101973Y-2200500D01*
X33101976Y-2200500D01*
X33302456Y-2163024D01*
X33492637Y-2089348D01*
X33666041Y-1981981D01*
X33816764Y-1844579D01*
X33939673Y-1681821D01*
X34030582Y-1499250D01*
X34086397Y-1303083D01*
X34105215Y-1100000D01*
X34102272Y-1068242D01*
X34094760Y-987176D01*
X34086397Y-896917D01*
X34030582Y-700750D01*
X33988339Y-615914D01*
X33973002Y-540327D01*
X33997513Y-467197D01*
X34055305Y-416120D01*
X34121719Y-400500D01*
X35878281Y-400500D01*
X35952781Y-420462D01*
X36007319Y-475000D01*
X36027281Y-549500D01*
X36011661Y-615914D01*
X35969417Y-700751D01*
X35969416Y-700753D01*
X35913602Y-896921D01*
X35894785Y-1099995D01*
X35894785Y-1100004D01*
X35913602Y-1303078D01*
X35969416Y-1499245D01*
X35969417Y-1499247D01*
X35969418Y-1499250D01*
X36000000Y-1560667D01*
X36060328Y-1681823D01*
X36075045Y-1701311D01*
X36183236Y-1844579D01*
X36333958Y-1981980D01*
X36333963Y-1981984D01*
X36507356Y-2089344D01*
X36507367Y-2089350D01*
X36623332Y-2134274D01*
X36697544Y-2163024D01*
X36898024Y-2200500D01*
X36898027Y-2200500D01*
X37101973Y-2200500D01*
X37101976Y-2200500D01*
X37302456Y-2163024D01*
X37492637Y-2089348D01*
X37666041Y-1981981D01*
X37816764Y-1844579D01*
X37881096Y-1759388D01*
X37941921Y-1711967D01*
X38018310Y-1701311D01*
X38089792Y-1730277D01*
X38118902Y-1759387D01*
X38183236Y-1844579D01*
X38333958Y-1981980D01*
X38333963Y-1981984D01*
X38507356Y-2089344D01*
X38507367Y-2089350D01*
X38623332Y-2134274D01*
X38697544Y-2163024D01*
X38898024Y-2200500D01*
X38898027Y-2200500D01*
X39101973Y-2200500D01*
X39101976Y-2200500D01*
X39302456Y-2163024D01*
X39492637Y-2089348D01*
X39666041Y-1981981D01*
X39816764Y-1844579D01*
X39939673Y-1681821D01*
X40030582Y-1499250D01*
X40086397Y-1303083D01*
X40105215Y-1100000D01*
X40102272Y-1068242D01*
X40094760Y-987176D01*
X40086397Y-896917D01*
X40030582Y-700750D01*
X39988339Y-615914D01*
X39973002Y-540327D01*
X39997513Y-467197D01*
X40055305Y-416120D01*
X40121719Y-400500D01*
X45878281Y-400500D01*
X45952781Y-420462D01*
X46007319Y-475000D01*
X46027281Y-549500D01*
X46011661Y-615914D01*
X45969417Y-700751D01*
X45969416Y-700753D01*
X45913602Y-896921D01*
X45894785Y-1099995D01*
X45894785Y-1100004D01*
X45913602Y-1303078D01*
X45969416Y-1499245D01*
X45969417Y-1499247D01*
X45969418Y-1499250D01*
X46000000Y-1560667D01*
X46060328Y-1681823D01*
X46075045Y-1701311D01*
X46183236Y-1844579D01*
X46333958Y-1981980D01*
X46333963Y-1981984D01*
X46507356Y-2089344D01*
X46507367Y-2089350D01*
X46623332Y-2134274D01*
X46697544Y-2163024D01*
X46898024Y-2200500D01*
X46898027Y-2200500D01*
X47101973Y-2200500D01*
X47101976Y-2200500D01*
X47302456Y-2163024D01*
X47492637Y-2089348D01*
X47666041Y-1981981D01*
X47816764Y-1844579D01*
X47881096Y-1759388D01*
X47941921Y-1711967D01*
X48018310Y-1701311D01*
X48089792Y-1730277D01*
X48118902Y-1759387D01*
X48183236Y-1844579D01*
X48333958Y-1981980D01*
X48333963Y-1981984D01*
X48507356Y-2089344D01*
X48507367Y-2089350D01*
X48623332Y-2134274D01*
X48697544Y-2163024D01*
X48898024Y-2200500D01*
X48898027Y-2200500D01*
X49101973Y-2200500D01*
X49101976Y-2200500D01*
X49302456Y-2163024D01*
X49492637Y-2089348D01*
X49666041Y-1981981D01*
X49816764Y-1844579D01*
X49881096Y-1759388D01*
X49941921Y-1711967D01*
X50018310Y-1701311D01*
X50089792Y-1730277D01*
X50118902Y-1759387D01*
X50183236Y-1844579D01*
X50333958Y-1981980D01*
X50333963Y-1981984D01*
X50507356Y-2089344D01*
X50507367Y-2089350D01*
X50623332Y-2134274D01*
X50697544Y-2163024D01*
X50898024Y-2200500D01*
X50898027Y-2200500D01*
X51101973Y-2200500D01*
X51101976Y-2200500D01*
X51302456Y-2163024D01*
X51492637Y-2089348D01*
X51666041Y-1981981D01*
X51816764Y-1844579D01*
X51939673Y-1681821D01*
X52030582Y-1499250D01*
X52086397Y-1303083D01*
X52105215Y-1100000D01*
X52102272Y-1068242D01*
X52094760Y-987176D01*
X52086397Y-896917D01*
X52030582Y-700750D01*
X51988339Y-615914D01*
X51973002Y-540327D01*
X51997513Y-467197D01*
X52055305Y-416120D01*
X52121719Y-400500D01*
X53878281Y-400500D01*
X53952781Y-420462D01*
X54007319Y-475000D01*
X54027281Y-549500D01*
X54011661Y-615914D01*
X53969417Y-700751D01*
X53969416Y-700753D01*
X53913602Y-896921D01*
X53894785Y-1099995D01*
X53894785Y-1100004D01*
X53913602Y-1303078D01*
X53969416Y-1499245D01*
X53969417Y-1499247D01*
X53969418Y-1499250D01*
X54000000Y-1560667D01*
X54060328Y-1681823D01*
X54075045Y-1701311D01*
X54183236Y-1844579D01*
X54333958Y-1981980D01*
X54333963Y-1981984D01*
X54507356Y-2089344D01*
X54507367Y-2089350D01*
X54623332Y-2134274D01*
X54697544Y-2163024D01*
X54898024Y-2200500D01*
X54898027Y-2200500D01*
X55101973Y-2200500D01*
X55101976Y-2200500D01*
X55302456Y-2163024D01*
X55492637Y-2089348D01*
X55666041Y-1981981D01*
X55816764Y-1844579D01*
X55881096Y-1759388D01*
X55941921Y-1711967D01*
X56018310Y-1701311D01*
X56089792Y-1730277D01*
X56118902Y-1759387D01*
X56183236Y-1844579D01*
X56333958Y-1981980D01*
X56333963Y-1981984D01*
X56507356Y-2089344D01*
X56507367Y-2089350D01*
X56623332Y-2134274D01*
X56697544Y-2163024D01*
X56898024Y-2200500D01*
X56898027Y-2200500D01*
X57101973Y-2200500D01*
X57101976Y-2200500D01*
X57302456Y-2163024D01*
X57492637Y-2089348D01*
X57666041Y-1981981D01*
X57816764Y-1844579D01*
X57939673Y-1681821D01*
X58030582Y-1499250D01*
X58086397Y-1303083D01*
X58105215Y-1100000D01*
X58102272Y-1068242D01*
X58094760Y-987176D01*
X58086397Y-896917D01*
X58030582Y-700750D01*
X57988339Y-615914D01*
X57973002Y-540327D01*
X57997513Y-467197D01*
X58055305Y-416120D01*
X58121719Y-400500D01*
X59549302Y-400500D01*
X59623802Y-420462D01*
X59678340Y-475000D01*
X59691009Y-503456D01*
X59702105Y-537608D01*
X59802185Y-734023D01*
X59802186Y-734024D01*
X59866971Y-823193D01*
X59931758Y-912365D01*
X60087635Y-1068242D01*
X60230625Y-1172129D01*
X60265975Y-1197813D01*
X60265976Y-1197814D01*
X60265978Y-1197815D01*
X60462394Y-1297895D01*
X60549512Y-1326201D01*
X60672043Y-1366014D01*
X60672048Y-1366014D01*
X60672049Y-1366015D01*
X60889778Y-1400500D01*
X60968481Y-1400500D01*
X62310860Y-1400500D01*
X62385360Y-1420462D01*
X62439898Y-1475000D01*
X62459860Y-1549500D01*
X62439898Y-1624000D01*
X62387677Y-1677172D01*
X62173467Y-1806057D01*
X61892904Y-2019336D01*
X61882625Y-2029072D01*
X63055819Y-3202266D01*
X62865130Y-3365130D01*
X62702266Y-3555819D01*
X61531914Y-2385467D01*
X61531913Y-2385467D01*
X61408897Y-2530294D01*
X61211120Y-2821994D01*
X61046052Y-3133347D01*
X61046048Y-3133354D01*
X60915604Y-3460745D01*
X60821321Y-3800321D01*
X60764307Y-4148096D01*
X60764306Y-4148106D01*
X60745227Y-4499991D01*
X60745227Y-4500008D01*
X60764306Y-4851893D01*
X60764307Y-4851903D01*
X60821321Y-5199678D01*
X60915604Y-5539254D01*
X61046048Y-5866645D01*
X61046052Y-5866652D01*
X61211120Y-6178005D01*
X61408893Y-6469699D01*
X61531914Y-6614531D01*
X62702265Y-5444179D01*
X62865130Y-5634870D01*
X63055819Y-5797733D01*
X61882625Y-6970927D01*
X61892894Y-6980654D01*
X61892905Y-6980664D01*
X62173467Y-7193942D01*
X62475431Y-7375628D01*
X62795286Y-7523608D01*
X62795296Y-7523613D01*
X63129253Y-7636135D01*
X63129267Y-7636139D01*
X63473428Y-7711894D01*
X63823789Y-7749999D01*
X63823799Y-7750000D01*
X64176201Y-7750000D01*
X64176210Y-7749999D01*
X64526571Y-7711894D01*
X64870732Y-7636139D01*
X64870746Y-7636135D01*
X65204703Y-7523613D01*
X65204713Y-7523608D01*
X65524568Y-7375628D01*
X65826532Y-7193942D01*
X66107090Y-6980667D01*
X66107091Y-6980666D01*
X66117373Y-6970926D01*
X64944180Y-5797733D01*
X65134870Y-5634870D01*
X65297733Y-5444180D01*
X66468084Y-6614531D01*
X66468085Y-6614531D01*
X66591097Y-6469710D01*
X66591106Y-6469698D01*
X66788874Y-6178014D01*
X66788877Y-6178009D01*
X66953947Y-5866652D01*
X66953951Y-5866645D01*
X67084395Y-5539254D01*
X67178678Y-5199678D01*
X67235692Y-4851903D01*
X67235693Y-4851893D01*
X67254773Y-4500008D01*
X67254773Y-4499991D01*
X67235693Y-4148106D01*
X67235692Y-4148096D01*
X67178678Y-3800321D01*
X67084395Y-3460745D01*
X66953951Y-3133354D01*
X66953947Y-3133347D01*
X66788879Y-2821994D01*
X66591106Y-2530300D01*
X66468084Y-2385467D01*
X65297732Y-3555818D01*
X65134870Y-3365130D01*
X64944179Y-3202265D01*
X66117374Y-2029071D01*
X66107105Y-2019345D01*
X66107094Y-2019335D01*
X65826532Y-1806057D01*
X65612323Y-1677172D01*
X65558778Y-1621658D01*
X65540164Y-1546810D01*
X65561468Y-1472683D01*
X65616982Y-1419138D01*
X65689140Y-1400500D01*
X67450500Y-1400500D01*
X67525000Y-1420462D01*
X67579538Y-1475000D01*
X67599500Y-1549500D01*
X67599500Y-33950500D01*
X67579538Y-34025000D01*
X67525000Y-34079538D01*
X67450500Y-34099500D01*
X61057583Y-34099500D01*
X61000000Y-34099500D01*
X60889778Y-34099500D01*
X60802686Y-34113294D01*
X60672043Y-34133985D01*
X60462393Y-34202105D01*
X60265976Y-34302185D01*
X60265975Y-34302186D01*
X60087636Y-34431757D01*
X60087633Y-34431759D01*
X59931759Y-34587633D01*
X59931757Y-34587636D01*
X59802186Y-34765975D01*
X59802185Y-34765976D01*
X59702105Y-34962391D01*
X59691009Y-34996544D01*
X59649002Y-35061229D01*
X59580280Y-35096244D01*
X59549302Y-35099500D01*
X8450698Y-35099500D01*
X8376198Y-35079538D01*
X8321660Y-35025000D01*
X8308991Y-34996544D01*
X8297894Y-34962391D01*
X8197814Y-34765976D01*
X8197813Y-34765975D01*
X8172129Y-34730625D01*
X8068242Y-34587635D01*
X7912365Y-34431758D01*
X7823193Y-34366971D01*
X7734024Y-34302186D01*
X7734023Y-34302185D01*
X7537606Y-34202105D01*
X7327956Y-34133985D01*
X7206990Y-34114826D01*
X7110222Y-34099500D01*
X7110218Y-34099500D01*
X549500Y-34099500D01*
X475000Y-34079538D01*
X420462Y-34025000D01*
X400500Y-33950500D01*
X400500Y-31969605D01*
X26395687Y-31969605D01*
X26426111Y-32246111D01*
X26426114Y-32246125D01*
X26488342Y-32484151D01*
X26496480Y-32515276D01*
X26605284Y-32771314D01*
X26605286Y-32771318D01*
X26605289Y-32771323D01*
X26750207Y-33008781D01*
X26750210Y-33008785D01*
X26928155Y-33222609D01*
X26928167Y-33222621D01*
X27135349Y-33408256D01*
X27135357Y-33408263D01*
X27367373Y-33561763D01*
X27619267Y-33679846D01*
X27885669Y-33759995D01*
X28160901Y-33800500D01*
X28160908Y-33800500D01*
X28369461Y-33800500D01*
X28369463Y-33800500D01*
X28577455Y-33785277D01*
X28848997Y-33724788D01*
X28849003Y-33724785D01*
X28849009Y-33724784D01*
X29108835Y-33625409D01*
X29108833Y-33625409D01*
X29108838Y-33625408D01*
X29351440Y-33489253D01*
X29571632Y-33319226D01*
X29764722Y-33118951D01*
X29926593Y-32892696D01*
X30053797Y-32645283D01*
X30143621Y-32381986D01*
X30194152Y-32108416D01*
X30204313Y-31830404D01*
X30204312Y-31830394D01*
X30189965Y-31700000D01*
X37944540Y-31700000D01*
X37964325Y-31888254D01*
X37964326Y-31888256D01*
X38022821Y-32068284D01*
X38022822Y-32068285D01*
X38117469Y-32232220D01*
X38244127Y-32372886D01*
X38244129Y-32372888D01*
X38397270Y-32484151D01*
X38570197Y-32561144D01*
X38711315Y-32591139D01*
X38755352Y-32600500D01*
X38755354Y-32600500D01*
X38944648Y-32600500D01*
X38984004Y-32592134D01*
X39129803Y-32561144D01*
X39302730Y-32484151D01*
X39387421Y-32422619D01*
X39459425Y-32394979D01*
X39535603Y-32407044D01*
X39562580Y-32422620D01*
X39647269Y-32484151D01*
X39716660Y-32515046D01*
X39820197Y-32561144D01*
X39961315Y-32591139D01*
X40005352Y-32600500D01*
X40005354Y-32600500D01*
X40194648Y-32600500D01*
X40234004Y-32592134D01*
X40379803Y-32561144D01*
X40552730Y-32484151D01*
X40705871Y-32372888D01*
X40778195Y-32292563D01*
X40832530Y-32232220D01*
X40832531Y-32232218D01*
X40832533Y-32232216D01*
X40927179Y-32068284D01*
X40985674Y-31888256D01*
X41005460Y-31700000D01*
X40985674Y-31511744D01*
X40927179Y-31331716D01*
X40832533Y-31167784D01*
X40832532Y-31167783D01*
X40832530Y-31167779D01*
X40705872Y-31027113D01*
X40705357Y-31026739D01*
X40552730Y-30915849D01*
X40552729Y-30915848D01*
X40552727Y-30915847D01*
X40379805Y-30838857D01*
X40379803Y-30838856D01*
X40273360Y-30816231D01*
X40194648Y-30799500D01*
X40194646Y-30799500D01*
X40005354Y-30799500D01*
X40005352Y-30799500D01*
X39905392Y-30820747D01*
X39820197Y-30838856D01*
X39820195Y-30838856D01*
X39820194Y-30838857D01*
X39647272Y-30915847D01*
X39562580Y-30977380D01*
X39490574Y-31005020D01*
X39414396Y-30992954D01*
X39387420Y-30977380D01*
X39322983Y-30930564D01*
X39302730Y-30915849D01*
X39302729Y-30915848D01*
X39302727Y-30915847D01*
X39129805Y-30838857D01*
X39129803Y-30838856D01*
X39023360Y-30816231D01*
X38944648Y-30799500D01*
X38944646Y-30799500D01*
X38755354Y-30799500D01*
X38755352Y-30799500D01*
X38655392Y-30820747D01*
X38570197Y-30838856D01*
X38570195Y-30838856D01*
X38570194Y-30838857D01*
X38397272Y-30915847D01*
X38244127Y-31027113D01*
X38117469Y-31167779D01*
X38022822Y-31331714D01*
X38022819Y-31331721D01*
X37964325Y-31511745D01*
X37944540Y-31700000D01*
X30189965Y-31700000D01*
X30173888Y-31553888D01*
X30173886Y-31553881D01*
X30173886Y-31553876D01*
X30103520Y-31284724D01*
X29994716Y-31028686D01*
X29993756Y-31027113D01*
X29849792Y-30791218D01*
X29849789Y-30791214D01*
X29671844Y-30577390D01*
X29671832Y-30577378D01*
X29464650Y-30391743D01*
X29464647Y-30391741D01*
X29464643Y-30391737D01*
X29232627Y-30238237D01*
X29204288Y-30224952D01*
X28980732Y-30120153D01*
X28977072Y-30119052D01*
X31607764Y-30119052D01*
X31627960Y-30298303D01*
X31627960Y-30298305D01*
X31627961Y-30298306D01*
X31687540Y-30468573D01*
X31783513Y-30621313D01*
X31911067Y-30748867D01*
X32063807Y-30844840D01*
X32234074Y-30904419D01*
X32323701Y-30914517D01*
X32413328Y-30924616D01*
X32413329Y-30924616D01*
X32413330Y-30924616D01*
X32458142Y-30919566D01*
X32592584Y-30904419D01*
X32762851Y-30844840D01*
X32915591Y-30748867D01*
X33043145Y-30621313D01*
X33139118Y-30468573D01*
X33198697Y-30298306D01*
X33213844Y-30163864D01*
X33218894Y-30119052D01*
X33218894Y-30119049D01*
X33198697Y-29939798D01*
X33198697Y-29939796D01*
X33139118Y-29769529D01*
X33043145Y-29616789D01*
X32976356Y-29550000D01*
X43420581Y-29550000D01*
X44366314Y-29550000D01*
X44340507Y-29590156D01*
X44300000Y-29728111D01*
X44300000Y-29871889D01*
X44340507Y-30009844D01*
X44366314Y-30050000D01*
X43421734Y-30050000D01*
X43456527Y-30211437D01*
X43545382Y-30432560D01*
X43670336Y-30635498D01*
X43827781Y-30814390D01*
X43827788Y-30814397D01*
X44013199Y-30964106D01*
X44221250Y-31080331D01*
X44221252Y-31080332D01*
X44445956Y-31159724D01*
X44680843Y-31199999D01*
X44680847Y-31200000D01*
X45150000Y-31200000D01*
X45150000Y-30300000D01*
X45650000Y-30300000D01*
X45650000Y-31200000D01*
X46059467Y-31200000D01*
X46237450Y-31184851D01*
X46237467Y-31184848D01*
X46468079Y-31124801D01*
X46468088Y-31124798D01*
X46685236Y-31026641D01*
X46882689Y-30893185D01*
X47054742Y-30728286D01*
X47196450Y-30536684D01*
X47303741Y-30323885D01*
X47373526Y-30096014D01*
X47379419Y-30050000D01*
X46433686Y-30050000D01*
X46459493Y-30009844D01*
X46500000Y-29871889D01*
X46500000Y-29728111D01*
X46459493Y-29590156D01*
X46433686Y-29550000D01*
X47378265Y-29550000D01*
X47343472Y-29388562D01*
X47254617Y-29167439D01*
X47129663Y-28964501D01*
X46972218Y-28785609D01*
X46972211Y-28785602D01*
X46786800Y-28635893D01*
X46578749Y-28519668D01*
X46578747Y-28519667D01*
X46354043Y-28440275D01*
X46119156Y-28400000D01*
X45650000Y-28400000D01*
X45650000Y-29300000D01*
X45150000Y-29300000D01*
X45150000Y-28400000D01*
X44740533Y-28400000D01*
X44562549Y-28415148D01*
X44562532Y-28415151D01*
X44331920Y-28475198D01*
X44331911Y-28475201D01*
X44114763Y-28573358D01*
X43917310Y-28706814D01*
X43745257Y-28871713D01*
X43603549Y-29063315D01*
X43496258Y-29276114D01*
X43426473Y-29503985D01*
X43420581Y-29550000D01*
X32976356Y-29550000D01*
X32915591Y-29489235D01*
X32762851Y-29393262D01*
X32592584Y-29333683D01*
X32592583Y-29333682D01*
X32592582Y-29333682D01*
X32413330Y-29313486D01*
X32413328Y-29313486D01*
X32234076Y-29333682D01*
X32063806Y-29393262D01*
X31911067Y-29489235D01*
X31783513Y-29616789D01*
X31687540Y-29769528D01*
X31627960Y-29939798D01*
X31607764Y-30119049D01*
X31607764Y-30119052D01*
X28977072Y-30119052D01*
X28831353Y-30075212D01*
X28714331Y-30040005D01*
X28714325Y-30040004D01*
X28439108Y-29999501D01*
X28439104Y-29999500D01*
X28439099Y-29999500D01*
X28230537Y-29999500D01*
X28089207Y-30009844D01*
X28022545Y-30014723D01*
X28022537Y-30014724D01*
X27751005Y-30075211D01*
X27750990Y-30075215D01*
X27491164Y-30174590D01*
X27491158Y-30174593D01*
X27248561Y-30310745D01*
X27028369Y-30480772D01*
X27028364Y-30480777D01*
X26835277Y-30681049D01*
X26673407Y-30907302D01*
X26546205Y-31154712D01*
X26456379Y-31418012D01*
X26456377Y-31418021D01*
X26405848Y-31691577D01*
X26395687Y-31969605D01*
X400500Y-31969605D01*
X400500Y-29800000D01*
X20694532Y-29800000D01*
X20714365Y-30026693D01*
X20732940Y-30096014D01*
X20773261Y-30246496D01*
X20869432Y-30452734D01*
X20887866Y-30479062D01*
X20999951Y-30639137D01*
X20999953Y-30639139D01*
X21160861Y-30800047D01*
X21347266Y-30930568D01*
X21553504Y-31026739D01*
X21773308Y-31085635D01*
X21943216Y-31100500D01*
X21943221Y-31100500D01*
X23256779Y-31100500D01*
X23256784Y-31100500D01*
X23426692Y-31085635D01*
X23646496Y-31026739D01*
X23852734Y-30930568D01*
X24039139Y-30800047D01*
X24200047Y-30639139D01*
X24330568Y-30452734D01*
X24426739Y-30246496D01*
X24485635Y-30026692D01*
X24505468Y-29800000D01*
X24485635Y-29573308D01*
X24426739Y-29353504D01*
X24330568Y-29147266D01*
X24200047Y-28960861D01*
X24039139Y-28799953D01*
X24039137Y-28799951D01*
X23852741Y-28669437D01*
X23852738Y-28669435D01*
X23852734Y-28669432D01*
X23646496Y-28573261D01*
X23426692Y-28514365D01*
X23426693Y-28514365D01*
X23398374Y-28511887D01*
X23256784Y-28499500D01*
X21943216Y-28499500D01*
X21821853Y-28510117D01*
X21773306Y-28514365D01*
X21553507Y-28573260D01*
X21553506Y-28573260D01*
X21553504Y-28573261D01*
X21347266Y-28669432D01*
X21347263Y-28669434D01*
X21347261Y-28669435D01*
X21347258Y-28669437D01*
X21160862Y-28799951D01*
X20999951Y-28960862D01*
X20869437Y-29147258D01*
X20869435Y-29147261D01*
X20869434Y-29147263D01*
X20869432Y-29147266D01*
X20782504Y-29333683D01*
X20773260Y-29353507D01*
X20714365Y-29573306D01*
X20694532Y-29800000D01*
X400500Y-29800000D01*
X400500Y-27050000D01*
X5720581Y-27050000D01*
X6666314Y-27050000D01*
X6640507Y-27090156D01*
X6600000Y-27228111D01*
X6600000Y-27371889D01*
X6640507Y-27509844D01*
X6666314Y-27550000D01*
X5721734Y-27550000D01*
X5756527Y-27711437D01*
X5845382Y-27932560D01*
X5970336Y-28135498D01*
X6127781Y-28314390D01*
X6127788Y-28314397D01*
X6313199Y-28464106D01*
X6521250Y-28580331D01*
X6521252Y-28580332D01*
X6745956Y-28659724D01*
X6980843Y-28699999D01*
X6980847Y-28700000D01*
X7450000Y-28700000D01*
X7450000Y-27800000D01*
X7950000Y-27800000D01*
X7950000Y-28700000D01*
X8359467Y-28700000D01*
X8537450Y-28684851D01*
X8537467Y-28684848D01*
X8768079Y-28624801D01*
X8768088Y-28624798D01*
X8985236Y-28526641D01*
X9182689Y-28393185D01*
X9354742Y-28228286D01*
X9496450Y-28036684D01*
X9603741Y-27823885D01*
X9673526Y-27596014D01*
X9679419Y-27550000D01*
X8733686Y-27550000D01*
X8759493Y-27509844D01*
X8800000Y-27371889D01*
X8800000Y-27300001D01*
X41644435Y-27300001D01*
X41664631Y-27479252D01*
X41664631Y-27479254D01*
X41664632Y-27479255D01*
X41724211Y-27649522D01*
X41820184Y-27802262D01*
X41947738Y-27929816D01*
X42100478Y-28025789D01*
X42270745Y-28085368D01*
X42360372Y-28095466D01*
X42449999Y-28105565D01*
X42450000Y-28105565D01*
X42450001Y-28105565D01*
X42494813Y-28100515D01*
X42629255Y-28085368D01*
X42799522Y-28025789D01*
X42952262Y-27929816D01*
X43079816Y-27802262D01*
X43175789Y-27649522D01*
X43235368Y-27479255D01*
X43255565Y-27300000D01*
X43235368Y-27120745D01*
X43210613Y-27050000D01*
X58320581Y-27050000D01*
X59266314Y-27050000D01*
X59240507Y-27090156D01*
X59200000Y-27228111D01*
X59200000Y-27371889D01*
X59240507Y-27509844D01*
X59266314Y-27550000D01*
X58321734Y-27550000D01*
X58356527Y-27711437D01*
X58445382Y-27932560D01*
X58570336Y-28135498D01*
X58727781Y-28314390D01*
X58727788Y-28314397D01*
X58913199Y-28464106D01*
X59121250Y-28580331D01*
X59121252Y-28580332D01*
X59345956Y-28659724D01*
X59580843Y-28699999D01*
X59580847Y-28700000D01*
X60050000Y-28700000D01*
X60050000Y-27800000D01*
X60550000Y-27800000D01*
X60550000Y-28700000D01*
X60959467Y-28700000D01*
X61137450Y-28684851D01*
X61137467Y-28684848D01*
X61368079Y-28624801D01*
X61368088Y-28624798D01*
X61585236Y-28526641D01*
X61782689Y-28393185D01*
X61954742Y-28228286D01*
X62096450Y-28036684D01*
X62203741Y-27823885D01*
X62273526Y-27596014D01*
X62279419Y-27550000D01*
X61333686Y-27550000D01*
X61359493Y-27509844D01*
X61400000Y-27371889D01*
X61400000Y-27228111D01*
X61359493Y-27090156D01*
X61333686Y-27050000D01*
X62278265Y-27050000D01*
X62243472Y-26888562D01*
X62154617Y-26667439D01*
X62029663Y-26464501D01*
X61872218Y-26285609D01*
X61872211Y-26285602D01*
X61686800Y-26135893D01*
X61478749Y-26019668D01*
X61478747Y-26019667D01*
X61254043Y-25940275D01*
X61019156Y-25900000D01*
X60550000Y-25900000D01*
X60550000Y-26800000D01*
X60050000Y-26800000D01*
X60050000Y-25900000D01*
X59640533Y-25900000D01*
X59462549Y-25915148D01*
X59462532Y-25915151D01*
X59231920Y-25975198D01*
X59231911Y-25975201D01*
X59014763Y-26073358D01*
X58817310Y-26206814D01*
X58645257Y-26371713D01*
X58503549Y-26563315D01*
X58396258Y-26776114D01*
X58326473Y-27003985D01*
X58320581Y-27050000D01*
X43210613Y-27050000D01*
X43175789Y-26950478D01*
X43079816Y-26797738D01*
X42952262Y-26670184D01*
X42799522Y-26574211D01*
X42629255Y-26514632D01*
X42629254Y-26514631D01*
X42629253Y-26514631D01*
X42450001Y-26494435D01*
X42449999Y-26494435D01*
X42270747Y-26514631D01*
X42100477Y-26574211D01*
X41947738Y-26670184D01*
X41820184Y-26797738D01*
X41724211Y-26950477D01*
X41664631Y-27120747D01*
X41644435Y-27299998D01*
X41644435Y-27300001D01*
X8800000Y-27300001D01*
X8800000Y-27228111D01*
X8759493Y-27090156D01*
X8733686Y-27050000D01*
X9678265Y-27050000D01*
X9643472Y-26888562D01*
X9554617Y-26667439D01*
X9429663Y-26464501D01*
X9372895Y-26400000D01*
X32644751Y-26400000D01*
X32663686Y-26568056D01*
X32663686Y-26568058D01*
X32663687Y-26568059D01*
X32719544Y-26727690D01*
X32809523Y-26870890D01*
X32929110Y-26990477D01*
X33072310Y-27080456D01*
X33231941Y-27136313D01*
X33343980Y-27148937D01*
X33399999Y-27155249D01*
X33400000Y-27155249D01*
X33400001Y-27155249D01*
X33442014Y-27150515D01*
X33568059Y-27136313D01*
X33727690Y-27080456D01*
X33870890Y-26990477D01*
X33990477Y-26870890D01*
X34080456Y-26727690D01*
X34136313Y-26568059D01*
X34155249Y-26400000D01*
X34136313Y-26231941D01*
X34080456Y-26072310D01*
X33990477Y-25929110D01*
X33870890Y-25809523D01*
X33727690Y-25719544D01*
X33568059Y-25663687D01*
X33568058Y-25663686D01*
X33568056Y-25663686D01*
X33400001Y-25644751D01*
X33399999Y-25644751D01*
X33231943Y-25663686D01*
X33072309Y-25719544D01*
X32929110Y-25809523D01*
X32809523Y-25929110D01*
X32719544Y-26072309D01*
X32663686Y-26231943D01*
X32644751Y-26399999D01*
X32644751Y-26400000D01*
X9372895Y-26400000D01*
X9272218Y-26285609D01*
X9272211Y-26285602D01*
X9086800Y-26135893D01*
X8878749Y-26019668D01*
X8878747Y-26019667D01*
X8654043Y-25940275D01*
X8419156Y-25900000D01*
X7950000Y-25900000D01*
X7950000Y-26800000D01*
X7450000Y-26800000D01*
X7450000Y-25891367D01*
X7423228Y-25844997D01*
X7423228Y-25767869D01*
X7440993Y-25727155D01*
X7445788Y-25719524D01*
X7445789Y-25719522D01*
X7505368Y-25549255D01*
X7525565Y-25370000D01*
X7505368Y-25190745D01*
X7490937Y-25149504D01*
X18044435Y-25149504D01*
X18064631Y-25328755D01*
X18064631Y-25328757D01*
X18064632Y-25328758D01*
X18124211Y-25499025D01*
X18220184Y-25651765D01*
X18347738Y-25779319D01*
X18500478Y-25875292D01*
X18670745Y-25934871D01*
X18760372Y-25944969D01*
X18849999Y-25955068D01*
X18850000Y-25955068D01*
X18850001Y-25955068D01*
X18930481Y-25946000D01*
X19029255Y-25934871D01*
X19199522Y-25875292D01*
X19352262Y-25779319D01*
X19479816Y-25651765D01*
X19575789Y-25499025D01*
X19635368Y-25328758D01*
X19655565Y-25149503D01*
X19635368Y-24970248D01*
X19575796Y-24800000D01*
X20694532Y-24800000D01*
X20714365Y-25026692D01*
X20773261Y-25246496D01*
X20869432Y-25452734D01*
X20869435Y-25452738D01*
X20869437Y-25452741D01*
X20999951Y-25639137D01*
X21160862Y-25800048D01*
X21225057Y-25844997D01*
X21347266Y-25930568D01*
X21553504Y-26026739D01*
X21773308Y-26085635D01*
X21943216Y-26100500D01*
X21943221Y-26100500D01*
X23256779Y-26100500D01*
X23256784Y-26100500D01*
X23426692Y-26085635D01*
X23646496Y-26026739D01*
X23852734Y-25930568D01*
X24039139Y-25800047D01*
X24200047Y-25639139D01*
X24330568Y-25452734D01*
X24426739Y-25246496D01*
X24485635Y-25026692D01*
X24505468Y-24800000D01*
X24486749Y-24586044D01*
X26708392Y-24586044D01*
X26728588Y-24765295D01*
X26728588Y-24765297D01*
X26728589Y-24765298D01*
X26788168Y-24935565D01*
X26884141Y-25088305D01*
X27011695Y-25215859D01*
X27164435Y-25311832D01*
X27334702Y-25371411D01*
X27424329Y-25381509D01*
X27513956Y-25391608D01*
X27513957Y-25391608D01*
X27513958Y-25391608D01*
X27558770Y-25386558D01*
X27693212Y-25371411D01*
X27863479Y-25311832D01*
X28016219Y-25215859D01*
X28143773Y-25088305D01*
X28239746Y-24935565D01*
X28287182Y-24800000D01*
X43494532Y-24800000D01*
X43514365Y-25026692D01*
X43573261Y-25246496D01*
X43669432Y-25452734D01*
X43669435Y-25452738D01*
X43669437Y-25452741D01*
X43799951Y-25639137D01*
X43960862Y-25800048D01*
X44025057Y-25844997D01*
X44147266Y-25930568D01*
X44353504Y-26026739D01*
X44573308Y-26085635D01*
X44743216Y-26100500D01*
X44743221Y-26100500D01*
X46056779Y-26100500D01*
X46056784Y-26100500D01*
X46226692Y-26085635D01*
X46446496Y-26026739D01*
X46652734Y-25930568D01*
X46691790Y-25903221D01*
X46764266Y-25876841D01*
X46840223Y-25890234D01*
X46899306Y-25939811D01*
X46903414Y-25946000D01*
X46970182Y-26052259D01*
X46970184Y-26052262D01*
X47097738Y-26179816D01*
X47250478Y-26275789D01*
X47420745Y-26335368D01*
X47510372Y-26345466D01*
X47599999Y-26355565D01*
X47600000Y-26355565D01*
X47600001Y-26355565D01*
X47644813Y-26350515D01*
X47779255Y-26335368D01*
X47949522Y-26275789D01*
X48102262Y-26179816D01*
X48132077Y-26150001D01*
X50944435Y-26150001D01*
X50964631Y-26329252D01*
X50964631Y-26329254D01*
X50964632Y-26329255D01*
X51024211Y-26499522D01*
X51120184Y-26652262D01*
X51247738Y-26779816D01*
X51400478Y-26875789D01*
X51570745Y-26935368D01*
X51660372Y-26945466D01*
X51749999Y-26955565D01*
X51750000Y-26955565D01*
X51750001Y-26955565D01*
X51795158Y-26950477D01*
X51929255Y-26935368D01*
X52099522Y-26875789D01*
X52252262Y-26779816D01*
X52379816Y-26652262D01*
X52475789Y-26499522D01*
X52535368Y-26329255D01*
X52555565Y-26150000D01*
X52535368Y-25970745D01*
X52475789Y-25800478D01*
X52379816Y-25647738D01*
X52252262Y-25520184D01*
X52099522Y-25424211D01*
X51929255Y-25364632D01*
X51929254Y-25364631D01*
X51929253Y-25364631D01*
X51750001Y-25344435D01*
X51749999Y-25344435D01*
X51570747Y-25364631D01*
X51400477Y-25424211D01*
X51247738Y-25520184D01*
X51120184Y-25647738D01*
X51024211Y-25800477D01*
X50964631Y-25970747D01*
X50944435Y-26149998D01*
X50944435Y-26150001D01*
X48132077Y-26150001D01*
X48229816Y-26052262D01*
X48325789Y-25899522D01*
X48385368Y-25729255D01*
X48405565Y-25550000D01*
X48385368Y-25370745D01*
X48325789Y-25200478D01*
X48229816Y-25047738D01*
X48102262Y-24920184D01*
X47949522Y-24824211D01*
X47779255Y-24764632D01*
X47779254Y-24764631D01*
X47779253Y-24764631D01*
X47600001Y-24744435D01*
X47599998Y-24744435D01*
X47455329Y-24760735D01*
X47379063Y-24749240D01*
X47318762Y-24701151D01*
X47290584Y-24629354D01*
X47290220Y-24625724D01*
X47285635Y-24573308D01*
X47285634Y-24573306D01*
X47270911Y-24518357D01*
X47226739Y-24353504D01*
X47130568Y-24147266D01*
X47000047Y-23960861D01*
X46839139Y-23799953D01*
X46839137Y-23799951D01*
X46652741Y-23669437D01*
X46652738Y-23669435D01*
X46652734Y-23669432D01*
X46446496Y-23573261D01*
X46226692Y-23514365D01*
X46226693Y-23514365D01*
X46198374Y-23511887D01*
X46056784Y-23499500D01*
X44743216Y-23499500D01*
X44621853Y-23510117D01*
X44573306Y-23514365D01*
X44353507Y-23573260D01*
X44353506Y-23573260D01*
X44353504Y-23573261D01*
X44147266Y-23669432D01*
X44147263Y-23669434D01*
X44147261Y-23669435D01*
X44147258Y-23669437D01*
X43960862Y-23799951D01*
X43799951Y-23960862D01*
X43669437Y-24147258D01*
X43669435Y-24147261D01*
X43669434Y-24147263D01*
X43669432Y-24147266D01*
X43577722Y-24343938D01*
X43573260Y-24353507D01*
X43514365Y-24573306D01*
X43508162Y-24644211D01*
X43494532Y-24800000D01*
X28287182Y-24800000D01*
X28299325Y-24765298D01*
X28319522Y-24586043D01*
X28317087Y-24564435D01*
X28299325Y-24406790D01*
X28299325Y-24406788D01*
X28239746Y-24236521D01*
X28143773Y-24083781D01*
X28016219Y-23956227D01*
X27863479Y-23860254D01*
X27693212Y-23800675D01*
X27693211Y-23800674D01*
X27693210Y-23800674D01*
X27513958Y-23780478D01*
X27513956Y-23780478D01*
X27334704Y-23800674D01*
X27164434Y-23860254D01*
X27011695Y-23956227D01*
X26884141Y-24083781D01*
X26788168Y-24236520D01*
X26728588Y-24406790D01*
X26708392Y-24586041D01*
X26708392Y-24586044D01*
X24486749Y-24586044D01*
X24485635Y-24573308D01*
X24426739Y-24353504D01*
X24330568Y-24147266D01*
X24200047Y-23960861D01*
X24039139Y-23799953D01*
X24039137Y-23799951D01*
X23852741Y-23669437D01*
X23852738Y-23669435D01*
X23852734Y-23669432D01*
X23646496Y-23573261D01*
X23426692Y-23514365D01*
X23426693Y-23514365D01*
X23398374Y-23511887D01*
X23256784Y-23499500D01*
X21943216Y-23499500D01*
X21821853Y-23510117D01*
X21773306Y-23514365D01*
X21553507Y-23573260D01*
X21553506Y-23573260D01*
X21553504Y-23573261D01*
X21347266Y-23669432D01*
X21347263Y-23669434D01*
X21347261Y-23669435D01*
X21347258Y-23669437D01*
X21160862Y-23799951D01*
X20999951Y-23960862D01*
X20869437Y-24147258D01*
X20869435Y-24147261D01*
X20869434Y-24147263D01*
X20869432Y-24147266D01*
X20777722Y-24343938D01*
X20773260Y-24353507D01*
X20714365Y-24573306D01*
X20708162Y-24644211D01*
X20694532Y-24800000D01*
X19575796Y-24800000D01*
X19575789Y-24799981D01*
X19479816Y-24647241D01*
X19352262Y-24519687D01*
X19199522Y-24423714D01*
X19029255Y-24364135D01*
X19029254Y-24364134D01*
X19029253Y-24364134D01*
X18850001Y-24343938D01*
X18849999Y-24343938D01*
X18670747Y-24364134D01*
X18500477Y-24423714D01*
X18347738Y-24519687D01*
X18220184Y-24647241D01*
X18124211Y-24799980D01*
X18064631Y-24970250D01*
X18044435Y-25149501D01*
X18044435Y-25149504D01*
X7490937Y-25149504D01*
X7445789Y-25020478D01*
X7349816Y-24867738D01*
X7222262Y-24740184D01*
X7069522Y-24644211D01*
X6899255Y-24584632D01*
X6899254Y-24584631D01*
X6899253Y-24584631D01*
X6720001Y-24564435D01*
X6719999Y-24564435D01*
X6540747Y-24584631D01*
X6370477Y-24644211D01*
X6217738Y-24740184D01*
X6090184Y-24867738D01*
X5994211Y-25020477D01*
X5934631Y-25190747D01*
X5914435Y-25369998D01*
X5914435Y-25370001D01*
X5934631Y-25549252D01*
X5934631Y-25549254D01*
X5934632Y-25549255D01*
X5994211Y-25719522D01*
X6090184Y-25872262D01*
X6090185Y-25872263D01*
X6215605Y-25997683D01*
X6254169Y-26064478D01*
X6254169Y-26141606D01*
X6215605Y-26208401D01*
X6213345Y-26210613D01*
X6045260Y-26371709D01*
X6045259Y-26371710D01*
X5903549Y-26563315D01*
X5796258Y-26776114D01*
X5726473Y-27003985D01*
X5720581Y-27050000D01*
X400500Y-27050000D01*
X400500Y-22995973D01*
X25461785Y-22995973D01*
X25481981Y-23175224D01*
X25481981Y-23175226D01*
X25481982Y-23175227D01*
X25541561Y-23345494D01*
X25637534Y-23498234D01*
X25765088Y-23625788D01*
X25917828Y-23721761D01*
X26088095Y-23781340D01*
X26177722Y-23791438D01*
X26267349Y-23801537D01*
X26267350Y-23801537D01*
X26267351Y-23801537D01*
X26312163Y-23796487D01*
X26446605Y-23781340D01*
X26616872Y-23721761D01*
X26769612Y-23625788D01*
X26897166Y-23498234D01*
X26993139Y-23345494D01*
X27052718Y-23175227D01*
X27067865Y-23040785D01*
X27072915Y-22995973D01*
X27072915Y-22995970D01*
X27062816Y-22906344D01*
X27052718Y-22816717D01*
X27029373Y-22750001D01*
X51494435Y-22750001D01*
X51514631Y-22929252D01*
X51514631Y-22929254D01*
X51514632Y-22929255D01*
X51574211Y-23099522D01*
X51670184Y-23252262D01*
X51797738Y-23379816D01*
X51950478Y-23475789D01*
X52120745Y-23535368D01*
X52210372Y-23545466D01*
X52299999Y-23555565D01*
X52300000Y-23555565D01*
X52300001Y-23555565D01*
X52344813Y-23550515D01*
X52479255Y-23535368D01*
X52649522Y-23475789D01*
X52802262Y-23379816D01*
X52929816Y-23252262D01*
X53025789Y-23099522D01*
X53085368Y-22929255D01*
X53100515Y-22794813D01*
X53105565Y-22750001D01*
X53105565Y-22749998D01*
X53087758Y-22591957D01*
X53085368Y-22570745D01*
X53025789Y-22400478D01*
X52929816Y-22247738D01*
X52802262Y-22120184D01*
X52649522Y-22024211D01*
X52479255Y-21964632D01*
X52479254Y-21964631D01*
X52479253Y-21964631D01*
X52300001Y-21944435D01*
X52299999Y-21944435D01*
X52120747Y-21964631D01*
X51950477Y-22024211D01*
X51797738Y-22120184D01*
X51670184Y-22247738D01*
X51574211Y-22400477D01*
X51514631Y-22570747D01*
X51494435Y-22749998D01*
X51494435Y-22750001D01*
X27029373Y-22750001D01*
X26993139Y-22646450D01*
X26897166Y-22493710D01*
X26769612Y-22366156D01*
X26616872Y-22270183D01*
X26446605Y-22210604D01*
X26446604Y-22210603D01*
X26446603Y-22210603D01*
X26267351Y-22190407D01*
X26267349Y-22190407D01*
X26088097Y-22210603D01*
X25917827Y-22270183D01*
X25765088Y-22366156D01*
X25637534Y-22493710D01*
X25541561Y-22646449D01*
X25481981Y-22816719D01*
X25461785Y-22995970D01*
X25461785Y-22995973D01*
X400500Y-22995973D01*
X400500Y-21300000D01*
X18844751Y-21300000D01*
X18863686Y-21468056D01*
X18863686Y-21468058D01*
X18863687Y-21468059D01*
X18919544Y-21627690D01*
X19009523Y-21770890D01*
X19129110Y-21890477D01*
X19272310Y-21980456D01*
X19431941Y-22036313D01*
X19539312Y-22048411D01*
X19599999Y-22055249D01*
X19600000Y-22055249D01*
X19600001Y-22055249D01*
X19660688Y-22048411D01*
X19768059Y-22036313D01*
X19927690Y-21980456D01*
X20070890Y-21890477D01*
X20190477Y-21770890D01*
X20280456Y-21627690D01*
X20336313Y-21468059D01*
X20355249Y-21300000D01*
X20336313Y-21131941D01*
X20280456Y-20972310D01*
X20190477Y-20829110D01*
X20070890Y-20709523D01*
X19927690Y-20619544D01*
X19768059Y-20563687D01*
X19768058Y-20563686D01*
X19768056Y-20563686D01*
X19600001Y-20544751D01*
X19599999Y-20544751D01*
X19431943Y-20563686D01*
X19272309Y-20619544D01*
X19129110Y-20709523D01*
X19009523Y-20829110D01*
X18919544Y-20972309D01*
X18863686Y-21131943D01*
X18844751Y-21299999D01*
X18844751Y-21300000D01*
X400500Y-21300000D01*
X400500Y-19850001D01*
X24243938Y-19850001D01*
X24264134Y-20029252D01*
X24264134Y-20029254D01*
X24264135Y-20029255D01*
X24323714Y-20199522D01*
X24419687Y-20352262D01*
X24547241Y-20479816D01*
X24699981Y-20575789D01*
X24870248Y-20635368D01*
X24959875Y-20645466D01*
X25049502Y-20655565D01*
X25049503Y-20655565D01*
X25049504Y-20655565D01*
X25094316Y-20650515D01*
X25228758Y-20635368D01*
X25399025Y-20575789D01*
X25551765Y-20479816D01*
X25596366Y-20435215D01*
X28859695Y-20435215D01*
X28878630Y-20603271D01*
X28878630Y-20603273D01*
X28878631Y-20603274D01*
X28934488Y-20762905D01*
X29024467Y-20906105D01*
X29144054Y-21025692D01*
X29287254Y-21115671D01*
X29446885Y-21171528D01*
X29558924Y-21184152D01*
X29614943Y-21190464D01*
X29614944Y-21190464D01*
X29614945Y-21190464D01*
X29656958Y-21185730D01*
X29783003Y-21171528D01*
X29942634Y-21115671D01*
X30085834Y-21025692D01*
X30205421Y-20906105D01*
X30295400Y-20762905D01*
X30351257Y-20603274D01*
X30351626Y-20600001D01*
X51244435Y-20600001D01*
X51264631Y-20779252D01*
X51264631Y-20779254D01*
X51264632Y-20779255D01*
X51324211Y-20949522D01*
X51420184Y-21102262D01*
X51547738Y-21229816D01*
X51700478Y-21325789D01*
X51870745Y-21385368D01*
X51960372Y-21395466D01*
X52049999Y-21405565D01*
X52050000Y-21405565D01*
X52050001Y-21405565D01*
X52094813Y-21400515D01*
X52229255Y-21385368D01*
X52399522Y-21325789D01*
X52440565Y-21300000D01*
X55744751Y-21300000D01*
X55763686Y-21468056D01*
X55763686Y-21468058D01*
X55763687Y-21468059D01*
X55819544Y-21627690D01*
X55909523Y-21770890D01*
X56029110Y-21890477D01*
X56172310Y-21980456D01*
X56331941Y-22036313D01*
X56439312Y-22048411D01*
X56499999Y-22055249D01*
X56500000Y-22055249D01*
X56662702Y-22036916D01*
X56738966Y-22048411D01*
X56799267Y-22096499D01*
X56827446Y-22168295D01*
X56827446Y-22168296D01*
X56838686Y-22268056D01*
X56838686Y-22268058D01*
X56838687Y-22268059D01*
X56894544Y-22427690D01*
X56984523Y-22570890D01*
X57104110Y-22690477D01*
X57247310Y-22780456D01*
X57406941Y-22836313D01*
X57518980Y-22848937D01*
X57574999Y-22855249D01*
X57575000Y-22855249D01*
X57575001Y-22855249D01*
X57617014Y-22850515D01*
X57743059Y-22836313D01*
X57902690Y-22780456D01*
X58045890Y-22690477D01*
X58165477Y-22570890D01*
X58255456Y-22427690D01*
X58256783Y-22423898D01*
X60194751Y-22423898D01*
X60213686Y-22591954D01*
X60213686Y-22591956D01*
X60213687Y-22591957D01*
X60269544Y-22751588D01*
X60359523Y-22894788D01*
X60479110Y-23014375D01*
X60622310Y-23104354D01*
X60781941Y-23160211D01*
X60893980Y-23172835D01*
X60949999Y-23179147D01*
X60950000Y-23179147D01*
X60950001Y-23179147D01*
X60992014Y-23174413D01*
X61118059Y-23160211D01*
X61277690Y-23104354D01*
X61420890Y-23014375D01*
X61540477Y-22894788D01*
X61630456Y-22751588D01*
X61686313Y-22591957D01*
X61705249Y-22423898D01*
X61686313Y-22255839D01*
X61630456Y-22096208D01*
X61540477Y-21953008D01*
X61420890Y-21833421D01*
X61277690Y-21743442D01*
X61118059Y-21687585D01*
X61118058Y-21687584D01*
X61118056Y-21687584D01*
X60950001Y-21668649D01*
X60949999Y-21668649D01*
X60781943Y-21687584D01*
X60622309Y-21743442D01*
X60479110Y-21833421D01*
X60359523Y-21953008D01*
X60269544Y-22096207D01*
X60213686Y-22255841D01*
X60194751Y-22423897D01*
X60194751Y-22423898D01*
X58256783Y-22423898D01*
X58311313Y-22268059D01*
X58330249Y-22100000D01*
X58311313Y-21931941D01*
X58255456Y-21772310D01*
X58165477Y-21629110D01*
X58045890Y-21509523D01*
X57902690Y-21419544D01*
X57743059Y-21363687D01*
X57743058Y-21363686D01*
X57743056Y-21363686D01*
X57575001Y-21344751D01*
X57574999Y-21344751D01*
X57412299Y-21363083D01*
X57336032Y-21351588D01*
X57275731Y-21303499D01*
X57247553Y-21231705D01*
X57236313Y-21131941D01*
X57180456Y-20972310D01*
X57090477Y-20829110D01*
X56970890Y-20709523D01*
X56827690Y-20619544D01*
X56668059Y-20563687D01*
X56668058Y-20563686D01*
X56668056Y-20563686D01*
X56500001Y-20544751D01*
X56499999Y-20544751D01*
X56331943Y-20563686D01*
X56172309Y-20619544D01*
X56029110Y-20709523D01*
X55909523Y-20829110D01*
X55819544Y-20972309D01*
X55763686Y-21131943D01*
X55744751Y-21299999D01*
X55744751Y-21300000D01*
X52440565Y-21300000D01*
X52552262Y-21229816D01*
X52679816Y-21102262D01*
X52775789Y-20949522D01*
X52835368Y-20779255D01*
X52855196Y-20603274D01*
X52855565Y-20600001D01*
X52855565Y-20599998D01*
X52842024Y-20479816D01*
X52835368Y-20420745D01*
X52775789Y-20250478D01*
X52679816Y-20097738D01*
X52552262Y-19970184D01*
X52399522Y-19874211D01*
X52229255Y-19814632D01*
X52229254Y-19814631D01*
X52229253Y-19814631D01*
X52050001Y-19794435D01*
X52049999Y-19794435D01*
X51870747Y-19814631D01*
X51700477Y-19874211D01*
X51547738Y-19970184D01*
X51420184Y-20097738D01*
X51324211Y-20250477D01*
X51264631Y-20420747D01*
X51244435Y-20599998D01*
X51244435Y-20600001D01*
X30351626Y-20600001D01*
X30370193Y-20435215D01*
X30351257Y-20267156D01*
X30295400Y-20107525D01*
X30205421Y-19964325D01*
X30085834Y-19844738D01*
X29942634Y-19754759D01*
X29783003Y-19698902D01*
X29783002Y-19698901D01*
X29783000Y-19698901D01*
X29614945Y-19679966D01*
X29614943Y-19679966D01*
X29446887Y-19698901D01*
X29287253Y-19754759D01*
X29144054Y-19844738D01*
X29024467Y-19964325D01*
X28934488Y-20107524D01*
X28878630Y-20267158D01*
X28859695Y-20435214D01*
X28859695Y-20435215D01*
X25596366Y-20435215D01*
X25679319Y-20352262D01*
X25775292Y-20199522D01*
X25834871Y-20029255D01*
X25855068Y-19850000D01*
X25834871Y-19670745D01*
X25775292Y-19500478D01*
X25679319Y-19347738D01*
X25551765Y-19220184D01*
X25399025Y-19124211D01*
X25228758Y-19064632D01*
X25228757Y-19064631D01*
X25228756Y-19064631D01*
X25049504Y-19044435D01*
X25049502Y-19044435D01*
X24870250Y-19064631D01*
X24699980Y-19124211D01*
X24547241Y-19220184D01*
X24419687Y-19347738D01*
X24323714Y-19500477D01*
X24264134Y-19670747D01*
X24243938Y-19849998D01*
X24243938Y-19850001D01*
X400500Y-19850001D01*
X400500Y-18400000D01*
X41644751Y-18400000D01*
X41663686Y-18568056D01*
X41663686Y-18568058D01*
X41663687Y-18568059D01*
X41719544Y-18727690D01*
X41809523Y-18870890D01*
X41929110Y-18990477D01*
X42072310Y-19080456D01*
X42231941Y-19136313D01*
X42343980Y-19148937D01*
X42399999Y-19155249D01*
X42400000Y-19155249D01*
X42400001Y-19155249D01*
X42442014Y-19150515D01*
X42568059Y-19136313D01*
X42727690Y-19080456D01*
X42870890Y-18990477D01*
X42990477Y-18870890D01*
X43080456Y-18727690D01*
X43136313Y-18568059D01*
X43155249Y-18400000D01*
X43136313Y-18231941D01*
X43080456Y-18072310D01*
X42990477Y-17929110D01*
X42870890Y-17809523D01*
X42727690Y-17719544D01*
X42568059Y-17663687D01*
X42568058Y-17663686D01*
X42568056Y-17663686D01*
X42400001Y-17644751D01*
X42399999Y-17644751D01*
X42231943Y-17663686D01*
X42072309Y-17719544D01*
X41929110Y-17809523D01*
X41809523Y-17929110D01*
X41719544Y-18072309D01*
X41663686Y-18231943D01*
X41644751Y-18399999D01*
X41644751Y-18400000D01*
X400500Y-18400000D01*
X400500Y-14723462D01*
X4549500Y-14723462D01*
X4564552Y-14943511D01*
X4624408Y-15231554D01*
X4707138Y-15464336D01*
X4722930Y-15508769D01*
X4858279Y-15769978D01*
X5027938Y-16010330D01*
X5092413Y-16079365D01*
X5228740Y-16225335D01*
X5228745Y-16225339D01*
X5228748Y-16225342D01*
X5456947Y-16410996D01*
X5456960Y-16411005D01*
X5657025Y-16532667D01*
X5708318Y-16563859D01*
X5978159Y-16681067D01*
X6261445Y-16760440D01*
X6552902Y-16800500D01*
X6552903Y-16800500D01*
X6847097Y-16800500D01*
X6847098Y-16800500D01*
X7138555Y-16760440D01*
X7421841Y-16681067D01*
X7691682Y-16563859D01*
X7943049Y-16410999D01*
X8171260Y-16225335D01*
X8372065Y-16010326D01*
X8541722Y-15769976D01*
X8677072Y-15508764D01*
X8775592Y-15231554D01*
X8835448Y-14943511D01*
X8850500Y-14723462D01*
X8850500Y-14673578D01*
X13299500Y-14673578D01*
X13314252Y-14893953D01*
X13372933Y-15182653D01*
X13372937Y-15182665D01*
X13469576Y-15460975D01*
X13469576Y-15460976D01*
X13602439Y-15723903D01*
X13602449Y-15723921D01*
X13687728Y-15848152D01*
X13769184Y-15966812D01*
X13965580Y-16183958D01*
X13966808Y-16185315D01*
X14191777Y-16375514D01*
X14191781Y-16375517D01*
X14191787Y-16375522D01*
X14191791Y-16375524D01*
X14191793Y-16375526D01*
X14440104Y-16534042D01*
X14440109Y-16534044D01*
X14440113Y-16534047D01*
X14707353Y-16658060D01*
X14918391Y-16723524D01*
X14988737Y-16745346D01*
X14988740Y-16745346D01*
X15078221Y-16760440D01*
X15279238Y-16794348D01*
X15279240Y-16794348D01*
X15279246Y-16794349D01*
X15573694Y-16804193D01*
X15866827Y-16774704D01*
X16153414Y-16706407D01*
X16428340Y-16600521D01*
X16686700Y-16458936D01*
X16923884Y-16284178D01*
X17135658Y-16079365D01*
X17318244Y-15848154D01*
X17468383Y-15594669D01*
X17583397Y-15323434D01*
X17654456Y-15064023D01*
X17693391Y-14997446D01*
X17760400Y-14959255D01*
X17837527Y-14959684D01*
X17847340Y-14962740D01*
X17937224Y-14994192D01*
X18049263Y-15006816D01*
X18105282Y-15013128D01*
X18105283Y-15013128D01*
X18105284Y-15013128D01*
X18147297Y-15008394D01*
X18273342Y-14994192D01*
X18432973Y-14938335D01*
X18576173Y-14848356D01*
X18695760Y-14728769D01*
X18699095Y-14723462D01*
X27449500Y-14723462D01*
X27464552Y-14943511D01*
X27524408Y-15231554D01*
X27607138Y-15464336D01*
X27622930Y-15508769D01*
X27758279Y-15769978D01*
X27927938Y-16010330D01*
X27992413Y-16079365D01*
X28128740Y-16225335D01*
X28128745Y-16225339D01*
X28128748Y-16225342D01*
X28356947Y-16410996D01*
X28356960Y-16411005D01*
X28557025Y-16532667D01*
X28608318Y-16563859D01*
X28878159Y-16681067D01*
X29161445Y-16760440D01*
X29452902Y-16800500D01*
X29452903Y-16800500D01*
X29747097Y-16800500D01*
X29747098Y-16800500D01*
X30038555Y-16760440D01*
X30321841Y-16681067D01*
X30591682Y-16563859D01*
X30843049Y-16410999D01*
X31071260Y-16225335D01*
X31272065Y-16010326D01*
X31441722Y-15769976D01*
X31577072Y-15508764D01*
X31675592Y-15231554D01*
X31735448Y-14943511D01*
X31750500Y-14723462D01*
X31750500Y-14673578D01*
X36199500Y-14673578D01*
X36214252Y-14893953D01*
X36272933Y-15182653D01*
X36272937Y-15182665D01*
X36369576Y-15460975D01*
X36369576Y-15460976D01*
X36502439Y-15723903D01*
X36502449Y-15723921D01*
X36587728Y-15848152D01*
X36669184Y-15966812D01*
X36865580Y-16183958D01*
X36866808Y-16185315D01*
X37091777Y-16375514D01*
X37091781Y-16375517D01*
X37091787Y-16375522D01*
X37091791Y-16375524D01*
X37091793Y-16375526D01*
X37340104Y-16534042D01*
X37340109Y-16534044D01*
X37340113Y-16534047D01*
X37607353Y-16658060D01*
X37818391Y-16723524D01*
X37888737Y-16745346D01*
X37888740Y-16745346D01*
X37978221Y-16760440D01*
X38179238Y-16794348D01*
X38179240Y-16794348D01*
X38179246Y-16794349D01*
X38473694Y-16804193D01*
X38766827Y-16774704D01*
X39053414Y-16706407D01*
X39328340Y-16600521D01*
X39586700Y-16458936D01*
X39823884Y-16284178D01*
X40035658Y-16079365D01*
X40218244Y-15848154D01*
X40368383Y-15594669D01*
X40483397Y-15323434D01*
X40561232Y-15039290D01*
X40600500Y-14747306D01*
X40600500Y-14723462D01*
X50349500Y-14723462D01*
X50364552Y-14943511D01*
X50424408Y-15231554D01*
X50507138Y-15464336D01*
X50522930Y-15508769D01*
X50658279Y-15769978D01*
X50827938Y-16010330D01*
X50892413Y-16079365D01*
X51028740Y-16225335D01*
X51028745Y-16225339D01*
X51028748Y-16225342D01*
X51256947Y-16410996D01*
X51256960Y-16411005D01*
X51457025Y-16532667D01*
X51508318Y-16563859D01*
X51778159Y-16681067D01*
X52061445Y-16760440D01*
X52352902Y-16800500D01*
X52352903Y-16800500D01*
X52647097Y-16800500D01*
X52647098Y-16800500D01*
X52938555Y-16760440D01*
X53221841Y-16681067D01*
X53491682Y-16563859D01*
X53743049Y-16410999D01*
X53971260Y-16225335D01*
X54172065Y-16010326D01*
X54341722Y-15769976D01*
X54477072Y-15508764D01*
X54575592Y-15231554D01*
X54635448Y-14943511D01*
X54650500Y-14723462D01*
X54650500Y-14673578D01*
X59099500Y-14673578D01*
X59114252Y-14893953D01*
X59172933Y-15182653D01*
X59172937Y-15182665D01*
X59269576Y-15460975D01*
X59269576Y-15460976D01*
X59402439Y-15723903D01*
X59402449Y-15723921D01*
X59487728Y-15848152D01*
X59569184Y-15966812D01*
X59765580Y-16183958D01*
X59766808Y-16185315D01*
X59991777Y-16375514D01*
X59991781Y-16375517D01*
X59991787Y-16375522D01*
X59991791Y-16375524D01*
X59991793Y-16375526D01*
X60240104Y-16534042D01*
X60240109Y-16534044D01*
X60240113Y-16534047D01*
X60507353Y-16658060D01*
X60718391Y-16723524D01*
X60788737Y-16745346D01*
X60788740Y-16745346D01*
X60878221Y-16760440D01*
X61079238Y-16794348D01*
X61079240Y-16794348D01*
X61079246Y-16794349D01*
X61373694Y-16804193D01*
X61666827Y-16774704D01*
X61953414Y-16706407D01*
X62228340Y-16600521D01*
X62486700Y-16458936D01*
X62723884Y-16284178D01*
X62935658Y-16079365D01*
X63118244Y-15848154D01*
X63268383Y-15594669D01*
X63357110Y-15385423D01*
X63404572Y-15324630D01*
X63476074Y-15295710D01*
X63552455Y-15306416D01*
X63612220Y-15352528D01*
X63781146Y-15571295D01*
X63781151Y-15571300D01*
X63981370Y-15764336D01*
X64207564Y-15926164D01*
X64454912Y-16053334D01*
X64454916Y-16053336D01*
X64718137Y-16143135D01*
X64950000Y-16185960D01*
X64950000Y-14845881D01*
X65043369Y-14884556D01*
X65200000Y-14905177D01*
X65356631Y-14884556D01*
X65450000Y-14845881D01*
X65450000Y-16183958D01*
X65546018Y-16173394D01*
X65546033Y-16173391D01*
X65815108Y-16103046D01*
X65815111Y-16103045D01*
X66071079Y-15994271D01*
X66071093Y-15994264D01*
X66308487Y-15849385D01*
X66522265Y-15671476D01*
X66707865Y-15464336D01*
X66707867Y-15464334D01*
X66861325Y-15232381D01*
X66861327Y-15232376D01*
X66979378Y-14980549D01*
X66979380Y-14980543D01*
X67059504Y-14714225D01*
X67059504Y-14714221D01*
X67099998Y-14439069D01*
X67100000Y-14439055D01*
X67100000Y-13550000D01*
X65800000Y-13550000D01*
X65800000Y-13050000D01*
X67100000Y-13050000D01*
X67100000Y-12230568D01*
X67084779Y-12022618D01*
X67084778Y-12022610D01*
X67024308Y-11751150D01*
X67024305Y-11751140D01*
X66924954Y-11491379D01*
X66924950Y-11491370D01*
X66788835Y-11248838D01*
X66618853Y-11028704D01*
X66618848Y-11028699D01*
X66418629Y-10835663D01*
X66192435Y-10673835D01*
X65945087Y-10546665D01*
X65945083Y-10546663D01*
X65681877Y-10456869D01*
X65681862Y-10456865D01*
X65450000Y-10414038D01*
X65450000Y-11754118D01*
X65356631Y-11715444D01*
X65200000Y-11694823D01*
X65043369Y-11715444D01*
X64950000Y-11754118D01*
X64950000Y-10416040D01*
X64949999Y-10416040D01*
X64853978Y-10426606D01*
X64853965Y-10426608D01*
X64584891Y-10496953D01*
X64584888Y-10496954D01*
X64328920Y-10605728D01*
X64328906Y-10605735D01*
X64091512Y-10750614D01*
X63877734Y-10928523D01*
X63692134Y-11135663D01*
X63692132Y-11135665D01*
X63538674Y-11367618D01*
X63538672Y-11367623D01*
X63420621Y-11619450D01*
X63420619Y-11619456D01*
X63340495Y-11885774D01*
X63340495Y-11885778D01*
X63300001Y-12160930D01*
X63300000Y-12160944D01*
X63300000Y-12744989D01*
X63280038Y-12819489D01*
X63225500Y-12874027D01*
X63151000Y-12893989D01*
X63076500Y-12874027D01*
X63035322Y-12835982D01*
X63033907Y-12837101D01*
X63030821Y-12833193D01*
X62833191Y-12614684D01*
X62608222Y-12424485D01*
X62608206Y-12424473D01*
X62359895Y-12265957D01*
X62359883Y-12265951D01*
X62321455Y-12248118D01*
X62092647Y-12141940D01*
X62038034Y-12124999D01*
X61811262Y-12054653D01*
X61811254Y-12054652D01*
X61520761Y-12005651D01*
X61226307Y-11995807D01*
X61226306Y-11995807D01*
X60933172Y-12025296D01*
X60933166Y-12025297D01*
X60646592Y-12093591D01*
X60646584Y-12093593D01*
X60371658Y-12199479D01*
X60113295Y-12341066D01*
X60113294Y-12341067D01*
X59876119Y-12515819D01*
X59876103Y-12515833D01*
X59664343Y-12720632D01*
X59664343Y-12720633D01*
X59481755Y-12951847D01*
X59331619Y-13205326D01*
X59216604Y-13476561D01*
X59216602Y-13476568D01*
X59138768Y-13760709D01*
X59138767Y-13760712D01*
X59099500Y-14052693D01*
X59099500Y-14673578D01*
X54650500Y-14673578D01*
X54650500Y-14076538D01*
X54635448Y-13856489D01*
X54575592Y-13568446D01*
X54477072Y-13291236D01*
X54341722Y-13030024D01*
X54172065Y-12789674D01*
X54172063Y-12789671D01*
X54172061Y-12789669D01*
X54100066Y-12712582D01*
X53971260Y-12574665D01*
X53971254Y-12574660D01*
X53971251Y-12574657D01*
X53743052Y-12389003D01*
X53743039Y-12388994D01*
X53491689Y-12236145D01*
X53491686Y-12236143D01*
X53491682Y-12236141D01*
X53221841Y-12118933D01*
X52938555Y-12039560D01*
X52938552Y-12039559D01*
X52822060Y-12023548D01*
X52750972Y-11993627D01*
X52718968Y-11951422D01*
X52710777Y-11963437D01*
X52641288Y-11996902D01*
X52613586Y-11999500D01*
X52352902Y-11999500D01*
X52297656Y-12007093D01*
X52061448Y-12039559D01*
X52057929Y-12040545D01*
X51778159Y-12118933D01*
X51688212Y-12158002D01*
X51508322Y-12236139D01*
X51508310Y-12236145D01*
X51256960Y-12388994D01*
X51256947Y-12389003D01*
X51028748Y-12574657D01*
X51028743Y-12574662D01*
X50827938Y-12789669D01*
X50658279Y-13030021D01*
X50522930Y-13291230D01*
X50424408Y-13568445D01*
X50422135Y-13579384D01*
X50364552Y-13856489D01*
X50349500Y-14076538D01*
X50349500Y-14723462D01*
X40600500Y-14723462D01*
X40600500Y-14126429D01*
X40598049Y-14089822D01*
X40585747Y-13906046D01*
X40527066Y-13617346D01*
X40527065Y-13617344D01*
X40527064Y-13617337D01*
X40430424Y-13339026D01*
X40430423Y-13339024D01*
X40430423Y-13339023D01*
X40297560Y-13076096D01*
X40297550Y-13076078D01*
X40238788Y-12990477D01*
X40130816Y-12833188D01*
X39933195Y-12614688D01*
X39933190Y-12614684D01*
X39884874Y-12573835D01*
X39840870Y-12510492D01*
X39834434Y-12433633D01*
X39850269Y-12400000D01*
X45944751Y-12400000D01*
X45963686Y-12568056D01*
X45963686Y-12568058D01*
X45963687Y-12568059D01*
X46019544Y-12727690D01*
X46109523Y-12870890D01*
X46229110Y-12990477D01*
X46372310Y-13080456D01*
X46531941Y-13136313D01*
X46643980Y-13148937D01*
X46699999Y-13155249D01*
X46700000Y-13155249D01*
X46700001Y-13155249D01*
X46742014Y-13150515D01*
X46868059Y-13136313D01*
X47027690Y-13080456D01*
X47170890Y-12990477D01*
X47290477Y-12870890D01*
X47380456Y-12727690D01*
X47436313Y-12568059D01*
X47455249Y-12400000D01*
X47436313Y-12231941D01*
X47380456Y-12072310D01*
X47290477Y-11929110D01*
X47170890Y-11809523D01*
X47027690Y-11719544D01*
X46868059Y-11663687D01*
X46868058Y-11663686D01*
X46868056Y-11663686D01*
X46700001Y-11644751D01*
X46699999Y-11644751D01*
X46531943Y-11663686D01*
X46372309Y-11719544D01*
X46229110Y-11809523D01*
X46109523Y-11929110D01*
X46019544Y-12072309D01*
X45963686Y-12231943D01*
X45944751Y-12399999D01*
X45944751Y-12400000D01*
X39850269Y-12400000D01*
X39867289Y-12363852D01*
X39901798Y-12333890D01*
X39970890Y-12290477D01*
X40090477Y-12170890D01*
X40180456Y-12027690D01*
X40236313Y-11868059D01*
X40255249Y-11700000D01*
X40236313Y-11531941D01*
X40180456Y-11372310D01*
X40090477Y-11229110D01*
X39970890Y-11109523D01*
X39827690Y-11019544D01*
X39668059Y-10963687D01*
X39668058Y-10963686D01*
X39668056Y-10963686D01*
X39500001Y-10944751D01*
X39499999Y-10944751D01*
X39331943Y-10963686D01*
X39172309Y-11019544D01*
X39029110Y-11109523D01*
X38909523Y-11229110D01*
X38819544Y-11372309D01*
X38763686Y-11531943D01*
X38744751Y-11699999D01*
X38744751Y-11700000D01*
X38760481Y-11839606D01*
X38748986Y-11915873D01*
X38700897Y-11976174D01*
X38629101Y-12004352D01*
X38607441Y-12005205D01*
X38359059Y-11996902D01*
X38326307Y-11995807D01*
X38326306Y-11995807D01*
X38033172Y-12025296D01*
X38033166Y-12025297D01*
X37746592Y-12093591D01*
X37746584Y-12093593D01*
X37471658Y-12199479D01*
X37213295Y-12341066D01*
X37213294Y-12341067D01*
X36976119Y-12515819D01*
X36976103Y-12515833D01*
X36764343Y-12720632D01*
X36764343Y-12720633D01*
X36581755Y-12951847D01*
X36431619Y-13205326D01*
X36316604Y-13476561D01*
X36316602Y-13476568D01*
X36238768Y-13760709D01*
X36238767Y-13760712D01*
X36199500Y-14052693D01*
X36199500Y-14673578D01*
X31750500Y-14673578D01*
X31750500Y-14076538D01*
X31735448Y-13856489D01*
X31675592Y-13568446D01*
X31577072Y-13291236D01*
X31441722Y-13030024D01*
X31272065Y-12789674D01*
X31272063Y-12789671D01*
X31272061Y-12789669D01*
X31200066Y-12712582D01*
X31071260Y-12574665D01*
X31071254Y-12574660D01*
X31071251Y-12574657D01*
X30843052Y-12389003D01*
X30843039Y-12388994D01*
X30591689Y-12236145D01*
X30591686Y-12236143D01*
X30591682Y-12236141D01*
X30321841Y-12118933D01*
X30038555Y-12039560D01*
X30038552Y-12039559D01*
X29802343Y-12007093D01*
X29747098Y-11999500D01*
X29452902Y-11999500D01*
X29397656Y-12007093D01*
X29161448Y-12039559D01*
X29157929Y-12040545D01*
X28878159Y-12118933D01*
X28788212Y-12158002D01*
X28608322Y-12236139D01*
X28608310Y-12236145D01*
X28356960Y-12388994D01*
X28356947Y-12389003D01*
X28128748Y-12574657D01*
X28128743Y-12574662D01*
X27927938Y-12789669D01*
X27758279Y-13030021D01*
X27622930Y-13291230D01*
X27524408Y-13568445D01*
X27522135Y-13579384D01*
X27464552Y-13856489D01*
X27449500Y-14076538D01*
X27449500Y-14723462D01*
X18699095Y-14723462D01*
X18785739Y-14585569D01*
X18841596Y-14425938D01*
X18860532Y-14257879D01*
X18841596Y-14089820D01*
X18785739Y-13930189D01*
X18695760Y-13786989D01*
X18576173Y-13667402D01*
X18432973Y-13577423D01*
X18273342Y-13521566D01*
X18273341Y-13521565D01*
X18273339Y-13521565D01*
X18105284Y-13502630D01*
X18105282Y-13502630D01*
X17937226Y-13521565D01*
X17937225Y-13521565D01*
X17771988Y-13579384D01*
X17695075Y-13585147D01*
X17625585Y-13551682D01*
X17582138Y-13487956D01*
X17582021Y-13487620D01*
X17579375Y-13480000D01*
X20474751Y-13480000D01*
X20493686Y-13648056D01*
X20493686Y-13648058D01*
X20493687Y-13648059D01*
X20549544Y-13807690D01*
X20639523Y-13950890D01*
X20759110Y-14070477D01*
X20902310Y-14160456D01*
X21061941Y-14216313D01*
X21173980Y-14228937D01*
X21229999Y-14235249D01*
X21230000Y-14235249D01*
X21230001Y-14235249D01*
X21272014Y-14230515D01*
X21398059Y-14216313D01*
X21557690Y-14160456D01*
X21700890Y-14070477D01*
X21820477Y-13950890D01*
X21910456Y-13807690D01*
X21966313Y-13648059D01*
X21985249Y-13480000D01*
X21966313Y-13311941D01*
X21910456Y-13152310D01*
X21820477Y-13009110D01*
X21700890Y-12889523D01*
X21557690Y-12799544D01*
X21398059Y-12743687D01*
X21398058Y-12743686D01*
X21398056Y-12743686D01*
X21230001Y-12724751D01*
X21229999Y-12724751D01*
X21061943Y-12743686D01*
X20902309Y-12799544D01*
X20759110Y-12889523D01*
X20639523Y-13009110D01*
X20549544Y-13152309D01*
X20493686Y-13311943D01*
X20474751Y-13479999D01*
X20474751Y-13480000D01*
X17579375Y-13480000D01*
X17578183Y-13476568D01*
X17530424Y-13339026D01*
X17530423Y-13339024D01*
X17530423Y-13339023D01*
X17397560Y-13076096D01*
X17397550Y-13076078D01*
X17338788Y-12990477D01*
X17230816Y-12833188D01*
X17033195Y-12614688D01*
X17033193Y-12614686D01*
X17033191Y-12614684D01*
X16808222Y-12424485D01*
X16808206Y-12424473D01*
X16559895Y-12265957D01*
X16559883Y-12265951D01*
X16521455Y-12248118D01*
X16292647Y-12141940D01*
X16238034Y-12124999D01*
X16011262Y-12054653D01*
X16011254Y-12054652D01*
X15720761Y-12005651D01*
X15426307Y-11995807D01*
X15426306Y-11995807D01*
X15133172Y-12025296D01*
X15133166Y-12025297D01*
X14846592Y-12093591D01*
X14846584Y-12093593D01*
X14571658Y-12199479D01*
X14313295Y-12341066D01*
X14313294Y-12341067D01*
X14076119Y-12515819D01*
X14076103Y-12515833D01*
X13864343Y-12720632D01*
X13864343Y-12720633D01*
X13681755Y-12951847D01*
X13531619Y-13205326D01*
X13416604Y-13476561D01*
X13416602Y-13476568D01*
X13338768Y-13760709D01*
X13338767Y-13760712D01*
X13299500Y-14052693D01*
X13299500Y-14673578D01*
X8850500Y-14673578D01*
X8850500Y-14076538D01*
X8835448Y-13856489D01*
X8775592Y-13568446D01*
X8677072Y-13291236D01*
X8541722Y-13030024D01*
X8372065Y-12789674D01*
X8372063Y-12789671D01*
X8372061Y-12789669D01*
X8300066Y-12712582D01*
X8171260Y-12574665D01*
X8171254Y-12574660D01*
X8171251Y-12574657D01*
X7943052Y-12389003D01*
X7943039Y-12388994D01*
X7691689Y-12236145D01*
X7691686Y-12236143D01*
X7691682Y-12236141D01*
X7421841Y-12118933D01*
X7138555Y-12039560D01*
X7138552Y-12039559D01*
X6902343Y-12007093D01*
X6847098Y-11999500D01*
X6552902Y-11999500D01*
X6497656Y-12007093D01*
X6261448Y-12039559D01*
X6257929Y-12040545D01*
X5978159Y-12118933D01*
X5888212Y-12158002D01*
X5708322Y-12236139D01*
X5708310Y-12236145D01*
X5456960Y-12388994D01*
X5456947Y-12389003D01*
X5228748Y-12574657D01*
X5228743Y-12574662D01*
X5027938Y-12789669D01*
X4858279Y-13030021D01*
X4722930Y-13291230D01*
X4624408Y-13568445D01*
X4622135Y-13579384D01*
X4564552Y-13856489D01*
X4549500Y-14076538D01*
X4549500Y-14723462D01*
X400500Y-14723462D01*
X400500Y-11200000D01*
X25744751Y-11200000D01*
X25763686Y-11368056D01*
X25763686Y-11368058D01*
X25763687Y-11368059D01*
X25819544Y-11527690D01*
X25909523Y-11670890D01*
X26029110Y-11790477D01*
X26172310Y-11880456D01*
X26331941Y-11936313D01*
X26443980Y-11948937D01*
X26499999Y-11955249D01*
X26500000Y-11955249D01*
X26500001Y-11955249D01*
X26542014Y-11950515D01*
X26668059Y-11936313D01*
X26827690Y-11880456D01*
X26970890Y-11790477D01*
X27090477Y-11670890D01*
X27180456Y-11527690D01*
X27236313Y-11368059D01*
X27255249Y-11200000D01*
X27236313Y-11031941D01*
X27180456Y-10872310D01*
X27090477Y-10729110D01*
X27061367Y-10700000D01*
X50244751Y-10700000D01*
X50263686Y-10868056D01*
X50263686Y-10868058D01*
X50263687Y-10868059D01*
X50319544Y-11027690D01*
X50409523Y-11170890D01*
X50529110Y-11290477D01*
X50672310Y-11380456D01*
X50831941Y-11436313D01*
X50943980Y-11448937D01*
X50999999Y-11455249D01*
X51000000Y-11455249D01*
X51000001Y-11455249D01*
X51042014Y-11450515D01*
X51168059Y-11436313D01*
X51327690Y-11380456D01*
X51470890Y-11290477D01*
X51590477Y-11170890D01*
X51680456Y-11027690D01*
X51699800Y-10972407D01*
X52072344Y-10972407D01*
X52091279Y-11140463D01*
X52091279Y-11140465D01*
X52091280Y-11140466D01*
X52147137Y-11300097D01*
X52237116Y-11443297D01*
X52356703Y-11562884D01*
X52499903Y-11652863D01*
X52659534Y-11708720D01*
X52659537Y-11708720D01*
X52662797Y-11709861D01*
X52726523Y-11753309D01*
X52737047Y-11775163D01*
X52786114Y-11737956D01*
X52825666Y-11727873D01*
X52827592Y-11727655D01*
X52827593Y-11727656D01*
X52995652Y-11708720D01*
X53155283Y-11652863D01*
X53298483Y-11562884D01*
X53418070Y-11443297D01*
X53508049Y-11300097D01*
X53563906Y-11140466D01*
X53582842Y-10972407D01*
X53581859Y-10963687D01*
X53563906Y-10804350D01*
X53563906Y-10804348D01*
X53508049Y-10644717D01*
X53418070Y-10501517D01*
X53298483Y-10381930D01*
X53155283Y-10291951D01*
X52995652Y-10236094D01*
X52995651Y-10236093D01*
X52995649Y-10236093D01*
X52827594Y-10217158D01*
X52827592Y-10217158D01*
X52659536Y-10236093D01*
X52499902Y-10291951D01*
X52356703Y-10381930D01*
X52237116Y-10501517D01*
X52147137Y-10644716D01*
X52091279Y-10804350D01*
X52072344Y-10972406D01*
X52072344Y-10972407D01*
X51699800Y-10972407D01*
X51736313Y-10868059D01*
X51755249Y-10700000D01*
X51736313Y-10531941D01*
X51680456Y-10372310D01*
X51590477Y-10229110D01*
X51470890Y-10109523D01*
X51327690Y-10019544D01*
X51168059Y-9963687D01*
X51168058Y-9963686D01*
X51168056Y-9963686D01*
X51000001Y-9944751D01*
X50999999Y-9944751D01*
X50831943Y-9963686D01*
X50672309Y-10019544D01*
X50529110Y-10109523D01*
X50409523Y-10229110D01*
X50319544Y-10372309D01*
X50263686Y-10531943D01*
X50244751Y-10699999D01*
X50244751Y-10700000D01*
X27061367Y-10700000D01*
X26970890Y-10609523D01*
X26827690Y-10519544D01*
X26668059Y-10463687D01*
X26668058Y-10463686D01*
X26668056Y-10463686D01*
X26500001Y-10444751D01*
X26499999Y-10444751D01*
X26331943Y-10463686D01*
X26172309Y-10519544D01*
X26029110Y-10609523D01*
X25909523Y-10729110D01*
X25819544Y-10872309D01*
X25763686Y-11031943D01*
X25744751Y-11199999D01*
X25744751Y-11200000D01*
X400500Y-11200000D01*
X400500Y-10414502D01*
X21119751Y-10414502D01*
X21138686Y-10582558D01*
X21138686Y-10582560D01*
X21138687Y-10582561D01*
X21194544Y-10742192D01*
X21284523Y-10885392D01*
X21404110Y-11004979D01*
X21547310Y-11094958D01*
X21706941Y-11150815D01*
X21818980Y-11163439D01*
X21874999Y-11169751D01*
X21875000Y-11169751D01*
X21875001Y-11169751D01*
X21917014Y-11165017D01*
X22043059Y-11150815D01*
X22202690Y-11094958D01*
X22345890Y-11004979D01*
X22465477Y-10885392D01*
X22555456Y-10742192D01*
X22611313Y-10582561D01*
X22630249Y-10414502D01*
X22611313Y-10246443D01*
X22555456Y-10086812D01*
X22465477Y-9943612D01*
X22345890Y-9824025D01*
X22202690Y-9734046D01*
X22043059Y-9678189D01*
X22043058Y-9678188D01*
X22043056Y-9678188D01*
X21875001Y-9659253D01*
X21874999Y-9659253D01*
X21706943Y-9678188D01*
X21547309Y-9734046D01*
X21404110Y-9824025D01*
X21284523Y-9943612D01*
X21194544Y-10086811D01*
X21138686Y-10246445D01*
X21119751Y-10414501D01*
X21119751Y-10414502D01*
X400500Y-10414502D01*
X400500Y-9710438D01*
X420462Y-9635938D01*
X475000Y-9581400D01*
X549500Y-9561438D01*
X624000Y-9581400D01*
X671550Y-9624972D01*
X746394Y-9731858D01*
X787628Y-9790746D01*
X939256Y-9942374D01*
X1114901Y-10065363D01*
X1114914Y-10065371D01*
X1209600Y-10109523D01*
X1309253Y-10155992D01*
X1516381Y-10211492D01*
X1730000Y-10230181D01*
X1943619Y-10211492D01*
X2150747Y-10155992D01*
X2345091Y-10065368D01*
X2520745Y-9942373D01*
X2672373Y-9790745D01*
X2773450Y-9646392D01*
X2832529Y-9596819D01*
X2908486Y-9583426D01*
X2980963Y-9609805D01*
X3030540Y-9668888D01*
X3044500Y-9731858D01*
X3044500Y-9856518D01*
X3059354Y-9950304D01*
X3059355Y-9950306D01*
X3066173Y-9963687D01*
X3116950Y-10063342D01*
X3206658Y-10153050D01*
X3319696Y-10210646D01*
X3413481Y-10225500D01*
X5126518Y-10225499D01*
X5220304Y-10210646D01*
X5333342Y-10153050D01*
X5423050Y-10063342D01*
X5480646Y-9950304D01*
X5495500Y-9856519D01*
X5495499Y-8143482D01*
X5480646Y-8049696D01*
X5423050Y-7936658D01*
X5333342Y-7846950D01*
X5303889Y-7831943D01*
X5220305Y-7789354D01*
X5204673Y-7786878D01*
X5126519Y-7774500D01*
X5126514Y-7774500D01*
X3413481Y-7774500D01*
X3319695Y-7789354D01*
X3319693Y-7789355D01*
X3206657Y-7846950D01*
X3116950Y-7936657D01*
X3059354Y-8049694D01*
X3056360Y-8068600D01*
X3044500Y-8143481D01*
X3044500Y-8143482D01*
X3044500Y-8143485D01*
X3044500Y-8268139D01*
X3024538Y-8342639D01*
X2970000Y-8397177D01*
X2895500Y-8417139D01*
X2821000Y-8397177D01*
X2773447Y-8353602D01*
X2672374Y-8209256D01*
X2520743Y-8057625D01*
X2345098Y-7934636D01*
X2345085Y-7934628D01*
X2150747Y-7844008D01*
X2150745Y-7844007D01*
X1943619Y-7788508D01*
X1943620Y-7788508D01*
X1730000Y-7769819D01*
X1516379Y-7788508D01*
X1309254Y-7844007D01*
X1309253Y-7844008D01*
X1114909Y-7934632D01*
X1114908Y-7934633D01*
X939253Y-8057628D01*
X787625Y-8209256D01*
X671553Y-8375024D01*
X612470Y-8424601D01*
X536513Y-8437994D01*
X464037Y-8411614D01*
X414460Y-8352531D01*
X400500Y-8289561D01*
X400500Y-7400000D01*
X7294532Y-7400000D01*
X7314365Y-7626693D01*
X7316895Y-7636135D01*
X7373261Y-7846496D01*
X7469432Y-8052734D01*
X7469435Y-8052738D01*
X7469437Y-8052741D01*
X7599951Y-8239137D01*
X7760862Y-8400048D01*
X7785271Y-8417139D01*
X7947266Y-8530568D01*
X8153504Y-8626739D01*
X8373308Y-8685635D01*
X8600000Y-8705468D01*
X8826692Y-8685635D01*
X9046496Y-8626739D01*
X9252734Y-8530568D01*
X9439139Y-8400047D01*
X9600047Y-8239139D01*
X9727142Y-8057627D01*
X9727946Y-8056479D01*
X9787029Y-8006901D01*
X9862986Y-7993508D01*
X9935462Y-8019887D01*
X9972054Y-8056479D01*
X10099951Y-8239137D01*
X10260862Y-8400048D01*
X10285271Y-8417139D01*
X10447266Y-8530568D01*
X10653504Y-8626739D01*
X10873308Y-8685635D01*
X11100000Y-8705468D01*
X11326692Y-8685635D01*
X11546496Y-8626739D01*
X11752734Y-8530568D01*
X11939139Y-8400047D01*
X12100047Y-8239139D01*
X12168168Y-8141851D01*
X12227250Y-8092275D01*
X12303206Y-8078881D01*
X12375683Y-8105260D01*
X12414959Y-8145819D01*
X12448811Y-8197634D01*
X13037226Y-7609218D01*
X13075901Y-7702588D01*
X13172075Y-7827925D01*
X13297412Y-7924099D01*
X13390779Y-7962772D01*
X12801200Y-8552351D01*
X12801200Y-8552352D01*
X12831646Y-8576049D01*
X12831650Y-8576051D01*
X13035700Y-8686477D01*
X13255142Y-8761812D01*
X13255146Y-8761813D01*
X13483993Y-8799999D01*
X13483995Y-8800000D01*
X13716005Y-8800000D01*
X13716006Y-8799999D01*
X13944853Y-8761813D01*
X13944857Y-8761812D01*
X14164301Y-8686476D01*
X14368352Y-8576049D01*
X14368353Y-8576048D01*
X14398798Y-8552351D01*
X13809220Y-7962773D01*
X13902588Y-7924099D01*
X14027925Y-7827925D01*
X14124099Y-7702589D01*
X14162773Y-7609219D01*
X14751187Y-8197633D01*
X14835483Y-8068607D01*
X14835487Y-8068600D01*
X14928680Y-7856142D01*
X14985638Y-7631218D01*
X15004798Y-7400000D01*
X30194532Y-7400000D01*
X30214365Y-7626693D01*
X30216895Y-7636135D01*
X30273261Y-7846496D01*
X30369432Y-8052734D01*
X30369435Y-8052738D01*
X30369437Y-8052741D01*
X30499951Y-8239137D01*
X30660862Y-8400048D01*
X30685271Y-8417139D01*
X30847266Y-8530568D01*
X31053504Y-8626739D01*
X31273308Y-8685635D01*
X31500000Y-8705468D01*
X31726692Y-8685635D01*
X31946496Y-8626739D01*
X32152734Y-8530568D01*
X32339139Y-8400047D01*
X32500047Y-8239139D01*
X32627142Y-8057627D01*
X32627946Y-8056479D01*
X32687029Y-8006901D01*
X32762986Y-7993508D01*
X32835462Y-8019887D01*
X32872054Y-8056479D01*
X32999951Y-8239137D01*
X33160862Y-8400048D01*
X33185271Y-8417139D01*
X33347266Y-8530568D01*
X33553504Y-8626739D01*
X33773308Y-8685635D01*
X34000000Y-8705468D01*
X34226692Y-8685635D01*
X34446496Y-8626739D01*
X34652734Y-8530568D01*
X34839139Y-8400047D01*
X35000047Y-8239139D01*
X35127142Y-8057627D01*
X35127946Y-8056479D01*
X35187029Y-8006901D01*
X35262986Y-7993508D01*
X35335462Y-8019887D01*
X35372054Y-8056479D01*
X35499951Y-8239137D01*
X35660862Y-8400048D01*
X35685271Y-8417139D01*
X35847266Y-8530568D01*
X36053504Y-8626739D01*
X36273308Y-8685635D01*
X36500000Y-8705468D01*
X36726692Y-8685635D01*
X36946496Y-8626739D01*
X37152734Y-8530568D01*
X37339139Y-8400047D01*
X37500047Y-8239139D01*
X37630568Y-8052734D01*
X37655158Y-8000000D01*
X46544751Y-8000000D01*
X46563686Y-8168056D01*
X46563686Y-8168058D01*
X46563687Y-8168059D01*
X46619544Y-8327690D01*
X46709523Y-8470890D01*
X46829110Y-8590477D01*
X46972310Y-8680456D01*
X47131941Y-8736313D01*
X47243980Y-8748937D01*
X47299999Y-8755249D01*
X47300000Y-8755249D01*
X47300001Y-8755249D01*
X47342014Y-8750515D01*
X47468059Y-8736313D01*
X47627690Y-8680456D01*
X47770890Y-8590477D01*
X47890477Y-8470890D01*
X47980456Y-8327690D01*
X48036313Y-8168059D01*
X48055249Y-8000000D01*
X48036313Y-7831941D01*
X47980456Y-7672310D01*
X47890477Y-7529110D01*
X47770890Y-7409523D01*
X47755734Y-7400000D01*
X53094532Y-7400000D01*
X53114365Y-7626693D01*
X53116895Y-7636135D01*
X53173261Y-7846496D01*
X53269432Y-8052734D01*
X53269435Y-8052738D01*
X53269437Y-8052741D01*
X53399951Y-8239137D01*
X53560862Y-8400048D01*
X53585271Y-8417139D01*
X53747266Y-8530568D01*
X53953504Y-8626739D01*
X54173308Y-8685635D01*
X54400000Y-8705468D01*
X54626692Y-8685635D01*
X54846496Y-8626739D01*
X55052734Y-8530568D01*
X55239139Y-8400047D01*
X55400047Y-8239139D01*
X55527142Y-8057627D01*
X55527946Y-8056479D01*
X55587029Y-8006901D01*
X55662986Y-7993508D01*
X55735462Y-8019887D01*
X55772054Y-8056479D01*
X55899951Y-8239137D01*
X56060862Y-8400048D01*
X56085271Y-8417139D01*
X56247266Y-8530568D01*
X56453504Y-8626739D01*
X56673308Y-8685635D01*
X56900000Y-8705468D01*
X57126692Y-8685635D01*
X57346496Y-8626739D01*
X57552734Y-8530568D01*
X57739139Y-8400047D01*
X57900047Y-8239139D01*
X58027142Y-8057627D01*
X58027946Y-8056479D01*
X58087029Y-8006901D01*
X58162986Y-7993508D01*
X58235462Y-8019887D01*
X58272054Y-8056479D01*
X58399951Y-8239137D01*
X58560862Y-8400048D01*
X58585271Y-8417139D01*
X58747266Y-8530568D01*
X58953504Y-8626739D01*
X59173308Y-8685635D01*
X59400000Y-8705468D01*
X59626692Y-8685635D01*
X59846496Y-8626739D01*
X60052734Y-8530568D01*
X60239139Y-8400047D01*
X60400047Y-8239139D01*
X60530568Y-8052734D01*
X60626739Y-7846496D01*
X60685635Y-7626692D01*
X60705468Y-7400000D01*
X60685635Y-7173308D01*
X60626739Y-6953504D01*
X60530568Y-6747266D01*
X60400047Y-6560861D01*
X60239139Y-6399953D01*
X60239137Y-6399951D01*
X60052741Y-6269437D01*
X60052738Y-6269435D01*
X60052734Y-6269432D01*
X59846496Y-6173261D01*
X59626692Y-6114365D01*
X59626693Y-6114365D01*
X59400000Y-6094532D01*
X59173306Y-6114365D01*
X58953507Y-6173260D01*
X58953506Y-6173260D01*
X58953504Y-6173261D01*
X58747266Y-6269432D01*
X58747263Y-6269434D01*
X58747261Y-6269435D01*
X58747258Y-6269437D01*
X58560862Y-6399951D01*
X58399954Y-6560859D01*
X58272054Y-6743521D01*
X58212970Y-6793098D01*
X58137014Y-6806491D01*
X58064537Y-6780112D01*
X58027946Y-6743521D01*
X57965390Y-6654181D01*
X57900047Y-6560861D01*
X57739139Y-6399953D01*
X57739137Y-6399951D01*
X57552741Y-6269437D01*
X57552738Y-6269435D01*
X57552734Y-6269432D01*
X57346496Y-6173261D01*
X57126692Y-6114365D01*
X57126693Y-6114365D01*
X56900000Y-6094532D01*
X56673306Y-6114365D01*
X56453507Y-6173260D01*
X56453506Y-6173260D01*
X56453504Y-6173261D01*
X56247266Y-6269432D01*
X56247263Y-6269434D01*
X56247261Y-6269435D01*
X56247258Y-6269437D01*
X56060862Y-6399951D01*
X55899954Y-6560859D01*
X55772054Y-6743521D01*
X55712970Y-6793098D01*
X55637014Y-6806491D01*
X55564537Y-6780112D01*
X55527946Y-6743521D01*
X55465390Y-6654181D01*
X55400047Y-6560861D01*
X55239139Y-6399953D01*
X55239137Y-6399951D01*
X55052741Y-6269437D01*
X55052738Y-6269435D01*
X55052734Y-6269432D01*
X54846496Y-6173261D01*
X54626692Y-6114365D01*
X54626693Y-6114365D01*
X54400000Y-6094532D01*
X54173306Y-6114365D01*
X53953507Y-6173260D01*
X53953506Y-6173260D01*
X53953504Y-6173261D01*
X53747266Y-6269432D01*
X53747263Y-6269434D01*
X53747261Y-6269435D01*
X53747258Y-6269437D01*
X53560862Y-6399951D01*
X53399951Y-6560862D01*
X53269437Y-6747258D01*
X53269435Y-6747261D01*
X53269434Y-6747263D01*
X53269432Y-6747266D01*
X53173261Y-6953504D01*
X53173260Y-6953507D01*
X53114365Y-7173306D01*
X53094532Y-7400000D01*
X47755734Y-7400000D01*
X47627690Y-7319544D01*
X47468059Y-7263687D01*
X47468058Y-7263686D01*
X47468056Y-7263686D01*
X47300001Y-7244751D01*
X47299999Y-7244751D01*
X47131943Y-7263686D01*
X46972309Y-7319544D01*
X46829110Y-7409523D01*
X46709523Y-7529110D01*
X46619544Y-7672309D01*
X46563686Y-7831943D01*
X46544751Y-7999999D01*
X46544751Y-8000000D01*
X37655158Y-8000000D01*
X37726739Y-7846496D01*
X37785635Y-7626692D01*
X37805468Y-7400000D01*
X37785635Y-7173308D01*
X37726739Y-6953504D01*
X37630568Y-6747266D01*
X37500047Y-6560861D01*
X37339139Y-6399953D01*
X37339137Y-6399951D01*
X37152741Y-6269437D01*
X37152738Y-6269435D01*
X37152734Y-6269432D01*
X36946496Y-6173261D01*
X36726692Y-6114365D01*
X36726693Y-6114365D01*
X36500000Y-6094532D01*
X36273306Y-6114365D01*
X36053507Y-6173260D01*
X36053506Y-6173260D01*
X36053504Y-6173261D01*
X35847266Y-6269432D01*
X35847263Y-6269434D01*
X35847261Y-6269435D01*
X35847258Y-6269437D01*
X35660862Y-6399951D01*
X35499954Y-6560859D01*
X35372054Y-6743521D01*
X35312970Y-6793098D01*
X35237014Y-6806491D01*
X35164537Y-6780112D01*
X35127946Y-6743521D01*
X35065390Y-6654181D01*
X35000047Y-6560861D01*
X34839139Y-6399953D01*
X34839137Y-6399951D01*
X34652741Y-6269437D01*
X34652738Y-6269435D01*
X34652734Y-6269432D01*
X34446496Y-6173261D01*
X34226692Y-6114365D01*
X34226693Y-6114365D01*
X34000000Y-6094532D01*
X33773306Y-6114365D01*
X33553507Y-6173260D01*
X33553506Y-6173260D01*
X33553504Y-6173261D01*
X33347266Y-6269432D01*
X33347263Y-6269434D01*
X33347261Y-6269435D01*
X33347258Y-6269437D01*
X33160862Y-6399951D01*
X32999954Y-6560859D01*
X32872054Y-6743521D01*
X32812970Y-6793098D01*
X32737014Y-6806491D01*
X32664537Y-6780112D01*
X32627946Y-6743521D01*
X32565390Y-6654181D01*
X32500047Y-6560861D01*
X32339139Y-6399953D01*
X32339137Y-6399951D01*
X32152741Y-6269437D01*
X32152738Y-6269435D01*
X32152734Y-6269432D01*
X31946496Y-6173261D01*
X31726692Y-6114365D01*
X31726693Y-6114365D01*
X31500000Y-6094532D01*
X31273306Y-6114365D01*
X31053507Y-6173260D01*
X31053506Y-6173260D01*
X31053504Y-6173261D01*
X30847266Y-6269432D01*
X30847263Y-6269434D01*
X30847261Y-6269435D01*
X30847258Y-6269437D01*
X30660862Y-6399951D01*
X30499951Y-6560862D01*
X30369437Y-6747258D01*
X30369435Y-6747261D01*
X30369434Y-6747263D01*
X30369432Y-6747266D01*
X30273261Y-6953504D01*
X30273260Y-6953507D01*
X30214365Y-7173306D01*
X30194532Y-7400000D01*
X15004798Y-7400000D01*
X15004798Y-7399999D01*
X14985638Y-7168781D01*
X14928680Y-6943857D01*
X14835484Y-6731390D01*
X14751187Y-6602365D01*
X14162772Y-7190779D01*
X14124099Y-7097412D01*
X14027925Y-6972075D01*
X13902588Y-6875901D01*
X13809218Y-6837226D01*
X14398798Y-6247646D01*
X14368352Y-6223950D01*
X14368349Y-6223948D01*
X14164299Y-6113522D01*
X13944857Y-6038187D01*
X13944853Y-6038186D01*
X13716006Y-6000000D01*
X13483993Y-6000000D01*
X13255146Y-6038186D01*
X13255142Y-6038187D01*
X13035700Y-6113522D01*
X12831650Y-6223949D01*
X12801200Y-6247647D01*
X13390779Y-6837226D01*
X13297412Y-6875901D01*
X13172075Y-6972075D01*
X13075901Y-7097411D01*
X13037226Y-7190779D01*
X12448812Y-6602365D01*
X12414959Y-6654181D01*
X12357499Y-6705631D01*
X12282012Y-6721459D01*
X12208725Y-6697423D01*
X12168167Y-6658147D01*
X12100048Y-6560862D01*
X11939137Y-6399951D01*
X11752741Y-6269437D01*
X11752738Y-6269435D01*
X11752734Y-6269432D01*
X11546496Y-6173261D01*
X11326692Y-6114365D01*
X11326693Y-6114365D01*
X11100000Y-6094532D01*
X10873306Y-6114365D01*
X10653507Y-6173260D01*
X10653506Y-6173260D01*
X10653504Y-6173261D01*
X10447266Y-6269432D01*
X10447263Y-6269434D01*
X10447261Y-6269435D01*
X10447258Y-6269437D01*
X10260862Y-6399951D01*
X10099954Y-6560859D01*
X9972054Y-6743521D01*
X9912970Y-6793098D01*
X9837014Y-6806491D01*
X9764537Y-6780112D01*
X9727946Y-6743521D01*
X9665390Y-6654181D01*
X9600047Y-6560861D01*
X9439139Y-6399953D01*
X9439137Y-6399951D01*
X9252741Y-6269437D01*
X9252738Y-6269435D01*
X9252734Y-6269432D01*
X9046496Y-6173261D01*
X8826692Y-6114365D01*
X8826693Y-6114365D01*
X8600000Y-6094532D01*
X8373306Y-6114365D01*
X8153507Y-6173260D01*
X8153506Y-6173260D01*
X8153504Y-6173261D01*
X7947266Y-6269432D01*
X7947263Y-6269434D01*
X7947261Y-6269435D01*
X7947258Y-6269437D01*
X7760862Y-6399951D01*
X7599951Y-6560862D01*
X7469437Y-6747258D01*
X7469435Y-6747261D01*
X7469434Y-6747263D01*
X7469432Y-6747266D01*
X7373261Y-6953504D01*
X7373260Y-6953507D01*
X7314365Y-7173306D01*
X7294532Y-7400000D01*
X400500Y-7400000D01*
X400500Y-4569605D01*
X2095687Y-4569605D01*
X2126111Y-4846111D01*
X2126114Y-4846125D01*
X2161590Y-4981823D01*
X2196480Y-5115276D01*
X2305284Y-5371314D01*
X2305286Y-5371318D01*
X2305289Y-5371323D01*
X2450207Y-5608781D01*
X2450210Y-5608785D01*
X2628155Y-5822609D01*
X2628167Y-5822621D01*
X2748031Y-5930019D01*
X2835357Y-6008263D01*
X3067373Y-6161763D01*
X3319267Y-6279846D01*
X3585669Y-6359995D01*
X3860901Y-6400500D01*
X3860908Y-6400500D01*
X4069461Y-6400500D01*
X4069463Y-6400500D01*
X4277455Y-6385277D01*
X4548997Y-6324788D01*
X4549003Y-6324785D01*
X4549009Y-6324784D01*
X4758114Y-6244808D01*
X4808838Y-6225408D01*
X5051440Y-6089253D01*
X5271632Y-5919226D01*
X5464722Y-5718951D01*
X5626593Y-5492696D01*
X5753797Y-5245283D01*
X5843621Y-4981986D01*
X5894152Y-4708416D01*
X5904313Y-4430404D01*
X5902474Y-4413687D01*
X5900968Y-4400004D01*
X9894785Y-4400004D01*
X9913602Y-4603078D01*
X9969416Y-4799245D01*
X9969417Y-4799247D01*
X9969418Y-4799250D01*
X9992759Y-4846125D01*
X10060328Y-4981823D01*
X10060452Y-4981987D01*
X10183236Y-5144579D01*
X10293708Y-5245287D01*
X10333958Y-5281980D01*
X10333963Y-5281984D01*
X10507356Y-5389344D01*
X10507367Y-5389350D01*
X10623332Y-5434274D01*
X10697544Y-5463024D01*
X10898024Y-5500500D01*
X10898027Y-5500500D01*
X11101973Y-5500500D01*
X11101976Y-5500500D01*
X11302456Y-5463024D01*
X11492637Y-5389348D01*
X11666041Y-5281981D01*
X11816764Y-5144579D01*
X11881096Y-5059388D01*
X11941921Y-5011967D01*
X12018310Y-5001311D01*
X12089792Y-5030277D01*
X12118902Y-5059387D01*
X12183236Y-5144579D01*
X12293708Y-5245287D01*
X12333958Y-5281980D01*
X12333963Y-5281984D01*
X12507356Y-5389344D01*
X12507367Y-5389350D01*
X12623332Y-5434274D01*
X12697544Y-5463024D01*
X12898024Y-5500500D01*
X12898027Y-5500500D01*
X13101973Y-5500500D01*
X13101976Y-5500500D01*
X13302456Y-5463024D01*
X13492637Y-5389348D01*
X13666041Y-5281981D01*
X13816764Y-5144579D01*
X13881096Y-5059388D01*
X13941921Y-5011967D01*
X14018310Y-5001311D01*
X14089792Y-5030277D01*
X14118902Y-5059387D01*
X14183236Y-5144579D01*
X14293708Y-5245287D01*
X14333958Y-5281980D01*
X14333963Y-5281984D01*
X14507356Y-5389344D01*
X14507367Y-5389350D01*
X14623332Y-5434274D01*
X14697544Y-5463024D01*
X14898024Y-5500500D01*
X14898027Y-5500500D01*
X15101973Y-5500500D01*
X15101976Y-5500500D01*
X15302456Y-5463024D01*
X15492637Y-5389348D01*
X15666041Y-5281981D01*
X15816764Y-5144579D01*
X15939673Y-4981821D01*
X16030582Y-4799250D01*
X16086397Y-4603083D01*
X16105215Y-4400004D01*
X17894785Y-4400004D01*
X17913602Y-4603078D01*
X17969416Y-4799245D01*
X17969417Y-4799247D01*
X17969418Y-4799250D01*
X17992759Y-4846125D01*
X18060328Y-4981823D01*
X18060452Y-4981987D01*
X18183236Y-5144579D01*
X18293708Y-5245287D01*
X18333958Y-5281980D01*
X18333963Y-5281984D01*
X18507356Y-5389344D01*
X18507367Y-5389350D01*
X18623332Y-5434274D01*
X18697544Y-5463024D01*
X18898024Y-5500500D01*
X18898027Y-5500500D01*
X19101973Y-5500500D01*
X19101976Y-5500500D01*
X19302456Y-5463024D01*
X19492637Y-5389348D01*
X19666041Y-5281981D01*
X19816764Y-5144579D01*
X19881096Y-5059388D01*
X19941921Y-5011967D01*
X20018310Y-5001311D01*
X20089792Y-5030277D01*
X20118902Y-5059387D01*
X20183236Y-5144579D01*
X20293708Y-5245287D01*
X20333958Y-5281980D01*
X20333963Y-5281984D01*
X20507356Y-5389344D01*
X20507367Y-5389350D01*
X20623332Y-5434274D01*
X20697544Y-5463024D01*
X20898024Y-5500500D01*
X20898027Y-5500500D01*
X21101973Y-5500500D01*
X21101976Y-5500500D01*
X21302456Y-5463024D01*
X21492637Y-5389348D01*
X21666041Y-5281981D01*
X21810817Y-5150000D01*
X23294751Y-5150000D01*
X23313686Y-5318056D01*
X23313686Y-5318058D01*
X23313687Y-5318059D01*
X23369544Y-5477690D01*
X23459523Y-5620890D01*
X23579110Y-5740477D01*
X23722310Y-5830456D01*
X23881941Y-5886313D01*
X23993980Y-5898937D01*
X24049999Y-5905249D01*
X24050000Y-5905249D01*
X24050001Y-5905249D01*
X24092014Y-5900515D01*
X24218059Y-5886313D01*
X24377690Y-5830456D01*
X24520890Y-5740477D01*
X24640477Y-5620890D01*
X24730456Y-5477690D01*
X24786313Y-5318059D01*
X24805249Y-5150000D01*
X24801336Y-5115276D01*
X24798937Y-5093980D01*
X24786313Y-4981941D01*
X24730456Y-4822310D01*
X24640477Y-4679110D01*
X24520890Y-4559523D01*
X24377690Y-4469544D01*
X24218059Y-4413687D01*
X24218058Y-4413686D01*
X24218056Y-4413686D01*
X24096623Y-4400004D01*
X27894785Y-4400004D01*
X27913602Y-4603078D01*
X27969416Y-4799245D01*
X27969417Y-4799247D01*
X27969418Y-4799250D01*
X27992759Y-4846125D01*
X28060328Y-4981823D01*
X28060452Y-4981987D01*
X28183236Y-5144579D01*
X28293708Y-5245287D01*
X28333958Y-5281980D01*
X28333963Y-5281984D01*
X28507356Y-5389344D01*
X28507367Y-5389350D01*
X28623332Y-5434274D01*
X28697544Y-5463024D01*
X28847062Y-5490973D01*
X28916625Y-5524284D01*
X28960213Y-5587915D01*
X28967746Y-5620752D01*
X28971899Y-5657616D01*
X28971900Y-5657618D01*
X29027757Y-5817249D01*
X29117736Y-5960449D01*
X29237323Y-6080036D01*
X29380523Y-6170015D01*
X29540154Y-6225872D01*
X29652193Y-6238496D01*
X29708212Y-6244808D01*
X29708213Y-6244808D01*
X29708214Y-6244808D01*
X29750227Y-6240074D01*
X29876272Y-6225872D01*
X30035903Y-6170015D01*
X30179103Y-6080036D01*
X30298690Y-5960449D01*
X30388669Y-5817249D01*
X30444526Y-5657618D01*
X30454474Y-5569323D01*
X30482652Y-5497529D01*
X30542953Y-5449440D01*
X30619220Y-5437945D01*
X30656359Y-5447069D01*
X30697544Y-5463024D01*
X30898024Y-5500500D01*
X30898027Y-5500500D01*
X31101973Y-5500500D01*
X31101976Y-5500500D01*
X31302456Y-5463024D01*
X31492637Y-5389348D01*
X31666041Y-5281981D01*
X31816764Y-5144579D01*
X31881096Y-5059388D01*
X31941921Y-5011967D01*
X32018310Y-5001311D01*
X32089792Y-5030277D01*
X32118902Y-5059387D01*
X32183236Y-5144579D01*
X32293708Y-5245287D01*
X32333958Y-5281980D01*
X32333963Y-5281984D01*
X32507356Y-5389344D01*
X32507367Y-5389350D01*
X32623332Y-5434274D01*
X32697544Y-5463024D01*
X32898024Y-5500500D01*
X32898027Y-5500500D01*
X33101973Y-5500500D01*
X33101976Y-5500500D01*
X33302456Y-5463024D01*
X33492637Y-5389348D01*
X33666041Y-5281981D01*
X33816764Y-5144579D01*
X33939673Y-4981821D01*
X34030582Y-4799250D01*
X34086397Y-4603083D01*
X34105215Y-4400004D01*
X35894785Y-4400004D01*
X35913602Y-4603078D01*
X35969416Y-4799245D01*
X35969417Y-4799247D01*
X35969418Y-4799250D01*
X35992759Y-4846125D01*
X36060328Y-4981823D01*
X36060452Y-4981987D01*
X36183236Y-5144579D01*
X36293708Y-5245287D01*
X36333958Y-5281980D01*
X36333963Y-5281984D01*
X36507356Y-5389344D01*
X36507367Y-5389350D01*
X36623332Y-5434274D01*
X36697544Y-5463024D01*
X36898024Y-5500500D01*
X36898027Y-5500500D01*
X37101973Y-5500500D01*
X37101976Y-5500500D01*
X37302456Y-5463024D01*
X37492637Y-5389348D01*
X37666041Y-5281981D01*
X37816764Y-5144579D01*
X37881096Y-5059388D01*
X37941921Y-5011967D01*
X38018310Y-5001311D01*
X38089792Y-5030277D01*
X38118902Y-5059387D01*
X38183236Y-5144579D01*
X38293708Y-5245287D01*
X38333958Y-5281980D01*
X38333963Y-5281984D01*
X38507356Y-5389344D01*
X38507367Y-5389350D01*
X38623332Y-5434274D01*
X38697544Y-5463024D01*
X38898024Y-5500500D01*
X38898027Y-5500500D01*
X39101973Y-5500500D01*
X39101976Y-5500500D01*
X39302456Y-5463024D01*
X39492637Y-5389348D01*
X39666041Y-5281981D01*
X39816764Y-5144579D01*
X39939673Y-4981821D01*
X40030582Y-4799250D01*
X40086397Y-4603083D01*
X40105215Y-4400004D01*
X45894785Y-4400004D01*
X45913602Y-4603078D01*
X45969416Y-4799245D01*
X45969417Y-4799247D01*
X45969418Y-4799250D01*
X45992759Y-4846125D01*
X46060328Y-4981823D01*
X46060452Y-4981987D01*
X46183236Y-5144579D01*
X46293708Y-5245287D01*
X46333958Y-5281980D01*
X46333963Y-5281984D01*
X46507356Y-5389344D01*
X46507367Y-5389350D01*
X46623332Y-5434274D01*
X46697544Y-5463024D01*
X46898024Y-5500500D01*
X46898027Y-5500500D01*
X47101973Y-5500500D01*
X47101976Y-5500500D01*
X47302456Y-5463024D01*
X47492637Y-5389348D01*
X47666041Y-5281981D01*
X47816764Y-5144579D01*
X47881096Y-5059388D01*
X47941921Y-5011967D01*
X48018310Y-5001311D01*
X48089792Y-5030277D01*
X48118902Y-5059387D01*
X48183236Y-5144579D01*
X48293708Y-5245287D01*
X48333958Y-5281980D01*
X48333963Y-5281984D01*
X48507356Y-5389344D01*
X48507367Y-5389350D01*
X48623332Y-5434274D01*
X48697544Y-5463024D01*
X48898024Y-5500500D01*
X48898027Y-5500500D01*
X49101973Y-5500500D01*
X49101976Y-5500500D01*
X49302456Y-5463024D01*
X49492637Y-5389348D01*
X49666041Y-5281981D01*
X49816764Y-5144579D01*
X49881096Y-5059388D01*
X49941921Y-5011967D01*
X50018310Y-5001311D01*
X50089792Y-5030277D01*
X50118902Y-5059387D01*
X50183236Y-5144579D01*
X50293708Y-5245287D01*
X50333958Y-5281980D01*
X50333963Y-5281984D01*
X50507356Y-5389344D01*
X50507367Y-5389350D01*
X50623332Y-5434274D01*
X50697544Y-5463024D01*
X50898024Y-5500500D01*
X50898027Y-5500500D01*
X51101973Y-5500500D01*
X51101976Y-5500500D01*
X51302456Y-5463024D01*
X51492637Y-5389348D01*
X51666041Y-5281981D01*
X51816764Y-5144579D01*
X51939673Y-4981821D01*
X52030582Y-4799250D01*
X52086397Y-4603083D01*
X52105215Y-4400004D01*
X53894785Y-4400004D01*
X53913602Y-4603078D01*
X53969416Y-4799245D01*
X53969417Y-4799247D01*
X53969418Y-4799250D01*
X53992759Y-4846125D01*
X54060328Y-4981823D01*
X54060452Y-4981987D01*
X54183236Y-5144579D01*
X54293708Y-5245287D01*
X54333958Y-5281980D01*
X54333963Y-5281984D01*
X54507356Y-5389344D01*
X54507367Y-5389350D01*
X54623332Y-5434274D01*
X54697544Y-5463024D01*
X54898024Y-5500500D01*
X54898027Y-5500500D01*
X55101973Y-5500500D01*
X55101976Y-5500500D01*
X55302456Y-5463024D01*
X55492637Y-5389348D01*
X55666041Y-5281981D01*
X55816764Y-5144579D01*
X55881096Y-5059388D01*
X55941921Y-5011967D01*
X56018310Y-5001311D01*
X56089792Y-5030277D01*
X56118902Y-5059387D01*
X56183236Y-5144579D01*
X56293708Y-5245287D01*
X56333958Y-5281980D01*
X56333963Y-5281984D01*
X56507356Y-5389344D01*
X56507367Y-5389350D01*
X56623332Y-5434274D01*
X56697544Y-5463024D01*
X56898024Y-5500500D01*
X56898027Y-5500500D01*
X57101973Y-5500500D01*
X57101976Y-5500500D01*
X57302456Y-5463024D01*
X57492637Y-5389348D01*
X57666041Y-5281981D01*
X57816764Y-5144579D01*
X57939673Y-4981821D01*
X58030582Y-4799250D01*
X58086397Y-4603083D01*
X58105215Y-4400000D01*
X58086397Y-4196917D01*
X58030582Y-4000750D01*
X57939673Y-3818179D01*
X57816764Y-3655421D01*
X57666041Y-3518019D01*
X57666036Y-3518015D01*
X57492643Y-3410655D01*
X57492632Y-3410649D01*
X57302462Y-3336978D01*
X57302458Y-3336977D01*
X57302456Y-3336976D01*
X57262360Y-3329480D01*
X57101980Y-3299500D01*
X57101976Y-3299500D01*
X56898024Y-3299500D01*
X56898019Y-3299500D01*
X56697544Y-3336976D01*
X56697537Y-3336978D01*
X56507367Y-3410649D01*
X56507356Y-3410655D01*
X56333963Y-3518015D01*
X56333958Y-3518019D01*
X56183233Y-3655424D01*
X56118904Y-3740610D01*
X56058078Y-3788032D01*
X55981690Y-3798688D01*
X55910207Y-3769721D01*
X55881096Y-3740610D01*
X55816766Y-3655424D01*
X55816764Y-3655421D01*
X55666041Y-3518019D01*
X55666036Y-3518015D01*
X55492643Y-3410655D01*
X55492632Y-3410649D01*
X55302462Y-3336978D01*
X55302458Y-3336977D01*
X55302456Y-3336976D01*
X55262360Y-3329480D01*
X55101980Y-3299500D01*
X55101976Y-3299500D01*
X54898024Y-3299500D01*
X54898019Y-3299500D01*
X54697544Y-3336976D01*
X54697537Y-3336978D01*
X54507367Y-3410649D01*
X54507356Y-3410655D01*
X54333963Y-3518015D01*
X54333958Y-3518019D01*
X54183234Y-3655423D01*
X54060328Y-3818176D01*
X53969416Y-4000754D01*
X53913602Y-4196921D01*
X53894785Y-4399995D01*
X53894785Y-4400004D01*
X52105215Y-4400004D01*
X52105215Y-4400000D01*
X52086397Y-4196917D01*
X52030582Y-4000750D01*
X51939673Y-3818179D01*
X51816764Y-3655421D01*
X51666041Y-3518019D01*
X51666036Y-3518015D01*
X51492643Y-3410655D01*
X51492632Y-3410649D01*
X51302462Y-3336978D01*
X51302458Y-3336977D01*
X51302456Y-3336976D01*
X51262360Y-3329480D01*
X51101980Y-3299500D01*
X51101976Y-3299500D01*
X50898024Y-3299500D01*
X50898019Y-3299500D01*
X50697544Y-3336976D01*
X50697537Y-3336978D01*
X50507367Y-3410649D01*
X50507356Y-3410655D01*
X50333963Y-3518015D01*
X50333958Y-3518019D01*
X50183233Y-3655424D01*
X50118904Y-3740610D01*
X50058078Y-3788032D01*
X49981690Y-3798688D01*
X49910207Y-3769721D01*
X49881096Y-3740610D01*
X49816766Y-3655424D01*
X49816764Y-3655421D01*
X49666041Y-3518019D01*
X49666036Y-3518015D01*
X49492643Y-3410655D01*
X49492632Y-3410649D01*
X49302462Y-3336978D01*
X49302458Y-3336977D01*
X49302456Y-3336976D01*
X49262360Y-3329480D01*
X49101980Y-3299500D01*
X49101976Y-3299500D01*
X48898024Y-3299500D01*
X48898019Y-3299500D01*
X48697544Y-3336976D01*
X48697537Y-3336978D01*
X48507367Y-3410649D01*
X48507356Y-3410655D01*
X48333963Y-3518015D01*
X48333958Y-3518019D01*
X48183233Y-3655424D01*
X48118904Y-3740610D01*
X48058078Y-3788032D01*
X47981690Y-3798688D01*
X47910207Y-3769721D01*
X47881096Y-3740610D01*
X47816766Y-3655424D01*
X47816764Y-3655421D01*
X47666041Y-3518019D01*
X47666036Y-3518015D01*
X47492643Y-3410655D01*
X47492632Y-3410649D01*
X47302462Y-3336978D01*
X47302458Y-3336977D01*
X47302456Y-3336976D01*
X47262360Y-3329480D01*
X47101980Y-3299500D01*
X47101976Y-3299500D01*
X46898024Y-3299500D01*
X46898019Y-3299500D01*
X46697544Y-3336976D01*
X46697537Y-3336978D01*
X46507367Y-3410649D01*
X46507356Y-3410655D01*
X46333963Y-3518015D01*
X46333958Y-3518019D01*
X46183234Y-3655423D01*
X46060328Y-3818176D01*
X45969416Y-4000754D01*
X45913602Y-4196921D01*
X45894785Y-4399995D01*
X45894785Y-4400004D01*
X40105215Y-4400004D01*
X40105215Y-4400000D01*
X40086397Y-4196917D01*
X40030582Y-4000750D01*
X39939673Y-3818179D01*
X39816764Y-3655421D01*
X39666041Y-3518019D01*
X39666036Y-3518015D01*
X39492643Y-3410655D01*
X39492632Y-3410649D01*
X39302462Y-3336978D01*
X39302458Y-3336977D01*
X39302456Y-3336976D01*
X39262360Y-3329480D01*
X39101980Y-3299500D01*
X39101976Y-3299500D01*
X38898024Y-3299500D01*
X38898019Y-3299500D01*
X38697544Y-3336976D01*
X38697537Y-3336978D01*
X38507367Y-3410649D01*
X38507356Y-3410655D01*
X38333963Y-3518015D01*
X38333958Y-3518019D01*
X38183233Y-3655424D01*
X38118904Y-3740610D01*
X38058078Y-3788032D01*
X37981690Y-3798688D01*
X37910207Y-3769721D01*
X37881096Y-3740610D01*
X37816766Y-3655424D01*
X37816764Y-3655421D01*
X37666041Y-3518019D01*
X37666036Y-3518015D01*
X37492643Y-3410655D01*
X37492632Y-3410649D01*
X37302462Y-3336978D01*
X37302458Y-3336977D01*
X37302456Y-3336976D01*
X37262360Y-3329480D01*
X37101980Y-3299500D01*
X37101976Y-3299500D01*
X36898024Y-3299500D01*
X36898019Y-3299500D01*
X36697544Y-3336976D01*
X36697537Y-3336978D01*
X36507367Y-3410649D01*
X36507356Y-3410655D01*
X36333963Y-3518015D01*
X36333958Y-3518019D01*
X36183234Y-3655423D01*
X36060328Y-3818176D01*
X35969416Y-4000754D01*
X35913602Y-4196921D01*
X35894785Y-4399995D01*
X35894785Y-4400004D01*
X34105215Y-4400004D01*
X34105215Y-4400000D01*
X34086397Y-4196917D01*
X34030582Y-4000750D01*
X33939673Y-3818179D01*
X33816764Y-3655421D01*
X33666041Y-3518019D01*
X33666036Y-3518015D01*
X33492643Y-3410655D01*
X33492632Y-3410649D01*
X33302462Y-3336978D01*
X33302458Y-3336977D01*
X33302456Y-3336976D01*
X33262360Y-3329480D01*
X33101980Y-3299500D01*
X33101976Y-3299500D01*
X32898024Y-3299500D01*
X32898019Y-3299500D01*
X32697544Y-3336976D01*
X32697537Y-3336978D01*
X32507367Y-3410649D01*
X32507356Y-3410655D01*
X32333963Y-3518015D01*
X32333958Y-3518019D01*
X32183233Y-3655424D01*
X32118904Y-3740610D01*
X32058078Y-3788032D01*
X31981690Y-3798688D01*
X31910207Y-3769721D01*
X31881096Y-3740610D01*
X31816766Y-3655424D01*
X31816764Y-3655421D01*
X31666041Y-3518019D01*
X31666036Y-3518015D01*
X31492643Y-3410655D01*
X31492632Y-3410649D01*
X31302462Y-3336978D01*
X31302458Y-3336977D01*
X31302456Y-3336976D01*
X31262360Y-3329480D01*
X31101980Y-3299500D01*
X31101976Y-3299500D01*
X30898024Y-3299500D01*
X30898019Y-3299500D01*
X30697544Y-3336976D01*
X30697537Y-3336978D01*
X30507367Y-3410649D01*
X30507356Y-3410655D01*
X30333963Y-3518015D01*
X30333958Y-3518019D01*
X30183233Y-3655424D01*
X30118904Y-3740610D01*
X30058078Y-3788032D01*
X29981690Y-3798688D01*
X29910207Y-3769721D01*
X29881096Y-3740610D01*
X29816766Y-3655424D01*
X29816764Y-3655421D01*
X29666041Y-3518019D01*
X29666036Y-3518015D01*
X29492643Y-3410655D01*
X29492632Y-3410649D01*
X29302462Y-3336978D01*
X29302458Y-3336977D01*
X29302456Y-3336976D01*
X29262360Y-3329480D01*
X29101980Y-3299500D01*
X29101976Y-3299500D01*
X28898024Y-3299500D01*
X28898019Y-3299500D01*
X28697544Y-3336976D01*
X28697537Y-3336978D01*
X28507367Y-3410649D01*
X28507356Y-3410655D01*
X28333963Y-3518015D01*
X28333958Y-3518019D01*
X28183234Y-3655423D01*
X28060328Y-3818176D01*
X27969416Y-4000754D01*
X27913602Y-4196921D01*
X27894785Y-4399995D01*
X27894785Y-4400004D01*
X24096623Y-4400004D01*
X24050001Y-4394751D01*
X24049999Y-4394751D01*
X23881943Y-4413686D01*
X23722309Y-4469544D01*
X23579110Y-4559523D01*
X23459523Y-4679110D01*
X23369544Y-4822309D01*
X23313686Y-4981943D01*
X23294751Y-5149999D01*
X23294751Y-5150000D01*
X21810817Y-5150000D01*
X21816764Y-5144579D01*
X21939673Y-4981821D01*
X22030582Y-4799250D01*
X22086397Y-4603083D01*
X22105215Y-4400000D01*
X22086397Y-4196917D01*
X22030582Y-4000750D01*
X21939673Y-3818179D01*
X21816764Y-3655421D01*
X21666041Y-3518019D01*
X21666036Y-3518015D01*
X21492643Y-3410655D01*
X21492632Y-3410649D01*
X21302462Y-3336978D01*
X21302458Y-3336977D01*
X21302456Y-3336976D01*
X21262360Y-3329480D01*
X21101980Y-3299500D01*
X21101976Y-3299500D01*
X20898024Y-3299500D01*
X20898019Y-3299500D01*
X20697544Y-3336976D01*
X20697537Y-3336978D01*
X20507367Y-3410649D01*
X20507356Y-3410655D01*
X20333963Y-3518015D01*
X20333958Y-3518019D01*
X20183233Y-3655424D01*
X20118904Y-3740610D01*
X20058078Y-3788032D01*
X19981690Y-3798688D01*
X19910207Y-3769721D01*
X19881096Y-3740610D01*
X19816766Y-3655424D01*
X19816764Y-3655421D01*
X19666041Y-3518019D01*
X19666036Y-3518015D01*
X19492643Y-3410655D01*
X19492632Y-3410649D01*
X19302462Y-3336978D01*
X19302458Y-3336977D01*
X19302456Y-3336976D01*
X19262360Y-3329480D01*
X19101980Y-3299500D01*
X19101976Y-3299500D01*
X18898024Y-3299500D01*
X18898019Y-3299500D01*
X18697544Y-3336976D01*
X18697537Y-3336978D01*
X18507367Y-3410649D01*
X18507356Y-3410655D01*
X18333963Y-3518015D01*
X18333958Y-3518019D01*
X18183234Y-3655423D01*
X18060328Y-3818176D01*
X17969416Y-4000754D01*
X17913602Y-4196921D01*
X17894785Y-4399995D01*
X17894785Y-4400004D01*
X16105215Y-4400004D01*
X16105215Y-4400000D01*
X16086397Y-4196917D01*
X16030582Y-4000750D01*
X15939673Y-3818179D01*
X15816764Y-3655421D01*
X15666041Y-3518019D01*
X15666036Y-3518015D01*
X15492643Y-3410655D01*
X15492632Y-3410649D01*
X15302462Y-3336978D01*
X15302458Y-3336977D01*
X15302456Y-3336976D01*
X15262360Y-3329480D01*
X15101980Y-3299500D01*
X15101976Y-3299500D01*
X14898024Y-3299500D01*
X14898019Y-3299500D01*
X14697544Y-3336976D01*
X14697537Y-3336978D01*
X14507367Y-3410649D01*
X14507356Y-3410655D01*
X14333963Y-3518015D01*
X14333958Y-3518019D01*
X14183233Y-3655424D01*
X14118904Y-3740610D01*
X14058078Y-3788032D01*
X13981690Y-3798688D01*
X13910207Y-3769721D01*
X13881096Y-3740610D01*
X13816766Y-3655424D01*
X13816764Y-3655421D01*
X13666041Y-3518019D01*
X13666036Y-3518015D01*
X13492643Y-3410655D01*
X13492632Y-3410649D01*
X13302462Y-3336978D01*
X13302458Y-3336977D01*
X13302456Y-3336976D01*
X13262360Y-3329480D01*
X13101980Y-3299500D01*
X13101976Y-3299500D01*
X12898024Y-3299500D01*
X12898019Y-3299500D01*
X12697544Y-3336976D01*
X12697537Y-3336978D01*
X12507367Y-3410649D01*
X12507356Y-3410655D01*
X12333963Y-3518015D01*
X12333958Y-3518019D01*
X12183233Y-3655424D01*
X12118904Y-3740610D01*
X12058078Y-3788032D01*
X11981690Y-3798688D01*
X11910207Y-3769721D01*
X11881096Y-3740610D01*
X11816766Y-3655424D01*
X11816764Y-3655421D01*
X11666041Y-3518019D01*
X11666036Y-3518015D01*
X11492643Y-3410655D01*
X11492632Y-3410649D01*
X11302462Y-3336978D01*
X11302458Y-3336977D01*
X11302456Y-3336976D01*
X11262360Y-3329480D01*
X11101980Y-3299500D01*
X11101976Y-3299500D01*
X10898024Y-3299500D01*
X10898019Y-3299500D01*
X10697544Y-3336976D01*
X10697537Y-3336978D01*
X10507367Y-3410649D01*
X10507356Y-3410655D01*
X10333963Y-3518015D01*
X10333958Y-3518019D01*
X10183234Y-3655423D01*
X10060328Y-3818176D01*
X9969416Y-4000754D01*
X9913602Y-4196921D01*
X9894785Y-4399995D01*
X9894785Y-4400004D01*
X5900968Y-4400004D01*
X5873888Y-4153888D01*
X5873886Y-4153881D01*
X5873886Y-4153876D01*
X5803520Y-3884724D01*
X5694716Y-3628686D01*
X5627177Y-3518019D01*
X5549792Y-3391218D01*
X5549789Y-3391214D01*
X5371844Y-3177390D01*
X5371832Y-3177378D01*
X5164650Y-2991743D01*
X5164647Y-2991741D01*
X5164643Y-2991737D01*
X4932627Y-2838237D01*
X4897978Y-2821994D01*
X4680732Y-2720153D01*
X4531353Y-2675212D01*
X4414331Y-2640005D01*
X4414325Y-2640004D01*
X4139108Y-2599501D01*
X4139104Y-2599500D01*
X4139099Y-2599500D01*
X3930537Y-2599500D01*
X3722545Y-2614723D01*
X3722537Y-2614724D01*
X3451005Y-2675211D01*
X3450990Y-2675215D01*
X3191164Y-2774590D01*
X3191158Y-2774593D01*
X2948561Y-2910745D01*
X2728369Y-3080772D01*
X2728364Y-3080777D01*
X2535277Y-3281049D01*
X2373407Y-3507302D01*
X2246205Y-3754712D01*
X2246203Y-3754715D01*
X2246203Y-3754717D01*
X2240522Y-3771369D01*
X2156379Y-4018012D01*
X2156377Y-4018021D01*
X2105848Y-4291577D01*
X2101885Y-4400004D01*
X2098231Y-4500008D01*
X2095687Y-4569605D01*
X400500Y-4569605D01*
X400500Y-1549500D01*
X420462Y-1475000D01*
X475000Y-1420462D01*
X549500Y-1400500D01*
X7110218Y-1400500D01*
X7110222Y-1400500D01*
X7327951Y-1366015D01*
X7327952Y-1366014D01*
X7327956Y-1366014D01*
X7408556Y-1339825D01*
X7537606Y-1297895D01*
X7734022Y-1197815D01*
X7912365Y-1068242D01*
X8068242Y-912365D01*
X8197815Y-734022D01*
X8297895Y-537606D01*
X8308991Y-503456D01*
X8350998Y-438771D01*
X8419720Y-403756D01*
X8450698Y-400500D01*
X9878281Y-400500D01*
X9952781Y-420462D01*
G37*
G04 #@! TD.AperFunction*
M02*
