G04 #@! TF.GenerationSoftware,KiCad,Pcbnew,7.0.9*
G04 #@! TF.CreationDate,2023-12-08T16:12:54+01:00*
G04 #@! TF.ProjectId,2023_PiezoPreamp,32303233-5f50-4696-957a-6f507265616d,rev?*
G04 #@! TF.SameCoordinates,PX2625a00PY1c22260*
G04 #@! TF.FileFunction,Copper,L1,Top*
G04 #@! TF.FilePolarity,Positive*
%FSLAX46Y46*%
G04 Gerber Fmt 4.6, Leading zero omitted, Abs format (unit mm)*
G04 Created by KiCad (PCBNEW 7.0.9) date 2023-12-08 16:12:54*
%MOMM*%
%LPD*%
G01*
G04 APERTURE LIST*
G04 #@! TA.AperFunction,SMDPad,CuDef*
%ADD10R,1.000000X0.400000*%
G04 #@! TD*
G04 #@! TA.AperFunction,ComponentPad*
%ADD11C,1.800000*%
G04 #@! TD*
G04 #@! TA.AperFunction,ComponentPad*
%ADD12O,3.600000X4.000000*%
G04 #@! TD*
G04 #@! TA.AperFunction,ComponentPad*
%ADD13O,3.500000X4.000000*%
G04 #@! TD*
G04 #@! TA.AperFunction,SMDPad,CuDef*
%ADD14R,1.150000X0.600000*%
G04 #@! TD*
G04 #@! TA.AperFunction,SMDPad,CuDef*
%ADD15R,1.200000X0.600000*%
G04 #@! TD*
G04 #@! TA.AperFunction,SMDPad,CuDef*
%ADD16R,0.600000X1.200000*%
G04 #@! TD*
G04 #@! TA.AperFunction,SMDPad,CuDef*
%ADD17R,2.800000X1.600000*%
G04 #@! TD*
G04 #@! TA.AperFunction,SMDPad,CuDef*
%ADD18R,3.200000X1.600000*%
G04 #@! TD*
G04 #@! TA.AperFunction,SMDPad,CuDef*
%ADD19R,0.800000X0.800000*%
G04 #@! TD*
G04 #@! TA.AperFunction,SMDPad,CuDef*
%ADD20R,0.750000X1.200000*%
G04 #@! TD*
G04 #@! TA.AperFunction,SMDPad,CuDef*
%ADD21R,1.150000X1.820000*%
G04 #@! TD*
G04 #@! TA.AperFunction,SMDPad,CuDef*
%ADD22R,1.820000X1.150000*%
G04 #@! TD*
G04 #@! TA.AperFunction,SMDPad,CuDef*
%ADD23R,1.470000X1.000000*%
G04 #@! TD*
G04 #@! TA.AperFunction,SMDPad,CuDef*
%ADD24R,2.400000X1.800000*%
G04 #@! TD*
G04 #@! TA.AperFunction,SMDPad,CuDef*
%ADD25R,2.400000X2.400000*%
G04 #@! TD*
G04 #@! TA.AperFunction,SMDPad,CuDef*
%ADD26R,1.800000X2.400000*%
G04 #@! TD*
G04 #@! TA.AperFunction,ComponentPad*
%ADD27C,5.500000*%
G04 #@! TD*
G04 #@! TA.AperFunction,SMDPad,CuDef*
%ADD28R,1.150000X1.800000*%
G04 #@! TD*
G04 #@! TA.AperFunction,SMDPad,CuDef*
%ADD29R,0.750000X0.940000*%
G04 #@! TD*
G04 #@! TA.AperFunction,SMDPad,CuDef*
%ADD30R,0.940000X0.750000*%
G04 #@! TD*
G04 #@! TA.AperFunction,SMDPad,CuDef*
%ADD31R,1.075000X0.500000*%
G04 #@! TD*
G04 #@! TA.AperFunction,ComponentPad*
%ADD32C,1.000000*%
G04 #@! TD*
G04 #@! TA.AperFunction,SMDPad,CuDef*
%ADD33R,1.070000X1.820000*%
G04 #@! TD*
G04 #@! TA.AperFunction,SMDPad,CuDef*
%ADD34R,0.950000X0.800000*%
G04 #@! TD*
G04 #@! TA.AperFunction,SMDPad,CuDef*
%ADD35R,0.800000X0.950000*%
G04 #@! TD*
G04 #@! TA.AperFunction,SMDPad,CuDef*
%ADD36R,1.470000X0.970000*%
G04 #@! TD*
G04 #@! TA.AperFunction,ComponentPad*
%ADD37C,1.400000*%
G04 #@! TD*
G04 #@! TA.AperFunction,SMDPad,CuDef*
%ADD38R,0.970000X1.470000*%
G04 #@! TD*
G04 #@! TA.AperFunction,SMDPad,CuDef*
%ADD39R,1.150000X1.150000*%
G04 #@! TD*
G04 #@! TA.AperFunction,SMDPad,CuDef*
%ADD40R,1.820000X1.070000*%
G04 #@! TD*
G04 #@! TA.AperFunction,ComponentPad*
%ADD41R,1.650000X1.650000*%
G04 #@! TD*
G04 #@! TA.AperFunction,ComponentPad*
%ADD42C,1.650000*%
G04 #@! TD*
G04 #@! TA.AperFunction,SMDPad,CuDef*
%ADD43R,0.900000X0.650000*%
G04 #@! TD*
G04 #@! TA.AperFunction,SMDPad,CuDef*
%ADD44R,1.800000X1.150000*%
G04 #@! TD*
G04 #@! TA.AperFunction,SMDPad,CuDef*
%ADD45R,0.650000X0.900000*%
G04 #@! TD*
G04 #@! TA.AperFunction,SMDPad,CuDef*
%ADD46R,0.863600X0.965200*%
G04 #@! TD*
G04 #@! TA.AperFunction,ComponentPad*
%ADD47O,2.800000X4.800000*%
G04 #@! TD*
G04 #@! TA.AperFunction,ComponentPad*
%ADD48O,3.000000X1.800000*%
G04 #@! TD*
G04 #@! TA.AperFunction,ViaPad*
%ADD49C,0.800000*%
G04 #@! TD*
G04 #@! TA.AperFunction,ViaPad*
%ADD50C,0.700000*%
G04 #@! TD*
G04 #@! TA.AperFunction,Conductor*
%ADD51C,0.500000*%
G04 #@! TD*
G04 #@! TA.AperFunction,Conductor*
%ADD52C,0.349300*%
G04 #@! TD*
G04 #@! TA.AperFunction,Conductor*
%ADD53C,0.300000*%
G04 #@! TD*
G04 APERTURE END LIST*
D10*
X3600000Y-18450000D03*
X3600000Y-17800000D03*
X3600000Y-17150000D03*
X1600000Y-17150000D03*
X1600000Y-17800000D03*
X1600000Y-18450000D03*
D11*
X13600000Y-7400000D03*
X11100000Y-7400000D03*
X8600000Y-7400000D03*
D12*
X15500000Y-14400000D03*
D13*
X6700000Y-14400000D03*
D14*
X14100000Y-31750000D03*
X14100000Y-32700000D03*
X14100000Y-33650000D03*
X16700000Y-33650000D03*
X16700000Y-32700000D03*
X16700000Y-31750000D03*
D15*
X48550000Y-22750000D03*
X48550000Y-23700000D03*
X48550000Y-24650000D03*
X51050000Y-24650000D03*
X51050000Y-22750000D03*
D16*
X23100000Y-21050000D03*
X24050000Y-21050000D03*
X25000000Y-21050000D03*
X25000000Y-18550000D03*
X23100000Y-18550000D03*
D17*
X49400000Y-8600000D03*
X45100000Y-8600000D03*
X55100000Y-31750000D03*
X50800000Y-31750000D03*
D18*
X35500000Y-25200000D03*
X40500000Y-25200000D03*
D19*
X33175000Y-30900000D03*
X34825000Y-30900000D03*
D20*
X11400000Y-30300000D03*
X11400000Y-33700000D03*
D21*
X18550000Y-16800000D03*
X21450000Y-16800000D03*
D22*
X31050000Y-28300000D03*
X31050000Y-25400000D03*
D21*
X49650000Y-27000000D03*
X52550000Y-27000000D03*
D23*
X24750000Y-7300000D03*
X24750000Y-9300000D03*
X19100000Y-13100000D03*
X19100000Y-11100000D03*
X57575000Y-25200000D03*
X57575000Y-23200000D03*
D24*
X16800000Y-22625000D03*
D25*
X10800000Y-23800000D03*
D24*
X16800000Y-24975000D03*
D26*
X1925000Y-21400000D03*
D25*
X3100000Y-27400000D03*
D26*
X4275000Y-21400000D03*
D27*
X64000000Y-4500000D03*
D28*
X26050000Y-15950000D03*
X23150000Y-15950000D03*
D29*
X23700000Y-14050000D03*
X25100000Y-14050000D03*
D30*
X59350000Y-24925000D03*
X59350000Y-23525000D03*
D31*
X33188000Y-33600000D03*
X35512000Y-33600000D03*
D30*
X60875000Y-24925000D03*
X60875000Y-23525000D03*
D32*
X40100000Y-31700000D03*
X38850000Y-31700000D03*
D33*
X45080000Y-13400000D03*
X42320000Y-13400000D03*
D29*
X19300000Y-14550000D03*
X20700000Y-14550000D03*
D34*
X8000000Y-25400000D03*
X8000000Y-23800000D03*
D35*
X27600000Y-25700000D03*
X29200000Y-25700000D03*
D36*
X14630000Y-27970000D03*
X14630000Y-29630000D03*
D11*
X36500000Y-7400000D03*
X34000000Y-7400000D03*
X31500000Y-7400000D03*
D12*
X38400000Y-14400000D03*
D13*
X29600000Y-14400000D03*
D37*
X39000000Y-1100000D03*
X37000000Y-1100000D03*
X33000000Y-1100000D03*
X31000000Y-1100000D03*
X29000000Y-1100000D03*
X29000000Y-4400000D03*
X31000000Y-4400000D03*
X33000000Y-4400000D03*
X37000000Y-4400000D03*
X39000000Y-4400000D03*
D34*
X28000000Y-20050000D03*
X28000000Y-18450000D03*
D33*
X44020000Y-21050000D03*
X46780000Y-21050000D03*
D19*
X21520000Y-32660000D03*
X23720000Y-32660000D03*
D35*
X2800000Y-11200000D03*
X1200000Y-11200000D03*
D33*
X18670000Y-19150000D03*
X21430000Y-19150000D03*
D38*
X3230000Y-14700000D03*
X1570000Y-14700000D03*
D39*
X19190000Y-29000000D03*
X17290000Y-29000000D03*
D40*
X49800000Y-18170000D03*
X49800000Y-20930000D03*
X26900000Y-9280000D03*
X26900000Y-6520000D03*
X22500000Y-6520000D03*
X22500000Y-9280000D03*
D34*
X8900000Y-33900000D03*
X8900000Y-32300000D03*
D41*
X4270000Y-9000000D03*
D42*
X1730000Y-9000000D03*
D43*
X8000000Y-22325000D03*
X8000000Y-20875000D03*
D34*
X41900000Y-8600000D03*
X41900000Y-7000000D03*
D30*
X22100000Y-12800000D03*
X22100000Y-11400000D03*
D11*
X59400000Y-7400000D03*
X56900000Y-7400000D03*
X54400000Y-7400000D03*
D12*
X61300000Y-14400000D03*
D13*
X52500000Y-14400000D03*
D30*
X20800000Y-12600000D03*
X20800000Y-11200000D03*
D33*
X45080000Y-15800000D03*
X42320000Y-15800000D03*
D44*
X53950000Y-24700000D03*
X53950000Y-21800000D03*
D33*
X44020000Y-18800000D03*
X46780000Y-18800000D03*
D19*
X45000000Y-27300000D03*
X47200000Y-27300000D03*
D45*
X26625000Y-12500000D03*
X25175000Y-12500000D03*
D37*
X21000000Y-1100000D03*
X19000000Y-1100000D03*
X15000000Y-1100000D03*
X13000000Y-1100000D03*
X11000000Y-1100000D03*
X11000000Y-4400000D03*
X13000000Y-4400000D03*
X15000000Y-4400000D03*
X19000000Y-4400000D03*
X21000000Y-4400000D03*
D46*
X60750000Y-31476300D03*
X60750000Y-29723700D03*
D37*
X57000000Y-1100000D03*
X55000000Y-1100000D03*
X51000000Y-1100000D03*
X49000000Y-1100000D03*
X47000000Y-1100000D03*
X47000000Y-4400000D03*
X49000000Y-4400000D03*
X51000000Y-4400000D03*
X55000000Y-4400000D03*
X57000000Y-4400000D03*
D45*
X25525000Y-10950000D03*
X24075000Y-10950000D03*
D39*
X30600000Y-22600000D03*
X28700000Y-22600000D03*
D30*
X55850000Y-24925000D03*
X55850000Y-23525000D03*
D45*
X2625000Y-12800000D03*
X1175000Y-12800000D03*
D30*
X62400000Y-24925000D03*
X62400000Y-23525000D03*
D40*
X47150000Y-16280000D03*
X47150000Y-13520000D03*
D35*
X29200000Y-27200000D03*
X27600000Y-27200000D03*
D43*
X40200000Y-8525000D03*
X40200000Y-7075000D03*
D46*
X58850000Y-31476300D03*
X58850000Y-29723700D03*
D40*
X20100000Y-6420000D03*
X20100000Y-9180000D03*
D38*
X23430000Y-27500000D03*
X21770000Y-27500000D03*
D47*
X65200000Y-13300000D03*
D48*
X7700000Y-27300000D03*
X22600000Y-24800000D03*
X22600000Y-29800000D03*
X60300000Y-27300000D03*
X45400000Y-29800000D03*
X45400000Y-24800000D03*
D49*
X900000Y-33220000D03*
D50*
X48000000Y-5275850D03*
X46700000Y-10300000D03*
D49*
X49074150Y-19700000D03*
X46600000Y-14900000D03*
X45400000Y-19850000D03*
X23200000Y-8000000D03*
X26250000Y-8050000D03*
D50*
X24100000Y-18150000D03*
X20250000Y-19550000D03*
X24550000Y-15550000D03*
D49*
X22250000Y-22525850D03*
X52750000Y-29650000D03*
X50843462Y-25621186D03*
X7300000Y-33500000D03*
D50*
X47244774Y-9004729D03*
X1600000Y-16348205D03*
D49*
X15000000Y-17500000D03*
X57000000Y-10000000D03*
X6000000Y-7500000D03*
X65500000Y-27500000D03*
X10000000Y-16500000D03*
X38000000Y-23000000D03*
X12500000Y-12500000D03*
X26099006Y-19850000D03*
X8900000Y-31300000D03*
X12500000Y-32000000D03*
X37500000Y-17000000D03*
D50*
X31600000Y-30700000D03*
D49*
X67200000Y-18700000D03*
X1000000Y-6500000D03*
X34000000Y-28216418D03*
X54000000Y-18000000D03*
D50*
X22823192Y-10464368D03*
D49*
X48177409Y-26426388D03*
X24500000Y-31500000D03*
X20100000Y-27700000D03*
X1700000Y-25200000D03*
X13200000Y-28000000D03*
X10000000Y-10000000D03*
X1000000Y-2000000D03*
X58000000Y-6000000D03*
X35000000Y-4500000D03*
X66900000Y-7500000D03*
X35500000Y-22000000D03*
X26475939Y-24740881D03*
X47500000Y-32000000D03*
X12667237Y-22332763D03*
X1000000Y-27700000D03*
D50*
X3249500Y-16043034D03*
D49*
X28200000Y-28216418D03*
D50*
X25016828Y-5022013D03*
D49*
X35000000Y-10500000D03*
X36800000Y-31400000D03*
X21000000Y-31500000D03*
D50*
X19600000Y-22249503D03*
X17971915Y-15197968D03*
D49*
X27500000Y-2500000D03*
X59500000Y-9500000D03*
D50*
X21800000Y-14550000D03*
D49*
X17000000Y-19500000D03*
X63500000Y-18000000D03*
D50*
X29401531Y-21360423D03*
D49*
X60000000Y-2500000D03*
X56900000Y-26800000D03*
X4300000Y-24100000D03*
X18032763Y-27367237D03*
X25295674Y-23392583D03*
X18824150Y-7850000D03*
X42469782Y-30974384D03*
X10000000Y-33000000D03*
X5688733Y-25175205D03*
X7900000Y-30100000D03*
X51400500Y-23700498D03*
D50*
X17550000Y-18050000D03*
D49*
X14917237Y-26582763D03*
X46038707Y-27410793D03*
D50*
X53727593Y-11872407D03*
D49*
X42500000Y-1000000D03*
X9700000Y-21600000D03*
X38100000Y-21324150D03*
X7500000Y-10000000D03*
X19000000Y-31000000D03*
X23000000Y-1500000D03*
X13300000Y-25200000D03*
X43500000Y-17000000D03*
X20430000Y-32700000D03*
X34500000Y-16500000D03*
X37798315Y-11176475D03*
X56000000Y-13000000D03*
X40500000Y-21500000D03*
X26000000Y-28966418D03*
X10000000Y-30500000D03*
D50*
X58531415Y-22132884D03*
X19200000Y-24200000D03*
D49*
X32000000Y-11000000D03*
D50*
X50044751Y-10560434D03*
D49*
X5600000Y-31500000D03*
X29950000Y-8455850D03*
X34500000Y-19500000D03*
X49500000Y-34000000D03*
X65000000Y-33000000D03*
X17500000Y-4099500D03*
X41500000Y-10000000D03*
X42000000Y-23000000D03*
X50136419Y-15063627D03*
X67000000Y-10000000D03*
X24600000Y-27500000D03*
X31500000Y-16500000D03*
X37000000Y-9000000D03*
D50*
X24050000Y-19850000D03*
D49*
X17000000Y-1500000D03*
X47250000Y-23550000D03*
X10000000Y-19000000D03*
X12500000Y-27000000D03*
D50*
X32792143Y-25625850D03*
X4850500Y-18700000D03*
D49*
X61000000Y-33500000D03*
X34410315Y-32886772D03*
X9000000Y-5500000D03*
X56000000Y-3000000D03*
X24000000Y-3500000D03*
X15000000Y-10000000D03*
D50*
X30440000Y-6299500D03*
X47434875Y-11798739D03*
D49*
X17000000Y-12000000D03*
D50*
X42605976Y-17473108D03*
D49*
X49500000Y-28550000D03*
X56000000Y-29000000D03*
X20225498Y-16274150D03*
X66000000Y-23500000D03*
X57000000Y-33500000D03*
X43500000Y-12000000D03*
D50*
X40274123Y-12474078D03*
D49*
X62800000Y-29000000D03*
X14500000Y-19500000D03*
X49800000Y-17000000D03*
X10000000Y-2500000D03*
X60500000Y-11500000D03*
X26000000Y-17500000D03*
X40500000Y-2000000D03*
X1900000Y-23300000D03*
X26500000Y-5000000D03*
X10000000Y-12500000D03*
X10723543Y-25876457D03*
X12500000Y-18500000D03*
X41980648Y-28238703D03*
X56000000Y-19500000D03*
D50*
X27229428Y-10425850D03*
D49*
X28500000Y-17000000D03*
X63500000Y-22000000D03*
X63500000Y-10000000D03*
X42000000Y-4500000D03*
X34000000Y-13000000D03*
X31942453Y-21800500D03*
X37500000Y-19500000D03*
X38000000Y-25200000D03*
X43500000Y-34000000D03*
X45500000Y-3000000D03*
X41000000Y-19000000D03*
X54000000Y-27000000D03*
X12500000Y-10000000D03*
X37950000Y-28750000D03*
X35000000Y-2000000D03*
X36500000Y-34500000D03*
X40500000Y-29500000D03*
X53000000Y-2000000D03*
D50*
X55828600Y-21971400D03*
D49*
X7800000Y-4000000D03*
X58500000Y-19000000D03*
X56000000Y-16000000D03*
X31500000Y-19500000D03*
X7500000Y-17000000D03*
D50*
X60175850Y-21855987D03*
D49*
X51499958Y-19706182D03*
X6720000Y-25370000D03*
X51750000Y-26150000D03*
X52050000Y-20600000D03*
X27513957Y-24586043D03*
X52300000Y-22750000D03*
X25049503Y-19850000D03*
X42450000Y-27300000D03*
X47600000Y-25550000D03*
X26267350Y-22995972D03*
D50*
X24050000Y-5150000D03*
X42400000Y-18400000D03*
X51000000Y-10700000D03*
X60950000Y-22423898D03*
X56500000Y-21300000D03*
X57575000Y-22100000D03*
X46700000Y-12400000D03*
X39500000Y-11700000D03*
X47300000Y-8000000D03*
X18105283Y-14257879D03*
X21230000Y-13480000D03*
X29708213Y-5489559D03*
X21875000Y-10414502D03*
D49*
X18850000Y-25149503D03*
X32413329Y-30119051D03*
D50*
X26500000Y-11200000D03*
X52827593Y-10972407D03*
X29614944Y-20435215D03*
X19600000Y-21300000D03*
X33400000Y-26400000D03*
D51*
X8000000Y-25400000D02*
X6750000Y-25400000D01*
X6750000Y-25400000D02*
X6720000Y-25370000D01*
D52*
X25450000Y-2450000D02*
X30400000Y-7400000D01*
X16350000Y-2450000D02*
X25450000Y-2450000D01*
X15000000Y-1100000D02*
X16350000Y-2450000D01*
X39463028Y-5525350D02*
X39987678Y-6050000D01*
X55550000Y-6050000D02*
X56900000Y-7400000D01*
X29708213Y-5489559D02*
X29744004Y-5525350D01*
X29744004Y-5525350D02*
X39463028Y-5525350D01*
X39987678Y-6050000D02*
X55550000Y-6050000D01*
X31500000Y-7400000D02*
X31268800Y-7631200D01*
X31268800Y-7631200D02*
X28011200Y-7631200D01*
X28011200Y-7631200D02*
X26900000Y-6520000D01*
D51*
X27513957Y-24586043D02*
X27600000Y-24672086D01*
X27600000Y-24672086D02*
X27600000Y-25700000D01*
D52*
X51000000Y-10700000D02*
X49200000Y-12500000D01*
X48975350Y-16674650D02*
X48250000Y-17400000D01*
X49200000Y-12500000D02*
X49200000Y-16433768D01*
X49200000Y-16433768D02*
X48975350Y-16658418D01*
X48975350Y-16658418D02*
X48975350Y-16674650D01*
X48250000Y-17400000D02*
X48250000Y-22450000D01*
X48250000Y-22450000D02*
X48550000Y-22750000D01*
D51*
X18550000Y-17050000D02*
X17550000Y-18050000D01*
X18550000Y-16800000D02*
X18550000Y-17050000D01*
X18650000Y-19150000D02*
X18670000Y-19150000D01*
X17550000Y-18050000D02*
X18650000Y-19150000D01*
X49500000Y-28550000D02*
X49500000Y-27000000D01*
D52*
X26880000Y-9300000D02*
X26900000Y-9280000D01*
X24050000Y-5150000D02*
X24750000Y-5850000D01*
X24750000Y-5850000D02*
X24750000Y-7300000D01*
X24750000Y-9300000D02*
X26880000Y-9300000D01*
X22500000Y-9280000D02*
X22520000Y-9300000D01*
X22520000Y-9300000D02*
X24750000Y-9300000D01*
X20700000Y-14010000D02*
X20700000Y-14550000D01*
X19300000Y-14550000D02*
X19300000Y-14994300D01*
X19300000Y-14994300D02*
X19755700Y-15450000D01*
X19755700Y-15450000D02*
X22650000Y-15450000D01*
X22650000Y-15450000D02*
X23150000Y-15950000D01*
X18105283Y-14257879D02*
X18397404Y-14550000D01*
X18397404Y-14550000D02*
X19300000Y-14550000D01*
X21230000Y-13480000D02*
X20700000Y-14010000D01*
D53*
X13000000Y-4400000D02*
X13444365Y-4400000D01*
X16400000Y-7355635D02*
X16400000Y-7950000D01*
X13444365Y-4400000D02*
X16400000Y-7355635D01*
X16400000Y-7950000D02*
X18600000Y-10150000D01*
X18600000Y-10150000D02*
X20425000Y-10150000D01*
X20425000Y-10150000D02*
X20800000Y-10525000D01*
X20800000Y-10525000D02*
X20800000Y-11200000D01*
D52*
X20100000Y-9180000D02*
X20200000Y-9280000D01*
X20200000Y-9280000D02*
X22500000Y-9280000D01*
X15475350Y-3275350D02*
X18620000Y-6420000D01*
X11000000Y-1100000D02*
X13175350Y-3275350D01*
X13175350Y-3275350D02*
X15475350Y-3275350D01*
X18620000Y-6420000D02*
X20100000Y-6420000D01*
D53*
X19100000Y-13100000D02*
X19930000Y-13100000D01*
X19930000Y-13100000D02*
X20310000Y-13480000D01*
D52*
X21230000Y-13480000D02*
X20310000Y-13480000D01*
X57575000Y-22100000D02*
X57575000Y-23200000D01*
X57300000Y-24925000D02*
X55850000Y-24925000D01*
X57850000Y-24925000D02*
X57575000Y-25200000D01*
X59350000Y-24925000D02*
X57850000Y-24925000D01*
X8600000Y-7400000D02*
X8600000Y-12300000D01*
X8600000Y-12300000D02*
X17200000Y-20900000D01*
X17200000Y-20900000D02*
X19200000Y-20900000D01*
X19200000Y-20900000D02*
X19600000Y-21300000D01*
D53*
X1175000Y-12800000D02*
X550000Y-13425000D01*
X3225000Y-19800000D02*
X4275000Y-20850000D01*
X550000Y-13425000D02*
X550000Y-18900000D01*
X550000Y-18900000D02*
X1450000Y-19800000D01*
X1450000Y-19800000D02*
X3225000Y-19800000D01*
X4275000Y-20850000D02*
X4275000Y-21400000D01*
X3100000Y-24000000D02*
X3100000Y-27400000D01*
D51*
X1900000Y-23300000D02*
X1925000Y-23275000D01*
X1925000Y-23275000D02*
X1925000Y-21400000D01*
D53*
X4275000Y-21400000D02*
X4275000Y-22825000D01*
X4275000Y-22825000D02*
X3100000Y-24000000D01*
D51*
X47200000Y-27300000D02*
X47200000Y-28450000D01*
X45400000Y-24800000D02*
X45400000Y-25500000D01*
X45400000Y-25500000D02*
X47200000Y-27300000D01*
X47200000Y-28450000D02*
X50500000Y-31750000D01*
X50500000Y-31750000D02*
X50800000Y-31750000D01*
X46038707Y-27410793D02*
X45110793Y-27410793D01*
X28433582Y-28450000D02*
X31000000Y-28450000D01*
X47400000Y-23700000D02*
X47250000Y-23550000D01*
X28200000Y-28216418D02*
X28433582Y-28450000D01*
X27600000Y-27616418D02*
X27600000Y-27200000D01*
X24050000Y-21050000D02*
X24050000Y-19850000D01*
X28200000Y-28216418D02*
X27600000Y-27616418D01*
X14630000Y-27970000D02*
X13230000Y-27970000D01*
X20430000Y-32700000D02*
X21480000Y-32700000D01*
X48550000Y-23700000D02*
X47400000Y-23700000D01*
X1600000Y-16348205D02*
X1600000Y-17100000D01*
X45110793Y-27410793D02*
X45000000Y-27300000D01*
X8900000Y-32300000D02*
X8900000Y-31300000D01*
X21480000Y-32700000D02*
X21520000Y-32660000D01*
X33697087Y-33600000D02*
X33188000Y-33600000D01*
X3230000Y-16023534D02*
X3230000Y-14700000D01*
X13230000Y-27970000D02*
X13200000Y-28000000D01*
X3249500Y-16043034D02*
X3230000Y-16023534D01*
X49800000Y-18170000D02*
X49800000Y-17000000D01*
X34410315Y-32886772D02*
X33697087Y-33600000D01*
X23430000Y-27500000D02*
X24600000Y-27500000D01*
X11400000Y-30300000D02*
X11400000Y-28700000D01*
X17280000Y-30700000D02*
X17290000Y-30690000D01*
X13400000Y-30700000D02*
X17280000Y-30700000D01*
X16700000Y-33650000D02*
X17625000Y-33650000D01*
X14630000Y-29630000D02*
X16660000Y-29630000D01*
X16660000Y-29630000D02*
X17290000Y-29000000D01*
X17290000Y-30690000D02*
X17290000Y-29000000D01*
X8000000Y-25400000D02*
X8975000Y-25400000D01*
X11400000Y-27825000D02*
X11400000Y-28700000D01*
X27009441Y-33650000D02*
X27409441Y-34050000D01*
X18200000Y-31600000D02*
X17290000Y-30690000D01*
X18200000Y-33075000D02*
X18200000Y-31600000D01*
X11400000Y-28700000D02*
X13400000Y-30700000D01*
X27409441Y-34050000D02*
X29350000Y-34050000D01*
X31000000Y-32400000D02*
X33325000Y-32400000D01*
X29350000Y-34050000D02*
X31000000Y-32400000D01*
X8975000Y-25400000D02*
X11400000Y-27825000D01*
X16700000Y-33650000D02*
X27009441Y-33650000D01*
X33325000Y-32400000D02*
X34825000Y-30900000D01*
X17625000Y-33650000D02*
X18200000Y-33075000D01*
X21430000Y-19150000D02*
X21430000Y-17020000D01*
X21430000Y-17020000D02*
X21650000Y-16800000D01*
X21430000Y-21670000D02*
X21430000Y-19150000D01*
X51850000Y-26150000D02*
X52700000Y-27000000D01*
X25840000Y-25700000D02*
X27600000Y-25700000D01*
X51050000Y-22750000D02*
X52300000Y-22750000D01*
X21430000Y-19150000D02*
X22030000Y-18550000D01*
X21770000Y-27500000D02*
X21770000Y-26930000D01*
X51750000Y-26150000D02*
X51850000Y-26150000D01*
X22435000Y-26265000D02*
X25275000Y-26265000D01*
X52050000Y-20600000D02*
X51720000Y-20930000D01*
X21770000Y-26930000D02*
X22435000Y-26265000D01*
X19190000Y-29000000D02*
X20270000Y-29000000D01*
X25275000Y-26265000D02*
X25840000Y-25700000D01*
X21770000Y-27500000D02*
X20500000Y-26230000D01*
X20270000Y-29000000D02*
X21770000Y-27500000D01*
X51720000Y-20930000D02*
X49800000Y-20930000D01*
X20500000Y-26230000D02*
X20500000Y-22600000D01*
X20500000Y-22600000D02*
X21430000Y-21670000D01*
X22030000Y-18550000D02*
X23100000Y-18550000D01*
X26546028Y-23274650D02*
X27474650Y-23274650D01*
X30550000Y-25700000D02*
X31000000Y-25250000D01*
X25000000Y-21050000D02*
X25000000Y-19899503D01*
X42450000Y-27300000D02*
X33050000Y-27300000D01*
X26267350Y-22995972D02*
X26546028Y-23274650D01*
X29200000Y-25700000D02*
X29200000Y-27200000D01*
X47600000Y-25550000D02*
X47650000Y-25550000D01*
X47650000Y-25550000D02*
X48550000Y-24650000D01*
X33050000Y-27300000D02*
X31000000Y-25250000D01*
X29200000Y-25000000D02*
X29200000Y-25700000D01*
X29200000Y-25700000D02*
X30550000Y-25700000D01*
X25000000Y-19899503D02*
X25049503Y-19850000D01*
X27474650Y-23274650D02*
X29200000Y-25000000D01*
D53*
X1200000Y-11375000D02*
X2625000Y-12800000D01*
X2750000Y-17800000D02*
X3600000Y-17800000D01*
X1570000Y-14970000D02*
X2500000Y-15900000D01*
X2500000Y-15900000D02*
X2500000Y-17550000D01*
X1200000Y-11200000D02*
X1200000Y-11375000D01*
X2500000Y-17550000D02*
X2750000Y-17800000D01*
X1570000Y-14700000D02*
X1570000Y-14970000D01*
X1570000Y-13855000D02*
X2625000Y-12800000D01*
X1570000Y-14700000D02*
X1570000Y-13855000D01*
D52*
X28350000Y-9280000D02*
X28800000Y-9280000D01*
X28350000Y-9730000D02*
X28800000Y-9280000D01*
X26900000Y-9280000D02*
X28350000Y-9280000D01*
X26625000Y-12500000D02*
X28350000Y-10775000D01*
X28350000Y-10775000D02*
X28350000Y-9750000D01*
X28350000Y-9750000D02*
X28350000Y-9730000D01*
X28800000Y-9280000D02*
X34620000Y-9280000D01*
X34620000Y-9280000D02*
X36500000Y-7400000D01*
D53*
X30400000Y-7400000D02*
X31500000Y-7400000D01*
X32800000Y-6100000D02*
X39225000Y-6100000D01*
X39225000Y-6100000D02*
X40200000Y-7075000D01*
X31500000Y-7400000D02*
X32800000Y-6100000D01*
D52*
X14576050Y-2676050D02*
X15728512Y-2676050D01*
X13000000Y-1100000D02*
X14576050Y-2676050D01*
X15728512Y-2676050D02*
X16327812Y-3275350D01*
X16327812Y-3275350D02*
X21465846Y-3275350D01*
X22500000Y-4309504D02*
X22500000Y-6520000D01*
X21465846Y-3275350D02*
X22500000Y-4309504D01*
X51050000Y-24650000D02*
X51800000Y-24650000D01*
D51*
X58873700Y-29747400D02*
X58850000Y-29723700D01*
X60726300Y-29747400D02*
X58873700Y-29747400D01*
D52*
X52865350Y-25665350D02*
X51850000Y-24650000D01*
X60875000Y-24925000D02*
X59350000Y-24925000D01*
X54175000Y-24925000D02*
X53950000Y-24700000D01*
D51*
X60750000Y-29723700D02*
X60726300Y-29747400D01*
D52*
X51850000Y-24650000D02*
X51800000Y-24650000D01*
X54215350Y-25665350D02*
X52865350Y-25665350D01*
X51800000Y-24650000D02*
X53900000Y-24650000D01*
X62400000Y-24925000D02*
X60875000Y-24925000D01*
X53900000Y-24650000D02*
X53950000Y-24700000D01*
D51*
X58873700Y-29747400D02*
X58997400Y-29747400D01*
D52*
X58297400Y-29747400D02*
X54215350Y-25665350D01*
X55850000Y-24925000D02*
X54175000Y-24925000D01*
X58997400Y-29747400D02*
X58297400Y-29747400D01*
X44020000Y-21050000D02*
X44020000Y-18800000D01*
X51933768Y-21950000D02*
X52083768Y-21800000D01*
X49350000Y-21950000D02*
X51933768Y-21950000D01*
X52083768Y-21800000D02*
X53950000Y-21800000D01*
X48525350Y-22725350D02*
X45695350Y-22725350D01*
X42800000Y-18800000D02*
X42400000Y-18400000D01*
X53950000Y-21800000D02*
X54125000Y-21800000D01*
X44020000Y-18800000D02*
X42800000Y-18800000D01*
X48550000Y-22750000D02*
X48525350Y-22725350D01*
X48550000Y-22750000D02*
X49350000Y-21950000D01*
X54125000Y-21800000D02*
X55850000Y-23525000D01*
X45695350Y-22725350D02*
X44020000Y-21050000D01*
X58400000Y-4400000D02*
X60800000Y-6800000D01*
X58600000Y-16250000D02*
X62400000Y-20050000D01*
X60800000Y-6800000D02*
X60800000Y-9500000D01*
X60800000Y-9500000D02*
X58600000Y-11700000D01*
X57000000Y-4400000D02*
X58400000Y-4400000D01*
X58600000Y-11700000D02*
X58600000Y-16250000D01*
X62400000Y-20050000D02*
X62400000Y-23525000D01*
X60950000Y-22423898D02*
X60950000Y-23450000D01*
X60950000Y-23450000D02*
X60875000Y-23525000D01*
X59306065Y-23481065D02*
X59350000Y-23525000D01*
X58794052Y-21300000D02*
X59306065Y-21812013D01*
X59306065Y-21812013D02*
X59306065Y-23481065D01*
X56500000Y-21300000D02*
X58794052Y-21300000D01*
X45080000Y-13400000D02*
X45020000Y-13340000D01*
D53*
X41825000Y-8525000D02*
X41900000Y-8600000D01*
D52*
X45100000Y-8600000D02*
X42000000Y-8600000D01*
X46780000Y-18800000D02*
X46780000Y-16650000D01*
X40200000Y-8525000D02*
X41825000Y-8525000D01*
X45080000Y-15800000D02*
X45080000Y-13400000D01*
X46780000Y-19100000D02*
X46780000Y-18725000D01*
X45560000Y-16280000D02*
X45080000Y-15800000D01*
X45020000Y-13340000D02*
X45020000Y-8680000D01*
X46780000Y-21050000D02*
X46780000Y-18800000D01*
D53*
X42000000Y-8600000D02*
X41900000Y-8600000D01*
D52*
X47150000Y-16280000D02*
X45560000Y-16280000D01*
X46780000Y-16650000D02*
X47150000Y-16280000D01*
X47150000Y-12850000D02*
X47150000Y-13520000D01*
X46700000Y-12400000D02*
X47150000Y-12850000D01*
X42320000Y-15800000D02*
X42320000Y-13400000D01*
D53*
X39500000Y-11700000D02*
X40620000Y-11700000D01*
X40620000Y-11700000D02*
X42320000Y-13400000D01*
X47900000Y-8600000D02*
X47300000Y-8000000D01*
X49400000Y-8600000D02*
X47900000Y-8600000D01*
D52*
X23700000Y-14050000D02*
X23700000Y-11325000D01*
X23700000Y-11325000D02*
X24075000Y-10950000D01*
X23150000Y-15950000D02*
X23150000Y-14600000D01*
X23150000Y-15950000D02*
X25000000Y-17800000D01*
X23150000Y-14600000D02*
X23700000Y-14050000D01*
X25000000Y-17800000D02*
X25000000Y-18550000D01*
X21910000Y-12800000D02*
X22100000Y-12800000D01*
X21230000Y-13030000D02*
X20800000Y-12600000D01*
X21230000Y-13480000D02*
X21910000Y-12800000D01*
X21230000Y-13480000D02*
X21230000Y-13030000D01*
X13756338Y-5524650D02*
X15825350Y-7593663D01*
X18450000Y-11100000D02*
X19100000Y-11100000D01*
X11000000Y-4400000D02*
X12124650Y-5524650D01*
X15825350Y-8475350D02*
X18450000Y-11100000D01*
X12124650Y-5524650D02*
X13756338Y-5524650D01*
X15825350Y-7593663D02*
X15825350Y-8475350D01*
X22000000Y-10539502D02*
X22000000Y-11300000D01*
D53*
X22000000Y-11300000D02*
X22100000Y-11400000D01*
D52*
X21875000Y-10414502D02*
X22000000Y-10539502D01*
D51*
X23720000Y-32420000D02*
X23720000Y-32660000D01*
X22600000Y-31540000D02*
X23720000Y-32660000D01*
X22600000Y-29800000D02*
X22600000Y-31540000D01*
X15400000Y-33400000D02*
X15400000Y-33000000D01*
X15650000Y-31750000D02*
X15400000Y-32000000D01*
X16700000Y-31750000D02*
X15650000Y-31750000D01*
X15400000Y-33400000D02*
X15400000Y-34500000D01*
X34262000Y-34850000D02*
X35512000Y-33600000D01*
X15400000Y-33000000D02*
X15700000Y-32700000D01*
X15150000Y-31750000D02*
X15400000Y-32000000D01*
X35512000Y-33600000D02*
X38364214Y-33600000D01*
X40100000Y-31864214D02*
X40100000Y-31700000D01*
X15750000Y-34850000D02*
X34262000Y-34850000D01*
X15400000Y-34500000D02*
X15750000Y-34850000D01*
X15100000Y-32700000D02*
X15400000Y-33000000D01*
X14100000Y-32700000D02*
X15100000Y-32700000D01*
X14100000Y-31750000D02*
X15150000Y-31750000D01*
X38364214Y-33600000D02*
X40100000Y-31864214D01*
X15400000Y-33400000D02*
X15400000Y-32000000D01*
X15700000Y-32700000D02*
X16700000Y-32700000D01*
X11400000Y-33700000D02*
X14050000Y-33700000D01*
X8900000Y-33900000D02*
X11200000Y-33900000D01*
X14050000Y-33700000D02*
X14100000Y-33650000D01*
X11200000Y-33900000D02*
X11400000Y-33700000D01*
D53*
X18850000Y-25149503D02*
X18675497Y-24975000D01*
X32994278Y-30700000D02*
X33175000Y-30700000D01*
X18675497Y-24975000D02*
X16800000Y-24975000D01*
X32413329Y-30119051D02*
X32994278Y-30700000D01*
D52*
X26250000Y-10950000D02*
X25525000Y-10950000D01*
X26500000Y-11200000D02*
X26250000Y-10950000D01*
X27137500Y-14462500D02*
X26400000Y-13725000D01*
X25700000Y-15950000D02*
X25600000Y-15850000D01*
X27000000Y-17450000D02*
X27300000Y-17150000D01*
X25100000Y-14050000D02*
X26725000Y-14050000D01*
X26050000Y-15950000D02*
X25700000Y-15950000D01*
X27300000Y-14625000D02*
X27137500Y-14462500D01*
X23250700Y-22150000D02*
X25750000Y-22150000D01*
X27000000Y-17950000D02*
X27000000Y-17450000D01*
X28000000Y-18450000D02*
X27500000Y-18450000D01*
X27300000Y-16400000D02*
X27300000Y-14625000D01*
X23100000Y-21999300D02*
X23250700Y-22150000D01*
X27036904Y-22600000D02*
X28700000Y-22600000D01*
X25750000Y-22150000D02*
X26168452Y-21731548D01*
X25175000Y-12500000D02*
X26400000Y-13725000D01*
X26168452Y-21731548D02*
X27036904Y-22600000D01*
X26725000Y-14050000D02*
X27137500Y-14462500D01*
X26050000Y-15950000D02*
X26850000Y-15950000D01*
X23100000Y-21050000D02*
X23100000Y-21999300D01*
X26168452Y-21731548D02*
X27000000Y-20900000D01*
X27000000Y-20900000D02*
X27000000Y-17950000D01*
X27500000Y-18450000D02*
X27000000Y-17950000D01*
X27300000Y-17150000D02*
X27300000Y-16400000D01*
X26850000Y-15950000D02*
X27300000Y-16400000D01*
D53*
X1730000Y-9000000D02*
X2800000Y-10070000D01*
X2800000Y-10070000D02*
X2800000Y-11200000D01*
X1200000Y-12775000D02*
X1175000Y-12800000D01*
X1600000Y-17800000D02*
X1600000Y-18450000D01*
X7210000Y-23800000D02*
X8000000Y-23800000D01*
X1600000Y-18450000D02*
X2400000Y-19250000D01*
X6160000Y-19560000D02*
X6800000Y-20200000D01*
X4619339Y-19560000D02*
X6160000Y-19560000D01*
X6800000Y-20200000D02*
X6800000Y-23390000D01*
X2400000Y-19250000D02*
X4309339Y-19250000D01*
X4309339Y-19250000D02*
X4619339Y-19560000D01*
X6800000Y-23390000D02*
X7210000Y-23800000D01*
X12500000Y-23800000D02*
X13675000Y-22625000D01*
X10800000Y-23800000D02*
X12500000Y-23800000D01*
X9475000Y-23800000D02*
X10800000Y-23800000D01*
X8000000Y-22325000D02*
X9475000Y-23800000D01*
X13675000Y-22625000D02*
X16800000Y-22625000D01*
X5850000Y-17150000D02*
X8000000Y-19300000D01*
X3600000Y-17150000D02*
X5850000Y-17150000D01*
X8000000Y-19300000D02*
X8000000Y-20875000D01*
D52*
X54000000Y-7000000D02*
X54400000Y-7400000D01*
X41900000Y-7000000D02*
X54000000Y-7000000D01*
X29229729Y-20050000D02*
X29614944Y-20435215D01*
X58075350Y-8724650D02*
X59400000Y-7400000D01*
X28000000Y-20050000D02*
X29229729Y-20050000D01*
X52827593Y-10972407D02*
X55075350Y-8724650D01*
X55075350Y-8724650D02*
X58075350Y-8724650D01*
D51*
X58726300Y-31600000D02*
X58850000Y-31476300D01*
X55100000Y-31750000D02*
X55250000Y-31600000D01*
X55250000Y-31600000D02*
X58726300Y-31600000D01*
X58850000Y-31476300D02*
X60750000Y-31476300D01*
D53*
X32300000Y-22600000D02*
X34900000Y-25200000D01*
X34900000Y-25200000D02*
X35500000Y-25200000D01*
X30600000Y-22600000D02*
X32300000Y-22600000D01*
D52*
X39275350Y-26424650D02*
X40500000Y-25200000D01*
X33424650Y-26424650D02*
X39275350Y-26424650D01*
X33400000Y-26400000D02*
X33424650Y-26424650D01*
G04 #@! TA.AperFunction,Conductor*
G36*
X5143039Y-18269685D02*
G01*
X5188794Y-18322489D01*
X5200000Y-18374000D01*
X5200000Y-18926000D01*
X5180315Y-18993039D01*
X5127511Y-19038794D01*
X5076000Y-19050000D01*
X4797804Y-19050000D01*
X4730765Y-19030315D01*
X4710123Y-19013681D01*
X4648247Y-18951805D01*
X4643610Y-18946617D01*
X4619214Y-18916025D01*
X4617071Y-18914037D01*
X4615426Y-18911276D01*
X4613424Y-18908765D01*
X4613767Y-18908490D01*
X4581317Y-18854009D01*
X4583693Y-18784180D01*
X4585233Y-18779802D01*
X4593597Y-18757377D01*
X4599999Y-18697844D01*
X4600000Y-18697827D01*
X4600000Y-18650000D01*
X3600000Y-18650000D01*
X3600000Y-18300499D01*
X4144864Y-18300499D01*
X4144879Y-18300497D01*
X4144882Y-18300497D01*
X4169987Y-18297586D01*
X4169988Y-18297585D01*
X4169991Y-18297585D01*
X4234872Y-18268937D01*
X4253832Y-18260566D01*
X4303918Y-18250000D01*
X5076000Y-18250000D01*
X5143039Y-18269685D01*
G37*
G04 #@! TD.AperFunction*
M02*
