G04 #@! TF.GenerationSoftware,KiCad,Pcbnew,7.0.9*
G04 #@! TF.CreationDate,2023-12-07T19:23:12+01:00*
G04 #@! TF.ProjectId,2023_PiezoPreamp,32303233-5f50-4696-957a-6f507265616d,rev?*
G04 #@! TF.SameCoordinates,PX2625a00PY1c22260*
G04 #@! TF.FileFunction,Legend,Top*
G04 #@! TF.FilePolarity,Positive*
%FSLAX46Y46*%
G04 Gerber Fmt 4.6, Leading zero omitted, Abs format (unit mm)*
G04 Created by KiCad (PCBNEW 7.0.9) date 2023-12-07 19:23:12*
%MOMM*%
%LPD*%
G01*
G04 APERTURE LIST*
%ADD10C,0.200000*%
%ADD11C,0.160000*%
%ADD12C,0.150000*%
%ADD13C,0.170000*%
%ADD14C,0.120000*%
%ADD15C,0.100000*%
%ADD16C,0.350000*%
%ADD17C,5.500000*%
%ADD18R,1.150000X1.800000*%
%ADD19R,3.200000X1.600000*%
%ADD20R,0.750000X0.940000*%
%ADD21R,0.940000X0.750000*%
%ADD22R,1.075000X0.500000*%
%ADD23C,1.000000*%
%ADD24R,1.070000X1.820000*%
%ADD25R,0.950000X0.800000*%
%ADD26R,0.800000X0.950000*%
%ADD27R,1.470000X0.970000*%
%ADD28C,1.800000*%
%ADD29O,3.600000X4.000000*%
%ADD30O,3.500000X4.000000*%
%ADD31R,1.200000X0.600000*%
%ADD32C,1.400000*%
%ADD33R,0.800000X0.800000*%
%ADD34R,0.970000X1.470000*%
%ADD35C,3.200000*%
%ADD36R,2.800000X1.600000*%
%ADD37R,0.750000X1.200000*%
%ADD38R,1.150000X1.150000*%
%ADD39R,1.820000X1.070000*%
%ADD40R,1.600000X2.000000*%
%ADD41R,2.000000X2.000000*%
%ADD42R,1.820000X0.620000*%
%ADD43R,1.650000X1.650000*%
%ADD44C,1.650000*%
%ADD45R,0.620000X1.820000*%
%ADD46R,0.600000X1.200000*%
%ADD47R,0.900000X0.650000*%
%ADD48R,2.000000X1.600000*%
%ADD49R,1.800000X1.150000*%
%ADD50R,0.650000X0.900000*%
%ADD51R,0.863600X0.965200*%
%ADD52R,1.470000X0.620000*%
%ADD53R,1.150000X0.600000*%
%ADD54R,1.000000X0.400000*%
%ADD55O,2.800000X4.800000*%
%ADD56O,3.204000X2.004000*%
G04 APERTURE END LIST*
D10*
X7000000Y-4500000D02*
G75*
G03*
X7000000Y-4500000I-3000000J0D01*
G01*
X31300000Y-31900000D02*
G75*
G03*
X31300000Y-31900000I-3000000J0D01*
G01*
X67000000Y-4500000D02*
G75*
G03*
X67000000Y-4500000I-3000000J0D01*
G01*
X32650625Y-6267219D02*
X32650625Y-5505314D01*
X32460149Y-5695790D02*
X32650625Y-5505314D01*
X32650625Y-5505314D02*
X32841101Y-5695790D01*
X33983958Y-6267219D02*
X33507768Y-6267219D01*
X33507768Y-6267219D02*
X33507768Y-5267219D01*
X34317292Y-6267219D02*
X34317292Y-5267219D01*
X34317292Y-5267219D02*
X34698244Y-5267219D01*
X34698244Y-5267219D02*
X34793482Y-5314838D01*
X34793482Y-5314838D02*
X34841101Y-5362457D01*
X34841101Y-5362457D02*
X34888720Y-5457695D01*
X34888720Y-5457695D02*
X34888720Y-5600552D01*
X34888720Y-5600552D02*
X34841101Y-5695790D01*
X34841101Y-5695790D02*
X34793482Y-5743409D01*
X34793482Y-5743409D02*
X34698244Y-5791028D01*
X34698244Y-5791028D02*
X34317292Y-5791028D01*
X35650625Y-5743409D02*
X35317292Y-5743409D01*
X35317292Y-6267219D02*
X35317292Y-5267219D01*
X35317292Y-5267219D02*
X35793482Y-5267219D01*
X43541101Y-25167219D02*
X43207768Y-24691028D01*
X42969673Y-25167219D02*
X42969673Y-24167219D01*
X42969673Y-24167219D02*
X43350625Y-24167219D01*
X43350625Y-24167219D02*
X43445863Y-24214838D01*
X43445863Y-24214838D02*
X43493482Y-24262457D01*
X43493482Y-24262457D02*
X43541101Y-24357695D01*
X43541101Y-24357695D02*
X43541101Y-24500552D01*
X43541101Y-24500552D02*
X43493482Y-24595790D01*
X43493482Y-24595790D02*
X43445863Y-24643409D01*
X43445863Y-24643409D02*
X43350625Y-24691028D01*
X43350625Y-24691028D02*
X42969673Y-24691028D01*
X4203006Y-11143409D02*
X4345863Y-11191028D01*
X4345863Y-11191028D02*
X4393482Y-11238647D01*
X4393482Y-11238647D02*
X4441101Y-11333885D01*
X4441101Y-11333885D02*
X4441101Y-11476742D01*
X4441101Y-11476742D02*
X4393482Y-11571980D01*
X4393482Y-11571980D02*
X4345863Y-11619600D01*
X4345863Y-11619600D02*
X4250625Y-11667219D01*
X4250625Y-11667219D02*
X3869673Y-11667219D01*
X3869673Y-11667219D02*
X3869673Y-10667219D01*
X3869673Y-10667219D02*
X4203006Y-10667219D01*
X4203006Y-10667219D02*
X4298244Y-10714838D01*
X4298244Y-10714838D02*
X4345863Y-10762457D01*
X4345863Y-10762457D02*
X4393482Y-10857695D01*
X4393482Y-10857695D02*
X4393482Y-10952933D01*
X4393482Y-10952933D02*
X4345863Y-11048171D01*
X4345863Y-11048171D02*
X4298244Y-11095790D01*
X4298244Y-11095790D02*
X4203006Y-11143409D01*
X4203006Y-11143409D02*
X3869673Y-11143409D01*
X4869673Y-11667219D02*
X4869673Y-10667219D01*
X5726815Y-11667219D02*
X5726815Y-10905314D01*
X5536339Y-11095790D02*
X5726815Y-10905314D01*
X5726815Y-10905314D02*
X5917291Y-11095790D01*
X52093482Y-33967219D02*
X51522054Y-33967219D01*
X51807768Y-33967219D02*
X51807768Y-32967219D01*
X51807768Y-32967219D02*
X51712530Y-33110076D01*
X51712530Y-33110076D02*
X51617292Y-33205314D01*
X51617292Y-33205314D02*
X51522054Y-33252933D01*
X52712530Y-32967219D02*
X52807768Y-32967219D01*
X52807768Y-32967219D02*
X52903006Y-33014838D01*
X52903006Y-33014838D02*
X52950625Y-33062457D01*
X52950625Y-33062457D02*
X52998244Y-33157695D01*
X52998244Y-33157695D02*
X53045863Y-33348171D01*
X53045863Y-33348171D02*
X53045863Y-33586266D01*
X53045863Y-33586266D02*
X52998244Y-33776742D01*
X52998244Y-33776742D02*
X52950625Y-33871980D01*
X52950625Y-33871980D02*
X52903006Y-33919600D01*
X52903006Y-33919600D02*
X52807768Y-33967219D01*
X52807768Y-33967219D02*
X52712530Y-33967219D01*
X52712530Y-33967219D02*
X52617292Y-33919600D01*
X52617292Y-33919600D02*
X52569673Y-33871980D01*
X52569673Y-33871980D02*
X52522054Y-33776742D01*
X52522054Y-33776742D02*
X52474435Y-33586266D01*
X52474435Y-33586266D02*
X52474435Y-33348171D01*
X52474435Y-33348171D02*
X52522054Y-33157695D01*
X52522054Y-33157695D02*
X52569673Y-33062457D01*
X52569673Y-33062457D02*
X52617292Y-33014838D01*
X52617292Y-33014838D02*
X52712530Y-32967219D01*
X53903006Y-33300552D02*
X53903006Y-33967219D01*
X53474435Y-33300552D02*
X53474435Y-33824361D01*
X53474435Y-33824361D02*
X53522054Y-33919600D01*
X53522054Y-33919600D02*
X53617292Y-33967219D01*
X53617292Y-33967219D02*
X53760149Y-33967219D01*
X53760149Y-33967219D02*
X53855387Y-33919600D01*
X53855387Y-33919600D02*
X53903006Y-33871980D01*
X42926816Y-29267219D02*
X43498244Y-29267219D01*
X43212530Y-30267219D02*
X43212530Y-29267219D01*
X9722054Y-27719600D02*
X9864911Y-27767219D01*
X9864911Y-27767219D02*
X10103006Y-27767219D01*
X10103006Y-27767219D02*
X10198244Y-27719600D01*
X10198244Y-27719600D02*
X10245863Y-27671980D01*
X10245863Y-27671980D02*
X10293482Y-27576742D01*
X10293482Y-27576742D02*
X10293482Y-27481504D01*
X10293482Y-27481504D02*
X10245863Y-27386266D01*
X10245863Y-27386266D02*
X10198244Y-27338647D01*
X10198244Y-27338647D02*
X10103006Y-27291028D01*
X10103006Y-27291028D02*
X9912530Y-27243409D01*
X9912530Y-27243409D02*
X9817292Y-27195790D01*
X9817292Y-27195790D02*
X9769673Y-27148171D01*
X9769673Y-27148171D02*
X9722054Y-27052933D01*
X9722054Y-27052933D02*
X9722054Y-26957695D01*
X9722054Y-26957695D02*
X9769673Y-26862457D01*
X9769673Y-26862457D02*
X9817292Y-26814838D01*
X9817292Y-26814838D02*
X9912530Y-26767219D01*
X9912530Y-26767219D02*
X10150625Y-26767219D01*
X10150625Y-26767219D02*
X10293482Y-26814838D01*
X33360149Y-28667219D02*
X33550625Y-28667219D01*
X33550625Y-28667219D02*
X33645863Y-28714838D01*
X33645863Y-28714838D02*
X33741101Y-28810076D01*
X33741101Y-28810076D02*
X33788720Y-29000552D01*
X33788720Y-29000552D02*
X33788720Y-29333885D01*
X33788720Y-29333885D02*
X33741101Y-29524361D01*
X33741101Y-29524361D02*
X33645863Y-29619600D01*
X33645863Y-29619600D02*
X33550625Y-29667219D01*
X33550625Y-29667219D02*
X33360149Y-29667219D01*
X33360149Y-29667219D02*
X33264911Y-29619600D01*
X33264911Y-29619600D02*
X33169673Y-29524361D01*
X33169673Y-29524361D02*
X33122054Y-29333885D01*
X33122054Y-29333885D02*
X33122054Y-29000552D01*
X33122054Y-29000552D02*
X33169673Y-28810076D01*
X33169673Y-28810076D02*
X33264911Y-28714838D01*
X33264911Y-28714838D02*
X33360149Y-28667219D01*
X34217292Y-29667219D02*
X34217292Y-28667219D01*
X34217292Y-28667219D02*
X34788720Y-29667219D01*
X34788720Y-29667219D02*
X34788720Y-28667219D01*
X32853006Y-20143409D02*
X32995863Y-20191028D01*
X32995863Y-20191028D02*
X33043482Y-20238647D01*
X33043482Y-20238647D02*
X33091101Y-20333885D01*
X33091101Y-20333885D02*
X33091101Y-20476742D01*
X33091101Y-20476742D02*
X33043482Y-20571980D01*
X33043482Y-20571980D02*
X32995863Y-20619600D01*
X32995863Y-20619600D02*
X32900625Y-20667219D01*
X32900625Y-20667219D02*
X32519673Y-20667219D01*
X32519673Y-20667219D02*
X32519673Y-19667219D01*
X32519673Y-19667219D02*
X32853006Y-19667219D01*
X32853006Y-19667219D02*
X32948244Y-19714838D01*
X32948244Y-19714838D02*
X32995863Y-19762457D01*
X32995863Y-19762457D02*
X33043482Y-19857695D01*
X33043482Y-19857695D02*
X33043482Y-19952933D01*
X33043482Y-19952933D02*
X32995863Y-20048171D01*
X32995863Y-20048171D02*
X32948244Y-20095790D01*
X32948244Y-20095790D02*
X32853006Y-20143409D01*
X32853006Y-20143409D02*
X32519673Y-20143409D01*
X33948244Y-20667219D02*
X33948244Y-20143409D01*
X33948244Y-20143409D02*
X33900625Y-20048171D01*
X33900625Y-20048171D02*
X33805387Y-20000552D01*
X33805387Y-20000552D02*
X33614911Y-20000552D01*
X33614911Y-20000552D02*
X33519673Y-20048171D01*
X33948244Y-20619600D02*
X33853006Y-20667219D01*
X33853006Y-20667219D02*
X33614911Y-20667219D01*
X33614911Y-20667219D02*
X33519673Y-20619600D01*
X33519673Y-20619600D02*
X33472054Y-20524361D01*
X33472054Y-20524361D02*
X33472054Y-20429123D01*
X33472054Y-20429123D02*
X33519673Y-20333885D01*
X33519673Y-20333885D02*
X33614911Y-20286266D01*
X33614911Y-20286266D02*
X33853006Y-20286266D01*
X33853006Y-20286266D02*
X33948244Y-20238647D01*
X34376816Y-20619600D02*
X34472054Y-20667219D01*
X34472054Y-20667219D02*
X34662530Y-20667219D01*
X34662530Y-20667219D02*
X34757768Y-20619600D01*
X34757768Y-20619600D02*
X34805387Y-20524361D01*
X34805387Y-20524361D02*
X34805387Y-20476742D01*
X34805387Y-20476742D02*
X34757768Y-20381504D01*
X34757768Y-20381504D02*
X34662530Y-20333885D01*
X34662530Y-20333885D02*
X34519673Y-20333885D01*
X34519673Y-20333885D02*
X34424435Y-20286266D01*
X34424435Y-20286266D02*
X34376816Y-20191028D01*
X34376816Y-20191028D02*
X34376816Y-20143409D01*
X34376816Y-20143409D02*
X34424435Y-20048171D01*
X34424435Y-20048171D02*
X34519673Y-20000552D01*
X34519673Y-20000552D02*
X34662530Y-20000552D01*
X34662530Y-20000552D02*
X34757768Y-20048171D01*
X35186340Y-20619600D02*
X35281578Y-20667219D01*
X35281578Y-20667219D02*
X35472054Y-20667219D01*
X35472054Y-20667219D02*
X35567292Y-20619600D01*
X35567292Y-20619600D02*
X35614911Y-20524361D01*
X35614911Y-20524361D02*
X35614911Y-20476742D01*
X35614911Y-20476742D02*
X35567292Y-20381504D01*
X35567292Y-20381504D02*
X35472054Y-20333885D01*
X35472054Y-20333885D02*
X35329197Y-20333885D01*
X35329197Y-20333885D02*
X35233959Y-20286266D01*
X35233959Y-20286266D02*
X35186340Y-20191028D01*
X35186340Y-20191028D02*
X35186340Y-20143409D01*
X35186340Y-20143409D02*
X35233959Y-20048171D01*
X35233959Y-20048171D02*
X35329197Y-20000552D01*
X35329197Y-20000552D02*
X35472054Y-20000552D01*
X35472054Y-20000552D02*
X35567292Y-20048171D01*
X20741101Y-25267219D02*
X20407768Y-24791028D01*
X20169673Y-25267219D02*
X20169673Y-24267219D01*
X20169673Y-24267219D02*
X20550625Y-24267219D01*
X20550625Y-24267219D02*
X20645863Y-24314838D01*
X20645863Y-24314838D02*
X20693482Y-24362457D01*
X20693482Y-24362457D02*
X20741101Y-24457695D01*
X20741101Y-24457695D02*
X20741101Y-24600552D01*
X20741101Y-24600552D02*
X20693482Y-24695790D01*
X20693482Y-24695790D02*
X20645863Y-24743409D01*
X20645863Y-24743409D02*
X20550625Y-24791028D01*
X20550625Y-24791028D02*
X20169673Y-24791028D01*
X64973183Y-19871504D02*
X65449373Y-19871504D01*
X64877945Y-20157219D02*
X65211278Y-19157219D01*
X65211278Y-19157219D02*
X65544611Y-20157219D01*
X65877945Y-20157219D02*
X65877945Y-19490552D01*
X65877945Y-19681028D02*
X65925564Y-19585790D01*
X65925564Y-19585790D02*
X65973183Y-19538171D01*
X65973183Y-19538171D02*
X66068421Y-19490552D01*
X66068421Y-19490552D02*
X66163659Y-19490552D01*
X66925564Y-19490552D02*
X66401755Y-20490552D01*
X66401755Y-19490552D02*
X66496993Y-19538171D01*
X66496993Y-19538171D02*
X66544612Y-19633409D01*
X66544612Y-19633409D02*
X66782707Y-20347695D01*
X66782707Y-20347695D02*
X66830326Y-20442933D01*
X66830326Y-20442933D02*
X66925564Y-20490552D01*
X64068422Y-21100552D02*
X64306517Y-21767219D01*
X64306517Y-21767219D02*
X64544612Y-21100552D01*
X64877946Y-20862457D02*
X64925565Y-20814838D01*
X64925565Y-20814838D02*
X65020803Y-20767219D01*
X65020803Y-20767219D02*
X65258898Y-20767219D01*
X65258898Y-20767219D02*
X65354136Y-20814838D01*
X65354136Y-20814838D02*
X65401755Y-20862457D01*
X65401755Y-20862457D02*
X65449374Y-20957695D01*
X65449374Y-20957695D02*
X65449374Y-21052933D01*
X65449374Y-21052933D02*
X65401755Y-21195790D01*
X65401755Y-21195790D02*
X64830327Y-21767219D01*
X64830327Y-21767219D02*
X65449374Y-21767219D01*
X65877946Y-21671980D02*
X65925565Y-21719600D01*
X65925565Y-21719600D02*
X65877946Y-21767219D01*
X65877946Y-21767219D02*
X65830327Y-21719600D01*
X65830327Y-21719600D02*
X65877946Y-21671980D01*
X65877946Y-21671980D02*
X65877946Y-21767219D01*
X66544612Y-20767219D02*
X66639850Y-20767219D01*
X66639850Y-20767219D02*
X66735088Y-20814838D01*
X66735088Y-20814838D02*
X66782707Y-20862457D01*
X66782707Y-20862457D02*
X66830326Y-20957695D01*
X66830326Y-20957695D02*
X66877945Y-21148171D01*
X66877945Y-21148171D02*
X66877945Y-21386266D01*
X66877945Y-21386266D02*
X66830326Y-21576742D01*
X66830326Y-21576742D02*
X66782707Y-21671980D01*
X66782707Y-21671980D02*
X66735088Y-21719600D01*
X66735088Y-21719600D02*
X66639850Y-21767219D01*
X66639850Y-21767219D02*
X66544612Y-21767219D01*
X66544612Y-21767219D02*
X66449374Y-21719600D01*
X66449374Y-21719600D02*
X66401755Y-21671980D01*
X66401755Y-21671980D02*
X66354136Y-21576742D01*
X66354136Y-21576742D02*
X66306517Y-21386266D01*
X66306517Y-21386266D02*
X66306517Y-21148171D01*
X66306517Y-21148171D02*
X66354136Y-20957695D01*
X66354136Y-20957695D02*
X66401755Y-20862457D01*
X66401755Y-20862457D02*
X66449374Y-20814838D01*
X66449374Y-20814838D02*
X66544612Y-20767219D01*
X57822054Y-27719600D02*
X57964911Y-27767219D01*
X57964911Y-27767219D02*
X58203006Y-27767219D01*
X58203006Y-27767219D02*
X58298244Y-27719600D01*
X58298244Y-27719600D02*
X58345863Y-27671980D01*
X58345863Y-27671980D02*
X58393482Y-27576742D01*
X58393482Y-27576742D02*
X58393482Y-27481504D01*
X58393482Y-27481504D02*
X58345863Y-27386266D01*
X58345863Y-27386266D02*
X58298244Y-27338647D01*
X58298244Y-27338647D02*
X58203006Y-27291028D01*
X58203006Y-27291028D02*
X58012530Y-27243409D01*
X58012530Y-27243409D02*
X57917292Y-27195790D01*
X57917292Y-27195790D02*
X57869673Y-27148171D01*
X57869673Y-27148171D02*
X57822054Y-27052933D01*
X57822054Y-27052933D02*
X57822054Y-26957695D01*
X57822054Y-26957695D02*
X57869673Y-26862457D01*
X57869673Y-26862457D02*
X57917292Y-26814838D01*
X57917292Y-26814838D02*
X58012530Y-26767219D01*
X58012530Y-26767219D02*
X58250625Y-26767219D01*
X58250625Y-26767219D02*
X58393482Y-26814838D01*
X44067219Y-3454136D02*
X44067219Y-3930326D01*
X44067219Y-3930326D02*
X43067219Y-3930326D01*
X43067219Y-2930326D02*
X43067219Y-2739850D01*
X43067219Y-2739850D02*
X43114838Y-2644612D01*
X43114838Y-2644612D02*
X43210076Y-2549374D01*
X43210076Y-2549374D02*
X43400552Y-2501755D01*
X43400552Y-2501755D02*
X43733885Y-2501755D01*
X43733885Y-2501755D02*
X43924361Y-2549374D01*
X43924361Y-2549374D02*
X44019600Y-2644612D01*
X44019600Y-2644612D02*
X44067219Y-2739850D01*
X44067219Y-2739850D02*
X44067219Y-2930326D01*
X44067219Y-2930326D02*
X44019600Y-3025564D01*
X44019600Y-3025564D02*
X43924361Y-3120802D01*
X43924361Y-3120802D02*
X43733885Y-3168421D01*
X43733885Y-3168421D02*
X43400552Y-3168421D01*
X43400552Y-3168421D02*
X43210076Y-3120802D01*
X43210076Y-3120802D02*
X43114838Y-3025564D01*
X43114838Y-3025564D02*
X43067219Y-2930326D01*
X43067219Y-2168421D02*
X44067219Y-1930326D01*
X44067219Y-1930326D02*
X43352933Y-1739850D01*
X43352933Y-1739850D02*
X44067219Y-1549374D01*
X44067219Y-1549374D02*
X43067219Y-1311279D01*
X26067219Y-4430326D02*
X25067219Y-4430326D01*
X25067219Y-4430326D02*
X26067219Y-3858898D01*
X26067219Y-3858898D02*
X25067219Y-3858898D01*
X25067219Y-3192231D02*
X25067219Y-3001755D01*
X25067219Y-3001755D02*
X25114838Y-2906517D01*
X25114838Y-2906517D02*
X25210076Y-2811279D01*
X25210076Y-2811279D02*
X25400552Y-2763660D01*
X25400552Y-2763660D02*
X25733885Y-2763660D01*
X25733885Y-2763660D02*
X25924361Y-2811279D01*
X25924361Y-2811279D02*
X26019600Y-2906517D01*
X26019600Y-2906517D02*
X26067219Y-3001755D01*
X26067219Y-3001755D02*
X26067219Y-3192231D01*
X26067219Y-3192231D02*
X26019600Y-3287469D01*
X26019600Y-3287469D02*
X25924361Y-3382707D01*
X25924361Y-3382707D02*
X25733885Y-3430326D01*
X25733885Y-3430326D02*
X25400552Y-3430326D01*
X25400552Y-3430326D02*
X25210076Y-3382707D01*
X25210076Y-3382707D02*
X25114838Y-3287469D01*
X25114838Y-3287469D02*
X25067219Y-3192231D01*
X26067219Y-2335088D02*
X25067219Y-2335088D01*
X25067219Y-2335088D02*
X26067219Y-1763660D01*
X26067219Y-1763660D02*
X25067219Y-1763660D01*
X25543409Y-1287469D02*
X25543409Y-954136D01*
X26067219Y-811279D02*
X26067219Y-1287469D01*
X26067219Y-1287469D02*
X25067219Y-1287469D01*
X25067219Y-1287469D02*
X25067219Y-811279D01*
X4917292Y-26942933D02*
X5583958Y-27609600D01*
X5250625Y-26942933D02*
X4917292Y-26942933D01*
X4917292Y-26942933D02*
X4917292Y-27276266D01*
X5203006Y-28743409D02*
X5345863Y-28791028D01*
X5345863Y-28791028D02*
X5393482Y-28838647D01*
X5393482Y-28838647D02*
X5441101Y-28933885D01*
X5441101Y-28933885D02*
X5441101Y-29076742D01*
X5441101Y-29076742D02*
X5393482Y-29171980D01*
X5393482Y-29171980D02*
X5345863Y-29219600D01*
X5345863Y-29219600D02*
X5250625Y-29267219D01*
X5250625Y-29267219D02*
X4869673Y-29267219D01*
X4869673Y-29267219D02*
X4869673Y-28267219D01*
X4869673Y-28267219D02*
X5203006Y-28267219D01*
X5203006Y-28267219D02*
X5298244Y-28314838D01*
X5298244Y-28314838D02*
X5345863Y-28362457D01*
X5345863Y-28362457D02*
X5393482Y-28457695D01*
X5393482Y-28457695D02*
X5393482Y-28552933D01*
X5393482Y-28552933D02*
X5345863Y-28648171D01*
X5345863Y-28648171D02*
X5298244Y-28695790D01*
X5298244Y-28695790D02*
X5203006Y-28743409D01*
X5203006Y-28743409D02*
X4869673Y-28743409D01*
X5869673Y-29267219D02*
X5869673Y-28267219D01*
X64493482Y-16214838D02*
X64398244Y-16167219D01*
X64398244Y-16167219D02*
X64255387Y-16167219D01*
X64255387Y-16167219D02*
X64112530Y-16214838D01*
X64112530Y-16214838D02*
X64017292Y-16310076D01*
X64017292Y-16310076D02*
X63969673Y-16405314D01*
X63969673Y-16405314D02*
X63922054Y-16595790D01*
X63922054Y-16595790D02*
X63922054Y-16738647D01*
X63922054Y-16738647D02*
X63969673Y-16929123D01*
X63969673Y-16929123D02*
X64017292Y-17024361D01*
X64017292Y-17024361D02*
X64112530Y-17119600D01*
X64112530Y-17119600D02*
X64255387Y-17167219D01*
X64255387Y-17167219D02*
X64350625Y-17167219D01*
X64350625Y-17167219D02*
X64493482Y-17119600D01*
X64493482Y-17119600D02*
X64541101Y-17071980D01*
X64541101Y-17071980D02*
X64541101Y-16738647D01*
X64541101Y-16738647D02*
X64350625Y-16738647D01*
X64969673Y-17167219D02*
X64969673Y-16167219D01*
X64969673Y-16167219D02*
X65541101Y-17167219D01*
X65541101Y-17167219D02*
X65541101Y-16167219D01*
X66017292Y-17167219D02*
X66017292Y-16167219D01*
X66017292Y-16167219D02*
X66255387Y-16167219D01*
X66255387Y-16167219D02*
X66398244Y-16214838D01*
X66398244Y-16214838D02*
X66493482Y-16310076D01*
X66493482Y-16310076D02*
X66541101Y-16405314D01*
X66541101Y-16405314D02*
X66588720Y-16595790D01*
X66588720Y-16595790D02*
X66588720Y-16738647D01*
X66588720Y-16738647D02*
X66541101Y-16929123D01*
X66541101Y-16929123D02*
X66493482Y-17024361D01*
X66493482Y-17024361D02*
X66398244Y-17119600D01*
X66398244Y-17119600D02*
X66255387Y-17167219D01*
X66255387Y-17167219D02*
X66017292Y-17167219D01*
X8676816Y-19667219D02*
X9010149Y-20667219D01*
X9010149Y-20667219D02*
X9343482Y-19667219D01*
X9819673Y-20667219D02*
X9724435Y-20619600D01*
X9724435Y-20619600D02*
X9676816Y-20571980D01*
X9676816Y-20571980D02*
X9629197Y-20476742D01*
X9629197Y-20476742D02*
X9629197Y-20191028D01*
X9629197Y-20191028D02*
X9676816Y-20095790D01*
X9676816Y-20095790D02*
X9724435Y-20048171D01*
X9724435Y-20048171D02*
X9819673Y-20000552D01*
X9819673Y-20000552D02*
X9962530Y-20000552D01*
X9962530Y-20000552D02*
X10057768Y-20048171D01*
X10057768Y-20048171D02*
X10105387Y-20095790D01*
X10105387Y-20095790D02*
X10153006Y-20191028D01*
X10153006Y-20191028D02*
X10153006Y-20476742D01*
X10153006Y-20476742D02*
X10105387Y-20571980D01*
X10105387Y-20571980D02*
X10057768Y-20619600D01*
X10057768Y-20619600D02*
X9962530Y-20667219D01*
X9962530Y-20667219D02*
X9819673Y-20667219D01*
X10724435Y-20667219D02*
X10629197Y-20619600D01*
X10629197Y-20619600D02*
X10581578Y-20524361D01*
X10581578Y-20524361D02*
X10581578Y-19667219D01*
X11533959Y-20000552D02*
X11533959Y-20667219D01*
X11105388Y-20000552D02*
X11105388Y-20524361D01*
X11105388Y-20524361D02*
X11153007Y-20619600D01*
X11153007Y-20619600D02*
X11248245Y-20667219D01*
X11248245Y-20667219D02*
X11391102Y-20667219D01*
X11391102Y-20667219D02*
X11486340Y-20619600D01*
X11486340Y-20619600D02*
X11533959Y-20571980D01*
X12010150Y-20667219D02*
X12010150Y-20000552D01*
X12010150Y-20095790D02*
X12057769Y-20048171D01*
X12057769Y-20048171D02*
X12153007Y-20000552D01*
X12153007Y-20000552D02*
X12295864Y-20000552D01*
X12295864Y-20000552D02*
X12391102Y-20048171D01*
X12391102Y-20048171D02*
X12438721Y-20143409D01*
X12438721Y-20143409D02*
X12438721Y-20667219D01*
X12438721Y-20143409D02*
X12486340Y-20048171D01*
X12486340Y-20048171D02*
X12581578Y-20000552D01*
X12581578Y-20000552D02*
X12724435Y-20000552D01*
X12724435Y-20000552D02*
X12819674Y-20048171D01*
X12819674Y-20048171D02*
X12867293Y-20143409D01*
X12867293Y-20143409D02*
X12867293Y-20667219D01*
X13724435Y-20619600D02*
X13629197Y-20667219D01*
X13629197Y-20667219D02*
X13438721Y-20667219D01*
X13438721Y-20667219D02*
X13343483Y-20619600D01*
X13343483Y-20619600D02*
X13295864Y-20524361D01*
X13295864Y-20524361D02*
X13295864Y-20143409D01*
X13295864Y-20143409D02*
X13343483Y-20048171D01*
X13343483Y-20048171D02*
X13438721Y-20000552D01*
X13438721Y-20000552D02*
X13629197Y-20000552D01*
X13629197Y-20000552D02*
X13724435Y-20048171D01*
X13724435Y-20048171D02*
X13772054Y-20143409D01*
X13772054Y-20143409D02*
X13772054Y-20238647D01*
X13772054Y-20238647D02*
X13295864Y-20333885D01*
X50450625Y-6267219D02*
X50450625Y-5505314D01*
X50260149Y-5695790D02*
X50450625Y-5505314D01*
X50450625Y-5505314D02*
X50641101Y-5695790D01*
X51831577Y-5314838D02*
X51736339Y-5267219D01*
X51736339Y-5267219D02*
X51593482Y-5267219D01*
X51593482Y-5267219D02*
X51450625Y-5314838D01*
X51450625Y-5314838D02*
X51355387Y-5410076D01*
X51355387Y-5410076D02*
X51307768Y-5505314D01*
X51307768Y-5505314D02*
X51260149Y-5695790D01*
X51260149Y-5695790D02*
X51260149Y-5838647D01*
X51260149Y-5838647D02*
X51307768Y-6029123D01*
X51307768Y-6029123D02*
X51355387Y-6124361D01*
X51355387Y-6124361D02*
X51450625Y-6219600D01*
X51450625Y-6219600D02*
X51593482Y-6267219D01*
X51593482Y-6267219D02*
X51688720Y-6267219D01*
X51688720Y-6267219D02*
X51831577Y-6219600D01*
X51831577Y-6219600D02*
X51879196Y-6171980D01*
X51879196Y-6171980D02*
X51879196Y-5838647D01*
X51879196Y-5838647D02*
X51688720Y-5838647D01*
X52260149Y-5981504D02*
X52736339Y-5981504D01*
X52164911Y-6267219D02*
X52498244Y-5267219D01*
X52498244Y-5267219D02*
X52831577Y-6267219D01*
X53164911Y-6267219D02*
X53164911Y-5267219D01*
X53641101Y-6267219D02*
X53641101Y-5267219D01*
X53641101Y-5267219D02*
X54212529Y-6267219D01*
X54212529Y-6267219D02*
X54212529Y-5267219D01*
X17117292Y-26352933D02*
X17783958Y-27019600D01*
X17450625Y-26352933D02*
X17117292Y-26352933D01*
X17117292Y-26352933D02*
X17117292Y-26686266D01*
X18783958Y-27067219D02*
X18307768Y-27067219D01*
X18307768Y-27067219D02*
X18307768Y-26067219D01*
X19117292Y-26543409D02*
X19450625Y-26543409D01*
X19593482Y-27067219D02*
X19117292Y-27067219D01*
X19117292Y-27067219D02*
X19117292Y-26067219D01*
X19117292Y-26067219D02*
X19593482Y-26067219D01*
X20022054Y-27067219D02*
X20022054Y-26067219D01*
X20022054Y-26067219D02*
X20260149Y-26067219D01*
X20260149Y-26067219D02*
X20403006Y-26114838D01*
X20403006Y-26114838D02*
X20498244Y-26210076D01*
X20498244Y-26210076D02*
X20545863Y-26305314D01*
X20545863Y-26305314D02*
X20593482Y-26495790D01*
X20593482Y-26495790D02*
X20593482Y-26638647D01*
X20593482Y-26638647D02*
X20545863Y-26829123D01*
X20545863Y-26829123D02*
X20498244Y-26924361D01*
X20498244Y-26924361D02*
X20403006Y-27019600D01*
X20403006Y-27019600D02*
X20260149Y-27067219D01*
X20260149Y-27067219D02*
X20022054Y-27067219D01*
X39769673Y-34486266D02*
X40531578Y-34486266D01*
X40150625Y-34867219D02*
X40150625Y-34105314D01*
X42517292Y-33667219D02*
X42707768Y-33667219D01*
X42707768Y-33667219D02*
X42803006Y-33619600D01*
X42803006Y-33619600D02*
X42850625Y-33571980D01*
X42850625Y-33571980D02*
X42945863Y-33429123D01*
X42945863Y-33429123D02*
X42993482Y-33238647D01*
X42993482Y-33238647D02*
X42993482Y-32857695D01*
X42993482Y-32857695D02*
X42945863Y-32762457D01*
X42945863Y-32762457D02*
X42898244Y-32714838D01*
X42898244Y-32714838D02*
X42803006Y-32667219D01*
X42803006Y-32667219D02*
X42612530Y-32667219D01*
X42612530Y-32667219D02*
X42517292Y-32714838D01*
X42517292Y-32714838D02*
X42469673Y-32762457D01*
X42469673Y-32762457D02*
X42422054Y-32857695D01*
X42422054Y-32857695D02*
X42422054Y-33095790D01*
X42422054Y-33095790D02*
X42469673Y-33191028D01*
X42469673Y-33191028D02*
X42517292Y-33238647D01*
X42517292Y-33238647D02*
X42612530Y-33286266D01*
X42612530Y-33286266D02*
X42803006Y-33286266D01*
X42803006Y-33286266D02*
X42898244Y-33238647D01*
X42898244Y-33238647D02*
X42945863Y-33191028D01*
X42945863Y-33191028D02*
X42993482Y-33095790D01*
X43422054Y-33286266D02*
X44183959Y-33286266D01*
X45183958Y-33667219D02*
X44612530Y-33667219D01*
X44898244Y-33667219D02*
X44898244Y-32667219D01*
X44898244Y-32667219D02*
X44803006Y-32810076D01*
X44803006Y-32810076D02*
X44707768Y-32905314D01*
X44707768Y-32905314D02*
X44612530Y-32952933D01*
X45755387Y-33095790D02*
X45660149Y-33048171D01*
X45660149Y-33048171D02*
X45612530Y-33000552D01*
X45612530Y-33000552D02*
X45564911Y-32905314D01*
X45564911Y-32905314D02*
X45564911Y-32857695D01*
X45564911Y-32857695D02*
X45612530Y-32762457D01*
X45612530Y-32762457D02*
X45660149Y-32714838D01*
X45660149Y-32714838D02*
X45755387Y-32667219D01*
X45755387Y-32667219D02*
X45945863Y-32667219D01*
X45945863Y-32667219D02*
X46041101Y-32714838D01*
X46041101Y-32714838D02*
X46088720Y-32762457D01*
X46088720Y-32762457D02*
X46136339Y-32857695D01*
X46136339Y-32857695D02*
X46136339Y-32905314D01*
X46136339Y-32905314D02*
X46088720Y-33000552D01*
X46088720Y-33000552D02*
X46041101Y-33048171D01*
X46041101Y-33048171D02*
X45945863Y-33095790D01*
X45945863Y-33095790D02*
X45755387Y-33095790D01*
X45755387Y-33095790D02*
X45660149Y-33143409D01*
X45660149Y-33143409D02*
X45612530Y-33191028D01*
X45612530Y-33191028D02*
X45564911Y-33286266D01*
X45564911Y-33286266D02*
X45564911Y-33476742D01*
X45564911Y-33476742D02*
X45612530Y-33571980D01*
X45612530Y-33571980D02*
X45660149Y-33619600D01*
X45660149Y-33619600D02*
X45755387Y-33667219D01*
X45755387Y-33667219D02*
X45945863Y-33667219D01*
X45945863Y-33667219D02*
X46041101Y-33619600D01*
X46041101Y-33619600D02*
X46088720Y-33571980D01*
X46088720Y-33571980D02*
X46136339Y-33476742D01*
X46136339Y-33476742D02*
X46136339Y-33286266D01*
X46136339Y-33286266D02*
X46088720Y-33191028D01*
X46088720Y-33191028D02*
X46041101Y-33143409D01*
X46041101Y-33143409D02*
X45945863Y-33095790D01*
X46422054Y-32667219D02*
X46755387Y-33667219D01*
X46755387Y-33667219D02*
X47088720Y-32667219D01*
X66268422Y-30066266D02*
X67030327Y-30066266D01*
X66839850Y-30256742D02*
X67030327Y-30066266D01*
X67030327Y-30066266D02*
X66839850Y-29875790D01*
X63125565Y-32057219D02*
X63125565Y-31057219D01*
X63125565Y-31057219D02*
X63506517Y-31057219D01*
X63506517Y-31057219D02*
X63601755Y-31104838D01*
X63601755Y-31104838D02*
X63649374Y-31152457D01*
X63649374Y-31152457D02*
X63696993Y-31247695D01*
X63696993Y-31247695D02*
X63696993Y-31390552D01*
X63696993Y-31390552D02*
X63649374Y-31485790D01*
X63649374Y-31485790D02*
X63601755Y-31533409D01*
X63601755Y-31533409D02*
X63506517Y-31581028D01*
X63506517Y-31581028D02*
X63125565Y-31581028D01*
X64125565Y-32057219D02*
X64125565Y-31057219D01*
X64601755Y-31533409D02*
X64935088Y-31533409D01*
X65077945Y-32057219D02*
X64601755Y-32057219D01*
X64601755Y-32057219D02*
X64601755Y-31057219D01*
X64601755Y-31057219D02*
X65077945Y-31057219D01*
X65411279Y-31057219D02*
X66077945Y-31057219D01*
X66077945Y-31057219D02*
X65411279Y-32057219D01*
X65411279Y-32057219D02*
X66077945Y-32057219D01*
X66649374Y-31057219D02*
X66839850Y-31057219D01*
X66839850Y-31057219D02*
X66935088Y-31104838D01*
X66935088Y-31104838D02*
X67030326Y-31200076D01*
X67030326Y-31200076D02*
X67077945Y-31390552D01*
X67077945Y-31390552D02*
X67077945Y-31723885D01*
X67077945Y-31723885D02*
X67030326Y-31914361D01*
X67030326Y-31914361D02*
X66935088Y-32009600D01*
X66935088Y-32009600D02*
X66839850Y-32057219D01*
X66839850Y-32057219D02*
X66649374Y-32057219D01*
X66649374Y-32057219D02*
X66554136Y-32009600D01*
X66554136Y-32009600D02*
X66458898Y-31914361D01*
X66458898Y-31914361D02*
X66411279Y-31723885D01*
X66411279Y-31723885D02*
X66411279Y-31390552D01*
X66411279Y-31390552D02*
X66458898Y-31200076D01*
X66458898Y-31200076D02*
X66554136Y-31104838D01*
X66554136Y-31104838D02*
X66649374Y-31057219D01*
X65982708Y-33667219D02*
X65982708Y-32667219D01*
X66458898Y-33667219D02*
X66458898Y-32667219D01*
X66458898Y-32667219D02*
X67030326Y-33667219D01*
X67030326Y-33667219D02*
X67030326Y-32667219D01*
X20126816Y-29267219D02*
X20698244Y-29267219D01*
X20412530Y-30267219D02*
X20412530Y-29267219D01*
X46443482Y-10867219D02*
X45872054Y-10867219D01*
X46157768Y-10867219D02*
X46157768Y-9867219D01*
X46157768Y-9867219D02*
X46062530Y-10010076D01*
X46062530Y-10010076D02*
X45967292Y-10105314D01*
X45967292Y-10105314D02*
X45872054Y-10152933D01*
X47062530Y-9867219D02*
X47157768Y-9867219D01*
X47157768Y-9867219D02*
X47253006Y-9914838D01*
X47253006Y-9914838D02*
X47300625Y-9962457D01*
X47300625Y-9962457D02*
X47348244Y-10057695D01*
X47348244Y-10057695D02*
X47395863Y-10248171D01*
X47395863Y-10248171D02*
X47395863Y-10486266D01*
X47395863Y-10486266D02*
X47348244Y-10676742D01*
X47348244Y-10676742D02*
X47300625Y-10771980D01*
X47300625Y-10771980D02*
X47253006Y-10819600D01*
X47253006Y-10819600D02*
X47157768Y-10867219D01*
X47157768Y-10867219D02*
X47062530Y-10867219D01*
X47062530Y-10867219D02*
X46967292Y-10819600D01*
X46967292Y-10819600D02*
X46919673Y-10771980D01*
X46919673Y-10771980D02*
X46872054Y-10676742D01*
X46872054Y-10676742D02*
X46824435Y-10486266D01*
X46824435Y-10486266D02*
X46824435Y-10248171D01*
X46824435Y-10248171D02*
X46872054Y-10057695D01*
X46872054Y-10057695D02*
X46919673Y-9962457D01*
X46919673Y-9962457D02*
X46967292Y-9914838D01*
X46967292Y-9914838D02*
X47062530Y-9867219D01*
X48253006Y-10200552D02*
X48253006Y-10867219D01*
X47824435Y-10200552D02*
X47824435Y-10724361D01*
X47824435Y-10724361D02*
X47872054Y-10819600D01*
X47872054Y-10819600D02*
X47967292Y-10867219D01*
X47967292Y-10867219D02*
X48110149Y-10867219D01*
X48110149Y-10867219D02*
X48205387Y-10819600D01*
X48205387Y-10819600D02*
X48253006Y-10771980D01*
D11*
X63306224Y-23245739D02*
X64106224Y-23245739D01*
X64106224Y-23245739D02*
X64106224Y-23436215D01*
X64106224Y-23436215D02*
X64068129Y-23550501D01*
X64068129Y-23550501D02*
X63991939Y-23626691D01*
X63991939Y-23626691D02*
X63915748Y-23664786D01*
X63915748Y-23664786D02*
X63763367Y-23702882D01*
X63763367Y-23702882D02*
X63649081Y-23702882D01*
X63649081Y-23702882D02*
X63496700Y-23664786D01*
X63496700Y-23664786D02*
X63420510Y-23626691D01*
X63420510Y-23626691D02*
X63344320Y-23550501D01*
X63344320Y-23550501D02*
X63306224Y-23436215D01*
X63306224Y-23436215D02*
X63306224Y-23245739D01*
X63306224Y-24045739D02*
X64106224Y-24045739D01*
X64106224Y-24045739D02*
X63306224Y-24502882D01*
X63306224Y-24502882D02*
X64106224Y-24502882D01*
X63306224Y-24883834D02*
X64106224Y-24883834D01*
X64106224Y-24883834D02*
X64106224Y-25188596D01*
X64106224Y-25188596D02*
X64068129Y-25264786D01*
X64068129Y-25264786D02*
X64030034Y-25302881D01*
X64030034Y-25302881D02*
X63953843Y-25340977D01*
X63953843Y-25340977D02*
X63839558Y-25340977D01*
X63839558Y-25340977D02*
X63763367Y-25302881D01*
X63763367Y-25302881D02*
X63725272Y-25264786D01*
X63725272Y-25264786D02*
X63687177Y-25188596D01*
X63687177Y-25188596D02*
X63687177Y-24883834D01*
D10*
X1831578Y-30066266D02*
X1069673Y-30066266D01*
X1260149Y-30256742D02*
X1069673Y-30066266D01*
X1069673Y-30066266D02*
X1260149Y-29875790D01*
X1022054Y-31771504D02*
X1498244Y-31771504D01*
X926816Y-32057219D02*
X1260149Y-31057219D01*
X1260149Y-31057219D02*
X1593482Y-32057219D01*
X1926816Y-31057219D02*
X1926816Y-31866742D01*
X1926816Y-31866742D02*
X1974435Y-31961980D01*
X1974435Y-31961980D02*
X2022054Y-32009600D01*
X2022054Y-32009600D02*
X2117292Y-32057219D01*
X2117292Y-32057219D02*
X2307768Y-32057219D01*
X2307768Y-32057219D02*
X2403006Y-32009600D01*
X2403006Y-32009600D02*
X2450625Y-31961980D01*
X2450625Y-31961980D02*
X2498244Y-31866742D01*
X2498244Y-31866742D02*
X2498244Y-31057219D01*
X2974435Y-32057219D02*
X2974435Y-31057219D01*
X2974435Y-31057219D02*
X3212530Y-31057219D01*
X3212530Y-31057219D02*
X3355387Y-31104838D01*
X3355387Y-31104838D02*
X3450625Y-31200076D01*
X3450625Y-31200076D02*
X3498244Y-31295314D01*
X3498244Y-31295314D02*
X3545863Y-31485790D01*
X3545863Y-31485790D02*
X3545863Y-31628647D01*
X3545863Y-31628647D02*
X3498244Y-31819123D01*
X3498244Y-31819123D02*
X3450625Y-31914361D01*
X3450625Y-31914361D02*
X3355387Y-32009600D01*
X3355387Y-32009600D02*
X3212530Y-32057219D01*
X3212530Y-32057219D02*
X2974435Y-32057219D01*
X3974435Y-32057219D02*
X3974435Y-31057219D01*
X4641101Y-31057219D02*
X4831577Y-31057219D01*
X4831577Y-31057219D02*
X4926815Y-31104838D01*
X4926815Y-31104838D02*
X5022053Y-31200076D01*
X5022053Y-31200076D02*
X5069672Y-31390552D01*
X5069672Y-31390552D02*
X5069672Y-31723885D01*
X5069672Y-31723885D02*
X5022053Y-31914361D01*
X5022053Y-31914361D02*
X4926815Y-32009600D01*
X4926815Y-32009600D02*
X4831577Y-32057219D01*
X4831577Y-32057219D02*
X4641101Y-32057219D01*
X4641101Y-32057219D02*
X4545863Y-32009600D01*
X4545863Y-32009600D02*
X4450625Y-31914361D01*
X4450625Y-31914361D02*
X4403006Y-31723885D01*
X4403006Y-31723885D02*
X4403006Y-31390552D01*
X4403006Y-31390552D02*
X4450625Y-31200076D01*
X4450625Y-31200076D02*
X4545863Y-31104838D01*
X4545863Y-31104838D02*
X4641101Y-31057219D01*
X1260149Y-32667219D02*
X1450625Y-32667219D01*
X1450625Y-32667219D02*
X1545863Y-32714838D01*
X1545863Y-32714838D02*
X1641101Y-32810076D01*
X1641101Y-32810076D02*
X1688720Y-33000552D01*
X1688720Y-33000552D02*
X1688720Y-33333885D01*
X1688720Y-33333885D02*
X1641101Y-33524361D01*
X1641101Y-33524361D02*
X1545863Y-33619600D01*
X1545863Y-33619600D02*
X1450625Y-33667219D01*
X1450625Y-33667219D02*
X1260149Y-33667219D01*
X1260149Y-33667219D02*
X1164911Y-33619600D01*
X1164911Y-33619600D02*
X1069673Y-33524361D01*
X1069673Y-33524361D02*
X1022054Y-33333885D01*
X1022054Y-33333885D02*
X1022054Y-33000552D01*
X1022054Y-33000552D02*
X1069673Y-32810076D01*
X1069673Y-32810076D02*
X1164911Y-32714838D01*
X1164911Y-32714838D02*
X1260149Y-32667219D01*
X2117292Y-32667219D02*
X2117292Y-33476742D01*
X2117292Y-33476742D02*
X2164911Y-33571980D01*
X2164911Y-33571980D02*
X2212530Y-33619600D01*
X2212530Y-33619600D02*
X2307768Y-33667219D01*
X2307768Y-33667219D02*
X2498244Y-33667219D01*
X2498244Y-33667219D02*
X2593482Y-33619600D01*
X2593482Y-33619600D02*
X2641101Y-33571980D01*
X2641101Y-33571980D02*
X2688720Y-33476742D01*
X2688720Y-33476742D02*
X2688720Y-32667219D01*
X3022054Y-32667219D02*
X3593482Y-32667219D01*
X3307768Y-33667219D02*
X3307768Y-32667219D01*
X22103006Y-22743409D02*
X22245863Y-22791028D01*
X22245863Y-22791028D02*
X22293482Y-22838647D01*
X22293482Y-22838647D02*
X22341101Y-22933885D01*
X22341101Y-22933885D02*
X22341101Y-23076742D01*
X22341101Y-23076742D02*
X22293482Y-23171980D01*
X22293482Y-23171980D02*
X22245863Y-23219600D01*
X22245863Y-23219600D02*
X22150625Y-23267219D01*
X22150625Y-23267219D02*
X21769673Y-23267219D01*
X21769673Y-23267219D02*
X21769673Y-22267219D01*
X21769673Y-22267219D02*
X22103006Y-22267219D01*
X22103006Y-22267219D02*
X22198244Y-22314838D01*
X22198244Y-22314838D02*
X22245863Y-22362457D01*
X22245863Y-22362457D02*
X22293482Y-22457695D01*
X22293482Y-22457695D02*
X22293482Y-22552933D01*
X22293482Y-22552933D02*
X22245863Y-22648171D01*
X22245863Y-22648171D02*
X22198244Y-22695790D01*
X22198244Y-22695790D02*
X22103006Y-22743409D01*
X22103006Y-22743409D02*
X21769673Y-22743409D01*
X22722054Y-22981504D02*
X23198244Y-22981504D01*
X22626816Y-23267219D02*
X22960149Y-22267219D01*
X22960149Y-22267219D02*
X23293482Y-23267219D01*
X23531578Y-22267219D02*
X24198244Y-23267219D01*
X24198244Y-22267219D02*
X23531578Y-23267219D01*
X24960149Y-23267219D02*
X24960149Y-22505314D01*
X24769673Y-22695790D02*
X24960149Y-22505314D01*
X24960149Y-22505314D02*
X25150625Y-22695790D01*
X63293482Y-7914838D02*
X63198244Y-7867219D01*
X63198244Y-7867219D02*
X63055387Y-7867219D01*
X63055387Y-7867219D02*
X62912530Y-7914838D01*
X62912530Y-7914838D02*
X62817292Y-8010076D01*
X62817292Y-8010076D02*
X62769673Y-8105314D01*
X62769673Y-8105314D02*
X62722054Y-8295790D01*
X62722054Y-8295790D02*
X62722054Y-8438647D01*
X62722054Y-8438647D02*
X62769673Y-8629123D01*
X62769673Y-8629123D02*
X62817292Y-8724361D01*
X62817292Y-8724361D02*
X62912530Y-8819600D01*
X62912530Y-8819600D02*
X63055387Y-8867219D01*
X63055387Y-8867219D02*
X63150625Y-8867219D01*
X63150625Y-8867219D02*
X63293482Y-8819600D01*
X63293482Y-8819600D02*
X63341101Y-8771980D01*
X63341101Y-8771980D02*
X63341101Y-8438647D01*
X63341101Y-8438647D02*
X63150625Y-8438647D01*
X63769673Y-8867219D02*
X63769673Y-7867219D01*
X63769673Y-7867219D02*
X64341101Y-8867219D01*
X64341101Y-8867219D02*
X64341101Y-7867219D01*
X64817292Y-8867219D02*
X64817292Y-7867219D01*
X64817292Y-7867219D02*
X65055387Y-7867219D01*
X65055387Y-7867219D02*
X65198244Y-7914838D01*
X65198244Y-7914838D02*
X65293482Y-8010076D01*
X65293482Y-8010076D02*
X65341101Y-8105314D01*
X65341101Y-8105314D02*
X65388720Y-8295790D01*
X65388720Y-8295790D02*
X65388720Y-8438647D01*
X65388720Y-8438647D02*
X65341101Y-8629123D01*
X65341101Y-8629123D02*
X65293482Y-8724361D01*
X65293482Y-8724361D02*
X65198244Y-8819600D01*
X65198244Y-8819600D02*
X65055387Y-8867219D01*
X65055387Y-8867219D02*
X64817292Y-8867219D01*
X43641101Y-23371980D02*
X43593482Y-23419600D01*
X43593482Y-23419600D02*
X43450625Y-23467219D01*
X43450625Y-23467219D02*
X43355387Y-23467219D01*
X43355387Y-23467219D02*
X43212530Y-23419600D01*
X43212530Y-23419600D02*
X43117292Y-23324361D01*
X43117292Y-23324361D02*
X43069673Y-23229123D01*
X43069673Y-23229123D02*
X43022054Y-23038647D01*
X43022054Y-23038647D02*
X43022054Y-22895790D01*
X43022054Y-22895790D02*
X43069673Y-22705314D01*
X43069673Y-22705314D02*
X43117292Y-22610076D01*
X43117292Y-22610076D02*
X43212530Y-22514838D01*
X43212530Y-22514838D02*
X43355387Y-22467219D01*
X43355387Y-22467219D02*
X43450625Y-22467219D01*
X43450625Y-22467219D02*
X43593482Y-22514838D01*
X43593482Y-22514838D02*
X43641101Y-22562457D01*
X44069673Y-23467219D02*
X44069673Y-22467219D01*
X44069673Y-22943409D02*
X44641101Y-22943409D01*
X44641101Y-23467219D02*
X44641101Y-22467219D01*
X45069673Y-23181504D02*
X45545863Y-23181504D01*
X44974435Y-23467219D02*
X45307768Y-22467219D01*
X45307768Y-22467219D02*
X45641101Y-23467219D01*
X45974435Y-23086266D02*
X46736340Y-23086266D01*
X46545863Y-23276742D02*
X46736340Y-23086266D01*
X46736340Y-23086266D02*
X46545863Y-22895790D01*
X14350625Y-6267219D02*
X14350625Y-5505314D01*
X14160149Y-5695790D02*
X14350625Y-5505314D01*
X14350625Y-5505314D02*
X14541101Y-5695790D01*
X15779196Y-6171980D02*
X15731577Y-6219600D01*
X15731577Y-6219600D02*
X15588720Y-6267219D01*
X15588720Y-6267219D02*
X15493482Y-6267219D01*
X15493482Y-6267219D02*
X15350625Y-6219600D01*
X15350625Y-6219600D02*
X15255387Y-6124361D01*
X15255387Y-6124361D02*
X15207768Y-6029123D01*
X15207768Y-6029123D02*
X15160149Y-5838647D01*
X15160149Y-5838647D02*
X15160149Y-5695790D01*
X15160149Y-5695790D02*
X15207768Y-5505314D01*
X15207768Y-5505314D02*
X15255387Y-5410076D01*
X15255387Y-5410076D02*
X15350625Y-5314838D01*
X15350625Y-5314838D02*
X15493482Y-5267219D01*
X15493482Y-5267219D02*
X15588720Y-5267219D01*
X15588720Y-5267219D02*
X15731577Y-5314838D01*
X15731577Y-5314838D02*
X15779196Y-5362457D01*
X16207768Y-5743409D02*
X16541101Y-5743409D01*
X16683958Y-6267219D02*
X16207768Y-6267219D01*
X16207768Y-6267219D02*
X16207768Y-5267219D01*
X16207768Y-5267219D02*
X16683958Y-5267219D01*
X17112530Y-6267219D02*
X17112530Y-5267219D01*
X17112530Y-5267219D02*
X17683958Y-6267219D01*
X17683958Y-6267219D02*
X17683958Y-5267219D01*
X18017292Y-5267219D02*
X18588720Y-5267219D01*
X18303006Y-6267219D02*
X18303006Y-5267219D01*
X54876816Y-19667219D02*
X55448244Y-19667219D01*
X55162530Y-20667219D02*
X55162530Y-19667219D01*
X55781578Y-20667219D02*
X55781578Y-20000552D01*
X55781578Y-20191028D02*
X55829197Y-20095790D01*
X55829197Y-20095790D02*
X55876816Y-20048171D01*
X55876816Y-20048171D02*
X55972054Y-20000552D01*
X55972054Y-20000552D02*
X56067292Y-20000552D01*
X56781578Y-20619600D02*
X56686340Y-20667219D01*
X56686340Y-20667219D02*
X56495864Y-20667219D01*
X56495864Y-20667219D02*
X56400626Y-20619600D01*
X56400626Y-20619600D02*
X56353007Y-20524361D01*
X56353007Y-20524361D02*
X56353007Y-20143409D01*
X56353007Y-20143409D02*
X56400626Y-20048171D01*
X56400626Y-20048171D02*
X56495864Y-20000552D01*
X56495864Y-20000552D02*
X56686340Y-20000552D01*
X56686340Y-20000552D02*
X56781578Y-20048171D01*
X56781578Y-20048171D02*
X56829197Y-20143409D01*
X56829197Y-20143409D02*
X56829197Y-20238647D01*
X56829197Y-20238647D02*
X56353007Y-20333885D01*
X57257769Y-20667219D02*
X57257769Y-19667219D01*
X57257769Y-20048171D02*
X57353007Y-20000552D01*
X57353007Y-20000552D02*
X57543483Y-20000552D01*
X57543483Y-20000552D02*
X57638721Y-20048171D01*
X57638721Y-20048171D02*
X57686340Y-20095790D01*
X57686340Y-20095790D02*
X57733959Y-20191028D01*
X57733959Y-20191028D02*
X57733959Y-20476742D01*
X57733959Y-20476742D02*
X57686340Y-20571980D01*
X57686340Y-20571980D02*
X57638721Y-20619600D01*
X57638721Y-20619600D02*
X57543483Y-20667219D01*
X57543483Y-20667219D02*
X57353007Y-20667219D01*
X57353007Y-20667219D02*
X57257769Y-20619600D01*
X58305388Y-20667219D02*
X58210150Y-20619600D01*
X58210150Y-20619600D02*
X58162531Y-20524361D01*
X58162531Y-20524361D02*
X58162531Y-19667219D01*
X59067293Y-20619600D02*
X58972055Y-20667219D01*
X58972055Y-20667219D02*
X58781579Y-20667219D01*
X58781579Y-20667219D02*
X58686341Y-20619600D01*
X58686341Y-20619600D02*
X58638722Y-20524361D01*
X58638722Y-20524361D02*
X58638722Y-20143409D01*
X58638722Y-20143409D02*
X58686341Y-20048171D01*
X58686341Y-20048171D02*
X58781579Y-20000552D01*
X58781579Y-20000552D02*
X58972055Y-20000552D01*
X58972055Y-20000552D02*
X59067293Y-20048171D01*
X59067293Y-20048171D02*
X59114912Y-20143409D01*
X59114912Y-20143409D02*
X59114912Y-20238647D01*
X59114912Y-20238647D02*
X58638722Y-20333885D01*
X8067219Y-2454136D02*
X8067219Y-2930326D01*
X8067219Y-2930326D02*
X7067219Y-2930326D01*
X37643482Y-27767219D02*
X37072054Y-27767219D01*
X37357768Y-27767219D02*
X37357768Y-26767219D01*
X37357768Y-26767219D02*
X37262530Y-26910076D01*
X37262530Y-26910076D02*
X37167292Y-27005314D01*
X37167292Y-27005314D02*
X37072054Y-27052933D01*
X38262530Y-26767219D02*
X38357768Y-26767219D01*
X38357768Y-26767219D02*
X38453006Y-26814838D01*
X38453006Y-26814838D02*
X38500625Y-26862457D01*
X38500625Y-26862457D02*
X38548244Y-26957695D01*
X38548244Y-26957695D02*
X38595863Y-27148171D01*
X38595863Y-27148171D02*
X38595863Y-27386266D01*
X38595863Y-27386266D02*
X38548244Y-27576742D01*
X38548244Y-27576742D02*
X38500625Y-27671980D01*
X38500625Y-27671980D02*
X38453006Y-27719600D01*
X38453006Y-27719600D02*
X38357768Y-27767219D01*
X38357768Y-27767219D02*
X38262530Y-27767219D01*
X38262530Y-27767219D02*
X38167292Y-27719600D01*
X38167292Y-27719600D02*
X38119673Y-27671980D01*
X38119673Y-27671980D02*
X38072054Y-27576742D01*
X38072054Y-27576742D02*
X38024435Y-27386266D01*
X38024435Y-27386266D02*
X38024435Y-27148171D01*
X38024435Y-27148171D02*
X38072054Y-26957695D01*
X38072054Y-26957695D02*
X38119673Y-26862457D01*
X38119673Y-26862457D02*
X38167292Y-26814838D01*
X38167292Y-26814838D02*
X38262530Y-26767219D01*
X39214911Y-26767219D02*
X39310149Y-26767219D01*
X39310149Y-26767219D02*
X39405387Y-26814838D01*
X39405387Y-26814838D02*
X39453006Y-26862457D01*
X39453006Y-26862457D02*
X39500625Y-26957695D01*
X39500625Y-26957695D02*
X39548244Y-27148171D01*
X39548244Y-27148171D02*
X39548244Y-27386266D01*
X39548244Y-27386266D02*
X39500625Y-27576742D01*
X39500625Y-27576742D02*
X39453006Y-27671980D01*
X39453006Y-27671980D02*
X39405387Y-27719600D01*
X39405387Y-27719600D02*
X39310149Y-27767219D01*
X39310149Y-27767219D02*
X39214911Y-27767219D01*
X39214911Y-27767219D02*
X39119673Y-27719600D01*
X39119673Y-27719600D02*
X39072054Y-27671980D01*
X39072054Y-27671980D02*
X39024435Y-27576742D01*
X39024435Y-27576742D02*
X38976816Y-27386266D01*
X38976816Y-27386266D02*
X38976816Y-27148171D01*
X38976816Y-27148171D02*
X39024435Y-26957695D01*
X39024435Y-26957695D02*
X39072054Y-26862457D01*
X39072054Y-26862457D02*
X39119673Y-26814838D01*
X39119673Y-26814838D02*
X39214911Y-26767219D01*
X40405387Y-27100552D02*
X40405387Y-27767219D01*
X39976816Y-27100552D02*
X39976816Y-27624361D01*
X39976816Y-27624361D02*
X40024435Y-27719600D01*
X40024435Y-27719600D02*
X40119673Y-27767219D01*
X40119673Y-27767219D02*
X40262530Y-27767219D01*
X40262530Y-27767219D02*
X40357768Y-27719600D01*
X40357768Y-27719600D02*
X40405387Y-27671980D01*
D12*
X9730180Y-29636779D02*
X10730180Y-29636779D01*
X10111133Y-29732017D02*
X9730180Y-30017731D01*
X10396847Y-30017731D02*
X10015895Y-29636779D01*
D13*
X32049937Y-31768779D02*
X32049937Y-30768779D01*
X32145175Y-31387826D02*
X32430889Y-31768779D01*
X32430889Y-31102112D02*
X32049937Y-31483064D01*
D10*
X24600000Y-16650000D02*
X24600000Y-15250000D01*
X34700000Y-23700000D02*
X36500000Y-21900000D01*
X34700000Y-26700000D02*
X36500000Y-28500000D01*
X36500000Y-21900000D02*
X41300000Y-21900000D01*
X36500000Y-28500000D02*
X41300000Y-28500000D01*
X41300000Y-21900000D02*
X41300000Y-23700000D01*
X41300000Y-28500000D02*
X41300000Y-26700000D01*
D14*
X33461803Y-25200000D02*
G75*
G03*
X33461803Y-25200000I-111803J0D01*
G01*
X33400000Y-25200000D02*
G75*
G03*
X33400000Y-25200000I-50000J0D01*
G01*
D10*
X24400000Y-13700000D02*
X24400000Y-14350000D01*
X58950000Y-24225000D02*
X59750000Y-24225000D01*
X33500000Y-32950000D02*
X35200000Y-32950000D01*
X33500000Y-34250000D02*
X35200000Y-34250000D01*
X60475000Y-24225000D02*
X61275000Y-24225000D01*
X37350000Y-30550000D02*
X41600000Y-30550000D01*
X37350000Y-33750000D02*
X37350000Y-30550000D01*
X41600000Y-30550000D02*
X41600000Y-33750000D01*
X41600000Y-33750000D02*
X37350000Y-33750000D01*
X40200000Y-32750000D02*
G75*
G03*
X40000000Y-32750000I-100000J0D01*
G01*
X40000000Y-32750000D02*
G75*
G03*
X40200000Y-32750000I100000J0D01*
G01*
X43700000Y-14100000D02*
X43700000Y-12700000D01*
X20000000Y-14850000D02*
X20000000Y-14050000D01*
X7700000Y-24600000D02*
X8300000Y-24600000D01*
X28400000Y-25400000D02*
X28400000Y-26000000D01*
X14030000Y-28800000D02*
X15230000Y-28800000D01*
X38850000Y-19900000D02*
X37350000Y-19900000D01*
X38850000Y-16900000D02*
X38850000Y-19900000D01*
X38850000Y-11900000D02*
X38850000Y-7400000D01*
X38850000Y-7400000D02*
X38000000Y-7400000D01*
X30000000Y-7400000D02*
X29150000Y-7400000D01*
X29150000Y-19900000D02*
X30650000Y-19900000D01*
X29150000Y-19900000D02*
X29150000Y-16900000D01*
X29150000Y-7400000D02*
X29150000Y-11900000D01*
X36400000Y-6100000D02*
G75*
G03*
X36600000Y-6100000I100000J0D01*
G01*
X36600000Y-6100000D02*
G75*
G03*
X36400000Y-6100000I-100000J0D01*
G01*
X47950000Y-22200000D02*
X49150000Y-22200000D01*
X49500000Y-22250000D02*
X50100000Y-22250000D01*
X49500000Y-25150000D02*
X49500000Y-22250000D01*
X50100000Y-22250000D02*
X50100000Y-25150000D01*
X50100000Y-25150000D02*
X49500000Y-25150000D01*
D15*
X41500000Y-4500000D02*
X41500000Y-4500000D01*
D10*
X41500000Y-4500000D02*
X40250000Y-4500000D01*
D15*
X41500000Y-4400000D02*
X41500000Y-4400000D01*
D10*
X41500000Y-4400000D02*
X41500000Y-1000000D01*
D15*
X41500000Y-1000000D02*
X41500000Y-4400000D01*
X41500000Y-1000000D02*
X41500000Y-1000000D01*
X41500000Y-1000000D02*
X41500000Y-1000000D01*
D10*
X41500000Y-1000000D02*
X40250000Y-1000000D01*
D15*
X40250000Y-4500000D02*
X41500000Y-4500000D01*
X40250000Y-4500000D02*
X40250000Y-4500000D01*
X40250000Y-1000000D02*
X41500000Y-1000000D01*
X40250000Y-1000000D02*
X40250000Y-1000000D01*
D10*
X39050000Y-2300000D02*
X39050000Y-2300000D01*
X39050000Y-2300000D02*
X39050000Y-2300000D01*
X38950000Y-2300000D02*
X38950000Y-2300000D01*
X35750000Y-850000D02*
X34250000Y-850000D01*
X35750000Y1000000D02*
X35750000Y-850000D01*
X34250000Y-850000D02*
X34250000Y1000000D01*
X34250000Y1000000D02*
X35750000Y1000000D01*
D15*
X27500000Y-4500000D02*
X27500000Y-4500000D01*
D10*
X27500000Y-4500000D02*
X26500000Y-4500000D01*
D15*
X27500000Y-1000000D02*
X27500000Y-1000000D01*
D10*
X27500000Y-1000000D02*
X26500000Y-1000000D01*
D15*
X26500000Y-4500000D02*
X27500000Y-4500000D01*
X26500000Y-4500000D02*
X26500000Y-4500000D01*
X26500000Y-4500000D02*
X26500000Y-4500000D01*
D10*
X26500000Y-4500000D02*
X26500000Y-1000000D01*
D15*
X26500000Y-1000000D02*
X27500000Y-1000000D01*
X26500000Y-1000000D02*
X26500000Y-4500000D01*
X26500000Y-1000000D02*
X26500000Y-1000000D01*
X26500000Y-1000000D02*
X26500000Y-1000000D01*
D10*
X38950000Y-2300000D02*
G75*
G03*
X39050000Y-2300000I50000J0D01*
G01*
X39050000Y-2300000D02*
G75*
G03*
X38950000Y-2300000I-50000J0D01*
G01*
X39050000Y-2300000D02*
G75*
G03*
X38950000Y-2300000I-50000J0D01*
G01*
X27700000Y-19250000D02*
X28300000Y-19250000D01*
X45400000Y-20350000D02*
X45400000Y-21750000D01*
X23520000Y-32010000D02*
X21670000Y-32010000D01*
X23520000Y-33310000D02*
X21720000Y-33310000D01*
X2000000Y-11500000D02*
X2000000Y-10900000D01*
X20050000Y-18450000D02*
X20050000Y-19850000D01*
X2400000Y-14100000D02*
X2400000Y-15300000D01*
X49900000Y-10100000D02*
X48750000Y-11250000D01*
X49900000Y-7100000D02*
X48750000Y-5950000D01*
X48750000Y-11250000D02*
X44600000Y-11250000D01*
X48750000Y-5950000D02*
X44600000Y-5950000D01*
X44600000Y-11250000D02*
X44600000Y-10100000D01*
X44600000Y-5950000D02*
X44600000Y-7100000D01*
D14*
X51450000Y-8600000D02*
G75*
G03*
X51450000Y-8600000I-50000J0D01*
G01*
X51511803Y-8600000D02*
G75*
G03*
X51511803Y-8600000I-111803J0D01*
G01*
D10*
X12175000Y-30300000D02*
X12000000Y-30300000D01*
X12175000Y-30300000D02*
X12175000Y-33700000D01*
X10800000Y-30350000D02*
X10625000Y-30350000D01*
X10625000Y-30350000D02*
X10625000Y-33700000D01*
D16*
X12100000Y-31250000D02*
X10700000Y-31250000D01*
D10*
X12175000Y-33700000D02*
X12000000Y-33700000D01*
X10800000Y-33700000D02*
X10625000Y-33700000D01*
X18440000Y-29625000D02*
X18040000Y-29625000D01*
X18440000Y-28375000D02*
X18040000Y-28375000D01*
X50500000Y-19550000D02*
X49100000Y-19550000D01*
X5600000Y-26450000D02*
X5600000Y-21950000D01*
X4500000Y-26450000D02*
X5600000Y-26450000D01*
X1700000Y-26450000D02*
X600000Y-26450000D01*
X600000Y-26450000D02*
X600000Y-21950000D01*
X600000Y-21050000D02*
X600000Y-21050000D01*
X600000Y-21050000D02*
X600000Y-20950000D01*
X600000Y-20950000D02*
X600000Y-20950000D01*
X600000Y-20950000D02*
G75*
G03*
X600000Y-21050000I0J-50000D01*
G01*
X600000Y-21050000D02*
G75*
G03*
X600000Y-20950000I0J50000D01*
G01*
X30300000Y-26850000D02*
X31700000Y-26850000D01*
X26200000Y-7900000D02*
X27600000Y-7900000D01*
X15950000Y-19900000D02*
X14450000Y-19900000D01*
X15950000Y-16900000D02*
X15950000Y-19900000D01*
X15950000Y-11900000D02*
X15950000Y-7400000D01*
X15950000Y-7400000D02*
X15100000Y-7400000D01*
X7100000Y-7400000D02*
X6250000Y-7400000D01*
X6250000Y-19900000D02*
X7750000Y-19900000D01*
X6250000Y-19900000D02*
X6250000Y-16900000D01*
X6250000Y-7400000D02*
X6250000Y-11900000D01*
X13500000Y-6100000D02*
G75*
G03*
X13700000Y-6100000I100000J0D01*
G01*
X13700000Y-6100000D02*
G75*
G03*
X13500000Y-6100000I-100000J0D01*
G01*
X23200000Y-7900000D02*
X21800000Y-7900000D01*
X8600000Y-33100000D02*
X9200000Y-33100000D01*
X5540000Y-9000000D02*
X5540000Y-7800000D01*
X5540000Y-7800000D02*
X460000Y-7800000D01*
X460000Y-10200000D02*
X4270000Y-10200000D01*
X460000Y-7800000D02*
X460000Y-10200000D01*
X20050000Y-16100000D02*
X20050000Y-17500000D01*
X22550000Y-21650000D02*
X22550000Y-20450000D01*
X22600000Y-20100000D02*
X22600000Y-19500000D01*
X25500000Y-20100000D02*
X22600000Y-20100000D01*
X22600000Y-19500000D02*
X25500000Y-19500000D01*
X25500000Y-19500000D02*
X25500000Y-20100000D01*
X7650000Y-21600000D02*
X8350000Y-21600000D01*
X41600000Y-7800000D02*
X42200000Y-7800000D01*
X21700000Y-12100000D02*
X22500000Y-12100000D01*
X61750000Y-19900000D02*
X60250000Y-19900000D01*
X61750000Y-16900000D02*
X61750000Y-19900000D01*
X61750000Y-11900000D02*
X61750000Y-7400000D01*
X61750000Y-7400000D02*
X60900000Y-7400000D01*
X52900000Y-7400000D02*
X52050000Y-7400000D01*
X52050000Y-19900000D02*
X53550000Y-19900000D01*
X52050000Y-19900000D02*
X52050000Y-16900000D01*
X52050000Y-7400000D02*
X52050000Y-11900000D01*
X59300000Y-6100000D02*
G75*
G03*
X59500000Y-6100000I100000J0D01*
G01*
X59500000Y-6100000D02*
G75*
G03*
X59300000Y-6100000I-100000J0D01*
G01*
X11550000Y-26300000D02*
X16050000Y-26300000D01*
X11550000Y-25200000D02*
X11550000Y-26300000D01*
X11550000Y-22400000D02*
X11550000Y-21300000D01*
X11550000Y-21300000D02*
X16050000Y-21300000D01*
X16950000Y-21300000D02*
X16950000Y-21300000D01*
X16950000Y-21300000D02*
X17050000Y-21300000D01*
X17050000Y-21300000D02*
X17050000Y-21300000D01*
X17050000Y-21300000D02*
G75*
G03*
X16950000Y-21300000I-50000J0D01*
G01*
X16950000Y-21300000D02*
G75*
G03*
X17050000Y-21300000I50000J0D01*
G01*
X21200000Y-11900000D02*
X20400000Y-11900000D01*
X43700000Y-16500000D02*
X43700000Y-15100000D01*
X51100000Y-26300000D02*
X51100000Y-27700000D01*
X53250000Y-23250000D02*
X54650000Y-23250000D01*
X45400000Y-18100000D02*
X45400000Y-19500000D01*
X47000000Y-26650000D02*
X45150000Y-26650000D01*
X47000000Y-27950000D02*
X45200000Y-27950000D01*
X25900000Y-12850000D02*
X25900000Y-12150000D01*
D15*
X23500000Y-4500000D02*
X23500000Y-4500000D01*
D10*
X23500000Y-4500000D02*
X22250000Y-4500000D01*
D15*
X23500000Y-4400000D02*
X23500000Y-4400000D01*
D10*
X23500000Y-4400000D02*
X23500000Y-1000000D01*
D15*
X23500000Y-1000000D02*
X23500000Y-4400000D01*
X23500000Y-1000000D02*
X23500000Y-1000000D01*
X23500000Y-1000000D02*
X23500000Y-1000000D01*
D10*
X23500000Y-1000000D02*
X22250000Y-1000000D01*
D15*
X22250000Y-4500000D02*
X23500000Y-4500000D01*
X22250000Y-4500000D02*
X22250000Y-4500000D01*
X22250000Y-1000000D02*
X23500000Y-1000000D01*
X22250000Y-1000000D02*
X22250000Y-1000000D01*
D10*
X21050000Y-2300000D02*
X21050000Y-2300000D01*
X21050000Y-2300000D02*
X21050000Y-2300000D01*
X20950000Y-2300000D02*
X20950000Y-2300000D01*
X17750000Y-850000D02*
X16250000Y-850000D01*
X17750000Y1000000D02*
X17750000Y-850000D01*
X16250000Y-850000D02*
X16250000Y1000000D01*
X16250000Y1000000D02*
X17750000Y1000000D01*
D15*
X9500000Y-4500000D02*
X9500000Y-4500000D01*
D10*
X9500000Y-4500000D02*
X8500000Y-4500000D01*
D15*
X9500000Y-1000000D02*
X9500000Y-1000000D01*
D10*
X9500000Y-1000000D02*
X8500000Y-1000000D01*
D15*
X8500000Y-4500000D02*
X9500000Y-4500000D01*
X8500000Y-4500000D02*
X8500000Y-4500000D01*
X8500000Y-4500000D02*
X8500000Y-4500000D01*
D10*
X8500000Y-4500000D02*
X8500000Y-1000000D01*
D15*
X8500000Y-1000000D02*
X9500000Y-1000000D01*
X8500000Y-1000000D02*
X8500000Y-4500000D01*
X8500000Y-1000000D02*
X8500000Y-1000000D01*
X8500000Y-1000000D02*
X8500000Y-1000000D01*
D10*
X20950000Y-2300000D02*
G75*
G03*
X21050000Y-2300000I50000J0D01*
G01*
X21050000Y-2300000D02*
G75*
G03*
X20950000Y-2300000I-50000J0D01*
G01*
X21050000Y-2300000D02*
G75*
G03*
X20950000Y-2300000I-50000J0D01*
G01*
X60450000Y-30600000D02*
X61000000Y-30600000D01*
X57050000Y-24000000D02*
X58100000Y-24000000D01*
X13525000Y-31100000D02*
X14675000Y-31100000D01*
X15025000Y-31200000D02*
X15775000Y-31200000D01*
X15025000Y-34200000D02*
X15025000Y-31200000D01*
X15775000Y-31200000D02*
X15775000Y-34200000D01*
X15775000Y-34200000D02*
X15025000Y-34200000D01*
D15*
X59500000Y-4500000D02*
X59500000Y-4500000D01*
D10*
X59500000Y-4500000D02*
X58250000Y-4500000D01*
D15*
X59500000Y-4400000D02*
X59500000Y-4400000D01*
D10*
X59500000Y-4400000D02*
X59500000Y-1000000D01*
D15*
X59500000Y-1000000D02*
X59500000Y-4400000D01*
X59500000Y-1000000D02*
X59500000Y-1000000D01*
X59500000Y-1000000D02*
X59500000Y-1000000D01*
D10*
X59500000Y-1000000D02*
X58250000Y-1000000D01*
D15*
X58250000Y-4500000D02*
X59500000Y-4500000D01*
X58250000Y-4500000D02*
X58250000Y-4500000D01*
X58250000Y-1000000D02*
X59500000Y-1000000D01*
X58250000Y-1000000D02*
X58250000Y-1000000D01*
D10*
X57050000Y-2300000D02*
X57050000Y-2300000D01*
X57050000Y-2300000D02*
X57050000Y-2300000D01*
X56950000Y-2300000D02*
X56950000Y-2300000D01*
X53750000Y-850000D02*
X52250000Y-850000D01*
X53750000Y1000000D02*
X53750000Y-850000D01*
X52250000Y-850000D02*
X52250000Y1000000D01*
X52250000Y1000000D02*
X53750000Y1000000D01*
D15*
X45500000Y-4500000D02*
X45500000Y-4500000D01*
D10*
X45500000Y-4500000D02*
X44500000Y-4500000D01*
D15*
X45500000Y-1000000D02*
X45500000Y-1000000D01*
D10*
X45500000Y-1000000D02*
X44500000Y-1000000D01*
D15*
X44500000Y-4500000D02*
X45500000Y-4500000D01*
X44500000Y-4500000D02*
X44500000Y-4500000D01*
X44500000Y-4500000D02*
X44500000Y-4500000D01*
D10*
X44500000Y-4500000D02*
X44500000Y-1000000D01*
D15*
X44500000Y-1000000D02*
X45500000Y-1000000D01*
X44500000Y-1000000D02*
X44500000Y-4500000D01*
X44500000Y-1000000D02*
X44500000Y-1000000D01*
X44500000Y-1000000D02*
X44500000Y-1000000D01*
D10*
X56950000Y-2300000D02*
G75*
G03*
X57050000Y-2300000I50000J0D01*
G01*
X57050000Y-2300000D02*
G75*
G03*
X56950000Y-2300000I-50000J0D01*
G01*
X57050000Y-2300000D02*
G75*
G03*
X56950000Y-2300000I-50000J0D01*
G01*
X24800000Y-11300000D02*
X24800000Y-10600000D01*
X29850000Y-23225000D02*
X29450000Y-23225000D01*
X29850000Y-21975000D02*
X29450000Y-21975000D01*
X55450000Y-24225000D02*
X56250000Y-24225000D01*
X33200000Y-30100000D02*
X33200000Y-30350000D01*
X33200000Y-30100000D02*
X34850000Y-30100000D01*
X33200000Y-31475000D02*
X33200000Y-31725000D01*
X33200000Y-31725000D02*
X34850000Y-31725000D01*
D16*
X33850000Y-30200000D02*
X33850000Y-31600000D01*
D10*
X34850000Y-30100000D02*
X34850000Y-30350000D01*
X34850000Y-31475000D02*
X34850000Y-31725000D01*
X1900000Y-13150000D02*
X1900000Y-12450000D01*
X62000000Y-24225000D02*
X62800000Y-24225000D01*
X46450000Y-14900000D02*
X47850000Y-14900000D01*
X4100000Y-19000000D02*
X3100000Y-19000000D01*
X2750000Y-18800000D02*
X2450000Y-18800000D01*
X2750000Y-16800000D02*
X2750000Y-18800000D01*
X2450000Y-18800000D02*
X2450000Y-16800000D01*
X2450000Y-16800000D02*
X2750000Y-16800000D01*
X28400000Y-27500000D02*
X28400000Y-26900000D01*
X39850000Y-7800000D02*
X40550000Y-7800000D01*
X58550000Y-30600000D02*
X59100000Y-30600000D01*
X20800000Y-8000000D02*
X19400000Y-8000000D01*
X55600000Y-33250000D02*
X54450000Y-34400000D01*
X55600000Y-30250000D02*
X54450000Y-29100000D01*
X54450000Y-34400000D02*
X50300000Y-34400000D01*
X54450000Y-29100000D02*
X50300000Y-29100000D01*
X50300000Y-34400000D02*
X50300000Y-33250000D01*
X50300000Y-29100000D02*
X50300000Y-30250000D01*
D14*
X57150000Y-31750000D02*
G75*
G03*
X57150000Y-31750000I-50000J0D01*
G01*
X57211803Y-31750000D02*
G75*
G03*
X57211803Y-31750000I-111803J0D01*
G01*
D10*
X22600000Y-26900000D02*
X22600000Y-28100000D01*
X18575000Y-12100000D02*
X19625000Y-12100000D01*
X25225000Y-8500000D02*
X24175000Y-8500000D01*
%LPC*%
D17*
X64000000Y-4500000D03*
D18*
X26050000Y-15950000D03*
X23150000Y-15950000D03*
D19*
X35500000Y-25200000D03*
X40500000Y-25200000D03*
D20*
X23700000Y-14050000D03*
X25100000Y-14050000D03*
D21*
X59350000Y-24925000D03*
X59350000Y-23525000D03*
D22*
X33188000Y-33600000D03*
X35512000Y-33600000D03*
D21*
X60875000Y-24925000D03*
X60875000Y-23525000D03*
D23*
X40100000Y-31700000D03*
X38850000Y-31700000D03*
D24*
X45080000Y-13400000D03*
X42320000Y-13400000D03*
D20*
X19300000Y-14450000D03*
X20700000Y-14450000D03*
D25*
X8000000Y-25400000D03*
X8000000Y-23800000D03*
D26*
X27600000Y-25700000D03*
X29200000Y-25700000D03*
D27*
X14630000Y-27970000D03*
X14630000Y-29630000D03*
D28*
X36500000Y-7400000D03*
X34000000Y-7400000D03*
X31500000Y-7400000D03*
D29*
X38400000Y-14400000D03*
D30*
X29600000Y-14400000D03*
D31*
X48550000Y-22750000D03*
X48550000Y-23700000D03*
X48550000Y-24650000D03*
X51050000Y-24650000D03*
X51050000Y-22750000D03*
D32*
X39000000Y-1100000D03*
X37000000Y-1100000D03*
X33000000Y-1100000D03*
X31000000Y-1100000D03*
X29000000Y-1100000D03*
X29000000Y-4400000D03*
X31000000Y-4400000D03*
X33000000Y-4400000D03*
X37000000Y-4400000D03*
X39000000Y-4400000D03*
D25*
X28000000Y-20050000D03*
X28000000Y-18450000D03*
D24*
X44020000Y-21050000D03*
X46780000Y-21050000D03*
D33*
X21520000Y-32660000D03*
X23720000Y-32660000D03*
D26*
X2800000Y-11200000D03*
X1200000Y-11200000D03*
D24*
X18670000Y-19150000D03*
X21430000Y-19150000D03*
D34*
X3230000Y-14700000D03*
X1570000Y-14700000D03*
D35*
X28300000Y-31900000D03*
D36*
X49400000Y-8600000D03*
X45100000Y-8600000D03*
D37*
X11400000Y-30300000D03*
X11400000Y-33700000D03*
D38*
X19190000Y-29000000D03*
X17290000Y-29000000D03*
D39*
X49800000Y-18170000D03*
X49800000Y-20930000D03*
D40*
X1925000Y-21200000D03*
D41*
X3100000Y-27200000D03*
D40*
X4275000Y-21200000D03*
D42*
X31000000Y-28450000D03*
X31000000Y-25250000D03*
D39*
X26900000Y-9280000D03*
X26900000Y-6520000D03*
D28*
X13600000Y-7400000D03*
X11100000Y-7400000D03*
X8600000Y-7400000D03*
D29*
X15500000Y-14400000D03*
D30*
X6700000Y-14400000D03*
D39*
X22500000Y-6520000D03*
X22500000Y-9280000D03*
D25*
X8900000Y-33900000D03*
X8900000Y-32300000D03*
D43*
X4270000Y-9000000D03*
D44*
X1730000Y-9000000D03*
D45*
X18450000Y-16800000D03*
X21650000Y-16800000D03*
D46*
X23100000Y-21050000D03*
X24050000Y-21050000D03*
X25000000Y-21050000D03*
X25000000Y-18550000D03*
X23100000Y-18550000D03*
D47*
X8000000Y-22325000D03*
X8000000Y-20875000D03*
D25*
X41900000Y-8600000D03*
X41900000Y-7000000D03*
D21*
X22100000Y-12800000D03*
X22100000Y-11400000D03*
D28*
X59400000Y-7400000D03*
X56900000Y-7400000D03*
X54400000Y-7400000D03*
D29*
X61300000Y-14400000D03*
D30*
X52500000Y-14400000D03*
D48*
X16800000Y-22625000D03*
D41*
X10800000Y-23800000D03*
D48*
X16800000Y-24975000D03*
D21*
X20800000Y-12600000D03*
X20800000Y-11200000D03*
D24*
X45080000Y-15800000D03*
X42320000Y-15800000D03*
D45*
X49500000Y-27000000D03*
X52700000Y-27000000D03*
D49*
X53950000Y-24700000D03*
X53950000Y-21800000D03*
D24*
X44020000Y-18800000D03*
X46780000Y-18800000D03*
D33*
X45000000Y-27300000D03*
X47200000Y-27300000D03*
D50*
X26625000Y-12500000D03*
X25175000Y-12500000D03*
D32*
X21000000Y-1100000D03*
X19000000Y-1100000D03*
X15000000Y-1100000D03*
X13000000Y-1100000D03*
X11000000Y-1100000D03*
X11000000Y-4400000D03*
X13000000Y-4400000D03*
X15000000Y-4400000D03*
X19000000Y-4400000D03*
X21000000Y-4400000D03*
D51*
X60750000Y-31476300D03*
X60750000Y-29723700D03*
D52*
X57575000Y-25000000D03*
X57575000Y-23000000D03*
D53*
X14100000Y-31750000D03*
X14100000Y-32700000D03*
X14100000Y-33650000D03*
X16700000Y-33650000D03*
X16700000Y-32700000D03*
X16700000Y-31750000D03*
D32*
X57000000Y-1100000D03*
X55000000Y-1100000D03*
X51000000Y-1100000D03*
X49000000Y-1100000D03*
X47000000Y-1100000D03*
X47000000Y-4400000D03*
X49000000Y-4400000D03*
X51000000Y-4400000D03*
X55000000Y-4400000D03*
X57000000Y-4400000D03*
D50*
X25525000Y-10950000D03*
X24075000Y-10950000D03*
D38*
X30600000Y-22600000D03*
X28700000Y-22600000D03*
D21*
X55850000Y-24925000D03*
X55850000Y-23525000D03*
D33*
X33175000Y-30900000D03*
X34825000Y-30900000D03*
D50*
X2625000Y-12800000D03*
X1175000Y-12800000D03*
D21*
X62400000Y-24925000D03*
X62400000Y-23525000D03*
D39*
X47150000Y-16280000D03*
X47150000Y-13520000D03*
D54*
X3600000Y-18450000D03*
X3600000Y-17800000D03*
X3600000Y-17150000D03*
X1600000Y-17150000D03*
X1600000Y-17800000D03*
X1600000Y-18450000D03*
D26*
X29200000Y-27200000D03*
X27600000Y-27200000D03*
D47*
X40200000Y-8525000D03*
X40200000Y-7075000D03*
D51*
X58850000Y-31476300D03*
X58850000Y-29723700D03*
D39*
X20100000Y-6620000D03*
X20100000Y-9380000D03*
D36*
X55100000Y-31750000D03*
X50800000Y-31750000D03*
D35*
X4000000Y-4500000D03*
D34*
X23430000Y-27500000D03*
X21770000Y-27500000D03*
D52*
X19100000Y-13100000D03*
X19100000Y-11100000D03*
X24700000Y-7500000D03*
X24700000Y-9500000D03*
D55*
X65200000Y-13300000D03*
D56*
X7700000Y-27300000D03*
X22600000Y-24800000D03*
X22600000Y-29800000D03*
X60300000Y-27300000D03*
X45400000Y-29800000D03*
X45400000Y-24800000D03*
%LPD*%
M02*
