G04 #@! TF.GenerationSoftware,KiCad,Pcbnew,7.0.9*
G04 #@! TF.CreationDate,2023-12-08T16:12:54+01:00*
G04 #@! TF.ProjectId,2023_PiezoPreamp,32303233-5f50-4696-957a-6f507265616d,rev?*
G04 #@! TF.SameCoordinates,PX2625a00PY1c22260*
G04 #@! TF.FileFunction,Soldermask,Bot*
G04 #@! TF.FilePolarity,Negative*
%FSLAX46Y46*%
G04 Gerber Fmt 4.6, Leading zero omitted, Abs format (unit mm)*
G04 Created by KiCad (PCBNEW 7.0.9) date 2023-12-08 16:12:54*
%MOMM*%
%LPD*%
G01*
G04 APERTURE LIST*
%ADD10C,1.800000*%
%ADD11O,3.600000X4.000000*%
%ADD12O,3.500000X4.000000*%
%ADD13C,5.500000*%
%ADD14C,1.000000*%
%ADD15C,1.400000*%
%ADD16C,3.200000*%
%ADD17R,1.650000X1.650000*%
%ADD18C,1.650000*%
%ADD19O,2.800000X4.800000*%
%ADD20O,3.204000X2.004000*%
G04 APERTURE END LIST*
D10*
X13600000Y-7400000D03*
X11100000Y-7400000D03*
X8600000Y-7400000D03*
D11*
X15500000Y-14400000D03*
D12*
X6700000Y-14400000D03*
D13*
X64000000Y-4500000D03*
D14*
X40100000Y-31700000D03*
X38850000Y-31700000D03*
D10*
X36500000Y-7400000D03*
X34000000Y-7400000D03*
X31500000Y-7400000D03*
D11*
X38400000Y-14400000D03*
D12*
X29600000Y-14400000D03*
D15*
X39000000Y-1100000D03*
X37000000Y-1100000D03*
X33000000Y-1100000D03*
X31000000Y-1100000D03*
X29000000Y-1100000D03*
X29000000Y-4400000D03*
X31000000Y-4400000D03*
X33000000Y-4400000D03*
X37000000Y-4400000D03*
X39000000Y-4400000D03*
D16*
X28300000Y-31900000D03*
D17*
X4270000Y-9000000D03*
D18*
X1730000Y-9000000D03*
D10*
X59400000Y-7400000D03*
X56900000Y-7400000D03*
X54400000Y-7400000D03*
D11*
X61300000Y-14400000D03*
D12*
X52500000Y-14400000D03*
D15*
X21000000Y-1100000D03*
X19000000Y-1100000D03*
X15000000Y-1100000D03*
X13000000Y-1100000D03*
X11000000Y-1100000D03*
X11000000Y-4400000D03*
X13000000Y-4400000D03*
X15000000Y-4400000D03*
X19000000Y-4400000D03*
X21000000Y-4400000D03*
X57000000Y-1100000D03*
X55000000Y-1100000D03*
X51000000Y-1100000D03*
X49000000Y-1100000D03*
X47000000Y-1100000D03*
X47000000Y-4400000D03*
X49000000Y-4400000D03*
X51000000Y-4400000D03*
X55000000Y-4400000D03*
X57000000Y-4400000D03*
D16*
X4000000Y-4500000D03*
D19*
X65200000Y-13300000D03*
D20*
X7700000Y-27300000D03*
X22600000Y-24800000D03*
X22600000Y-29800000D03*
X60300000Y-27300000D03*
X45400000Y-29800000D03*
X45400000Y-24800000D03*
M02*
