G04 #@! TF.GenerationSoftware,KiCad,Pcbnew,7.0.9*
G04 #@! TF.CreationDate,2023-12-07T19:23:12+01:00*
G04 #@! TF.ProjectId,2023_PiezoPreamp,32303233-5f50-4696-957a-6f507265616d,rev?*
G04 #@! TF.SameCoordinates,PX2625a00PY1c22260*
G04 #@! TF.FileFunction,Soldermask,Top*
G04 #@! TF.FilePolarity,Negative*
%FSLAX46Y46*%
G04 Gerber Fmt 4.6, Leading zero omitted, Abs format (unit mm)*
G04 Created by KiCad (PCBNEW 7.0.9) date 2023-12-07 19:23:12*
%MOMM*%
%LPD*%
G01*
G04 APERTURE LIST*
%ADD10C,5.500000*%
%ADD11R,1.150000X1.800000*%
%ADD12R,3.200000X1.600000*%
%ADD13R,0.750000X0.940000*%
%ADD14R,0.940000X0.750000*%
%ADD15R,1.075000X0.500000*%
%ADD16C,1.000000*%
%ADD17R,1.070000X1.820000*%
%ADD18R,0.950000X0.800000*%
%ADD19R,0.800000X0.950000*%
%ADD20R,1.470000X0.970000*%
%ADD21C,1.800000*%
%ADD22O,3.600000X4.000000*%
%ADD23O,3.500000X4.000000*%
%ADD24R,1.200000X0.600000*%
%ADD25C,1.400000*%
%ADD26R,0.800000X0.800000*%
%ADD27R,0.970000X1.470000*%
%ADD28C,3.200000*%
%ADD29R,2.800000X1.600000*%
%ADD30R,0.750000X1.200000*%
%ADD31R,1.150000X1.150000*%
%ADD32R,1.820000X1.070000*%
%ADD33R,1.600000X2.000000*%
%ADD34R,2.000000X2.000000*%
%ADD35R,1.820000X0.620000*%
%ADD36R,1.650000X1.650000*%
%ADD37C,1.650000*%
%ADD38R,0.620000X1.820000*%
%ADD39R,0.600000X1.200000*%
%ADD40R,0.900000X0.650000*%
%ADD41R,2.000000X1.600000*%
%ADD42R,1.800000X1.150000*%
%ADD43R,0.650000X0.900000*%
%ADD44R,0.863600X0.965200*%
%ADD45R,1.470000X0.620000*%
%ADD46R,1.150000X0.600000*%
%ADD47R,1.000000X0.400000*%
%ADD48O,2.800000X4.800000*%
%ADD49O,3.204000X2.004000*%
G04 APERTURE END LIST*
D10*
X64000000Y-4500000D03*
D11*
X26050000Y-15950000D03*
X23150000Y-15950000D03*
D12*
X35500000Y-25200000D03*
X40500000Y-25200000D03*
D13*
X23700000Y-14050000D03*
X25100000Y-14050000D03*
D14*
X59350000Y-24925000D03*
X59350000Y-23525000D03*
D15*
X33188000Y-33600000D03*
X35512000Y-33600000D03*
D14*
X60875000Y-24925000D03*
X60875000Y-23525000D03*
D16*
X40100000Y-31700000D03*
X38850000Y-31700000D03*
D17*
X45080000Y-13400000D03*
X42320000Y-13400000D03*
D13*
X19300000Y-14450000D03*
X20700000Y-14450000D03*
D18*
X8000000Y-25400000D03*
X8000000Y-23800000D03*
D19*
X27600000Y-25700000D03*
X29200000Y-25700000D03*
D20*
X14630000Y-27970000D03*
X14630000Y-29630000D03*
D21*
X36500000Y-7400000D03*
X34000000Y-7400000D03*
X31500000Y-7400000D03*
D22*
X38400000Y-14400000D03*
D23*
X29600000Y-14400000D03*
D24*
X48550000Y-22750000D03*
X48550000Y-23700000D03*
X48550000Y-24650000D03*
X51050000Y-24650000D03*
X51050000Y-22750000D03*
D25*
X39000000Y-1100000D03*
X37000000Y-1100000D03*
X33000000Y-1100000D03*
X31000000Y-1100000D03*
X29000000Y-1100000D03*
X29000000Y-4400000D03*
X31000000Y-4400000D03*
X33000000Y-4400000D03*
X37000000Y-4400000D03*
X39000000Y-4400000D03*
D18*
X28000000Y-20050000D03*
X28000000Y-18450000D03*
D17*
X44020000Y-21050000D03*
X46780000Y-21050000D03*
D26*
X21520000Y-32660000D03*
X23720000Y-32660000D03*
D19*
X2800000Y-11200000D03*
X1200000Y-11200000D03*
D17*
X18670000Y-19150000D03*
X21430000Y-19150000D03*
D27*
X3230000Y-14700000D03*
X1570000Y-14700000D03*
D28*
X28300000Y-31900000D03*
D29*
X49400000Y-8600000D03*
X45100000Y-8600000D03*
D30*
X11400000Y-30300000D03*
X11400000Y-33700000D03*
D31*
X19190000Y-29000000D03*
X17290000Y-29000000D03*
D32*
X49800000Y-18170000D03*
X49800000Y-20930000D03*
D33*
X1925000Y-21200000D03*
D34*
X3100000Y-27200000D03*
D33*
X4275000Y-21200000D03*
D35*
X31000000Y-28450000D03*
X31000000Y-25250000D03*
D32*
X26900000Y-9280000D03*
X26900000Y-6520000D03*
D21*
X13600000Y-7400000D03*
X11100000Y-7400000D03*
X8600000Y-7400000D03*
D22*
X15500000Y-14400000D03*
D23*
X6700000Y-14400000D03*
D32*
X22500000Y-6520000D03*
X22500000Y-9280000D03*
D18*
X8900000Y-33900000D03*
X8900000Y-32300000D03*
D36*
X4270000Y-9000000D03*
D37*
X1730000Y-9000000D03*
D38*
X18450000Y-16800000D03*
X21650000Y-16800000D03*
D39*
X23100000Y-21050000D03*
X24050000Y-21050000D03*
X25000000Y-21050000D03*
X25000000Y-18550000D03*
X23100000Y-18550000D03*
D40*
X8000000Y-22325000D03*
X8000000Y-20875000D03*
D18*
X41900000Y-8600000D03*
X41900000Y-7000000D03*
D14*
X22100000Y-12800000D03*
X22100000Y-11400000D03*
D21*
X59400000Y-7400000D03*
X56900000Y-7400000D03*
X54400000Y-7400000D03*
D22*
X61300000Y-14400000D03*
D23*
X52500000Y-14400000D03*
D41*
X16800000Y-22625000D03*
D34*
X10800000Y-23800000D03*
D41*
X16800000Y-24975000D03*
D14*
X20800000Y-12600000D03*
X20800000Y-11200000D03*
D17*
X45080000Y-15800000D03*
X42320000Y-15800000D03*
D38*
X49500000Y-27000000D03*
X52700000Y-27000000D03*
D42*
X53950000Y-24700000D03*
X53950000Y-21800000D03*
D17*
X44020000Y-18800000D03*
X46780000Y-18800000D03*
D26*
X45000000Y-27300000D03*
X47200000Y-27300000D03*
D43*
X26625000Y-12500000D03*
X25175000Y-12500000D03*
D25*
X21000000Y-1100000D03*
X19000000Y-1100000D03*
X15000000Y-1100000D03*
X13000000Y-1100000D03*
X11000000Y-1100000D03*
X11000000Y-4400000D03*
X13000000Y-4400000D03*
X15000000Y-4400000D03*
X19000000Y-4400000D03*
X21000000Y-4400000D03*
D44*
X60750000Y-31476300D03*
X60750000Y-29723700D03*
D45*
X57575000Y-25000000D03*
X57575000Y-23000000D03*
D46*
X14100000Y-31750000D03*
X14100000Y-32700000D03*
X14100000Y-33650000D03*
X16700000Y-33650000D03*
X16700000Y-32700000D03*
X16700000Y-31750000D03*
D25*
X57000000Y-1100000D03*
X55000000Y-1100000D03*
X51000000Y-1100000D03*
X49000000Y-1100000D03*
X47000000Y-1100000D03*
X47000000Y-4400000D03*
X49000000Y-4400000D03*
X51000000Y-4400000D03*
X55000000Y-4400000D03*
X57000000Y-4400000D03*
D43*
X25525000Y-10950000D03*
X24075000Y-10950000D03*
D31*
X30600000Y-22600000D03*
X28700000Y-22600000D03*
D14*
X55850000Y-24925000D03*
X55850000Y-23525000D03*
D26*
X33175000Y-30900000D03*
X34825000Y-30900000D03*
D43*
X2625000Y-12800000D03*
X1175000Y-12800000D03*
D14*
X62400000Y-24925000D03*
X62400000Y-23525000D03*
D32*
X47150000Y-16280000D03*
X47150000Y-13520000D03*
D47*
X3600000Y-18450000D03*
X3600000Y-17800000D03*
X3600000Y-17150000D03*
X1600000Y-17150000D03*
X1600000Y-17800000D03*
X1600000Y-18450000D03*
D19*
X29200000Y-27200000D03*
X27600000Y-27200000D03*
D40*
X40200000Y-8525000D03*
X40200000Y-7075000D03*
D44*
X58850000Y-31476300D03*
X58850000Y-29723700D03*
D32*
X20100000Y-6620000D03*
X20100000Y-9380000D03*
D29*
X55100000Y-31750000D03*
X50800000Y-31750000D03*
D28*
X4000000Y-4500000D03*
D27*
X23430000Y-27500000D03*
X21770000Y-27500000D03*
D45*
X19100000Y-13100000D03*
X19100000Y-11100000D03*
X24700000Y-7500000D03*
X24700000Y-9500000D03*
D48*
X65200000Y-13300000D03*
D49*
X7700000Y-27300000D03*
X22600000Y-24800000D03*
X22600000Y-29800000D03*
X60300000Y-27300000D03*
X45400000Y-29800000D03*
X45400000Y-24800000D03*
M02*
